<svg width="125" height="109" viewBox="0 0 125 109" fill="none" xmlns="http://www.w3.org/2000/svg">
<path d="M63.2361 104.898C89.9361 104.898 111.636 83.1981 111.636 56.4981C111.636 29.7981 89.9361 8.09814 63.2361 8.09814C36.5361 8.19814 14.8361 29.7981 14.8361 56.5981C14.8361 83.2981 36.5361 104.898 63.2361 104.898Z" fill="#F1F3F9" stroke="#D6DCE8" stroke-width="2" stroke-miterlimit="10"/>
<path d="M95.0361 48.698V84.598C95.0361 86.798 93.2361 88.598 91.0361 88.598H34.1361C31.9361 88.598 30.1361 86.798 30.1361 84.598V48.698C30.1361 46.498 32.0361 44.698 34.1361 44.698H91.0361C92.7361 44.698 94.1361 45.698 94.8361 47.198C94.9361 47.598 95.0361 48.098 95.0361 48.698Z" fill="#F1F3F9" stroke="#D6DCE8" stroke-width="2" stroke-miterlimit="10"/>
<path d="M123.136 44.4982C124.736 42.9982 124.836 40.4982 123.436 38.8982C121.936 37.2982 119.436 37.1982 117.836 38.5982C116.236 40.0982 116.136 42.5982 117.536 44.1982C119.036 45.8982 121.536 45.9982 123.136 44.4982Z" fill="#F1F3F9"/>
<path d="M123.436 26.9981C124.136 26.3981 124.136 25.2981 123.536 24.6981C122.936 23.9981 121.836 23.9981 121.236 24.5981C120.636 25.1981 120.536 26.2981 121.136 26.8981C121.736 27.5981 122.736 27.5981 123.436 26.9981Z" fill="#F1F3F9"/>
<path d="M81.6361 2.79811C82.1361 2.39811 82.1361 1.59811 81.7361 1.19811C81.3361 0.698114 80.6361 0.698114 80.1361 1.09811C79.6361 1.49811 79.6361 2.19811 80.0361 2.69811C80.4361 3.19811 81.1361 3.19811 81.6361 2.79811Z" fill="#F1F3F9"/>
<path d="M115.636 25.6982L101.436 50.8982C100.936 51.6982 99.8361 51.9982 99.0361 51.4982L74.8361 37.3982C74.0361 36.8982 73.7361 35.7982 74.2361 34.9982L92.9361 2.89816C93.4361 2.09816 94.5361 1.79816 95.3361 2.29816L112.936 12.5982L115.636 25.6982Z" fill="white" stroke="#D6DCE8" stroke-width="2" stroke-miterlimit="10"/>
<path d="M112.736 12.498L108.736 19.298C108.236 20.298 108.536 21.498 109.436 22.098L115.536 25.598" fill="#D6DCE8"/>
<path d="M96.1361 19.098C96.5361 18.998 96.9361 18.998 97.2361 18.998C97.6361 18.998 98.0361 18.998 98.4361 18.998C98.8361 19.098 99.3361 19.198 99.7361 19.298C100.236 19.498 100.636 19.698 101.036 19.898C101.636 20.198 102.136 20.598 102.636 21.098C103.036 21.498 103.336 21.998 103.536 22.698C103.736 23.198 103.736 23.798 103.736 24.398C103.636 24.998 103.436 25.598 103.136 26.198C102.836 26.698 102.536 27.098 102.136 27.498C101.736 27.798 101.436 27.998 100.936 28.198C100.536 28.398 100.136 28.498 99.7361 28.498L98.6361 28.598C98.3361 28.598 98.0361 28.698 97.6361 28.798C97.3361 28.898 97.1361 28.998 96.9361 29.198L95.8361 30.698L93.9361 29.698L94.7361 27.798C94.8361 27.498 95.1361 27.198 95.3361 26.998C95.6361 26.798 95.9361 26.698 96.2361 26.598C96.6361 26.498 96.9361 26.498 97.3361 26.398C97.7361 26.398 98.1361 26.298 98.5361 26.198C98.9361 26.098 99.2361 25.998 99.6361 25.798C100.036 25.598 100.236 25.298 100.436 24.898C100.536 24.698 100.636 24.398 100.736 24.098C100.736 23.798 100.736 23.598 100.636 23.398C100.536 23.098 100.436 22.898 100.236 22.698C100.036 22.498 99.8361 22.298 99.5361 22.098C99.2361 21.898 98.8361 21.698 98.4361 21.598C98.1361 21.498 97.8361 21.498 97.5361 21.498C97.2361 21.498 97.0361 21.498 96.8361 21.498C96.7361 21.498 96.5361 21.498 96.4361 21.398C96.2361 21.298 96.0361 20.998 96.0361 20.798L96.1361 19.098ZM90.6361 33.198C90.7361 32.998 90.9361 32.798 91.1361 32.598C91.3361 32.498 91.5361 32.298 91.7361 32.298C92.2361 32.198 92.7361 32.198 93.2361 32.498C93.4361 32.598 93.6361 32.798 93.8361 32.998C93.9361 33.198 94.0361 33.398 94.1361 33.598C94.4361 34.598 93.8361 35.698 92.8361 35.998C92.3361 36.098 91.8361 35.998 91.3361 35.798C91.1361 35.698 90.9361 35.498 90.7361 35.298C90.6361 35.098 90.4361 34.898 90.4361 34.698C90.3361 34.498 90.3361 34.198 90.4361 33.998C90.4361 33.598 90.5361 33.398 90.6361 33.198Z" fill="#D6DCE8"/>
<path d="M24.6361 14.798L40.9361 31.698C41.4361 32.298 41.4361 33.198 40.8361 33.798L24.2361 49.398C23.6361 49.898 22.7361 49.898 22.1361 49.298L1.53608 27.398C1.03608 26.798 1.03608 25.898 1.63608 25.298L13.6361 13.998L24.6361 14.798Z" fill="white" stroke="#D6DCE8" stroke-width="2" stroke-miterlimit="10"/>
<path d="M13.6361 13.8982L18.1361 18.5982C18.7361 19.1982 19.8361 19.1982 20.5361 18.5982L24.6361 14.6982" fill="#D6DCE8"/>
<path d="M14.8361 28.3981C14.8361 28.0981 14.9361 27.7981 15.0361 27.4981C15.1361 27.1981 15.2361 26.8981 15.3361 26.5981C15.4361 26.2981 15.6361 25.9981 15.8361 25.6981C16.0361 25.3981 16.3361 25.0981 16.6361 24.7981C17.0361 24.3981 17.4361 24.0981 17.9361 23.8981C18.3361 23.6981 18.8361 23.5981 19.2361 23.5981C19.6361 23.5981 20.1361 23.6981 20.5361 23.7981C20.9361 23.9981 21.3361 24.2981 21.7361 24.5981C22.0361 24.8981 22.3361 25.2981 22.4361 25.6981C22.5361 25.9981 22.6361 26.3981 22.7361 26.7981C22.7361 27.0981 22.7361 27.4981 22.7361 27.7981C22.6361 28.0981 22.6361 28.3981 22.5361 28.6981C22.5361 28.9981 22.4361 29.1981 22.4361 29.4981C22.4361 29.6981 22.4361 29.8981 22.6361 30.0981L23.4361 31.2981L22.2361 32.3981L21.0361 31.2981C20.8361 31.0981 20.6361 30.8981 20.5361 30.5981C20.4361 30.2981 20.4361 30.0981 20.4361 29.7981C20.4361 29.4981 20.5361 29.1981 20.5361 28.8981C20.6361 28.5981 20.6361 28.2981 20.6361 27.9981C20.6361 27.6981 20.6361 27.3981 20.5361 27.0981C20.4361 26.7981 20.2361 26.4981 20.0361 26.1981C19.9361 25.9981 19.7361 25.8981 19.5361 25.7981C19.3361 25.6981 19.1361 25.6981 18.9361 25.6981C18.7361 25.6981 18.5361 25.7981 18.3361 25.8981C18.1361 25.9981 17.9361 26.0981 17.7361 26.2981C17.5361 26.4981 17.3361 26.7981 17.1361 26.9981C17.0361 27.1981 16.9361 27.3981 16.8361 27.6981C16.7361 27.8981 16.7361 28.0981 16.7361 28.1981C16.7361 28.2981 16.6361 28.3981 16.5361 28.4981C16.4361 28.6981 16.1361 28.6981 15.9361 28.5981L14.8361 28.3981ZM24.6361 35.8981C24.5361 35.7981 24.4361 35.5981 24.3361 35.3981C24.2361 35.1981 24.2361 34.9981 24.2361 34.7981C24.2361 34.3981 24.4361 33.9981 24.7361 33.6981C24.8361 33.5981 25.0361 33.4981 25.2361 33.3981C25.4361 33.2981 25.6361 33.2981 25.8361 33.2981C26.4361 33.2981 27.0361 33.6981 27.3361 34.2981C27.4361 34.4981 27.4361 34.6981 27.4361 34.8981C27.4361 35.0981 27.3361 35.2981 27.3361 35.4981C27.2361 35.6981 27.1361 35.7981 26.9361 35.9981C26.8361 36.0981 26.6361 36.2981 26.4361 36.2981C26.0361 36.3981 25.6361 36.3981 25.3361 36.2981C24.9361 36.1981 24.7361 36.0981 24.6361 35.8981Z" fill="#D6DCE8"/>
<path d="M66.8361 41.398L60.5361 63.898C60.3361 64.598 59.5361 65.098 58.7361 64.798L36.8361 58.398C36.1361 58.198 35.6361 57.398 35.9361 56.598L44.4361 27.698C44.6361 26.998 45.4361 26.498 46.2361 26.798L62.1361 31.398L66.8361 41.398Z" fill="white" stroke="#D6DCE8" stroke-width="2" stroke-miterlimit="10"/>
<path opacity="0.1" d="M95.0361 48.6981V84.5981C95.0361 86.7981 93.2361 88.5981 91.0361 88.5981H34.1361C31.9361 88.5981 30.1361 86.7981 30.1361 84.5981V56.8981H53.4361C55.7361 56.8981 58.0361 56.0981 59.7361 54.5981L66.0361 49.3981C67.8361 47.9981 70.0361 47.0981 72.3361 47.0981H94.7361C94.9361 47.5981 95.0361 48.0981 95.0361 48.6981Z" fill="#AAB3C5"/>
<path d="M62.1361 31.498L60.2361 37.798C60.0361 38.598 60.5361 39.598 61.3361 39.898L66.8361 41.598" fill="#D6DCE8"/>
<path d="M50.2361 39.8982C50.5361 39.7982 50.8361 39.6982 51.1361 39.5982C51.4361 39.4982 51.7361 39.3982 52.1361 39.3982C52.5361 39.3982 52.8361 39.3982 53.2361 39.3982C53.6361 39.3982 54.0361 39.4982 54.4361 39.5982C54.9361 39.6982 55.4361 39.9982 55.9361 40.2982C56.3361 40.5982 56.6361 40.8982 56.9361 41.2982C57.1361 41.6982 57.3361 42.0982 57.4361 42.4982C57.5361 42.9982 57.4361 43.4982 57.3361 43.9982C57.2361 44.3982 57.0361 44.7982 56.7361 45.1982C56.5361 45.4982 56.2361 45.7982 55.9361 45.9982C55.6361 46.1982 55.3361 46.3982 55.0361 46.4982L54.1361 46.9982C53.9361 47.0982 53.6361 47.1982 53.4361 47.2982C53.2361 47.3982 53.0361 47.5982 53.0361 47.7982L52.4361 49.0982L50.7361 48.5982L51.0361 46.8982C51.0361 46.5982 51.2361 46.3982 51.4361 46.1982C51.6361 45.9982 51.8361 45.7982 52.1361 45.6982C52.4361 45.5982 52.7361 45.4982 52.9361 45.3982C53.2361 45.2982 53.5361 45.1982 53.8361 44.9982C54.1361 44.8982 54.3361 44.6982 54.6361 44.4982C54.8361 44.2982 55.0361 43.9982 55.1361 43.5982C55.2361 43.3982 55.2361 43.1982 55.2361 42.9982C55.2361 42.7982 55.1361 42.5982 55.0361 42.3982C54.9361 42.1982 54.7361 42.0982 54.5361 41.8982C54.3361 41.7982 54.1361 41.6982 53.8361 41.5982C53.5361 41.4982 53.2361 41.4982 52.8361 41.4982C52.6361 41.4982 52.3361 41.4982 52.1361 41.5982C51.9361 41.5982 51.7361 41.6982 51.6361 41.6982C51.5361 41.6982 51.4361 41.7982 51.2361 41.6982C51.0361 41.6982 50.8361 41.4982 50.8361 41.2982L50.2361 39.8982ZM48.6361 52.1982C48.7361 51.9982 48.7361 51.7982 48.9361 51.6982C49.0361 51.4982 49.2361 51.3982 49.3361 51.2982C49.7361 51.0982 50.1361 51.0982 50.4361 51.1982C50.6361 51.2982 50.8361 51.3982 50.9361 51.4982C51.0361 51.5982 51.2361 51.7982 51.3361 51.8982C51.7361 52.5982 51.4361 53.5982 50.7361 53.9982C50.3361 54.1982 49.9361 54.1982 49.6361 54.0982C49.4361 53.9982 49.2361 53.9982 49.1361 53.7982C48.9361 53.6982 48.8361 53.4982 48.7361 53.3982C48.6361 53.1982 48.6361 53.0982 48.5361 52.8982C48.5361 52.5982 48.5361 52.3982 48.6361 52.1982Z" fill="#D6DCE8"/>
<path d="M118.136 79.7982L97.5361 90.9982C96.8361 91.3982 95.9361 91.0982 95.6361 90.3982L85.2361 70.2982C84.9361 69.5982 85.1361 68.6982 85.8361 68.3982L112.636 54.1982C113.336 53.7982 114.236 54.0982 114.536 54.7982L122.036 69.3982L118.136 79.7982Z" fill="white" stroke="#D6DCE8" stroke-width="2" stroke-miterlimit="10"/>
<path d="M122.036 69.498L116.236 72.498C115.536 72.898 115.136 73.998 115.536 74.798L118.136 79.898" fill="#D6DCE8"/>
<path d="M107.736 66.7981C108.036 66.8981 108.336 67.0981 108.636 67.1981C108.936 67.2981 109.236 67.4981 109.536 67.7981C109.836 68.0981 110.036 68.2981 110.336 68.5981C110.636 68.8981 110.836 69.2981 111.036 69.5981C111.336 69.9981 111.436 70.5981 111.536 71.0981C111.636 71.5981 111.536 72.0981 111.536 72.5981C111.336 72.9981 111.236 73.4981 111.036 73.7981C110.736 74.1981 110.236 74.4981 109.936 74.6981C109.536 74.8981 109.136 75.0981 108.636 75.0981C108.236 75.1981 107.836 75.1981 107.436 75.0981C107.036 74.9981 106.736 74.8981 106.436 74.7981L105.536 74.3981C105.336 74.2981 105.036 74.1981 104.836 74.0981C104.636 73.9981 104.336 73.9981 104.136 74.1981L102.736 74.6981L101.936 73.1981L103.336 72.2981C103.536 72.0981 103.836 72.0981 104.136 72.0981C104.436 72.0981 104.736 72.0981 105.036 72.2981C105.336 72.3981 105.636 72.5981 105.836 72.6981C106.136 72.7981 106.436 72.9981 106.736 73.0981C107.036 73.1981 107.336 73.2981 107.636 73.2981C107.936 73.2981 108.336 73.1981 108.636 72.9981C109.036 72.7981 109.336 72.3981 109.436 71.9981C109.536 71.7981 109.436 71.5981 109.436 71.2981C109.336 71.0981 109.336 70.8981 109.136 70.5981C109.036 70.2981 108.736 70.0981 108.536 69.6981C108.436 69.5981 108.136 69.2981 107.936 69.2981C107.836 69.1981 107.536 69.0981 107.536 68.9981C107.436 68.8981 107.336 68.8981 107.236 68.6981C107.136 68.5981 107.136 68.2981 107.236 68.0981L107.736 66.7981ZM97.8361 74.1981C98.0361 74.0981 98.2361 73.9981 98.4361 74.0981C98.6361 73.9981 98.8361 74.0981 99.0361 74.0981C99.4361 74.2981 99.7361 74.4981 99.9361 74.7981C100.036 74.9981 100.036 75.1981 100.036 75.3981C100.036 75.4981 100.036 75.7981 100.036 75.9981C99.9361 76.3981 99.5361 76.6981 99.2361 76.8981C99.0361 76.9981 98.8361 76.9981 98.6361 76.9981C98.5361 76.9981 98.2361 76.9981 98.0361 76.9981C97.6361 76.7981 97.3361 76.5981 97.1361 76.2981C97.1361 75.9981 97.1361 75.7981 97.1361 75.5981C97.0361 75.3981 97.1361 75.1981 97.1361 74.9981C97.2361 74.7981 97.3361 74.5981 97.3361 74.4981C97.5361 74.3981 97.7361 74.2981 97.8361 74.1981Z" fill="#D6DCE8"/>
<path d="M96.136 67.6981V85.3981C96.136 87.6981 94.236 89.4981 92.036 89.4981H33.536C31.236 89.4981 29.436 87.5981 29.436 85.3981V66.2981" stroke="#1676EE" stroke-width="3" stroke-linecap="round" stroke-linejoin="round"/>
<path d="M93.836 56.3982H73.836C71.936 56.3982 70.036 57.0982 68.536 58.2982L63.236 62.5982C61.736 63.7982 59.836 64.4982 57.936 64.4982H35.136C32.836 64.4982 30.936 66.2982 30.936 68.5982C30.936 68.7982 30.936 68.9982 31.036 69.1982L35.136 91.0982C35.436 93.1982 37.236 94.6982 39.336 94.6982H87.936C90.036 94.6982 91.736 93.1982 92.136 91.1982L97.936 61.1982C98.236 58.9982 96.836 56.7982 94.436 56.4982C94.236 56.3982 94.036 56.3982 93.836 56.3982Z" fill="white"/>
<path d="M99.4361 52.3982H75.4361C73.1361 52.3982 70.8361 53.1982 69.1361 54.6982L62.8361 59.7982C61.0361 61.2982 58.8361 62.0982 56.5361 62.0982H29.2361C26.5361 62.0982 24.2361 64.2982 24.2361 67.0982C24.2361 67.2982 24.2361 67.5982 24.3361 67.7982L29.3361 94.2982C29.7361 96.7982 31.8361 98.6982 34.3361 98.6982H92.3361C94.8361 98.6982 96.9361 96.8982 97.3361 94.4982L104.236 58.1982C104.636 55.4982 102.936 52.8982 100.136 52.4982C99.9361 52.3982 99.6361 52.3982 99.4361 52.3982Z" fill="white" stroke="#D6DCE8" stroke-width="2" stroke-miterlimit="10"/>
<path d="M73.3361 79.7981C74.7361 79.7981 75.9361 78.5981 75.9361 77.1981C75.9361 75.7981 74.7361 74.5981 73.3361 74.5981C71.9361 74.5981 70.7361 75.7981 70.7361 77.1981C70.7361 78.6981 71.8361 79.7981 73.3361 79.7981Z" fill="#AAB2C5"/>
<path d="M68.7361 84.1982H67.4361C66.3361 81.7982 63.4361 80.8982 61.1361 82.0982C60.2361 82.4982 59.4361 83.2982 59.0361 84.1982H57.7361C58.8361 81.0982 62.4361 79.4982 65.4361 80.6982C66.8361 81.2982 68.1361 82.4982 68.7361 84.1982Z" fill="#AAB2C5"/>
<path d="M106.136 107.298C104.936 107.298 105.336 107.398 96.3361 98.398C87.5361 104.898 75.5361 98.598 75.5361 87.998C75.5361 80.798 81.3361 74.998 88.5361 74.998C98.9361 74.998 105.236 86.598 99.2361 95.398L107.636 103.798C108.836 105.098 107.936 107.298 106.136 107.298ZM88.5361 79.0981C83.6361 79.0981 79.6361 83.098 79.6361 87.998C79.6361 92.898 83.6361 96.898 88.5361 96.898C89.0361 96.898 89.6361 96.898 90.1361 96.798C90.6361 96.698 91.1361 96.598 91.6361 96.398C92.1361 96.198 92.6361 95.9981 93.0361 95.6981C93.5361 95.3981 94.0361 94.9981 94.4361 94.5981C94.8361 94.2981 95.1361 93.898 95.4361 93.498C95.7361 93.098 96.0361 92.5981 96.3361 92.1981C96.5361 91.6981 96.8361 91.1981 96.9361 90.6981C97.1361 90.1981 97.2361 89.6981 97.2361 89.1981C97.3361 88.7981 97.3361 88.398 97.3361 87.998C97.4361 83.098 93.4361 79.0981 88.5361 79.0981Z" fill="#D6DCE8" stroke="#AAB2C5" stroke-width="2" stroke-miterlimit="10"/>
<path d="M53.3361 79.7981C54.7361 79.7981 55.9361 78.5981 55.9361 77.1981C55.9361 75.7981 54.7361 74.5981 53.3361 74.5981C51.9361 74.5981 50.7361 75.7981 50.7361 77.1981C50.8361 78.6981 51.9361 79.7981 53.3361 79.7981Z" fill="#AAB2C5"/>
</svg>
