<svg width="128" height="121" viewBox="0 0 128 121" fill="none" xmlns="http://www.w3.org/2000/svg">
<path d="M123.055 69.1179C123.055 83.3179 117.255 96.1179 107.955 105.318C98.8555 114.418 86.2555 119.918 72.3555 119.918C58.5555 119.918 45.9555 114.318 36.7555 105.318C27.4555 96.1179 21.6555 83.3179 21.6555 69.1179C21.6555 41.0179 44.3555 18.3179 72.3555 18.3179C100.355 18.3179 123.055 41.1179 123.055 69.1179Z" fill="#F1F3F9" stroke="#D6DCE8" stroke-width="2" stroke-miterlimit="10"/>
<path d="M65.3246 23.5288L61.5637 36.7939L70.5662 43.0331L69.9331 58.2748L81.2959 37.4211L76.0181 33.2043L82.0542 23.5288H88.8305L109.33 45.8288L110.13 110.229C110.13 112.429 108.33 114.129 106.13 114.129H43.3305C41.1304 114.129 39.3304 112.329 39.3304 110.229V27.4288C39.3304 25.2288 41.1304 23.5288 43.3305 23.5288H65.3246Z" fill="white" stroke="#D6DCE8" stroke-width="2" stroke-miterlimit="10" stroke-linejoin="round"/>
<path d="M118.655 35.8177C120.92 35.8177 122.755 33.982 122.755 31.7177C122.755 29.4533 120.92 27.6177 118.655 27.6177C116.391 27.6177 114.555 29.4533 114.555 31.7177C114.555 33.982 116.391 35.8177 118.655 35.8177Z" fill="#F1F3F9"/>
<path d="M124.655 19.8178C126.202 19.8178 127.455 18.5642 127.455 17.0178C127.455 15.4714 126.202 14.2178 124.655 14.2178C123.109 14.2178 121.855 15.4714 121.855 17.0178C121.855 18.5642 123.109 19.8178 124.655 19.8178Z" fill="#F1F3F9"/>
<path d="M23.2554 35.7177C24.8018 35.7177 26.0554 34.4641 26.0554 32.9177C26.0554 31.3713 24.8018 30.1177 23.2554 30.1177C21.709 30.1177 20.4554 31.3713 20.4554 32.9177C20.4554 34.4641 21.709 35.7177 23.2554 35.7177Z" fill="#F1F3F9"/>
<path d="M6.15544 89.7179C9.02732 89.7179 11.3554 87.3898 11.3554 84.5179C11.3554 81.646 9.02732 79.3179 6.15544 79.3179C3.28356 79.3179 0.955444 81.646 0.955444 84.5179C0.955444 87.3898 3.28356 89.7179 6.15544 89.7179Z" fill="#F1F3F9"/>
<path d="M61.1847 37.0287H49.0847C48.3847 37.0287 47.7847 36.4287 47.7847 35.7287C47.7847 35.0287 48.3847 34.4287 49.0847 34.4287H61.1847C61.8847 34.4287 62.4847 35.0287 62.4847 35.7287C62.4847 36.4287 61.8847 37.0287 61.1847 37.0287Z" fill="#D6DCE8"/>
<path d="M60.6847 44.2289H49.0847C48.3847 44.2289 47.7847 43.6289 47.7847 42.9289C47.7847 42.2289 48.3847 41.6289 49.0847 41.6289H60.5847C61.2847 41.6289 61.8847 42.2289 61.8847 42.9289C61.8847 43.6289 61.2847 44.2289 60.6847 44.2289Z" fill="#D6DCE8"/>
<path d="M87.9847 23.5288V41.3288C87.9847 43.8288 90.1847 45.8288 92.6847 45.8288H108.485" fill="#D6DCE8"/>
<path d="M61.9354 17.5836L58.1538 11.8911" stroke="#A2ABBE" stroke-width="2"/>
<path d="M72.0204 14.7374L72.4647 0.317871" stroke="#A2ABBE" stroke-width="2"/>
<path d="M81.0623 17.7178L87.099 4.61523" stroke="#A2ABBE" stroke-width="2"/>
<path d="M60.5266 89.697C60.1066 89.697 59.7705 89.5289 59.4345 89.2769C58.8464 88.6888 58.8464 87.6807 59.4345 87.0926C63.2991 83.312 68.4238 81.2117 73.8847 81.2117C79.3455 81.2117 84.4703 83.312 88.3349 87.0926C88.923 87.6807 88.923 88.6888 88.3349 89.2769C87.7468 89.865 86.7386 89.865 86.1505 89.2769C82.874 86.0004 78.5054 84.2361 73.8847 84.2361C69.264 84.2361 64.8953 86.0004 61.6188 89.2769C61.2828 89.5289 60.9467 89.697 60.5266 89.697Z" fill="#AAB2C5"/>
<path d="M65.8194 67.1815L67.8358 65.1652C68.4238 64.5771 68.4238 63.569 67.8358 62.9809C67.2477 62.3928 66.2395 62.3928 65.6514 62.9809L63.6351 64.9972L61.6188 62.9809C61.0307 62.3928 60.0226 62.3928 59.4345 62.9809C58.8464 63.569 58.8464 64.5771 59.4345 65.1652L61.4508 67.1815L59.4345 69.1978C58.8464 69.7859 58.8464 70.794 59.4345 71.3821C59.7705 71.7182 60.1066 71.8022 60.5266 71.8022C60.9467 71.8022 61.2828 71.6342 61.6188 71.3821L63.6351 69.3658L65.6514 71.3821C65.9875 71.7182 66.3235 71.8022 66.7436 71.8022C67.1637 71.8022 67.4997 71.6342 67.8358 71.3821C68.4238 70.794 68.4238 69.7859 67.8358 69.1978L65.8194 67.1815Z" fill="#AAB2C5"/>
<path d="M86.2346 67.1815L88.2509 65.1652C88.839 64.5771 88.839 63.569 88.2509 62.9809C87.6628 62.3928 86.6547 62.3928 86.0666 62.9809L84.0503 64.9972L82.034 62.9809C81.4459 62.3928 80.4377 62.3928 79.8496 62.9809C79.2615 63.569 79.2615 64.5771 79.8496 65.1652L81.8659 67.1815L79.8496 69.1978C79.2615 69.7859 79.2615 70.794 79.8496 71.3821C80.1857 71.7182 80.5217 71.8022 80.9418 71.8022C81.3619 71.8022 81.6979 71.6342 82.034 71.3821L84.0503 69.3658L86.0666 71.3821C86.4026 71.7182 86.7387 71.8022 87.1587 71.8022C87.5788 71.8022 87.9149 71.6342 88.2509 71.3821C88.839 70.794 88.839 69.7859 88.2509 69.1978L86.2346 67.1815Z" fill="#AAB2C5"/>
</svg>
