<svg width="150" height="123" viewBox="0 0 150 123" fill="none" xmlns="http://www.w3.org/2000/svg">
<path d="M82.5579 106.561C110.558 106.561 133.258 83.8609 133.258 55.7609C133.258 27.6609 110.458 4.96094 82.5579 4.96094C54.5579 4.96094 31.8578 27.6609 31.8578 55.7609C31.8578 83.8609 54.5579 106.561 82.5579 106.561Z" fill="#F1F3F9" stroke="#D6DCE8" stroke-width="2" stroke-miterlimit="10"/>
<path d="M129.958 22.461C132.222 22.461 134.058 20.6254 134.058 18.361C134.058 16.0966 132.222 14.261 129.958 14.261C127.694 14.261 125.858 16.0966 125.858 18.361C125.858 20.6254 127.694 22.461 129.958 22.461Z" fill="#F1F3F9"/>
<path d="M135.958 6.46108C137.504 6.46108 138.758 5.20748 138.758 3.66108C138.758 2.11469 137.504 0.861084 135.958 0.861084C134.412 0.861084 133.158 2.11469 133.158 3.66108C133.158 5.20748 134.412 6.46108 135.958 6.46108Z" fill="#F1F3F9"/>
<path d="M34.5579 22.361C36.1043 22.361 37.3579 21.1074 37.3579 19.561C37.3579 18.0146 36.1043 16.761 34.5579 16.761C33.0115 16.761 31.7579 18.0146 31.7579 19.561C31.7579 21.1074 33.0115 22.361 34.5579 22.361Z" fill="#F1F3F9"/>
<path d="M17.4579 76.3609C20.3298 76.3609 22.6579 74.0328 22.6579 71.1609C22.6579 68.2891 20.3298 65.9609 17.4579 65.9609C14.586 65.9609 12.2579 68.2891 12.2579 71.1609C12.2579 74.0328 14.586 76.3609 17.4579 76.3609Z" fill="#F1F3F9"/>
<path d="M82.5278 78.398L80.7562 78.3738C80.4019 78.369 80.0524 78.0098 80.0793 77.5724C80.1061 77.135 80.3822 76.7636 80.7365 76.7684L82.508 76.7926C82.8623 76.7975 83.2118 77.1566 83.185 77.594C83.1362 78.1145 82.8821 78.4029 82.5278 78.398Z" fill="#CED7E2"/>
<path d="M74.5083 31.7198L95.9906 75.8295C96.7086 77.3577 96.0742 79.1347 94.546 79.8527L51.2106 100.319C49.6823 101.037 47.9054 100.402 47.1874 98.8741L20.2594 41.7847C19.5414 40.2564 20.1758 38.4795 21.704 37.7615L53.0672 22.9927L74.5083 31.7198Z" fill="white" stroke="#D6DCE8" stroke-width="2" stroke-miterlimit="10"/>
<path d="M53.0672 22.9927L58.8111 35.2185C59.6447 36.9002 61.7909 37.6415 63.4726 36.8079L74.5083 31.7198" fill="#D6DCE8"/>
<path d="M112.561 36.1162L113.183 85.1751C113.181 86.8636 111.849 88.2004 110.161 88.1981L62.2354 88.2308C60.5469 88.2285 59.2101 86.897 59.2124 85.2085L59.1999 22.087C59.2021 20.3985 60.5337 19.0617 62.2222 19.064L96.8886 19.0793L112.561 36.1162Z" fill="white" stroke="#D6DCE8" stroke-width="2" stroke-miterlimit="10"/>
<path d="M96.8886 19.0793L96.8707 32.5872C96.9076 34.4639 98.5327 36.0495 100.409 36.0126L112.561 36.1162" fill="#D6DCE8"/>
<path d="M142.719 57.8748L122.678 102.711C122.011 104.224 120.147 104.886 118.656 104.136L75.237 84.1143C73.7244 83.4474 73.0619 81.5831 73.7288 80.0705L100.173 22.7932C100.84 21.2805 102.704 20.6181 104.195 21.3681L135.723 35.9327L142.719 57.8748Z" fill="white" stroke="#D6DCE8" stroke-width="2" stroke-miterlimit="10"/>
<path d="M135.64 35.9107L129.99 48.1951C129.174 49.935 130.042 52.0314 131.782 52.8474L142.719 57.8748" fill="#D6DCE8"/>
</svg>
