<svg width="128" height="108" viewBox="0 0 128 108" fill="none" xmlns="http://www.w3.org/2000/svg">
<path d="M71.0377 106.46C99.0377 106.46 121.738 83.7599 121.738 55.6599C121.738 27.5599 98.9377 4.85986 71.0377 4.85986C43.0377 4.85986 20.3377 27.5599 20.3377 55.6599C20.3377 83.7599 43.0377 106.46 71.0377 106.46Z" fill="#F1F3F9" stroke="#D6DFE8" stroke-width="2" stroke-miterlimit="10"/>
<path d="M118.438 22.3602C120.702 22.3602 122.538 20.5245 122.538 18.2602C122.538 15.9958 120.702 14.1602 118.438 14.1602C116.173 14.1602 114.338 15.9958 114.338 18.2602C114.338 20.5245 116.173 22.3602 118.438 22.3602Z" fill="#F1F3F9"/>
<path d="M124.438 6.36001C125.984 6.36001 127.238 5.10641 127.238 3.56001C127.238 2.01361 125.984 0.76001 124.438 0.76001C122.891 0.76001 121.638 2.01361 121.638 3.56001C121.638 5.10641 122.891 6.36001 124.438 6.36001Z" fill="#F1F3F9"/>
<path d="M23.0377 22.2602C24.5841 22.2602 25.8377 21.0066 25.8377 19.4602C25.8377 17.9138 24.5841 16.6602 23.0377 16.6602C21.4913 16.6602 20.2377 17.9138 20.2377 19.4602C20.2377 21.0066 21.4913 22.2602 23.0377 22.2602Z" fill="#F1F3F9"/>
<path d="M5.93767 76.26C8.80955 76.26 11.1377 73.9319 11.1377 71.06C11.1377 68.1881 8.80955 65.86 5.93767 65.86C3.06579 65.86 0.737671 68.1881 0.737671 71.06C0.737671 73.9319 3.06579 76.26 5.93767 76.26Z" fill="#F1F3F9"/>
<path d="M105.538 30.26L106.338 94.66C106.338 96.86 104.538 98.56 102.338 98.56H39.5377C37.3377 98.56 35.5377 96.76 35.5377 94.66V11.86C35.5377 9.65996 37.3377 7.95996 39.5377 7.95996H85.0377L105.538 30.26Z" fill="white" stroke="#D6DFE8" stroke-width="2" stroke-miterlimit="10"/>
<path d="M66.1377 85.66H53.8377C53.3377 85.66 52.9377 85.16 52.9377 84.56C52.9377 83.96 53.3377 83.46 53.8377 83.46H66.1377C66.6377 83.46 67.0377 83.96 67.0377 84.56C67.0377 85.26 66.6377 85.66 66.1377 85.66Z" fill="#D6DCE8"/>
<path d="M59.1377 85.66H45.7377C45.2377 85.66 44.8377 85.16 44.8377 84.56C44.8377 83.96 45.2377 83.46 45.7377 83.46H59.1377C59.6377 83.46 60.0377 83.96 60.0377 84.56C60.0377 85.26 59.6377 85.66 59.1377 85.66Z" fill="#D5DDEA"/>
<path d="M76.2377 21.4599H46.1377C45.4377 21.4599 44.8377 20.8599 44.8377 20.1599C44.8377 19.4599 45.4377 18.8599 46.1377 18.8599H76.2377C76.9377 18.8599 77.5377 19.4599 77.5377 20.1599C77.5377 20.8599 76.9377 21.4599 76.2377 21.4599Z" fill="#D6DCE8"/>
<path d="M57.7377 28.6601H46.1377C45.4377 28.6601 44.8377 28.0601 44.8377 27.3601C44.8377 26.6601 45.4377 26.0601 46.1377 26.0601H57.6377C58.3377 26.0601 58.9377 26.6601 58.9377 27.3601C58.9377 28.0601 58.3377 28.6601 57.7377 28.6601Z" fill="#D6DCE8"/>
<path d="M85.0377 7.95996V25.76C85.0377 28.26 87.2377 30.26 89.7377 30.26H105.538" fill="#D6DCE8"/>
<path d="M96.5993 68.355H61.9031H58.0791H46.5137C46.0473 68.355 45.581 68.8223 45.581 69.4766C45.581 70.0374 45.9541 70.5982 46.5137 70.5982H58.0791H61.9031H96.5993C97.0656 70.5982 97.532 70.1309 97.532 69.4766C97.4387 68.8223 97.0656 68.355 96.5993 68.355Z" fill="#D6DCE8"/>
<path d="M96.506 60.2233H83.6348H79.2512H46.5137C46.0473 60.2233 45.581 60.6906 45.581 61.3449C45.581 61.9057 45.9541 62.4665 46.5137 62.4665H79.2512H83.6348H96.506C96.9723 62.4665 97.4387 61.9991 97.4387 61.3449C97.3454 60.6906 96.9723 60.2233 96.506 60.2233Z" fill="#D6DCE8"/>
<path d="M96.7858 51.9982H93.4281H90.0704H46.5137C46.0473 51.9982 45.581 52.4655 45.581 53.1198C45.581 53.6806 45.9541 54.2414 46.5137 54.2414H90.0704H93.8012H96.6925C97.1589 54.2414 97.6252 53.774 97.6252 53.1198C97.7185 52.559 97.2522 51.9982 96.7858 51.9982Z" fill="#D6DCE8"/>
<path d="M60.2243 86.4876H46.5137C46.0473 86.4876 45.581 86.0203 45.581 85.366C45.581 84.8052 45.9541 84.2444 46.5137 84.2444H60.2243C60.6906 84.2444 61.157 84.7117 61.157 85.366C61.157 86.1137 60.6906 86.4876 60.2243 86.4876Z" fill="#E3EAF2"/>
<path d="M97.1589 43.8667H86.2464H83.5416H46.5137C46.0473 43.8667 45.581 44.334 45.581 44.9883C45.581 45.5491 45.9541 46.1099 46.5137 46.1099H83.5416H86.2464H97.0656C97.7185 46.1099 98.0916 45.6426 98.0916 44.9883C98.0916 44.4275 97.7185 43.8667 97.1589 43.8667Z" fill="#D6DCE8"/>
<path d="M47.2598 91.4414H25.2483C22.8233 91.4414 20.8647 89.4786 20.8647 87.0485V56.4847C20.8647 47.9791 27.7666 41.156 36.1608 41.156C44.555 41.156 51.457 48.0726 51.457 56.4847V87.1419C51.5502 89.4786 49.5916 91.4414 47.2598 91.4414ZM29.632 82.749H42.8762V56.4847C42.8762 52.8394 39.8916 49.8485 36.2541 49.8485C32.6166 49.8485 29.632 52.8394 29.632 56.4847V82.749V82.749Z" fill="#D6DCE8" stroke="#AAB2C5" stroke-width="2" stroke-miterlimit="10"/>
<path d="M56.3069 99.76H16.481C13.7762 99.76 11.5377 97.5168 11.5377 94.8063V68.355C11.5377 65.6445 13.7762 63.4012 16.481 63.4012H56.3069C59.0118 63.4012 61.2502 65.6445 61.2502 68.355V94.8063C61.2502 97.5168 59.0118 99.76 56.3069 99.76Z" fill="#D6DCE8" stroke="#AAB2C5" stroke-width="2" stroke-miterlimit="10"/>
<path d="M39.2933 82.4136C40.6391 81.4786 41.5507 79.9108 41.5507 78.1101C41.5507 75.2196 39.2368 72.8978 36.3473 72.8978C33.4579 72.8978 31.144 75.2196 31.144 78.1101C31.144 79.9108 32.0556 81.4786 33.4014 82.4136V86.3786C33.4014 88.0209 34.7033 89.3287 36.3473 89.3287C37.9914 89.3287 39.2933 88.0209 39.2933 86.3786V82.4136Z" fill="white" stroke="#AAB2C5" stroke-width="2"/>
</svg>
