<svg width="122" height="116" viewBox="0 0 122 116" fill="none" xmlns="http://www.w3.org/2000/svg">
<path d="M114.776 53.1372C114.776 64.4323 111.008 74.9059 104.693 83.3259C101.23 87.8439 97.0538 91.8485 92.2666 94.929C84.5257 100.063 75.2569 103.041 65.2752 103.041C37.8764 103.041 15.6722 80.6561 15.6722 53.1372C15.6722 25.5156 37.8764 3.23352 65.1734 3.23352C75.1551 3.23352 84.4238 6.21131 92.1648 11.2428C96.9519 14.3232 101.128 18.3279 104.591 22.8459C111.008 31.3685 114.776 41.8421 114.776 53.1372Z" fill="#F1F3F9" stroke="#D6DCE8" stroke-width="2" stroke-miterlimit="10"/>
<path d="M120.582 37.9403C122.11 36.5027 122.212 34.141 120.786 32.6008C119.36 31.0605 117.017 30.9578 115.388 32.3954C113.86 33.8329 113.758 36.1946 115.184 37.7349C116.61 39.1724 119.054 39.2751 120.582 37.9403Z" fill="#EFF1F7"/>
<path d="M54.8295 38.6707L26.3712 58.4474C24.725 59.5804 22.4821 59.189 21.3298 57.5409L2.43988 30.2863C1.30813 28.6382 1.6991 26.3927 3.34528 25.2391L31.8036 5.46246C33.4498 4.32943 35.6927 4.72084 36.845 6.36889L55.7555 33.6236C56.8873 35.2716 56.4757 37.5377 54.8295 38.6707Z" fill="white" stroke="#D6DCE8" stroke-width="2" stroke-miterlimit="10"/>
<path d="M50.4261 35.6836L25.4041 53.0706C24.7045 53.565 23.7374 53.3796 23.2435 52.6792L7.6254 30.1421C7.13155 29.4416 7.31674 28.4734 8.01637 27.979L33.0383 10.592C33.7379 10.0976 34.7051 10.283 35.1989 10.9834L50.817 33.5206C51.3109 34.221 51.1257 35.1892 50.4261 35.6836Z" fill="#F1F3F9"/>
<path d="M32.5033 35.4983L23.367 41.8433L24.3341 33.5L32.5033 35.4983Z" fill="#B0B7C4"/>
<path d="M40.0551 30.2451L26.9062 39.3918L28.3055 27.3816L40.0551 30.2451Z" fill="#CED6E2"/>
<path d="M20.7125 32.7583C21.8717 32.7583 22.8114 31.8176 22.8114 30.6571C22.8114 29.4966 21.8717 28.5558 20.7125 28.5558C19.5533 28.5558 18.6136 29.4966 18.6136 30.6571C18.6136 31.8176 19.5533 32.7583 20.7125 32.7583Z" fill="#B0B7C4"/>
<path d="M89.2964 55.5015L62.8547 33.088C61.3319 31.7901 61.1468 29.5035 62.4225 27.979L83.8434 2.6608C85.1398 1.13636 87.4239 0.950949 88.9466 2.22819L115.388 24.6417C116.911 25.9396 117.096 28.2262 115.82 29.7507L94.3996 55.0689C93.1032 56.5933 90.8191 56.7788 89.2964 55.5015Z" fill="white" stroke="#D6DCE8" stroke-width="2" stroke-miterlimit="10"/>
<path d="M91.0455 50.475L67.7933 30.7808C67.1348 30.2245 67.0525 29.2563 67.6081 28.5971L85.3045 7.66681C85.8601 7.00759 86.8272 6.92518 87.4857 7.4814L110.738 27.1756C111.396 27.7319 111.479 28.7001 110.923 29.3593L93.2267 50.2896C92.6711 50.9488 91.704 51.0312 91.0455 50.475Z" fill="#F1F3F9"/>
<path d="M86.5802 33.0674L78.1024 25.8778L86.4156 24.6624L86.5802 33.0674Z" fill="#B0B7C4"/>
<path d="M93.6178 39.0211L81.3949 28.6589L93.3503 26.9285L93.6178 39.0211Z" fill="#CED6E2"/>
<path d="M88.2266 22.5405C89.3857 22.5405 90.3254 21.5998 90.3254 20.4393C90.3254 19.2788 89.3857 18.338 88.2266 18.338C87.0674 18.338 86.1277 19.2788 86.1277 20.4393C86.1277 21.5998 87.0674 22.5405 88.2266 22.5405Z" fill="#B0B7C4"/>
<path d="M92.2801 98.7629L61.1673 114.007C59.3771 114.893 57.2165 114.152 56.3317 112.339L41.763 82.5502C40.8782 80.7579 41.6189 78.5948 43.4297 77.709L74.5425 62.4645C76.3327 61.5787 78.4934 62.3203 79.3782 64.1332L93.9469 93.9423C94.8111 95.714 94.0703 97.8771 92.2801 98.7629Z" fill="white" stroke="#D6DCE8" stroke-width="2" stroke-miterlimit="10"/>
<path d="M88.3704 95.1578L61.0026 108.569C60.2413 108.94 59.2947 108.631 58.9243 107.848L46.8661 83.2094C46.4957 82.4472 46.8043 81.4995 47.5863 81.1287L74.954 67.7177C75.7154 67.3469 76.6619 67.6559 77.0323 68.4387L89.0906 93.0771C89.461 93.8393 89.1523 94.7664 88.3704 95.1578Z" fill="#F1F3F9"/>
<path d="M70.6742 92.2531L60.6942 97.1561L62.9166 89.0394L70.6742 92.2531Z" fill="#B0B7C4"/>
<path d="M78.9461 88.1947L64.5626 95.2608L67.7726 83.5802L78.9461 88.1947Z" fill="#CED6E2"/>
<path d="M59.7679 87.7827C60.9271 87.7827 61.8668 86.842 61.8668 85.6815C61.8668 84.521 60.9271 83.5802 59.7679 83.5802C58.6088 83.5802 57.6691 84.521 57.6691 85.6815C57.6691 86.842 58.6088 87.7827 59.7679 87.7827Z" fill="#B0B7C4"/>
<path d="M65.9207 42.0699C68.8186 42.0699 71.1679 39.718 71.1679 36.8168C71.1679 33.9155 68.8186 31.5636 65.9207 31.5636C63.0227 31.5636 60.6735 33.9155 60.6735 36.8168C60.6735 39.718 63.0227 42.0699 65.9207 42.0699Z" fill="#D6DCE8" stroke="#AAB2C5" stroke-width="2" stroke-miterlimit="10"/>
<path d="M52.4015 37.2287L51.2286 34.7361C51.1257 34.4888 51.0228 34.2416 50.8993 34.015C49.5618 31.5224 46.9279 29.8125 43.9031 29.8125C41.1046 29.8125 38.6559 31.2545 37.236 33.4588L34.9314 36.5489L36.022 36.8373C35.9808 37.1463 35.9603 37.4759 35.9603 37.785C35.9603 42.1729 39.5201 45.7368 43.9031 45.7368C48.286 45.7368 51.8459 42.1729 51.8459 37.785C51.8459 37.6408 51.8459 37.4965 51.8253 37.3523L52.4015 37.2287Z" fill="#D6DCE8" stroke="#AAB2C5" stroke-width="2" stroke-miterlimit="10"/>
<path d="M79.4398 37.2288L80.6127 34.7567C80.7156 34.5095 80.8185 34.2623 80.942 34.0357C82.2795 31.543 84.9134 29.8331 87.9382 29.8331C90.7367 29.8331 93.1854 31.2752 94.6052 33.4794L96.9099 36.5489L95.8193 36.8374C95.8605 37.1464 95.881 37.476 95.881 37.785C95.881 42.1729 92.3212 45.7368 87.9382 45.7368C83.5553 45.7368 79.9954 42.1729 79.9954 37.785C79.9954 37.6408 79.9954 37.4966 80.016 37.3524L79.4398 37.2288Z" fill="#D6DCE8" stroke="#AAB2C5" stroke-width="2" stroke-miterlimit="10"/>
<path d="M109.133 63.3503C109.133 66.3786 108.186 64.0302 108.186 64.0302L101.067 53.1942L79.9338 59.4156L75.6331 60.6723L65.9413 51.0311L56.2494 60.6723L30.8159 53.1942L23.6962 64.0302C23.6962 64.0302 22.7496 66.358 22.7496 63.3503C22.7496 56.3873 27.7499 46.4166 32.2152 38.9798C34.2112 35.6425 37.9562 33.8502 41.7424 33.5618C44.4586 33.3558 47.5452 33.7884 49.8704 35.2716C50.3643 35.5806 51.3108 36.5283 51.9487 36.4253C55.4263 35.8897 59.089 35.1068 61.8052 34.4888C64.5832 33.8502 67.464 33.8502 70.2213 34.5094C72.8964 35.1274 76.4768 35.9103 79.9338 36.4459C80.5717 36.5489 81.5182 35.6219 82.0121 35.2922C84.3373 33.7884 87.4239 33.3558 90.1401 33.5824C93.9263 33.8708 97.6714 35.6425 99.6674 39.0004C104.133 46.4372 109.133 56.3873 109.133 63.3503Z" fill="#D6DCE8" stroke="#AAB2C5" stroke-width="2" stroke-miterlimit="10"/>
<path d="M60.6735 34.6583V46.5754L66.0448 47.2613L71.1583 46.5754L70.7716 34.9155" stroke="#AAB2C5" stroke-width="2" stroke-miterlimit="10"/>
<path d="M65.9207 53.5238C68.8186 53.5238 71.1679 51.1719 71.1679 48.2706C71.1679 45.3694 68.8186 43.0175 65.9207 43.0175C63.0227 43.0175 60.6735 45.3694 60.6735 48.2706C60.6735 51.1719 63.0227 53.5238 65.9207 53.5238Z" fill="#D6DCE8" stroke="#AAB2C5" stroke-width="2" stroke-miterlimit="10"/>
<path d="M40.2815 82.4472C49.9867 82.4472 57.8544 74.5705 57.8544 64.8542C57.8544 55.1379 49.9867 47.2612 40.2815 47.2612C30.5762 47.2612 22.7085 55.1379 22.7085 64.8542C22.7085 74.5705 30.5762 82.4472 40.2815 82.4472Z" fill="#D6DCE8" stroke="#AAB2C5" stroke-width="2" stroke-miterlimit="10"/>
<path d="M40.2815 77.9768C47.5207 77.9768 53.3892 72.1016 53.3892 64.8542C53.3892 57.6068 47.5207 51.7316 40.2815 51.7316C33.0423 51.7316 27.1738 57.6068 27.1738 64.8542C27.1738 72.1016 33.0423 77.9768 40.2815 77.9768Z" fill="#D6DCE8" stroke="#AAB2C5" stroke-width="2" stroke-miterlimit="10"/>
<path d="M40.2814 72.9915C46.1455 72.9915 50.8993 68.2323 50.8993 62.3615C50.8993 56.4908 46.1455 51.7316 40.2814 51.7316C34.4174 51.7316 29.6636 56.4908 29.6636 62.3615C29.6636 68.2323 34.4174 72.9915 40.2814 72.9915Z" fill="#D6DCE8" stroke="#AAB2C5" stroke-width="2" stroke-miterlimit="10"/>
<path d="M33.2852 63.1856C32.8325 63.1856 32.4622 62.8148 32.4622 62.3616C32.4622 58.0354 35.9809 54.5333 40.2815 54.5333C40.7342 54.5333 41.1046 54.9041 41.1046 55.3574C41.1046 55.8106 40.7342 56.1814 40.2815 56.1814C36.8657 56.1814 34.1083 58.9625 34.1083 62.3616C34.1083 62.8148 33.7379 63.1856 33.2852 63.1856Z" fill="white"/>
<path d="M91.5599 82.4472C101.265 82.4472 109.133 74.5705 109.133 64.8542C109.133 55.1379 101.265 47.2612 91.5599 47.2612C81.8546 47.2612 73.9869 55.1379 73.9869 64.8542C73.9869 74.5705 81.8546 82.4472 91.5599 82.4472Z" fill="#D6DCE8" stroke="#AAB2C5" stroke-width="2" stroke-miterlimit="10"/>
<path d="M91.5599 77.9768C98.799 77.9768 104.668 72.1016 104.668 64.8542C104.668 57.6068 98.799 51.7316 91.5599 51.7316C84.3207 51.7316 78.4521 57.6068 78.4521 64.8542C78.4521 72.1016 84.3207 77.9768 91.5599 77.9768Z" fill="#D6DCE8" stroke="#AAB2C5" stroke-width="2" stroke-miterlimit="10"/>
<path d="M91.5599 72.9915C97.424 72.9915 102.178 68.2323 102.178 62.3615C102.178 56.4908 97.424 51.7316 91.5599 51.7316C85.6958 51.7316 80.942 56.4908 80.942 62.3615C80.942 68.2323 85.6958 72.9915 91.5599 72.9915Z" fill="#D6DCE8" stroke="#AAB2C5" stroke-width="2" stroke-miterlimit="10"/>
<path d="M92.0126 55.3574C92.0126 54.9041 91.6422 54.5333 91.1895 54.5333C86.8682 54.5333 83.3701 58.056 83.3701 62.3616C83.3701 62.8148 83.7405 63.1856 84.1932 63.1856C84.6459 63.1856 85.0163 62.8148 85.0163 62.3616C85.0163 58.9419 87.7942 56.1814 91.1895 56.1814C91.6422 56.1814 92.0126 55.8106 92.0126 55.3574Z" fill="white"/>
</svg>
