<svg width="127" height="107" viewBox="0 0 127 107" fill="none" xmlns="http://www.w3.org/2000/svg">
<path d="M122.323 54.9311C122.323 69.1311 116.523 81.9311 107.223 91.1311C98.123 100.231 85.523 105.731 71.623 105.731C57.823 105.731 45.223 100.131 36.023 91.1311C26.723 81.9311 20.923 69.1311 20.923 54.9311C20.923 26.8311 43.623 4.1311 71.623 4.1311C99.623 4.1311 122.323 26.9311 122.323 54.9311Z" fill="#F1F3F9" stroke="#D6DCE8" stroke-width="2" stroke-miterlimit="10"/>
<path d="M117.923 21.6312C120.187 21.6312 122.023 19.7955 122.023 17.5312C122.023 15.2668 120.187 13.4312 117.923 13.4312C115.659 13.4312 113.823 15.2668 113.823 17.5312C113.823 19.7955 115.659 21.6312 117.923 21.6312Z" fill="#F1F3F9"/>
<path d="M123.923 5.63113C125.469 5.63113 126.723 4.37753 126.723 2.83113C126.723 1.28473 125.469 0.0311279 123.923 0.0311279C122.377 0.0311279 121.123 1.28473 121.123 2.83113C121.123 4.37753 122.377 5.63113 123.923 5.63113Z" fill="#F1F3F9"/>
<path d="M22.523 21.5312C24.0694 21.5312 25.323 20.2776 25.323 18.7312C25.323 17.1848 24.0694 15.9312 22.523 15.9312C20.9766 15.9312 19.723 17.1848 19.723 18.7312C19.723 20.2776 20.9766 21.5312 22.523 21.5312Z" fill="#F1F3F9"/>
<path d="M5.42302 75.5311C8.2949 75.5311 10.623 73.203 10.623 70.3311C10.623 67.4592 8.2949 65.1311 5.42302 65.1311C2.55114 65.1311 0.223022 67.4592 0.223022 70.3311C0.223022 73.203 2.55114 75.5311 5.42302 75.5311Z" fill="#F1F3F9"/>
<path d="M107.223 28.3311V91.1311C98.123 100.231 85.523 105.731 71.623 105.731C57.823 105.731 45.223 100.131 36.023 91.1311V28.3311H107.223Z" fill="white" stroke="#D6DCE8" stroke-width="2" stroke-miterlimit="10"/>
<path d="M68.1662 55.6702L84.3064 39.53L89.0439 44.2676L68.2552 65.0564L68.2322 65.0334L68.1432 65.1224L54.2134 51.1925L58.9509 46.4549L68.1662 55.6702Z" fill="#D6DCE8" stroke="#AAB2C5" stroke-width="2" stroke-miterlimit="10"/>
<path d="M89.823 73.6311H53.423V78.2311H89.823V73.6311Z" fill="#D6DCE8"/>
<path d="M89.823 83.7312H53.423V88.3312H89.823V83.7312Z" fill="#D6DCE8"/>
<path d="M80.923 93.9312H62.323V98.5312H80.923V93.9312Z" fill="#D6DCE8"/>
</svg>
