<svg width="110" height="99" viewBox="0 0 110 99" fill="none" xmlns="http://www.w3.org/2000/svg">
<path d="M100.505 28.6312C102.77 28.6312 104.605 26.7955 104.605 24.5312C104.605 22.2668 102.77 20.4312 100.505 20.4312C98.241 20.4312 96.4053 22.2668 96.4053 24.5312C96.4053 26.7955 98.241 28.6312 100.505 28.6312Z" fill="#EAEEF9"/>
<path d="M106.505 12.6312C108.052 12.6312 109.305 11.3776 109.305 9.83125C109.305 8.28485 108.052 7.03125 106.505 7.03125C104.959 7.03125 103.705 8.28485 103.705 9.83125C103.705 11.3776 104.959 12.6312 106.505 12.6312Z" fill="#EAEEF9"/>
<path d="M49.4054 97.0312C75.418 97.0312 96.5054 75.9438 96.5054 49.9312C96.5054 23.9186 75.418 2.83118 49.4054 2.83118C23.3927 2.83118 2.30536 23.9186 2.30536 49.9312C2.30536 75.9438 23.3927 97.0312 49.4054 97.0312Z" fill="#F1F3F9" stroke="#D6DCE8" stroke-width="2" stroke-miterlimit="10"/>
<path d="M96.4053 49.7312C96.4053 63.7312 90.9053 76.2312 81.2053 84.8312H2.90535C1.90535 84.8312 1.10535 84.0312 1.10535 83.0312V18.0312C1.10535 17.0312 1.90535 16.2312 2.90535 16.2312H82.1053C90.9053 24.5312 96.4053 36.5312 96.4053 49.7312Z" fill="#F1F3F9" stroke="#D6DCE8" stroke-width="2" stroke-miterlimit="10"/>
<path d="M81.1053 84.7313H80.9053C82.2053 83.5313 83.2053 82.3312 84.3053 81.0312C83.2053 82.4312 82.4053 83.6313 81.1053 84.7313Z" fill="#F1F3F9"/>
<path d="M35.2053 56.5312H4.00535C3.50535 56.5312 3.10535 56.1312 3.10535 55.6312V33.1312C3.10535 32.6312 3.50535 32.2312 4.00535 32.2312H35.2053C35.7053 32.2312 36.1053 32.6312 36.1053 33.1312V55.5312C36.1053 56.0312 35.7053 56.5312 35.2053 56.5312Z" fill="white"/>
<path d="M92.2053 30.4312H4.00535C3.50535 30.4312 3.10535 30.0312 3.10535 29.5312V18.9312C3.10535 18.4312 3.50535 18.0312 4.00535 18.0312H84.0053C85.2053 19.3312 86.3053 20.7312 87.4053 22.1312C88.5053 23.6312 89.6053 25.3312 90.5053 26.9312C91.1053 28.1312 91.7053 29.2312 92.2053 30.4312Z" fill="white"/>
<path d="M90.5054 27.0312H76.7054C76.4054 27.0312 76.2054 26.8312 76.2054 26.5312V22.7312C76.2054 22.4312 76.4054 22.2312 76.7054 22.2312H87.3054C88.5054 23.7312 89.5054 25.3312 90.5054 27.0312Z" fill="#AAB2C5"/>
<path d="M88.1054 25.0312H79.7054C79.4054 25.0312 79.2054 24.8313 79.2054 24.5312C79.2054 24.2312 79.4054 24.0312 79.7054 24.0312H88.1054C88.4054 24.0312 88.6054 24.2312 88.6054 24.5312C88.6054 24.8313 88.4054 25.0312 88.1054 25.0312Z" fill="white"/>
<path d="M69.8054 56.5312H38.6054C38.1054 56.5312 37.7054 56.1312 37.7054 55.6312V33.1312C37.7054 32.6312 38.1054 32.2312 38.6054 32.2312H69.8054C70.3054 32.2312 70.7054 32.6312 70.7054 33.1312V55.5312C70.8054 56.0312 70.4054 56.5312 69.8054 56.5312Z" fill="white"/>
<path d="M95.8053 42.4312C95.2053 38.8312 94.3053 35.4312 93.0053 32.2312H73.3053C72.8053 32.2312 72.4053 32.6312 72.4053 33.2312V55.6312C72.4053 56.1312 72.8053 56.5312 73.3053 56.5312H95.9053C96.2053 54.3312 96.4053 52.0312 96.4053 49.8312C96.4053 47.8312 96.3053 45.8312 96.0053 43.8312L95.8053 42.4312Z" fill="white"/>
<path d="M35.2053 82.5312H4.00535C3.50535 82.5312 3.10535 82.1312 3.10535 81.6312V59.2312C3.10535 58.7312 3.50535 58.3312 4.00535 58.3312H35.2053C35.7053 58.3312 36.1053 58.7312 36.1053 59.2312V81.6312C36.1053 82.1312 35.7053 82.5312 35.2053 82.5312Z" fill="white"/>
<path d="M69.8054 82.5312H38.6054C38.1054 82.5312 37.7054 82.1312 37.7054 81.6312V59.2312C37.7054 58.7312 38.1054 58.3312 38.6054 58.3312H69.8054C70.3054 58.3312 70.7054 58.7312 70.7054 59.2312V81.6312C70.8054 82.1312 70.4054 82.5312 69.8054 82.5312Z" fill="white"/>
<path d="M95.6054 58.3312C95.4054 59.5312 95.1054 60.6312 94.8054 61.7312C94.7054 62.1312 94.6054 62.4312 94.5054 62.8312C94.2054 63.9312 93.8054 65.0312 93.4054 66.1312C93.1054 66.9312 92.7054 67.8312 92.4054 68.6312C92.1054 69.2312 91.8054 69.8312 91.5054 70.4312C91.4054 70.7312 91.2054 71.0312 91.0054 71.3312C90.4054 72.4312 89.8054 73.5312 89.1054 74.6312C88.9054 74.9312 88.7054 75.3312 88.4054 75.6312C87.7054 76.6312 87.0054 77.6312 86.3054 78.6312C86.0054 79.0312 85.7054 79.3312 85.4054 79.7312C84.6054 80.7312 83.7054 81.7312 82.8054 82.6312H73.1054C72.6054 82.6312 72.2054 82.2312 72.2054 81.7312V59.2312C72.2054 58.7312 72.6054 58.3312 73.1054 58.3312H95.6054Z" fill="white"/>
<path d="M23.6053 71.6312C23.6053 71.7312 23.6053 71.8312 23.5053 71.9312C23.4053 72.1312 23.4053 72.3312 23.4053 72.5312C23.3053 72.6312 23.3053 72.7312 23.3053 72.8312C23.2053 73.0312 23.2053 73.2312 23.1053 73.3312V73.4312C23.0053 73.5312 23.0053 73.6312 23.0053 73.6312C22.9053 73.7312 22.9053 73.8312 22.8053 73.8312L24.6053 75.4312C24.7053 75.3312 24.7053 75.2312 24.8053 75.1312C25.0053 74.8312 25.2053 74.5312 25.3053 74.2312C25.4053 74.1312 25.4053 74.0312 25.4053 73.9312C25.5053 73.6312 25.6053 73.3312 25.8053 73.0312C25.8053 72.9312 25.9053 72.8312 25.9053 72.8312C26.0053 72.6312 26.0053 72.4312 26.0053 72.3312C26.0053 72.2312 26.1053 72.1312 26.1053 72.1312C26.1053 72.0312 26.1053 71.9312 26.2053 71.9312V71.8312C26.2053 71.7312 26.2053 71.6312 26.2053 71.6312H23.6053ZM18.5053 76.1312C15.7053 76.1312 13.3053 73.8312 13.3053 71.0312C13.3053 68.3312 15.3053 66.2312 17.8053 65.9312V63.5312C14.0053 63.8312 10.9053 67.1312 10.9053 71.1312C10.9053 75.3312 14.3053 78.7312 18.5053 78.7312C20.6053 78.7312 22.5053 77.9312 23.8053 76.5312L22.0053 74.8312C21.1053 75.7312 19.8053 76.1312 18.5053 76.1312ZM19.1053 63.4312V65.8312C21.5053 66.1312 23.3053 67.9312 23.6053 70.2312H26.1053C25.8053 66.6312 22.8053 63.7312 19.1053 63.4312Z" fill="#F1F3F9"/>
<path d="M26.1053 70.3311H23.7053C23.4053 67.9311 21.5053 66.1311 19.2053 65.9311V63.5311C22.8053 63.7311 25.8053 66.6311 26.1053 70.3311Z" fill="#AAB2C5"/>
<path d="M26.1053 71.6311C26.1053 71.7311 26.1053 71.8311 26.1053 71.8311V71.9311C26.1053 72.0311 26.1053 72.1311 26.0053 72.1311C26.0053 72.2311 26.0053 72.3311 25.9053 72.3311C25.8053 72.5311 25.8053 72.7311 25.8053 72.8311C25.8053 72.9311 25.7053 73.0311 25.7053 73.0311C25.6053 73.3311 25.5053 73.6311 25.3053 73.9311C25.2053 74.0311 25.2053 74.1311 25.2053 74.2311C25.1053 74.5311 24.9053 74.8311 24.7053 75.1311C24.6053 75.2311 24.6053 75.3311 24.5053 75.4311L22.8053 73.8311C22.9053 73.7311 22.9053 73.6311 23.0053 73.6311C23.1053 73.5311 23.1053 73.4311 23.1053 73.4311V73.3311C23.2053 73.1311 23.3053 72.9311 23.3053 72.8311C23.4053 72.7311 23.4053 72.6311 23.4053 72.5311C23.5053 72.3311 23.5053 72.1311 23.5053 71.9311C23.5053 71.8311 23.6053 71.7311 23.6053 71.6311H26.1053V71.6311Z" fill="#D6DCE8"/>
<path d="M96.0054 43.7312C96.0054 43.3312 95.9054 42.9312 95.8054 42.4312L90.5054 47.7312C90.3054 47.6312 90.0054 47.5312 89.8054 47.5312C89.6054 47.5312 89.3054 47.6312 89.1054 47.7312L84.3054 42.9312C84.4054 42.7312 84.4054 42.6312 84.4054 42.3312C84.4054 41.4312 83.7054 40.8312 82.9054 40.8312C82.1054 40.8312 81.4054 41.5312 81.4054 42.3312C81.4054 42.5312 81.4054 42.7312 81.5054 42.9312L77.4054 46.8312C77.2054 46.7312 77.0054 46.7312 76.8054 46.7312C75.9054 46.7312 75.3054 47.4312 75.3054 48.2312C75.3054 49.0312 76.0054 49.7312 76.8054 49.7312C77.6054 49.7312 78.3054 49.0312 78.3054 48.2312C78.3054 48.0312 78.2054 47.8312 78.1054 47.6312L82.0054 43.6312C82.3054 43.7312 82.4054 43.8312 82.6054 43.8312C82.8054 43.8312 83.1054 43.7312 83.2054 43.6312L88.0054 48.4312C87.9054 48.6312 87.9054 48.7312 87.9054 48.9312C87.9054 49.8312 88.6054 50.4312 89.4054 50.4312C90.3054 50.4312 90.9054 49.7312 90.9054 48.9312C90.9054 48.7312 90.9054 48.6312 90.8054 48.4312L96.0054 43.7312ZM76.9054 49.1312C76.5054 49.1312 76.2054 48.8312 76.2054 48.4312C76.2054 48.0312 76.5054 47.7312 76.9054 47.7312C77.3054 47.7312 77.6054 48.0312 77.6054 48.4312C77.6054 48.7312 77.3054 49.1312 76.9054 49.1312ZM82.9054 43.0312C82.5054 43.0312 82.2054 42.7312 82.2054 42.3312C82.2054 41.9312 82.5054 41.6312 82.9054 41.6312C83.3054 41.6312 83.6054 41.9312 83.6054 42.3312C83.6054 42.7312 83.4054 43.0312 82.9054 43.0312ZM89.9054 49.8312C89.5054 49.8312 89.2054 49.5312 89.2054 49.1312C89.2054 48.7312 89.5054 48.4312 89.9054 48.4312C90.3054 48.4312 90.6054 48.7312 90.6054 49.1312C90.7054 49.5312 90.4054 49.8312 89.9054 49.8312Z" fill="#D6DCE8"/>
<path d="M43.7053 48.5312H42.3053C42.2053 48.5312 42.0053 48.3312 42.0053 48.2312V40.6312C42.0053 40.4312 42.1053 40.3312 42.3053 40.3312H43.7053C43.8053 40.3312 44.0053 40.5312 44.0053 40.6312V48.2312C43.9053 48.3312 43.8053 48.5312 43.7053 48.5312Z" fill="#AAB2C5"/>
<path d="M44.5053 48.5311H42.9053C42.8053 48.5311 42.7053 48.4311 42.7053 48.3311V44.8311C42.7053 44.6311 42.8053 44.6311 42.9053 44.6311H44.5053C44.6053 44.6311 44.7053 44.7311 44.7053 44.8311V48.3311C44.7053 48.4311 44.6053 48.5311 44.5053 48.5311Z" fill="#D6DCE8"/>
<path d="M47.3053 48.5311H45.9053C45.8053 48.5311 45.6053 48.3311 45.6053 48.2311V42.9311C45.6053 42.7311 45.7053 42.6311 45.9053 42.6311H47.3053C47.4053 42.6311 47.6053 42.8311 47.6053 42.9311V48.2311C47.6053 48.3311 47.4053 48.5311 47.3053 48.5311Z" fill="#AAB2C5"/>
<path d="M50.9053 48.5312H49.5053C49.4053 48.5312 49.2053 48.3313 49.2053 48.2313V44.8312C49.2053 44.6312 49.3053 44.5312 49.5053 44.5312H50.9053C51.0053 44.5312 51.2053 44.7312 51.2053 44.8312V48.1312C51.2053 48.3312 51.0053 48.5312 50.9053 48.5312Z" fill="#AAB2C5"/>
<path d="M54.5053 48.5311H53.1053C53.0053 48.5311 52.8053 48.3311 52.8053 48.2311V41.9311C52.8053 41.7311 52.9053 41.6311 53.1053 41.6311H54.5053C54.6053 41.6311 54.8053 41.8311 54.8053 41.9311V48.2311C54.8053 48.3311 54.7053 48.5311 54.5053 48.5311Z" fill="#AAB2C5"/>
<path d="M58.2053 48.5311H56.8053C56.7053 48.5311 56.5053 48.3311 56.5053 48.2311V44.4311C56.5053 44.2311 56.6053 44.1311 56.8053 44.1311H58.2053C58.3053 44.1311 58.5053 44.3311 58.5053 44.4311V48.2311C58.5053 48.3311 58.4053 48.5311 58.2053 48.5311Z" fill="#AAB2C5"/>
<path d="M61.8053 48.5311H60.4053C60.3053 48.5311 60.1053 48.3311 60.1053 48.2311V42.9311C60.1053 42.7311 60.2053 42.6311 60.4053 42.6311H61.8053C61.9053 42.6311 62.1053 42.8311 62.1053 42.9311V48.2311C62.1053 48.3311 62.0053 48.5311 61.8053 48.5311Z" fill="#AAB2C5"/>
<path d="M65.5053 48.5312H64.1053C64.0053 48.5312 63.8053 48.3313 63.8053 48.2313V44.8312C63.8053 44.6312 63.9053 44.5312 64.1053 44.5312H65.5053C65.6053 44.5312 65.8053 44.7312 65.8053 44.8312V48.1312C65.7053 48.3312 65.6053 48.5312 65.5053 48.5312Z" fill="#AAB2C5"/>
<path d="M48.1053 48.5312H46.4053C46.3053 48.5312 46.3053 48.4312 46.3053 48.3312V46.2313C46.3053 46.1313 46.4053 46.0312 46.4053 46.0312H48.1053C48.2053 46.0312 48.2053 46.1313 48.2053 46.2313V48.3312C48.3053 48.4312 48.2053 48.5312 48.1053 48.5312Z" fill="#D6DCE8"/>
<path d="M51.8053 48.5311H50.1053C50.0053 48.5311 50.0053 48.4311 50.0053 48.3311V47.3311C50.0053 47.2311 50.1053 47.1311 50.1053 47.1311H51.8053C51.9053 47.1311 51.9053 47.2311 51.9053 47.3311V48.3311C51.9053 48.4311 51.9053 48.5311 51.8053 48.5311Z" fill="#D6DCE8"/>
<path d="M55.4053 48.5311H53.7053C53.6053 48.5311 53.6053 48.4311 53.6053 48.3311V46.8311C53.6053 46.7311 53.7053 46.6311 53.7053 46.6311H55.4053C55.5053 46.6311 55.5053 46.7311 55.5053 46.8311V48.3311C55.6053 48.4311 55.6053 48.5311 55.4053 48.5311Z" fill="#D6DCE8"/>
<path d="M59.1053 48.5312H57.5053C57.4053 48.5312 57.4053 48.4312 57.4053 48.3312V45.6312C57.4053 45.5312 57.5053 45.4312 57.5053 45.4312H59.1053C59.2053 45.4312 59.2053 45.5312 59.2053 45.6312V48.3312C59.3053 48.4312 59.2053 48.5312 59.1053 48.5312Z" fill="#D6DCE8"/>
<path d="M62.9053 48.5312H61.1053C61.0053 48.5312 61.0053 48.5312 61.0053 48.4312V47.9312C61.0053 47.8312 61.0053 47.8312 61.1053 47.8312H62.9053C63.0053 47.8312 63.0053 47.8312 63.0053 47.9312V48.3312C63.0053 48.4312 63.0053 48.5312 62.9053 48.5312Z" fill="#D6DCE8"/>
<path d="M66.5053 48.5311H64.7053C64.7053 48.5311 64.6053 48.5311 64.6053 48.4311V48.2311C64.6053 48.2311 64.6053 48.1311 64.7053 48.1311H66.5053C66.5053 48.1311 66.6053 48.1311 66.6053 48.2311L66.5053 48.5311C66.5053 48.5311 66.6053 48.4311 66.5053 48.5311Z" fill="#D6DCE8"/>
<path d="M68.1053 61.5312H40.4053V65.2313H68.1053V61.5312Z" fill="#F1F3F9"/>
<path d="M56.5053 62.7312H48.9053V63.8312H56.5053V62.7312Z" fill="#D6DCE8"/>
<path d="M66.1053 62.7312H63.4053V63.8312H66.1053V62.7312Z" fill="#D6DCE8"/>
<path d="M68.1053 68.5312H40.4053V72.2313H68.1053V68.5312Z" fill="#F1F3F9"/>
<path d="M54.2053 69.8312H48.9053V70.9312H54.2053V69.8312Z" fill="#D6DCE8"/>
<path d="M66.1053 69.8312H61.4053V70.9312H66.1053V69.8312Z" fill="#D6DCE8"/>
<path d="M68.1053 75.6311H40.4053V79.3311H68.1053V75.6311Z" fill="#F1F3F9"/>
<path d="M57.7053 76.9312H48.9053V78.0312H57.7053V76.9312V76.9312Z" fill="#D6DCE8"/>
<path d="M66.1053 76.9312H64.6053V78.0312H66.1053V76.9312Z" fill="#D6DCE8"/>
<path d="M10.5054 22.9312H6.30536C6.00536 22.9312 5.80536 22.6312 5.80536 22.4312V21.9312C5.80536 21.6312 6.10536 21.4312 6.30536 21.4312H10.5054C10.8054 21.4312 11.0054 21.7312 11.0054 21.9312V22.4312C11.0054 22.6312 10.8054 22.9312 10.5054 22.9312Z" fill="#D6DCE8"/>
<path d="M39.4053 22.9312H14.6053C14.3053 22.9312 14.1053 22.6312 14.1053 22.4312V21.9312C14.1053 21.6312 14.4053 21.4312 14.6053 21.4312H39.4053C39.7053 21.4312 39.9053 21.7312 39.9053 21.9312V22.4312C39.9053 22.6312 39.7053 22.9312 39.4053 22.9312Z" fill="#F1F3F9"/>
<path d="M10.5054 27.0312H6.30536C6.00536 27.0312 5.80536 26.7313 5.80536 26.5312V26.0312C5.80536 25.7312 6.10536 25.5312 6.30536 25.5312H10.5054C10.8054 25.5312 11.0054 25.8312 11.0054 26.0312V26.5312C11.0054 26.8313 10.8054 27.0312 10.5054 27.0312Z" fill="#D6DCE8"/>
<path d="M27.9053 26.5312C27.9053 26.8313 27.6053 27.0312 27.4053 27.0312H14.6053C14.3053 27.0312 14.1053 26.7313 14.1053 26.5312V26.0312C14.1053 25.7312 14.4053 25.5312 14.6053 25.5312H27.4053C27.7053 25.5312 27.9053 25.8312 27.9053 26.0312V26.5312Z" fill="#F1F3F9"/>
<path d="M32.6054 53.5312H5.80536V36.9312C7.20536 37.0312 8.60536 37.1312 9.90536 37.5312C10.5054 37.7312 10.9054 37.9312 11.3054 38.3312C11.5054 38.5312 11.5054 38.6312 11.5054 38.7312C11.7054 39.2312 12.1054 39.5312 12.8054 39.6312L13.4054 39.7312C14.6054 39.8312 15.5054 40.5312 15.6054 41.3312L15.8054 42.7312C17.1054 43.0312 17.2054 43.0312 18.4054 43.3312C18.6054 43.4312 18.6054 43.3312 18.7054 43.2312C18.8054 43.1312 18.9054 43.1312 19.0054 43.1312C19.2054 43.1312 19.2054 43.1312 19.4054 43.0312C19.6054 42.9312 19.8054 42.9312 19.9054 43.1312C20.4054 43.8312 21.4054 44.2312 22.0054 44.8312C22.7054 45.5312 23.9054 45.4312 24.7054 45.4312C24.9054 45.4312 25.2054 45.5312 25.4054 45.6312C26.4054 46.3312 28.0054 48.6312 29.3054 48.6312C29.8054 48.6312 30.2054 48.8312 30.5054 49.0312C31.6054 50.5312 32.3054 51.9312 32.6054 53.5312Z" fill="#F1F3F9"/>
<path d="M31.9054 53.7312C31.6054 52.2312 30.9054 51.0312 29.8054 49.7312C29.7054 49.6312 29.4054 49.5312 29.1054 49.5312C27.9054 49.5312 26.9054 48.4312 25.9054 47.4312C25.5054 47.0312 25.1054 46.6312 24.8054 46.4312C24.7054 46.3312 24.5054 46.3312 24.5054 46.3312C24.3054 46.3312 24.2054 46.3312 24.0054 46.3312C23.2054 46.3312 22.1054 46.2312 21.3054 45.5312C21.1054 45.2312 20.8054 45.0312 20.4054 44.8312C20.0054 44.5312 19.6054 44.3312 19.3054 43.9312C19.2054 43.9312 19.0054 43.9312 18.9054 43.9312C18.8054 44.0312 18.4054 44.2312 17.9054 44.0312L17.3054 43.8312C16.7054 43.7312 16.4054 43.6312 15.4054 43.4312H15.1054L14.9054 41.5312C14.9054 41.0312 14.2054 40.6312 13.4054 40.5312L12.8054 40.4312C11.9054 40.3312 11.1054 39.8312 10.9054 39.0312V38.9312C10.6054 38.6312 10.3054 38.4312 9.90536 38.3312C8.50536 37.8312 7.10536 37.7312 5.80536 37.7312L5.90536 36.2312C7.30536 36.3312 8.80536 36.4312 10.2054 36.9312C10.9054 37.1312 11.5054 37.5312 11.9054 38.0312C12.0054 38.1312 12.2054 38.4312 12.3054 38.8312C12.4054 39.0312 12.6054 39.1312 12.9054 39.1312L13.5054 39.2312C15.1054 39.3312 16.2054 40.3312 16.4054 41.5312L16.5054 42.3312C17.1054 42.4312 17.4054 42.5312 17.9054 42.6312L18.5054 42.7312C18.7054 42.6312 18.9054 42.5312 19.1054 42.5312C19.2054 42.5312 19.2054 42.5312 19.3054 42.5312C19.8054 42.3312 20.4054 42.5312 20.7054 42.9312C20.9054 43.1312 21.3054 43.4312 21.6054 43.6312C22.0054 43.9312 22.4054 44.1312 22.7054 44.5312C23.0054 44.8312 23.7054 44.8312 24.4054 44.9312C24.6054 44.9312 24.7054 44.9312 24.9054 44.9312C25.3054 44.9312 25.6054 45.1312 25.9054 45.2312L26.0054 45.3312C26.4054 45.6312 26.9054 46.0312 27.3054 46.5312C27.9054 47.2312 28.9054 48.1312 29.4054 48.1312C30.0054 48.1312 30.6054 48.3312 31.1054 48.7312C32.5054 50.2312 33.3054 51.7312 33.6054 53.5312L31.9054 53.7312Z" fill="#D6DCE8"/>
<path d="M31.5054 43.4312H19.7054C19.2054 43.4312 18.8054 43.0312 18.8054 42.5312V38.3312C18.8054 37.8312 19.2054 37.4312 19.7054 37.4312H31.5054C32.0054 37.4312 32.4054 37.8312 32.4054 38.3312V42.5312C32.4054 43.0312 32.0054 43.4312 31.5054 43.4312Z" fill="#AAB2C5"/>
<path d="M30.0053 39.1311H21.3053C21.1053 39.1311 21.0053 39.3311 21.0053 39.4311C21.0053 39.6311 21.2053 39.7311 21.3053 39.7311H30.0053C30.2053 39.7311 30.3053 39.5311 30.3053 39.4311C30.3053 39.3311 30.1053 39.1311 30.0053 39.1311Z" fill="white"/>
<path d="M25.9053 41.1311H21.2053C21.0053 41.1311 20.9053 41.3311 20.9053 41.4311C20.9053 41.5311 21.1053 41.7311 21.2053 41.7311H25.9053C26.1053 41.7311 26.2053 41.5311 26.2053 41.4311C26.2053 41.3311 26.0053 41.1311 25.9053 41.1311Z" fill="white"/>
<path d="M84.0054 70.3312H76.1054V67.0312H84.0054V70.3312ZM76.2054 71.3312H84.1054V74.6312H76.2054V71.3312ZM76.8054 62.8312H84.1054V66.2312H76.2054V63.5312C76.2054 63.0312 76.5054 62.8312 76.8054 62.8312ZM76.2054 77.9312V75.5312H84.1054V78.5312H76.8054C76.5054 78.6312 76.2054 78.3312 76.2054 77.9312ZM94.5054 62.8312C94.6054 62.4312 94.7054 62.1312 94.8054 61.7312H76.8054C75.9054 61.7312 75.3054 62.5312 75.3054 63.4312V77.9312C75.3054 78.8312 76.0054 79.6312 76.8054 79.6312H85.6054C85.9054 79.2312 86.2054 78.9312 86.5054 78.5312H85.1054V75.5312H88.6054C88.8054 75.2312 89.0054 74.8312 89.3054 74.5312H85.1054V71.2312H91.1054C91.3054 70.9312 91.4054 70.6312 91.6054 70.3312H85.1054V67.0312H92.5054V68.4312C92.9054 67.6312 93.2054 66.7312 93.5054 65.9312H93.4054V62.8312H94.5054ZM92.4054 66.1312H85.1054V62.8312H92.5054V66.1312H92.4054Z" fill="#F1F3F9"/>
<path d="M79.6053 13.7312C90.0053 22.3312 96.6053 35.3312 96.6053 49.9312C96.6053 64.7312 89.8053 77.9312 79.1053 86.5312" stroke="#D6DCE8" stroke-width="2" stroke-miterlimit="10"/>
<path d="M7.50536 11.1312C10.3772 11.1312 12.7054 8.80309 12.7054 5.93121C12.7054 3.05932 10.3772 0.731201 7.50536 0.731201C4.63348 0.731201 2.30536 3.05932 2.30536 5.93121C2.30536 8.80309 4.63348 11.1312 7.50536 11.1312Z" fill="#EAEEF9"/>
</svg>
