<svg width="177" height="121" viewBox="0 0 177 121" fill="none" xmlns="http://www.w3.org/2000/svg">
<path d="M89.7032 109.187C119.403 109.187 143.603 85.0871 143.603 55.4871C143.503 25.7871 119.403 1.68713 89.7032 1.68713C59.9032 1.68713 35.8032 25.7871 35.8032 55.3871C35.8032 85.0871 59.9032 109.187 89.7032 109.187Z" fill="#F1F3F9" stroke="#D6DCE8" stroke-width="2" stroke-miterlimit="10"/>
<path d="M146.803 62.2871C146.803 73.7871 137.503 83.0871 125.903 83.0871C125.703 83.0871 124.003 83.0871 111.503 83.0871C102.803 83.0871 88.9031 83.0871 66.7031 83.0871H56.1031C42.2031 83.3871 31.1031 72.2871 31.1031 58.8871C31.1031 45.3871 42.3031 34.1871 56.4031 34.8871C68.5031 -2.9129 123.903 2.38709 128.603 41.4871C139.003 42.7871 146.803 51.5871 146.803 62.2871Z" fill="white" stroke="#D6DCE8" stroke-width="2" stroke-miterlimit="10"/>
<path d="M128.303 41.5872C127.503 41.4872 126.703 41.4872 125.903 41.4872C121.803 41.4872 117.903 42.6872 114.603 44.7872" fill="white"/>
<path d="M128.303 41.5872C127.503 41.4872 126.703 41.4872 125.903 41.4872C121.803 41.4872 117.903 42.6872 114.603 44.7872" stroke="#D6DCE8" stroke-width="2" stroke-miterlimit="10" stroke-linecap="round"/>
<path d="M56.4031 34.8871C55.2031 38.4871 54.6031 42.2871 54.6031 46.2871C54.6031 47.8871 54.7031 49.3871 54.9031 50.8871" fill="white"/>
<path d="M56.4031 34.8871C55.2031 38.4871 54.6031 42.2871 54.6031 46.2871C54.6031 47.8871 54.7031 49.3871 54.9031 50.8871" stroke="#D6DCE8" stroke-width="2" stroke-miterlimit="10" stroke-linecap="round" stroke-linejoin="round"/>
<path d="M78.8137 58.3725C80.3884 58.3725 81.7207 57.0402 81.7207 55.4655C81.7207 53.8909 80.3884 52.5585 78.8137 52.5585C77.2391 52.5585 75.9067 53.8909 75.9067 55.4655C75.9067 57.0402 77.2391 58.3725 78.8137 58.3725Z" fill="#989FB0"/>
<path d="M101.101 58.3725C102.676 58.3725 104.008 57.0402 104.008 55.4655C104.008 53.8909 102.676 52.5585 101.101 52.5585C99.5264 52.5585 98.194 53.8909 98.194 55.4655C98.194 57.1613 99.5264 58.3725 101.101 58.3725Z" fill="#989FB0"/>
<path d="M78.7001 45.8479L72.3053 49.3007L73.1685 50.8993L79.5633 47.4465L78.7001 45.8479Z" fill="#989FB0"/>
<path d="M100.706 45.8018L99.8426 47.4006L106.238 50.8527L107.101 49.2539L100.706 45.8018Z" fill="#989FB0"/>
<path d="M89.9573 65.1555C91.8304 65.1555 93.3489 64.0167 93.3489 62.6119C93.3489 61.2071 91.8304 60.0682 89.9573 60.0682C88.0842 60.0682 86.5658 61.2071 86.5658 62.6119C86.5658 64.0167 88.0842 65.1555 89.9573 65.1555Z" fill="#989FB0"/>
<path d="M18.6772 16.0482C18.6772 16.0482 4.6987 19.5973 8.93462 22.4366C13.1705 25.1339 23.1956 29.8187 32.6558 26.6955C42.116 23.5723 32.6558 19.1714 32.797 19.1714C32.9382 19.1714 18.6772 16.0482 18.6772 16.0482Z" fill="#F1F3F9" stroke="#D6DCE8" stroke-width="2" stroke-miterlimit="10"/>
<path d="M1.59216 14.9125C6.67527 16.4741 22.3482 13.9188 32.3732 7.38843C40.2803 17.184 43.2454 19.7393 46.0694 20.0232C41.6922 24.4241 27.1489 31.5223 18.9594 22.2947C9.35802 28.3991 1.59216 14.9125 1.59216 14.9125Z" fill="white" stroke="#D6DCE8" stroke-width="2" stroke-miterlimit="10" stroke-linejoin="round"/>
<path d="M131.661 50.4087C137.027 50.6926 151.57 44.1623 159.477 35.3605C169.643 42.8846 173.032 44.5881 175.997 44.1622C172.75 49.5569 162.866 61.3399 148.887 62.1917C138.721 56.2292 131.661 50.4087 131.661 50.4087Z" fill="white" stroke="#D6DCE8" stroke-width="2" stroke-miterlimit="10" stroke-linejoin="round"/>
<path d="M88.8306 117C87.769 111.733 77.8218 99.2743 67.3279 93.8089C72.0825 82.0889 72.8882 78.3827 71.7371 75.6171C77.7707 77.4185 91.6443 84.0557 95.9513 97.3814C92.7091 108.712 88.8306 117 88.8306 117Z" fill="white" stroke="#D6DCE8" stroke-width="2" stroke-miterlimit="10" stroke-linejoin="round"/>
</svg>
