<svg width="160" height="112" viewBox="0 0 160 112" fill="none" xmlns="http://www.w3.org/2000/svg">
<path d="M77.673 110.968C107.373 110.968 131.573 86.8677 131.573 57.2677C131.473 27.5676 107.373 3.46765 77.673 3.46765C47.873 3.46765 23.773 27.5677 23.773 57.1677C23.773 86.8677 47.873 110.968 77.673 110.968Z" fill="#F1F3F9" stroke="#D6DCE8" stroke-width="2" stroke-miterlimit="10"/>
<path d="M158.973 94.1823C158.973 102.631 152.141 109.463 143.619 109.463C143.472 109.463 142.223 109.463 133.04 109.463C126.648 109.463 116.436 109.463 100.127 109.463H92.3395C82.1277 109.684 73.973 101.529 73.973 91.6845C73.973 81.7666 82.2012 73.5384 92.5599 74.0527C101.449 46.2826 142.149 50.1763 145.602 78.9014C153.243 79.8565 158.973 86.3215 158.973 94.1823Z" fill="white" stroke="#D6DCE8" stroke-width="2" stroke-miterlimit="10"/>
<path d="M145.382 78.975C144.794 78.9015 144.206 78.9015 143.619 78.9015C140.607 78.9015 137.741 79.7831 135.317 81.3259" fill="white"/>
<path d="M145.382 78.975C144.794 78.9015 144.206 78.9015 143.619 78.9015C140.607 78.9015 137.741 79.7831 135.317 81.3259" stroke="#D6DCE8" stroke-width="2" stroke-miterlimit="10" stroke-linecap="round"/>
<path d="M92.5599 74.0527C91.6783 76.6975 91.2375 79.4892 91.2375 82.4278C91.2375 83.6033 91.311 84.7053 91.4579 85.8073" fill="white"/>
<path d="M92.5599 74.0527C91.6783 76.6975 91.2375 79.4892 91.2375 82.4278C91.2375 83.6033 91.311 84.7053 91.4579 85.8073" stroke="#D6DCE8" stroke-width="2" stroke-miterlimit="10" stroke-linecap="round" stroke-linejoin="round"/>
<path d="M123.497 39.7417C123.497 44.5648 119.597 48.4652 114.732 48.4652C114.648 48.4652 113.935 48.4652 108.693 48.4652C105.044 48.4652 99.2142 48.4652 89.9036 48.4652H85.458C79.6283 48.591 74.973 43.9357 74.973 38.3157C74.973 32.6539 79.6703 27.9566 85.5838 28.2502C90.6585 12.397 113.893 14.6198 115.864 31.0182C120.226 31.5634 123.497 35.2541 123.497 39.7417Z" fill="white" stroke="#D6DCE8" stroke-width="2" stroke-miterlimit="10"/>
<path d="M115.738 31.0601C115.403 31.0182 115.067 31.0182 114.732 31.0182C113.012 31.0182 111.377 31.5215 109.993 32.4022" fill="white"/>
<path d="M115.738 31.0601C115.403 31.0182 115.067 31.0182 114.732 31.0182C113.012 31.0182 111.377 31.5215 109.993 32.4022" stroke="#D6DCE8" stroke-width="2" stroke-miterlimit="10" stroke-linecap="round"/>
<path d="M85.5838 28.2501C85.0805 29.76 84.8289 31.3537 84.8289 33.0313C84.8289 33.7023 84.8708 34.3314 84.9547 34.9605" fill="white"/>
<path d="M85.5838 28.2501C85.0805 29.76 84.8289 31.3537 84.8289 33.0313C84.8289 33.7023 84.8708 34.3314 84.9547 34.9605" stroke="#D6DCE8" stroke-width="2" stroke-miterlimit="10" stroke-linecap="round" stroke-linejoin="round"/>
<path d="M77.1074 35.9565C77.1074 43.4245 71.0681 49.4638 63.5352 49.4638C63.4053 49.4638 62.3013 49.4638 54.184 49.4638C48.5343 49.4638 39.5077 49.4638 25.0913 49.4638H18.2078C9.18125 49.6586 1.97302 42.4504 1.97302 33.7486C1.97302 24.9818 9.24619 17.7086 18.4026 18.1632C26.2602 -6.38373 62.2364 -2.94196 65.2885 22.4492C72.0422 23.2934 77.1074 29.008 77.1074 35.9565Z" fill="white" stroke="#D6DCE8" stroke-width="2" stroke-miterlimit="10"/>
<path d="M65.0937 22.5142C64.5742 22.4492 64.0547 22.4492 63.5352 22.4492C60.8727 22.4492 58.3401 23.2285 56.1971 24.5922" fill="white"/>
<path d="M65.0937 22.5142C64.5742 22.4492 64.0547 22.4492 63.5352 22.4492C60.8727 22.4492 58.3401 23.2285 56.1971 24.5922" stroke="#D6DCE8" stroke-width="2" stroke-miterlimit="10" stroke-linecap="round"/>
<path d="M18.4026 18.1632C17.6233 20.501 17.2337 22.9687 17.2337 25.5662C17.2337 26.6053 17.2986 27.5794 17.4285 28.5534" fill="white"/>
<path d="M18.4026 18.1632C17.6233 20.501 17.2337 22.9687 17.2337 25.5662C17.2337 26.6053 17.2986 27.5794 17.4285 28.5534" stroke="#D6DCE8" stroke-width="2" stroke-miterlimit="10" stroke-linecap="round" stroke-linejoin="round"/>
<path d="M132.873 38.4677C135.137 38.4677 136.973 36.6321 136.973 34.3677C136.973 32.1033 135.137 30.2677 132.873 30.2677C130.609 30.2677 128.773 32.1033 128.773 34.3677C128.773 36.6321 130.609 38.4677 132.873 38.4677Z" fill="#EAEEF9"/>
<path d="M138.873 22.4677C140.419 22.4677 141.673 21.2141 141.673 19.6677C141.673 18.1213 140.419 16.8677 138.873 16.8677C137.327 16.8677 136.073 18.1213 136.073 19.6677C136.073 21.2141 137.327 22.4677 138.873 22.4677Z" fill="#EAEEF9"/>
<path d="M19.173 93.2677C22.0449 93.2677 24.373 90.9396 24.373 88.0677C24.373 85.1958 22.0449 82.8677 19.173 82.8677C16.3011 82.8677 13.973 85.1958 13.973 88.0677C13.973 90.9396 16.3011 93.2677 19.173 93.2677Z" fill="#EAEEF9"/>
<path d="M107.011 37.9125L107.708 94.067C107.708 95.9853 106.139 97.4677 104.22 97.4677H49.4609C47.5426 97.4677 45.973 95.8981 45.973 94.067V21.8683C45.973 19.95 47.5426 18.4677 49.4609 18.4677H89.1353L107.011 37.9125Z" fill="white" stroke="#D6DCE8" stroke-width="2" stroke-miterlimit="10"/>
<path d="M72.1605 85.4677H71.0385C70.7946 85.4677 70.5995 85.2404 70.5995 84.9677C70.5995 84.6949 70.7946 84.4677 71.0385 84.4677H72.1605C72.4044 84.4677 72.5995 84.6949 72.5995 84.9677C72.5995 85.2858 72.4044 85.4677 72.1605 85.4677Z" fill="#D6DCE8"/>
<path d="M65.889 85.4677H55.31C54.9153 85.4677 54.5995 85.2404 54.5995 84.9677C54.5995 84.6949 54.9153 84.4677 55.31 84.4677H65.889C66.2837 84.4677 66.5995 84.6949 66.5995 84.9677C66.5995 85.2858 66.2837 85.4677 65.889 85.4677Z" fill="#D6DCE8"/>
<path d="M81.4863 30.4677H55.7126C55.1133 30.4677 54.5995 30.0061 54.5995 29.4677C54.5995 28.9292 55.1133 28.4677 55.7126 28.4677H81.4863C82.0857 28.4677 82.5995 28.9292 82.5995 29.4677C82.5995 30.0061 82.0857 30.4677 81.4863 30.4677Z" fill="#D6DCE8"/>
<path d="M65.5782 36.4677H55.7059C55.1101 36.4677 54.5995 36.0061 54.5995 35.4677C54.5995 34.9292 55.1101 34.4677 55.7059 34.4677H65.4931C66.0888 34.4677 66.5995 34.9292 66.5995 35.4677C66.5995 36.0061 66.0888 36.4677 65.5782 36.4677Z" fill="#D6DCE8"/>
<path d="M89.3462 18.4677V34.4318C89.3462 36.6739 91.2779 38.4677 93.473 38.4677L106.973 37.9677" fill="#D6DCE8"/>
<path d="M67.87 46.9817C70.3995 45.3603 73.3829 44.4523 76.5609 44.4523C85.2517 44.4523 92.3211 51.4568 92.3211 60.1476C92.3211 68.8385 85.2517 75.843 76.5609 75.843C67.87 75.843 60.8006 68.8385 60.8006 60.1476C60.6709 54.6348 63.5246 49.8354 67.87 46.9817Z" fill="#D6DCE8" stroke="#AAB2C5" stroke-width="2" stroke-miterlimit="10"/>
<path d="M79.0173 60.7689L79.0323 60.784L79.0479 60.7983C79.9532 61.6299 81.4263 61.688 82.327 60.7573C83.1884 59.8671 83.1884 58.3725 82.327 57.4824L78.2567 53.2762C77.9856 52.9025 77.5931 52.7181 77.3416 52.6281C77.0345 52.5183 76.7077 52.4677 76.4426 52.4677C76.0566 52.4677 75.7058 52.6129 75.4822 52.7284C75.2448 52.8511 74.9971 53.021 74.8124 53.2119L70.7461 57.4139C70.4288 57.6538 70.2452 57.9728 70.142 58.2336C70.0235 58.533 69.973 58.8474 69.973 59.1198C69.973 59.7298 70.2225 60.2847 70.6798 60.7573L70.7003 60.7784L70.722 60.7983C71.6251 61.6279 73.0932 61.6877 73.9945 60.764L74.1664 60.5921V65.086C74.1664 66.3607 75.1911 67.4677 76.5034 67.4677C77.8157 67.4677 78.8404 66.3607 78.8404 65.086V60.5921L79.0173 60.7689Z" fill="white" stroke="#AAB2C5" stroke-width="2"/>
<path d="M61.4973 70.7417C61.4973 75.5648 57.5969 79.4652 52.7319 79.4652C52.648 79.4652 51.9351 79.4652 46.6926 79.4652C43.0438 79.4652 37.2142 79.4652 27.9036 79.4652H23.458C17.6283 79.591 12.973 74.9357 12.973 69.3157C12.973 63.6539 17.6703 58.9566 23.5838 59.2502C28.6585 43.397 51.8931 45.6198 53.8643 62.0182C58.226 62.5634 61.4973 66.2541 61.4973 70.7417Z" fill="white" stroke="#D6DCE8" stroke-width="2" stroke-miterlimit="10"/>
<path d="M53.7385 62.0601C53.403 62.0182 53.0674 62.0182 52.7319 62.0182C51.0124 62.0182 49.3767 62.5215 47.9927 63.4022" fill="white"/>
<path d="M53.7385 62.0601C53.403 62.0182 53.0674 62.0182 52.7319 62.0182C51.0124 62.0182 49.3767 62.5215 47.9927 63.4022" stroke="#D6DCE8" stroke-width="2" stroke-miterlimit="10" stroke-linecap="round"/>
<path d="M23.5838 59.2501C23.0805 60.76 22.8289 62.3537 22.8289 64.0313C22.8289 64.7023 22.8708 65.3314 22.9547 65.9605" fill="white"/>
<path d="M23.5838 59.2501C23.0805 60.76 22.8289 62.3537 22.8289 64.0313C22.8289 64.7023 22.8708 65.3314 22.9547 65.9605" stroke="#D6DCE8" stroke-width="2" stroke-miterlimit="10" stroke-linecap="round" stroke-linejoin="round"/>
</svg>
