<svg width="128" height="110" viewBox="0 0 128 110" fill="none" xmlns="http://www.w3.org/2000/svg">
<path d="M64.2376 108.968C93.9376 108.968 118.138 84.8677 118.138 55.2677C118.038 25.5676 93.9376 1.46765 64.2376 1.46765C34.4376 1.46765 10.3376 25.5677 10.3376 55.1677C10.3376 84.8677 34.4376 108.968 64.2376 108.968Z" fill="#F1F3F9" stroke="#D6DCE8" stroke-width="2" stroke-miterlimit="10"/>
<path d="M121.338 62.0676C121.338 73.5676 112.038 82.8676 100.438 82.8676C100.238 82.8676 98.5376 82.8676 86.0376 82.8676C77.3376 82.8676 63.4376 82.8676 41.2376 82.8676H30.6376C16.7376 83.1676 5.63757 72.0676 5.63757 58.6676C5.63757 45.1676 16.8376 33.9676 30.9376 34.6676C43.0376 -3.13239 98.4376 2.16761 103.138 41.2676C113.538 42.5676 121.338 51.3676 121.338 62.0676Z" fill="white" stroke="#D6DCE8" stroke-width="2" stroke-miterlimit="10"/>
<path d="M102.838 41.3677C102.038 41.2677 101.238 41.2677 100.438 41.2677C96.3376 41.2677 92.4376 42.4677 89.1376 44.5677" fill="white"/>
<path d="M102.838 41.3677C102.038 41.2677 101.238 41.2677 100.438 41.2677C96.3376 41.2677 92.4376 42.4677 89.1376 44.5677" stroke="#D6DCE8" stroke-width="2" stroke-miterlimit="10" stroke-linecap="round"/>
<path d="M30.9376 34.6676C29.7376 38.2676 29.1376 42.0676 29.1376 46.0676C29.1376 47.6676 29.2376 49.1676 29.4376 50.6676" fill="white"/>
<path d="M30.9376 34.6676C29.7376 38.2676 29.1376 42.0676 29.1376 46.0676C29.1376 47.6676 29.2376 49.1676 29.4376 50.6676" stroke="#D6DCE8" stroke-width="2" stroke-miterlimit="10" stroke-linecap="round" stroke-linejoin="round"/>
<path d="M50.8376 60.2677C54.7376 57.7677 59.3376 56.3677 64.2376 56.3677C77.6376 56.3677 88.5376 67.1677 88.5376 80.5677C88.5376 93.9677 77.6376 104.768 64.2376 104.768C50.8376 104.768 39.9376 93.9677 39.9376 80.5677C39.7376 72.0677 44.1376 64.6677 50.8376 60.2677Z" fill="#D6DCE8" stroke="#AAB2C5" stroke-width="2" stroke-miterlimit="10"/>
<path d="M68.7421 81.7862L68.7574 81.801L68.7732 81.815C70.0281 82.9305 72.0328 82.9866 73.2447 81.7747C74.4352 80.5842 74.4352 78.551 73.2447 77.3605L66.5172 70.633C66.2174 70.2044 65.7915 69.9449 65.3887 69.7938C64.9488 69.6288 64.4739 69.5676 64.0376 69.5676C63.561 69.5676 63.097 69.7449 62.7654 69.9107C62.4213 70.0827 62.0753 70.3157 61.8305 70.5605L55.103 77.288C54.6813 77.5828 54.4246 77.9972 54.2745 78.364C54.1091 78.7684 54.0376 79.1981 54.0376 79.5676C54.0376 80.3748 54.3748 81.1191 55.0305 81.7747L55.0512 81.7955L55.0732 81.815C56.3259 82.9285 58.3257 82.9864 59.5383 81.7811L60.9376 80.427V89.0676C60.9376 90.8199 62.3853 92.2676 64.1376 92.2676C65.8899 92.2676 67.3376 90.8199 67.3376 89.0676V80.427L68.7421 81.7862Z" fill="white" stroke="#AAB2C5" stroke-width="2"/>
<path d="M119.038 36.4677C121.302 36.4677 123.138 34.6321 123.138 32.3677C123.138 30.1033 121.302 28.2677 119.038 28.2677C116.773 28.2677 114.938 30.1033 114.938 32.3677C114.938 34.6321 116.773 36.4677 119.038 36.4677Z" fill="#F1F3F9"/>
<path d="M125.038 20.4677C126.584 20.4677 127.838 19.2141 127.838 17.6677C127.838 16.1213 126.584 14.8677 125.038 14.8677C123.491 14.8677 122.238 16.1213 122.238 17.6677C122.238 19.2141 123.491 20.4677 125.038 20.4677Z" fill="#F1F3F9"/>
<path d="M11.6376 29.6676C13.184 29.6676 14.4376 28.414 14.4376 26.8676C14.4376 25.3212 13.184 24.0676 11.6376 24.0676C10.0912 24.0676 8.83759 25.3212 8.83759 26.8676C8.83759 28.414 10.0912 29.6676 11.6376 29.6676Z" fill="#F1F3F9"/>
<path d="M5.33757 91.2677C8.20945 91.2677 10.5376 88.9396 10.5376 86.0677C10.5376 83.1958 8.20945 80.8677 5.33757 80.8677C2.46569 80.8677 0.137573 83.1958 0.137573 86.0677C0.137573 88.9396 2.46569 91.2677 5.33757 91.2677Z" fill="#F1F3F9"/>
</svg>
