<svg width="143" height="115" viewBox="0 0 143 115" fill="none" xmlns="http://www.w3.org/2000/svg">
<path d="M72.94 105.867C100.566 105.867 122.962 83.4513 122.962 55.8005C122.962 28.1496 100.566 5.73413 72.94 5.73413C45.3139 5.73413 22.9185 28.1496 22.9185 55.8005C22.9185 83.4513 45.3139 105.867 72.94 105.867Z" fill="#F1F3F9" stroke="#D6DCE8" stroke-width="2" stroke-miterlimit="10"/>
<path d="M132.239 67.1703C134.351 67.1703 136.063 65.4564 136.063 63.3423C136.063 61.2281 134.351 59.5143 132.239 59.5143C130.127 59.5143 128.414 61.2281 128.414 63.3423C128.414 65.4564 130.127 67.1703 132.239 67.1703Z" fill="#F1F3F9"/>
<path d="M27.347 21.3852C28.7366 21.3852 29.8632 20.2577 29.8632 18.8668C29.8632 17.4759 28.7366 16.3484 27.347 16.3484C25.9573 16.3484 24.8308 17.4759 24.8308 18.8668C24.8308 20.2577 25.9573 21.3852 27.347 21.3852Z" fill="#F1F3F9"/>
<path d="M68.7129 96.7148C68.7129 101.449 66.7 105.68 63.4793 108.703C62.5734 109.508 61.6676 110.214 60.5605 110.818C58.145 112.228 55.3269 113.034 52.3074 113.034C49.288 113.034 46.4699 112.228 44.0544 110.818C43.6518 110.617 43.3499 110.415 42.9473 110.113C38.7201 107.191 35.902 102.255 35.902 96.7148C35.902 87.6485 43.2492 80.3954 52.2068 80.3954C61.3657 80.2947 68.7129 87.6485 68.7129 96.7148Z" fill="#F1F3F9" stroke="#D6DCE8" stroke-width="2" stroke-miterlimit="10"/>
<path d="M48.9861 100.341C49.1874 100.543 49.3887 100.845 49.6906 101.046C49.8919 101.248 50.0932 101.348 50.2945 101.55C50.3952 101.651 50.5965 101.751 50.6971 101.852C50.6971 101.852 50.7977 101.852 50.7977 101.953L50.8984 102.054V103.464C50.8984 103.464 50.8984 103.464 50.7977 103.363C50.6971 103.262 50.4958 103.162 50.3952 103.061C50.1939 102.96 49.9926 102.759 49.7913 102.658C49.6906 102.658 49.6906 102.557 49.59 102.557C48.8854 102.154 48.2816 101.751 48.2816 101.248C48.3822 101.046 48.5835 100.744 48.9861 100.341ZM62.987 108.133C62.3831 106.823 61.567 105.579 60.1579 104.874C59.4534 104.572 58.6482 104.27 57.843 104.27C57.6417 104.27 57.3398 104.27 57.1385 104.27C57.0379 104.27 56.9372 104.27 56.8366 104.27C55.7294 104.169 55.6288 103.968 55.6288 103.968V101.651C56.3333 101.046 57.0379 100.341 57.6417 99.636C58.145 98.9308 58.5476 98.1249 58.7489 97.1175C59.6547 96.9161 60.2586 96.1102 60.1579 95.1028C60.1579 94.6998 59.856 94.2969 59.856 93.8939C59.856 93.6925 59.856 93.491 59.856 93.2895C59.856 93.1888 59.856 92.9873 59.856 92.8866C59.856 92.7858 59.856 92.5844 59.856 92.4836C59.7553 91.7785 59.554 91.0733 59.1514 90.2674C57.9437 88.0512 55.7294 86.6409 53.1126 86.6409C52.6094 86.6409 52.1062 86.7416 51.6029 86.8423C50.6971 87.0438 49.7913 87.4468 49.0867 88.0512C48.9861 88.1519 48.7848 88.2527 48.6842 88.4541L48.5835 88.5549C47.7783 89.3608 47.0738 90.2674 46.7719 91.3755C46.3693 92.4836 46.3693 93.5917 46.4699 94.6998C46.4699 94.6998 46.4699 94.6998 46.4699 94.8006V94.9013C46.4699 95.1028 46.5706 95.1028 46.4699 95.2035C46.4699 95.3043 46.3693 95.3043 46.3693 95.405C46.168 95.7072 46.0673 96.1102 46.2686 96.7146C46.6712 97.7219 47.2751 97.6212 47.9796 98.1249C47.9796 98.1249 47.879 98.1249 47.879 98.2256L47.1745 98.4271C43.9537 99.4345 42.8466 102.154 44.2557 103.867C44.7589 104.471 45.5641 104.975 46.7719 105.277C46.4699 105.277 46.168 105.479 45.9667 105.68C44.5576 106.788 43.6518 108.501 43.4505 110.113C43.4505 110.213 43.4505 110.314 43.4505 110.415C43.8531 110.616 44.155 110.919 44.5576 111.12L60.318 110.751C61.3245 110.147 61.7698 109.68 62.6756 108.875C62.575 108.371 63.0876 108.234 62.987 108.133Z" fill="white"/>
<path d="M63.4793 108.703C62.5734 109.508 61.6676 110.214 60.5605 110.818C58.145 112.228 55.3269 113.034 52.3074 113.034C49.288 113.034 46.4699 112.228 44.0544 110.818C43.6518 110.617 43.3499 110.415 42.9473 110.113C42.9473 110.012 42.9473 109.911 42.9473 109.811C43.1486 108.199 44.0544 106.486 45.4635 105.378C45.6647 105.177 45.9667 105.076 46.2686 104.975C45.0609 104.774 44.2557 104.27 43.7525 103.565H47.577C48.6842 105.076 50.3952 105.983 52.4081 105.983C54.1191 105.983 55.6288 105.277 56.7359 104.169C56.8366 104.169 56.9372 104.169 57.0379 104.169C57.2392 104.169 57.4404 104.169 57.7424 104.169C58.5476 104.169 59.3527 104.371 60.0573 104.774C61.4663 105.479 62.4728 106.688 63.1773 108.098C63.3786 108.3 63.3786 108.501 63.4793 108.703Z" fill="#D6DCE8"/>
<path d="M55.7295 101.651V103.766L49.3887 103.968L49.6907 102.558C49.7913 102.558 49.7913 102.658 49.892 102.658C50.0933 102.759 50.2946 102.961 50.4959 103.061C50.5965 103.162 50.6972 103.263 50.8984 103.364C50.8984 103.364 50.9991 103.364 50.9991 103.464V102.054L50.8984 101.953C52.0056 102.558 53.5153 102.961 55.7295 101.651Z" fill="url(#paint0_linear)"/>
<path d="M59.856 92.8868C58.6482 93.2897 57.2392 93.4912 55.9307 93.3905C53.8172 93.189 51.8042 92.3831 50.1939 90.9728C49.6906 92.4838 48.3822 93.5919 46.8725 94.2971C46.6712 94.3978 46.4699 94.4986 46.2686 94.4986C46.2686 94.4986 46.2686 94.4986 46.2686 94.3978C46.168 93.2897 46.168 92.1816 46.5706 91.0735C46.8725 89.9654 47.577 89.0588 48.3822 88.2529L48.4829 88.1521C48.5835 88.0514 48.7848 87.9507 48.8855 87.7492C49.59 87.1448 50.4958 86.7418 51.4016 86.5403C51.9049 86.4396 52.4081 86.3389 52.9113 86.3389C55.5282 86.3389 57.843 87.7492 58.9502 89.9654C59.3527 90.7713 59.554 91.5772 59.6547 92.1816C59.856 92.5846 59.856 92.786 59.856 92.8868Z" fill="#AAB2C5"/>
<path d="M51.8043 107.796C51.2004 108.501 50.1939 108.501 49.2881 108.501C50.1939 107.594 49.6907 104.673 46.47 104.975C42.0415 104.169 42.4441 99.5354 46.8726 98.1251L47.5771 97.9236L47.6778 98.0243C47.9797 98.931 48.4829 99.7369 48.9862 100.341C47.1745 101.852 49.6907 102.255 50.8985 103.464C51.9049 104.069 52.8108 106.587 51.8043 107.796Z" fill="#AAB2C5"/>
<path d="M114.004 56.6214C114.004 61.1546 112.192 65.1841 109.374 68.2062C109.173 68.5084 108.871 68.7099 108.569 68.9114C105.55 71.732 101.524 73.4445 97.0954 73.4445C93.5728 73.4445 90.2514 72.3364 87.5339 70.4224C86.7288 69.9187 86.0242 69.2136 85.3197 68.6092C82.1996 65.587 80.2874 61.3561 80.2874 56.6214C80.2874 47.3536 87.8359 39.7983 97.0954 39.7983C106.456 39.7983 114.004 47.3536 114.004 56.6214Z" fill="#E9F0F8"/>
<path d="M114.004 56.6213C114.004 61.5574 111.891 65.8891 108.569 69.012C105.55 71.8326 101.524 73.5451 97.0954 73.5451C93.5728 73.5451 90.2514 72.437 87.534 70.523C83.1055 67.5009 80.2874 62.464 80.2874 56.722C80.2874 47.4542 87.8359 39.8989 97.0954 39.8989C106.355 39.8989 114.004 47.3535 114.004 56.6213Z" fill="#F1F3F9" stroke="#D6DCE8" stroke-width="2" stroke-miterlimit="10"/>
<path d="M109.374 68.2063C109.173 68.5085 108.871 68.7099 108.569 68.9114C105.55 71.7321 101.524 73.4446 97.0955 73.4446C93.5728 73.4446 90.2515 72.3365 87.534 70.4225C86.7288 69.9188 86.0243 69.2136 85.3198 68.6092C85.7224 68.1055 86.3262 67.8033 87.6346 67.2996L88.1379 67.0982C89.1444 66.6952 90.5534 66.1915 92.3651 65.3856C92.667 65.2849 92.8683 65.0834 93.0696 64.8819C93.1702 64.7812 93.2709 64.6805 93.2709 64.479C93.3715 64.2775 93.4722 63.9753 93.4722 63.7738V60.3488C93.3715 60.248 93.3715 60.248 93.2709 60.1473C92.9689 59.7443 92.7676 59.2407 92.7676 58.6362L92.5664 58.5355C91.6605 58.737 91.7612 57.8303 91.5599 56.0171C91.4592 55.3119 91.5599 55.1104 91.9625 55.0097L92.2644 54.6067C91.6605 53.1964 91.3586 51.8869 91.3586 50.8795C91.3586 49.1669 92.0631 48.0588 93.0696 47.5552C92.4657 46.3463 92.4657 45.9434 92.4657 45.9434C92.4657 45.9434 95.9884 46.5478 97.1961 46.3463C98.7058 46.0441 101.121 46.447 102.027 48.4618C103.537 49.0662 104.04 49.9728 104.241 50.9802C104.443 52.592 103.537 54.3045 103.336 55.0097V55.1104C103.537 55.2112 103.638 55.4126 103.537 56.1178C103.336 57.8303 103.336 58.8377 102.53 58.6362L101.725 60.0466C101.725 60.248 101.725 60.248 101.625 60.3488C101.625 60.651 101.625 61.1547 101.625 63.8746C101.625 64.1768 101.725 64.5797 101.927 64.7812C102.027 64.8819 102.027 64.9827 102.128 64.9827C102.329 65.1841 102.53 65.3856 102.732 65.3856C104.745 66.1915 106.154 66.7959 107.261 67.1989C108.267 67.6018 108.972 67.904 109.374 68.2063Z" fill="white"/>
<path d="M109.374 68.2063C109.173 68.5085 108.871 68.71 108.569 68.9114C105.55 71.7321 101.524 73.4446 97.0955 73.4446C93.5728 73.4446 90.2515 72.3365 87.534 70.4225C86.7288 69.9188 86.0243 69.2137 85.3198 68.6092C85.7224 68.1055 86.3262 67.8033 87.6346 67.2996L88.1379 67.0982C89.1444 66.6952 90.5534 66.1915 92.3651 65.3856C92.667 65.2849 92.8683 65.0834 93.0696 64.882C94.0761 66.2923 95.6864 67.1989 97.5987 67.1989C99.4104 67.1989 101.021 66.2923 102.027 64.9827C102.228 65.1842 102.43 65.3856 102.631 65.3856C104.644 66.1915 106.053 66.796 107.16 67.1989C108.267 67.6019 108.972 67.9041 109.374 68.2063Z" fill="#D6DCE8"/>
<path d="M103.235 54.909C103.336 54.506 103.134 53.9016 102.933 53.5994C102.933 53.4986 102.832 53.4986 102.832 53.3979C102.128 51.9876 100.618 51.4839 99.209 51.3832C95.4851 51.1817 95.1831 51.8869 94.076 50.8795C94.4786 51.3832 94.4786 52.2898 93.8747 53.2972C93.4721 54.0023 92.7676 54.4053 92.0631 54.6067C90.3521 50.7787 91.2579 48.361 92.8682 47.5552C92.2644 46.3463 92.2644 45.9434 92.2644 45.9434C92.2644 45.9434 95.787 46.5478 96.9948 46.3463C98.5045 46.0441 100.92 46.447 101.826 48.4618C103.336 49.0662 103.839 49.9728 104.04 50.9802C104.342 52.4913 103.436 54.2038 103.235 54.909Z" fill="#AAB2C5"/>
<path d="M93.5728 63.7738V60.3488C93.4721 60.248 93.4721 60.248 93.3715 60.1473V59.9458C93.5728 60.248 93.7741 60.5502 94.076 60.7517L96.7935 62.6657C97.3973 63.1694 98.3032 63.1694 98.907 62.6657L101.423 60.4495C101.524 60.3487 101.625 60.3487 101.725 60.248C101.725 60.5502 101.725 61.0539 101.725 63.7738C101.725 63.9753 101.725 64.076 101.826 64.2775H93.5728C93.4721 64.076 93.5728 63.9753 93.5728 63.7738Z" fill="url(#paint1_linear)"/>
<path d="M1.17883 68.3072C1.17883 71.5308 3.79566 74.1499 7.01636 74.1499H58.7489C59.2522 74.1499 59.7554 74.3514 60.0573 74.6536L67.3039 81.9067C67.5052 82.2089 67.9078 82.3096 68.3104 82.1082C68.6123 82.0074 68.9143 81.6045 68.9143 81.3023V47.7568C68.9143 44.5332 66.2975 41.9141 63.0768 41.9141H7.01636C3.79566 41.9141 1.17883 44.5332 1.17883 47.7568V68.3072Z" fill="white" stroke="#D6DCE8" stroke-width="2" stroke-miterlimit="10"/>
<path d="M44.1788 17.794C44.1788 21.0176 46.7957 23.6368 50.0164 23.6368H58.7489C59.2522 23.6368 59.7554 23.8382 60.0573 24.1404L67.3039 31.3935C67.5052 31.6957 67.9078 31.7965 68.3104 31.595C68.6123 31.4943 68.9143 31.0913 68.9143 30.7891V7.24363C68.9143 4.02004 66.2975 1.40088 63.0768 1.40088H50.0164C46.7957 1.40088 44.1788 4.02004 44.1788 7.24363V17.794Z" fill="white" stroke="#D6DCE8" stroke-width="2" stroke-miterlimit="10"/>
<path d="M56.2328 55.0099H11.7468C11.3442 55.0099 10.9417 54.6069 10.9417 54.204V51.5848C10.9417 51.1819 11.3442 50.7789 11.7468 50.7789H56.2328C56.6354 50.7789 57.038 51.1819 57.038 51.5848V54.204C57.038 54.7077 56.7361 55.0099 56.2328 55.0099Z" fill="#F1F3F9" stroke="#D6DCE8" stroke-width="2" stroke-miterlimit="10"/>
<path d="M39.1228 65.9902H11.7468C11.3442 65.9902 10.9417 65.5873 10.9417 65.1843V62.5652C10.9417 62.1622 11.3442 61.7593 11.7468 61.7593H39.1228C39.5254 61.7593 39.928 62.1622 39.928 62.5652V65.1843C39.928 65.688 39.6261 65.9902 39.1228 65.9902Z" fill="#F1F3F9" stroke="#D6DCE8" stroke-width="2" stroke-miterlimit="10"/>
<path d="M141.179 28.7173C141.179 31.6387 138.864 33.9556 135.945 33.9556H89.4462C89.0436 33.9556 88.5404 34.1571 88.2385 34.4593L81.6964 41.0072C81.4951 41.2087 81.0925 41.3094 80.7906 41.2087C80.4886 41.108 80.2874 40.8057 80.2874 40.5035V10.2824C80.2874 7.36102 82.6022 5.04407 85.521 5.04407H135.845C138.763 5.04407 141.078 7.36102 141.078 10.2824V28.7173H141.179Z" fill="white" stroke="#D6DCE8" stroke-width="2" stroke-miterlimit="10"/>
<path d="M130.812 16.8303H90.8553C90.4527 16.8303 90.1508 16.5281 90.1508 16.1252V13.7075C90.1508 13.3045 90.4527 13.0023 90.8553 13.0023H130.812C131.215 13.0023 131.517 13.3045 131.517 13.7075V16.1252C131.517 16.5281 131.215 16.8303 130.812 16.8303Z" fill="#F1F3F9" stroke="#D6DCE8" stroke-width="2" stroke-miterlimit="10"/>
<path d="M115.514 26.7025H90.8553C90.4527 26.7025 90.1508 26.4003 90.1508 25.9974V23.5797C90.1508 23.1767 90.4527 22.8745 90.8553 22.8745H115.514C115.916 22.8745 116.218 23.1767 116.218 23.5797V25.9974C116.218 26.2996 115.816 26.7025 115.514 26.7025Z" fill="#F1F3F9" stroke="#D6DCE8" stroke-width="2" stroke-miterlimit="10"/>
<path d="M56.5677 6.03003C52.9632 6.03003 50.0677 8.95503 50.0677 12.53C50.0677 16.105 52.9927 19.03 56.5677 19.03C60.1427 19.03 63.0677 16.1346 63.0677 12.53C63.0677 8.95503 60.1723 6.05957 56.5677 6.03003ZM59.0496 9.30957C59.6405 9.30957 60.1132 9.7823 60.1132 10.3732C60.1132 10.9641 59.6405 11.4368 59.0496 11.4368C58.4587 11.4368 57.9859 10.9641 57.9859 10.3732C57.9859 9.7823 58.4587 9.30957 59.0496 9.30957ZM54.1155 9.28003C54.7064 9.28003 55.1791 9.75276 55.1791 10.3437C55.1791 10.9346 54.7064 11.4073 54.1155 11.4073C53.5246 11.4073 53.0518 10.9346 53.0518 10.3437C53.0518 9.7823 53.5246 9.28003 54.1155 9.28003ZM60.32 14.0368C59.5223 16.105 57.2177 17.1391 55.1496 16.3709C54.0859 15.9573 53.2291 15.1005 52.8155 14.0368C52.7268 13.7709 52.845 13.505 53.1109 13.4164C53.17 13.3868 53.2291 13.3868 53.2882 13.3868H59.8473C60.1132 13.3868 60.3496 13.6232 60.3496 13.8891C60.3496 13.9187 60.3496 13.9778 60.32 14.0368Z" fill="#AAB2C5"/>
<defs>
<linearGradient id="paint0_linear" x1="52.5469" y1="103.896" x2="52.5469" y2="102.682" gradientUnits="userSpaceOnUse">
<stop stop-color="white"/>
<stop offset="0.9913" stop-color="#D6DEEA"/>
</linearGradient>
<linearGradient id="paint1_linear" x1="97.5823" y1="64.1426" x2="97.5823" y2="61.8736" gradientUnits="userSpaceOnUse">
<stop stop-color="white"/>
<stop offset="0.9913" stop-color="#D6DEEA"/>
</linearGradient>
</defs>
</svg>
