<svg width="123" height="105" viewBox="0 0 123 105" fill="none" xmlns="http://www.w3.org/2000/svg">
<path d="M57.5947 103.584C85.5947 103.584 108.295 80.8839 108.295 52.7839C108.295 24.6839 85.5947 1.98389 57.5947 1.98389C29.5947 1.98389 6.89471 24.6839 6.89471 52.7839C6.89471 80.8839 29.5947 103.584 57.5947 103.584Z" fill="#F1F3F9" stroke="#D6DCE8" stroke-width="2" stroke-miterlimit="10"/>
<path d="M114.095 31.8838C116.359 31.8838 118.195 30.0482 118.195 27.7838C118.195 25.5195 116.359 23.6838 114.095 23.6838C111.83 23.6838 109.995 25.5195 109.995 27.7838C109.995 30.0482 111.83 31.8838 114.095 31.8838Z" fill="#F1F3F9"/>
<path d="M120.095 15.7838C121.641 15.7838 122.895 14.5302 122.895 12.9838C122.895 11.4374 121.641 10.1838 120.095 10.1838C118.548 10.1838 117.295 11.4374 117.295 12.9838C117.295 14.5302 118.548 15.7838 120.095 15.7838Z" fill="#F1F3F9"/>
<path d="M3.4947 34.7838C5.0411 34.7838 6.2947 33.5302 6.2947 31.9838C6.2947 30.4374 5.0411 29.1838 3.4947 29.1838C1.9483 29.1838 0.694702 30.4374 0.694702 31.9838C0.694702 33.5302 1.9483 34.7838 3.4947 34.7838Z" fill="#F1F3F9"/>
<path d="M8.69469 95.6839C11.5666 95.6839 13.8947 93.3558 13.8947 90.4839C13.8947 87.6121 11.5666 85.2839 8.69469 85.2839C5.82281 85.2839 3.49469 87.6121 3.49469 90.4839C3.49469 93.3558 5.82281 95.6839 8.69469 95.6839Z" fill="#F1F3F9"/>
<path d="M88.9947 23.1839V64.8839C88.9947 67.3839 86.8947 69.4839 84.3947 69.4839H15.3947C12.8947 69.4839 10.7947 67.4839 10.7947 64.8839V23.1839C10.7947 20.6839 12.8947 18.5839 15.3947 18.5839H84.3947C86.8947 18.5839 88.9947 20.6839 88.9947 23.1839Z" fill="#F1F3F9" stroke="#D6DCE8" stroke-width="2" stroke-miterlimit="10"/>
<path d="M101.295 90.4839H37.1947C33.2947 90.4839 30.1947 87.3839 30.1947 83.4839V46.5839C30.1947 42.6839 33.2947 39.5839 37.1947 39.5839H101.295C105.195 39.5839 108.295 42.6839 108.295 46.5839V83.4839C108.295 87.3839 105.195 90.4839 101.295 90.4839Z" fill="white" stroke="#D6DCE8" stroke-width="2" stroke-miterlimit="10"/>
<path d="M49.9947 78.9838H39.7947C38.8947 78.9838 38.1947 78.2838 38.1947 77.3838C38.1947 76.4838 38.8947 75.7838 39.7947 75.7838H49.9947C50.8947 75.7838 51.5947 76.4838 51.5947 77.3838C51.5947 78.2838 50.8947 78.9838 49.9947 78.9838Z" fill="#D6DCE8"/>
<path d="M66.4947 78.9838H56.2947C55.3947 78.9838 54.6947 78.2838 54.6947 77.3838C54.6947 76.4838 55.3947 75.7838 56.2947 75.7838H66.4947C67.3947 75.7838 68.0947 76.4838 68.0947 77.3838C68.0947 78.2838 67.3947 78.9838 66.4947 78.9838Z" fill="#D6DCE8"/>
<path d="M82.9947 78.9838H72.7947C71.8947 78.9838 71.1947 78.2838 71.1947 77.3838C71.1947 76.4838 71.8947 75.7838 72.7947 75.7838H82.9947C83.8947 75.7838 84.5947 76.4838 84.5947 77.3838C84.5947 78.2838 83.8947 78.9838 82.9947 78.9838Z" fill="#D6DCE8"/>
<path d="M99.4947 78.9838H89.2947C88.3947 78.9838 87.6947 78.2838 87.6947 77.3838C87.6947 76.4838 88.3947 75.7838 89.2947 75.7838H99.4947C100.395 75.7838 101.095 76.4838 101.095 77.3838C101.095 78.2838 100.395 78.9838 99.4947 78.9838Z" fill="#D6DCE8"/>
<path d="M95.7947 59.7838C99.1084 59.7838 101.795 57.0975 101.795 53.7838C101.795 50.4701 99.1084 47.7838 95.7947 47.7838C92.481 47.7838 89.7947 50.4701 89.7947 53.7838C89.7947 57.0975 92.481 59.7838 95.7947 59.7838Z" fill="#AAB2C5"/>
<path d="M87.8947 59.7838C91.2084 59.7838 93.8947 57.0975 93.8947 53.7838C93.8947 50.4701 91.2084 47.7838 87.8947 47.7838C84.5809 47.7838 81.8947 50.4701 81.8947 53.7838C81.8947 57.0975 84.5809 59.7838 87.8947 59.7838Z" fill="#D6DCE8"/>
<path d="M88.9947 27.0839H10.8947V36.8839H88.9947V27.0839Z" fill="#AAB2C5"/>
<path d="M50.8947 61.6839H39.6947C38.8947 61.6839 38.1947 60.9839 38.1947 60.1839V52.9839C38.1947 52.1839 38.8947 51.4839 39.6947 51.4839H50.7947C51.5947 51.4839 52.2947 52.1839 52.2947 52.9839V60.1839C52.3947 60.9839 51.6947 61.6839 50.8947 61.6839Z" fill="#D6DCE8"/>
</svg>
