<svg width="123" height="105" viewBox="0 0 123 105" fill="none" xmlns="http://www.w3.org/2000/svg">
<path d="M57.2732 103.584C85.2732 103.584 107.973 80.8839 107.973 52.7839C107.973 24.6839 85.2732 1.98389 57.2732 1.98389C29.2732 1.98389 6.57318 24.6839 6.57318 52.7839C6.57318 80.8839 29.2732 103.584 57.2732 103.584Z" fill="#F1F3F9" stroke="#D6DCE8" stroke-width="2" stroke-miterlimit="10"/>
<path d="M113.773 31.8838C116.038 31.8838 117.873 30.0482 117.873 27.7838C117.873 25.5195 116.038 23.6838 113.773 23.6838C111.509 23.6838 109.673 25.5195 109.673 27.7838C109.673 30.0482 111.509 31.8838 113.773 31.8838Z" fill="#F1F3F9"/>
<path d="M119.773 15.7838C121.32 15.7838 122.573 14.5302 122.573 12.9838C122.573 11.4374 121.32 10.1838 119.773 10.1838C118.227 10.1838 116.973 11.4374 116.973 12.9838C116.973 14.5302 118.227 15.7838 119.773 15.7838Z" fill="#F1F3F9"/>
<path d="M3.17317 34.7838C4.71957 34.7838 5.97317 33.5302 5.97317 31.9838C5.97317 30.4374 4.71957 29.1838 3.17317 29.1838C1.62677 29.1838 0.373169 30.4374 0.373169 31.9838C0.373169 33.5302 1.62677 34.7838 3.17317 34.7838Z" fill="#F1F3F9"/>
<path d="M8.37316 95.6839C11.245 95.6839 13.5732 93.3558 13.5732 90.4839C13.5732 87.6121 11.245 85.2839 8.37316 85.2839C5.50128 85.2839 3.17316 87.6121 3.17316 90.4839C3.17316 93.3558 5.50128 95.6839 8.37316 95.6839Z" fill="#F1F3F9"/>
<path d="M97.5896 84.8533H17.1568C12.2631 84.8533 8.37317 80.9634 8.37317 76.0697V29.7675C8.37317 24.8738 12.2631 20.9839 17.1568 20.9839H97.5896C102.483 20.9839 106.373 24.8738 106.373 29.7675V76.0697C106.373 80.9634 102.483 84.8533 97.5896 84.8533Z" fill="white" stroke="#D6DCE8" stroke-width="2" stroke-miterlimit="10"/>
<path d="M33.2182 70.4231H20.4193C19.2899 70.4231 18.4116 69.5447 18.4116 68.4154C18.4116 67.2861 19.2899 66.4077 20.4193 66.4077H33.2182C34.3476 66.4077 35.2259 67.2861 35.2259 68.4154C35.2259 69.5447 34.3476 70.4231 33.2182 70.4231Z" fill="#D6DCE8"/>
<path d="M53.9225 70.4231H41.1235C39.9942 70.4231 39.1158 69.5447 39.1158 68.4154C39.1158 67.2861 39.9942 66.4077 41.1235 66.4077H53.9225C55.0518 66.4077 55.9302 67.2861 55.9302 68.4154C55.9302 69.5447 55.0518 70.4231 53.9225 70.4231Z" fill="#D6DCE8"/>
<path d="M74.6267 70.4231H61.8277C60.6984 70.4231 59.82 69.5447 59.82 68.4154C59.82 67.2861 60.6984 66.4077 61.8277 66.4077H74.6267C75.756 66.4077 76.6344 67.2861 76.6344 68.4154C76.6344 69.5447 75.756 70.4231 74.6267 70.4231Z" fill="#D6DCE8"/>
<path d="M95.3309 70.4231H82.5319C81.4026 70.4231 80.5243 69.5447 80.5243 68.4154C80.5243 67.2861 81.4026 66.4077 82.5319 66.4077H95.3309C96.4602 66.4077 97.3386 67.2861 97.3386 68.4154C97.3386 69.5447 96.4602 70.4231 95.3309 70.4231Z" fill="#D6DCE8"/>
<path d="M90.6881 46.3309C94.8462 46.3309 98.217 42.9602 98.217 38.8021C98.217 34.6441 94.8462 31.2733 90.6881 31.2733C86.5301 31.2733 83.1593 34.6441 83.1593 38.8021C83.1593 42.9602 86.5301 46.3309 90.6881 46.3309Z" fill="#AAB2C5"/>
<path d="M80.7752 46.3309C84.9332 46.3309 88.304 42.9602 88.304 38.8021C88.304 34.6441 84.9332 31.2733 80.7752 31.2733C76.6171 31.2733 73.2464 34.6441 73.2464 38.8021C73.2464 42.9602 76.6171 46.3309 80.7752 46.3309Z" fill="#D6DCE8"/>
<path d="M34.3476 48.715H20.2938C19.29 48.715 18.4116 47.8366 18.4116 46.8328V37.7982C18.4116 36.7944 19.29 35.916 20.2938 35.916H34.2221C35.226 35.916 36.1043 36.7944 36.1043 37.7982V46.8328C36.2298 47.8366 35.3514 48.715 34.3476 48.715Z" fill="#D6DCE8"/>
<path d="M114.087 85.6265C113.687 87.3265 113.087 89.1265 112.387 90.6265C110.487 94.3265 107.487 97.2265 103.787 99.1265C99.9865 101.027 95.4865 101.827 90.9865 100.827C80.3865 98.6265 73.5865 88.2265 75.7865 77.6265C77.9865 67.0265 88.2865 60.1265 98.8865 62.4265C102.687 63.2265 105.987 65.1265 108.787 67.7265C113.487 72.4265 115.487 79.2265 114.087 85.6265Z" fill="#D6DCE8" stroke="#AAB2C5" stroke-width="2" stroke-miterlimit="10"/>
<path d="M101.186 78.9266H97.6864V75.4266C97.6864 74.0132 96.5768 72.7266 94.9864 72.7266C93.573 72.7266 92.2864 73.8362 92.2864 75.4266V78.9266H88.7864C87.373 78.9266 86.0864 80.0362 86.0864 81.6266C86.0864 82.3661 86.3494 83.0537 86.8543 83.5587C87.3593 84.0636 88.0469 84.3266 88.7864 84.3266H92.2864V87.8266C92.2864 89.24 93.3961 90.5266 94.9864 90.5266C96.3999 90.5266 97.6864 89.4169 97.6864 87.8266V84.3266H101.186C102.6 84.3266 103.886 83.2169 103.886 81.6266C103.886 80.0362 102.6 78.9266 101.186 78.9266Z" fill="white" stroke="#AAB2C5" stroke-width="2"/>
</svg>
