<svg width="124" height="105" viewBox="0 0 124 105" fill="none" xmlns="http://www.w3.org/2000/svg">
<path d="M57.7876 103.584C85.7876 103.584 108.488 80.8839 108.488 52.7839C108.488 24.6839 85.7876 1.98389 57.7876 1.98389C29.7876 1.98389 7.08759 24.6839 7.08759 52.7839C7.08759 80.8839 29.7876 103.584 57.7876 103.584Z" fill="#F1F3F9" stroke="#D6DCE8" stroke-width="2" stroke-miterlimit="10"/>
<path d="M114.288 31.8838C116.552 31.8838 118.388 30.0482 118.388 27.7838C118.388 25.5195 116.552 23.6838 114.288 23.6838C112.023 23.6838 110.188 25.5195 110.188 27.7838C110.188 30.0482 112.023 31.8838 114.288 31.8838Z" fill="#F1F3F9"/>
<path d="M120.288 15.7838C121.834 15.7838 123.088 14.5302 123.088 12.9838C123.088 11.4374 121.834 10.1838 120.288 10.1838C118.741 10.1838 117.488 11.4374 117.488 12.9838C117.488 14.5302 118.741 15.7838 120.288 15.7838Z" fill="#F1F3F9"/>
<path d="M3.68757 34.7838C5.23397 34.7838 6.48757 33.5302 6.48757 31.9838C6.48757 30.4374 5.23397 29.1838 3.68757 29.1838C2.14118 29.1838 0.887573 30.4374 0.887573 31.9838C0.887573 33.5302 2.14118 34.7838 3.68757 34.7838Z" fill="#F1F3F9"/>
<path d="M8.88756 95.6839C11.7594 95.6839 14.0876 93.3558 14.0876 90.4839C14.0876 87.6121 11.7594 85.2839 8.88756 85.2839C6.01568 85.2839 3.68756 87.6121 3.68756 90.4839C3.68756 93.3558 6.01568 95.6839 8.88756 95.6839Z" fill="#F1F3F9"/>
<path d="M98.104 84.8533H17.6712C12.7775 84.8533 8.88757 80.9634 8.88757 76.0697V29.7675C8.88757 24.8738 12.7775 20.9839 17.6712 20.9839H98.104C102.998 20.9839 106.888 24.8738 106.888 29.7675V76.0697C106.888 80.9634 102.998 84.8533 98.104 84.8533Z" fill="white" stroke="#D6DCE8" stroke-width="2" stroke-miterlimit="10"/>
<path d="M33.7326 70.4231H20.9337C19.8043 70.4231 18.926 69.5447 18.926 68.4154C18.926 67.2861 19.8043 66.4077 20.9337 66.4077H33.7326C34.862 66.4077 35.7403 67.2861 35.7403 68.4154C35.7403 69.5447 34.862 70.4231 33.7326 70.4231Z" fill="#D6DCE8"/>
<path d="M54.4369 70.4231H41.6379C40.5086 70.4231 39.6302 69.5447 39.6302 68.4154C39.6302 67.2861 40.5086 66.4077 41.6379 66.4077H54.4369C55.5662 66.4077 56.4446 67.2861 56.4446 68.4154C56.4446 69.5447 55.5662 70.4231 54.4369 70.4231Z" fill="#D6DCE8"/>
<path d="M75.1411 70.4231H62.3421C61.2128 70.4231 60.3344 69.5447 60.3344 68.4154C60.3344 67.2861 61.2128 66.4077 62.3421 66.4077H75.1411C76.2704 66.4077 77.1488 67.2861 77.1488 68.4154C77.1488 69.5447 76.2704 70.4231 75.1411 70.4231Z" fill="#D6DCE8"/>
<path d="M95.8453 70.4231H83.0463C81.917 70.4231 81.0387 69.5447 81.0387 68.4154C81.0387 67.2861 81.917 66.4077 83.0463 66.4077H95.8453C96.9746 66.4077 97.853 67.2861 97.853 68.4154C97.853 69.5447 96.9746 70.4231 95.8453 70.4231Z" fill="#D6DCE8"/>
<path d="M91.2025 46.3309C95.3606 46.3309 98.7314 42.9602 98.7314 38.8021C98.7314 34.6441 95.3606 31.2733 91.2025 31.2733C87.0445 31.2733 83.6737 34.6441 83.6737 38.8021C83.6737 42.9602 87.0445 46.3309 91.2025 46.3309Z" fill="#AAB2C5"/>
<path d="M81.2896 46.3309C85.4476 46.3309 88.8184 42.9602 88.8184 38.8021C88.8184 34.6441 85.4476 31.2733 81.2896 31.2733C77.1315 31.2733 73.7608 34.6441 73.7608 38.8021C73.7608 42.9602 77.1315 46.3309 81.2896 46.3309Z" fill="#D6DCE8"/>
<path d="M34.862 48.715H20.8082C19.8044 48.715 18.926 47.8366 18.926 46.8328V37.7982C18.926 36.7944 19.8044 35.916 20.8082 35.916H34.7365C35.7404 35.916 36.6187 36.7944 36.6187 37.7982V46.8328C36.7442 47.8366 35.8658 48.715 34.862 48.715Z" fill="#D6DCE8"/>
<path d="M81.9742 87.418L98.3117 61.5608C100.09 59.1347 103.813 59.1347 105.591 61.5608L121.929 87.418C123.651 89.7363 121.929 93.0251 118.984 93.0251H84.9749C81.9742 92.9712 80.2515 89.7363 81.9742 87.418Z" fill="#D6DCE8" stroke="#AAB2C5" stroke-width="2" stroke-miterlimit="10"/>
<path d="M98.3023 71.2274L98.3029 71.2362L98.3037 71.2451L99.1674 80.8716C99.2638 82.3231 100.485 83.5206 101.952 83.5206C103.419 83.5206 104.64 82.3231 104.737 80.8716L105.6 71.2451L105.601 71.235L105.602 71.2248C105.755 69.0142 104.121 67.1807 101.952 67.1807C99.7709 67.1807 98.1486 69.0865 98.3023 71.2274Z" fill="white" stroke="#AAB2C5" stroke-width="2"/>
<path d="M101.952 83.3057C100.217 83.3057 98.8765 84.7353 98.8765 86.4477C98.8765 88.1602 100.217 89.5898 101.952 89.5898C103.687 89.5898 105.028 88.1602 105.028 86.4477C105.028 84.7353 103.687 83.3057 101.952 83.3057Z" fill="white" stroke="#AAB2C5" stroke-width="2"/>
</svg>
