<svg width="167" height="116" viewBox="0 0 167 116" fill="none" xmlns="http://www.w3.org/2000/svg">
<path d="M80.068 105.726C108.068 105.726 130.768 83.0259 130.768 54.9259C130.768 26.8259 107.968 4.12585 80.068 4.12585C52.068 4.12585 29.368 26.8259 29.368 54.9259C29.368 83.0259 52.068 105.726 80.068 105.726Z" fill="#F1F3F9" stroke="#D6DCE8" stroke-width="2" stroke-miterlimit="10"/>
<path d="M127.068 21.7259C129.332 21.7259 131.168 19.8902 131.168 17.6259C131.168 15.3615 129.332 13.5259 127.068 13.5259C124.804 13.5259 122.968 15.3615 122.968 17.6259C122.968 19.8902 124.804 21.7259 127.068 21.7259Z" fill="#F1F3F9"/>
<path d="M133.068 5.72585C134.614 5.72585 135.868 4.47225 135.868 2.92585C135.868 1.37946 134.614 0.125854 133.068 0.125854C131.522 0.125854 130.268 1.37946 130.268 2.92585C130.268 4.47225 131.522 5.72585 133.068 5.72585Z" fill="#F1F3F9"/>
<path d="M31.668 21.6259C33.2144 21.6259 34.468 20.3723 34.468 18.8259C34.468 17.2795 33.2144 16.0259 31.668 16.0259C30.1216 16.0259 28.868 17.2795 28.868 18.8259C28.868 20.3723 30.1216 21.6259 31.668 21.6259Z" fill="#F1F3F9"/>
<path d="M14.568 75.6258C17.4399 75.6258 19.768 73.2977 19.768 70.4258C19.768 67.554 17.4399 65.2258 14.568 65.2258C11.6962 65.2258 9.36804 67.554 9.36804 70.4258C9.36804 73.2977 11.6962 75.6258 14.568 75.6258Z" fill="#F1F3F9"/>
<path d="M106.399 40.8454C105.853 43.2136 105.033 45.4906 104.031 47.5855C101.39 52.504 97.4732 56.5117 92.5547 58.9709C87.454 61.6123 81.4426 62.5231 75.34 61.3391C61.1311 58.3333 51.9317 44.4887 54.9374 30.1887C57.9432 15.8887 71.6967 6.68931 85.9967 9.69505C91.0973 10.788 95.5604 13.2473 99.2948 16.7995C105.488 23.1753 108.13 32.1925 106.399 40.8454Z" fill="#D6DCE8" stroke="#AAB2C5" stroke-width="2" stroke-miterlimit="10"/>
<path d="M66.8079 72.2185L69.2271 73.0652L74.5494 74.7587L82.0489 77.1779L80.1136 87.4595L47.817 102.217C43.5834 104.273 38.5031 102.338 36.5677 98.1041L18.1817 57.7032C16.1253 53.4696 18.0607 48.3892 22.2943 46.4538L54.9537 31.4547L57.252 33.8739L53.3812 42.946L64.9935 45.6071L62.2114 56.6146L70.6786 61.2111L66.8079 72.2185Z" fill="white" stroke="#D6DCE8" stroke-width="2" stroke-miterlimit="10"/>
<path d="M60.5179 79.1132C61.0018 80.0809 62.0904 80.5647 63.0581 80.0809L74.3075 74.8796C74.4284 74.8796 74.4284 74.7586 74.5494 74.7586L69.2271 72.9442L61.4856 76.4521C60.5179 77.0569 60.0341 78.1455 60.5179 79.1132Z" fill="#D6DCE8"/>
<path d="M56.1633 83.2259L44.914 88.4272C43.9463 88.911 42.8577 88.4272 42.3738 87.4595C41.89 86.4918 42.3738 85.4032 43.3415 84.9193L54.5908 79.718C55.5585 79.2342 56.6472 79.718 57.131 80.6857C57.6149 81.6534 57.131 82.742 56.1633 83.2259Z" fill="#D6DCE8"/>
<path d="M147.678 47.931L139.724 91.8059C138.975 96.4146 134.525 99.3963 129.861 98.5398L88.535 91.0389L95.9568 83.7971L91.1637 77.4241L87.8041 73.0334L86.2076 70.9992L95.7448 64.1615L91.4633 55.6176L100.182 48.25L92.1103 39.487L100.425 34.2348L99.8917 30.8337L140.836 38.1234C145.445 38.8724 148.534 43.2668 147.678 47.931Z" fill="white" stroke="#D6DCE8" stroke-width="2" stroke-miterlimit="10"/>
<path d="M110.636 81.1095L98.4879 78.9478C97.458 78.7995 96.795 77.7805 96.9433 76.7506C97.0917 75.7207 98.1106 75.0577 99.1405 75.206L111.288 77.3677C112.318 77.5161 112.981 78.535 112.833 79.5649C112.685 80.5948 111.666 81.2578 110.636 81.1095Z" fill="#D6DCE8"/>
<path d="M130.267 84.5764L118.119 82.4147C117.089 82.2664 116.426 81.2475 116.575 80.2175C116.723 79.1876 117.742 78.5246 118.772 78.673L130.92 80.8347C131.949 80.983 132.612 82.0019 132.464 83.0318C132.316 84.0617 131.352 84.8322 130.267 84.5764Z" fill="#D6DCE8"/>
<path d="M138.334 55.0572C139.043 51.1119 136.418 47.3396 132.473 46.6315C128.528 45.9234 124.755 48.5477 124.047 52.493C123.339 56.4384 125.963 60.2107 129.909 60.9188C133.854 61.6269 137.626 59.0026 138.334 55.0572Z" fill="#AAB2C5"/>
<path d="M128.918 53.3555C129.626 49.4101 127.001 45.6378 123.056 44.9297C119.111 44.2216 115.338 46.8459 114.63 50.7913C113.922 54.7366 116.547 58.509 120.492 59.217C124.437 59.9251 128.21 57.3008 128.918 53.3555Z" fill="#D6DCE8"/>
<path d="M93.146 75.9906C93.2944 74.9607 92.6313 73.9418 91.6014 73.7935L87.8597 73.1409L91.2748 77.639C92.1936 77.5725 93.1051 76.965 93.146 75.9906Z" fill="#D5DDEA"/>
<path d="M75.9594 23.1392L75.9601 23.1484L75.9609 23.1576L77.3259 37.8993C77.4585 39.8821 79.1724 41.4622 81.1465 41.4622C83.1206 41.4622 84.8344 39.8821 84.9671 37.8993L86.332 23.1576L86.333 23.1471L86.3338 23.1366C86.5572 20.008 84.1867 17.5112 81.1465 17.5112C78.0944 17.5112 75.7351 20.1117 75.9594 23.1392Z" fill="white" stroke="#AAB2C5" stroke-width="2"/>
<path d="M81.1465 44.1947C78.7725 44.1947 76.8675 46.0997 76.8675 48.4737C76.8675 50.8476 78.7725 52.7527 81.1465 52.7527C83.5204 52.7527 85.4255 50.8476 85.4255 48.4737C85.4255 46.0997 83.5204 44.1947 81.1465 44.1947Z" fill="white" stroke="#AAB2C5" stroke-width="2"/>
<path d="M153.149 41.2384L162.403 38.1031" stroke="#AAB2C5" stroke-width="2" stroke-miterlimit="10"/>
<path d="M149.227 36.6905L158.781 25.2856" stroke="#AAB2C5" stroke-width="2" stroke-miterlimit="10"/>
<path d="M143.799 33.5633L145.029 25.1259" stroke="#AAB2C5" stroke-width="2" stroke-miterlimit="10"/>
<path d="M17.6978 43.4299L13.8271 34.4788" stroke="#AAB2C5" stroke-width="2" stroke-miterlimit="10"/>
<path d="M13.4641 47.6634L1.36804 39.0752" stroke="#AAB2C5" stroke-width="2" stroke-miterlimit="10"/>
<path d="M10.924 53.3486L2.33578 52.8647" stroke="#AAB2C5" stroke-width="2" stroke-miterlimit="10"/>
<path d="M46.8612 65.5454L36.0012 70.3504C35.2254 70.6936 34.1913 70.1907 33.7851 69.2727L30.1296 61.0107C29.7234 60.0927 30.0468 58.9891 30.8225 58.6459L41.5856 53.8838C42.3613 53.5406 43.3955 54.0435 43.8016 54.9615L47.4572 63.2235C47.9603 64.0986 47.6369 65.2022 46.8612 65.5454Z" fill="#D6DCE8"/>
</svg>
