<svg width="153" height="139" viewBox="0 0 153 139" fill="none" xmlns="http://www.w3.org/2000/svg">
<path d="M77.9008 137.527C107.601 137.527 131.801 113.427 131.801 83.8268C131.801 54.1268 107.701 30.1268 77.9008 30.1268C48.1008 30.0268 24.0008 54.0268 24.0008 83.7268C24.0008 113.427 48.1008 137.527 77.9008 137.527Z" fill="#F1F3F9" stroke="#D6DCE8" stroke-width="2" stroke-miterlimit="10"/>
<path d="M68.4008 65.0269L67.0008 61.1269C66.7008 60.1269 65.7008 59.5269 64.7008 59.5269H40.1008C38.0008 59.5269 36.4008 61.1269 36.4008 63.2269V118.327V109.227H120.401V70.3269C120.401 68.2269 118.801 66.6269 116.701 66.6269H70.7008C69.7008 66.6269 68.8008 66.0269 68.4008 65.0269Z" fill="#F1F3F9" stroke="#D6DCE8" stroke-width="2" stroke-miterlimit="10"/>
<path d="M38.8008 33.2266L55.6008 62.4266C56.1008 63.4266 55.8008 64.7266 54.8008 65.2266L26.2008 81.2266C25.2008 81.7266 23.9008 81.4266 23.4008 80.4266L2.3008 42.6266C1.6008 41.6266 2.1008 40.3266 3.1008 39.8266L23.9008 28.2266L38.8008 33.2266Z" fill="white" stroke="#D6DCE8" stroke-width="2" stroke-miterlimit="10"/>
<path d="M23.7008 36.3266L9.9008 44.0266C9.6008 44.2266 9.1008 44.1266 9.0008 43.7266C8.8008 43.4266 8.9008 42.9266 9.2008 42.8266L23.0008 35.2266C23.3008 35.0266 23.8008 35.1266 23.9008 35.4266C24.1008 35.7266 24.0008 36.2266 23.7008 36.3266Z" fill="#D6DCE8"/>
<path d="M17.0008 44.4265L11.7008 47.3265C11.4008 47.5265 11.0008 47.4265 10.9008 47.1265C10.7008 46.8265 10.8008 46.3265 11.1008 46.2265L16.3008 43.3265C16.6008 43.1265 17.1008 43.2265 17.2008 43.5265C17.5008 43.7265 17.4008 44.2265 17.0008 44.4265Z" fill="#D6DCE8"/>
<path d="M23.9008 28.2266L28.5008 36.3266C29.2008 37.4266 30.7008 37.8266 31.8008 37.2266L39.1008 33.2266" fill="#D6DCE8"/>
<path d="M40.5008 51.0267C39.6008 49.2267 38.4008 47.1267 36.9008 45.6267C36.1008 44.8267 35.1008 44.3267 33.9008 44.3267C32.7008 44.3267 31.6008 44.7267 30.4008 45.3267C28.3008 46.2267 26.4008 47.1267 24.5008 48.3267C22.8008 49.3267 20.8008 50.4267 19.5008 52.0267C17.8008 54.3267 18.7008 56.6267 19.9008 59.0267C20.8008 60.8267 22.0008 62.9267 23.5008 64.4267C24.7008 65.6267 26.3008 66.0267 27.9008 65.5267C30.0008 65.0267 33.9008 62.8267 35.7008 61.7267C37.3008 60.7267 39.2008 59.8267 40.4008 58.3267C42.7008 56.0267 41.9008 53.6267 40.5008 51.0267ZM26.5008 53.5267C26.2008 52.9267 26.4008 52.4267 27.2008 52.5267C29.3008 52.6267 31.3008 52.6267 33.3008 52.7267C34.1008 52.7267 34.3008 53.1267 34.0008 53.8267C33.0008 55.5267 32.0008 57.3267 31.0008 59.1267C30.6008 59.7267 30.1008 59.7267 29.8008 59.2267C29.5008 58.9267 26.8008 54.0267 26.5008 53.5267Z" fill="#D6DCE8"/>
<path d="M102.401 84.2265L101.501 83.6265C101.301 83.4265 101.301 83.2265 101.501 83.0265C101.701 82.8265 101.901 82.8265 102.201 82.9265L103.101 83.5265C103.301 83.6265 103.301 83.9265 103.201 84.1265C102.901 84.3265 102.601 84.3265 102.401 84.2265Z" fill="#E3EAF2"/>
<path d="M100.001 82.3267L94.9008 78.3267C94.7008 78.2267 94.7008 77.9267 94.8008 77.7267C94.9008 77.5267 95.2008 77.5267 95.5008 77.6267L100.601 81.6267C100.801 81.7267 100.801 82.0267 100.701 82.2267C100.501 82.4267 100.201 82.5267 100.001 82.3267Z" fill="#E3EAF2"/>
<path d="M151.901 56.6267L132.801 81.3267C132.201 82.2267 131.001 82.3267 130.101 81.6267L106.301 62.9267C105.401 62.3267 105.301 61.1267 106.001 60.2267L130.801 28.7267C131.401 27.8267 132.601 27.7267 133.501 28.4267L150.801 42.0267L151.901 56.6267Z" fill="white" stroke="#D6DCE8" stroke-width="2" stroke-miterlimit="10"/>
<path d="M143.801 44.7267L132.301 35.7267C132.101 35.5267 132.001 35.2267 132.201 34.8267C132.401 34.6267 132.701 34.5267 133.101 34.7267L144.601 43.7267C144.801 43.9267 144.901 44.2267 144.701 44.6267C144.401 44.9267 144.101 44.9267 143.801 44.7267Z" fill="#D6DCE8"/>
<path d="M134.601 41.9267L130.301 38.4267C130.101 38.2267 130.001 37.9267 130.201 37.5267C130.401 37.2267 130.701 37.2267 131.101 37.4267L135.401 40.9267C135.601 41.1267 135.701 41.4267 135.501 41.8267C135.201 42.1267 134.801 42.1267 134.601 41.9267Z" fill="#D6DCE8"/>
<path d="M150.801 42.0266L145.501 48.7266C144.701 49.7266 145.001 51.1266 145.901 51.8266L152.001 56.6266" fill="#D6DCE8"/>
<path d="M144.501 58.1267L138.501 53.5267L132.301 48.6267L126.601 44.1267C126.001 43.6267 125.001 43.7267 124.501 44.4267L116.301 54.8267C115.801 55.4267 115.901 56.4267 116.501 56.9267L134.501 71.1267C135.101 71.6267 136.101 71.5267 136.601 70.8267L144.801 60.4267C145.301 59.5267 145.201 58.7267 144.501 58.1267ZM125.501 58.0267L127.301 55.6267L132.801 59.9267L131.001 62.3267L125.501 58.0267ZM130.501 63.0267L128.801 65.2267L123.301 60.9267L125.001 58.7267L130.501 63.0267ZM135.201 56.9267L133.401 59.3267L127.901 55.0267L129.701 52.6267L135.201 56.9267ZM130.201 51.9267L132.201 49.5267L137.701 53.8267L135.901 56.2267L130.201 51.9267ZM140.201 64.6267L134.101 59.8267L135.901 57.4267L142.001 62.2267L140.201 64.6267ZM127.201 54.4267L121.301 49.8267L123.101 47.4267L129.001 52.0267L127.201 54.4267ZM120.701 50.5267L126.601 55.1267L124.801 57.5267L118.901 52.9267L120.701 50.5267ZM133.601 60.5267L139.701 65.3267L137.901 67.7267L131.801 62.9267L133.601 60.5267ZM144.101 59.7267L142.601 61.6267L136.501 56.8267L138.301 54.4267L143.901 58.8267C144.301 59.0267 144.301 59.4267 144.101 59.7267ZM126.001 44.6267L131.401 48.9267L129.601 51.3267L123.701 46.7267L125.201 44.8267C125.401 44.5267 125.801 44.5267 126.001 44.6267ZM117.001 55.2267L118.301 53.6267L124.201 58.2267L122.501 60.4267L117.001 56.1267C116.801 55.9267 116.801 55.4267 117.001 55.2267ZM135.101 70.1267L129.501 65.7267L131.201 63.5267L137.301 68.3267L135.901 70.0267C135.701 70.4267 135.301 70.4267 135.101 70.1267Z" fill="#D5DDEA"/>
<path d="M95.3008 80.4268L89.6008 79.8268C89.3008 79.8268 89.1008 79.5268 89.2008 79.2268C89.2008 78.9268 89.5008 78.7268 89.9008 78.8268L95.6008 79.4268C95.9008 79.4268 96.1008 79.7268 96.0008 80.0268C95.9008 80.3268 95.6008 80.6268 95.3008 80.4268Z" fill="url(#paint0_linear)"/>
<path d="M122.101 85.8269L115.901 113.527C115.501 115.127 113.601 116.427 111.201 116.427H43.9008C41.6008 116.427 39.6008 115.227 39.2008 113.527L34.1008 90.8269C33.7008 89.1269 35.6008 87.5269 38.0008 87.5269H76.0008C77.2008 87.5269 78.1008 86.9269 78.5008 86.2269L79.6008 83.8269C80.0008 83.0269 81.0008 82.5269 82.1008 82.5269H118.301C120.601 82.5269 122.401 84.1269 122.101 85.8269Z" fill="white"/>
<path d="M127.001 82.1266L120.101 124.627C119.701 127.127 117.501 129.027 114.901 129.027H39.9008C37.3008 129.027 35.1008 127.227 34.7008 124.627L29.0008 89.7266C28.6008 87.1266 30.6008 84.6266 33.3008 84.6266H75.6008C76.9008 84.6266 78.0008 83.7266 78.4008 82.5266L79.6008 78.8266C80.0008 77.6266 81.1008 76.7266 82.4008 76.7266H122.701C125.301 77.0266 127.401 79.4266 127.001 82.1266Z" fill="white" stroke="#D6DCE8" stroke-width="2" stroke-miterlimit="10"/>
<path d="M104.201 26.5267L101.001 61.2267C100.901 62.4267 99.8008 63.3267 98.6008 63.1267L64.8008 59.6267C63.6008 59.5267 62.7008 58.4267 62.8008 57.2267L67.4008 12.7267C67.5008 11.5267 68.6008 10.6267 69.8008 10.8267L94.3008 13.3267L104.201 26.5267Z" fill="white" stroke="#D6DCE8" stroke-width="2" stroke-miterlimit="10"/>
<path d="M94.4008 13.4268L93.4008 22.9268C93.3008 24.2268 94.3008 25.5268 95.7008 25.6268L104.301 26.5268" fill="#D6DCE8"/>
<path d="M97.6008 51.8267L69.9008 48.7267C69.2008 48.6267 68.7008 48.1267 68.8008 47.4267L70.9008 29.7267C71.0008 29.1267 71.6008 28.5267 72.2008 28.6267L99.9008 31.6267C100.601 31.7267 101.101 32.2267 101.001 32.9267L98.9008 50.6267C98.8008 51.3267 98.2008 51.8267 97.6008 51.8267Z" fill="#F1F3F9"/>
<path d="M85.1008 47.5266L72.3008 46.0266L79.5008 39.5266L85.1008 47.5266Z" fill="#D6DCE8"/>
<path d="M95.7008 48.7266L77.2008 46.5266L87.7008 37.2266L95.7008 48.7266Z" fill="white"/>
<path d="M78.5008 36.7266C79.9008 36.7266 81.0008 35.6266 81.0008 34.2266C81.0008 32.8266 79.9008 31.7266 78.5008 31.7266C77.1008 31.7266 76.0008 32.8266 76.0008 34.2266C76.0008 35.6266 77.1008 36.7266 78.5008 36.7266Z" fill="#D6DCE8"/>
<path d="M89.2008 19.2267L72.4008 17.3267C72.2008 17.3267 72.0008 17.1267 72.1008 16.9267V16.7267C72.1008 16.5267 72.3008 16.3267 72.5008 16.4267L89.3008 18.3267C89.5008 18.3267 89.7008 18.5267 89.6008 18.7267V18.9267C89.7008 19.1267 89.5008 19.3267 89.2008 19.2267Z" fill="#D6DCE8"/>
<path d="M89.1008 22.4267L72.1008 20.5267C71.9008 20.5267 71.7008 20.3267 71.8008 20.1267V19.9267C71.8008 19.7267 72.0008 19.5267 72.2008 19.6267L89.2008 21.5267C89.4008 21.5267 89.6008 21.7267 89.5008 21.9267V22.1267C89.6008 22.2267 89.3008 22.4267 89.1008 22.4267Z" fill="#D6DCE8"/>
<path d="M89.7008 55.1267L68.6008 52.7267C68.3008 52.7267 68.1008 52.4267 68.2008 52.1267C68.2008 51.8267 68.5008 51.6267 68.9008 51.7267L89.9008 54.1267C90.2008 54.1267 90.4008 54.4267 90.3008 54.7267C90.2008 55.0267 90.0008 55.2267 89.7008 55.1267Z" fill="#D6DCE8"/>
<path d="M86.6008 25.4267L71.8008 23.7267C71.5008 23.7267 71.3008 23.4267 71.4008 23.1267C71.4008 22.8267 71.7008 22.6267 72.1008 22.7267L86.9008 24.4267C87.2008 24.4267 87.4008 24.7267 87.3008 25.0267C87.2008 25.2267 87.0008 25.4267 86.6008 25.4267Z" fill="#D6DCE8"/>
<path d="M97.5008 59.2267L68.1008 55.7267C67.8008 55.7267 67.6008 55.4267 67.7008 55.1267C67.7008 54.8267 68.0008 54.6267 68.4008 54.7267L97.8008 58.1267C98.1008 58.1267 98.3008 58.4267 98.2008 58.7267C98.1008 59.0267 97.8008 59.2267 97.5008 59.2267Z" fill="#D6DCE8"/>
<path d="M67.0008 6.22665C66.6008 6.42665 66.1008 6.22665 65.9008 5.82665L64.1008 1.32665C63.9008 0.926654 64.1008 0.426654 64.5008 0.226654C64.9008 0.0266543 65.4008 0.226654 65.6008 0.626654L67.4008 5.12665C67.7008 5.72665 67.5008 6.12665 67.0008 6.22665Z" fill="#D6DCE8"/>
<path d="M63.7008 10.6266C63.5008 10.8266 63.3008 10.9266 62.9008 10.8266L58.2008 9.92664C57.8008 9.82664 57.4008 9.42664 57.5008 8.92664C57.6008 8.52664 58.0008 8.12663 58.5008 8.32663L63.2008 9.22664C63.6008 9.32664 64.0008 9.72664 63.9008 10.2266C63.8008 10.3266 63.8008 10.5266 63.7008 10.6266Z" fill="#D6DCE8"/>
<path d="M73.2008 5.7266C73.1008 5.7266 73.0008 5.6266 72.8008 5.6266C72.5008 5.3266 72.4008 4.8266 72.7008 4.4266L75.6008 0.626598C75.9008 0.326598 76.4008 0.226598 76.8008 0.526598C77.1008 0.826598 77.2008 1.3266 76.9008 1.7266L74.0008 5.5266C73.7008 5.6266 73.4008 5.7266 73.2008 5.7266Z" fill="#D6DCE8"/>
<path d="M98.1008 122.327C97.7008 124.027 97.1008 125.827 96.4008 127.327C94.5008 131.027 91.5008 133.927 87.8008 135.827C84.0008 137.727 79.5008 138.527 75.0008 137.527C64.4008 135.327 57.6008 124.927 59.8008 114.327C62.0008 103.727 72.3008 96.8267 82.9008 99.1267C86.7008 99.9267 90.0008 101.827 92.8008 104.427C97.5008 109.127 99.5008 115.927 98.1008 122.327Z" fill="#D6DCE8" stroke="#AAB2C5" stroke-width="2" stroke-miterlimit="10"/>
<path d="M85.2008 115.627H81.7008V112.127C81.7008 110.713 80.5912 109.427 79.0008 109.427C77.5874 109.427 76.3008 110.536 76.3008 112.127V115.627H72.8008C71.3874 115.627 70.1008 116.736 70.1008 118.327C70.1008 119.066 70.3637 119.754 70.8687 120.259C71.3736 120.764 72.0613 121.027 72.8008 121.027H76.3008V124.527C76.3008 125.94 77.4104 127.227 79.0008 127.227C80.4142 127.227 81.7008 126.117 81.7008 124.527V121.027H85.2008C86.6142 121.027 87.9008 119.917 87.9008 118.327C87.9008 116.736 86.6142 115.627 85.2008 115.627Z" fill="white" stroke="#AAB2C5" stroke-width="2"/>
<defs>
<linearGradient id="paint0_linear" x1="89.0698" y1="79.2088" x2="95.8948" y2="79.9959" gradientUnits="userSpaceOnUse">
<stop stop-color="#83A6FF"/>
<stop offset="1" stop-color="#5A78FF"/>
</linearGradient>
</defs>
</svg>
