<svg width="130" height="134" viewBox="0 0 130 134" fill="none" xmlns="http://www.w3.org/2000/svg">
<path d="M7.54669 29.1693C9.06152 28.6644 9.94517 27.0233 9.44023 25.5085C8.93528 23.9936 7.29422 23.11 5.65315 23.6149C4.13832 24.1199 3.25467 25.7609 3.75961 27.2758C4.26456 28.7906 5.90562 29.6743 7.54669 29.1693Z" fill="#EAEEF9"/>
<path d="M13.9847 19.5754C14.9946 19.1967 15.6258 18.0606 15.2471 17.0507C14.8684 16.0408 13.7323 15.4096 12.7224 15.7883C11.7125 16.167 11.0813 17.3032 11.46 18.3131C11.7125 19.3229 12.8486 19.9541 13.9847 19.5754Z" fill="#EAEEF9"/>
<path d="M120.853 42.5164C122.746 40.8753 122.872 37.9719 121.105 36.2046C119.464 34.4373 116.561 34.311 114.793 35.9521C112.9 37.5932 112.773 40.4966 114.541 42.2639C116.182 44.0312 119.085 44.1574 120.853 42.5164Z" fill="#EAEEF9"/>
<path d="M127.669 51.3619C128.426 50.6044 128.552 49.4683 127.795 48.7109C127.038 47.9535 125.901 47.8273 125.144 48.5847C124.387 49.3421 124.26 50.4782 125.018 51.2356C125.649 52.1193 126.911 52.1193 127.669 51.3619Z" fill="#EAEEF9"/>
<path d="M12.7224 126.245C13.4798 125.487 13.606 124.351 12.8486 123.594C12.0912 122.836 10.9551 122.71 10.1977 123.468C9.44025 124.225 9.31402 125.361 10.0714 126.119C10.8288 126.876 11.965 127.002 12.7224 126.245Z" fill="#EAEEF9"/>
<path d="M60.4395 132.43C92.8821 132.43 119.265 106.173 119.265 73.8569C119.139 41.4143 92.8821 15.1572 60.4395 15.1572C27.8707 15.1572 1.61365 41.4143 1.61365 73.7306C1.61365 106.173 27.8707 132.43 60.4395 132.43Z" fill="#F1F3F9" stroke="#D6DCE8" stroke-width="2" stroke-miterlimit="10"/>
<path d="M99.4789 43.5393V48.0757H99.1299H94.7097L26.8954 47.8431C25.6159 47.8431 24.3364 47.6105 23.0568 47.2615C22.9405 47.2615 22.8242 47.1452 22.7079 47.1452C21.0794 46.5636 19.6836 45.8657 18.5204 44.7025C17.5898 43.7719 16.8919 42.3761 16.8919 41.0966C16.8919 38.6538 18.8693 36.7927 21.661 35.6295C22.5916 35.1643 23.7548 34.9316 24.918 34.8153C25.3832 34.8153 25.8485 34.699 26.3138 34.699H90.6386C91.3365 34.699 91.9181 34.8153 92.4997 34.9316C92.965 35.0479 93.4302 35.1643 93.8955 35.3969C97.2688 36.7927 99.4789 39.817 99.4789 43.5393Z" fill="#F1F3F9" stroke="#D6DCE8" stroke-width="2" stroke-miterlimit="10"/>
<path d="M107.738 55.1713V112.284C107.738 116.239 104.597 119.38 100.642 119.38H32.1298C26.4302 119.38 22.01 116.704 19.2184 114.494C17.9388 113.447 17.1246 111.819 17.1246 110.19C17.1246 109.376 17.1246 108.562 17.1246 107.748C17.1246 106.585 17.1246 105.189 17.1246 103.793C17.1246 97.279 17.1246 88.555 17.0083 79.7147C17.0083 78.4352 17.0083 77.1557 17.0083 75.7598C17.0083 71.1071 17.0083 66.4543 16.892 62.0341C16.892 60.7546 16.892 59.4751 16.892 58.0793C16.892 49.3553 16.7757 42.8414 16.7757 41.3292C16.7757 43.8883 19.2184 46.2146 22.4753 47.1452C22.5916 47.1452 22.708 47.2615 22.8243 47.2615C23.9875 47.6105 25.3833 47.8431 26.6628 47.8431L94.4772 48.1921H99.3626H100.526C104.597 48.0758 107.738 51.2164 107.738 55.1713Z" fill="white" stroke="#D6DCE8" stroke-width="2" stroke-miterlimit="10"/>
<path d="M107.738 71.3397V73.4335C107.621 73.4335 107.505 73.4335 107.272 73.4335H93.3139C90.8712 73.4335 88.7774 74.364 87.2653 75.8762C85.8695 77.272 84.8226 79.3658 84.7063 81.5759C84.7063 81.6922 84.7063 81.9248 84.7063 82.0411C84.7063 86.8102 88.5448 90.6488 93.3139 90.6488H107.272C107.97 90.6488 108.552 90.4161 108.784 90.0672C108.901 89.9509 109.017 89.7182 109.017 89.6019V72.3866C109.017 71.805 108.435 71.456 107.738 71.3397Z" fill="white" stroke="#D6DCE8" stroke-width="2" stroke-miterlimit="10"/>
<path d="M93.616 86.5207C96.0595 86.5207 98.0957 84.4845 98.0957 82.0411C98.0957 79.5976 96.0595 77.5614 93.616 77.5614C91.1726 77.5614 89.1364 79.5976 89.1364 82.0411C89.1364 84.4845 91.1726 86.5207 93.616 86.5207Z" fill="#F1F3F9" stroke="#D6DCE8" stroke-width="2" stroke-miterlimit="10"/>
<path d="M47.9713 86.6828C49.8932 86.6828 51.5195 85.0565 51.5195 83.1346C51.5195 81.2127 49.8932 79.5864 47.9713 79.5864C46.0494 79.5864 44.4231 81.2127 44.4231 83.1346C44.4231 85.0565 46.0494 86.6828 47.9713 86.6828Z" fill="#AAB2C5"/>
<path d="M75.174 86.6828C77.0959 86.6828 78.7222 85.0565 78.7222 83.1346C78.7222 81.2127 77.0959 79.5864 75.174 79.5864C73.2521 79.5864 71.6258 81.2127 71.6258 83.1346C71.6258 85.2044 73.2521 86.6828 75.174 86.6828Z" fill="#AAB2C5"/>
<path d="M47.8326 71.3958L40.0275 75.6101L41.0811 77.5614L48.8862 73.3471L47.8326 71.3958Z" fill="#AAB2C5"/>
<path d="M74.6914 71.3398L73.6381 73.2913L81.4441 77.5047L82.4974 75.5532L74.6914 71.3398Z" fill="#AAB2C5"/>
<path d="M61.5727 94.9619C63.8589 94.9619 65.7122 93.5719 65.7122 91.8572C65.7122 90.1426 63.8589 88.7526 61.5727 88.7526C59.2864 88.7526 57.4331 90.1426 57.4331 91.8572C57.4331 93.5719 59.2864 94.9619 61.5727 94.9619Z" fill="#AAB2C5"/>
<path d="M122.503 5.78646C110.958 3.25468 98.6031 3.65977 87.2607 7.00171C84.9315 7.71061 82.3997 8.62205 80.5768 10.2424C77.7413 12.5716 76.526 16.7237 77.4374 20.2682C78.3489 23.8127 81.387 26.7495 85.134 27.4584C87.4633 28.0661 90.2989 27.2559 91.7167 25.3318C93.0332 23.3063 92.7294 20.2682 91.109 18.4453C89.4887 16.4199 86.8556 15.6097 84.4251 15.711C81.9946 15.8123 79.5641 16.7237 77.4374 17.8377C70.551 21.5847 64.9811 28.1673 62.6519 35.8639C61.4711 39.603 61.0552 43.5332 61.3576 47.3992" stroke="#C9D4E2" stroke-width="2" stroke-miterlimit="10" stroke-dasharray="4 4"/>
<path d="M128.579 3.15333C128.478 4.67239 128.377 6.09019 127.263 6.394C126.149 6.69781 125.642 5.6851 124.933 4.26731C124.225 2.95079 124.63 1.53299 125.845 1.22918C126.959 0.925367 128.782 1.33045 128.579 3.15333Z" fill="#F1F3F9" stroke="#D6DCE8" stroke-width="2" stroke-miterlimit="10"/>
<path d="M127.364 10.4449C127.668 8.62202 127.972 7.60931 126.959 7.10296C125.845 6.5966 125.136 7.50804 123.921 8.72329C122.908 9.83728 123.516 11.4576 124.528 11.964C125.744 12.5716 127.06 11.964 127.364 10.4449Z" fill="#F1F3F9" stroke="#D6DCE8" stroke-width="2" stroke-miterlimit="10"/>
<path d="M128.782 7.103C128.681 7.8119 128.174 8.31825 127.465 8.41952C127.162 8.41952 126.858 8.41952 126.453 8.41952C125.035 8.21698 123.921 7.30554 124.022 6.3941C124.123 5.48267 125.44 4.97631 127.06 5.17885C127.364 5.17885 127.668 5.28012 127.87 5.38139C128.478 5.58394 128.883 6.29283 128.782 7.103C128.782 7.103 128.782 7.00173 128.782 7.103Z" fill="#F1F3F9"/>
<path d="M128.782 7.103C128.681 7.8119 128.174 8.31825 127.465 8.41952C127.162 8.41952 126.858 8.41952 126.453 8.41952C125.035 8.21698 123.921 7.30554 124.022 6.3941C124.123 5.48267 125.44 4.97631 127.06 5.17885C127.364 5.17885 127.668 5.28012 127.87 5.38139C128.478 5.58394 128.883 6.29283 128.782 7.103ZM128.782 7.103C128.782 7.00173 128.782 7.103 128.782 7.103Z" stroke="#D6DCE8" stroke-width="2" stroke-miterlimit="10"/>
<path d="M17.297 22.3433C17.297 20.6217 17.297 18.9001 18.5122 18.3937C19.8288 17.8874 20.5377 19.1026 21.5504 20.8242C22.4618 22.3433 22.0567 23.9636 20.7402 24.47C19.6262 24.9763 17.297 24.6725 17.297 22.3433Z" fill="#F1F3F9" stroke="#D6DCE8" stroke-width="2" stroke-miterlimit="10"/>
<path d="M18.0059 13.8366C17.8034 15.9632 17.4995 17.1785 18.8161 17.6848C20.1326 18.1912 20.8415 17.0772 22.158 15.4569C23.1707 14.0391 22.4618 12.2162 21.1453 11.7099C19.8288 11.2035 18.2084 12.1149 18.0059 13.8366Z" fill="#F1F3F9" stroke="#D6DCE8" stroke-width="2" stroke-miterlimit="10"/>
<path d="M16.892 17.8874C16.892 17.0772 17.4996 16.4696 18.2085 16.3683C18.5123 16.267 18.9174 16.267 19.3225 16.3683C20.9428 16.4696 22.3606 17.381 22.2593 18.3937C22.1581 19.4064 20.8415 20.1153 19.1199 19.9128C18.8161 19.9128 18.5123 19.8115 18.2085 19.7103C17.3983 19.609 16.892 18.7988 16.892 17.8874Z" fill="#F1F3F9" stroke="#D6DCE8" stroke-width="2" stroke-miterlimit="10"/>
<path d="M23.7784 18.1912C34.4119 18.1912 54.0585 24.3687 54.3623 47.0534" stroke="#C9D4E2" stroke-width="2" stroke-miterlimit="10" stroke-dasharray="4 4"/>
</svg>
