<svg width="167" height="127" viewBox="0 0 167 127" fill="none" xmlns="http://www.w3.org/2000/svg">
<path d="M81.4128 125.155C115.469 125.155 143.097 97.3906 143.097 63.0608C143.097 28.7311 115.469 1.10315 81.4128 1.10315C47.3565 1.10315 19.7286 28.8679 19.7286 63.1976C19.7286 97.5274 47.3565 125.155 81.4128 125.155Z" fill="#F1F3F9" stroke="#D6DCE8" stroke-width="2" stroke-miterlimit="10"/>
<path d="M111.776 125.335C102.339 125.608 91.1235 125.335 83.054 125.198C75.1212 125.471 63.7691 125.608 54.3319 125.335C63.6324 120.001 66.9149 110.153 67.3252 103.588H98.5092C99.3299 110.016 102.612 120.001 111.776 125.335Z" fill="#F1F3F9" stroke="#D6DCE8" stroke-width="2" stroke-miterlimit="10"/>
<path d="M142.003 20.8409V102.494C142.003 104.545 140.361 106.05 138.583 106.05H28.2085C26.2937 106.05 24.7892 104.409 24.7892 102.494V20.8409C24.7892 18.9261 26.4304 17.2848 28.2085 17.2848H138.447C140.498 17.2848 142.003 18.9261 142.003 20.8409Z" fill="white" stroke="#D6DCE8" stroke-width="2" stroke-miterlimit="10"/>
<path d="M142.003 20.8409V91.1416H24.7892V20.8409C24.7892 18.9261 26.4304 17.2848 28.2085 17.2848H138.447C140.498 17.2848 142.003 18.9261 142.003 20.8409Z" fill="white" stroke="#D6DCE8" stroke-width="2" stroke-miterlimit="10"/>
<path d="M83.1908 101.179C84.832 101.179 86.063 99.9477 86.063 98.3064C86.063 96.6652 84.832 95.4342 83.1908 95.4342C81.5495 95.4342 80.3185 96.6652 80.3185 98.3064C80.3185 99.9477 81.5495 101.179 83.1908 101.179Z" fill="#D6DCE8"/>
<path d="M131.198 33.8342V42.1773C131.198 43.4083 130.24 44.3657 129.009 44.3657H37.0986C35.8677 44.3657 34.9102 43.4083 34.9102 42.1773V33.8342C34.9102 32.6033 35.8677 31.6459 37.0986 31.6459H128.873C130.24 31.5091 131.198 32.6033 131.198 33.8342Z" fill="#D6DCE8"/>
<path d="M47.7668 31.5092V44.5025H36.9618C35.7309 44.5025 34.7735 43.5451 34.7735 42.3141V33.971C34.7735 32.7401 35.7309 31.7827 36.9618 31.7827L47.7668 31.5092Z" fill="#E3EAF2"/>
<path opacity="0.8" d="M131.198 51.3409V59.684C131.198 60.915 130.24 61.8724 129.009 61.8724H37.0986C35.8677 61.8724 34.9102 60.915 34.9102 59.684V51.3409C34.9102 50.11 35.8677 49.1526 37.0986 49.1526H128.873C130.24 49.0158 131.198 50.11 131.198 51.3409Z" fill="#D6DCE8"/>
<path d="M47.7668 31.5092V44.5025H36.9618C35.7309 44.5025 34.7735 43.5451 34.7735 42.3141V33.971C34.7735 32.7401 35.7309 31.7827 36.9618 31.7827L47.7668 31.5092Z" fill="#989FB0"/>
<path d="M40.9283 40.8095C40.6547 40.8095 40.3812 40.6727 40.2444 40.536L38.1928 38.4844C37.7825 38.0741 37.7825 37.527 38.1928 37.1167C38.6032 36.7063 39.1502 36.7063 39.5606 37.1167L40.7915 38.3476L43.8005 35.3386C44.2108 34.9283 44.7579 34.9283 45.1682 35.3386C45.5785 35.7489 45.5785 36.296 45.1682 36.7063L41.4754 40.3992C41.3386 40.6727 41.065 40.8095 40.9283 40.8095Z" fill="white"/>
<path opacity="0.5" d="M131.198 68.848V77.191C131.198 78.422 130.24 79.3794 129.009 79.3794H37.0986C35.8677 79.3794 34.9102 78.422 34.9102 77.191V68.848C34.9102 67.617 35.8677 66.6596 37.0986 66.6596H128.873C130.24 66.5228 131.198 67.4802 131.198 68.848Z" fill="#D6DCE8"/>
<path opacity="0.3" d="M131.198 86.1486V90.106H34.7735V86.1486C34.7735 84.9176 35.7309 83.9602 36.9618 83.9602H128.873C130.24 83.9602 131.198 84.9176 131.198 86.1486Z" fill="#D6DCE8"/>
<path d="M33.6793 120.821C33.6793 123.146 31.7645 125.061 29.4394 125.061H5.91461C3.58949 125.061 1.67468 123.146 1.67468 120.821V65.5654C1.67468 63.2403 3.58949 61.3254 5.91461 61.3254H29.3026C31.6277 61.3254 33.5425 63.2403 33.5425 65.5654L33.6793 120.821Z" fill="white"/>
<path d="M29.4394 61.1886C31.7645 61.1886 33.6793 63.1034 33.6793 65.4285V120.684C33.6793 123.01 31.7645 124.924 29.4394 124.924H5.91461C3.58949 124.924 1.67468 123.01 1.67468 120.684V65.5653C1.67468 63.2402 3.58949 61.3254 5.91461 61.3254L29.4394 61.1886Z" fill="#F1F3F9" stroke="#D6DCE8" stroke-width="2" stroke-miterlimit="10"/>
<path d="M31.6277 65.5653V120.821C31.6277 121.915 30.8071 123.01 29.5762 123.01H29.4394H5.91461H5.77784C4.68366 123.01 3.72626 122.052 3.72626 120.821V65.5653C3.72626 64.3344 4.68366 63.3769 5.77784 63.3769H9.19714C9.74422 63.3769 10.0178 63.7873 10.0178 64.1976C10.0178 65.0182 10.7016 65.8388 11.659 65.8388H23.5582C24.3788 65.8388 25.1995 65.155 25.1995 64.1976C25.1995 63.6505 25.6098 63.3769 25.8833 63.3769H29.1658C30.5336 63.2402 31.6277 64.3344 31.6277 65.5653Z" fill="white"/>
<path d="M19.7286 64.1976H16.5828C16.3093 64.1976 16.0357 63.924 16.0357 63.6505C16.0357 63.3769 16.3093 63.1034 16.5828 63.1034H19.7286C20.0021 63.1034 20.2757 63.3769 20.2757 63.6505C20.1389 63.924 19.8654 64.1976 19.7286 64.1976Z" fill="white"/>
<path d="M14.8048 64.1976H14.5312C14.2577 64.1976 13.9842 63.924 13.9842 63.6505C13.9842 63.3769 14.2577 63.1034 14.5312 63.1034H14.8048C15.0783 63.1034 15.3519 63.3769 15.3519 63.6505C15.3519 63.924 15.0783 64.1976 14.8048 64.1976Z" fill="white"/>
<path d="M28.3453 83.8929H7.00885C6.32499 83.8929 5.91467 83.3458 5.91467 82.7987V71.9937C5.91467 71.3099 6.46176 70.8995 7.00885 70.8995H28.482C29.1659 70.8995 29.5762 71.4466 29.5762 71.9937V82.7987C29.4394 83.3458 29.0291 83.8929 28.3453 83.8929Z" fill="#989FB0"/>
<path d="M16.8564 80.2C16.5828 80.2 16.3093 80.0632 16.1725 79.9265L14.1209 77.8749C13.7106 77.4646 13.7106 76.9175 14.1209 76.5072C14.5313 76.0968 15.0783 76.0968 15.4887 76.5072L16.7196 77.7381L19.7286 74.7291C20.1389 74.3188 20.686 74.3188 21.0963 74.7291C21.5066 75.1394 21.5066 75.6865 21.0963 76.0968L17.5402 79.6529C17.2667 80.0632 16.9931 80.2 16.8564 80.2Z" fill="white"/>
<path opacity="0.8" d="M28.3453 100.032H7.00885C6.32499 100.032 5.91467 99.4847 5.91467 98.9376V88.1326C5.91467 87.4488 6.46176 87.0385 7.00885 87.0385H28.482C29.1659 87.0385 29.5762 87.5855 29.5762 88.1326V98.9376C29.4394 99.4847 29.0291 100.032 28.3453 100.032Z" fill="#D6DCE8"/>
<path opacity="0.5" d="M28.3453 116.171H7.00885C6.32499 116.171 5.91467 115.624 5.91467 115.077V104.272C5.91467 103.588 6.46176 103.178 7.00885 103.178H28.482C29.1659 103.178 29.5762 103.725 29.5762 104.272V115.077C29.4394 115.761 29.0291 116.171 28.3453 116.171Z" fill="#D6DCE8"/>
<path opacity="0.3" d="M29.4394 120.685V122.873H29.3026H5.9146H5.77783V120.685C5.77783 120.001 6.32492 119.59 6.87201 119.59H28.3452C29.0291 119.59 29.4394 120.137 29.4394 120.685Z" fill="#D6DCE8"/>
<path d="M33.269 26.859C33.9529 26.859 34.5 26.3119 34.5 25.628C34.5 24.9442 33.9529 24.3971 33.269 24.3971C32.5852 24.3971 32.0381 24.9442 32.0381 25.628C32.0381 26.3119 32.5852 26.859 33.269 26.859Z" fill="#E3EAF2"/>
<path d="M37.2354 26.859C37.9193 26.859 38.4664 26.3119 38.4664 25.628C38.4664 24.9442 37.9193 24.3971 37.2354 24.3971C36.5516 24.3971 36.0045 24.9442 36.0045 25.628C36.0045 26.3119 36.5516 26.859 37.2354 26.859Z" fill="#E3EAF2"/>
<path d="M41.2018 26.859C41.8856 26.859 42.4327 26.3119 42.4327 25.628C42.4327 24.9442 41.8856 24.3971 41.2018 24.3971C40.5179 24.3971 39.9708 24.9442 39.9708 25.628C39.9708 26.3119 40.5179 26.859 41.2018 26.859Z" fill="#E3EAF2"/>
<path d="M164.725 103.236C164.178 105.561 163.357 108.023 162.4 110.075C159.801 115.135 155.698 119.102 150.638 121.7C145.44 124.299 139.286 125.393 133.131 124.025C118.633 121.016 109.332 106.792 112.341 92.2943C115.35 77.7965 129.438 68.3592 143.936 71.5049C149.133 72.5991 153.647 75.1978 157.476 78.7539C163.904 85.3189 166.503 94.4826 164.725 103.236Z" fill="#D6DCE8" stroke="#AAB2C5" stroke-width="2" stroke-miterlimit="10"/>
<path d="M146.945 94.4401H141.79V89.2853C141.79 87.541 140.423 85.9602 138.465 85.9602C136.721 85.9602 135.14 87.3272 135.14 89.2853V94.4401H129.985C128.241 94.4401 126.66 95.8071 126.66 97.7652C126.66 98.6886 126.987 99.5325 127.602 100.148C128.218 100.763 129.062 101.09 129.985 101.09H135.14V106.245C135.14 107.989 136.507 109.57 138.465 109.57C140.209 109.57 141.79 108.203 141.79 106.245V101.09H146.945C148.674 101.09 150.243 99.7464 150.27 97.815C150.447 95.7528 148.746 94.4401 146.945 94.4401Z" fill="white" stroke="#AAB2C5" stroke-width="2"/>
<path d="M2.1001 125.484L160.085 125.484" stroke="#D6DCE8" stroke-width="2" stroke-miterlimit="10" stroke-linecap="round" stroke-linejoin="round"/>
<path d="M12.339 55.7304C14.6033 55.7304 16.4389 53.8948 16.4389 51.6304C16.4389 49.366 14.6033 47.5304 12.339 47.5304C10.0746 47.5304 8.23895 49.366 8.23895 51.6304C8.23895 53.8948 10.0746 55.7304 12.339 55.7304Z" fill="#F1F3F9"/>
<path d="M8.23897 42.4304C9.78537 42.4304 11.039 41.1768 11.039 39.6304C11.039 38.084 9.78537 36.8304 8.23897 36.8304C6.69257 36.8304 5.43896 38.084 5.43896 39.6304C5.43896 41.1768 6.69257 42.4304 8.23897 42.4304Z" fill="#F1F3F9"/>
<path d="M125.263 9.61782C126.809 9.61782 128.063 8.36422 128.063 6.81782C128.063 5.27142 126.809 4.01782 125.263 4.01782C123.717 4.01782 122.463 5.27142 122.463 6.81782C122.463 8.36422 123.717 9.61782 125.263 9.61782Z" fill="#F1F3F9"/>
<path d="M154.885 66.044C157.757 66.044 160.085 63.7159 160.085 60.844C160.085 57.9722 157.757 55.644 154.885 55.644C152.013 55.644 149.685 57.9722 149.685 60.844C149.685 63.7159 152.013 66.044 154.885 66.044Z" fill="#F1F3F9"/>
</svg>
