<svg width="140" height="97" viewBox="0 0 140 97" fill="none" xmlns="http://www.w3.org/2000/svg">
<path d="M71.1674 95.96C97.0745 95.96 118.076 74.8866 118.076 48.8913C118.076 22.8959 97.0745 1.82251 71.1674 1.82251C45.2603 1.82251 24.2584 22.8959 24.2584 48.8913C24.2584 74.8866 45.2603 95.96 71.1674 95.96Z" fill="#F1F3F9" stroke="#D6DCE8" stroke-width="2" stroke-miterlimit="10"/>
<path d="M115.834 12.7826C117.296 11.4418 117.398 9.16544 116.062 7.69821C114.726 6.23098 112.457 6.12851 110.995 7.46933C109.533 8.81015 109.43 11.0865 110.767 12.5537C112.103 14.021 114.372 14.1234 115.834 12.7826Z" fill="#EAEEF9"/>
<path d="M44.0578 5.862C45.2971 5.45782 45.9752 4.12209 45.5724 2.87855C45.1696 1.63501 43.8384 0.954574 42.5991 1.35875C41.3597 1.76293 40.6816 3.09866 41.0844 4.3422C41.4873 5.58574 42.8185 6.26618 44.0578 5.862Z" fill="#EAEEF9"/>
<path d="M97.4062 87.6259H12.1773L27.7507 15.7443H113.074L97.4062 87.6259Z" fill="white"/>
<path d="M97.4062 87.6259H12.1773L27.7507 15.7443H113.074L97.4062 87.6259Z" fill="#F1F3F9" stroke="#D6DCE8" stroke-width="2" stroke-miterlimit="10"/>
<path opacity="0.1" d="M48.2321 87.6259H30.5822C27.3731 87.6259 24.7304 84.8795 24.9192 81.6595L27.7507 15.7443H31.998L48.2321 87.6259Z" fill="#9CA4B5"/>
<path d="M131.762 87.6259H46.5331L32.0924 32.4125L31.998 32.0336L27.7507 15.7443H113.074L116.755 29.8554L117.321 32.0336L117.416 32.4125L131.762 87.6259Z" fill="white" stroke="#D6DCE8" stroke-width="2" stroke-miterlimit="10" stroke-linejoin="round"/>
<path d="M117.321 32.0335H33.1581L28.9686 15.7441H113.132L116.763 29.8553L117.321 32.0335Z" fill="#F1F3F9"/>
<path d="M50.2141 27.393C51.8822 27.393 53.2344 26.0361 53.2344 24.3624C53.2344 22.6886 51.8822 21.3318 50.2141 21.3318C48.5461 21.3318 47.1938 22.6886 47.1938 24.3624C47.1938 26.0361 48.5461 27.393 50.2141 27.393Z" fill="#F1F3F9" stroke="#D6DCE8" stroke-width="2" stroke-miterlimit="10"/>
<path d="M100.049 27.393C101.717 27.393 103.069 26.0361 103.069 24.3624C103.069 22.6886 101.717 21.3318 100.049 21.3318C98.3809 21.3318 97.0287 22.6886 97.0287 24.3624C97.0287 26.0361 98.3809 27.393 100.049 27.393Z" fill="#F1F3F9" stroke="#D6DCE8" stroke-width="2" stroke-miterlimit="10"/>
<path d="M49.4591 25.5936C48.8928 25.5936 48.4208 25.1201 48.4208 24.5518C48.4208 23.9836 48.8928 23.5101 49.4591 23.5101C51.5355 23.5101 53.7063 20.5742 53.7063 16.123C53.7063 16.0283 53.7063 15.8389 53.7063 15.7442C53.612 11.3878 51.4411 8.73599 49.4591 8.73599C47.5714 8.73599 45.4949 11.293 45.2118 15.2707H43.0409C43.3241 10.346 46.0612 6.65247 49.3647 6.65247C52.8569 6.65247 55.594 10.7248 55.7828 15.9336C55.7828 16.0283 55.7828 16.123 55.7828 16.2177C55.8772 21.4266 53.0457 25.5936 49.4591 25.5936Z" fill="#AAB2C5"/>
<path d="M99.0107 25.5936C98.4444 25.5936 97.9725 25.1201 97.9725 24.5518C97.9725 23.9836 98.4444 23.5101 99.0107 23.5101C101.087 23.5101 103.258 20.5742 103.258 16.123C103.258 16.0283 103.258 15.8389 103.258 15.7442C103.164 11.3878 100.993 8.73599 99.0107 8.73599C97.123 8.73599 95.0466 11.293 94.7634 15.2707H92.5926C92.8757 10.346 95.6129 6.65247 98.9163 6.65247C102.409 6.65247 105.146 10.7248 105.334 15.9336C105.334 16.0283 105.334 16.123 105.334 16.2177C105.429 21.4266 102.597 25.5936 99.0107 25.5936Z" fill="#AAB2C5"/>
<path d="M1.32312 87.5312H138.652" stroke="#D6DCE8" stroke-width="2" stroke-miterlimit="10" stroke-linecap="round" stroke-linejoin="round"/>
<path opacity="0.3" d="M100.521 53.3424C99.9545 53.3424 99.577 52.8688 99.577 52.3953C99.577 51.8271 99.9545 51.4482 100.521 51.4482H103.447C104.013 51.4482 104.391 51.9218 104.391 52.3953C104.391 52.9635 103.919 53.3424 103.447 53.3424H100.521Z" fill="#D5DAE8"/>
<path opacity="0.3" d="M60.3132 80.0494C59.9356 80.0494 59.5581 79.7653 59.3693 79.3865L57.8592 73.7988H50.4028C49.8365 73.7988 49.459 73.3253 49.459 72.8518C49.459 72.2835 49.9309 71.9047 50.4028 71.9047H57.2929L54.9333 63.5706H47.7601C47.1938 63.5706 46.8162 63.0971 46.8162 62.6235C46.8162 62.0553 47.1938 61.6765 47.7601 61.6765H54.367L52.0074 53.3424H45.2117C44.6454 53.3424 44.2679 52.8689 44.2679 52.3953C44.2679 51.8271 44.6454 51.4483 45.2117 51.4483H51.5355L49.1758 43.1142H42.6633C42.097 43.1142 41.7195 42.6406 41.7195 42.1671C41.7195 41.5989 42.097 41.22 42.6633 41.22H48.6095L47.6657 37.8106C47.5713 37.3371 47.8545 36.7689 48.3264 36.6742C48.4208 36.6742 48.5152 36.6742 48.6095 36.6742C48.9871 36.6742 49.3646 36.9583 49.5534 37.3371L50.686 41.22H58.2367C58.803 41.22 59.1806 41.5989 59.1806 42.1671C59.1806 42.7353 58.803 43.1142 58.2367 43.1142H51.2523L53.6119 51.4483H65.5043L61.7289 37.8106C61.6346 37.3371 61.9177 36.7689 62.3896 36.6742C62.484 36.6742 62.5784 36.6742 62.6728 36.6742C63.0503 36.6742 63.4279 36.9583 63.6166 37.3371L64.7492 41.22H68.8078C69.3741 41.22 69.7516 41.5989 69.7516 42.1671C69.7516 42.7353 69.2797 43.1142 68.8078 43.1142H65.3155L67.6751 51.4483H75.6978C76.2641 51.4483 76.6416 51.9218 76.6416 52.3953C76.6416 52.9636 76.2641 53.3424 75.6978 53.3424H68.2415L70.6011 61.6765H82.5878L77.3967 43.1142H74.8483C74.282 43.1142 73.9045 42.6406 73.9045 42.1671C73.9045 41.5989 74.3764 41.22 74.8483 41.22H76.8304L75.8866 37.8106C75.7922 37.5265 75.8866 37.3371 75.981 37.053C76.0753 36.8636 76.2641 36.6742 76.5473 36.5795C76.6416 36.5795 76.736 36.5795 76.8304 36.5795C77.2079 36.5795 77.5855 36.8636 77.7743 37.2424L78.9069 41.1253H80.8889C81.4552 41.1253 81.8328 41.5042 81.8328 42.0724C81.8328 42.6406 81.4552 43.0195 80.8889 43.0195H79.4732L81.8328 51.3536H93.8196L91.46 43.0195H85.325C84.7587 43.0195 84.3811 42.5459 84.3811 42.0724C84.3811 41.5042 84.8531 41.1253 85.325 41.1253H90.6105L89.6667 37.7159C89.5723 37.2424 89.8554 36.6742 90.3274 36.5795C90.4217 36.5795 90.5161 36.5795 90.6105 36.5795C90.988 36.5795 91.3656 36.8636 91.5543 37.2424L92.687 41.1253H104.674L103.73 37.7159C103.636 37.2424 103.919 36.6742 104.391 36.5795C104.485 36.5795 104.579 36.5795 104.674 36.5795C105.051 36.5795 105.429 36.8636 105.618 37.2424L106.75 41.1253H114.112C114.678 41.1253 115.056 41.5042 115.056 42.0724C115.056 42.6406 114.678 43.0195 114.112 43.0195H107.033L109.393 51.3536H116.472C117.038 51.3536 117.416 51.8271 117.416 52.3006C117.416 52.8689 117.038 53.2477 116.472 53.2477H109.959L112.319 61.5818H119.115C119.681 61.5818 120.058 62.0553 120.058 62.5288C120.058 63.0971 119.681 63.4759 119.115 63.4759H112.885L115.245 71.81H121.663C122.229 71.81 122.607 72.2835 122.607 72.7571C122.607 73.3253 122.135 73.7041 121.663 73.7041H115.717L117.132 78.7235C117.227 79.197 116.944 79.7653 116.472 79.86C116.377 79.86 116.283 79.86 116.189 79.86C115.811 79.86 115.434 79.5759 115.245 79.197L113.735 73.7041H101.748L103.164 78.6288C103.258 78.9129 103.164 79.1023 103.069 79.3865C102.975 79.5759 102.786 79.7653 102.503 79.86C102.409 79.86 102.314 79.86 102.22 79.86C101.842 79.86 101.465 79.5759 101.276 79.197L99.7658 73.7988H87.779L89.1947 78.7235C89.2891 79.197 89.006 79.7653 88.534 79.86C88.4397 79.86 88.3453 79.86 88.2509 79.86C87.8734 79.86 87.4958 79.5759 87.3071 79.197L85.7969 73.7988H73.8101L75.2259 78.7235C75.3203 79.197 75.0371 79.7653 74.5652 79.86C74.4708 79.86 74.3764 79.86 74.282 79.86C73.9045 79.86 73.527 79.5759 73.3382 79.197L71.828 73.7988H59.8413L61.257 78.8182C61.3514 79.1023 61.257 79.2918 61.1626 79.5759C61.0683 79.7653 60.8795 79.9547 60.5963 80.0494C60.5019 80.0494 60.4076 80.0494 60.3132 80.0494ZM87.2127 71.9047H113.168L110.809 63.5706H98.8219L99.6714 66.6012C99.7658 66.8853 99.6714 67.0747 99.577 67.3588C99.4826 67.5482 99.2938 67.7377 99.0107 67.8324C98.9163 67.8324 98.8219 67.8324 98.7275 67.8324C98.35 67.8324 97.9725 67.5482 97.7837 67.1694L96.8399 63.6653H93.2533C92.687 63.6653 92.3094 63.1918 92.3094 62.7183C92.3094 62.15 92.687 61.7712 93.2533 61.7712H96.2736L93.9139 53.4371H82.0215L84.3811 61.7712H87.3071C87.8734 61.7712 88.2509 62.2447 88.2509 62.7183C88.2509 63.2865 87.8734 63.6653 87.3071 63.6653H84.8531L87.2127 71.9047ZM73.2438 71.9047H85.2306L82.871 63.5706H70.8842L73.2438 71.9047ZM59.275 71.9047H71.2617L68.9021 63.5706H65.4099C64.8436 63.5706 64.4661 63.0971 64.4661 62.6235C64.4661 62.0553 64.938 61.6765 65.4099 61.6765H68.4302L66.0706 53.3424H54.0838L56.4434 61.6765H59.5581C60.1244 61.6765 60.5019 62.15 60.5019 62.6235C60.5019 63.1918 60.03 63.5706 59.5581 63.5706H57.0097L59.275 71.9047ZM98.35 61.6765H110.337L105.146 43.1142H93.0645L98.35 61.6765Z" fill="#D5DAE8"/>
<path d="M71.3622 52.012C67.4402 52.012 64.1457 49.5027 62.8906 45.8955C62.5769 45.1114 63.0475 44.3272 63.8319 44.0135C64.6163 43.6999 65.4007 44.1704 65.7145 44.9545C66.4989 47.307 68.8521 49.0322 71.3622 49.0322C73.8723 49.0322 76.2255 47.4639 77.01 44.9545C77.3237 44.1704 78.1081 43.6999 78.8925 44.0135C79.6769 44.3272 80.1476 45.1114 79.8338 45.8955C78.5788 49.6595 75.2843 52.012 71.3622 52.012Z" fill="#AAB2C5"/>
<path d="M95.0514 52.012C91.1293 52.012 87.8348 49.5027 86.5798 45.8955C86.266 45.1114 86.7367 44.3272 87.5211 44.0135C88.3055 43.6999 89.0899 44.1704 89.4036 44.9545C90.1881 47.307 92.5413 49.0322 95.0514 49.0322C97.5615 49.0322 99.9147 47.4639 100.699 44.9545C101.013 44.1704 101.797 43.6999 102.582 44.0135C103.366 44.3272 103.837 45.1114 103.523 45.8955C102.268 49.6595 98.9734 52.012 95.0514 52.012Z" fill="#AAB2C5"/>
<path d="M87.8523 71.2147C89.8451 71.2147 91.4605 69.5997 91.4605 67.6075C91.4605 65.6153 89.8451 64.0004 87.8523 64.0004C85.8595 64.0004 84.244 65.6153 84.244 67.6075C84.244 69.5997 85.8595 71.2147 87.8523 71.2147Z" fill="#AAB2C5"/>
<path d="M12.8116 6.14943V1.49976H30.7817V6.14943L18.5198 20.9438H30.9931V25.5935H12.1774V20.9438L24.4393 6.14943H12.8116V6.14943Z" fill="#AAB2C5"/>
<path d="M36.0113 35.494V32.5352H47.6391V35.494L39.8168 45.0047H47.8505V47.9636H35.5885V45.0047L43.4108 35.494H36.0113Z" fill="#AAB2C5"/>
</svg>
