<svg width="139" height="114" viewBox="0 0 139 114" fill="none" xmlns="http://www.w3.org/2000/svg">
<path d="M74.3771 112.667C104.077 112.667 128.277 88.5667 128.277 58.9667C128.177 29.2667 104.077 5.16675 74.3771 5.16675C44.5771 5.16675 20.4771 29.2667 20.4771 58.8667C20.4771 88.5667 44.5771 112.667 74.3771 112.667Z" fill="#F1F3F9" stroke="#D6DCE8" stroke-width="2" stroke-miterlimit="10"/>
<path d="M129.577 40.1668C131.841 40.1668 133.677 38.3312 133.677 36.0668C133.677 33.8024 131.841 31.9668 129.577 31.9668C127.313 31.9668 125.477 33.8024 125.477 36.0668C125.477 38.3312 127.313 40.1668 129.577 40.1668Z" fill="#F1F3F9"/>
<path d="M135.577 24.1668C137.123 24.1668 138.377 22.9132 138.377 21.3668C138.377 19.8204 137.123 18.5668 135.577 18.5668C134.031 18.5668 132.777 19.8204 132.777 21.3668C132.777 22.9132 134.031 24.1668 135.577 24.1668Z" fill="#F1F3F9"/>
<path d="M15.8771 94.9668C18.749 94.9668 21.0771 92.6386 21.0771 89.7668C21.0771 86.8949 18.749 84.5668 15.8771 84.5668C13.0052 84.5668 10.6771 86.8949 10.6771 89.7668C10.6771 92.6386 13.0052 94.9668 15.8771 94.9668Z" fill="#F1F3F9"/>
<path d="M61.1249 72.6972C61.1249 77.3468 57.3648 81.107 52.6748 81.107C52.594 81.107 51.9066 81.107 46.8527 81.107C43.3352 81.107 37.7152 81.107 28.7395 81.107H24.4538C18.8338 81.2282 14.346 76.7404 14.346 71.3226C14.346 65.8644 18.8743 61.3361 24.5751 61.6191C29.4673 46.3361 51.8662 48.4789 53.7665 64.2875C57.9713 64.8132 61.1249 68.3711 61.1249 72.6972Z" fill="white" stroke="#D6DCE8" stroke-width="2" stroke-miterlimit="10"/>
<path d="M53.6452 64.328C53.3217 64.2876 52.9983 64.2876 52.6748 64.2876C51.0171 64.2876 49.4403 64.7728 48.1061 65.6218" fill="white"/>
<path d="M53.6452 64.328C53.3217 64.2876 52.9983 64.2876 52.6748 64.2876C51.0171 64.2876 49.4403 64.7728 48.1061 65.6218" stroke="#D6DCE8" stroke-width="2" stroke-miterlimit="10" stroke-linecap="round"/>
<path d="M24.5751 61.619C24.0899 63.0745 23.8473 64.6109 23.8473 66.2282C23.8473 66.8751 23.8877 67.4816 23.9686 68.088" fill="white"/>
<path d="M24.5751 61.619C24.0899 63.0745 23.8473 64.6109 23.8473 66.2282C23.8473 66.8751 23.8877 67.4816 23.9686 68.088" stroke="#D6DCE8" stroke-width="2" stroke-miterlimit="10" stroke-linecap="round" stroke-linejoin="round"/>
<path d="M62.86 29.8655C62.86 35.9165 57.9665 40.81 51.8628 40.81C51.7576 40.81 50.8631 40.81 44.2858 40.81C39.708 40.81 32.3941 40.81 20.7129 40.81H15.1354C7.82145 40.9679 1.98083 35.1273 1.98083 28.0764C1.98083 20.973 7.87407 15.0798 15.2932 15.4481C21.66 -4.44158 50.8105 -1.65282 53.2835 18.9209C58.7558 19.6049 62.86 24.2353 62.86 29.8655Z" fill="white" stroke="#D6DCE8" stroke-width="2" stroke-miterlimit="10"/>
<path d="M53.1257 18.9735C52.7048 18.9209 52.2838 18.9209 51.8629 18.9209C49.7055 18.9209 47.6534 19.5523 45.917 20.6573" fill="white"/>
<path d="M53.1257 18.9735C52.7048 18.9209 52.2838 18.9209 51.8629 18.9209C49.7055 18.9209 47.6534 19.5523 45.917 20.6573" stroke="#D6DCE8" stroke-width="2" stroke-miterlimit="10" stroke-linecap="round"/>
<path d="M15.2932 15.448C14.6618 17.3423 14.3461 19.3417 14.3461 21.4465C14.3461 22.2884 14.3987 23.0776 14.5039 23.8669" fill="white"/>
<path d="M15.2932 15.448C14.6618 17.3423 14.3461 19.3417 14.3461 21.4465C14.3461 22.2884 14.3987 23.0776 14.5039 23.8669" stroke="#D6DCE8" stroke-width="2" stroke-miterlimit="10" stroke-linecap="round" stroke-linejoin="round"/>
<ellipse cx="70.0706" cy="46.2645" rx="22.5625" ry="19.9023" fill="#FDFDFE"/>
<path d="M55.7332 48.9759C55.7332 39.6083 63.3642 31.9924 72.7503 31.9924C82.1364 31.9924 89.7674 39.6083 89.7674 48.9759C89.7674 58.3434 82.1364 65.9593 72.7503 65.9593C63.3642 65.9593 55.7332 58.4196 55.7332 48.9759ZM72.7503 16.8368C54.2833 16.8368 39.2503 31.8401 39.2503 50.2706C39.2503 63.6745 56.9542 89.0355 66.6455 98.4792C68.7822 100.535 71.682 101.373 74.4291 100.84C74.6581 100.84 74.8107 100.764 75.0396 100.688C75.1159 100.688 75.1922 100.688 75.2685 100.612C76.5658 100.231 77.8631 99.4692 78.9314 98.4792C87.0202 90.5586 100.68 69.8434 104.953 57.3533C105.564 55.5255 106.021 53.6977 106.174 51.9461C106.25 51.3368 106.25 50.8037 106.25 50.1944C106.25 31.8401 91.2936 16.8368 72.7503 16.8368Z" fill="#D6DCE8" stroke="#AAB2C5" stroke-width="2" stroke-miterlimit="10"/>
<path d="M72.7503 108.837C58.633 108.837 44.2868 105.105 44.2868 98.0221C44.2868 96.1181 45.3551 93.3764 50.4678 91.0155C51.4599 90.5585 52.5282 91.0155 52.9861 91.9294C53.4439 92.9194 52.9861 93.9857 52.0704 94.4426C49.0943 95.8135 48.1022 97.1843 48.1022 97.9459C48.1022 100.84 57.7173 104.953 72.7503 104.953C87.7833 104.953 97.3984 100.764 97.3984 97.9459C97.3984 96.9559 95.9485 95.3565 91.9804 93.8334C90.9883 93.4526 90.5305 92.3863 90.912 91.3963C91.2936 90.4062 92.3619 89.9493 93.354 90.33C99.8403 92.8433 101.214 95.8896 101.214 98.0221C101.214 105.105 86.8676 108.837 72.7503 108.837Z" fill="#D6DCE8" stroke="#AAB2C5" stroke-width="2" stroke-miterlimit="10"/>
<path d="M133.677 77.3047C133.677 81.9543 129.917 85.7144 125.227 85.7144C125.146 85.7144 124.459 85.7144 119.405 85.7144C115.888 85.7144 110.268 85.7144 101.292 85.7144H97.0061C91.3862 85.8357 86.8983 81.3478 86.8983 75.93C86.8983 70.4718 91.4266 65.9435 97.1274 66.2265C102.02 50.9435 124.419 53.0863 126.319 68.895C130.524 69.4206 133.677 72.9785 133.677 77.3047Z" fill="white" stroke="#D6DCE8" stroke-width="2" stroke-miterlimit="10"/>
<path d="M126.198 68.9355C125.874 68.895 125.551 68.895 125.227 68.895C123.569 68.895 121.993 69.3802 120.658 70.2293" fill="white"/>
<path d="M126.198 68.9355C125.874 68.895 125.551 68.895 125.227 68.895C123.569 68.895 121.993 69.3802 120.658 70.2293" stroke="#D6DCE8" stroke-width="2" stroke-miterlimit="10" stroke-linecap="round"/>
<path d="M97.1274 66.2264C96.6422 67.682 96.3996 69.2184 96.3996 70.8356C96.3996 71.4825 96.4401 72.089 96.5209 72.6954" fill="white"/>
<path d="M97.1274 66.2264C96.6422 67.682 96.3996 69.2184 96.3996 70.8356C96.3996 71.4825 96.4401 72.089 96.5209 72.6954" stroke="#D6DCE8" stroke-width="2" stroke-miterlimit="10" stroke-linecap="round" stroke-linejoin="round"/>
</svg>
