<svg width="134" height="121" viewBox="0 0 134 121" fill="none" xmlns="http://www.w3.org/2000/svg">
<path d="M71.5553 119.95C104.355 119.95 130.955 93.5499 130.955 60.95C130.955 28.35 104.355 1.94995 71.5553 1.94995C38.7553 1.94995 12.1553 28.35 12.1553 60.95C12.1553 93.5499 38.7553 119.95 71.5553 119.95Z" fill="#F1F3F9" stroke="#D6DCE8" stroke-width="2" stroke-miterlimit="10"/>
<path d="M129.438 32.7499C131.702 32.7499 133.538 30.9143 133.538 28.6499C133.538 26.3856 131.702 24.5499 129.438 24.5499C127.173 24.5499 125.338 26.3856 125.338 28.6499C125.338 30.9143 127.173 32.7499 129.438 32.7499Z" fill="#F1F3F9"/>
<path d="M125.338 19.45C126.884 19.45 128.138 18.1964 128.138 16.65C128.138 15.1036 126.884 13.85 125.338 13.85C123.791 13.85 122.538 15.1036 122.538 16.65C122.538 18.1964 123.791 19.45 125.338 19.45Z" fill="#F1F3F9"/>
<path d="M11.9376 28.6499C13.484 28.6499 14.7376 27.3963 14.7376 25.8499C14.7376 24.3035 13.484 23.0499 11.9376 23.0499C10.3912 23.0499 9.13763 24.3035 9.13763 25.8499C9.13763 27.3963 10.3912 28.6499 11.9376 28.6499Z" fill="#F1F3F9"/>
<path d="M5.63762 90.25C8.5095 90.25 10.8376 87.9219 10.8376 85.05C10.8376 82.1781 8.5095 79.85 5.63762 79.85C2.76574 79.85 0.437622 82.1781 0.437622 85.05C0.437622 87.9219 2.76574 90.25 5.63762 90.25Z" fill="#F1F3F9"/>
<path d="M126.281 45.343V99.4836C126.281 99.7069 126.281 99.8185 126.281 100.042C126.169 103.167 124.718 105.847 122.485 107.744C120.587 109.419 118.02 110.535 115.229 110.535H27.8228C25.925 110.535 24.139 110.088 22.5761 109.195C21.9064 108.861 21.2366 108.414 20.6784 107.856C19.4505 106.851 18.3342 105.4 17.776 103.837C17.3295 102.721 16.9946 101.493 16.9946 100.265V45.343C16.9946 45.343 21.5715 41.4359 28.1576 36.0777C34.9671 30.3845 43.8975 23.0169 51.7116 16.5424C56.1768 12.747 55.7303 13.1935 62.6514 7.3887C67.898 2.92349 75.6005 2.92349 80.8471 7.3887C82.1867 8.505 83.6379 9.84457 84.9774 10.9609C87.8798 13.3051 91.0054 15.9842 94.3544 18.775C101.387 24.5798 109.09 31.0543 115.118 36.0777C121.257 41.101 125.722 44.8964 126.281 45.343Z" fill="#F1F3F9" stroke="#D6DCE8" stroke-width="2" stroke-miterlimit="10"/>
<path opacity="0.14" d="M115.118 36.966V56.3896L96.0288 67.8875L90.3356 71.3481L78.2796 78.604L72.5864 82.0646L70.1306 83.5157L67.7863 82.0646L62.4281 78.604L50.9302 71.3481L45.5719 67.8875L27.9344 56.8361V37.0776C34.7438 31.3844 43.6742 24.0168 51.4883 17.5423L94.2427 19.6633C101.387 25.5797 109.09 31.9426 115.118 36.966Z" fill="#989FB0"/>
<path d="M111.322 21.5611V55.7199L93.9078 66.1015L88.7728 69.2272L77.7214 75.7017L72.5864 78.8273L70.3538 80.0553L68.2329 78.8273L63.3211 75.7017L52.8279 69.2272L47.9162 66.1015L31.8414 56.0548V21.5611C31.8414 17.9889 34.7438 15.0865 38.4276 15.0865H104.736C108.308 14.9749 111.322 17.9889 111.322 21.5611Z" fill="white" stroke="#D6DCE8" stroke-width="2" stroke-miterlimit="10"/>
<path d="M126.281 46.343V101.042C126.169 104.167 124.718 106.847 122.485 108.744C120.587 110.419 118.02 111.535 115.229 111.535H27.8227C25.925 111.535 24.1389 111.088 22.5761 110.195C21.9063 109.861 21.2366 109.414 20.6784 108.856C19.4505 107.851 18.3342 106.4 17.776 104.837C17.3295 103.721 16.9946 102.493 16.9946 101.265V101.153V46.343L65.8886 76.9296L70.1306 79.6088L71.5818 78.7157L72.9213 77.9343L126.281 46.343Z" fill="#738DFF"/>
<path d="M122.597 108.744C120.699 110.419 118.132 111.535 115.341 111.535H27.8227C25.925 111.535 24.1389 111.088 22.5761 110.195C21.9063 109.861 21.2366 109.414 20.6784 108.856C19.4505 107.851 18.3342 106.4 17.776 104.837C17.3295 103.721 16.9946 102.493 16.9946 101.265V101.153V46.343L22.6878 49.8035L71.5818 78.7157L72.9213 79.4971L73.033 79.6088L116.904 105.507L122.597 108.744Z" fill="white" stroke="#D6DCE8" stroke-width="2" stroke-miterlimit="10"/>
<path d="M126.281 46.343V101.042C126.169 104.167 124.718 106.847 122.485 108.744C120.587 110.419 118.02 111.535 115.229 111.535H27.8227C25.925 111.535 24.1389 111.088 22.5761 110.195C21.9063 109.861 21.2365 109.414 20.6784 108.856L26.2599 105.507L70.1306 79.6088L71.5818 78.7157L72.9213 77.9343L120.476 49.6919L126.281 46.343Z" fill="white" stroke="#D6DCE8" stroke-width="2" stroke-miterlimit="10"/>
<path d="M113.108 84.6321H84.0843C83.4146 84.6321 82.8564 84.0739 82.8564 83.4041C82.8564 82.7344 83.4146 82.1762 84.0843 82.1762H113.108C113.778 82.1762 114.336 82.7344 114.336 83.4041C114.448 84.0739 113.89 84.6321 113.108 84.6321Z" fill="#D6DCE8"/>
<path d="M113.108 93.0043H84.0843C83.4146 93.0043 82.8564 92.4462 82.8564 91.7764C82.8564 91.1066 83.4146 90.5485 84.0843 90.5485H113.108C113.778 90.5485 114.336 91.1066 114.336 91.7764C114.448 92.4462 113.89 93.0043 113.108 93.0043Z" fill="#D6DCE8"/>
<path d="M119.136 110.419L122.708 108.633C122.597 108.744 122.597 108.744 122.485 108.856C122.485 108.856 122.485 108.856 122.374 108.856L119.136 110.419Z" fill="#526DFF"/>
<path d="M69.212 58.9007C68.3684 58.9007 67.5743 58.5907 66.9291 57.9189L55.9614 46.4981C54.7207 45.2062 54.7207 43.0358 55.9614 41.7438C57.2021 40.4519 59.2865 40.4519 60.5272 41.7438L69.212 50.7874L89.6587 29.5479C90.8993 28.256 92.9837 28.256 94.2244 29.5479C95.4651 30.8399 95.4651 33.0103 94.2244 34.3023L71.4949 57.9189C70.8994 58.5907 70.0557 58.9007 69.212 58.9007Z" fill="#D6DCE8" stroke="#AAB2C5" stroke-width="2" stroke-miterlimit="10"/>
</svg>
