<svg width="138" height="124" viewBox="0 0 138 124" fill="none" xmlns="http://www.w3.org/2000/svg">
<path d="M132.422 65.2267C132.422 86.4241 120.658 105.292 104.12 114.726C104.12 114.726 104.003 114.842 103.887 114.842C101.79 116.124 99.1114 117.288 97.9467 117.871H97.8302C96.8985 118.22 91.308 120.549 90.3762 120.549C90.2598 120.549 90.1433 120.549 90.1433 120.666C90.0268 120.666 89.9104 120.666 89.7939 120.782C87.348 121.481 83.854 122.064 83.1552 122.18C83.1552 122.529 72.44 123.578 63.3554 121.598C62.1907 121.598 54.7367 119.618 48.2145 116.357C29.8124 106.806 17.1173 87.4723 17.1173 65.2267C17.1173 33.4307 42.9734 7.69104 74.7694 7.69104C106.682 7.69104 132.422 33.4307 132.422 65.2267Z" fill="#F1F3F9" stroke="#D6DCE8" stroke-width="2" stroke-miterlimit="10"/>
<path d="M92.2397 88.7535V120.084C92.1233 120.084 90.6092 120.666 90.4927 120.666C90.3762 120.666 90.2598 120.666 90.2598 120.783C90.1433 120.783 90.0268 120.783 89.9104 120.899C87.4645 121.598 83.9704 122.18 83.2716 122.297V88.7535H92.2397Z" fill="#4988FD"/>
<path d="M92.2397 88.7535V120.084C92.1233 120.084 90.6092 120.666 90.4927 120.666C90.3762 120.666 90.2598 120.666 90.2598 120.783C90.1433 120.783 90.0268 120.783 89.9104 120.899C87.4645 121.598 83.9704 122.18 83.2716 122.297V88.7535H92.2397Z" fill="white" stroke="#D6DCE8" stroke-width="2" stroke-miterlimit="10"/>
<path d="M100.393 88.7535V116.823C99.8102 117.172 98.762 117.521 97.9467 117.987H97.8302C96.3161 118.686 94.5691 119.385 91.5409 120.317V88.87H100.393V88.7535Z" fill="#2767F4"/>
<path d="M100.393 88.7535V116.823C99.8102 117.172 98.762 117.521 97.9467 117.987H97.8302C96.3161 118.686 94.5691 119.385 91.5409 120.317V88.87H100.393V88.7535Z" fill="white" stroke="#D6DCE8" stroke-width="2" stroke-miterlimit="10"/>
<path d="M136.847 53.5798V89.2193H109.011V89.3358H53.2226V25.2778H106.216C106.915 25.1614 107.614 25.1614 108.429 25.1614C109.361 25.1614 110.176 25.1614 111.108 25.2778C112.272 25.3943 113.321 25.5108 114.369 25.7437C119.843 26.9084 124.735 29.7037 128.462 33.4307C133.703 38.6718 136.847 45.7764 136.847 53.5798Z" fill="white" stroke="#D6DCE8" stroke-width="2" stroke-miterlimit="10"/>
<path d="M127.18 62.548C130.791 62.548 133.819 59.7528 133.819 56.1422C133.819 52.5317 130.907 49.7365 127.18 49.7365C123.57 49.7365 120.542 52.5317 120.542 56.1422C120.542 59.7528 123.453 62.548 127.18 62.548Z" fill="#D5DAE8"/>
<path d="M127.53 62.548C131.024 62.548 133.936 59.7528 133.936 56.1422C133.936 52.5317 131.024 49.7365 127.53 49.7365C124.036 49.7365 121.124 52.5317 121.124 56.1422C121.124 59.7528 123.919 62.548 127.53 62.548Z" fill="white" stroke="#D6DCE8" stroke-width="2" stroke-miterlimit="10"/>
<path d="M127.53 58.588C128.927 58.588 129.976 57.5398 129.976 56.1421C129.976 54.7445 128.927 53.6963 127.53 53.6963C126.132 53.6963 125.084 54.7445 125.084 56.1421C125.084 57.5398 126.132 58.588 127.53 58.588Z" fill="#D6DCE8"/>
<path d="M80.9422 50.7847V89.3359H24.1054V50.7847C24.1054 38.6719 32.7241 28.4226 44.0216 25.8603C45.8851 25.3944 47.7486 25.278 49.7286 25.278H55.552C68.3636 25.278 78.8458 34.5955 80.8258 46.8247C80.8258 47.9894 80.9422 49.387 80.9422 50.7847Z" fill="#AFB6C7" stroke="#D6DCE8" stroke-width="2" stroke-miterlimit="10"/>
<path d="M67.6648 111.116C66.0342 113.561 64.0542 117.521 62.8896 120.782C62.7731 121.015 62.6566 121.365 62.6566 121.598C61.8413 121.481 61.0261 121.248 60.2108 121.015C59.512 119.385 59.0461 117.638 59.0461 117.638C59.512 117.055 59.8614 116.59 60.3272 116.124C62.5401 113.445 64.8695 111.581 67.6648 111.116Z" fill="#C1C8D7"/>
<path d="M63.3554 121.714C63.1225 121.714 62.8895 121.598 62.6566 121.598C61.8413 121.481 61.026 121.248 60.2107 121.015C59.6284 120.899 59.1625 120.666 58.5802 120.549C58.3472 120.433 58.1143 120.433 57.8814 120.317C57.6484 120.2 57.4155 120.2 57.0661 120.084C54.0379 119.152 51.1262 117.871 48.3309 116.473C45.4192 111.581 43.7886 105.641 40.9934 97.3722C40.9934 97.2557 40.9933 97.2557 40.8769 97.1392C40.8769 97.1392 41.1098 97.1392 41.6922 97.3722C42.0416 97.6051 42.6239 97.838 43.3227 98.3039C44.7204 99.2357 46.9333 100.866 50.1944 103.545C54.2708 106.923 57.7649 111.931 60.2107 116.007C61.259 117.871 62.1907 119.501 62.8895 120.782C63.1225 121.015 63.2389 121.365 63.3554 121.714Z" fill="#D5DAE8"/>
<path d="M58.5802 120.433C58.3473 120.317 58.1143 120.317 57.8814 120.2C57.6485 120.084 57.4155 120.084 57.0661 119.967C51.7085 109.252 45.6522 102.38 42.1581 98.4205C41.8087 97.9546 41.4593 97.6052 41.1099 97.2558C41.1099 97.1393 41.1099 97.1393 40.9934 97.0228C40.9934 97.0228 41.2263 97.0228 41.8087 97.2558C42.1581 97.4887 42.7404 97.7216 43.4392 98.1875C47.0498 102.38 53.2226 109.485 58.5802 120.433Z" fill="#EAEEF9"/>
<path d="M112.971 95.3922C112.971 95.3922 112.855 95.6251 112.622 96.091C111.224 98.6533 106.565 107.156 104.352 114.61C104.236 114.61 104.236 114.726 104.12 114.726C104.12 114.726 104.003 114.843 103.887 114.843C101.79 116.124 99.1114 117.288 97.9467 117.871H97.8302C94.3361 119.501 90.6091 120.55 90.3762 120.55C92.1232 114.843 94.6855 109.718 98.2961 105.409C98.9949 104.593 99.6937 103.778 100.393 103.079C100.509 102.963 100.625 102.846 100.742 102.73C103.77 99.7016 106.915 97.7216 109.943 96.4404C110.292 96.324 110.642 96.091 110.991 95.9746C111.341 95.7416 111.923 95.6251 112.505 95.3922C112.738 95.5087 112.855 95.3922 112.971 95.3922Z" fill="#D5DAE8"/>
<path d="M112.855 95.1593C112.855 95.1593 112.738 95.2758 112.622 95.6252C112.622 95.7416 112.505 95.7417 112.505 95.8581C106.449 101.216 101.674 110.184 98.6455 117.638C98.4126 117.754 98.1796 117.871 97.9467 117.987H97.8302C97.5973 118.104 97.2479 118.22 97.0149 118.337C97.1314 118.104 97.2479 117.987 97.2479 117.987C98.762 114.26 102.838 103.662 109.943 96.5569C110.176 96.324 110.409 96.0911 110.642 95.8581C111.457 95.6252 112.156 95.3922 112.855 95.1593Z" fill="#EAEEF9"/>
<path d="M81.2916 85.2595V89.3359H3.60683C2.44214 89.3359 1.51038 88.4041 1.51038 87.3559C1.51038 86.1912 2.44214 85.2595 3.60683 85.2595H81.2916Z" fill="#F1F3F9" stroke="#D6DCE8" stroke-width="2" stroke-miterlimit="10"/>
<path d="M97.2479 54.5116H127.879C128.811 54.5116 129.51 55.2104 129.51 56.1422C129.51 57.0739 128.811 57.7727 127.879 57.7727H97.2479V54.5116Z" fill="white" stroke="#D6DCE8" stroke-width="2" stroke-miterlimit="10"/>
<path d="M96.1997 38.9049C96.5491 38.439 97.3644 38.6719 97.3644 39.3707V54.3952V57.8893H84.7857V39.3707C84.7857 38.7884 85.4845 38.439 85.9504 38.9049L90.0268 43.7965C90.6091 44.4954 91.6574 44.4954 92.2397 43.7965L96.1997 38.9049Z" fill="white" stroke="#D6DCE8" stroke-width="2" stroke-miterlimit="10"/>
<path d="M14.4384 12.6993C12.9243 19.8039 12.1091 27.025 11.9926 34.2461C11.8761 40.8848 11.8761 48.2224 13.8561 54.6282C16.3019 62.781 23.8724 70.9338 33.1899 68.488C38.3146 67.0904 42.5075 62.6645 43.6722 57.1905C44.371 53.6964 43.3227 49.62 40.5275 47.5236C37.4993 45.5436 33.0735 46.0095 30.3947 48.4553C27.483 50.9012 26.3183 54.6282 26.4347 58.2387C26.5512 61.8492 27.9488 65.3433 29.5794 68.488C34.4711 77.4561 59.8613 72.6809 78.7293 70.468" stroke="#D6DCE8" stroke-width="2" stroke-miterlimit="10" stroke-dasharray="4 4"/>
<path d="M5.35384 6.87582C5.93618 9.2052 8.4985 10.0205 11.0608 8.62285C13.8561 7.22523 15.7196 6.29348 15.1372 4.08056C14.5549 1.98412 11.9926 1.75119 9.08084 1.51825C5.47031 1.16884 4.77149 4.54644 5.35384 6.87582Z" fill="#F1F3F9" stroke="#D6DCE8" stroke-width="2" stroke-miterlimit="10"/>
<path d="M25.7359 8.97239C24.8042 10.9524 21.776 12.117 19.6795 10.1371C17.3502 8.04063 15.6031 6.64301 16.5349 4.4301C17.4666 2.45012 19.3301 3.03247 22.8242 3.61481C25.7359 4.31363 26.9006 6.87595 25.7359 8.97239Z" fill="#F1F3F9" stroke="#D6DCE8" stroke-width="2" stroke-miterlimit="10"/>
<path d="M16.4184 1.16888C14.9043 0.935944 13.5067 1.75123 13.0408 3.14885C12.9243 3.49826 12.6914 4.08061 12.6914 4.66295C12.342 7.57468 13.2737 10.137 15.0207 10.3699C16.7678 10.6029 18.5148 8.38996 18.9807 5.71117C18.9807 4.89589 18.9807 4.31354 18.9807 3.7312C18.8642 2.33357 17.816 1.40182 16.4184 1.16888C16.3019 1.16888 16.4184 1.16888 16.4184 1.16888Z" fill="#F1F3F9"/>
<path d="M16.4184 1.16888C14.9043 0.935944 13.5067 1.75123 13.0408 3.14885C12.9243 3.49826 12.6914 4.08061 12.6914 4.66295C12.342 7.57468 13.2737 10.137 15.0207 10.3699C16.7678 10.6029 18.5148 8.38996 18.9807 5.71117C18.9807 4.89589 18.9807 4.31354 18.9807 3.7312C18.8642 2.33357 17.816 1.40182 16.4184 1.16888ZM16.4184 1.16888C16.4184 1.16888 16.3019 1.16888 16.4184 1.16888Z" stroke="#D6DCE8" stroke-width="2" stroke-miterlimit="10"/>
<path d="M85.4845 89.3359H84.0869C84.6692 90.7335 85.0186 92.9464 85.2516 95.6252C83.621 95.9746 80.5928 95.5087 78.7293 94.1111C78.147 92.0147 77.6811 90.3841 77.2152 89.3359H75.7011C76.0505 89.9182 76.6329 91.7817 77.3317 94.4605C74.7694 96.9064 73.1388 95.9746 68.1306 93.5288C67.6647 93.2958 67.0824 92.9464 66.3836 92.7135C65.2189 91.3159 64.2871 90.1512 63.3554 89.3359H61.1425C62.0742 89.9182 63.3554 91.0829 64.753 92.7135C57.4155 98.304 50.7767 95.8581 47.1662 94.577C46.5839 94.344 46.118 94.2276 45.6521 94.1111C41.6922 92.0147 38.0816 90.3841 35.0534 89.3359H30.3947V89.4524C36.1017 90.3841 49.4956 97.2558 61.4919 105.059V105.176H61.6084C70.6929 111.116 78.9622 117.638 82.1069 122.413L83.2716 122.297V122.413V122.297C83.5045 122.297 83.8539 122.18 84.0869 122.18C84.3198 122.18 84.5527 122.064 84.6692 122.064C84.4363 121.015 83.621 116.823 82.5728 111.698C83.1551 112.047 83.8539 112.397 84.7857 112.397C85.0186 112.397 85.2516 112.397 85.368 112.397C85.2516 116.124 85.1351 119.618 84.9022 122.18C85.368 122.064 85.8339 122.064 86.2998 121.947C86.6492 116.124 87.6974 96.4405 85.4845 89.3359ZM85.2516 97.0228C85.368 98.7699 85.4845 100.633 85.4845 102.497C83.9704 103.196 83.0387 102.38 81.641 100.866C81.1752 100.284 80.5928 99.7016 80.0105 99.3522C79.7775 98.1875 79.4281 97.1393 79.1952 96.0911C81.0587 96.9064 83.5045 97.2558 85.2516 97.0228ZM78.9622 101.332C79.4281 103.545 80.0105 105.991 80.4763 108.437C80.1269 108.437 79.894 108.67 79.661 108.786C79.1952 109.136 78.4964 109.485 76.8658 109.019C76.2834 107.971 75.7011 106.923 75.1188 105.991C74.4199 104.71 73.6047 103.545 73.0223 102.497C75.7011 102.613 77.4481 102.264 78.9622 101.332ZM77.6811 95.9746C78.0305 97.1393 78.2634 98.4205 78.6128 99.8181C77.3317 100.866 75.7011 101.332 72.0906 100.866C70.6929 98.7699 69.4118 96.7899 68.2471 95.1593C72.44 97.2558 74.7694 98.304 77.6811 95.9746ZM51.592 97.3722C52.6402 97.6052 53.6885 97.7216 54.8532 97.7216C58.1143 97.7216 61.7248 96.7899 65.5683 93.8782C67.1989 95.9746 68.9459 98.5369 70.6929 101.332C68.5965 103.312 65.1024 103.545 62.0742 103.778C58.5802 101.449 54.9696 99.3522 51.592 97.3722ZM63.9377 104.943C66.6165 104.71 69.5282 104.244 71.3918 102.497C72.7894 104.71 74.187 107.156 75.5846 109.485C75.0023 110.65 73.8376 110.883 71.2753 110.3C69.0624 108.437 66.5001 106.69 63.9377 104.943ZM73.6047 111.931C74.6529 111.931 75.7011 111.698 76.5164 110.766C78.0305 113.445 79.5446 116.124 80.7093 118.22C78.7293 116.24 76.2835 114.144 73.6047 111.931ZM82.6892 119.385C81.4081 116.939 79.6611 113.678 77.7975 110.533C79.0787 110.65 79.7775 110.184 80.3599 109.951C80.4763 109.951 80.4763 109.834 80.5928 109.834C80.5928 109.834 80.7093 109.951 80.8257 110.067C81.5246 113.212 82.1069 116.473 82.6892 119.385ZM85.368 110.766C84.0869 111.116 83.0386 110.417 82.1069 109.485C81.641 106.923 81.0587 104.36 80.4763 101.798L80.5928 101.915C81.7575 103.196 83.2716 104.71 85.4845 104.127C85.4845 106.224 85.4845 108.553 85.368 110.766Z" fill="#D6DCE8"/>
<path d="M123.826 108.635C126.091 108.635 127.926 106.799 127.926 104.535C127.926 102.271 126.091 100.435 123.826 100.435C121.562 100.435 119.726 102.271 119.726 104.535C119.726 106.799 121.562 108.635 123.826 108.635Z" fill="#F1F3F9"/>
<path d="M116.246 21.4534C117.792 21.4534 119.046 20.1998 119.046 18.6534C119.046 17.107 117.792 15.8534 116.246 15.8534C114.699 15.8534 113.446 17.107 113.446 18.6534C113.446 20.1998 114.699 21.4534 116.246 21.4534Z" fill="#F1F3F9"/>
<path d="M10.6687 107.333C13.5406 107.333 15.8687 105.005 15.8687 102.133C15.8687 99.261 13.5406 96.9329 10.6687 96.9329C7.79681 96.9329 5.46869 99.261 5.46869 102.133C5.46869 105.005 7.79681 107.333 10.6687 107.333Z" fill="#F1F3F9"/>
</svg>
