<svg width="137" height="124" viewBox="0 0 137 124" fill="none" xmlns="http://www.w3.org/2000/svg">
<path d="M70.8781 122.196C104.027 122.196 130.901 95.3212 130.901 62.0539C130.901 28.7866 104.027 1.91235 70.8781 1.91235C37.7292 1.91235 10.8549 28.7866 10.8549 62.0539C10.8549 95.3212 37.7292 122.196 70.8781 122.196Z" fill="#F1F3F9" stroke="#D6DCE8" stroke-width="2" stroke-miterlimit="10"/>
<path d="M26.719 30.207H112.077C115.511 30.207 118.115 32.8116 118.115 36.2449V90.3486C118.115 93.7819 115.511 96.3865 112.077 96.3865H26.719C23.2857 96.3865 20.6811 93.7819 20.6811 90.3486V36.2449C20.6811 32.8116 23.5225 30.207 26.719 30.207Z" fill="#F1F3F9" stroke="#D6DCE8" stroke-width="2" stroke-miterlimit="10"/>
<path d="M101.752 36.2407L102.477 94.6515C102.477 96.6469 100.845 98.1888 98.8493 98.1888H41.8897C39.8943 98.1888 38.2617 96.5562 38.2617 94.6515V19.5519C38.2617 17.5565 39.8943 16.0146 41.8897 16.0146H83.1582L101.752 36.2407Z" fill="white" stroke="#D6DCE8" stroke-width="2" stroke-miterlimit="10"/>
<path d="M75.1766 28.2593H47.8759C47.241 28.2593 46.6968 27.7151 46.6968 27.0802C46.6968 26.4453 47.241 25.9011 47.8759 25.9011H75.1766C75.8115 25.9011 76.3557 26.4453 76.3557 27.0802C76.3557 27.7151 75.8115 28.2593 75.1766 28.2593Z" fill="#D6DCE8"/>
<path d="M58.3971 34.7898H47.8759C47.241 34.7898 46.6968 34.2456 46.6968 33.6107C46.6968 32.9758 47.241 32.4316 47.8759 32.4316H58.3064C58.9413 32.4316 59.4855 32.9758 59.4855 33.6107C59.4855 34.2456 58.9413 34.7898 58.3971 34.7898Z" fill="#D6DCE8"/>
<path d="M83.1582 16.0146V32.1592C83.1582 34.4267 85.1536 36.2407 87.4211 36.2407H101.752" fill="#D6DCE8"/>
<path d="M94.1521 48.582H84.2544H81.8012H48.2169C47.7939 48.582 47.3709 49.0059 47.3709 49.5993C47.3709 50.108 47.7093 50.6166 48.2169 50.6166H81.8012H84.2544H94.0675C94.6597 50.6166 94.998 50.1928 94.998 49.5993C94.998 49.0907 94.6597 48.582 94.1521 48.582Z" fill="#D6DCE8"/>
<path d="M119.773 64.8954V91.5329C119.773 94.9662 117.05 97.8075 113.498 97.8075H25.7719C22.3386 97.8075 19.4973 94.9662 19.4973 91.5329V62.646" stroke="#1676EE" stroke-width="3" stroke-linecap="round" stroke-linejoin="round"/>
<path d="M112.314 49.978H84.6112C81.8882 49.978 79.2837 50.9251 77.2711 52.5826L70.0493 58.502C68.0367 60.1595 65.4322 61.1066 62.7092 61.1066H31.4545C28.258 61.1066 25.6535 63.7112 25.6535 66.9077C25.6535 67.1444 25.6535 67.4996 25.7719 67.7364L31.5729 98.2807C32.0465 101.122 34.4143 103.253 37.374 103.253H104.264C107.105 103.253 109.591 101.24 110.065 98.3991L118.115 56.6078C118.707 53.4113 116.576 50.57 113.38 49.978C112.906 49.978 112.551 49.978 112.314 49.978Z" fill="white"/>
<path d="M124.745 41.8093H88.7548C85.2032 41.8093 81.8883 42.9932 79.1653 45.2426L69.6942 52.9379C67.0896 55.0689 63.6564 56.3712 60.1047 56.3712H19.3789C15.2353 56.3712 11.9204 59.8044 11.9204 63.8297C11.9204 64.1848 11.9204 64.54 12.0388 64.8952L19.4973 104.792C20.0892 108.581 23.2857 111.304 26.9558 111.304H114.09C117.879 111.304 120.957 108.699 121.549 104.911L132.085 50.3333C132.796 46.1897 130.073 42.5196 125.929 41.6909C125.574 41.8093 125.1 41.8093 124.745 41.8093Z" fill="white" stroke="#D6DCE8" stroke-width="2" stroke-miterlimit="10"/>
<path d="M132.129 37.8016C134.393 37.8016 136.229 35.9659 136.229 33.7016C136.229 31.4372 134.393 29.6016 132.129 29.6016C129.864 29.6016 128.029 31.4372 128.029 33.7016C128.029 35.9659 129.864 37.8016 132.129 37.8016Z" fill="#F1F3F9"/>
<path d="M128.029 24.5019C129.575 24.5019 130.829 23.2483 130.829 21.7019C130.829 20.1555 129.575 18.9019 128.029 18.9019C126.482 18.9019 125.229 20.1555 125.229 21.7019C125.229 23.2483 126.482 24.5019 128.029 24.5019Z" fill="#F1F3F9"/>
<path d="M11.6288 33.7016C13.1752 33.7016 14.4288 32.448 14.4288 30.9016C14.4288 29.3552 13.1752 28.1016 11.6288 28.1016C10.0824 28.1016 8.8288 29.3552 8.8288 30.9016C8.8288 32.448 10.0824 33.7016 11.6288 33.7016Z" fill="#F1F3F9"/>
<path d="M5.32878 95.3019C8.20066 95.3019 10.5288 92.9737 10.5288 90.1019C10.5288 87.23 8.20066 84.9019 5.32878 84.9019C2.4569 84.9019 0.128784 87.23 0.128784 90.1019C0.128784 92.9737 2.4569 95.3019 5.32878 95.3019Z" fill="#F1F3F9"/>
<path d="M123.545 119.112L106.152 101.753C87.7925 115.254 62.6205 102.09 62.6205 80.0539C62.6205 65.0576 74.8442 52.9062 89.8217 52.9062C111.467 52.9062 124.753 77.209 112.143 95.5807L129.633 113.036C131.324 114.724 131.324 117.424 129.633 119.112C127.942 120.8 125.236 120.8 123.545 119.112ZM89.8217 61.5376C79.579 61.5376 71.2206 69.8796 71.2206 80.1022C71.2206 96.5451 90.933 104.453 102.239 93.893C115.042 81.9345 106.49 61.5376 89.8217 61.5376Z" fill="#D6DCE8" stroke="#AAB2C5" stroke-width="2" stroke-miterlimit="10"/>
<path d="M87.9374 84.1527C87.8891 83.7669 87.8408 83.3812 87.8408 82.9472C87.8408 81.356 88.5172 79.9094 90.2082 78.6557L91.6577 77.5948C92.5756 76.9197 92.9622 76.1482 92.9622 75.2321C92.9622 73.8819 91.9959 72.58 89.9666 72.58C87.8408 72.58 86.9228 74.2677 86.9228 75.9553C86.9228 76.2929 86.9711 76.6304 87.0194 76.9197L83.2509 76.7751C83.1543 76.3411 83.106 75.8589 83.106 75.4249C83.106 72.1942 85.5217 69.1082 89.9183 69.1082C94.5565 69.1082 96.9723 72.0013 96.9723 75.0392C96.9723 77.4019 95.7644 79.0414 94.0251 80.2951L92.8172 81.1631C91.7543 81.8864 91.2228 82.8508 91.2228 84.0563V84.2491H87.9374V84.1527ZM89.6284 86.0815C90.9329 86.0815 91.9959 87.1423 91.9959 88.4442C91.9959 89.7462 90.9329 90.807 89.6284 90.807C88.3239 90.807 87.261 89.7462 87.261 88.4442C87.261 87.1423 88.3239 86.0815 89.6284 86.0815Z" fill="#989FB0"/>
</svg>
