<svg width="146" height="128" viewBox="0 0 146 128" fill="none" xmlns="http://www.w3.org/2000/svg">
<path d="M132.347 69.0662C132.347 90.2635 120.584 109.132 104.045 118.566C104.045 118.566 103.929 118.682 103.812 118.682C101.716 119.963 99.0372 121.128 97.8725 121.71H97.756C96.8243 122.06 91.2338 124.389 90.302 124.389C90.1855 124.389 90.0691 124.389 90.0691 124.505C89.9526 124.505 89.8361 124.505 89.7197 124.622C87.2738 125.321 83.7798 125.903 83.0809 126.02C83.0809 126.369 72.3658 127.417 63.2812 125.437C62.1165 125.437 54.6625 123.457 48.1402 120.196C29.7381 110.646 17.043 91.3118 17.043 69.0662C17.043 37.2702 42.8991 11.5305 74.6952 11.5305C106.608 11.5305 132.347 37.2702 132.347 69.0662Z" fill="#F1F3F9" stroke="#D6DCE8" stroke-width="2" stroke-miterlimit="10"/>
<path d="M92.1655 92.593V123.923C92.049 123.923 90.5349 124.506 90.4185 124.506C90.302 124.506 90.1855 124.506 90.1855 124.622C90.0691 124.622 89.9526 124.622 89.8361 124.738C87.3903 125.437 83.8962 126.02 83.1974 126.136V92.593H92.1655Z" fill="#4988FD"/>
<path d="M92.1655 92.593V123.923C92.049 123.923 90.5349 124.506 90.4185 124.506C90.302 124.506 90.1855 124.506 90.1855 124.622C90.0691 124.622 89.9526 124.622 89.8361 124.738C87.3903 125.437 83.8962 126.02 83.1974 126.136V92.593H92.1655Z" fill="white" stroke="#D6DCE8" stroke-width="2" stroke-miterlimit="10"/>
<path d="M100.318 92.593V120.662C99.736 121.011 98.6877 121.361 97.8725 121.827H97.756C96.2419 122.526 94.4949 123.224 91.4667 124.156V92.7095H100.318V92.593Z" fill="#2767F4"/>
<path d="M100.318 92.593V120.662C99.736 121.011 98.6877 121.361 97.8725 121.827H97.756C96.2419 122.526 94.4949 123.224 91.4667 124.156V92.7095H100.318V92.593Z" fill="white" stroke="#D6DCE8" stroke-width="2" stroke-miterlimit="10"/>
<path d="M136.773 57.4193V93.0588H108.937V93.1753H53.1484V29.1173H106.142C106.841 29.0009 107.539 29.0009 108.355 29.0009C109.286 29.0009 110.102 29.0009 111.033 29.1173C112.198 29.2338 113.246 29.3503 114.295 29.5832C119.769 30.7479 124.66 33.5431 128.387 37.2702C133.628 42.5113 136.773 49.6159 136.773 57.4193Z" fill="white" stroke="#D6DCE8" stroke-width="2" stroke-miterlimit="10"/>
<path d="M127.106 66.3875C130.717 66.3875 133.745 63.5923 133.745 59.9817C133.745 56.3712 130.833 53.5759 127.106 53.5759C123.496 53.5759 120.467 56.3712 120.467 59.9817C120.467 63.5923 123.379 66.3875 127.106 66.3875Z" fill="#D5DAE8"/>
<path d="M127.456 66.3875C130.95 66.3875 133.861 63.5923 133.861 59.9817C133.861 56.3712 130.95 53.5759 127.456 53.5759C123.962 53.5759 121.05 56.3712 121.05 59.9817C121.05 63.5923 123.845 66.3875 127.456 66.3875Z" fill="white" stroke="#D6DCE8" stroke-width="2" stroke-miterlimit="10"/>
<path d="M127.456 62.4275C128.853 62.4275 129.901 61.3792 129.901 59.9816C129.901 58.584 128.853 57.5358 127.456 57.5358C126.058 57.5358 125.01 58.584 125.01 59.9816C125.01 61.3792 126.058 62.4275 127.456 62.4275Z" fill="#D6DCE8"/>
<path d="M80.868 54.6241V93.1754H24.0312V54.6241C24.0312 42.5114 32.6499 32.2621 43.9474 29.6998C45.8109 29.2339 47.6744 29.1174 49.6544 29.1174H55.4778C68.2894 29.1174 78.7716 38.4349 80.7516 50.6642C80.7516 51.8289 80.868 53.2265 80.868 54.6241Z" fill="#AFB6C7" stroke="#D6DCE8" stroke-width="2" stroke-miterlimit="10"/>
<path d="M67.5906 114.955C65.96 117.401 63.98 121.361 62.8153 124.622C62.6989 124.855 62.5824 125.204 62.5824 125.437C61.7671 125.321 60.9518 125.088 60.1366 124.855C59.4377 123.224 58.9719 121.477 58.9719 121.477C59.4377 120.895 59.7871 120.429 60.253 119.963C62.4659 117.284 64.7953 115.421 67.5906 114.955Z" fill="#C1C8D7"/>
<path d="M63.2812 125.554C63.0482 125.554 62.8153 125.437 62.5824 125.437C61.7671 125.321 60.9518 125.088 60.1365 124.855C59.5542 124.738 59.0883 124.505 58.5059 124.389C58.273 124.273 58.0401 124.273 57.8071 124.156C57.5742 124.04 57.3413 124.04 56.9918 123.923C53.9637 122.991 51.0519 121.71 48.2567 120.313C45.3449 115.421 43.7144 109.481 40.9191 101.212C40.9191 101.095 40.9191 101.095 40.8027 100.979C40.8027 100.979 41.0356 100.979 41.6179 101.212C41.9673 101.445 42.5497 101.678 43.2485 102.143C44.6461 103.075 46.859 104.706 50.1202 107.385C54.1966 110.762 57.6907 115.77 60.1365 119.847C61.1847 121.71 62.1165 123.341 62.8153 124.622C63.0482 124.855 63.1647 125.204 63.2812 125.554Z" fill="#D5DAE8"/>
<path d="M58.506 124.273C58.273 124.156 58.0401 124.156 57.8072 124.04C57.5742 123.923 57.3413 123.923 56.9919 123.807C51.6343 113.092 45.5779 106.22 42.0839 102.26C41.7345 101.794 41.385 101.445 41.0356 101.095C41.0356 100.979 41.0356 100.979 40.9192 100.862C40.9192 100.862 41.1521 100.862 41.7345 101.095C42.0839 101.328 42.6662 101.561 43.365 102.027C46.9756 106.22 53.1484 113.324 58.506 124.273Z" fill="#EAEEF9"/>
<path d="M112.897 99.2317C112.897 99.2317 112.78 99.4646 112.548 99.9305C111.15 102.493 106.491 110.995 104.278 118.449C104.162 118.449 104.162 118.566 104.045 118.566C104.045 118.566 103.929 118.682 103.812 118.682C101.716 119.963 99.0371 121.128 97.8725 121.71H97.756C94.2619 123.341 90.5349 124.389 90.302 124.389C92.049 118.682 94.6113 113.557 98.2219 109.248C98.9207 108.433 99.6195 107.617 100.318 106.919C100.435 106.802 100.551 106.686 100.668 106.569C103.696 103.541 106.841 101.561 109.869 100.28C110.218 100.163 110.568 99.9305 110.917 99.814C111.266 99.5811 111.849 99.4646 112.431 99.2317C112.664 99.3482 112.78 99.2317 112.897 99.2317Z" fill="#D5DAE8"/>
<path d="M112.78 98.9988C112.78 98.9988 112.664 99.1153 112.548 99.4647C112.548 99.5812 112.431 99.5812 112.431 99.6977C106.375 105.055 101.599 114.023 98.5713 121.477C98.3383 121.594 98.1054 121.71 97.8725 121.827H97.756C97.523 121.943 97.1736 122.06 96.9407 122.176C97.0572 121.943 97.1736 121.827 97.1736 121.827C98.6877 118.1 102.764 107.501 109.869 100.396C110.102 100.164 110.335 99.9306 110.568 99.6977C111.383 99.4647 112.082 99.2318 112.78 98.9988Z" fill="#EAEEF9"/>
<path d="M81.2174 89.099V93.1754H3.5326C2.36791 93.1754 1.43616 92.2437 1.43616 91.1954C1.43616 90.0308 2.36791 89.099 3.5326 89.099H81.2174Z" fill="#F1F3F9" stroke="#D6DCE8" stroke-width="2" stroke-miterlimit="10"/>
<path d="M129.125 29.4141L129.125 60.0454C129.125 60.9772 128.427 61.676 127.495 61.676C126.563 61.676 125.864 60.9772 125.864 60.0454L125.864 29.4141L129.125 29.4141Z" fill="white" stroke="#D6DCE8" stroke-width="2" stroke-miterlimit="10"/>
<path d="M144.732 28.3659C145.198 28.7153 144.965 29.5306 144.266 29.5306L129.242 29.5306L125.748 29.5306L125.748 16.9519L144.266 16.9519C144.849 16.9519 145.198 17.6507 144.732 18.1166L139.841 22.193C139.142 22.7754 139.142 23.8236 139.841 24.4059L144.732 28.3659Z" fill="white" stroke="#D6DCE8" stroke-width="2" stroke-miterlimit="10"/>
<path d="M123.752 112.475C126.017 112.475 127.852 110.639 127.852 108.375C127.852 106.11 126.017 104.275 123.752 104.275C121.488 104.275 119.652 106.11 119.652 108.375C119.652 110.639 121.488 112.475 123.752 112.475Z" fill="#F1F3F9"/>
<path d="M10.5945 111.172C13.4663 111.172 15.7945 108.844 15.7945 105.972C15.7945 103.1 13.4663 100.772 10.5945 100.772C7.72258 100.772 5.39446 103.1 5.39446 105.972C5.39446 108.844 7.72258 111.172 10.5945 111.172Z" fill="#F1F3F9"/>
<rect x="22.4789" y="54.8561" width="50.4811" height="34.137" rx="3" fill="white" stroke="#D6DCE8" stroke-width="2"/>
<path d="M44.1395 70.207L23.8067 55.1503C24.1585 54.9623 24.5602 54.8561 24.9867 54.8561H70.4522C70.8787 54.8561 71.2803 54.9623 71.6322 55.1502L51.2994 70.207L51.8945 71.0107L51.2994 70.207C49.1726 71.782 46.2663 71.782 44.1395 70.207L43.6411 70.88L44.1395 70.207Z" fill="#F1F3F9" stroke="#D6DCE8" stroke-width="2"/>
<path d="M123.064 12.7046L118.74 1.28979" stroke="#D6DCE8" stroke-width="2.5"/>
<path d="M120.294 16.9702L111.56 13.9436" stroke="#D6DCE8" stroke-width="2.5"/>
<path d="M128.174 10.975L129.125 2.06799" stroke="#D6DCE8" stroke-width="2.5"/>
</svg>
