<svg width="158" height="116" viewBox="0 0 158 116" fill="none" xmlns="http://www.w3.org/2000/svg">
<path d="M74.4455 114.734C102.445 114.734 125.145 92.0343 125.145 63.9343C125.145 35.8343 102.445 13.1343 74.4455 13.1343C46.4455 13.1343 23.7455 35.8343 23.7455 63.9343C23.7455 92.0343 46.4455 114.734 74.4455 114.734Z" fill="#F1F3F9" stroke="#D6DCE8" stroke-width="2" stroke-miterlimit="10"/>
<path d="M83.8828 43.9018C83.8828 51.25 77.9403 57.1925 70.5282 57.1925C70.4004 57.1925 69.3141 57.1925 61.3269 57.1925C55.7678 57.1925 46.886 57.1925 32.7006 57.1925H25.9275C17.0457 57.3842 9.953 50.2916 9.953 41.7293C9.953 33.103 17.1096 25.9465 26.1192 26.3938C33.8508 2.24038 69.2502 5.62696 72.2534 30.611C78.8988 31.4417 83.8828 37.0647 83.8828 43.9018Z" fill="white" stroke="#D6DCE8" stroke-width="2" stroke-miterlimit="10"/>
<path d="M72.0617 30.675C71.5506 30.6111 71.0394 30.6111 70.5282 30.6111C67.9084 30.6111 65.4164 31.3779 63.3077 32.7198" fill="white"/>
<path d="M72.0617 30.675C71.5506 30.6111 71.0394 30.6111 70.5282 30.6111C67.9084 30.6111 65.4164 31.3779 63.3077 32.7198" stroke="#D6DCE8" stroke-width="2" stroke-miterlimit="10" stroke-linecap="round"/>
<path d="M26.1192 26.3938C25.3524 28.6941 24.969 31.1222 24.969 33.6782C24.969 34.7005 25.0329 35.659 25.1607 36.6175" fill="white"/>
<path d="M26.1192 26.3938C25.3524 28.6941 24.969 31.1222 24.969 33.6782C24.969 34.7005 25.0329 35.659 25.1607 36.6175" stroke="#D6DCE8" stroke-width="2" stroke-miterlimit="10" stroke-linecap="round" stroke-linejoin="round"/>
<path d="M156.642 79.4553C156.642 87.6252 150.035 94.2321 141.794 94.2321C141.652 94.2321 140.444 94.2321 131.564 94.2321C125.383 94.2321 115.508 94.2321 99.7366 94.2321H92.2061C82.3311 94.4453 74.4454 86.5595 74.4454 77.0398C74.4454 67.4491 82.4022 59.4924 92.4192 59.9897C101.015 33.1356 140.373 36.9008 143.712 64.6785C151.1 65.602 156.642 71.8537 156.642 79.4553Z" fill="white" stroke="#D6DCE8" stroke-width="2" stroke-miterlimit="10"/>
<path d="M143.499 64.7496C142.93 64.6786 142.362 64.6786 141.794 64.6786C138.881 64.6786 136.11 65.5311 133.766 67.023" fill="white"/>
<path d="M143.499 64.7496C142.93 64.6786 142.362 64.6786 141.794 64.6786C138.881 64.6786 136.11 65.5311 133.766 67.023" stroke="#D6DCE8" stroke-width="2" stroke-miterlimit="10" stroke-linecap="round"/>
<path d="M92.4192 59.9897C91.5667 62.5472 91.1404 65.2468 91.1404 68.0885C91.1404 69.2252 91.2115 70.2908 91.3536 71.3565" fill="white"/>
<path d="M92.4192 59.9897C91.5667 62.5472 91.1404 65.2468 91.1404 68.0885C91.1404 69.2252 91.2115 70.2908 91.3536 71.3565" stroke="#D6DCE8" stroke-width="2" stroke-miterlimit="10" stroke-linecap="round" stroke-linejoin="round"/>
<path d="M70.7192 96.6205C70.7192 100.988 67.1876 104.519 62.7825 104.519C62.7066 104.519 62.061 104.519 57.3142 104.519C54.0105 104.519 48.7321 104.519 40.3018 104.519H36.2765C30.9981 104.633 26.783 100.418 26.783 95.3294C26.783 90.2029 31.0361 85.9498 36.3904 86.2156C40.9853 71.8613 62.0231 73.874 63.8078 88.7219C67.7572 89.2156 70.7192 92.5573 70.7192 96.6205Z" fill="white" stroke="#D6DCE8" stroke-width="2" stroke-miterlimit="10"/>
<path d="M63.6939 88.76C63.3901 88.722 63.0863 88.722 62.7825 88.722C61.2256 88.722 59.7446 89.1777 58.4915 89.9751" fill="white"/>
<path d="M63.6939 88.76C63.3901 88.722 63.0863 88.722 62.7825 88.722C61.2256 88.722 59.7446 89.1777 58.4915 89.9751" stroke="#D6DCE8" stroke-width="2" stroke-miterlimit="10" stroke-linecap="round"/>
<path d="M36.3904 86.2156C35.9348 87.5827 35.7069 89.0257 35.7069 90.5447C35.7069 91.1523 35.7449 91.7219 35.8208 92.2915" fill="white"/>
<path d="M36.3904 86.2156C35.9348 87.5827 35.7069 89.0257 35.7069 90.5447C35.7069 91.1523 35.7449 91.7219 35.8208 92.2915" stroke="#D6DCE8" stroke-width="2" stroke-miterlimit="10" stroke-linecap="round" stroke-linejoin="round"/>
<path d="M70.8029 44.8735L64.208 50.1891C62.9783 51.1063 61.3726 50.4526 60.9966 48.8818L58.7951 33.6305" fill="#D6DCE8"/>
<path d="M133.831 6.32642L129.594 10.2472L85.2464 51.5888C83.2256 53.5258 80.1004 53.4435 78.0169 51.6585L62.0847 36.9951L58.8889 34.0231L50.0769 25.752C48.1891 23.9202 49.0506 20.5999 51.6432 20.1869L124.534 8.13672L133.831 6.32642Z" fill="#F1F3F9" stroke="#D6DCE8" stroke-width="2" stroke-miterlimit="10"/>
<path d="M133.831 6.32652L129.594 10.2473L62.2337 36.7519L58.842 33.8268L124.683 7.89359L133.831 6.32652Z" fill="#D6DCE8"/>
<path d="M11.0383 89.5868L8.21408 91.991C7.68661 92.4069 6.97608 92.1397 6.79303 91.4565L5.65013 84.8067" fill="#D6DCE8"/>
<path d="M38.1734 71.9733L36.3648 73.7393L17.4394 92.3564C16.5776 93.228 15.2087 93.2287 14.2757 92.4719L7.12964 86.2407L5.69585 84.9774L1.74148 81.4607C0.893663 80.681 1.23172 79.2176 2.36168 79.0063L34.1251 72.875L38.1734 71.9733Z" fill="#F1F3F9" stroke="#D6DCE8" stroke-width="2" stroke-miterlimit="10"/>
<path d="M38.1734 71.9734L36.3648 73.7395L7.19192 86.1326L5.67296 84.8922L34.1874 72.7669L38.1734 71.9734Z" fill="#D6DCE8"/>
<path d="M66.0616 100.09L60.8904 104.492C59.9246 105.254 58.6236 104.764 58.2885 103.513L56.1958 91.3375" fill="#D6DCE8"/>
<path d="M115.746 67.8395L112.435 71.0731L77.782 105.161C76.2042 106.757 73.6976 106.758 71.9893 105.373L58.9048 93.9634L56.2795 91.6502L49.039 85.2109C47.4866 83.7834 48.1056 81.1038 50.1746 80.717L108.334 69.4905L115.746 67.8395Z" fill="#F1F3F9" stroke="#D6DCE8" stroke-width="2" stroke-miterlimit="10"/>
<path d="M115.747 67.8396L112.435 71.0732L59.0189 93.7653L56.2376 91.494L108.448 69.2924L115.747 67.8396Z" fill="#D6DCE8"/>
</svg>
