<svg width="123" height="108" viewBox="0 0 123 108" fill="none" xmlns="http://www.w3.org/2000/svg">
<path d="M23.389 55.479C24.2437 57.3438 24.9237 58.5288 25.487 59.267" stroke="black"/>
<path d="M65.8643 106.627C93.8643 106.627 116.564 83.9267 116.564 55.8267C116.564 27.7267 93.7642 5.02673 65.8643 5.02673C37.8643 5.02673 15.1642 27.7267 15.1642 55.8267C15.1642 83.9267 37.8643 106.627 65.8643 106.627Z" fill="#F1F3F9" stroke="#D6DCE8" stroke-width="2" stroke-miterlimit="10"/>
<path d="M113.264 22.5268C115.529 22.5268 117.364 20.6912 117.364 18.4268C117.364 16.1624 115.529 14.3268 113.264 14.3268C111 14.3268 109.164 16.1624 109.164 18.4268C109.164 20.6912 111 22.5268 113.264 22.5268Z" fill="#F1F3F9"/>
<path d="M119.264 6.52676C120.811 6.52676 122.064 5.27316 122.064 3.72676C122.064 2.18036 120.811 0.926758 119.264 0.926758C117.718 0.926758 116.464 2.18036 116.464 3.72676C116.464 5.27316 117.718 6.52676 119.264 6.52676Z" fill="#F1F3F9"/>
<path d="M17.8643 22.4268C19.4107 22.4268 20.6643 21.1732 20.6643 19.6268C20.6643 18.0804 19.4107 16.8268 17.8643 16.8268C16.3179 16.8268 15.0643 18.0804 15.0643 19.6268C15.0643 21.1732 16.3179 22.4268 17.8643 22.4268Z" fill="#F1F3F9"/>
<path d="M6.0822 82.9549C8.95408 82.9549 11.2822 80.6268 11.2822 77.7549C11.2822 74.883 8.95408 72.5549 6.0822 72.5549C3.21032 72.5549 0.882202 74.883 0.882202 77.7549C0.882202 80.6268 3.21032 82.9549 6.0822 82.9549Z" fill="#F1F3F9"/>
<path d="M119.706 78.5144H104.325C103.597 78.5144 102.974 78.0468 102.766 77.4232C101.259 72.9544 97.9332 71.8631 89.8789 68.6934C89.4113 68.4855 89.3593 67.862 89.827 67.6021C92.1653 66.459 91.7496 65.4717 91.7496 58.6125C91.6457 58.5086 91.5418 58.3527 91.4898 58.2488C90.9702 57.4693 90.6064 56.534 90.5025 55.5986L89.9829 55.3388C88.424 55.7026 88.5279 54.0397 88.1122 50.818C87.9563 49.467 88.1641 49.2071 88.7357 48.9993L89.2554 48.3238C86.1895 41.4646 87.7484 37.1517 90.7623 35.5928C89.775 33.4103 89.723 32.6309 89.723 32.6309C89.723 32.6309 96.1145 33.7221 98.297 33.2544C101.103 32.6828 105.364 33.3583 106.975 37.0477C109.625 38.087 110.664 39.8018 110.924 41.5685C111.288 44.4785 109.677 47.6482 109.365 48.8954C109.417 48.9473 109.417 48.9993 109.469 49.0513C109.885 49.2591 110.041 49.6229 109.885 50.766C109.521 53.8319 109.573 55.7545 108.014 55.2869L106.611 57.7291C106.559 58.0409 106.507 58.1448 106.507 58.3007C106.455 58.7684 106.455 59.6518 106.455 64.7442C106.455 65.3677 106.611 65.9393 106.923 66.407C107.235 66.9786 107.754 67.3943 108.378 67.6541H108.43C112.067 69.161 114.665 70.1483 116.588 70.9278C120.849 72.6426 121.577 73.1103 121.94 75.9682C122.044 77.3712 121.057 78.5144 119.706 78.5144Z" fill="white" stroke="#D6DCE8" stroke-width="2" stroke-miterlimit="10"/>
<path d="M109.26 48.8426C109.416 48.0632 109.052 47.1278 108.74 46.4523C108.688 46.3484 108.636 46.2445 108.584 46.0886C107.389 43.6463 104.635 42.607 102.037 42.5031C95.3857 42.1394 94.7622 43.4385 92.6836 41.5158C93.3072 42.5031 93.4111 44.01 92.3719 45.9327C91.6963 47.2837 90.3453 47.8553 89.1501 48.271C86.1363 41.4119 87.6432 37.0989 90.6571 35.54C89.6698 33.3576 89.6178 32.5781 89.6178 32.5781C89.6178 32.5781 96.0093 33.6694 98.1918 33.2017C100.998 32.6301 105.259 33.3056 106.87 36.995C109.52 38.0343 110.559 39.7491 110.819 41.5158C111.235 44.4258 109.572 47.5955 109.26 48.8426Z" fill="#D6DCE8"/>
<path d="M91.6844 58.5129C91.9962 59.0845 92.164 58.9755 92.6317 59.3912L97.4643 62.7688C98.6075 63.7041 100.218 63.7561 101.362 62.8208L105.882 58.7676C106.038 58.6117 106.257 58.1888 106.413 58.033" stroke="#D6DCE8" stroke-width="2" stroke-miterlimit="10"/>
<path d="M40.2007 66.9259C37.7065 66.8739 37.4466 66.4063 37.4466 66.4063V62.2492C40.0968 60.0667 42.3312 57.5205 42.9547 54.1949C44.6176 53.8311 45.6568 52.3242 45.5009 50.6614C45.449 49.9339 44.9813 49.2584 44.9293 48.4789C44.9293 48.1152 44.9293 47.7514 44.9293 47.3877C44.9293 47.1279 44.9294 46.92 44.8774 46.6602C44.8774 46.4004 44.8254 46.1406 44.8254 45.8808C44.6695 44.6336 44.3578 43.3346 43.5263 41.8276C41.4478 37.9304 37.3427 35.3322 32.718 35.3322C31.7826 35.3322 30.8473 35.4361 29.9639 35.644C28.3011 36.0077 26.7942 36.7352 25.4431 37.7745C25.1833 37.9823 24.9235 38.1902 24.6637 38.398C24.6117 38.45 24.5597 38.502 24.4558 38.5539C23.0008 39.905 21.8577 41.6198 21.2341 43.5424C20.6105 45.4651 20.4546 47.4397 20.7145 49.4143C20.7145 49.4662 20.7145 49.5182 20.7145 49.5702C20.7145 49.6221 20.7145 49.6741 20.7145 49.726C20.7664 50.0898 20.8704 50.0378 20.6105 50.3496C20.5586 50.4535 20.4546 50.5575 20.4027 50.7133C20.0909 51.2849 19.8311 52.0644 20.1948 52.9997C20.8184 54.7665 22.0655 54.5067 23.2087 55.494C23.1567 55.5459 23.0528 55.5979 23.0008 55.5979H22.9489L21.6498 56.0136C13.8553 58.4559 12.9719 66.718 20.9743 68.225C20.4027 68.2769 19.883 68.5887 19.5193 68.8485C16.9731 70.8231 15.3622 73.837 14.9465 76.7989C14.7906 77.6823 15.5181 78.5137 16.4535 78.5137H28.8207C29.0805 78.5137 29.3404 78.3058 29.4443 78.046C30.5875 73.889 33.1856 72.434 38.5898 70.2515L41.7076 69.0044C42.2273 68.7966 42.7989 68.5887 43.4224 68.3289C43.994 68.121 43.942 67.2896 43.3185 67.1337C42.6949 66.9779 42.0714 66.9259 41.4478 66.8739C40.9282 66.9259 40.5125 66.9259 40.2007 66.9259ZM24.3519 61.6256C24.3519 61.106 24.7156 60.5344 25.4951 59.9108C25.8069 60.3266 26.2226 60.7942 26.6902 61.2099C27.054 61.5217 27.4177 61.8335 27.8334 62.1453C28.0932 62.3012 28.3531 62.509 28.6129 62.7169C28.6648 62.7688 28.7168 62.8208 28.7688 62.8208C28.8207 62.8728 28.9247 62.9247 28.9766 62.9767V65.5229C28.9247 65.4709 28.8727 65.419 28.8207 65.419C28.5609 65.2111 28.3531 65.0033 28.1452 64.8474C27.7815 64.5875 27.4177 64.3797 27.054 64.1718C26.8981 64.0679 26.7942 64.0159 26.6902 63.912C25.4951 63.1326 24.4039 62.4051 24.3519 61.6256Z" fill="white" stroke="#D6DCE8" stroke-width="2" stroke-miterlimit="10"/>
<path d="M28.934 62.9194C31.1164 64.0106 33.6014 64.4836 37.4986 62.1973" stroke="#D6DCE8" stroke-width="2" stroke-miterlimit="10"/>
<path d="M44.8254 46.6602C42.591 47.4396 40.2007 47.7514 37.8104 47.5436C34.069 47.2318 30.4316 45.7248 27.6256 43.2306C26.6902 45.9327 24.3519 47.9593 21.7018 49.1544C21.338 49.3103 20.9743 49.4662 20.6105 49.5701C20.6105 49.5182 20.6105 49.4662 20.6105 49.4662C20.3507 47.4916 20.5066 45.517 21.1302 43.5944C21.7537 41.6717 22.8969 39.9569 24.3519 38.6059C24.4039 38.5539 24.4558 38.502 24.5598 38.45C24.8196 38.2421 25.0794 38.0343 25.3392 37.8264C26.6902 36.8391 28.2491 36.1116 29.86 35.6959C30.7953 35.4881 31.6787 35.3842 32.6141 35.3842C37.2388 35.3842 41.3439 37.9823 43.4224 41.8796C44.2019 43.3865 44.5656 44.6856 44.7215 45.8807C44.8254 46.1406 44.8254 46.4004 44.8254 46.6602Z" fill="#D6DCE8"/>
<path d="M30.5355 73.2135C29.5482 74.4606 27.6776 74.5125 26.1187 74.4606C27.7815 72.8497 26.8461 67.6014 21.0263 68.225H20.9743C12.972 66.718 13.8553 58.4559 21.5979 56.0136L22.8969 55.5979C23.0009 55.6499 23.0528 55.7018 23.1048 55.8058C23.7284 57.4166 24.5598 58.7677 25.4431 59.8589C22.2734 62.509 26.6903 63.3404 28.8208 65.367C30.6914 66.4582 32.2503 71.031 30.5355 73.2135Z" fill="#D6DCE8"/>
<path d="M21.9319 54.6633C25.6811 56.1396 24.021 58.1042 25.5361 59.8913" stroke="#D6DCE8" stroke-width="1.8"/>
<path d="M99.8026 80.904C100.062 82.8266 98.5555 84.5934 96.5809 84.5934H35.6799C33.7053 84.5934 32.1984 82.8266 32.4582 80.904C33.0298 76.9028 33.9132 76.0714 39.837 73.6811L41.2919 73.1095C44.046 72.0183 47.6315 70.6672 52.464 68.6407C53.5553 68.173 54.4386 67.3416 54.9063 66.2504C55.1661 65.6788 55.322 65.0032 55.322 64.3277V55.2342C55.1661 55.0263 55.0102 54.8704 54.9063 54.6626C54.1269 53.5194 53.6072 52.1683 53.4513 50.7133L52.6719 50.3496C50.3335 50.9212 50.5414 48.427 49.9178 43.6463C49.658 41.6717 49.9698 41.256 50.8532 40.9443L51.5807 39.9569C47.1118 29.8241 49.3462 23.4846 53.7631 21.2502C52.4121 18.0284 52.3082 16.8853 52.3082 16.8853C52.3082 16.8853 61.7135 18.4442 64.9352 17.8206C69.0403 16.9892 75.3799 17.9765 77.7182 23.4326C81.6154 24.9915 83.1224 27.4338 83.4861 30.1359C84.0577 34.3969 81.6154 39.0736 81.1478 40.8923C81.1997 40.9962 81.1997 41.0482 81.2517 41.1001C81.8753 41.4119 82.0831 41.9316 81.8753 43.6463C81.3037 48.1671 81.4596 50.9732 79.1212 50.3496L77.0427 53.987C76.9388 54.4027 76.9388 54.5586 76.8868 54.8704C76.7829 55.5459 76.8348 56.897 76.8348 64.3277C76.8348 65.2111 77.0946 66.0945 77.5623 66.77C78.0819 67.5494 78.8094 68.225 79.6928 68.5887C79.7448 68.5887 79.7448 68.5887 79.7967 68.6407C85.149 70.8751 88.9942 72.3301 91.8003 73.4213C98.1917 75.9155 99.179 76.695 99.8026 80.904Z" fill="white" stroke="#D6DCE8" stroke-width="2" stroke-miterlimit="10"/>
<path d="M81.1997 40.8923C81.4076 39.7491 80.8879 38.3461 80.4722 37.3588C80.4203 37.2029 80.3164 37.047 80.2644 36.8392C78.4457 33.2017 74.4445 31.7468 70.5992 31.5389C60.7782 31.0193 59.8948 32.8899 56.829 30.0839C57.7643 31.5389 57.8682 33.7733 56.4132 36.5793C55.374 38.5539 53.3994 39.4373 51.6846 40.0089C47.2158 29.8761 49.4502 23.5366 53.867 21.3021C52.4121 18.0284 52.3081 16.8853 52.3081 16.8853C52.3081 16.8853 61.7135 18.4442 64.9352 17.8206C69.0403 16.9892 75.3798 17.9765 77.7182 23.4326C81.6154 24.9915 83.1224 27.4338 83.4861 30.1359C84.1097 34.3449 81.6674 39.0216 81.1997 40.8923Z" fill="#D6DCE8"/>
<path d="M55.374 55.2341C55.2181 55.0263 55.0622 54.8704 54.9583 54.6625V54.1429C55.426 54.9743 56.0495 55.7537 56.829 56.3773L63.9479 61.3658C65.6108 62.7688 68.0011 62.8208 69.7159 61.4697L76.3672 55.4939C76.575 55.2861 76.8348 55.0782 77.0427 54.8704" stroke="#D6DCE8" stroke-width="2" stroke-miterlimit="10"/>
<path d="M83.8612 94.0221C83.5387 95.3928 83.055 96.8441 82.4906 98.0535C80.9586 101.037 78.5398 103.375 75.5565 104.907C72.4927 106.439 68.8644 107.084 65.2361 106.278C56.6895 104.504 51.2068 96.1185 52.9806 87.5719C54.7545 79.0253 63.0592 73.4619 71.6058 75.3164C74.6696 75.9614 77.3304 77.4933 79.588 79.5897C83.3775 83.3792 84.99 88.8619 83.8612 94.0221Z" fill="#D6DCE8" stroke="#AAB2C5" stroke-width="2" stroke-miterlimit="10"/>
<path d="M73.4603 88.4262H70.832V85.7979C70.832 84.5589 69.858 83.4272 68.4613 83.4272C67.2222 83.4272 66.0906 84.4013 66.0906 85.7979V88.4262H63.4624C62.2233 88.4262 61.0917 89.4002 61.0917 90.7969C61.0917 91.4396 61.3207 92.0449 61.7676 92.4917C62.2144 92.9385 62.8197 93.1676 63.4624 93.1676H66.0906V95.7958C66.0906 97.0349 67.0647 98.1665 68.4613 98.1665C69.7004 98.1665 70.832 97.1925 70.832 95.7958V93.1676H73.4603C74.6993 93.1676 75.8309 92.1935 75.8309 90.7969C75.8309 89.4002 74.6993 88.4262 73.4603 88.4262Z" fill="white" stroke="#AAB2C5" stroke-width="2"/>
</svg>
