<svg width="112" height="130" viewBox="0 0 112 130" fill="none" xmlns="http://www.w3.org/2000/svg">
<path d="M110.877 56.0044C110.877 69.4234 106.095 81.629 98.1005 91.1936C88.0362 103.256 72.9042 110.894 55.9163 110.894C39.6422 110.894 25.0812 103.827 15.0169 92.6211C6.38021 82.9138 1.09827 70.0658 1.09827 56.0044C1.09827 25.6689 25.6522 1.11499 55.9877 1.11499C86.3232 1.11499 110.877 25.6689 110.877 56.0044Z" fill="#F1F3F9" stroke="#D6DCE8" stroke-width="2" stroke-miterlimit="10"/>
<path d="M98.1719 91.1936C88.1076 103.256 72.9756 110.894 55.9877 110.894C39.7136 110.894 25.1526 103.827 15.0883 92.6212C16.8014 91.265 18.9427 90.0516 21.5837 88.9809L23.5822 88.1958C27.3653 86.6968 32.2903 84.841 38.9284 82.0573C40.4274 81.4149 41.6408 80.2729 42.2832 78.7739C42.6401 77.9888 42.8542 77.0609 42.8542 76.133V63.7846C42.6401 63.4991 42.4259 63.285 42.2832 62.9995C41.2125 61.4292 40.4987 59.5733 40.2846 57.5748L39.214 57.0751C36.002 57.8603 36.2161 54.4341 35.4309 47.8674C35.074 45.1551 35.5023 44.584 36.7157 44.1558L37.715 42.7996C31.5765 28.8809 34.6458 20.1729 40.7129 17.1036C38.7143 12.6782 38.5716 11.1079 38.5716 11.1079C38.5716 11.1079 51.4909 13.2492 55.9877 12.3927C61.6265 11.2507 70.3346 12.6068 73.5466 20.1015C78.8999 22.2428 81.0413 25.5976 81.4695 29.3092C82.2547 35.1622 78.8999 41.5862 78.2575 44.0844C78.3289 44.2271 78.4003 44.2985 78.4003 44.3699C79.2568 44.7982 79.5423 45.5119 79.2568 47.8674C78.4717 54.0773 78.6858 57.9317 75.4738 57.0751L72.6187 62.0716C72.4759 62.6426 72.4759 62.8567 72.4046 63.285C72.2618 64.2129 72.3332 66.0687 72.3332 76.2757C72.3332 77.4891 72.6901 78.6312 73.3325 79.7018C74.0462 80.7725 75.0455 81.7004 76.3303 82.2001C76.3303 82.2001 76.4017 82.2001 76.4731 82.2714C83.825 85.3407 89.1069 87.3392 92.9613 88.8382C94.9599 89.4806 96.673 90.3371 98.1719 91.1936Z" fill="white"/>
<path d="M78.4003 44.013C78.6858 42.4427 77.972 40.5155 77.401 39.1593C77.3296 38.9452 77.1869 38.7311 77.1155 38.4456C74.6173 33.4491 69.1212 31.4505 63.8392 31.165C50.3489 30.4513 49.1354 33.0208 44.9242 29.1665C46.209 31.165 46.3517 34.2343 44.3531 38.0887C42.9256 40.801 40.2132 42.0144 37.8578 42.7996C31.7193 28.8809 34.7885 20.1729 40.8556 17.1036C38.8571 12.6782 38.7143 11.1079 38.7143 11.1079C38.7143 11.1079 51.6337 13.2492 56.0591 12.3927C61.6979 11.2507 70.406 12.6068 73.618 20.1015C78.9713 22.2428 81.0412 25.5976 81.5409 29.3092C82.326 35.0908 79.0427 41.4434 78.4003 44.013Z" fill="#D6DCE8"/>
<path d="M98.1719 91.1936C88.1076 103.256 72.9756 110.894 55.9877 110.894C39.7136 110.894 25.1526 103.827 15.0883 92.6212C16.8014 91.265 18.9427 90.0516 21.5837 88.9809L23.5822 88.1958C27.3653 86.6968 32.2903 84.841 38.9284 82.0573C40.4274 81.4149 41.6408 80.2729 42.2832 78.7739C42.6401 77.9888 42.8542 77.0609 42.8542 76.133V63.7846C42.6401 63.4991 42.4259 63.285 42.2832 62.9995C41.2125 61.4292 40.4987 59.5733 40.2846 57.5748L39.214 57.0751C36.002 57.8603 36.2161 54.4341 35.4309 47.8674C35.074 45.1551 35.5023 44.584 36.7157 44.1558L37.715 42.7996C31.5765 28.8809 34.6458 20.1729 40.7129 17.1036C38.7143 12.6782 38.5716 11.1079 38.5716 11.1079C38.5716 11.1079 51.4909 13.2492 55.9877 12.3927C61.6265 11.2507 70.3346 12.6068 73.5466 20.1015C78.8999 22.2428 81.0413 25.5976 81.4695 29.3092C82.2547 35.1622 78.8999 41.5862 78.2575 44.0844C78.3289 44.2271 78.4003 44.2985 78.4003 44.3699C79.2568 44.7982 79.5423 45.5119 79.2568 47.8674C78.4717 54.0773 78.6858 57.9317 75.4738 57.0751L72.6187 62.0716C72.4759 62.6426 72.4759 62.8567 72.4046 63.285C72.2618 64.2129 72.3332 66.0687 72.3332 76.2757C72.3332 77.4891 72.6901 78.6312 73.3325 79.7018C74.0462 80.7725 75.0455 81.7004 76.3303 82.2001C76.3303 82.2001 76.4017 82.2001 76.4731 82.2714C83.825 85.3407 89.1069 87.3392 92.9613 88.8382C94.9599 89.4806 96.673 90.3371 98.1719 91.1936Z" stroke="#D6DCE8" stroke-width="2" stroke-miterlimit="10"/>
<path d="M41.9375 62.4604C42.5866 63.6142 43.4834 64.5247 44.5652 65.3901L54.4449 72.241C56.7526 74.1881 60.0699 74.2602 62.4497 72.3852L71.6804 64.092C71.9688 63.8035 72.3148 63.1546 72.6988 61.9518" stroke="#D6DCE8" stroke-width="2" stroke-miterlimit="10"/>
<path d="M77.8106 112.245C77.3962 114.006 76.7747 115.871 76.0497 117.424C74.0816 121.257 70.9741 124.261 67.1416 126.229C63.2054 128.197 58.5442 129.026 53.883 127.99C42.9033 125.711 35.8597 114.938 38.1385 103.959C40.4173 92.9789 51.0863 85.8317 62.066 88.2141C66.0022 89.0428 69.4204 91.0108 72.3207 93.704C77.1891 98.5724 79.2607 105.616 77.8106 112.245Z" fill="#D6DCE8" stroke="#AAB2C5" stroke-width="2" stroke-miterlimit="10"/>
<path d="M64.4484 105.341H60.7872V101.68C60.7872 100.234 59.6525 98.9187 58.0263 98.9187C56.5807 98.9187 55.2654 100.053 55.2654 101.68V105.341H51.6042C50.1586 105.341 48.8433 106.476 48.8433 108.102C48.8433 108.859 49.1125 109.562 49.6282 110.078C50.1439 110.593 50.8468 110.863 51.6042 110.863H55.2654V114.524C55.2654 115.969 56.4001 117.285 58.0263 117.285C59.472 117.285 60.7872 116.15 60.7872 114.524V110.863H64.4484C65.8941 110.863 67.2093 109.728 67.2093 108.102C67.2093 106.476 65.8941 105.341 64.4484 105.341Z" fill="white" stroke="#AAB2C5" stroke-width="2"/>
</svg>
