<svg width="157" height="140" viewBox="0 0 157 140" fill="none" xmlns="http://www.w3.org/2000/svg">
<path d="M93.8293 89.4268H49.1864C47.2828 89.4268 45.7418 87.8858 45.7418 85.9823V24.7512C45.7418 22.8476 47.2828 21.3066 49.1864 21.3066H93.8293C95.7329 21.3066 97.2739 22.8476 97.2739 24.7512V85.9823C97.2739 87.8858 95.7329 89.4268 93.8293 89.4268Z" fill="#F1F3F9" stroke="#D6DCE8" stroke-width="2" stroke-miterlimit="10"/>
<path d="M77.3091 72.9066H65.7065C64.4148 72.9066 63.3724 71.8642 63.3724 70.5725C63.3724 69.2808 64.4148 68.2383 65.7065 68.2383H77.3091C78.6008 68.2383 79.6433 69.2808 79.6433 70.5725C79.6433 71.8642 78.6008 72.9066 77.3091 72.9066Z" fill="#D6DCE8"/>
<path d="M82.6346 77.9601H60.3584C59.6786 77.9601 59.1347 77.4162 59.1347 76.7363C59.1347 76.0565 59.6786 75.5126 60.3584 75.5126H82.6346C83.3144 75.5126 83.8583 76.0565 83.8583 76.7363C83.8583 77.3935 83.3144 77.9601 82.6346 77.9601Z" fill="#D6DCE8"/>
<path d="M86.7363 45.5996C86.7363 50.1772 84.7194 54.2789 81.5242 57.0663C78.8501 59.4004 75.3376 60.8054 71.5078 60.8054C67.678 60.8054 64.1655 59.4004 61.4915 57.0436C58.2962 54.2563 56.2794 50.1546 56.2794 45.577C56.2794 37.1696 63.1004 30.3485 71.5078 30.3485C79.9152 30.3485 86.7363 37.1923 86.7363 45.5996Z" fill="#F1F3F9" stroke="#D6DCE8" stroke-width="2" stroke-miterlimit="10"/>
<path d="M81.5242 57.0663C78.8501 59.4004 75.3376 60.8054 71.5078 60.8054C67.6781 60.8054 64.1655 59.4004 61.4915 57.0436C62.6019 56.6131 64.0522 56.0465 66.0011 55.2534C66.4543 55.0721 66.7943 54.7322 66.9982 54.3016C67.1115 54.0523 67.1568 53.8031 67.1568 53.5311V49.8826C67.0889 49.8147 67.0435 49.724 66.9982 49.656C66.681 49.1801 66.477 48.6363 66.409 48.0697L66.0918 47.9111C65.1626 48.1377 65.2306 47.1406 64.9814 45.2144C64.8907 44.4212 65.004 44.2626 65.3666 44.1266L65.6612 43.7187C63.8483 39.6397 64.7547 37.079 66.545 36.1725C65.9558 34.8808 65.9105 34.4049 65.9105 34.4049C65.9105 34.4049 69.7176 35.0394 71.0093 34.7902C72.6636 34.4502 75.2243 34.8581 76.1761 37.0563C77.7624 37.6681 78.3742 38.6879 78.5102 39.753C78.6462 40.7501 78.3516 41.8378 78.057 42.6763C78.0343 42.7443 78.0117 42.7896 77.989 42.8349C77.989 42.8576 77.9663 42.8803 77.9663 42.9029C77.921 43.0162 77.8983 43.1069 77.853 43.1975C77.8304 43.2429 77.8304 43.2882 77.8077 43.3335C77.785 43.4241 77.7397 43.5148 77.7171 43.5828C77.7171 43.6054 77.7171 43.6054 77.6944 43.6281C77.6717 43.6961 77.6491 43.7641 77.6264 43.8321C77.6037 43.9227 77.5811 43.9907 77.5584 44.0587C77.5811 44.0813 77.5811 44.1266 77.6037 44.1493C77.853 44.2626 77.9437 44.4892 77.853 45.1917C77.6264 47.0273 77.6944 48.1377 76.7426 47.8884L75.9041 49.3388C75.8815 49.4974 75.8588 49.588 75.8362 49.6787C75.8135 49.9506 75.8135 50.4945 75.8135 53.4858C75.8135 53.8484 75.9268 54.1883 76.1081 54.4829C76.312 54.8002 76.6066 55.0721 76.9692 55.2307C76.9692 55.2307 76.9919 55.2307 76.9919 55.2534C78.9634 56.0919 80.4138 56.6357 81.5242 57.0663Z" fill="white" stroke="#D6DCE8" stroke-width="2" stroke-miterlimit="10"/>
<path d="M77.5811 44.0813C77.6491 43.6281 77.4451 43.0389 77.2865 42.6537C77.2638 42.5857 77.2185 42.5177 77.1959 42.4497C76.4707 40.9994 74.8391 40.3875 73.2981 40.2969C69.355 40.0929 68.9698 40.8407 67.746 39.7077C68.1313 40.2742 68.154 41.2033 67.5648 42.3364C67.1569 43.1295 66.3637 43.4921 65.6385 43.7187C63.8256 39.6397 64.7321 37.079 66.5223 36.1725C65.9331 34.8808 65.8878 34.4049 65.8878 34.4049C65.8878 34.4049 69.6949 35.0394 70.9866 34.7902C72.6409 34.4502 75.2016 34.8581 76.1534 37.0563C77.7397 37.6681 78.3516 38.6879 78.4875 39.753C78.7595 41.4526 77.7624 43.3335 77.5811 44.0813Z" fill="url(#paint0_linear)"/>
<path d="M67.1342 49.8826C67.0662 49.8146 67.0209 49.724 66.9755 49.656V49.4294C67.1795 49.7693 67.4288 50.0639 67.7234 50.3358L70.5787 52.3527C71.2359 52.9192 72.2103 52.9192 72.8902 52.3754L75.5642 49.9733C75.6549 49.9053 75.7455 49.8146 75.8361 49.724" stroke="#D6DCE8" stroke-width="2" stroke-miterlimit="10"/>
<path d="M33.1874 78.8892H4.47542C2.57186 78.8892 1.03088 77.3482 1.03088 75.4446V35.2887C1.03088 33.3851 2.57186 31.8441 4.47542 31.8441H33.1874C35.091 31.8441 36.6319 33.3851 36.6319 35.2887V75.4673C36.6319 77.3709 35.091 78.8892 33.1874 78.8892Z" fill="#F1F3F9" stroke="#D6DCE8" stroke-width="2" stroke-miterlimit="10"/>
<path d="M22.8312 67.4906H14.809C13.9252 67.4906 13.2001 66.7654 13.2001 65.8816C13.2001 64.9978 13.9252 64.2726 14.809 64.2726H22.8312C23.7149 64.2726 24.4401 64.9978 24.4401 65.8816C24.4401 66.7654 23.7149 67.4906 22.8312 67.4906Z" fill="#D6DCE8"/>
<path d="M26.525 70.9804H11.1379C10.662 70.9804 10.2994 70.5952 10.2994 70.1419C10.2994 69.666 10.6846 69.3035 11.1379 69.3035H26.525C27.0008 69.3035 27.3634 69.6887 27.3634 70.1419C27.3634 70.5952 26.9782 70.9804 26.525 70.9804Z" fill="#D6DCE8"/>
<path d="M29.335 48.6136C29.335 51.7862 27.93 54.6189 25.7318 56.5451C23.8736 58.154 21.4715 59.1285 18.8201 59.1285C16.1687 59.1285 13.7439 58.154 11.9084 56.5451C9.71021 54.6189 8.3052 51.7862 8.3052 48.6136C8.3052 42.8123 13.0188 38.0987 18.8201 38.0987C24.6214 38.0987 29.335 42.8123 29.335 48.6136Z" fill="#F1F3F9" stroke="#D6DCE8" stroke-width="2" stroke-miterlimit="10"/>
<path d="M25.7318 56.5457C23.8736 58.1547 21.4715 59.1291 18.8201 59.1291C16.1687 59.1291 13.7439 58.1547 11.9084 56.5457C12.6788 56.2511 13.6759 55.8659 15.013 55.2994C15.3302 55.1634 15.5568 54.9368 15.6928 54.6422C15.7608 54.4835 15.8061 54.3023 15.8061 54.0983V51.5829C15.7608 51.5376 15.7155 51.4696 15.6928 51.4243C15.4662 51.107 15.3302 50.7217 15.2849 50.3365L15.0583 50.2232C14.4238 50.3818 14.4691 49.6793 14.2878 48.365C14.2198 47.8211 14.3105 47.7078 14.5371 47.6171L14.741 47.3452C13.4946 44.5125 14.1292 42.7449 15.3529 42.1331C14.945 41.2493 14.9223 40.9094 14.9223 40.9094C14.9223 40.9094 17.551 41.3399 18.4575 41.1813C19.6132 40.9547 21.3582 41.2266 22.0153 42.7449C23.1031 43.1755 23.5336 43.878 23.6243 44.6032C23.7149 45.3057 23.511 46.0308 23.3297 46.62C23.307 46.6654 23.307 46.688 23.2844 46.7333C23.2844 46.756 23.2617 46.756 23.2617 46.7787C23.2391 46.8467 23.2164 46.9146 23.1937 46.9826C23.1711 47.0053 23.1711 47.0506 23.1484 47.0733C23.1257 47.1413 23.1031 47.1866 23.0804 47.2546V47.2772C23.0578 47.3225 23.0351 47.3679 23.0351 47.4132C23.0124 47.4812 22.9898 47.5265 22.9898 47.5718C23.0124 47.5945 23.0124 47.6171 23.0124 47.6398C23.1937 47.7304 23.2391 47.8664 23.1711 48.3423C23.0124 49.6113 23.0578 50.3818 22.4006 50.2005L21.834 51.2203C21.8114 51.3336 21.7887 51.3789 21.7887 51.4696C21.7661 51.6509 21.7661 52.0361 21.7661 54.0983C21.7661 54.3476 21.834 54.5742 21.97 54.7781C22.106 55.0048 22.3099 55.186 22.5592 55.2767H22.5819C23.9869 55.8659 24.984 56.2511 25.7318 56.5457Z" fill="white" stroke="#D6DCE8" stroke-width="2" stroke-miterlimit="10"/>
<path d="M23.0351 47.5712C23.0804 47.2539 22.9444 46.8687 22.8311 46.5741C22.8085 46.5287 22.7858 46.4834 22.7631 46.4381C22.2646 45.441 21.1315 45.0104 20.0664 44.9651C17.3471 44.8291 17.0751 45.3503 16.2367 44.5572C16.5086 44.9651 16.5313 45.577 16.1234 46.3701C15.8288 46.914 15.2849 47.1633 14.809 47.3219C13.5626 44.4892 14.1971 42.7216 15.4208 42.1098C15.0129 41.226 14.9903 40.886 14.9903 40.886C14.9903 40.886 17.619 41.3166 18.5255 41.158C19.6812 40.9314 21.4261 41.2033 22.0833 42.7216C23.171 43.1522 23.6016 43.8547 23.6923 44.5799C23.8282 45.7582 23.1484 47.0499 23.0351 47.5712Z" fill="url(#paint1_linear)"/>
<path d="M22.038 54.8001V55.2987H15.7154V54.6415C15.7834 54.4829 15.8287 54.3016 15.8287 54.0976V51.5822C15.7834 51.5369 15.7381 51.4689 15.7154 51.4236V51.2876C15.8514 51.5142 16.0327 51.7408 16.2366 51.8995L18.2082 53.2818C18.6614 53.667 19.3413 53.6897 19.8172 53.3045L21.6754 51.6502C21.7434 51.6049 21.8114 51.5369 21.8567 51.4689C21.834 51.6502 21.834 52.0354 21.834 54.0976C21.834 54.3469 21.902 54.5962 22.038 54.8001Z" fill="url(#paint2_linear)"/>
<path d="M137.86 78.8892H109.148C107.245 78.8892 105.704 77.3482 105.704 75.4446V35.2887C105.704 33.3851 107.245 31.8441 109.148 31.8441H137.86C139.764 31.8441 141.305 33.3851 141.305 35.2887V75.4673C141.305 77.3709 139.764 78.8892 137.86 78.8892Z" fill="#F1F3F9" stroke="#D6DCE8" stroke-width="2" stroke-miterlimit="10"/>
<path d="M127.504 67.4906H119.482C118.598 67.4906 117.873 66.7654 117.873 65.8816C117.873 64.9978 118.598 64.2726 119.482 64.2726H127.504C128.388 64.2726 129.113 64.9978 129.113 65.8816C129.136 66.7654 128.411 67.4906 127.504 67.4906Z" fill="#D6DCE8"/>
<path d="M131.198 70.9804H115.811C115.335 70.9804 114.972 70.5952 114.972 70.1419C114.972 69.666 115.358 69.3035 115.811 69.3035H131.198C131.674 69.3035 132.036 69.6887 132.036 70.1419C132.036 70.5952 131.674 70.9804 131.198 70.9804Z" fill="#D6DCE8"/>
<path d="M134.031 48.6136C134.031 51.7862 132.626 54.6189 130.427 56.5451C128.569 58.154 126.167 59.1285 123.516 59.1285C120.864 59.1285 118.44 58.154 116.604 56.5451C114.406 54.6189 113.001 51.7862 113.001 48.6136C113.001 42.8123 117.714 38.0987 123.516 38.0987C129.317 38.0987 134.031 42.8123 134.031 48.6136Z" fill="#F1F3F9" stroke="#D6DCE8" stroke-width="2" stroke-miterlimit="10"/>
<path d="M130.427 56.5457C128.569 58.1547 126.167 59.1291 123.516 59.1291C120.864 59.1291 118.44 58.1547 116.604 56.5457C117.374 56.2511 118.372 55.8659 119.709 55.2994C120.026 55.1634 120.252 54.9368 120.388 54.6422C120.456 54.4835 120.502 54.3023 120.502 54.0983V51.5829C120.456 51.5376 120.411 51.4696 120.388 51.4243C120.162 51.107 120.026 50.7217 119.981 50.3365L119.754 50.2232C119.119 50.3818 119.165 49.6793 118.983 48.365C118.915 47.8211 119.006 47.7078 119.233 47.6171L119.437 47.3452C118.19 44.5125 118.825 42.7449 120.049 42.1331C119.641 41.2493 119.618 40.9094 119.618 40.9094C119.618 40.9094 122.247 41.3399 123.153 41.1813C124.309 40.9547 126.054 41.2266 126.711 42.7449C127.799 43.1755 128.229 43.878 128.32 44.6032C128.411 45.3057 128.207 46.0308 128.025 46.62C128.003 46.6654 128.003 46.688 127.98 46.7333C127.98 46.756 127.957 46.756 127.957 46.7787C127.935 46.8467 127.912 46.9146 127.889 46.9826C127.867 47.0053 127.867 47.0506 127.844 47.0733C127.821 47.1413 127.799 47.1866 127.776 47.2546V47.2772C127.753 47.3225 127.731 47.3679 127.731 47.4132C127.708 47.4812 127.685 47.5265 127.685 47.5718C127.708 47.5945 127.708 47.6171 127.708 47.6398C127.889 47.7304 127.935 47.8664 127.867 48.3423C127.708 49.6113 127.753 50.3818 127.096 50.2005L126.53 51.2203C126.507 51.3336 126.484 51.3789 126.484 51.4696C126.462 51.6509 126.462 52.0361 126.462 54.0983C126.462 54.3476 126.53 54.5742 126.666 54.7781C126.802 55.0048 127.006 55.186 127.255 55.2767H127.278C128.66 55.8659 129.657 56.2511 130.427 56.5457Z" fill="white" stroke="#D6DCE8" stroke-width="2" stroke-miterlimit="10"/>
<path d="M127.708 47.5712C127.753 47.2539 127.617 46.8687 127.504 46.5741C127.481 46.5287 127.459 46.4834 127.436 46.4381C126.938 45.441 125.805 45.0104 124.739 44.9651C122.02 44.8291 121.748 45.3503 120.91 44.5572C121.182 44.9651 121.204 45.577 120.796 46.3701C120.502 46.914 119.958 47.1633 119.482 47.3219C118.236 44.4892 118.87 42.7216 120.094 42.1098C119.686 41.226 119.663 40.886 119.663 40.886C119.663 40.886 122.292 41.3166 123.198 41.158C124.354 40.9314 126.099 41.2033 126.756 42.7216C127.844 43.1522 128.275 43.8547 128.365 44.5799C128.501 45.7582 127.844 47.0499 127.708 47.5712Z" fill="url(#paint3_linear)"/>
<path d="M126.711 54.8001V55.2987H120.388V54.6415C120.456 54.4829 120.502 54.3016 120.502 54.0976V51.5822C120.456 51.5369 120.411 51.4689 120.388 51.4236V51.2876C120.524 51.5142 120.706 51.7408 120.91 51.8995L122.881 53.2818C123.334 53.667 124.014 53.6897 124.49 53.3045L126.348 51.6502C126.416 51.6049 126.484 51.5369 126.53 51.4689C126.507 51.6502 126.507 52.0354 126.507 54.0976C126.507 54.3469 126.575 54.5962 126.711 54.8001Z" fill="url(#paint4_linear)"/>
<path d="M132.49 122.104L103.823 93.4605L110.395 86.8887L139.039 115.555L132.49 122.104Z" fill="#D6DCE8" stroke="#AAB2C5" stroke-width="2" stroke-miterlimit="10"/>
<path d="M146.766 136.494L124.785 114.513C122.949 112.677 122.949 109.686 124.785 107.85C126.62 106.015 129.612 106.015 131.447 107.85L153.429 129.832C155.264 131.668 155.264 134.659 153.429 136.494C151.593 138.33 148.602 138.33 146.766 136.494Z" fill="#D6DCE8" stroke="#AAB2C5" stroke-width="2" stroke-miterlimit="10"/>
<path d="M145.203 137.899L116.921 109.618C116.264 108.961 116.264 107.896 116.921 107.216L124.15 99.987C124.807 99.3298 125.873 99.3298 126.552 99.987L154.834 128.268C155.491 128.926 155.491 129.991 154.834 130.67L147.605 137.899C146.925 138.557 145.86 138.557 145.203 137.899Z" fill="#D6DCE8" stroke="#AAB2C5" stroke-width="2" stroke-miterlimit="10"/>
<path d="M71.3719 1.16064C41.3682 1.16064 17.0525 25.4763 17.0525 55.48C17.0525 85.461 41.3682 109.799 71.3492 109.799C101.353 109.799 125.669 85.4837 125.669 55.48C125.669 25.4763 101.353 1.16064 71.3719 1.16064ZM71.3719 99.7377C47.2828 99.7377 27.7713 79.909 27.7713 55.4574C27.7713 31.0057 47.2828 11.1996 71.3719 11.1996C95.4609 11.1996 114.972 31.0284 114.972 55.48C114.972 79.9317 95.4383 99.7377 71.3719 99.7377Z" fill="#D6DCE8" stroke="#AAB2C5" stroke-width="2" stroke-miterlimit="10"/>
<defs>
<linearGradient id="paint0_linear" x1="64.6427" y1="39.2442" x2="78.5368" y2="39.2442" gradientUnits="userSpaceOnUse">
<stop stop-color="#B0BACC"/>
<stop offset="1" stop-color="#969EAE"/>
</linearGradient>
<linearGradient id="paint1_linear" x1="14.1277" y1="44.2293" x2="23.7119" y2="44.2293" gradientUnits="userSpaceOnUse">
<stop stop-color="#B0BACC"/>
<stop offset="1" stop-color="#969EAE"/>
</linearGradient>
<linearGradient id="paint2_linear" x1="18.8786" y1="55.3231" x2="18.8786" y2="53.1134" gradientUnits="userSpaceOnUse">
<stop stop-color="white"/>
<stop offset="1" stop-color="#E2E5EC"/>
</linearGradient>
<linearGradient id="paint3_linear" x1="118.801" y1="44.2293" x2="128.385" y2="44.2293" gradientUnits="userSpaceOnUse">
<stop stop-color="#B0BACC"/>
<stop offset="1" stop-color="#969EAE"/>
</linearGradient>
<linearGradient id="paint4_linear" x1="123.552" y1="55.3231" x2="123.552" y2="53.1134" gradientUnits="userSpaceOnUse">
<stop stop-color="white"/>
<stop offset="1" stop-color="#E2E5EC"/>
</linearGradient>
</defs>
</svg>
