<svg width="122" height="113" viewBox="0 0 122 113" fill="none" xmlns="http://www.w3.org/2000/svg">
<path d="M65.5964 106.251C93.5964 106.251 116.296 83.5505 116.296 55.4505C116.296 27.3505 93.4964 4.65051 65.5964 4.65051C37.5964 4.65051 14.8964 27.3505 14.8964 55.4505C14.8964 83.5505 37.5964 106.251 65.5964 106.251Z" fill="#F1F3F9" stroke="#D6DCE8" stroke-width="2" stroke-miterlimit="10"/>
<path d="M112.996 22.1506C115.261 22.1506 117.096 20.3149 117.096 18.0506C117.096 15.7862 115.261 13.9506 112.996 13.9506C110.732 13.9506 108.896 15.7862 108.896 18.0506C108.896 20.3149 110.732 22.1506 112.996 22.1506Z" fill="#EAEEF9"/>
<path d="M118.996 6.15054C120.543 6.15054 121.796 4.89693 121.796 3.35054C121.796 1.80414 120.543 0.550537 118.996 0.550537C117.45 0.550537 116.196 1.80414 116.196 3.35054C116.196 4.89693 117.45 6.15054 118.996 6.15054Z" fill="#EAEEF9"/>
<path d="M17.5964 22.0506C19.1428 22.0506 20.3964 20.797 20.3964 19.2506C20.3964 17.7042 19.1428 16.4506 17.5964 16.4506C16.05 16.4506 14.7964 17.7042 14.7964 19.2506C14.7964 20.797 16.05 22.0506 17.5964 22.0506Z" fill="#EAEEF9"/>
<path d="M5.81438 82.5787C8.68626 82.5787 11.0144 80.2505 11.0144 77.3787C11.0144 74.5068 8.68626 72.1786 5.81438 72.1786C2.9425 72.1786 0.61438 74.5068 0.61438 77.3787C0.61438 80.2505 2.9425 82.5787 5.81438 82.5787Z" fill="#EAEEF9"/>
<path d="M106.059 88.597H25.1335C21.4128 88.597 18.3898 85.574 18.3898 81.8532V29.996C18.3898 26.2753 21.4128 23.2522 25.1335 23.2522H106.059C109.78 23.2522 112.803 26.2753 112.803 29.996V82.0858C112.57 85.5739 109.547 88.597 106.059 88.597Z" fill="white" stroke="#D6DCE8" stroke-width="2" stroke-miterlimit="10"/>
<rect x="32.4541" y="25.642" width="15.3474" height="5.15288" fill="#F1F3F9" stroke="#D6DCE8" stroke-width="2" stroke-miterlimit="10"/>
<rect x="82.8644" y="25.642" width="14.9953" height="5.15288" fill="#F1F3F9" stroke="#D6DCE8" stroke-width="2" stroke-miterlimit="10"/>
<path d="M45.1323 13.9504H35.1329V28.0157H45.1323V13.9504Z" fill="white" stroke="#D6DCE8" stroke-width="2" stroke-miterlimit="10"/>
<path d="M95.3666 13.9504H85.3672V28.0157H95.3666V13.9504Z" fill="white" stroke="#D6DCE8" stroke-width="2" stroke-miterlimit="10"/>
<path d="M47.6903 58.8314C51.9285 58.8314 55.3642 55.3957 55.3642 51.1575C55.3642 46.9193 51.9285 43.4835 47.6903 43.4835C43.4521 43.4835 40.0164 46.9193 40.0164 51.1575C40.0164 55.3957 43.4521 58.8314 47.6903 58.8314Z" stroke="#9FA8BA" stroke-width="4" stroke-miterlimit="10" stroke-linecap="round" stroke-linejoin="round"/>
<path d="M35.3655 71.3918C35.3655 64.6481 40.9465 59.067 47.6903 59.067C54.4341 59.067 60.0151 64.6481 60.0151 71.3918" stroke="#9FA8BA" stroke-width="4" stroke-miterlimit="10" stroke-linecap="round" stroke-linejoin="round"/>
<path d="M72.805 49.7622H97.6872" stroke="#9FA8BA" stroke-width="4" stroke-miterlimit="10" stroke-linecap="round" stroke-linejoin="round"/>
<path d="M72.805 62.3196H82.5719" stroke="#9FA8BA" stroke-width="4" stroke-miterlimit="10" stroke-linecap="round" stroke-linejoin="round"/>
<path d="M81.0263 98.3983C80.7038 99.769 80.22 101.22 79.6556 102.43C78.1237 105.413 75.7048 107.751 72.7216 109.283C69.6577 110.815 66.0294 111.46 62.4012 110.654C53.8546 108.88 48.3718 100.495 50.1457 91.9481C51.9195 83.4015 60.2242 77.8381 68.7708 79.6926C71.8347 80.3376 74.4954 81.8695 76.753 83.9659C80.5425 87.7554 82.1551 93.2381 81.0263 98.3983Z" fill="#D6DCE8" stroke="#AAB2C5" stroke-width="2" stroke-miterlimit="10"/>
<path d="M70.1181 92.9415H67.8579V90.6813C67.8579 89.5159 66.9411 88.4497 65.6263 88.4497C64.4608 88.4497 63.3946 89.3665 63.3946 90.6813V92.9415H61.1344C59.969 92.9415 58.9028 93.8583 58.9028 95.1732C58.9028 95.7749 59.1175 96.3455 59.5398 96.7678C59.9621 97.1901 60.5327 97.4048 61.1344 97.4048H63.3946V99.665C63.3946 100.83 64.3114 101.897 65.6263 101.897C66.7917 101.897 67.8579 100.98 67.8579 99.665V97.4048H70.1181C71.2835 97.4048 72.3497 96.488 72.3497 95.1732C72.3497 93.8583 71.2835 92.9415 70.1181 92.9415Z" fill="white" stroke="#AAB2C5" stroke-width="2"/>
</svg>
