<svg width="128" height="108" viewBox="0 0 128 108" fill="none" xmlns="http://www.w3.org/2000/svg">
<path d="M122.838 55.5968C122.838 69.7968 117.038 82.5968 107.738 91.7968C98.6377 100.897 86.0377 106.397 72.1377 106.397C58.3377 106.397 45.7377 100.797 36.5377 91.7968C27.2377 82.5968 21.4377 69.7968 21.4377 55.5968C21.4377 27.4968 44.1377 4.79675 72.1377 4.79675C100.138 4.79675 122.838 27.5968 122.838 55.5968Z" fill="#F1F3F9" stroke="#D6DCE8" stroke-width="2" stroke-miterlimit="10"/>
<path d="M118.438 22.2967C120.702 22.2967 122.538 20.4611 122.538 18.1967C122.538 15.9324 120.702 14.0967 118.438 14.0967C116.173 14.0967 114.338 15.9324 114.338 18.1967C114.338 20.4611 116.173 22.2967 118.438 22.2967Z" fill="#F1F3F9"/>
<path d="M124.438 6.29678C125.984 6.29678 127.238 5.04317 127.238 3.49678C127.238 1.95038 125.984 0.696777 124.438 0.696777C122.891 0.696777 121.638 1.95038 121.638 3.49678C121.638 5.04317 122.891 6.29678 124.438 6.29678Z" fill="#F1F3F9"/>
<path d="M23.0377 22.1967C24.5841 22.1967 25.8377 20.9431 25.8377 19.3967C25.8377 17.8503 24.5841 16.5967 23.0377 16.5967C21.4913 16.5967 20.2377 17.8503 20.2377 19.3967C20.2377 20.9431 21.4913 22.1967 23.0377 22.1967Z" fill="#F1F3F9"/>
<path d="M5.93767 76.1968C8.80955 76.1968 11.1377 73.8686 11.1377 70.9968C11.1377 68.1249 8.80955 65.7968 5.93767 65.7968C3.06579 65.7968 0.737671 68.1249 0.737671 70.9968C0.737671 73.8686 3.06579 76.1968 5.93767 76.1968Z" fill="#F1F3F9"/>
<path d="M117.456 26.4795V81.8842C117.456 84.1903 115.61 86.0171 113.347 86.0171H29.8925C27.6297 86.0171 25.754 84.1603 25.754 81.8842V26.4795C25.754 24.2034 27.5999 22.3466 29.8925 22.3466H113.347C115.61 22.3466 117.456 24.2034 117.456 26.4795Z" fill="white" stroke="#D6DCE8" stroke-width="2" stroke-miterlimit="10" stroke-linejoin="round"/>
<path d="M117.456 26.4795V32.6788H25.754V26.4795C25.754 24.2034 27.5999 22.3466 29.8925 22.3466H113.347C115.61 22.3466 117.456 24.2034 117.456 26.4795Z" fill="#D6DCE8"/>
<path d="M31.53 29.055C32.3851 29.055 33.0783 28.3577 33.0783 27.4976C33.0783 26.6375 32.3851 25.9403 31.53 25.9403C30.675 25.9403 29.9818 26.6375 29.9818 27.4976C29.9818 28.3577 30.675 29.055 31.53 29.055Z" fill="#AAB2C5"/>
<path d="M36.5915 29.055C37.4466 29.055 38.1397 28.3577 38.1397 27.4976C38.1397 26.6375 37.4466 25.9403 36.5915 25.9403C35.7364 25.9403 35.0433 26.6375 35.0433 27.4976C35.0433 28.3577 35.7364 29.055 36.5915 29.055Z" fill="#AAB2C5"/>
<path d="M41.6232 29.055C42.4783 29.055 43.1715 28.3577 43.1715 27.4976C43.1715 26.6375 42.4783 25.9403 41.6232 25.9403C40.7682 25.9403 40.075 26.6375 40.075 27.4976C40.075 28.3577 40.7682 29.055 41.6232 29.055Z" fill="#AAB2C5"/>
<path d="M44.8983 70.4139H98.3119" stroke="#D5DDEA" stroke-width="2" stroke-miterlimit="10" stroke-linecap="round" stroke-linejoin="round"/>
<path d="M53.3242 76.1342H89.886" stroke="#D5DDEA" stroke-width="2" stroke-miterlimit="10" stroke-linecap="round" stroke-linejoin="round"/>
<path d="M62.6731 54.3016V57.3863H60.7973V60.3512H57.2841V57.3863H49.543V53.8524L56.7184 43.8196H60.8271V54.3316H62.6731V54.3016ZM57.2841 47.9226L52.818 54.3016H57.2841V47.9226Z" fill="#AAB2C5"/>
<path d="M71.486 60.6806C67.7345 60.6806 64.4297 57.3863 64.4297 52.0555C64.4297 46.7246 67.7048 43.4303 71.486 43.4303C75.2672 43.4303 78.5423 46.7246 78.5423 52.0555C78.5423 57.3863 75.2672 60.6806 71.486 60.6806ZM71.486 57.5061C73.2426 57.5061 74.9993 55.7391 74.9993 52.0854C74.9993 48.4317 73.2426 46.6647 71.486 46.6647C69.7294 46.6647 67.9727 48.4317 67.9727 52.0854C67.9727 55.7391 69.7294 57.5061 71.486 57.5061Z" fill="#AAB2C5"/>
<path d="M93.697 54.3016V57.3863H91.8213V60.3512H88.308V57.3863H80.5669V53.8524L87.7423 43.8196H91.8511V54.3316H93.697V54.3016ZM88.2782 47.9226L83.8122 54.3016H88.2782V47.9226Z" fill="#AAB2C5"/>
<path d="M113.401 98.2515L93.4547 78.3205L98.0275 73.7477L117.958 93.6945L113.401 98.2515Z" fill="#D6DCE8" stroke="#AAB2C5" stroke-width="2" stroke-miterlimit="10"/>
<path d="M120.335 105.264L105.04 89.9691C103.763 88.6919 103.763 86.6105 105.04 85.3333C106.317 84.0561 108.399 84.0561 109.676 85.3333L124.971 100.628C126.248 101.906 126.248 103.987 124.971 105.264C123.694 106.542 121.613 106.542 120.335 105.264Z" fill="#D6DCE8" stroke="#AAB2C5" stroke-width="2" stroke-miterlimit="10"/>
<path d="M119.247 106.242L99.5687 86.5632C99.1114 86.106 99.1114 85.3649 99.5687 84.8918L104.599 79.8618C105.056 79.4045 105.797 79.4045 106.27 79.8618L125.949 99.5405C126.406 99.9978 126.406 100.739 125.949 101.212L120.919 106.242C120.446 106.699 119.705 106.699 119.247 106.242Z" fill="#D6DCE8" stroke="#AAB2C5" stroke-width="2" stroke-miterlimit="10"/>
<path d="M70.8746 14.0967C49.9975 14.0967 33.0782 31.016 33.0782 51.8931C33.0782 72.7544 49.9975 89.6894 70.8589 89.6894C91.7359 89.6894 108.655 72.7702 108.655 51.8931C108.655 31.016 91.736 14.0967 70.8746 14.0967ZM70.8746 82.6884C54.113 82.6884 40.5366 68.8912 40.5366 51.8773C40.5366 34.8634 54.113 21.082 70.8746 21.082C87.6362 21.082 101.213 34.8792 101.213 51.8931C101.213 68.9069 87.6205 82.6884 70.8746 82.6884Z" fill="#D6DCE8" stroke="#AAB2C5" stroke-width="2" stroke-miterlimit="10"/>
</svg>
