<svg width="128" height="108" viewBox="0 0 128 108" fill="none" xmlns="http://www.w3.org/2000/svg">
<path d="M123.029 55.6908C123.029 69.8907 117.229 82.6907 107.929 91.8907C98.8288 100.991 86.2288 106.491 72.3288 106.491C58.5288 106.491 45.9288 100.891 36.7288 91.8907C27.4288 82.6907 21.6288 69.8907 21.6288 55.6908C21.6288 27.5907 44.3288 4.89075 72.3288 4.89075C100.329 4.89075 123.029 27.6908 123.029 55.6908Z" fill="#F1F3F9" stroke="#D6DCE8" stroke-width="2" stroke-miterlimit="10"/>
<path d="M118.629 22.3907C120.893 22.3907 122.729 20.5551 122.729 18.2907C122.729 16.0264 120.893 14.1907 118.629 14.1907C116.364 14.1907 114.529 16.0264 114.529 18.2907C114.529 20.5551 116.364 22.3907 118.629 22.3907Z" fill="#F1F3F9"/>
<path d="M124.629 6.39077C126.175 6.39077 127.429 5.13717 127.429 3.59077C127.429 2.04437 126.175 0.790771 124.629 0.790771C123.082 0.790771 121.829 2.04437 121.829 3.59077C121.829 5.13717 123.082 6.39077 124.629 6.39077Z" fill="#F1F3F9"/>
<path d="M23.2288 22.2907C24.7752 22.2907 26.0288 21.0371 26.0288 19.4907C26.0288 17.9443 24.7752 16.6907 23.2288 16.6907C21.6824 16.6907 20.4288 17.9443 20.4288 19.4907C20.4288 21.0371 21.6824 22.2907 23.2288 22.2907Z" fill="#F1F3F9"/>
<path d="M6.12883 76.2907C9.00071 76.2907 11.3288 73.9626 11.3288 71.0908C11.3288 68.2189 9.00071 65.8907 6.12883 65.8907C3.25695 65.8907 0.928833 68.2189 0.928833 71.0908C0.928833 73.9626 3.25695 76.2907 6.12883 76.2907Z" fill="#F1F3F9"/>
<path d="M113.178 32.0846C111.81 30.171 109.758 30.3411 109.031 32.6799C107.406 37.8679 102.319 39.7814 99.1981 40.2492C97.4025 26.9391 85.9452 16.6908 72.0939 16.6908C58.2853 16.6908 46.8707 26.8966 45.0324 40.1216C41.8688 39.5263 37.2517 37.5702 35.7127 32.6374C34.9859 30.2985 32.9338 30.171 31.5658 32.042C28.787 35.8692 29.9413 40.7595 31.6513 44.7568C34.1736 50.8377 39.0473 55.1752 44.7759 58.1094C44.6476 65.296 44.1346 71.1643 42.1253 78.7336C41.4413 81.3276 40.8428 83.4538 40.287 84.8571C39.9023 85.8352 39.6458 86.8132 40.2443 87.7913C41.2703 89.4497 43.2796 89.96 45.1179 90.2577C46.828 90.5554 48.2815 90.6829 49.4785 90.7255C52.3856 90.8105 53.6681 90.3853 53.6681 90.3853C53.6681 90.3853 53.8819 90.7255 54.4377 91.1932C56.0194 92.5965 60.4228 95.3181 70.3411 94.9354C82.6961 94.4676 87.4415 93.2769 89.6218 91.4059C89.7928 91.2358 89.9638 91.1082 90.0921 90.9381C91.4601 90.9381 92.6999 90.9806 93.8114 90.9806C97.7018 91.0231 100.481 91.1082 102.704 90.3002C104.456 89.6624 105.568 87.6212 104.456 85.4525C101.122 78.9037 99.4118 71.6746 99.4118 64.3179V58.3645C105.354 55.4304 110.484 51.0504 113.092 44.7568C114.802 40.7595 115.957 35.8692 113.178 32.0846Z" fill="white" stroke="#D6DCE8" stroke-width="2" stroke-miterlimit="10" stroke-linejoin="round"/>
<path d="M93.8537 90.8955C92.6994 90.8955 91.4596 90.853 90.1343 90.853C90.0061 91.0231 89.8351 91.1932 89.6641 91.3207C88.4243 85.8351 87.3555 80.2219 87.099 73.333C88.8518 79.2439 91.0748 86.2178 93.8537 90.8955Z" fill="#D6DCE8"/>
<path d="M54.4371 91.1506C53.8814 90.6829 53.6676 90.3427 53.6676 90.3427C53.6676 90.3427 52.3851 90.8104 49.478 90.6829C51.9148 86.2178 54.0951 77.8405 53.8386 72.6526C54.2234 81.7953 54.3516 87.5361 54.4371 91.1506Z" fill="#D6DCE8"/>
<path d="M61.9613 47.6483C63.9918 47.6483 65.6379 46.011 65.6379 43.9912C65.6379 41.9715 63.9918 40.3342 61.9613 40.3342C59.9308 40.3342 58.2847 41.9715 58.2847 43.9912C58.2847 46.011 59.9308 47.6483 61.9613 47.6483Z" fill="#AAB2C5"/>
<path d="M80.3443 49.562C83.4373 49.562 85.9447 47.0679 85.9447 43.9913C85.9447 40.9147 83.4373 38.4207 80.3443 38.4207C77.2513 38.4207 74.7439 40.9147 74.7439 43.9913C74.7439 47.0679 77.2513 49.562 80.3443 49.562Z" fill="#AAB2C5"/>
<path d="M81.7979 54.7073C81.7979 56.1106 76.9242 57.2588 70.9391 57.2588C64.9112 57.2588 60.0375 56.1106 60.0375 54.7073H81.7979Z" fill="#AAB2C5"/>
<path d="M73.4614 66.9543C70.6825 66.9543 68.4595 64.7005 68.4595 61.979V56.0256H78.506V61.979C78.506 64.7005 76.2402 66.9543 73.4614 66.9543Z" fill="#AAB2C5"/>
<path opacity="0.3" d="M72.0933 106.204C88.1723 106.204 101.207 103.691 101.207 100.591C101.207 97.4909 88.1723 94.9778 72.0933 94.9778C56.0144 94.9778 42.9798 97.4909 42.9798 100.591C42.9798 103.691 56.0144 106.204 72.0933 106.204Z" fill="#AAB2C5"/>
</svg>
