<svg width="144" height="147" viewBox="0 0 144 147" fill="none" xmlns="http://www.w3.org/2000/svg">
<path d="M122.897 95.112C122.897 109.312 117.098 122.112 107.798 131.312C98.6975 140.412 86.0975 145.912 72.1975 145.912C58.3975 145.912 45.7975 140.312 36.5975 131.312C27.2975 122.112 21.4975 109.312 21.4975 95.112C21.4975 67.012 44.1975 44.312 72.1975 44.312C100.197 44.312 122.897 67.112 122.897 95.112Z" fill="#F1F3F9" stroke="#D6DCE8" stroke-width="2" stroke-miterlimit="10"/>
<path d="M128.149 75.8426C130.413 75.8426 132.249 74.0069 132.249 71.7426C132.249 69.4782 130.413 67.6426 128.149 67.6426C125.885 67.6426 124.049 69.4782 124.049 71.7426C124.049 74.0069 125.885 75.8426 128.149 75.8426Z" fill="#EAEEF9"/>
<path d="M124.498 45.8119C126.044 45.8119 127.298 44.5583 127.298 43.0119C127.298 41.4655 126.044 40.2119 124.498 40.2119C122.951 40.2119 121.698 41.4655 121.698 43.0119C121.698 44.5583 122.951 45.8119 124.498 45.8119Z" fill="#EAEEF9"/>
<path d="M23.0975 61.7118C24.6439 61.7118 25.8975 60.4582 25.8975 58.9118C25.8975 57.3654 24.6439 56.1118 23.0975 56.1118C21.5511 56.1118 20.2975 57.3654 20.2975 58.9118C20.2975 60.4582 21.5511 61.7118 23.0975 61.7118Z" fill="#EAEEF9"/>
<path d="M5.99749 115.712C8.86937 115.712 11.1975 113.384 11.1975 110.512C11.1975 107.64 8.86937 105.312 5.99749 105.312C3.1256 105.312 0.797485 107.64 0.797485 110.512C0.797485 113.384 3.1256 115.712 5.99749 115.712Z" fill="#EAEEF9"/>
<path d="M110.641 65.2051L106.47 95.4981L101.258 132.929C100.041 133.625 98.6511 134.148 97.2609 134.148H37.1383C34.5318 134.148 32.2729 133.277 30.3614 131.884C29.8402 131.536 29.3189 131.014 28.7976 130.492C26.7124 128.403 25.3223 125.269 25.3223 121.961V57.1966C25.3223 54.2369 27.755 51.9736 30.5352 51.9736H48.7805C49.9969 51.9736 51.2132 52.4959 52.2558 53.5405L58.1638 59.9821C59.0327 60.8526 60.249 61.3749 61.4654 61.3749H107.166C109.251 61.3749 110.815 63.1159 110.641 65.2051Z" fill="#D6DCE8" stroke="#AAB2C5" stroke-width="2" stroke-miterlimit="10"/>
<path d="M34.1842 127.532L39.0496 71.2986C39.2234 69.2095 40.961 67.6426 43.0462 67.6426H112.205C114.116 67.6426 115.506 69.2095 115.332 71.1245L110.467 119.001L34.1842 127.532Z" fill="white" stroke="#D6DCE8" stroke-width="2" stroke-miterlimit="10" stroke-linejoin="round"/>
<path d="M61.8128 121.439L36.4431 127.358L52.082 84.3559C52.777 82.4409 54.5147 81.2222 56.5998 81.2222H117.939C120.198 81.2222 121.762 83.6595 120.719 85.7487L104.038 119.872L61.8128 121.439Z" fill="white" stroke="#D6DCE8" stroke-width="2" stroke-miterlimit="10" stroke-linejoin="round"/>
<path d="M126.627 99.6762L103.343 131.014C102.821 131.71 101.952 132.407 101.257 132.929C100.041 133.625 98.6509 134.148 97.2608 134.148H37.1382C34.5317 134.148 32.2727 133.277 30.3613 131.884L54.6884 103.506H92.9167C94.6543 103.506 96.392 102.984 97.7821 101.765L104.385 96.7166C105.08 96.1943 105.775 95.8461 106.47 95.4979C107.339 95.1497 108.382 94.9756 109.251 94.9756H124.194C126.627 94.8015 128.017 97.7612 126.627 99.6762Z" fill="#D6DCE8" stroke="#AAB2C5" stroke-width="2" stroke-miterlimit="10"/>
<path d="M113.677 58.2533L86.4002 40.5852C84.8319 39.5592 84.3744 37.4737 85.3951 35.8879L102.334 9.80808C103.362 8.24018 105.449 7.78141 107.036 8.8L134.313 26.4682C135.881 27.4941 136.339 29.5797 135.318 31.1654L118.387 57.2631C117.359 58.831 115.246 59.2792 113.677 58.2533Z" fill="#F1F3F9" stroke="#D6DCE8" stroke-width="2" stroke-miterlimit="10"/>
<path d="M114.705 53.3703L90.7226 37.835C90.0449 37.4036 89.8621 36.4984 90.2944 35.8208L104.302 14.257C104.734 13.5795 105.64 13.3961 106.318 13.8276L130.3 29.3628C130.978 29.7943 131.161 30.6995 130.728 31.377L116.721 52.9408C116.288 53.6183 115.382 53.8017 114.705 53.3703Z" fill="white"/>
<path d="M108.495 37.7503L99.742 32.0766L107.326 29.9506L108.495 37.7503Z" fill="#B0B7C4"/>
<path d="M115.738 42.4372L103.127 34.2771L114.047 31.2229L115.738 42.4372Z" fill="#CED6E2"/>
<path d="M106.683 26.5443C107.095 27.5503 108.245 28.0315 109.252 27.619C110.259 27.2065 110.742 26.0567 110.33 25.0507C109.918 24.0447 108.767 23.5636 107.76 23.9761C106.753 24.3885 106.271 25.5384 106.683 26.5443Z" fill="#B0B7C4"/>
<path d="M67.7902 27.2556C67.0337 24.5444 65.975 21.3556 64.3988 18.9888C63.5352 17.686 62.2188 16.7503 60.6653 16.3991C58.9608 16.0257 57.4293 16.3897 55.7684 16.7967C52.8132 17.4166 49.8797 18.3184 47.0111 19.4154C44.4443 20.3399 41.4246 21.198 39.3761 23.0342C36.4004 25.7563 37.0926 29.1391 38.1516 32.7613C38.9081 35.4725 39.9669 38.6613 41.543 41.0281C42.8168 42.9172 45.0394 43.9856 47.2613 43.7536C50.1951 43.502 56.0621 41.6985 58.8876 40.6881C61.325 39.8066 64.0643 38.9693 66.1129 37.3498C69.5416 34.6941 68.9789 31.2683 67.7902 27.2556ZM48.0722 26.9386C47.748 25.9624 48.1577 25.4651 49.1717 25.7065C51.8903 26.3211 54.6952 26.9794 57.4137 27.594C58.4278 27.8353 58.6222 28.4211 57.9755 29.2861C56.1645 31.4047 54.3751 33.5884 52.564 35.707C51.831 36.5284 51.2916 36.4185 50.9244 35.5289C50.7947 35.1384 48.3747 27.8497 48.0722 26.9386Z" fill="#D6DCE8" stroke="#AAB2C5" stroke-width="2" stroke-miterlimit="10"/>
<path d="M89.5642 128.683L89.566 128.675L89.5677 128.667C90.8405 122.849 89.0224 116.678 84.7579 112.413L84.7448 112.4L84.7313 112.388C82.2231 110.059 79.2386 108.331 75.7795 107.602C66.142 105.513 56.7977 111.79 54.8037 121.398C52.8078 131.014 58.9743 140.451 68.593 142.452C72.6979 143.362 76.7837 142.628 80.215 140.912L80.215 140.912L80.2246 140.907C83.569 139.19 86.2956 136.56 88.0242 133.193L88.0328 133.177L88.0408 133.16C88.6736 131.803 89.2083 130.195 89.5642 128.683Z" fill="white" stroke="#AAB2C5" stroke-width="2"/>
<path d="M77.5405 122.571H74.6858V119.716C74.6858 118.432 73.6766 117.26 72.2296 117.26C70.9452 117.26 69.7734 118.269 69.7734 119.716V122.571H66.9186C65.6343 122.571 64.4624 123.58 64.4624 125.027C64.4624 125.695 64.7003 126.322 65.1622 126.784C65.6241 127.246 66.2508 127.483 66.9186 127.483H69.7734V130.338C69.7734 131.623 70.7826 132.794 72.2296 132.794C73.514 132.794 74.6858 131.785 74.6858 130.338V127.483H77.5405C78.8249 127.483 79.9968 126.474 79.9968 125.027C79.9968 123.58 78.8249 122.571 77.5405 122.571Z" fill="white" stroke="#AAB2C5" stroke-width="2"/>
</svg>
