<svg width="173" height="121" viewBox="0 0 173 121" fill="none" xmlns="http://www.w3.org/2000/svg">
<path d="M122.477 25.2122C122.477 37.7605 112.498 48.1369 100.085 48.8609C99.5978 48.8609 99.111 48.8609 98.6242 48.8609C94.4865 48.8609 90.3487 47.6543 86.9412 45.7238C79.6393 41.6215 74.7714 33.8995 74.7714 24.9709C74.7714 18.9381 76.9619 13.3879 80.8563 9.28559C85.2374 4.45933 91.5657 1.32227 98.6242 1.32227C107.873 1.32227 115.905 6.63115 119.8 14.3532C121.503 17.7315 122.477 21.3512 122.477 25.2122Z" fill="#F1F3F9" stroke="#D6DCE8" stroke-width="2" stroke-miterlimit="10"/>
<path opacity="0.1" d="M122.268 25.2123C122.268 37.7605 112.289 48.137 99.8753 48.8609C95.2508 48.137 90.8697 46.9304 86.7319 45.9652C79.4301 41.8628 74.5621 34.1408 74.5621 25.2123C74.5621 19.1794 76.7527 13.6293 80.647 9.52694C88.6791 9.28562 97.9282 10.0096 107.421 11.6987C111.802 12.4227 115.939 13.3879 119.834 14.3532C121.294 17.7316 122.268 21.3513 122.268 25.2123Z" fill="#AAB2C5"/>
<path d="M151.37 41.1828C153.207 30.9486 130.558 18.3932 100.781 13.1396C71.0047 7.88598 45.3768 11.9235 43.5398 22.1577C41.7029 32.3919 64.3524 44.9473 94.129 50.2009C123.906 55.4545 149.533 51.417 151.37 41.1828Z" fill="#F1F3F9" stroke="#D6DCE8" stroke-width="2" stroke-miterlimit="10"/>
<path d="M93.1904 18.9832C93.3259 17.2559 90.6109 15.6378 87.1263 15.3692C83.6418 15.1006 80.7072 16.2832 80.5718 18.0105C80.4363 19.7379 83.1513 21.3559 86.6358 21.6245C90.1203 21.8931 93.0549 20.7106 93.1904 18.9832Z" fill="#D6DCE8"/>
<path d="M62.5646 23.4198C65.9149 22.4336 68.2277 20.2878 67.7304 18.627C67.2331 16.9662 64.1139 16.4193 60.7636 17.4054C57.4132 18.3916 55.1004 20.5374 55.5978 22.1982C56.0951 23.8591 59.2143 24.406 62.5646 23.4198Z" fill="#D6DCE8"/>
<path d="M117.806 25.3322C118.112 23.6265 115.571 21.7516 112.13 21.1445C108.689 20.5374 105.651 21.428 105.345 23.1337C105.039 24.8394 107.58 26.7143 111.021 27.3214C114.462 27.9285 117.499 27.0379 117.806 25.3322Z" fill="#D6DCE8"/>
<path d="M136.283 37.9498C137.084 36.4099 135.215 33.8742 132.109 32.2862C129.002 30.6981 125.835 30.6591 125.034 32.199C124.233 33.7389 126.102 36.2746 129.208 37.8626C132.315 39.4507 135.482 39.4897 136.283 37.9498Z" fill="#D6DCE8"/>
<path d="M94.42 33.7237L71.5408 33.4824L38.9578 94.0866L130.411 103.704L120.22 41.9283L94.42 33.7237Z" fill="url(#paint0_linear)"/>
<path d="M142.365 119.96H25.2913C28.4555 117.124 33.08 114.288 38.4347 112.161C41.3555 111.098 44.763 109.68 48.1706 108.971C58.3932 106.135 70.8064 104.363 83.9498 104.363C99.7706 104.363 114.374 106.844 125.571 110.743C129.465 112.161 132.872 113.579 135.793 115.352C138.471 116.769 140.661 118.187 142.365 119.96Z" fill="#F1F3F9" stroke="#D6DCE8" stroke-width="2" stroke-miterlimit="10"/>
<path d="M49.3513 111.902C49.5046 113.342 46.9957 115.065 44.0914 115.374C41.187 115.684 38.639 114.742 38.2436 113.328C41.0712 112.299 44.3574 110.978 47.6946 110.137C48.7139 110.514 49.2746 111.182 49.3513 111.902Z" fill="#D6DCE8"/>
<path d="M70.3197 109.672C74.218 109.672 77.3782 108.915 77.3782 107.982C77.3782 107.049 74.218 106.293 70.3197 106.293C66.4214 106.293 63.2612 107.049 63.2612 107.982C63.2612 108.915 66.4214 109.672 70.3197 109.672Z" fill="#D6DCE8"/>
<path d="M108.367 109.533C108.447 108.336 105.358 107.159 101.468 106.903C97.5788 106.648 94.3607 107.411 94.2807 108.607C94.2007 109.804 97.289 110.982 101.179 111.237C105.068 111.493 108.287 110.73 108.367 109.533Z" fill="#D6DCE8"/>
<path d="M134.54 115.765C133.572 115.654 132.411 115.691 130.988 115.284C127.147 114.598 124.142 113.037 124.28 111.839C124.308 111.599 124.308 111.599 124.577 111.387C128.335 112.792 131.751 114.151 134.54 115.765Z" fill="#D6DCE8"/>
<path d="M120.075 42.6824C120.899 38.0901 110.624 32.4366 97.1254 30.055C83.6267 27.6733 72.0156 29.4654 71.1913 34.0576C70.367 38.6499 80.6417 44.3034 94.1404 46.685C107.639 49.0667 119.25 47.2746 120.075 42.6824Z" fill="#C8D0E0" stroke="#D6DCE8" stroke-width="2" stroke-miterlimit="10"/>
<path d="M32.6713 64.9221C32.6713 64.9221 24.2637 67.0568 26.8114 68.7645C29.3592 70.3869 35.3889 73.2046 41.0789 71.3261C46.769 69.4476 41.0789 66.8006 41.1639 66.8006C41.2488 66.8006 32.6713 64.9221 32.6713 64.9221Z" fill="#CED7E2"/>
<path d="M22.3952 64.239C25.4525 65.1783 34.8793 63.6413 40.909 59.7135C45.6648 65.6052 47.4483 67.1422 49.1468 67.3129C46.5141 69.9599 37.7668 74.2293 32.8411 68.6791C27.0661 72.3508 22.3952 64.239 22.3952 64.239Z" fill="#E9EEF7"/>
<path d="M123.38 71.925C126.607 72.0958 135.355 68.168 140.11 62.874C146.225 67.3995 148.263 68.4242 150.047 68.168C148.093 71.4127 142.149 78.4998 133.741 79.0121C127.626 75.4259 123.38 71.925 123.38 71.925Z" fill="#E9EEF7"/>
<path d="M95.4117 72.0306C94.7732 68.8626 88.7903 61.3694 82.4785 58.0822C85.3383 51.033 85.8229 48.8038 85.1306 47.1403C88.7595 48.2238 97.1041 52.2159 99.6946 60.2309C97.7445 67.0461 95.4117 72.0306 95.4117 72.0306Z" fill="white"/>
<path d="M171.281 119.96H163.891H10.6774H1.12952" stroke="#D5DAE8" stroke-width="2" stroke-miterlimit="10" stroke-linecap="round" stroke-linejoin="round"/>
<path d="M66.9649 100.571V105.397H64.0442V109.982H58.4461V105.397H46.2762V99.8472L57.4725 84.4032H63.8008V100.571H66.9649ZM58.6895 90.6773L51.631 100.571H58.6895V90.6773Z" fill="white" stroke="#D6DCE8" stroke-width="2" stroke-miterlimit="10" stroke-linejoin="round"/>
<path d="M82.4895 110.465C76.6479 110.465 71.5366 105.397 71.5366 97.1929C71.5366 88.9882 76.6479 83.9207 82.4895 83.9207C88.331 83.9207 93.4423 88.9882 93.4423 97.1929C93.6857 105.156 88.5744 110.465 82.4895 110.465ZM82.4895 105.397C85.1668 105.397 88.0876 102.743 88.0876 96.9515C88.0876 91.4014 85.4102 88.5056 82.4895 88.5056C79.8121 88.5056 76.8913 91.16 76.8913 96.9515C77.1347 102.743 79.8121 105.397 82.4895 105.397Z" fill="white" stroke="#D6DCE8" stroke-width="2" stroke-miterlimit="10" stroke-linejoin="round"/>
<path d="M119.189 100.571V105.397H116.269V109.982H110.671V105.397H98.5008V99.8472L109.697 84.4032H116.025V100.571H119.189ZM110.671 90.6773L103.612 100.571H110.671V90.6773Z" fill="white" stroke="#D6DCE8" stroke-width="2" stroke-miterlimit="10" stroke-linejoin="round"/>
<defs>
<linearGradient id="paint0_linear" x1="84.6901" y1="35.9218" x2="84.6901" y2="75.3367" gradientUnits="userSpaceOnUse">
<stop stop-color="#BDC4D1" stop-opacity="0.53"/>
<stop offset="1" stop-color="#5D7CB8" stop-opacity="0"/>
</linearGradient>
</defs>
</svg>
