<svg width="148" height="122" viewBox="0 0 148 122" fill="none" xmlns="http://www.w3.org/2000/svg">
<path d="M146.528 60.8271C146.528 82.5206 134.985 101.519 117.693 111.984C116.974 112.433 116.255 112.838 115.537 113.242L122.139 64.1957C122.274 63.2076 121.555 62.3093 120.612 62.1745C119.624 62.0398 118.726 62.7135 118.591 63.7016L111.674 115.173C109.923 115.982 108.126 116.7 106.329 117.329L111.27 64.1058C111.36 63.1177 110.641 62.2644 109.653 62.1745C108.665 62.0847 107.767 62.8033 107.722 63.7914L102.602 118.497C100.895 118.946 99.0982 119.35 97.3466 119.665L100.086 64.016C100.131 63.0279 99.3677 62.1745 98.3796 62.1296C97.3915 62.0847 96.5381 62.8482 96.4932 63.8363L93.7085 120.204C92.0018 120.383 90.34 120.518 88.5883 120.563V63.9711C88.5883 62.983 87.7799 62.1745 86.7918 62.1745C85.8036 62.1745 84.9952 62.983 84.9952 63.9711V120.608C83.4232 120.563 81.8961 120.473 80.369 120.293L77.5844 63.8813C77.5394 62.8931 76.6861 62.1296 75.698 62.1745C74.7098 62.2194 73.9463 63.0728 73.9912 64.0609L76.731 119.799C74.9344 119.485 73.1828 119.126 71.476 118.677L66.3109 63.7914C66.2211 62.8033 65.3677 62.0847 64.3796 62.1745C63.3915 62.2644 62.6729 63.1626 62.7627 64.1058L67.7482 117.554C65.9067 116.925 64.155 116.251 62.4034 115.488L55.4417 63.7465C55.3069 62.7584 54.4087 62.0847 53.4205 62.2194C52.4324 62.3542 51.7587 63.2525 51.8935 64.2406L58.4958 113.601C57.6425 113.152 56.834 112.703 56.0256 112.209C38.5989 101.744 26.9212 82.6554 26.9212 60.8271C26.9212 27.8152 53.69 1.04639 86.7019 1.04639C119.759 1.04639 146.528 27.8152 146.528 60.8271Z" fill="#F1F3F9" stroke="#D6DCE8" stroke-width="2" stroke-miterlimit="10"/>
<path d="M104.458 63.3449C102.913 42.0077 102.448 31.8591 95.8626 21.953C95.7794 21.8282 95.6061 21.8005 95.4883 21.8976C94.1989 22.9651 92.7709 25.322 92.1747 27.8246C89.9564 27.4156 87.7312 26.9927 85.4575 27.1313C84.0641 27.2145 82.6915 27.575 81.319 27.8246C80.7228 25.3151 79.3017 22.9651 78.0054 21.8976C77.8875 21.8005 77.7142 21.8282 77.6311 21.953C71.0455 31.8591 70.5811 42.0077 69.0352 63.3449L86.7468 61.9169L104.458 63.3449Z" fill="white" stroke="#D6DCE8" stroke-width="2" stroke-miterlimit="10"/>
<path d="M80.5217 41.467C78.7609 41.467 77.1388 40.5103 76.2862 38.9714C76.0851 38.604 76.2168 38.1395 76.5842 37.9316C76.9516 37.7305 77.4161 37.8623 77.6241 38.2297C78.2133 39.2833 79.3224 39.9419 80.5286 39.9419C81.7348 39.9419 82.8509 39.2833 83.4332 38.2297C83.6342 37.8623 84.0987 37.7305 84.473 37.9316C84.8404 38.1326 84.9722 38.5971 84.7711 38.9714C83.9046 40.5103 82.2825 41.467 80.5217 41.467Z" fill="#989FB0"/>
<path d="M93.0204 41.467C91.2597 41.467 89.6375 40.5103 88.7849 38.9714C88.5838 38.604 88.7156 38.1395 89.083 37.9316C89.4504 37.7305 89.9148 37.8623 90.1228 38.2297C90.712 39.2833 91.8212 39.9419 93.0274 39.9419C94.2336 39.9419 95.3496 39.2833 95.9319 38.2297C96.133 37.8623 96.5974 37.7305 96.9718 37.9316C97.3392 38.1326 97.4709 38.5971 97.2698 38.9714C96.4033 40.5103 94.7812 41.467 93.0204 41.467Z" fill="#989FB0"/>
<path d="M82.4628 47.4008C82.4281 47.4008 82.3865 47.4008 82.3449 47.3939L74.5601 46.2154C74.1442 46.1531 73.86 45.7649 73.9223 45.3489C73.9847 44.933 74.3729 44.6488 74.7889 44.7112L82.5737 45.8896C82.9896 45.952 83.2738 46.3402 83.2114 46.7561C83.156 47.1305 82.8302 47.4008 82.4628 47.4008Z" fill="#989FB0"/>
<path d="M76.0644 50.7076C75.6693 50.7076 75.3296 50.4026 75.3019 49.9936C75.2741 49.5707 75.593 49.2102 76.0089 49.1825L82.4073 48.7458C82.8232 48.7181 83.1906 49.0369 83.2184 49.4529C83.2461 49.8757 82.9272 50.2362 82.5113 50.2639L76.1129 50.7007C76.099 50.7076 76.0783 50.7076 76.0644 50.7076Z" fill="#989FB0"/>
<path d="M91.0447 47.4009C90.6773 47.4009 90.3515 47.1306 90.2891 46.7493C90.2267 46.3334 90.511 45.9452 90.9269 45.8828L98.7117 44.7043C99.1276 44.6419 99.5158 44.9262 99.5782 45.3421C99.6406 45.758 99.3564 46.1462 98.9405 46.2086L91.1557 47.3871C91.121 47.4009 91.0863 47.4009 91.0447 47.4009Z" fill="#989FB0"/>
<path d="M97.4431 50.7075C97.4223 50.7075 97.4085 50.7075 97.3877 50.7075L90.9893 50.2707C90.5665 50.243 90.2545 49.8756 90.2822 49.4597C90.31 49.0437 90.6704 48.7249 91.0933 48.7526L97.4917 49.1893C97.9145 49.217 98.2265 49.5845 98.1988 50.0004C98.178 50.4024 97.8452 50.7075 97.4431 50.7075Z" fill="#989FB0"/>
<path d="M87.7173 45.1549C87.3291 45.0925 86.1645 45.0925 85.7694 45.1549C85.3535 45.2242 84.8336 45.3282 84.9999 46.2987C85.0901 46.8255 85.4089 47.29 85.8249 47.6366C86.5597 48.2466 86.9201 48.1773 87.5024 47.7475C87.9808 47.4009 88.3759 46.8879 88.4799 46.2917C88.6601 45.3212 88.1333 45.2172 87.7173 45.1549Z" fill="#989FB0"/>
<path d="M24.3226 9.23386C35.7122 12.8679 46.2882 19.29 54.5713 27.9167C56.2306 29.7736 58.0852 31.742 58.8082 34.1056C60.0744 37.5595 59.0215 41.9022 56.5047 44.4994C53.9319 47.1948 49.7415 48.1871 46.0848 46.882C43.7537 46.2029 41.7038 44.1232 41.4417 41.6322C41.3333 39.0988 43.1378 36.6157 45.4986 35.8808C47.9714 34.9495 50.6097 35.5437 52.7025 36.8674C54.7954 38.1911 56.4963 40.2019 57.7363 42.34C61.9446 49.0329 63.3716 57.6519 61.6577 65.6502C60.3654 71.5475 57.2864 76.946 53.0639 81.1721" stroke="#D6DCE8" stroke-width="2" stroke-miterlimit="10" stroke-dasharray="4 4"/>
<path d="M23.7436 3.44015C24.65 4.34738 24.369 5.74808 23.0135 6.53601C21.6997 7.4778 20.7075 8.08267 19.8427 7.3293C19.0339 6.47777 19.608 5.2442 20.2941 3.81431C21.0504 2.03424 22.7812 2.63107 23.7436 3.44015Z" fill="#F1F3F9" stroke="#D6DCE8" stroke-width="2" stroke-miterlimit="10" stroke-linejoin="round"/>
<path d="M19.2901 13.5184C20.4491 13.529 21.8188 12.489 21.4996 11.0061C21.1387 9.36933 20.9588 8.09599 19.7022 8.02971C18.5432 8.01913 18.3884 8.9715 17.632 10.7516C17.1413 12.2929 17.9775 13.5503 19.2901 13.5184Z" fill="#F1F3F9" stroke="#D6DCE8" stroke-width="2" stroke-miterlimit="10" stroke-linejoin="round"/>
<path d="M18.1394 7.13837C18.4336 6.39557 19.2161 5.9313 19.9141 6.06923C20.1655 6.08248 20.5145 6.15145 20.7098 6.26286C22.1892 6.84643 23.0814 8.00569 22.7312 8.84664C22.4227 9.84146 20.9421 10.1678 19.6164 9.54177C19.2257 9.31895 19.0304 9.20754 18.7373 9.04042C18.1096 8.55232 17.8452 7.88117 18.1394 7.13837C18.1954 7.04022 18.1394 7.13837 18.1394 7.13837Z" fill="#F1F3F9"/>
<path d="M18.1394 7.13837C18.4336 6.39557 19.2161 5.9313 19.9141 6.06923C20.1655 6.08248 20.5145 6.15145 20.7098 6.26286C22.1892 6.84643 23.0814 8.00569 22.7312 8.84664C22.4227 9.84146 20.9421 10.1678 19.6164 9.54177C19.2257 9.31895 19.0304 9.20754 18.7373 9.04042C18.1096 8.55232 17.8452 7.88117 18.1394 7.13837ZM18.1394 7.13837C18.1394 7.13837 18.1954 7.04022 18.1394 7.13837Z" stroke="#D6DCE8" stroke-width="2" stroke-miterlimit="10" stroke-linejoin="round"/>
<path d="M125.229 62.0825L124.118 65.4996L134.583 68.9009L135.694 65.4839L125.229 62.0825Z" fill="#F1F3F9" stroke="#D6DCE8" stroke-width="2" stroke-miterlimit="10"/>
<path d="M48.1554 62.0907L37.6906 65.492L38.8012 68.9091L49.266 65.5077L48.1554 62.0907Z" fill="#F1F3F9" stroke="#D6DCE8" stroke-width="2" stroke-miterlimit="10"/>
<path d="M126.316 57.1441L117.648 111.984C116.929 112.433 116.211 112.838 115.492 113.242C114.234 113.961 112.932 114.589 111.584 115.218C109.833 116.027 108.036 116.745 106.24 117.374C105.027 117.778 103.769 118.182 102.512 118.542C100.805 118.991 99.0084 119.395 97.2567 119.71C96.0441 119.934 94.8314 120.114 93.6187 120.248C91.912 120.428 90.2501 120.563 88.4985 120.608C87.8697 120.608 87.2858 120.653 86.657 120.653C86.0731 120.653 85.4892 120.653 84.9054 120.608C83.3334 120.563 81.8063 120.473 80.2792 120.293C79.0665 120.159 77.8538 119.979 76.6412 119.799C74.8446 119.485 73.0929 119.126 71.3862 118.676C70.1286 118.362 68.9159 117.958 67.6583 117.554C65.8168 116.925 64.0652 116.251 62.3135 115.488C61.011 114.904 59.7085 114.275 58.406 113.601C57.5526 113.152 56.7442 112.703 55.9357 112.209L46.9529 58.7161L57.1484 57.189H126.316V57.1441Z" fill="white" stroke="#D6DCE8" stroke-width="2" stroke-miterlimit="10"/>
<path d="M62.4034 115.488C61.1009 114.904 59.7983 114.275 58.4958 113.601L51.8935 64.1957C51.7587 63.2076 52.4324 62.3093 53.4205 62.1746C54.4086 62.0398 55.3069 62.7135 55.4417 63.7017L62.4034 115.488Z" fill="black"/>
<path d="M71.4311 118.676C70.1735 118.362 68.9609 117.958 67.7033 117.554L62.7178 64.1058C62.628 63.1177 63.3466 62.2643 64.3347 62.1745C65.3228 62.0847 66.2211 62.8033 66.266 63.7914L71.4311 118.676Z" fill="black"/>
<path d="M80.3241 120.293C79.1114 120.159 77.8987 119.979 76.686 119.799L73.9463 64.0609C73.9014 63.0728 74.6649 62.2194 75.653 62.1745C76.6411 62.1296 77.4945 62.8931 77.5394 63.8812L80.3241 120.293Z" fill="black"/>
<path d="M122.094 64.1957L115.492 113.242C114.234 113.961 112.932 114.589 111.584 115.218L118.546 63.7465C118.681 62.7584 119.579 62.0847 120.567 62.2194C121.555 62.3093 122.229 63.2076 122.094 64.1957Z" fill="black"/>
<path d="M111.225 64.1508L106.284 117.374C105.072 117.778 103.814 118.183 102.557 118.542L107.677 63.8364C107.767 62.8483 108.62 62.1297 109.608 62.2195C110.596 62.3093 111.36 63.1627 111.225 64.1508Z" fill="black"/>
<path d="M100.041 64.0609L97.3016 119.71C96.0889 119.934 94.8762 120.114 93.6635 120.248L96.4482 63.8812C96.4931 62.8931 97.3465 62.1296 98.3346 62.1745C99.3227 62.2194 100.086 63.0728 100.041 64.0609Z" fill="black"/>
<path d="M88.5433 63.9711V120.608C87.9145 120.608 87.3307 120.653 86.7019 120.653C86.118 120.653 85.5341 120.653 84.9502 120.608V63.9711C84.9502 62.983 85.7587 62.1745 86.7468 62.1745C87.7798 62.1745 88.5433 62.983 88.5433 63.9711Z" fill="black"/>
<path d="M62.4034 115.488C61.1009 114.904 59.7983 114.275 58.4958 113.601L51.8935 64.1957C51.7587 63.2076 52.4324 62.3093 53.4205 62.1746C54.4086 62.0398 55.3069 62.7135 55.4417 63.7017L62.4034 115.488Z" fill="#F1F3F9"/>
<path d="M71.4311 118.677C70.1735 118.362 68.9608 117.958 67.7032 117.554L62.7178 64.1058C62.6279 63.1177 63.3466 62.2644 64.3347 62.1745C65.3228 62.0847 66.2211 62.8033 66.266 63.7914L71.4311 118.677Z" fill="#F1F3F9"/>
<path d="M80.3241 120.293C79.1114 120.159 77.8987 119.979 76.6861 119.799L73.9463 64.0609C73.9014 63.0728 74.6649 62.2194 75.653 62.1745C76.6411 62.1296 77.4945 62.8931 77.5394 63.8812L80.3241 120.293Z" fill="#F1F3F9"/>
<path d="M88.5434 63.9711V120.608C87.9146 120.608 87.3307 120.653 86.7019 120.653C86.118 120.653 85.5341 120.653 84.9502 120.608V63.9711C84.9502 62.983 85.7587 62.1745 86.7468 62.1745C87.7798 62.1745 88.5434 62.983 88.5434 63.9711Z" fill="#F1F3F9"/>
<path d="M100.041 64.0609L97.3016 119.71C96.0889 119.934 94.8763 120.114 93.6636 120.248L96.4482 63.8812C96.4932 62.8931 97.3465 62.1296 98.3346 62.1745C99.3227 62.2194 100.086 63.0728 100.041 64.0609Z" fill="#F1F3F9"/>
<path d="M111.225 64.1508L106.284 117.374C105.072 117.778 103.814 118.182 102.557 118.542L107.677 63.8364C107.767 62.8483 108.62 62.1297 109.608 62.2195C110.596 62.3093 111.36 63.1627 111.225 64.1508Z" fill="#F1F3F9"/>
<path d="M122.094 64.1957L115.492 113.242C114.234 113.961 112.932 114.589 111.584 115.218L118.546 63.7465C118.681 62.7584 119.579 62.0847 120.567 62.2194C121.555 62.3093 122.229 63.2076 122.094 64.1957Z" fill="#F1F3F9"/>
<path d="M62.4034 115.488C61.1009 114.904 59.7983 114.275 58.4958 113.601L51.8935 64.1957C51.7587 63.2076 52.4324 62.3093 53.4205 62.1746C54.4086 62.0398 55.3069 62.7135 55.4417 63.7017L62.4034 115.488Z" stroke="#D6DCE8" stroke-width="2" stroke-miterlimit="10"/>
<path d="M71.4311 118.677C70.1735 118.362 68.9608 117.958 67.7032 117.554L62.7178 64.1058C62.6279 63.1177 63.3466 62.2644 64.3347 62.1745C65.3228 62.0847 66.2211 62.8033 66.266 63.7914L71.4311 118.677Z" stroke="#D6DCE8" stroke-width="2" stroke-miterlimit="10"/>
<path d="M80.3241 120.293C79.1114 120.159 77.8987 119.979 76.6861 119.799L73.9463 64.0609C73.9014 63.0728 74.6649 62.2194 75.653 62.1745C76.6411 62.1296 77.4945 62.8931 77.5394 63.8812L80.3241 120.293Z" stroke="#D6DCE8" stroke-width="2" stroke-miterlimit="10"/>
<path d="M88.5434 63.9711V120.608C87.9146 120.608 87.3307 120.653 86.7019 120.653C86.118 120.653 85.5341 120.653 84.9502 120.608V63.9711C84.9502 62.983 85.7587 62.1745 86.7468 62.1745C87.7798 62.1745 88.5434 62.983 88.5434 63.9711Z" stroke="#D6DCE8" stroke-width="2" stroke-miterlimit="10"/>
<path d="M100.041 64.0609L97.3016 119.71C96.0889 119.934 94.8763 120.114 93.6636 120.248L96.4482 63.8812C96.4932 62.8931 97.3465 62.1296 98.3346 62.1745C99.3227 62.2194 100.086 63.0728 100.041 64.0609Z" stroke="#D6DCE8" stroke-width="2" stroke-miterlimit="10"/>
<path d="M111.225 64.1508L106.284 117.374C105.072 117.778 103.814 118.182 102.557 118.542L107.677 63.8364C107.767 62.8483 108.62 62.1297 109.608 62.2195C110.596 62.3093 111.36 63.1627 111.225 64.1508Z" stroke="#D6DCE8" stroke-width="2" stroke-miterlimit="10"/>
<path d="M122.094 64.1957L115.492 113.242C114.234 113.961 112.932 114.589 111.584 115.218L118.546 63.7465C118.681 62.7584 119.579 62.0847 120.567 62.2194C121.555 62.3093 122.229 63.2076 122.094 64.1957Z" stroke="#D6DCE8" stroke-width="2" stroke-miterlimit="10"/>
<path d="M126.496 58.7161H46.9978C46.1444 58.7161 45.4707 58.0424 45.4707 57.1891C45.4707 56.3357 46.1444 55.662 46.9978 55.662H126.496C127.349 55.662 128.023 56.3357 128.023 57.1891C128.023 57.9975 127.349 58.7161 126.496 58.7161Z" fill="white" stroke="#D6DCE8" stroke-width="2" stroke-miterlimit="10"/>
<path d="M140.787 33.9118C139.642 33.5487 139.221 32.2787 139.912 30.8555C140.604 29.4323 141.139 28.2776 142.37 28.6355C143.428 29.0038 143.511 30.3805 143.604 31.9293C143.636 33.9134 141.759 34.2852 140.787 33.9118Z" fill="#F1F3F9" stroke="#D6DCE8" stroke-width="2" stroke-miterlimit="10" stroke-linejoin="round"/>
<path d="M139.792 23.0907C138.699 23.5881 138.184 25.087 139.122 26.326C140.237 27.6407 140.902 28.6371 142.075 28.0485C143.168 27.5512 142.853 26.6202 142.567 24.7375C142.222 23.2903 140.884 22.5933 139.792 23.0907Z" fill="#F1F3F9" stroke="#D6DCE8" stroke-width="2" stroke-miterlimit="10" stroke-linejoin="round"/>
<path d="M142.614 29.8297C142.361 29.9313 142.108 30.0328 141.85 30.0483C140.483 30.303 139.243 29.773 139.105 28.9177C138.967 28.0625 140.039 27.2209 141.497 27.0471C141.836 26.9404 142.18 26.9197 142.443 26.9903C143.051 27.0402 143.598 27.5254 143.64 28.2138C143.767 28.897 143.292 29.6163 142.614 29.8297Z" fill="#F1F3F9" stroke="#D6DCE8" stroke-width="2" stroke-miterlimit="10" stroke-linejoin="round"/>
<path d="M113.291 54.9054C112.392 35.616 128.769 29.3654 137.804 28.8231" stroke="#D6DCE8" stroke-width="2" stroke-miterlimit="10" stroke-dasharray="4 4"/>
</svg>
