<svg width="148" height="120" viewBox="0 0 148 120" fill="none" xmlns="http://www.w3.org/2000/svg">
<path d="M70.6944 118.819C98.6944 118.819 121.394 96.1188 121.394 68.0188C121.394 39.9188 98.5944 17.2188 70.6944 17.2188C42.6944 17.2188 19.9944 39.9188 19.9944 68.0188C19.9944 96.1188 42.6944 118.819 70.6944 118.819Z" fill="#F1F3F9" stroke="#D6DCE8" stroke-width="2" stroke-miterlimit="10"/>
<path d="M118.094 34.7189C120.359 34.7189 122.194 32.8832 122.194 30.6189C122.194 28.3545 120.359 26.5189 118.094 26.5189C115.83 26.5189 113.994 28.3545 113.994 30.6189C113.994 32.8832 115.83 34.7189 118.094 34.7189Z" fill="#F1F3F9"/>
<path d="M124.094 18.7188C125.641 18.7188 126.894 17.4652 126.894 15.9188C126.894 14.3724 125.641 13.1188 124.094 13.1188C122.548 13.1188 121.294 14.3724 121.294 15.9188C121.294 17.4652 122.548 18.7188 124.094 18.7188Z" fill="#F1F3F9"/>
<path d="M22.6944 34.6189C24.2408 34.6189 25.4944 33.3653 25.4944 31.8189C25.4944 30.2725 24.2408 29.0189 22.6944 29.0189C21.148 29.0189 19.8944 30.2725 19.8944 31.8189C19.8944 33.3653 21.148 34.6189 22.6944 34.6189Z" fill="#EAEEF9"/>
<path d="M5.59442 88.6188C8.4663 88.6188 10.7944 86.2907 10.7944 83.4188C10.7944 80.5469 8.4663 78.2188 5.59442 78.2188C2.72254 78.2188 0.394417 80.5469 0.394417 83.4188C0.394417 86.2907 2.72254 88.6188 5.59442 88.6188Z" fill="#F1F3F9"/>
<path d="M147.963 52.0691H143.002V47.1079H138.75V52.0691H133.789V56.4632H138.75V61.4244H143.002V56.4632H147.963V52.0691Z" fill="#AAB2C5"/>
<path d="M65.8626 5.12142H61.6215V0.880371H57.9863V5.12142H53.7453V8.87778H57.9863V13.1188H61.6215V8.87778H65.8626V5.12142Z" fill="#AAB2C5"/>
<path d="M15.9474 47.4332H12.3238V43.8097H9.21796V47.4332H5.59442V50.6426H9.21796V54.2662H12.3238V50.6426H15.9474V47.4332Z" fill="#AAB2C5"/>
<path d="M106.359 58.2222L96.3451 33.7707C94.5598 29.4237 89.9023 26.9397 85.3225 27.9489L59.4737 33.5378C57.3003 34.0035 55.4373 35.4784 54.3506 37.419L29.7438 84.3038C28.7347 86.2444 29.4333 88.7284 31.4515 89.7375L76.0076 113.18C77.9482 114.189 80.4322 113.49 81.4413 111.472L106.048 64.5874C107.135 62.6468 107.212 60.318 106.359 58.2222ZM81.5966 48.364C78.414 46.7339 77.172 42.775 78.8797 39.5925C80.5098 36.4099 84.4687 35.1679 87.6512 36.8756C90.8338 38.5057 92.0758 42.4645 90.3681 45.6471C88.738 48.8297 84.7792 50.0717 81.5966 48.364Z" fill="white" stroke="#D6DCE8" stroke-width="2" stroke-miterlimit="10"/>
<path d="M84.7791 42.3869C105.039 31.9077 113.034 16.3053 102.477 9.55197C91.9206 2.79869 81.5189 9.55197 78.8797 29.1908" stroke="#AAB2C5" stroke-width="5" stroke-miterlimit="10" stroke-linecap="round" stroke-linejoin="round"/>
<path d="M80.5163 75.7736C81.8869 76.5323 83.712 76.0079 84.4707 74.6373C85.2294 73.2668 84.7049 71.4417 83.3344 70.683C81.9638 69.9243 80.1387 70.4487 79.38 71.8193C78.5671 73.2877 79.0478 74.9607 80.5163 75.7736Z" fill="#AAB2C5"/>
<path d="M72.706 79.3544L71.4333 78.6499C71.6571 75.7042 69.3058 73.2515 66.4039 73.1798C65.306 73.0837 64.0893 73.4333 63.21 74.0976L61.9373 73.3931C64.6942 70.9544 69.0856 71.339 71.3721 74.1396C72.4175 75.4857 73.0399 77.365 72.706 79.3544Z" fill="#AAB2C5"/>
<path d="M60.9369 64.935C62.3075 65.6937 64.1325 65.1692 64.8913 63.7987C65.65 62.4281 65.1255 60.603 63.755 59.8443C62.3844 59.0856 60.5593 59.61 59.8006 60.9806C59.0856 62.5032 59.5663 64.1762 60.9369 64.935Z" fill="#AAB2C5"/>
</svg>
