<svg width="148" height="120" viewBox="0 0 148 120" fill="none" xmlns="http://www.w3.org/2000/svg">
<path d="M70.721 118.819C98.721 118.819 121.421 96.1188 121.421 68.0188C121.421 39.9188 98.621 17.2188 70.721 17.2188C42.721 17.2188 20.021 39.9188 20.021 68.0188C20.021 96.1188 42.721 118.819 70.721 118.819Z" fill="#F1F3F9" stroke="#D6DCE8" stroke-width="2" stroke-miterlimit="10"/>
<path d="M118.121 34.7189C120.385 34.7189 122.221 32.8832 122.221 30.6189C122.221 28.3545 120.385 26.5189 118.121 26.5189C115.857 26.5189 114.021 28.3545 114.021 30.6189C114.021 32.8832 115.857 34.7189 118.121 34.7189Z" fill="#F1F3F9"/>
<path d="M124.121 18.7188C125.667 18.7188 126.921 17.4652 126.921 15.9188C126.921 14.3724 125.667 13.1188 124.121 13.1188C122.575 13.1188 121.321 14.3724 121.321 15.9188C121.321 17.4652 122.575 18.7188 124.121 18.7188Z" fill="#F1F3F9"/>
<path d="M22.721 34.6189C24.2674 34.6189 25.521 33.3653 25.521 31.8189C25.521 30.2725 24.2674 29.0189 22.721 29.0189C21.1746 29.0189 19.921 30.2725 19.921 31.8189C19.921 33.3653 21.1746 34.6189 22.721 34.6189Z" fill="#EAEEF9"/>
<path d="M5.62103 88.6188C8.49291 88.6188 10.821 86.2907 10.821 83.4188C10.821 80.5469 8.49291 78.2188 5.62103 78.2188C2.74915 78.2188 0.421028 80.5469 0.421028 83.4188C0.421028 86.2907 2.74915 88.6188 5.62103 88.6188Z" fill="#F1F3F9"/>
<path d="M147.99 52.0691H143.029V47.1079H138.776V52.0691H133.815V56.4632H138.776V61.4244H143.029V56.4632H147.99V52.0691Z" fill="#AAB2C5"/>
<path d="M65.8892 5.12142H61.6481V0.880371H58.013V5.12142H53.7719V8.87778H58.013V13.1188H61.6481V8.87778H65.8892V5.12142Z" fill="#AAB2C5"/>
<path d="M15.974 47.4332H12.3505V43.8097H9.24457V47.4332H5.62103V50.6426H9.24457V54.2662H12.3505V50.6426H15.974V47.4332Z" fill="#AAB2C5"/>
<path d="M106.385 58.2222L96.3717 33.7707C94.5864 29.4237 89.9289 26.9397 85.3491 27.9489L59.5004 33.5378C57.3269 34.0035 55.4639 35.4784 54.3772 37.419L29.7704 84.3038C28.7613 86.2444 29.4599 88.7284 31.4781 89.7375L76.0343 113.18C77.9749 114.189 80.4588 113.49 81.4679 111.472L106.075 64.5874C107.161 62.6468 107.239 60.318 106.385 58.2222ZM81.6232 48.364C78.4406 46.7339 77.1986 42.775 78.9063 39.5925C80.5364 36.4099 84.4953 35.1679 87.6778 36.8756C90.8604 38.5057 92.1024 42.4645 90.3947 45.6471C88.7646 48.8297 84.8058 50.0717 81.6232 48.364Z" fill="white" stroke="#D6DCE8" stroke-width="2" stroke-miterlimit="10"/>
<path d="M84.8058 42.3869C105.066 31.9077 113.061 16.3053 102.504 9.55197C91.9472 2.79869 81.5456 9.55197 78.9063 29.1908" stroke="#AAB2C5" stroke-width="5" stroke-miterlimit="10" stroke-linecap="round" stroke-linejoin="round"/>
<path d="M111.935 88.3024C111.612 89.6731 111.129 91.1244 110.564 92.3338C109.032 95.3171 106.614 97.6553 103.63 99.1872C100.566 100.719 96.9381 101.364 93.3099 100.558C84.7633 98.7841 79.2805 90.3987 81.0544 81.8521C82.8282 73.3055 91.1329 67.7422 99.6795 69.5966C102.743 70.2417 105.404 71.7736 107.662 73.8699C111.451 77.6595 113.064 83.1422 111.935 88.3024Z" fill="#D6DCE8" stroke="#AAB2C5" stroke-width="2" stroke-miterlimit="10"/>
<path d="M101.534 82.7065H98.9055V80.0782C98.9055 78.8391 97.9314 77.7075 96.5348 77.7075C95.2957 77.7075 94.1641 78.6816 94.1641 80.0782V82.7065H91.5358C90.2968 82.7065 89.1652 83.6805 89.1652 85.0772C89.1652 85.7198 89.3942 86.3251 89.841 86.772C90.2879 87.2188 90.8932 87.4478 91.5358 87.4478H94.1641V90.0761C94.1641 91.3152 95.1381 92.4468 96.5348 92.4468C97.7739 92.4468 98.9055 91.4727 98.9055 90.0761V87.4478H101.534C102.773 87.4478 103.904 86.4738 103.904 85.0772C103.904 83.6805 102.773 82.7065 101.534 82.7065Z" fill="white" stroke="#AAB2C5" stroke-width="2"/>
</svg>
