<svg width="134" height="121" viewBox="0 0 134 121" fill="none" xmlns="http://www.w3.org/2000/svg">
<path d="M70.6194 119.083C98.6194 119.083 121.319 96.3825 121.319 68.2825C121.319 40.1825 98.5194 17.4825 70.6194 17.4825C42.6194 17.4825 19.9194 40.1825 19.9194 68.2825C19.9194 96.3825 42.6194 119.083 70.6194 119.083Z" fill="#F1F3F9" stroke="#D6DCE8" stroke-width="2" stroke-miterlimit="10"/>
<path d="M124.469 101.059C126.734 101.059 128.569 99.2238 128.569 96.9594C128.569 94.695 126.734 92.8594 124.469 92.8594C122.205 92.8594 120.369 94.695 120.369 96.9594C120.369 99.2238 122.205 101.059 124.469 101.059Z" fill="#EFF2F8"/>
<path d="M130.469 85.0594C132.016 85.0594 133.269 83.8058 133.269 82.2594C133.269 80.713 132.016 79.4594 130.469 79.4594C128.923 79.4594 127.669 80.713 127.669 82.2594C127.669 83.8058 128.923 85.0594 130.469 85.0594Z" fill="#EFF2F8"/>
<path d="M22.6195 34.8825C24.1659 34.8825 25.4195 33.6289 25.4195 32.0825C25.4195 30.5361 24.1659 29.2825 22.6195 29.2825C21.0731 29.2825 19.8195 30.5361 19.8195 32.0825C19.8195 33.6289 21.0731 34.8825 22.6195 34.8825Z" fill="#EFF2F8"/>
<path d="M5.51946 88.8825C8.39134 88.8825 10.7195 86.5544 10.7195 83.6825C10.7195 80.8106 8.39134 78.4825 5.51946 78.4825C2.64758 78.4825 0.319458 80.8106 0.319458 83.6825C0.319458 86.5544 2.64758 88.8825 5.51946 88.8825Z" fill="#EFF2F8"/>
<path d="M76.9808 86.7006H65.7136C63.1029 86.7006 60.9044 89.1089 60.9044 91.9688V98.1402C60.9044 104.462 65.5762 109.58 71.3472 109.58C77.1182 109.58 81.7899 104.462 81.7899 98.1402V91.9688C81.7899 88.9584 79.5914 86.7006 76.9808 86.7006Z" fill="white" stroke="#D6DCE8" stroke-width="2" stroke-miterlimit="10"/>
<path fill-rule="evenodd" clip-rule="evenodd" d="M75.9807 27.5664C87.0054 30.1165 95.2174 39.9899 95.2174 51.789V54.9484C95.2174 81.5967 115.278 99.0418 115.278 99.0418H25.2784C25.2784 99.0418 45.4769 81.5967 45.4769 54.9484V51.789C45.4769 39.9899 53.6889 30.1165 64.7136 27.5664V26.5143C64.7136 23.355 67.1868 20.8824 70.3471 20.8824C73.5075 20.8824 75.9807 23.355 75.9807 26.5143V27.5664Z" fill="white"/>
<path d="M75.9807 27.5664H74.9807V28.3615L75.7554 28.5406L75.9807 27.5664ZM115.278 99.0418V100.042H117.952L115.935 98.2872L115.278 99.0418ZM25.2784 99.0418L24.6248 98.285L22.5907 100.042H25.2784V99.0418ZM64.7136 27.5664L64.9389 28.5406L65.7136 28.3615V27.5664H64.7136ZM96.2174 51.789C96.2174 39.5142 87.6742 29.2448 76.2061 26.5921L75.7554 28.5406C86.3367 30.9882 94.2174 40.4657 94.2174 51.789H96.2174ZM96.2174 54.9484V51.789H94.2174V54.9484H96.2174ZM115.278 99.0418C115.935 98.2872 115.935 98.2874 115.935 98.2875C115.935 98.2874 115.935 98.2875 115.935 98.2874C115.935 98.2872 115.934 98.2867 115.933 98.286C115.932 98.2845 115.929 98.282 115.925 98.2784C115.916 98.2712 115.904 98.2599 115.886 98.2443C115.851 98.2132 115.798 98.1654 115.728 98.1012C115.587 97.9727 115.378 97.7784 115.111 97.5204C114.576 97.0042 113.806 96.2334 112.881 95.2239C111.03 93.2043 108.558 90.2339 106.086 86.4421C101.138 78.8528 96.2174 68.0182 96.2174 54.9484H94.2174C94.2174 68.527 99.3278 79.739 104.41 87.5344C106.953 91.4348 109.496 94.4913 111.407 96.5753C112.362 97.6177 113.16 98.4179 113.722 98.9599C114.003 99.231 114.225 99.4375 114.379 99.5776C114.455 99.6476 114.515 99.701 114.556 99.7376C114.576 99.7558 114.592 99.7699 114.603 99.7797C114.609 99.7846 114.613 99.7885 114.616 99.7912C114.618 99.7926 114.619 99.7938 114.62 99.7946C114.621 99.795 114.621 99.7955 114.621 99.7957C114.622 99.7961 114.622 99.7964 115.278 99.0418ZM25.2784 100.042H115.278V98.0418H25.2784V100.042ZM44.4769 54.9484C44.4769 68.0164 39.5237 78.8501 34.5417 86.4394C32.0525 90.2313 29.5636 93.2017 27.6996 95.2214C26.7679 96.2309 25.9935 97.0018 25.4546 97.518C25.1852 97.7761 24.9748 97.9704 24.8332 98.0989C24.7624 98.1632 24.7088 98.211 24.6737 98.2421C24.6561 98.2576 24.6431 98.269 24.6349 98.2762C24.6308 98.2797 24.6279 98.2823 24.6262 98.2837C24.6254 98.2845 24.6248 98.2849 24.6246 98.2852C24.6245 98.2853 24.6245 98.2852 24.6245 98.2853C24.6246 98.2852 24.6248 98.285 25.2784 99.0418C25.9321 99.7986 25.9324 99.7983 25.9329 99.7979C25.9331 99.7977 25.9336 99.7973 25.9341 99.7968C25.9351 99.796 25.9364 99.7949 25.938 99.7935C25.9412 99.7907 25.9456 99.7868 25.9512 99.7819C25.9624 99.7721 25.9785 99.7581 25.9991 99.7398C26.0404 99.7033 26.1002 99.6499 26.1774 99.5798C26.3317 99.4398 26.5552 99.2333 26.8381 98.9623C27.4038 98.4204 28.2074 97.6202 29.1693 96.5778C31.0926 94.4939 33.6532 91.4375 36.2136 87.537C41.3309 79.7417 46.4769 68.5288 46.4769 54.9484H44.4769ZM44.4769 51.789V54.9484H46.4769V51.789H44.4769ZM64.4882 26.5921C53.0201 29.2448 44.4769 39.5142 44.4769 51.789H46.4769C46.4769 40.4657 54.3576 30.9882 64.9389 28.5406L64.4882 26.5921ZM65.7136 27.5664V26.5143H63.7136V27.5664H65.7136ZM65.7136 26.5143C65.7136 23.9075 67.7388 21.8824 70.3471 21.8824V19.8824C66.6348 19.8824 63.7136 22.8024 63.7136 26.5143H65.7136ZM70.3471 21.8824C72.9555 21.8824 74.9807 23.9075 74.9807 26.5143H76.9807C76.9807 22.8024 74.0594 19.8824 70.3471 19.8824V21.8824ZM74.9807 26.5143V27.5664H76.9807V26.5143H74.9807Z" fill="#D6DCE8"/>
<path d="M59.9044 65.8C56.4693 65.8 53.5838 63.6022 52.4845 60.4429C52.2097 59.7561 52.6219 59.0693 53.3089 58.7945C53.996 58.5198 54.683 58.9319 54.9578 59.6187C55.6448 61.6791 57.7059 63.1901 59.9044 63.1901C62.1028 63.1901 64.1639 61.8165 64.8509 59.6187C65.1257 58.9319 65.8128 58.5198 66.4998 58.7945C67.1868 59.0693 67.599 59.7561 67.3242 60.4429C66.225 63.7396 63.3395 65.8 59.9044 65.8Z" fill="#AAB2C5"/>
<path d="M80.6525 65.8C77.2174 65.8 74.3319 63.6022 73.2326 60.4429C72.9578 59.7561 73.37 59.0693 74.057 58.7945C74.7441 58.5198 75.4311 58.9319 75.7059 59.6187C76.3929 61.6791 78.454 63.1901 80.6525 63.1901C82.8509 63.1901 84.912 61.8165 85.599 59.6187C85.8738 58.9319 86.5609 58.5198 87.2479 58.7945C87.9349 59.0693 88.3471 59.7561 88.0723 60.4429C86.9731 63.7396 84.0876 65.8 80.6525 65.8Z" fill="#AAB2C5"/>
<path d="M70.3471 82.6187C72.0925 82.6187 73.5074 81.2042 73.5074 79.4594C73.5074 77.7145 72.0925 76.3 70.3471 76.3C68.6017 76.3 67.1868 77.7145 67.1868 79.4594C67.1868 81.2042 68.6017 82.6187 70.3471 82.6187Z" fill="#AAB2C5"/>
<path d="M87.2814 5.11134V0.46167H105.252V5.11134L92.9895 19.9057H105.463V24.5554H86.6472V19.9057L98.9091 5.11134H87.2814V5.11134Z" fill="#AAB2C5"/>
<path d="M102.08 39.9838V37.025H113.708V39.9838L105.886 49.4945H113.919V52.4534H101.657V49.4945L109.48 39.9838H102.08Z" fill="#AAB2C5"/>
</svg>
