<svg width="124" height="109" viewBox="0 0 124 109" fill="none" xmlns="http://www.w3.org/2000/svg">
<path d="M57.3876 107.272C85.2771 107.272 107.888 84.706 107.888 56.772C107.888 28.8379 85.2771 6.27197 57.3876 6.27197C29.498 6.27197 6.88757 28.8379 6.88757 56.772C6.88757 84.706 29.498 107.272 57.3876 107.272Z" fill="#F1F3F9" stroke="#D6DCE8" stroke-width="2" stroke-miterlimit="10"/>
<path d="M114.288 36.172C116.552 36.172 118.388 34.3364 118.388 32.072C118.388 29.8076 116.552 27.972 114.288 27.972C112.023 27.972 110.188 29.8076 110.188 32.072C110.188 34.3364 112.023 36.172 114.288 36.172Z" fill="#F1F3F9"/>
<path d="M120.288 20.072C121.834 20.072 123.088 18.8184 123.088 17.272C123.088 15.7256 121.834 14.472 120.288 14.472C118.741 14.472 117.488 15.7256 117.488 17.272C117.488 18.8184 118.741 20.072 120.288 20.072Z" fill="#F1F3F9"/>
<path d="M3.68757 39.072C5.23397 39.072 6.48757 37.8184 6.48757 36.272C6.48757 34.7256 5.23397 33.472 3.68757 33.472C2.14118 33.472 0.887573 34.7256 0.887573 36.272C0.887573 37.8184 2.14118 39.072 3.68757 39.072Z" fill="#F1F3F9"/>
<path d="M8.88756 99.972C11.7594 99.972 14.0876 97.6439 14.0876 94.772C14.0876 91.9001 11.7594 89.572 8.88756 89.572C6.01568 89.572 3.68756 91.9001 3.68756 94.772C3.68756 97.6439 6.01568 99.972 8.88756 99.972Z" fill="#F1F3F9"/>
<path d="M61.79 11.5835H53.3998V17.0442H61.79V11.5835Z" fill="#F1F3F9" stroke="#D6DCE8" stroke-width="2" stroke-miterlimit="10"/>
<path d="M29.987 22.4612L25.434 27.0119L28.7453 30.3215L33.2984 25.7708L29.987 22.4612Z" fill="#F1F3F9" stroke="#D6DCE8" stroke-width="2" stroke-miterlimit="10"/>
<path d="M83.2299 25.4355L87.7829 29.9862L90.7493 27.0213L86.1962 22.4706L83.2299 25.4355Z" fill="#F1F3F9" stroke="#D6DCE8" stroke-width="2" stroke-miterlimit="10"/>
<path d="M57.2778 97.0123C79.5847 97.0123 97.6681 78.9379 97.6681 56.6421C97.6681 34.3463 79.5847 16.272 57.2778 16.272C34.9709 16.272 16.8876 34.3463 16.8876 56.6421C16.8876 78.9379 34.9709 97.0123 57.2778 97.0123Z" fill="white" stroke="#D6DCE8" stroke-width="2" stroke-miterlimit="10"/>
<path d="M88.912 56.7685C88.912 57.1585 88.912 57.4511 88.912 57.8411C88.3266 74.7108 74.4729 88.265 57.3998 88.265C40.3266 88.265 26.4729 74.7108 25.8876 57.8411C25.8876 57.4511 25.8876 57.1585 25.8876 56.7685C25.8876 39.8013 39.351 25.857 56.229 25.272C56.6193 25.272 57.0095 25.272 57.3998 25.272C74.6681 25.272 88.6193 39.1187 88.912 56.1834C88.912 56.3784 88.912 56.5735 88.912 56.7685Z" fill="white" stroke="#D6DCE8" stroke-width="2" stroke-miterlimit="10"/>
<path opacity="0.3" d="M66.668 76.5266H48.6192C47.7412 76.5266 47.0582 75.844 47.0582 74.9664V65.9953C47.0582 65.1176 47.7412 64.4351 48.6192 64.4351H66.668C67.546 64.4351 68.229 65.1176 68.229 65.9953V74.9664C68.229 75.844 67.546 76.5266 66.668 76.5266Z" fill="#C9D3E1"/>
<path d="M85.5949 57.9993H80.4241C79.5461 57.9993 78.8632 57.3167 78.8632 56.4391C78.8632 55.5615 79.5461 54.8789 80.4241 54.8789H85.5949C86.4729 54.8789 87.1558 55.5615 87.1558 56.4391C87.1558 57.3167 86.3754 57.9993 85.5949 57.9993Z" fill="#D6DCE8"/>
<path d="M34.5705 57.9993H29.3997C28.5217 57.9993 27.8387 57.3167 27.8387 56.4391C27.8387 55.5615 28.5217 54.8789 29.3997 54.8789H34.5705C35.4485 54.8789 36.1314 55.5615 36.1314 56.4391C36.1314 57.3167 35.3509 57.9993 34.5705 57.9993Z" fill="#D6DCE8"/>
<path d="M57.4974 86.1804C56.6193 86.1804 55.9364 85.4978 55.9364 84.6202V79.452C55.9364 78.5744 56.6193 77.8918 57.4974 77.8918C58.3754 77.8918 59.0583 78.5744 59.0583 79.452V84.6202C58.9608 85.4978 58.2779 86.1804 57.4974 86.1804Z" fill="#D6DCE8"/>
<path d="M57.4974 35.1814C56.6193 35.1814 55.9364 34.4988 55.9364 33.6212V28.5506C55.9364 27.6729 56.6193 26.9904 57.4974 26.9904C58.3754 26.9904 59.0583 27.6729 59.0583 28.5506V33.7187C58.9608 34.4988 58.2779 35.1814 57.4974 35.1814Z" fill="#D6DCE8"/>
<path d="M57.8878 60.7297C60.528 60.7297 62.6683 58.5904 62.6683 55.9516C62.6683 53.3127 60.528 51.1735 57.8878 51.1735C55.2476 51.1735 53.1073 53.3127 53.1073 55.9516C53.1073 58.5904 55.2476 60.7297 57.8878 60.7297Z" fill="#F2F5FC"/>
<path opacity="0.3" d="M78.1802 37.0341C77.5948 36.5466 76.7168 36.5466 76.229 37.0341L59.3509 54.7814C59.2534 54.7814 59.2534 54.7814 59.1558 54.7814C57.8875 54.7814 56.9119 55.7565 56.9119 57.0242C56.9119 57.1217 56.9119 57.2192 56.9119 57.3167L54.1802 60.1446C53.6924 60.7297 53.6924 61.6073 54.1802 62.0948C54.4729 62.3874 54.7656 62.4849 55.1558 62.4849C55.546 62.4849 55.9363 62.3874 56.1314 62.0948L58.8631 59.267C58.9607 59.267 59.0582 59.267 59.0582 59.267C60.3265 59.267 61.3021 58.2918 61.3021 57.0242C61.3021 56.9267 61.3021 56.8292 61.3021 56.7316L78.1802 39.0819C78.7655 38.3993 78.7655 37.5217 78.1802 37.0341Z" fill="#DAE1ED"/>
<path d="M76.9119 35.9615C76.3265 35.4739 75.4485 35.4739 74.9607 35.9615L58.0826 53.7088C57.985 53.7088 57.985 53.7088 57.8875 53.7088C56.6192 53.7088 55.6436 54.6839 55.6436 55.9515C55.6436 56.0491 55.6436 56.1466 55.6436 56.2441L52.9119 59.0719C52.4241 59.657 52.4241 60.5346 52.9119 61.0222C53.2046 61.3147 53.4972 61.4122 53.8875 61.4122C54.2777 61.4122 54.668 61.3147 54.8631 61.0222L57.5948 58.1943C57.6924 58.1943 57.7899 58.1943 57.7899 58.1943C59.0582 58.1943 60.0338 57.2192 60.0338 55.9515C60.0338 55.854 60.0338 55.7565 60.0338 55.659L76.9119 38.0093C77.4972 37.3267 77.3997 36.4491 76.9119 35.9615Z" fill="#AAB2C5"/>
<path d="M65.7901 3.87993V9.1456C65.7901 11.1934 64.1316 12.7536 62.1803 12.7536H53.2047C51.1559 12.7536 49.595 11.0959 49.595 9.1456V3.87993C49.595 1.83217 51.2535 0.271973 53.2047 0.271973H62.1803C64.2291 0.271973 65.7901 1.92968 65.7901 3.87993Z" fill="#AAB2C5"/>
<path d="M30.8634 22.8949L25.9853 27.7705C24.9122 28.8431 23.1561 28.8431 21.9853 27.7705L19.1561 24.9426C18.0829 23.87 18.0829 22.1148 19.1561 20.9446L24.0341 16.069C25.1073 14.9964 26.8634 14.9964 28.0341 16.069L30.8634 18.8969C31.9366 20.067 31.9366 21.8222 30.8634 22.8949Z" fill="#AAB2C5"/>
<path d="M85.3021 22.8949L90.1801 27.7705C91.2533 28.8431 93.0094 28.8431 94.1801 27.7705L97.0094 24.9426C98.0826 23.87 98.0826 22.1148 97.0094 20.9446L92.1313 16.069C91.0582 14.9964 89.3021 14.9964 88.1313 16.069L85.3021 18.8969C84.2289 20.067 84.2289 21.8222 85.3021 22.8949Z" fill="#AAB2C5"/>
<path d="M57.8877 56.342C58.1032 56.342 58.2779 56.1673 58.2779 55.9518C58.2779 55.7362 58.1032 55.5615 57.8877 55.5615C57.6722 55.5615 57.4974 55.7362 57.4974 55.9518C57.4974 56.1673 57.6722 56.342 57.8877 56.342Z" fill="white"/>
<path d="M107.601 85.9146C107.201 87.6146 106.601 89.4146 105.901 90.9146C104.001 94.6146 101.001 97.5146 97.3009 99.4146C93.5009 101.315 89.0009 102.115 84.5009 101.115C73.9009 98.9146 67.1009 88.5146 69.3009 77.9146C71.5009 67.3146 81.8009 60.4146 92.4009 62.7146C96.2009 63.5146 99.5009 65.4146 102.301 68.0146C107.001 72.7146 109.001 79.5146 107.601 85.9146Z" fill="#D6DCE8" stroke="#AAB2C5" stroke-width="2" stroke-miterlimit="10"/>
<path d="M94.2736 79.1581H91.0015V75.8859C91.0015 74.5181 89.9273 73.272 88.3876 73.272C87.0197 73.272 85.7737 74.3462 85.7737 75.8859V79.1581H82.5015C81.1337 79.1581 79.8876 80.2322 79.8876 81.772C79.8876 82.4862 80.1417 83.1523 80.6314 83.6421C81.1212 84.1318 81.7873 84.3859 82.5015 84.3859H85.7737V87.658C85.7737 89.0259 86.8478 90.272 88.3876 90.272C89.7554 90.272 91.0015 89.1978 91.0015 87.658V84.3859H94.2736C95.6415 84.3859 96.8876 83.3117 96.8876 81.772C96.8876 80.2322 95.6415 79.1581 94.2736 79.1581Z" fill="white" stroke="#AAB2C5" stroke-width="2"/>
</svg>
