<svg width="123" height="109" viewBox="0 0 123 109" fill="none" xmlns="http://www.w3.org/2000/svg">
<path d="M56.579 107.272C84.4685 107.272 107.079 84.706 107.079 56.772C107.079 28.8379 84.4685 6.27197 56.579 6.27197C28.6894 6.27197 6.07898 28.8379 6.07898 56.772C6.07898 84.706 28.6894 107.272 56.579 107.272Z" fill="#F1F3F9" stroke="#D6DCE8" stroke-width="2" stroke-miterlimit="10"/>
<path d="M113.479 36.172C115.743 36.172 117.579 34.3364 117.579 32.072C117.579 29.8076 115.743 27.972 113.479 27.972C111.215 27.972 109.379 29.8076 109.379 32.072C109.379 34.3364 111.215 36.172 113.479 36.172Z" fill="#F1F3F9"/>
<path d="M119.479 20.072C121.025 20.072 122.279 18.8184 122.279 17.272C122.279 15.7256 121.025 14.472 119.479 14.472C117.933 14.472 116.679 15.7256 116.679 17.272C116.679 18.8184 117.933 20.072 119.479 20.072Z" fill="#F1F3F9"/>
<path d="M2.87898 39.072C4.42538 39.072 5.67898 37.8184 5.67898 36.272C5.67898 34.7256 4.42538 33.472 2.87898 33.472C1.33258 33.472 0.0789795 34.7256 0.0789795 36.272C0.0789795 37.8184 1.33258 39.072 2.87898 39.072Z" fill="#F1F3F9"/>
<path d="M8.07897 99.972C10.9508 99.972 13.279 97.6439 13.279 94.772C13.279 91.9001 10.9508 89.572 8.07897 89.572C5.20709 89.572 2.87897 91.9001 2.87897 94.772C2.87897 97.6439 5.20709 99.972 8.07897 99.972Z" fill="#F1F3F9"/>
<path d="M60.9814 11.5835H52.5912V17.0442H60.9814V11.5835Z" fill="#F1F3F9" stroke="#D6DCE8" stroke-width="2" stroke-miterlimit="10"/>
<path d="M29.1784 22.4612L24.6254 27.0119L27.9367 30.3215L32.4897 25.7708L29.1784 22.4612Z" fill="#F1F3F9" stroke="#D6DCE8" stroke-width="2" stroke-miterlimit="10"/>
<path d="M82.4213 25.4355L86.9743 29.9862L89.9407 27.0213L85.3876 22.4706L82.4213 25.4355Z" fill="#F1F3F9" stroke="#D6DCE8" stroke-width="2" stroke-miterlimit="10"/>
<path d="M56.4692 97.0123C78.7761 97.0123 96.8595 78.9379 96.8595 56.6421C96.8595 34.3463 78.7761 16.272 56.4692 16.272C34.1623 16.272 16.079 34.3463 16.079 56.6421C16.079 78.9379 34.1623 97.0123 56.4692 97.0123Z" fill="white" stroke="#D6DCE8" stroke-width="2" stroke-miterlimit="10"/>
<path d="M88.1034 56.7685C88.1034 57.1585 88.1034 57.4511 88.1034 57.8411C87.518 74.7108 73.6643 88.265 56.5912 88.265C39.518 88.265 25.6643 74.7108 25.079 57.8411C25.079 57.4511 25.079 57.1585 25.079 56.7685C25.079 39.8013 38.5424 25.857 55.4204 25.272C55.8107 25.272 56.2009 25.272 56.5912 25.272C73.8595 25.272 87.8107 39.1187 88.1034 56.1834C88.1034 56.3784 88.1034 56.5735 88.1034 56.7685Z" fill="white" stroke="#D6DCE8" stroke-width="2" stroke-miterlimit="10"/>
<path d="M84.7863 57.9993H79.6155C78.7375 57.9993 78.0546 57.3167 78.0546 56.4391C78.0546 55.5615 78.7375 54.8789 79.6155 54.8789H84.7863C85.6643 54.8789 86.3472 55.5615 86.3472 56.4391C86.3472 57.3167 85.5668 57.9993 84.7863 57.9993Z" fill="#D6DCE8"/>
<path d="M33.7619 57.9993H28.5911C27.7131 57.9993 27.0301 57.3167 27.0301 56.4391C27.0301 55.5615 27.7131 54.8789 28.5911 54.8789H33.7619C34.6399 54.8789 35.3228 55.5615 35.3228 56.4391C35.3228 57.3167 34.5423 57.9993 33.7619 57.9993Z" fill="#D6DCE8"/>
<path d="M56.6888 86.1804C55.8107 86.1804 55.1278 85.4978 55.1278 84.6202V79.452C55.1278 78.5744 55.8107 77.8918 56.6888 77.8918C57.5668 77.8918 58.2497 78.5744 58.2497 79.452V84.6202C58.1522 85.4978 57.4693 86.1804 56.6888 86.1804Z" fill="#D6DCE8"/>
<path d="M56.6888 35.1814C55.8107 35.1814 55.1278 34.4988 55.1278 33.6212V28.5506C55.1278 27.6729 55.8107 26.9904 56.6888 26.9904C57.5668 26.9904 58.2497 27.6729 58.2497 28.5506V33.7187C58.1522 34.4988 57.4693 35.1814 56.6888 35.1814Z" fill="#D6DCE8"/>
<path d="M57.0792 60.7297C59.7194 60.7297 61.8597 58.5904 61.8597 55.9516C61.8597 53.3127 59.7194 51.1735 57.0792 51.1735C54.439 51.1735 52.2987 53.3127 52.2987 55.9516C52.2987 58.5904 54.439 60.7297 57.0792 60.7297Z" fill="#F2F5FC"/>
<path d="M64.9815 3.87993V9.1456C64.9815 11.1934 63.323 12.7536 61.3717 12.7536H52.3961C50.3473 12.7536 48.7864 11.0959 48.7864 9.1456V3.87993C48.7864 1.83217 50.4449 0.271973 52.3961 0.271973H61.3717C63.4205 0.271973 64.9815 1.92968 64.9815 3.87993Z" fill="#AAB2C5"/>
<path d="M30.0548 22.8949L25.1767 27.7705C24.1036 28.8431 22.3475 28.8431 21.1767 27.7705L18.3475 24.9426C17.2743 23.87 17.2743 22.1148 18.3475 20.9446L23.2255 16.069C24.2987 14.9964 26.0548 14.9964 27.2255 16.069L30.0548 18.8969C31.128 20.067 31.128 21.8222 30.0548 22.8949Z" fill="#AAB2C5"/>
<path d="M84.4935 22.8949L89.3715 27.7705C90.4447 28.8431 92.2008 28.8431 93.3715 27.7705L96.2008 24.9426C97.274 23.87 97.274 22.1148 96.2008 20.9446L91.3227 16.069C90.2496 14.9964 88.4935 14.9964 87.3227 16.069L84.4935 18.8969C83.4203 20.067 83.4203 21.8222 84.4935 22.8949Z" fill="#AAB2C5"/>
<path opacity="0.3" d="M84.8065 57.2496C84.7474 56.4902 84.135 55.8613 83.4455 55.852L58.9617 56.1426C58.8937 56.0727 58.8937 56.0727 58.8256 56.0028C57.941 55.0944 56.5621 55.0758 55.6541 55.9601C55.5843 56.0281 55.5145 56.0961 55.4446 56.1641L51.5138 56.1801C50.7545 56.2388 50.126 56.8509 50.117 57.5404C50.1116 57.9541 50.2459 58.2317 50.5181 58.5112C50.7903 58.7907 51.1324 59.0022 51.478 58.9379L55.4088 58.9219C55.4769 58.9918 55.5449 59.0617 55.5449 59.0617C56.4296 59.9701 57.8085 59.9887 58.7164 59.1045C58.7862 59.0364 58.8561 58.9684 58.9259 58.9004L83.3399 58.6779C84.237 58.621 84.8656 58.0089 84.8065 57.2496Z" fill="#DAE1ED"/>
<path d="M84.6901 55.5931C84.631 54.8337 84.0186 54.2049 83.3291 54.1956L58.8453 54.4861C58.7773 54.4162 58.7773 54.4162 58.7092 54.3463C57.8246 53.438 56.4457 53.4194 55.5377 54.3036C55.4679 54.3716 55.3981 54.4396 55.3282 54.5076L51.3974 54.5236C50.6381 54.5823 50.0096 55.1945 50.0006 55.8839C49.9952 56.2976 50.1295 56.5752 50.4017 56.8547C50.6739 57.1342 51.016 57.3457 51.3616 57.2814L55.2924 57.2655C55.3605 57.3353 55.4285 57.4052 55.4285 57.4052C56.3132 58.3136 57.6921 58.3322 58.6 57.448C58.6698 57.38 58.7397 57.3119 58.8095 57.2439L83.2235 57.0214C84.1206 56.9646 84.6812 56.2825 84.6901 55.5931Z" fill="#AAB2C5"/>
<path d="M56.8234 56.1831C56.9737 56.3375 57.2207 56.3408 57.3751 56.1904C57.5295 56.0401 57.5327 55.7931 57.3824 55.6387C57.2321 55.4844 56.9851 55.4811 56.8307 55.6314C56.6763 55.7818 56.6731 56.0288 56.8234 56.1831Z" fill="white"/>
<path d="M45.8498 52.0626C47.477 52.0626 48.8539 50.6857 48.8539 49.0585C48.8539 47.4312 47.477 46.0544 45.8498 46.0544C44.2225 46.0544 42.8456 47.4312 42.8456 49.0585C42.8456 50.6857 44.2225 52.0626 45.8498 52.0626Z" fill="#989FB0"/>
<path d="M68.8812 52.0626C70.5085 52.0626 71.8853 50.6857 71.8853 49.0585C71.8853 47.4312 70.5085 46.0544 68.8812 46.0544C67.254 46.0544 65.8771 47.4312 65.8771 49.0585C65.8771 50.8109 67.254 52.0626 68.8812 52.0626Z" fill="#989FB0"/>
<path d="M45.7323 39.1197L39.124 42.6878L40.0161 44.3398L46.6244 40.7717L45.7323 39.1197Z" fill="#989FB0"/>
<path d="M68.4727 39.072L67.5808 40.7243L74.1899 44.2916L75.0817 42.6394L68.4727 39.072Z" fill="#989FB0"/>
<rect x="52.603" y="66.072" width="9" height="2" fill="#989FB0"/>
</svg>
