<svg width="128" height="107" viewBox="0 0 128 107" fill="none" xmlns="http://www.w3.org/2000/svg">
<path d="M70.8445 105.968C98.8445 105.968 121.545 83.2677 121.545 55.1677C121.545 27.0677 98.7445 4.36768 70.8445 4.36768C42.8445 4.36768 20.1445 27.0677 20.1445 55.1677C20.1445 83.2677 42.8445 105.968 70.8445 105.968Z" fill="#F1F3F9" stroke="#D6DCE8" stroke-width="2" stroke-miterlimit="10"/>
<path d="M118.245 21.868C120.509 21.868 122.345 20.0323 122.345 17.768C122.345 15.5036 120.509 13.668 118.245 13.668C115.98 13.668 114.145 15.5036 114.145 17.768C114.145 20.0323 115.98 21.868 118.245 21.868Z" fill="#F1F3F9"/>
<path d="M124.245 5.86782C125.791 5.86782 127.045 4.61422 127.045 3.06782C127.045 1.52142 125.791 0.267822 124.245 0.267822C122.698 0.267822 121.445 1.52142 121.445 3.06782C121.445 4.61422 122.698 5.86782 124.245 5.86782Z" fill="#F1F3F9"/>
<path d="M22.8446 21.768C24.391 21.768 25.6446 20.5144 25.6446 18.968C25.6446 17.4216 24.391 16.168 22.8446 16.168C21.2982 16.168 20.0446 17.4216 20.0446 18.968C20.0446 20.5144 21.2982 21.768 22.8446 21.768Z" fill="#F1F3F9"/>
<path d="M5.74456 75.7677C8.61644 75.7677 10.9446 73.4396 10.9446 70.5677C10.9446 67.6958 8.61644 65.3677 5.74456 65.3677C2.87267 65.3677 0.544556 67.6958 0.544556 70.5677C0.544556 73.4396 2.87267 75.7677 5.74456 75.7677Z" fill="#F1F3F9"/>
<path d="M108.345 29.7678L109.145 94.1678C109.145 96.3678 107.345 98.0678 105.145 98.0678H42.3445C40.1445 98.0678 38.3445 96.2678 38.3445 94.1678V11.3678C38.3445 9.16777 40.1445 7.46777 42.3445 7.46777H87.8445L108.345 29.7678Z" fill="white" stroke="#D6DCE8" stroke-width="2" stroke-miterlimit="10"/>
<path d="M88.3544 7.46777V25.2678C88.3544 27.7678 90.5544 29.7678 93.0544 29.7678H108.854" fill="#D6DCE8"/>
<path d="M95.7471 36.8792H81.1695C81.1112 36.8792 81.1112 36.8792 81.0529 36.8792C80.9945 36.8792 80.9945 36.8792 80.9362 36.8792H65.8921C65.8338 36.8792 65.8338 36.8792 65.7755 36.8792C65.7172 36.8792 65.7172 36.8792 65.6588 36.8792H51.4894C49.915 36.8792 48.6321 38.203 48.6321 39.7571V64.9681C48.6321 66.5798 49.915 67.8461 51.4894 67.8461H95.7471C97.3215 67.8461 98.6044 66.5798 98.6044 64.9681V39.7571C98.6044 38.203 97.3215 36.8792 95.7471 36.8792ZM66.6501 59.2122V53.5714H80.1782V59.2122H66.6501ZM80.1782 60.939V66.1769H66.6501V60.939H80.1782ZM80.1782 46.1462V51.8446H66.6501V46.2038H80.1782V46.1462ZM66.6501 44.4194V38.6059H80.1782V44.4194H66.6501ZM96.855 51.8446H81.9275V46.2038H96.855V51.8446ZM64.9008 51.8446H50.3815V46.2038H64.9008V51.8446ZM50.3815 53.5714H64.9008V59.2122H50.3815V53.5714ZM81.9275 53.5714H96.855V59.2122H81.9275V53.5714ZM96.855 39.7571V44.4194H81.9275V38.6059H95.7471C96.3886 38.6059 96.855 39.124 96.855 39.7571ZM51.4894 38.6059H64.9008V44.4194H50.3815V39.7571C50.3815 39.124 50.8479 38.6059 51.4894 38.6059ZM50.3815 65.0257V60.939H64.9008V66.1769H51.4894C50.9063 66.1769 50.3815 65.6588 50.3815 65.0257ZM95.7471 66.1769H81.9275V60.939H96.855V65.0257C96.855 65.6588 96.3302 66.1769 95.7471 66.1769Z" fill="#D6DCE8"/>
<path d="M65.3409 78.0574L66.2868 79.6276C66.5448 80.0945 66.8027 80.6038 67.0607 81.0282H67.1037C67.3617 80.5189 67.5766 80.052 67.8346 79.5852L68.6945 78.0574H71.919L68.7804 82.556L71.962 87.5215H68.6085L67.6626 85.8239C67.4046 85.357 67.1467 84.8902 66.9317 84.3809H66.8027C66.5878 84.8902 66.3298 85.357 66.0718 85.8239L65.169 87.5215H61.9014L65.169 82.7258L61.9874 78.0574H65.3409Z" fill="#7E879F"/>
<path d="M73.2088 73.771H76.1754V87.5215H73.2088V73.771Z" fill="#7E879F"/>
<path d="M78.583 84.9327C79.1419 85.2722 80.2598 85.6542 81.1626 85.6542C82.0655 85.6542 82.4525 85.3571 82.4525 84.8478C82.4525 84.3385 82.1515 84.1263 81.0337 83.7868C79.0559 83.1078 78.2821 82.0468 78.3251 80.9433C78.3251 79.2033 79.8728 77.8452 82.2375 77.8452C83.3553 77.8452 84.3442 78.0999 84.9461 78.3969L84.4302 80.434C84.0002 80.2218 83.1834 79.8823 82.3665 79.8823C81.6356 79.8823 81.2486 80.1794 81.2486 80.6462C81.2486 81.1131 81.6356 81.3253 82.7964 81.7497C84.6022 82.3863 85.376 83.2775 85.419 84.678C85.419 86.4181 84.0002 87.7337 81.2486 87.7337C80.0018 87.7337 78.884 87.4791 78.1531 87.0547L78.583 84.9327Z" fill="#7E879F"/>
</svg>
