<svg width="193" height="100" viewBox="0 0 193 100" fill="none" xmlns="http://www.w3.org/2000/svg">
<path d="M156.377 74.9678C155.138 73.1776 153.118 72.1218 150.961 72.1218H132.232L126.356 63.492C125.117 61.6558 123.051 60.6 120.848 60.6H92.8468L90.0926 50.2718C89.909 49.5832 89.2204 49.1701 88.5319 49.3537L84.7678 50.3636C84.0793 50.5472 83.6661 51.2357 83.8497 51.9243L90.5976 77.0794L83.7579 91.0799L89.5418 93.9259L96.8863 78.7778C96.9781 78.5483 97.0699 78.3188 97.1158 78.0893H150.915C151.098 78.0893 151.282 78.1811 151.42 78.3647L164.364 97.3687L169.276 94.0178L156.377 74.9678ZM120.848 64.1805C121.812 64.1805 122.73 64.6855 123.281 65.4658L127.733 72.03H95.9223L93.8108 64.1346H120.848V64.1805Z" fill="#D6DCE8" stroke="#AAB2C5" stroke-width="2" stroke-miterlimit="10"/>
<path d="M185.48 98.4704H10.2665C23.9917 90.2996 42.3071 84.2403 60.7144 84.5158C82.7022 84.8371 103.818 89.9324 109.556 92.7325C125.301 91.7685 145.314 87.6372 155.78 87.9585C164.686 88.2799 177.631 90.6668 185.48 98.4704Z" fill="#F1F3F9" stroke="#D6DCE8" stroke-width="2" stroke-miterlimit="10"/>
<path d="M192.87 98.4704H185.48H10.2665H0.718628" fill="#F1F3F9"/>
<path d="M192.87 98.4704H185.48H10.2665H0.718628" stroke="#D6DCE8" stroke-width="2" stroke-miterlimit="10"/>
<path d="M70.5837 89.7487C69.6197 89.7487 68.7475 89.0602 68.5639 88.0962L52.153 3.21313C51.9235 2.11145 52.658 1.00976 53.8056 0.780247C54.9073 0.55073 56.0089 1.28518 56.2385 2.43277L72.6493 87.27C72.8788 88.3716 72.1444 89.4733 70.9968 89.7029C70.8132 89.7488 70.7214 89.7487 70.5837 89.7487Z" fill="#ADB6C8"/>
<path d="M42.9957 46.4618C43.0416 46.1864 43.1334 45.9569 43.2252 45.6815C43.2711 46.0946 43.2711 46.5077 43.317 46.9208C43.2252 46.7372 43.0875 46.5995 42.9957 46.4618Z" fill="white"/>
<path d="M79.4889 39.3009C79.443 39.3468 79.443 39.4386 79.443 39.4845C79.3971 39.3468 79.3512 39.2091 79.3053 39.0255C79.3512 39.1173 79.443 39.2091 79.4889 39.3009Z" fill="white"/>
<path d="M142.4 40.622C151.171 40.622 158.282 33.5111 158.282 24.7394C158.282 15.9677 151.171 8.85683 142.4 8.85683C133.628 8.85683 126.517 15.9677 126.517 24.7394C126.517 33.5111 133.628 40.622 142.4 40.622Z" fill="#D6DCE8" stroke="#AAB2C5" stroke-width="2" stroke-miterlimit="10"/>
<path d="M36.2938 94.385C38.0841 91.6308 41.8022 92.2734 43.3171 92.8243" stroke="#ADB6C8" stroke-width="0.918069" stroke-miterlimit="10" stroke-linecap="round" stroke-linejoin="round"/>
<path d="M61.5407 91.539C65.3048 89.1979 70.2165 90.9882 70.5837 92.7784" stroke="#ADB6C8" stroke-width="0.918069" stroke-miterlimit="10" stroke-linecap="round" stroke-linejoin="round"/>
<path d="M77.056 95.9916C77.6987 95.0736 79.1676 94.385 80.1316 95.0277" stroke="#ADB6C8" stroke-width="0.918069" stroke-miterlimit="10" stroke-linecap="round" stroke-linejoin="round"/>
<path d="M136.731 95.3949C140.541 94.1555 140.724 94.9359 141.688 95.3949" stroke="#ADB6C8" stroke-width="0.918069" stroke-miterlimit="10" stroke-linecap="round" stroke-linejoin="round"/>
<path d="M149.629 94.385C150.043 93.6505 152.062 93.9718 152.062 93.9718" stroke="#ADB6C8" stroke-width="0.918069" stroke-miterlimit="10" stroke-linecap="round" stroke-linejoin="round"/>
<path d="M108.546 26.5856C104.69 24.6577 100.191 23.9232 95.6011 24.7954C87.6598 26.2643 81.6005 32.0481 79.489 39.3009C79.4431 39.3468 79.4431 39.4386 79.4431 39.4845C79.3972 39.3468 79.3513 39.2091 79.3054 39.0254C74.715 33.1957 67.095 29.9825 59.2456 31.4514C51.3961 32.8744 45.4286 38.5664 43.2252 45.6814C43.2712 46.0946 43.2712 46.5077 43.3171 46.9208C43.2253 46.7831 43.0875 46.5995 42.9957 46.4618C38.4513 40.173 30.6018 36.7303 22.4769 38.1992C18.2079 38.9795 14.4438 41.0452 11.5978 43.8912C16.5554 24.015 32.7134 7.81111 54.1962 3.90932C75.8626 -0.0842843 96.8864 9.50954 108.546 26.5856Z" fill="#F1F3F9" stroke="#D6DCE8" stroke-width="2" stroke-miterlimit="10" stroke-linejoin="round"/>
<path d="M79.3053 39.0255C74.715 33.1957 67.095 29.9825 59.2455 31.4514C51.396 32.8744 45.4286 38.5664 43.2252 45.6815C41.3891 23.0511 45.6581 5.47004 54.242 3.90932C62.7801 2.34861 72.9706 17.2672 79.3053 39.0255Z" fill="white" stroke="#D6DCE8" stroke-width="2" stroke-miterlimit="10" stroke-linejoin="round"/>
</svg>
