<svg width="121" height="102" viewBox="0 0 121 102" fill="none" xmlns="http://www.w3.org/2000/svg">
<path d="M42.2232 30.9454V22.5454C42.2232 14.1454 48.9232 7.24536 57.4232 7.24536C65.7232 7.24536 72.6232 14.0454 72.6232 22.5454V30.9454" stroke="#D6DCE8" stroke-width="1.8941" stroke-miterlimit="10" stroke-linecap="round" stroke-linejoin="round"/>
<path d="M94.2232 93.3453C94.6232 93.1453 94.7232 92.9453 95.1232 92.8453" stroke="#FF78B7" stroke-width="0.6123" stroke-linecap="round" stroke-linejoin="round"/>
<path d="M11.7232 100.445H119.023" stroke="#D6DCE8" stroke-width="2" stroke-miterlimit="10" stroke-linecap="round" stroke-linejoin="round"/>
<path d="M1.92322 100.445H6.32322" stroke="#D6DCE8" stroke-width="2" stroke-miterlimit="10" stroke-linecap="round" stroke-linejoin="round"/>
<path d="M101.823 15.0454H16.6232V100.445H101.823V15.0454Z" fill="#F1F3F9" stroke="#D6DCE8" stroke-width="2" stroke-miterlimit="10"/>
<path d="M102.023 15.0454H40.3232V100.445H101.923V15.0454H102.023Z" fill="white" stroke="#D6DCE8" stroke-width="2" stroke-miterlimit="10"/>
<path d="M28.4232 15.0454H16.6232V100.445H28.4232V15.0454Z" fill="#F1F3F9" stroke="#D6DCE8" stroke-width="2" stroke-miterlimit="10"/>
<path d="M40.3232 100.445H16.6232V100.245L28.6232 88.3453L40.3232 100.445Z" fill="#F1F3F9" stroke="#D6DCE8" stroke-width="2" stroke-miterlimit="10"/>
<path d="M55.2232 34.0453C56.9232 34.0453 58.3232 32.6453 58.3232 30.9453C58.3232 29.2453 56.9232 27.8453 55.2232 27.8453C53.5232 27.8453 52.1232 29.2453 52.1232 30.9453C52.1232 32.6453 53.5232 34.0453 55.2232 34.0453Z" fill="#D6DCE8"/>
<path d="M85.6232 34.0453C87.3232 34.0453 88.7232 32.6453 88.7232 30.9453C88.7232 29.2453 87.3232 27.8453 85.6232 27.8453C83.9232 27.8453 82.5232 29.2453 82.5232 30.9453C82.6232 32.6453 83.9232 34.0453 85.6232 34.0453Z" fill="#D6DCE8"/>
<path d="M55.2232 30.9454V22.5454C55.2232 14.1454 61.9232 7.24536 70.4232 7.24536C78.7232 7.24536 85.6232 14.0454 85.6232 22.5454V30.9454" stroke="#D6DCE8" stroke-width="1.8941" stroke-miterlimit="10" stroke-linecap="round" stroke-linejoin="round"/>
<path d="M95.3171 3.80501C97.4766 2.42071 100.024 1.64551 102.737 1.64551C110.157 1.64551 116.192 7.62568 116.192 15.0455C116.192 22.4654 110.157 28.4455 102.737 28.4455C95.3171 28.4455 89.2816 22.4654 89.2816 15.0455C89.1708 10.3389 91.6072 6.24138 95.3171 3.80501Z" fill="#D6DCE8" stroke="#AAB2C5" stroke-width="2" stroke-miterlimit="10"/>
<path d="M103.629 14.9155L103.627 14.9467V14.978C103.627 16.0016 103.414 16.5915 103.209 16.8938C103.019 17.1725 102.842 17.214 102.735 17.214C102.629 17.214 102.451 17.1725 102.262 16.8938C102.057 16.5915 101.843 16.0016 101.843 14.978C101.843 14.0345 102.051 13.4328 102.27 13.1005C102.485 12.7736 102.674 12.742 102.735 12.742C102.833 12.742 103.748 13.0212 103.629 14.9155ZM96.7352 14.978C96.7352 19.0228 99.3431 22.0454 102.735 22.0454C106.127 22.0454 108.735 19.0228 108.735 14.978C108.735 10.9011 106.099 8.04541 102.735 8.04541C99.3711 8.04541 96.7352 10.9011 96.7352 14.978Z" fill="white" stroke="#AAB2C5" stroke-width="2"/>
<path d="M60.799 58.345C57.3639 58.345 54.4784 56.1472 53.3792 52.9878C53.1044 52.301 53.5166 51.6142 54.2036 51.3395C54.8906 51.0647 55.5776 51.4768 55.8525 52.1636C56.5395 54.2241 58.6005 55.7351 60.799 55.7351C62.9975 55.7351 65.0586 54.3614 65.7456 52.1636C66.0204 51.4768 66.7074 51.0647 67.3944 51.3395C68.0815 51.6142 68.4937 52.301 68.2189 52.9878C67.1196 56.2845 64.2341 58.345 60.799 58.345Z" fill="#9FA8BA"/>
<path d="M81.5473 58.345C78.1122 58.345 75.2267 56.1472 74.1275 52.9878C73.8527 52.301 74.2649 51.6142 74.9519 51.3395C75.6389 51.0647 76.3259 51.4768 76.6007 52.1636C77.2878 54.2241 79.3488 55.7351 81.5473 55.7351C83.7458 55.7351 85.8069 54.3614 86.4939 52.1636C86.7687 51.4768 87.4557 51.0647 88.1427 51.3395C88.8297 51.6142 89.242 52.301 88.9672 52.9878C87.8679 56.2845 84.9824 58.345 81.5473 58.345Z" fill="#9FA8BA"/>
<path d="M71.242 75.1637C72.9874 75.1637 74.4023 73.7492 74.4023 72.0043C74.4023 70.2595 72.9874 68.845 71.242 68.845C69.4966 68.845 68.0817 70.2595 68.0817 72.0043C68.0817 73.7492 69.4966 75.1637 71.242 75.1637Z" fill="#9FA8BA"/>
<path d="M13.6851 5.4131V0.763428H31.6553V5.4131L19.3933 20.2075H31.8667V24.8572H13.0509V20.2075L25.3129 5.4131H13.6851V5.4131Z" fill="#9FA8BA"/>
<path d="M28.484 40.2855V37.3267H40.1117V40.2855L32.2894 49.7962H40.3231V52.7551H28.0612V49.7962L35.8834 40.2855H28.484Z" fill="#9FA8BA"/>
</svg>
