<svg width="206" height="187" viewBox="0 0 206 187" fill="none" xmlns="http://www.w3.org/2000/svg">
<path d="M64.5975 161.974H181.376" stroke="#CDD6E1" stroke-width="2.38568" stroke-miterlimit="10" stroke-linecap="round" stroke-linejoin="round"/>
<path d="M192.78 161.974H204.345" stroke="#CDD6E1" stroke-width="2.38568" stroke-miterlimit="10" stroke-linecap="round" stroke-linejoin="round"/>
<path d="M67.1563 153.102C70.7137 153.102 73.5976 150.218 73.5976 146.66C73.5976 143.103 70.7137 140.219 67.1563 140.219C63.5988 140.219 60.715 143.103 60.715 146.66C60.715 150.218 63.5988 153.102 67.1563 153.102Z" fill="#B8BFCD"/>
<path d="M130.218 126.302C130.297 136.481 131.172 149.364 131.49 150.716C131.41 152.147 128.389 156.68 125.923 153.579C123.458 150.477 118.448 143.797 120.754 131.233C123.061 118.748 130.218 126.302 130.218 126.302Z" fill="#F1F3F9" stroke="#D6DCE8" stroke-width="1.59045" stroke-miterlimit="10"/>
<path d="M66.2815 153.022C66.2815 153.101 66.2815 153.261 66.3611 153.34C66.3611 153.42 66.4406 153.579 66.4406 153.658C66.5201 153.738 66.5201 153.897 66.5996 153.976C66.6791 154.056 66.7587 154.135 66.8382 154.294C67.2358 154.851 67.9515 155.328 68.7467 155.805C68.9058 155.885 69.1443 155.964 69.3034 156.044C69.3829 156.123 69.542 156.123 69.6215 156.203C69.701 156.282 69.8601 156.282 69.9396 156.362L70.2577 156.441C70.6553 156.6 71.1324 156.76 71.6095 156.839C71.8481 156.919 72.0072 156.919 72.2457 156.998C72.4048 156.998 72.5638 157.078 72.8024 157.078C72.9614 157.078 73.1205 157.157 73.2795 157.157C74.5519 157.316 75.7447 157.237 76.7785 156.839C80.357 155.487 81.7884 152.704 81.7884 152.704C81.7884 152.704 82.7427 152.942 84.2536 153.102C87.1164 153.499 91.8878 154.056 96.023 153.658C97.3748 153.499 98.8062 153.181 100.317 152.783C100.794 152.624 101.271 152.465 101.828 152.306C102.782 151.988 103.657 151.591 104.611 151.193C107.156 150.08 109.542 148.569 111.53 146.899C111.768 146.74 112.007 146.501 112.246 146.342C113.359 145.308 114.313 144.195 115.029 143.082C116.46 140.616 118.369 138.549 120.436 136.561C123.538 133.618 127.196 131.074 130.536 128.37C131.57 127.575 132.603 126.7 133.558 125.905C136.659 123.201 139.442 120.02 141.351 116.362C143.418 112.386 143.418 108.648 143.1 104.275C143.1 104.036 142.623 101.173 142.782 101.094C144.214 100.14 145.247 98.7876 145.804 97.1177C147.076 93.7777 146.599 89.4835 145.088 86.7002C144.929 86.3821 144.77 86.064 144.611 85.8255C143.021 83.0422 141.112 79.7817 138.965 77.6346L135.069 73.738H101.192C101.192 73.738 100.794 76.0442 100.238 78.907C100.158 79.1456 100.158 79.3841 100.079 79.6227C99.9991 80.0998 99.9196 80.577 99.7605 81.0541C99.681 81.2927 99.681 81.5312 99.6015 81.7698C99.6015 81.8493 99.6015 81.8493 99.5219 81.9289C99.4424 82.4855 99.2834 82.9626 99.2039 83.5193C98.8858 85.1098 98.4881 86.5412 98.011 87.734C98.011 87.8135 97.9315 87.9726 97.9315 88.0521C97.6929 88.6883 97.4544 89.2449 97.2158 89.6425C95.3072 92.7439 85.6055 101.65 78.8461 106.66C72.0867 111.67 68.9853 120.179 67.2358 133.937C65.2477 147.614 65.9634 150.398 66.2815 153.022Z" fill="white" stroke="#D6DCE8" stroke-width="1.59045" stroke-miterlimit="10" stroke-linejoin="round"/>
<path d="M127.355 149.284C131.888 148.807 131.808 149.284 134.353 149.284C136.898 149.284 137.534 150.557 138.488 151.75C139.045 152.545 139.84 154.851 140.317 156.521C140.635 157.475 139.919 158.35 138.965 158.43C136.102 158.43 130.933 158.509 130.059 158.43C128.786 158.271 126.082 157.952 124.89 155.964C124.492 155.249 124.253 154.294 124.015 153.34C123.697 151.511 124.89 149.682 126.798 149.444L127.355 149.284Z" fill="white" stroke="#D6DCE8" stroke-width="1.59045" stroke-miterlimit="10"/>
<path opacity="0.3" d="M66.2815 153.022C66.5201 155.646 73.0409 158.111 76.6195 156.76C80.2775 155.408 81.6294 152.624 81.6294 152.624C81.6294 152.624 89.5021 154.215 95.8639 153.658C100.635 153.181 107.077 150.398 111.291 146.819L110.735 134.732C110.735 134.732 110.257 124.155 109.78 119.543C109.383 114.931 113.041 115.01 112.882 109.046C112.643 103.082 115.029 92.5053 118.13 82.8036L107.315 74.6923L99.9195 78.907C99.2038 82.8831 98.011 87.893 96.9772 89.722C95.0687 92.8234 85.3669 101.73 78.6075 106.74C71.8481 111.75 68.7467 120.259 66.9972 134.016C65.2477 147.614 65.9634 150.398 66.2815 153.022Z" fill="#C4D1E4"/>
<path opacity="0.2" d="M66.2816 153.022C66.2816 153.101 66.2816 153.261 66.3611 153.34C66.3611 153.42 66.4406 153.579 66.4406 153.658C66.5201 153.738 66.5201 153.897 66.5997 153.976C66.6792 154.056 66.7587 154.135 66.8382 154.294C67.2358 154.851 67.9515 155.328 68.7468 155.805C68.9058 155.885 69.1444 155.964 69.3034 156.044C69.3829 156.123 69.542 156.123 69.6215 156.203C69.701 156.282 69.8601 156.282 69.9396 156.362L70.2577 156.441C70.6553 156.6 71.1324 156.759 71.6096 156.839C71.8481 156.919 72.0072 156.919 72.2458 156.998C73.3591 156.282 73.9952 155.805 73.9952 155.805C73.9952 155.805 73.9952 155.805 73.5181 152.942C73.3591 152.068 73.2 150.875 72.9615 149.284C71.9277 142.684 72.6434 129.642 81.4704 130.04C80.5161 123.36 84.1741 115.964 87.355 111.273C90.6155 106.66 93.0011 109.205 95.7844 112.386C96.1025 111.034 94.6711 105.627 92.9216 100.855C96.5001 105.149 99.681 106.66 108.19 107.456C104.373 104.275 103.896 102.605 100.794 95.6067C104.691 97.4357 112.643 99.5828 117.415 100.219C128.945 101.73 138.886 101.173 145.566 97.1176C146.838 93.7777 146.361 89.4835 144.85 86.7002C144.691 86.3821 144.532 86.064 144.373 85.8254C138.249 85.2688 127.832 84.394 118.051 83.5193C110.894 82.8831 104.055 82.2469 99.4425 81.8493C99.4425 81.9288 99.4425 81.9288 99.3629 82.0083C99.2834 82.565 99.1244 83.0421 99.0448 83.5988C98.7267 85.1892 98.3291 86.6206 97.852 87.8135C97.852 87.893 97.7725 88.0521 97.7725 88.1316C97.5339 88.7678 97.2953 89.3244 97.0568 89.722C95.1482 92.8234 85.4465 101.73 78.6871 106.74C71.9277 111.75 68.8263 120.259 67.0768 134.016C65.2478 147.614 65.9635 150.398 66.2816 153.022Z" fill="#BFC8D6"/>
<path d="M112.007 157.714C112.007 157.714 111.371 148.092 111.291 146.819C111.212 145.944 106.043 150.08 101.271 141.253C96.5001 132.426 95.7844 130.835 95.9434 128.609C94.512 139.821 98.9653 147.376 99.8401 151.432C100.715 155.487 101.51 155.328 101.51 155.328L109.542 156.919L112.007 157.714Z" fill="#DBDFE6"/>
<path d="M104.055 151.193C108.587 150.636 108.508 151.193 111.053 151.193C113.597 151.193 114.234 152.545 115.188 153.817C115.745 154.612 116.54 157.157 117.017 158.986C117.335 160.02 116.619 160.974 115.665 160.974C112.802 160.974 106.44 160.895 105.566 160.815C104.293 160.656 102.782 160.418 101.669 158.27C101.271 157.475 101.033 156.441 100.794 155.408C100.476 153.42 101.669 151.511 103.578 151.193H104.055Z" fill="white" stroke="#D6DCE8" stroke-width="1.59045" stroke-miterlimit="10"/>
<path d="M83.3788 152.545C85.4464 153.817 86.6392 156.839 87.2754 158.986C87.5935 160.02 86.8778 160.974 85.9235 160.974C83.0607 160.974 76.6989 160.895 75.8242 160.815C70.8143 160.179 70.2576 154.692 74.0747 152.545C76.4604 151.113 80.9932 151.034 83.3788 152.545Z" fill="white" stroke="#D6DCE8" stroke-width="1.59045" stroke-miterlimit="10"/>
<path d="M138.447 90.6996C137.739 91.3631 136.94 91.959 136.13 92.4762C135.028 93.1959 133.836 93.848 132.632 94.4214C128.943 96.1529 125.018 97.3557 120.869 97.5464C117.438 97.7147 113.795 97.5118 110.432 96.4655C109.263 96.1504 108.071 95.678 107.036 95.183C101.076 92.2583 97.6798 89.8512 97.2083 83.1709C96.7368 76.4906 97.0411 71.3061 97.0411 71.3061C97.0411 70.7438 97.6485 69.9342 97.8173 69.4281C98.1322 68.8209 98.3573 68.1461 98.6722 67.5389C99.2234 66.3356 99.8421 65.0423 100.483 63.9066C101.901 61.4551 103.689 59.3522 105.961 57.823C109.627 55.3718 114.07 54.4164 118.422 53.9559C121.582 53.5852 124.855 53.4394 128.026 54.272C130.782 55.0033 133.143 56.3531 135.257 58.2203C137.551 60.2224 139.35 62.6967 141.363 64.98C141.363 64.98 143.106 69.8723 144.522 76.4177C145.938 82.9632 143.34 86.1455 138.447 90.6996Z" fill="white" stroke="#D6DCE8" stroke-width="1.59045" stroke-miterlimit="10" stroke-linejoin="round"/>
<path d="M111.986 80.3385C111.154 81.2606 110.377 84.2632 105.8 83.1493C99.3003 81.5065 98.7839 73.3867 101.81 70.3844C107.22 64.9531 113.742 66.191 115.541 72.0392C117.396 78.2811 113.662 78.573 111.986 80.3385Z" fill="#F1F3F9" stroke="#D6DCE8" stroke-width="1.59045" stroke-miterlimit="10"/>
<path d="M99.2803 61.106C101.024 58.6883 103.599 59.2847 102.71 62.0623C101.259 66.5269 98.3572 68.7083 98.1303 85.1277C98.0624 88.0292 88.144 82.135 87.7292 71.9122C87.6169 70.0003 89.9225 69.2696 89.9225 69.2696C91.3058 68.8312 96.5358 64.9519 99.2803 61.106Z" fill="#D6DCE8" stroke="#AAB2C5" stroke-width="1.59045" stroke-miterlimit="10"/>
<path d="M135.332 88.0113C135.613 89.9794 135.332 91.9474 134.612 93.6567C133.656 94.2752 132.61 94.8261 131.564 95.377C128.325 96.8836 124.861 97.9403 121.352 98.1199C118.406 98.2994 115.155 98.0404 112.22 97.1741C110.871 95.5994 110.05 93.7887 109.747 91.6631C108.825 85.2077 113.831 79.1916 120.916 78.1803C127.922 77.1803 134.411 81.5558 135.332 88.0113Z" fill="#F1F3F9" stroke="#D6DCE8" stroke-width="1.59045" stroke-miterlimit="10"/>
<path d="M108.32 79.9783C110.885 79.6122 112.668 77.2358 112.302 74.6706C111.936 72.1054 109.559 70.3227 106.994 70.6888C104.429 71.0549 102.646 73.4313 103.012 75.9965C103.378 78.5617 105.755 80.3445 108.32 79.9783Z" fill="white"/>
<path d="M111.897 75.2102C112.178 77.1783 110.76 79.0675 108.792 79.3484C106.824 79.6293 104.935 78.2121 104.654 76.244C105.014 76.5139 105.441 76.6939 105.914 76.6265C106.78 76.5029 107.466 75.682 107.331 74.7373C107.207 73.8713 106.398 73.264 105.52 73.3088C106.072 72.6679 106.893 72.2294 107.759 72.1058C109.805 71.8136 111.605 73.1634 111.897 75.2102Z" fill="#989FB0"/>
<path d="M134.142 76.2926C136.707 75.9265 138.49 73.5501 138.123 70.9849C137.757 68.4197 135.381 66.637 132.816 67.0031C130.251 67.3693 128.468 69.7456 128.834 72.3108C129.2 74.8761 131.576 76.6588 134.142 76.2926Z" fill="white"/>
<path d="M129.374 72.7157C129.655 74.6839 131.544 76.1011 133.512 75.8202C135.48 75.5393 136.897 73.6501 136.616 71.682C136.346 72.0418 135.987 72.3342 135.514 72.4016C134.648 72.5252 133.76 71.9291 133.625 70.9844C133.501 70.1184 134.109 69.3087 134.963 69.1064C134.255 68.6452 133.344 68.4539 132.478 68.5775C130.51 68.8584 129.082 70.6689 129.374 72.7157Z" fill="#989FB0"/>
<path d="M121.028 78.9676C120.398 79.0575 119.78 79.2261 119.173 79.4734C118.419 79.822 117.294 80.3841 117.44 81.4075C117.62 82.6671 120.78 83.421 121.568 83.3087C122.355 83.1963 125.189 81.6672 124.998 80.3288C124.818 79.0692 123.581 78.8442 122.535 78.8328C122.052 78.8215 121.489 78.8214 121.028 78.9676Z" fill="#989FB0"/>
<path d="M121.849 83.0277L121.556 82.6677L121.376 83.0951C121.376 83.0951 121.533 85.8842 121.027 86.84C121.5 87.3349 121.893 87.2787 122.039 87.1775C122.287 87.2225 122.68 87.1664 122.917 86.5703C122.332 85.8505 121.849 83.0277 121.849 83.0277Z" fill="#989FB0"/>
<path d="M105.758 65.4029C104.7 65.8751 103.801 66.3249 103.103 67.067C102.406 67.8092 101.911 68.8438 101.742 69.9121C101.753 69.9909 101.675 70.0021 101.596 70.0133C101.517 70.0246 101.506 69.9459 101.506 69.9459C101.427 69.3948 101.574 68.7313 101.742 68.2252C101.9 67.6404 102.226 67.1119 102.642 66.6509C103.058 66.1898 103.486 65.8075 104.003 65.4927C104.532 65.2566 105.15 65.088 105.724 65.1667C105.814 65.2342 105.904 65.3017 105.758 65.4029C105.836 65.3917 105.836 65.3917 105.758 65.4029Z" fill="#989FB0"/>
<path d="M132.445 61.5938C133.592 61.7514 134.582 61.9314 135.459 62.4489C136.336 62.9663 137.101 63.8211 137.562 64.7996C137.573 64.8783 137.652 64.8671 137.731 64.8558C137.809 64.8446 137.798 64.7659 137.798 64.7659C137.719 64.2148 137.393 63.6187 137.09 63.1801C136.775 62.6627 136.314 62.2465 135.785 61.9203C135.257 61.5941 134.739 61.3466 134.155 61.1891C133.581 61.1103 132.94 61.1215 132.411 61.3576C132.344 61.4476 132.355 61.5263 132.445 61.5938C132.445 61.5938 132.366 61.605 132.445 61.5938Z" fill="#989FB0"/>
<path d="M136.956 54.9252C134.606 53.0918 132.3 54.3848 133.93 56.8029C136.573 60.6832 139.969 61.9657 144.78 77.6659C145.657 80.4326 153.531 71.9989 151.069 62.0683C150.642 60.2013 148.224 60.1448 148.224 60.1448C146.773 60.1109 140.667 57.8497 136.956 54.9252Z" fill="#D6DCE8" stroke="#AAB2C5" stroke-width="1.59045" stroke-miterlimit="10"/>
<path d="M1.62976 163.758H45.049C46.4009 163.758 46.6395 165.746 45.2876 165.984C33.0412 168.529 18.25 169.563 26.7589 174.732C41.232 183.479 63.8164 187.933 90.695 182.923C114.87 178.47 115.188 112.943 116.301 94.9709C116.54 91.79 119.164 89.2453 122.345 89.2453H124.413C127.752 89.2453 130.536 91.949 130.536 95.289V106.104" stroke="#AAB2C2" stroke-width="3.1809" stroke-miterlimit="10" stroke-linecap="round" stroke-linejoin="round"/>
<path d="M130.889 90.8141C131.802 94.684 128.652 96.5709 124.395 97.5751C120.138 98.5792 116.477 98.299 115.564 94.429C114.651 90.5591 117.327 86.6599 121.584 85.6557C125.84 84.6516 129.976 86.9442 130.889 90.8141Z" fill="#D6DCE8" stroke="#AAB2C5" stroke-width="1.59045" stroke-miterlimit="10"/>
<path d="M126.798 126.303C126.003 126.303 125.367 125.667 125.367 124.871V119.305C125.367 118.51 126.003 117.873 126.798 117.873C127.593 117.873 128.23 118.51 128.23 119.305V124.871C128.23 125.746 127.593 126.303 126.798 126.303Z" fill="#989FB0"/>
<path d="M134.194 126.303C133.398 126.303 132.762 125.667 132.762 124.871V119.305C132.762 118.51 133.398 117.873 134.194 117.873C134.989 117.873 135.625 118.51 135.625 119.305V124.871C135.625 125.746 134.989 126.303 134.194 126.303Z" fill="#989FB0"/>
<path d="M137.931 119.384H123.299V117.714C123.299 113.659 126.56 106.661 130.615 106.661C134.671 106.661 137.931 113.659 137.931 117.714V119.384V119.384Z" fill="#D6DCE8" stroke="#AAB2C5" stroke-width="1.59045" stroke-miterlimit="10"/>
<path d="M199.72 122.167H169.581C168.309 122.167 167.355 121.134 167.355 119.941V87.8138C167.355 86.5414 168.388 85.5871 169.581 85.5871H199.72C200.993 85.5871 201.947 86.6209 201.947 87.8138V119.941C202.026 121.134 200.993 122.167 199.72 122.167Z" fill="#F1F3F9" stroke="#D6DCE8" stroke-width="1.59045" stroke-miterlimit="10"/>
<path d="M195.983 103.241C195.983 106.979 194.154 110.398 191.37 112.466H177.772C174.989 110.398 173.16 107.058 173.16 103.241C173.16 99.5036 174.989 96.0841 177.772 94.0166H191.37C194.154 96.1637 195.983 99.5036 195.983 103.241Z" fill="#D6DCE8" stroke="#AAB2C5" stroke-width="1.59045" stroke-miterlimit="10"/>
<path d="M180.317 103.877C179.76 103.877 179.283 103.4 179.283 102.844V99.4241C179.283 98.8674 179.76 98.3903 180.317 98.3903C180.873 98.3903 181.351 98.8674 181.351 99.4241V102.844C181.351 103.4 180.873 103.877 180.317 103.877Z" fill="#989FB0"/>
<path d="M188.667 103.877C188.11 103.877 187.633 103.4 187.633 102.844V99.4241C187.633 98.8674 188.11 98.3903 188.667 98.3903C189.223 98.3903 189.7 98.8674 189.7 99.4241V102.844C189.7 103.4 189.223 103.877 188.667 103.877Z" fill="#989FB0"/>
<path d="M185.486 108.808H183.418C182.941 108.808 182.464 108.41 182.464 107.853V106.82C182.464 105.706 183.339 104.832 184.452 104.832C185.565 104.832 186.44 105.706 186.44 106.82V107.853C186.44 108.33 186.042 108.808 185.486 108.808Z" fill="#989FB0"/>
<path d="M171.013 90.4379C171.759 90.4379 172.365 89.8327 172.365 89.0861C172.365 88.3394 171.759 87.7342 171.013 87.7342C170.266 87.7342 169.661 88.3394 169.661 89.0861C169.661 89.8327 170.266 90.4379 171.013 90.4379Z" fill="#D2DAE7"/>
<path d="M198.448 90.4379C199.195 90.4379 199.8 89.8327 199.8 89.0861C199.8 88.3394 199.195 87.7342 198.448 87.7342C197.701 87.7342 197.096 88.3394 197.096 89.0861C197.096 89.8327 197.701 90.4379 198.448 90.4379Z" fill="#D2DAE7"/>
<path d="M171.013 120.1C171.759 120.1 172.365 119.495 172.365 118.748C172.365 118.001 171.759 117.396 171.013 117.396C170.266 117.396 169.661 118.001 169.661 118.748C169.661 119.495 170.266 120.1 171.013 120.1Z" fill="#D2DAE7"/>
<path d="M198.448 120.1C199.195 120.1 199.8 119.495 199.8 118.748C199.8 118.001 199.195 117.396 198.448 117.396C197.701 117.396 197.096 118.001 197.096 118.748C197.096 119.495 197.701 120.1 198.448 120.1Z" fill="#D2DAE7"/>
<path d="M107.88 0.188477L112.756 1.96978L114.02 33.849L111.371 32.7433L107.88 0.188477Z" fill="#B8BFCD"/>
<path d="M111.612 36.3674L114.02 37.5345V40.6671L111.612 39.6844V36.3674Z" fill="#B8BFCD"/>
<path d="M118.113 16.2203L122.989 17.8173V38.333L120.28 37.2274L118.113 16.2203Z" fill="#B8BFCD"/>
<path d="M120.521 40.6672L122.989 41.7728V44.7212L120.521 43.7999V40.6672Z" fill="#B8BFCD"/>
</svg>
