<svg width="127" height="108" viewBox="0 0 127 108" fill="none" xmlns="http://www.w3.org/2000/svg">
<g clip-path="url(#clip0)">
<path d="M70.5731 106.468C98.5731 106.468 121.273 83.7679 121.273 55.6679C121.273 27.5679 98.4731 4.86792 70.5731 4.86792C42.5731 4.86792 19.8731 27.5679 19.8731 55.6679C19.8731 83.7679 42.5731 106.468 70.5731 106.468Z" fill="#F1F3F9" stroke="#D6DCE8" stroke-width="2" stroke-miterlimit="10"/>
<path d="M117.973 22.3677C120.237 22.3677 122.073 20.5321 122.073 18.2677C122.073 16.0034 120.237 14.1677 117.973 14.1677C115.709 14.1677 113.873 16.0034 113.873 18.2677C113.873 20.5321 115.709 22.3677 117.973 22.3677Z" fill="#F1F3F9"/>
<path d="M123.973 6.36782C125.519 6.36782 126.773 5.11422 126.773 3.56782C126.773 2.02142 125.519 0.767822 123.973 0.767822C122.427 0.767822 121.173 2.02142 121.173 3.56782C121.173 5.11422 122.427 6.36782 123.973 6.36782Z" fill="#F1F3F9"/>
<path d="M22.5731 22.2677C24.1195 22.2677 25.3731 21.0141 25.3731 19.4677C25.3731 17.9213 24.1195 16.6677 22.5731 16.6677C21.0267 16.6677 19.7731 17.9213 19.7731 19.4677C19.7731 21.0141 21.0267 22.2677 22.5731 22.2677Z" fill="#F1F3F9"/>
<path d="M5.47307 76.2679C8.34495 76.2679 10.6731 73.9398 10.6731 71.0679C10.6731 68.196 8.34495 65.8679 5.47307 65.8679C2.60119 65.8679 0.273071 68.196 0.273071 71.0679C0.273071 73.9398 2.60119 76.2679 5.47307 76.2679Z" fill="#F1F3F9"/>
<path d="M108.073 30.2678L108.873 94.6678C108.873 96.8678 107.073 98.5678 104.873 98.5678H42.0731C39.8731 98.5678 38.0731 96.7678 38.0731 94.6678V11.8678C38.0731 9.66777 39.8731 7.96777 42.0731 7.96777H87.5731L108.073 30.2678Z" fill="white" stroke="#D6DCE8" stroke-width="2" stroke-miterlimit="10"/>
<path d="M88.0829 7.96777V25.7678C88.0829 28.2678 90.2829 30.2678 92.7829 30.2678H108.583" fill="#D6DCE8"/>
<g clip-path="url(#clip1)">
<path d="M72.9724 8.87183H69.1302V11.5129H72.9724V8.87183Z" fill="#989FB0"/>
<path d="M76.8519 11.5129H73.0097V14.154H76.8519V11.5129Z" fill="#989FB0"/>
<path d="M72.9724 14.1167H69.1302V16.7578H72.9724V14.1167Z" fill="#989FB0"/>
<path d="M76.8519 16.7578H73.0097V19.3989H76.8519V16.7578Z" fill="#989FB0"/>
<path d="M72.9724 19.3989H69.1302V22.04H72.9724V19.3989Z" fill="#989FB0"/>
<path d="M76.8519 22.04H73.0097V24.6811H76.8519V22.04Z" fill="#989FB0"/>
<path d="M72.9724 24.6438H69.1302V27.2849H72.9724V24.6438Z" fill="#989FB0"/>
<path d="M76.8519 27.2849H73.0097V29.926H76.8519V27.2849Z" fill="#989FB0"/>
<path d="M72.9724 29.926H69.1302V32.5671H72.9724V29.926Z" fill="#989FB0"/>
<path d="M76.8519 32.5671H73.0097V35.2082H76.8519V32.5671Z" fill="#989FB0"/>
<path d="M72.9724 35.1709H69.1302V37.812H72.9724V35.1709Z" fill="#989FB0"/>
<path d="M76.8519 37.812H73.0097V40.4531H76.8519V37.812Z" fill="#989FB0"/>
<path d="M72.9724 40.4529H69.1302V43.0939H72.9724V40.4529Z" fill="#989FB0"/>
<path d="M76.8519 43.0569H73.0097V45.6979H76.8519V43.0569Z" fill="#989FB0"/>
<path d="M72.9724 45.698H69.1302V48.3391H72.9724V45.698Z" fill="#989FB0"/>
<path d="M76.8519 48.3391H73.0097V50.9802H76.8519V48.3391Z" fill="#989FB0"/>
<path d="M69.1302 50.98V63.3297H76.8519V50.98H69.1302ZM75.6955 62.1766H70.2866V58.6056H75.6955V62.1766Z" fill="#989FB0"/>
<path d="M60.0656 82.292L63.0871 78.4978C63.6467 77.8654 64.057 77.3819 64.6165 76.7867V76.7495H60.4013V74.406H68.2722V76.1915L65.3999 79.7997C64.8777 80.4321 64.3927 81.0273 63.8332 81.548V81.5852H68.4587V83.9659H60.0656V82.292Z" fill="#989FB0"/>
<path d="M73.8676 71.7278C73.8676 72.5461 73.2335 73.2157 72.2636 73.2157C71.331 73.2157 70.6969 72.5461 70.6969 71.7278C70.6596 70.8722 71.2937 70.2026 72.2636 70.2026C73.2335 70.2398 73.8676 70.8722 73.8676 71.7278ZM70.8088 83.9659V74.406H73.793V83.9659H70.8088Z" fill="#989FB0"/>
<path d="M76.1804 77.6051C76.1804 76.3403 76.1431 75.2616 76.1058 74.4061H78.6797L78.8289 75.7452H78.8662C79.5749 74.7408 80.6567 74.1829 82.0742 74.1829C84.1632 74.1829 86.0656 76.0056 86.0656 79.0558C86.0656 82.5524 83.8647 84.1891 81.7012 84.1891C80.5448 84.1891 79.6495 83.7056 79.2019 83.1104H79.1646V87.8718H76.1804V77.6051V77.6051ZM79.1646 79.8742C79.1646 80.0974 79.2019 80.3205 79.2392 80.5065C79.4257 81.3249 80.1345 81.9201 80.9924 81.9201C82.298 81.9201 83.0441 80.8413 83.0441 79.2046C83.0441 77.6795 82.3726 76.5263 81.0297 76.5263C80.1718 76.5263 79.4257 77.1587 79.2392 78.0515C79.2019 78.2003 79.1646 78.3862 79.1646 78.5722V79.8742V79.8742Z" fill="#989FB0"/>
</g>
</g>
<defs>
<clipPath id="clip0">
<rect width="126.4" height="106.7" fill="white" transform="translate(0.273071 0.767822)"/>
</clipPath>
<clipPath id="clip1">
<rect width="26" height="77" fill="white" transform="translate(60.0656 8.87183)"/>
</clipPath>
</defs>
</svg>
