<svg width="128" height="108" viewBox="0 0 128 108" fill="none" xmlns="http://www.w3.org/2000/svg">
<path d="M71.0875 106.468C99.0875 106.468 121.787 83.7677 121.787 55.6677C121.787 27.5677 98.9875 4.86768 71.0875 4.86768C43.0875 4.86768 20.3875 27.5677 20.3875 55.6677C20.3875 83.7677 43.0875 106.468 71.0875 106.468Z" fill="#F1F3F9" stroke="#D6DCE8" stroke-width="2" stroke-miterlimit="10"/>
<path d="M118.487 22.368C120.752 22.368 122.587 20.5323 122.587 18.268C122.587 16.0036 120.752 14.168 118.487 14.168C116.223 14.168 114.387 16.0036 114.387 18.268C114.387 20.5323 116.223 22.368 118.487 22.368Z" fill="#F1F3F9"/>
<path d="M124.487 6.36782C126.034 6.36782 127.287 5.11422 127.287 3.56782C127.287 2.02142 126.034 0.767822 124.487 0.767822C122.941 0.767822 121.688 2.02142 121.688 3.56782C121.688 5.11422 122.941 6.36782 124.487 6.36782Z" fill="#F1F3F9"/>
<path d="M23.0875 22.268C24.6339 22.268 25.8875 21.0144 25.8875 19.468C25.8875 17.9216 24.6339 16.668 23.0875 16.668C21.5411 16.668 20.2875 17.9216 20.2875 19.468C20.2875 21.0144 21.5411 22.268 23.0875 22.268Z" fill="#F1F3F9"/>
<path d="M5.98748 76.2677C8.85936 76.2677 11.1875 73.9396 11.1875 71.0677C11.1875 68.1958 8.85936 65.8677 5.98748 65.8677C3.11559 65.8677 0.787476 68.1958 0.787476 71.0677C0.787476 73.9396 3.11559 76.2677 5.98748 76.2677Z" fill="#F1F3F9"/>
<path d="M108.587 30.2678L109.387 94.6678C109.387 96.8678 107.587 98.5678 105.387 98.5678H42.5875C40.3875 98.5678 38.5875 96.7678 38.5875 94.6678V11.8678C38.5875 9.66777 40.3875 7.96777 42.5875 7.96777H88.0875L108.587 30.2678Z" fill="white" stroke="#D6DCE8" stroke-width="2" stroke-miterlimit="10"/>
<path d="M69.1875 85.6678H66.8875C66.3875 85.6678 65.9875 85.1678 65.9875 84.5678C65.9875 83.9678 66.3875 83.4678 66.8875 83.4678H69.1875C69.6875 83.4678 70.0875 83.9678 70.0875 84.5678C70.0875 85.2678 69.6875 85.6678 69.1875 85.6678Z" fill="#D6DCE8"/>
<path d="M62.1875 85.6678H48.7875C48.2875 85.6678 47.8875 85.1678 47.8875 84.5678C47.8875 83.9678 48.2875 83.4678 48.7875 83.4678H62.1875C62.6875 83.4678 63.0875 83.9678 63.0875 84.5678C63.0875 85.2678 62.6875 85.6678 62.1875 85.6678Z" fill="#D6DCE8"/>
<path d="M79.2875 21.4677H49.1875C48.4875 21.4677 47.8875 20.8677 47.8875 20.1677C47.8875 19.4677 48.4875 18.8677 49.1875 18.8677H79.2875C79.9875 18.8677 80.5875 19.4677 80.5875 20.1677C80.5875 20.8677 79.9875 21.4677 79.2875 21.4677Z" fill="#D6DCE8"/>
<path d="M60.7875 28.6679H49.1875C48.4875 28.6679 47.8875 28.0679 47.8875 27.3679C47.8875 26.6679 48.4875 26.0679 49.1875 26.0679H60.6875C61.3875 26.0679 61.9875 26.6679 61.9875 27.3679C61.9875 28.0679 61.3875 28.6679 60.7875 28.6679Z" fill="#D6DCE8"/>
<path d="M88.5973 7.96777V25.7678C88.5973 28.2678 90.7973 30.2678 93.2973 30.2678H109.097" fill="#D6DCE8"/>
<path d="M113.387 100.068C112.387 100.068 111.387 99.6678 110.587 98.7678L93.8875 82.0678L93.2875 82.4678C87.8875 86.4678 81.5875 88.5678 75.1875 88.5678C67.4875 88.5678 59.7875 85.4678 54.0875 80.0678C48.0875 74.3678 44.7875 66.6678 44.7875 58.2678C44.7875 41.5678 58.3875 27.9678 75.0875 27.9678C86.4875 27.9678 96.4875 33.9678 101.887 44.1678C107.187 54.2678 106.487 66.0678 99.9875 75.5678L99.5875 76.1678L116.387 92.9678C118.087 94.6678 117.687 96.3678 117.387 97.2678C116.587 98.8678 114.987 100.068 113.387 100.068ZM75.0875 36.2678C62.8875 36.2678 53.0875 46.1678 53.0875 58.2678C53.0875 72.0678 64.3875 80.3678 75.3875 80.3678C82.0875 80.3678 88.1875 77.3678 92.4875 71.9678C97.7875 65.3678 98.6875 56.4678 94.9875 48.7678C91.1875 41.0678 83.5875 36.2678 75.0875 36.2678Z" fill="#F1F3F9" stroke="#D6DCE8" stroke-width="2" stroke-miterlimit="10"/>
<path d="M65.5875 61.8679C66.8875 61.8679 67.9875 60.7679 67.9875 59.4679C67.9875 58.1679 66.8875 57.0679 65.5875 57.0679C64.2875 57.0679 63.1875 58.1679 63.1875 59.4679C63.1875 60.7679 64.2875 61.8679 65.5875 61.8679Z" fill="#AAB2C5"/>
<path d="M83.9875 61.8679C85.2875 61.8679 86.3875 60.7679 86.3875 59.4679C86.3875 58.1679 85.2875 57.0679 83.9875 57.0679C82.6875 57.0679 81.5875 58.1679 81.5875 59.4679C81.5875 60.8679 82.6875 61.8679 83.9875 61.8679Z" fill="#AAB2C5"/>
<path d="M65.4936 51.5278L60.2142 54.3784L60.9269 55.6983L66.2063 52.8477L65.4936 51.5278Z" fill="#AAB2C5"/>
<path d="M83.6611 51.4898L82.9486 52.8098L88.2286 55.6598L88.9411 54.3398L83.6611 51.4898Z" fill="#AAB2C5"/>
<path d="M74.7875 67.4678C76.3339 67.4678 77.5875 66.5276 77.5875 65.3678C77.5875 64.208 76.3339 63.2678 74.7875 63.2678C73.2411 63.2678 71.9875 64.208 71.9875 65.3678C71.9875 66.5276 73.2411 67.4678 74.7875 67.4678Z" fill="#AAB2C5"/>
</svg>
