<svg width="128" height="109" viewBox="0 0 128 109" fill="none" xmlns="http://www.w3.org/2000/svg">
<path d="M71.2288 106.497C99.2288 106.497 121.929 83.7975 121.929 55.6975C121.929 27.5975 99.1288 4.89746 71.2288 4.89746C43.2288 4.89746 20.5288 27.5975 20.5288 55.6975C20.5288 83.7975 43.2288 106.497 71.2288 106.497Z" fill="#F1F3F9" stroke="#D6DCE8" stroke-width="2" stroke-miterlimit="10"/>
<path d="M118.629 22.3978C120.893 22.3978 122.729 20.5621 122.729 18.2978C122.729 16.0334 120.893 14.1978 118.629 14.1978C116.364 14.1978 114.529 16.0334 114.529 18.2978C114.529 20.5621 116.364 22.3978 118.629 22.3978Z" fill="#F1F3F9"/>
<path d="M124.629 6.39761C126.175 6.39761 127.429 5.144 127.429 3.59761C127.429 2.05121 126.175 0.797607 124.629 0.797607C123.082 0.797607 121.829 2.05121 121.829 3.59761C121.829 5.144 123.082 6.39761 124.629 6.39761Z" fill="#F1F3F9"/>
<path d="M23.2288 22.2978C24.7752 22.2978 26.0288 21.0442 26.0288 19.4978C26.0288 17.9514 24.7752 16.6978 23.2288 16.6978C21.6824 16.6978 20.4288 17.9514 20.4288 19.4978C20.4288 21.0442 21.6824 22.2978 23.2288 22.2978Z" fill="#F1F3F9"/>
<path d="M6.12883 76.2975C9.00071 76.2975 11.3288 73.9693 11.3288 71.0975C11.3288 68.2256 9.00071 65.8975 6.12883 65.8975C3.25695 65.8975 0.928833 68.2256 0.928833 71.0975C0.928833 73.9693 3.25695 76.2975 6.12883 76.2975Z" fill="#F1F3F9"/>
<path d="M85.9288 28.6978L101.229 83.6978C101.729 85.5978 100.629 87.4977 98.7288 87.9977L44.8288 102.298C42.9288 102.798 41.0288 101.698 40.5288 99.7978L21.7288 28.7978C21.2288 26.8978 22.3288 24.9978 24.2288 24.4978L63.2288 14.1978L85.9288 28.6978Z" fill="white" stroke="#D6DCE8" stroke-width="2" stroke-miterlimit="10"/>
<path d="M85.1288 63.4977L56.0288 71.1977L52.8288 71.9977L43.1288 74.5977C42.7288 74.6977 42.4288 75.1977 42.6288 75.6977C42.7288 76.1977 43.2288 76.4977 43.6288 76.3977L53.3288 73.7977L56.5288 72.9977L85.6288 65.2977C86.0288 65.1977 86.3288 64.6977 86.1288 64.1977C86.0288 63.6977 85.5288 63.3977 85.1288 63.4977Z" fill="#D6DCE8"/>
<path d="M83.2288 56.6977L72.4288 59.4977L68.7288 60.4977L41.4288 67.7977C41.0288 67.8977 40.7288 68.3977 40.9288 68.8977C41.0288 69.3977 41.5288 69.6977 41.9288 69.5977L69.3288 62.2977L73.0288 61.2977L83.8288 58.4977C84.2288 58.3977 84.5288 57.8977 84.3288 57.3977C84.1288 56.9977 83.6288 56.5977 83.2288 56.6977Z" fill="#D6DCE8"/>
<path d="M81.6288 49.7977L78.8288 50.4977L76.0288 51.1977L39.5288 60.8977C39.1288 60.9977 38.8288 61.4977 39.0288 61.9977C39.1288 62.4977 39.6288 62.7977 40.0288 62.6977L76.5288 52.9977L79.6288 52.1977L82.1288 51.4977C82.5288 51.3977 82.8288 50.8977 82.6288 50.3977C82.5288 49.9977 82.1288 49.6977 81.6288 49.7977Z" fill="#D6DCE8"/>
<path d="M64.7289 85.1978L62.7289 85.6978C62.3289 85.7978 61.8289 85.4978 61.7289 84.9978C61.6289 84.4978 61.8289 83.9978 62.2289 83.8978L64.2289 83.3978C64.6289 83.2978 65.1289 83.5978 65.2289 84.0978C65.3289 84.6978 65.1289 85.0978 64.7289 85.1978Z" fill="#D6DCE8"/>
<path d="M58.6288 86.7977L47.1288 89.7977C46.7288 89.8977 46.2288 89.5977 46.1288 89.0977C46.0288 88.5977 46.2288 88.0977 46.6288 87.9977L58.1288 84.9977C58.5288 84.8977 59.0288 85.1977 59.1288 85.6977C59.3288 86.1977 59.1288 86.6977 58.6288 86.7977Z" fill="#D6DCE8"/>
<path d="M80.2289 42.8979L71.1289 45.2979L68.9289 45.8979L37.8289 54.0979C37.4289 54.1979 37.1289 54.6979 37.3289 55.1979C37.4289 55.6979 37.9289 55.9979 38.3289 55.8979L69.3289 47.7979L71.5289 47.1979L80.5289 44.7979C81.0289 44.6979 81.2289 44.1979 81.1289 43.5979C81.1289 43.1979 80.6289 42.7979 80.2289 42.8979Z" fill="#D6DCE8"/>
<path d="M58.7288 27.7977L32.9288 34.5977C32.3288 34.7977 31.7288 34.3977 31.5288 33.7977C31.3288 33.1977 31.7288 32.5977 32.3288 32.3977L58.1288 25.5977C58.7288 25.3977 59.3288 25.7977 59.5288 26.3977C59.7288 26.9977 59.3288 27.5977 58.7288 27.7977Z" fill="#D6DCE8"/>
<path d="M44.5288 38.1978L34.6288 40.7978C34.0288 40.9978 33.4288 40.5978 33.2288 39.9978C33.0288 39.3978 33.4288 38.7978 34.0288 38.5978L43.8288 35.9978C44.4288 35.7978 45.0288 36.1978 45.2288 36.7978C45.4288 37.3978 45.0288 37.9978 44.5288 38.1978Z" fill="#D6DCE8"/>
<path d="M63.2288 14.1978L67.2288 29.3978C67.8288 31.4978 70.1288 32.7978 72.2288 32.1978L85.9288 28.6978" fill="#D6DCE8"/>
<path d="M126.329 44.1976L117.129 100.598C116.829 102.498 114.929 103.798 113.029 103.398L58.2288 93.7976C56.3288 93.4976 55.0288 91.5976 55.3288 89.6976L68.0288 17.3976C68.3288 15.4976 70.2288 14.1976 72.1288 14.5976L111.929 21.5976L126.329 44.1976Z" fill="white" stroke="#D6DCE8" stroke-width="2" stroke-miterlimit="10"/>
<path d="M111.029 75.4976L81.4288 70.2976L78.2288 69.6976L68.3288 67.9976C67.9288 67.8976 67.4288 68.2976 67.4288 68.7976C67.3288 69.2976 67.6288 69.7976 68.0288 69.8976L77.9288 71.5976L81.1288 72.1976L110.729 77.3976C111.129 77.4976 111.629 77.0976 111.629 76.5976C111.729 76.0976 111.529 75.5976 111.029 75.4976Z" fill="#D6DCE8"/>
<path d="M112.229 68.5977L101.229 66.6977L97.5288 65.9977L69.6288 61.0977C69.2288 60.9977 68.7288 61.3977 68.7288 61.8977C68.6288 62.3977 68.9288 62.8977 69.3288 62.9977L97.2288 67.8977L100.929 68.5977L111.929 70.4977C112.329 70.5977 112.829 70.1977 112.829 69.6977C112.929 69.1977 112.629 68.6977 112.229 68.5977Z" fill="#D6DCE8"/>
<path d="M113.629 61.5977L110.729 61.0977L107.829 60.5977L70.6288 54.0977C70.2288 53.9977 69.7288 54.3977 69.7288 54.8977C69.6288 55.3977 69.9288 55.8977 70.3288 55.9977L107.529 62.4977L110.729 63.0977L113.229 63.4977C113.629 63.5977 114.129 63.1977 114.129 62.6977C114.329 62.1977 114.129 61.6977 113.629 61.5977Z" fill="#D6DCE8"/>
<path d="M83.4288 86.6976L81.4288 86.3976C81.0288 86.2976 80.7288 85.7976 80.8288 85.2976C80.9288 84.7976 81.3288 84.3976 81.7288 84.4976L83.7288 84.7976C84.1288 84.8976 84.4288 85.3976 84.3288 85.8976C84.2288 86.4976 83.8288 86.6976 83.4288 86.6976Z" fill="#D6DCE8"/>
<path d="M77.3288 85.5976L65.6288 83.5976C65.2288 83.4976 64.9288 82.9976 65.0288 82.4976C65.1288 81.9976 65.5288 81.5976 65.9288 81.6976L77.6288 83.6976C78.0288 83.7976 78.3288 84.2976 78.2288 84.7976C78.1288 85.3976 77.7288 85.6976 77.3288 85.5976Z" fill="#D6DCE8"/>
<path d="M115.229 54.7976L105.929 53.1976L103.629 52.7976L71.9288 47.1976C71.5288 47.0976 71.0288 47.4976 71.0288 47.9976C70.9288 48.4976 71.2288 48.9976 71.6288 49.0976L103.329 54.6976L105.629 55.0976L114.829 56.6976C115.329 56.7976 115.729 56.3976 115.829 55.8976C115.929 55.3976 115.629 54.8976 115.229 54.7976Z" fill="#D6DCE8"/>
<path d="M102.129 32.0975L75.8288 27.4975C75.2288 27.3975 74.8288 26.7975 74.9288 26.1975C75.0288 25.5975 75.6288 25.1975 76.2288 25.2975L102.529 29.8975C103.129 29.9975 103.529 30.5975 103.429 31.1975C103.329 31.6975 102.729 32.1975 102.129 32.0975Z" fill="#D6DCE8"/>
<path d="M84.8288 35.4977L74.7288 33.6977C74.1288 33.5977 73.7288 32.9977 73.8288 32.3977C73.9288 31.7977 74.5288 31.3977 75.1288 31.4977L85.1288 33.2977C85.7288 33.3977 86.1288 33.9977 86.0288 34.5977C85.9288 35.1977 85.3288 35.5977 84.8288 35.4977Z" fill="#D6DCE8"/>
<path d="M111.829 21.5977L109.129 37.0977C108.729 39.2977 110.329 41.3977 112.529 41.7977L126.329 44.1977" fill="#D6DCE8"/>
<path d="M88.6289 95.2978C100.945 95.2978 110.929 85.3137 110.929 72.9977C110.929 60.6818 100.945 50.6978 88.6289 50.6978C76.3129 50.6978 66.3289 60.6818 66.3289 72.9977C66.3289 85.3137 76.3129 95.2978 88.6289 95.2978Z" fill="white"/>
<path d="M120.97 107.438C120.104 107.438 119.239 107.092 118.546 106.313L104.091 91.8572L103.571 92.2035C98.8972 95.6658 93.444 97.4836 87.9042 97.4836C81.2392 97.4836 74.5741 94.8003 69.6403 90.1261C64.4467 85.1922 61.5903 78.5272 61.5903 71.2562C61.5903 56.8008 73.3623 45.0288 87.8177 45.0288C97.6854 45.0288 106.341 50.2224 111.015 59.0514C115.603 67.7938 114.997 78.0078 109.371 86.2309L109.025 86.7503L123.567 101.292C125.038 102.764 124.692 104.235 124.432 105.014C123.74 106.399 122.355 107.438 120.97 107.438ZM87.8177 52.2132C77.2575 52.2132 68.7747 60.7826 68.7747 71.2562C68.7747 83.2013 78.5558 90.3857 88.0773 90.3857C93.8768 90.3857 99.1569 87.789 102.879 83.1148C107.467 77.4019 108.246 69.6981 105.043 63.0331C101.754 56.368 95.1752 52.2132 87.8177 52.2132Z" fill="#D6DCE8" stroke="#AAB2C5" stroke-width="2" stroke-miterlimit="10"/>
<path d="M86.5289 76.5976C86.4289 76.1976 86.4289 75.7976 86.4289 75.2976C86.4289 73.5976 87.1289 72.0976 88.9289 70.7976L90.4289 69.6976C91.3289 68.9976 91.7289 68.1976 91.7289 67.1976C91.7289 65.7976 90.7289 64.3976 88.6289 64.3976C86.4289 64.3976 85.4289 66.1976 85.4289 67.8976C85.4289 68.2976 85.4289 68.5976 85.5289 68.8976L81.5289 68.7976C81.4289 68.3976 81.3289 67.8976 81.3289 67.3976C81.3289 63.9976 83.8289 60.7976 88.5289 60.7976C93.3289 60.7976 95.9289 63.8976 95.9289 66.9976C95.9289 69.4976 94.6289 71.1976 92.8289 72.4976L91.5289 73.3976C90.4289 74.1976 89.8289 75.1976 89.8289 76.3976V76.5976H86.5289ZM88.2289 78.5976C89.6289 78.5976 90.7289 79.6976 90.7289 81.0976C90.7289 82.4976 89.6289 83.5976 88.2289 83.5976C86.8289 83.5976 85.7289 82.4976 85.7289 81.0976C85.8289 79.7976 86.8289 78.5976 88.2289 78.5976Z" fill="#B2C0D1"/>
</svg>
