<svg width="394" height="259" viewBox="0 0 394 259" fill="none" xmlns="http://www.w3.org/2000/svg">
<path d="M41.7744 237.057H89.579V240.937H41.7744V237.057Z" fill="#E7EBF2"/>
<path d="M44.7292 228.366C45.1314 227.131 46.2828 226.295 47.5818 226.295H83.8968C85.1958 226.295 86.3472 227.131 86.7494 228.366L89.579 237.057H41.8996L44.7292 228.366Z" fill="#E7EBF2"/>
<path d="M27.0075 72.1187V86.7604H163.914L150.649 73.3701L27.0075 72.1187Z" stroke="#E7EBF2" stroke-width="2" stroke-miterlimit="10" stroke-linejoin="round"/>
<path d="M104.721 86.7604V73.3701L119.989 86.7604V73.3701L135.381 86.7604V73.3701L150.649 86.7604V73.8707V73.3701" stroke="#E7EBF2" stroke-width="2" stroke-miterlimit="10" stroke-linejoin="round"/>
<path d="M43.4013 86.7603V72.3689" stroke="#E7EBF2" stroke-width="2" stroke-miterlimit="10" stroke-linejoin="round"/>
<path d="M89.3287 73.3701V86.7604L74.0613 73.3701" stroke="#E7EBF2" stroke-width="2" stroke-miterlimit="10" stroke-linejoin="round"/>
<path d="M74.0613 73.3701V86.7604" stroke="#E7EBF2" stroke-width="2" stroke-miterlimit="10" stroke-linejoin="round"/>
<path d="M57.5424 220.037H73.9361V58.478L65.6767 50.8442L57.5424 58.478V220.037Z" stroke="#E7EBF2" stroke-width="2" stroke-miterlimit="10" stroke-linejoin="round"/>
<path d="M73.9361 59.354H57.5424" stroke="#E7EBF2" stroke-width="2" stroke-miterlimit="10"/>
<path d="M73.9361 100.651H57.5424" stroke="#E7EBF2" stroke-width="2" stroke-miterlimit="10" stroke-linejoin="round"/>
<path d="M73.9361 113.916H57.5424" stroke="#E7EBF2" stroke-width="2" stroke-miterlimit="10"/>
<path d="M73.9361 127.056H57.5424" stroke="#E7EBF2" stroke-width="2" stroke-miterlimit="10"/>
<path d="M73.9361 140.322H57.5424" stroke="#E7EBF2" stroke-width="2" stroke-miterlimit="10"/>
<path d="M73.9361 153.587H57.5424" stroke="#E7EBF2" stroke-width="2" stroke-miterlimit="10"/>
<path d="M73.9361 166.852H57.5424" stroke="#E7EBF2" stroke-width="2" stroke-miterlimit="10"/>
<path d="M73.9361 179.992H57.5424" stroke="#E7EBF2" stroke-width="2" stroke-miterlimit="10"/>
<path d="M73.9361 193.257H57.5424" stroke="#E7EBF2" stroke-width="2" stroke-miterlimit="10"/>
<path d="M73.9361 206.522H57.5424" stroke="#E7EBF2" stroke-width="2" stroke-miterlimit="10"/>
<path d="M138.51 73.2448L65.6767 50.8442L31.0121 72.2437" stroke="#E7EBF2" stroke-width="2" stroke-miterlimit="10" stroke-linejoin="round"/>
<path d="M74.0613 86.76L57.5424 72.6189" stroke="#E7EBF2" stroke-width="2" stroke-miterlimit="10" stroke-linejoin="round"/>
<path d="M58.043 87.261L73.5607 100.151" stroke="#E7EBF2" stroke-width="2" stroke-miterlimit="10" stroke-linejoin="round"/>
<path d="M58.043 59.6042L73.6858 72.1185" stroke="#E7EBF2" stroke-width="2" stroke-miterlimit="10" stroke-linejoin="round"/>
<path d="M43.9018 72.6189L56.9167 86.5098" stroke="#E7EBF2" stroke-width="2" stroke-miterlimit="10" stroke-linejoin="round"/>
<path d="M43.0258 86.5098L27.1327 72.6189" stroke="#E7EBF2" stroke-width="2" stroke-miterlimit="10" stroke-linejoin="round"/>
<path d="M89.8293 73.2449L104.221 86.1346" stroke="#E7EBF2" stroke-width="2" stroke-miterlimit="10" stroke-linejoin="round"/>
<path d="M58.1681 101.027L73.5607 113.416" stroke="#E7EBF2" stroke-width="2" stroke-miterlimit="10" stroke-linejoin="round"/>
<path d="M58.1681 114.417L73.5607 126.556" stroke="#E7EBF2" stroke-width="2" stroke-miterlimit="10" stroke-linejoin="round"/>
<path d="M58.043 127.557L73.5607 139.821" stroke="#E7EBF2" stroke-width="2" stroke-miterlimit="10" stroke-linejoin="round"/>
<path d="M58.043 140.948L73.5607 153.086" stroke="#E7EBF2" stroke-width="2" stroke-miterlimit="10" stroke-linejoin="round"/>
<path d="M58.043 154.087L73.5607 166.226" stroke="#E7EBF2" stroke-width="2" stroke-miterlimit="10" stroke-linejoin="round"/>
<path d="M58.043 167.227L73.5607 179.491" stroke="#E7EBF2" stroke-width="2" stroke-miterlimit="10" stroke-linejoin="round"/>
<path d="M58.043 180.493L73.5607 192.757" stroke="#E7EBF2" stroke-width="2" stroke-miterlimit="10" stroke-linejoin="round"/>
<path d="M58.043 193.758L73.5607 206.022" stroke="#E7EBF2" stroke-width="2" stroke-miterlimit="10" stroke-linejoin="round"/>
<path d="M58.043 207.148L73.5607 219.287" stroke="#E7EBF2" stroke-width="2" stroke-miterlimit="10" stroke-linejoin="round"/>
<path d="M50.0316 219.912H81.3219C82.4264 219.912 83.3219 220.808 83.3219 221.912V226.295H48.0316V221.912C48.0316 220.808 48.927 219.912 50.0316 219.912Z" fill="#E7EBF2"/>
<path d="M91.8315 98.8993L82.4458 108.285C81.8201 108.911 80.9441 109.286 80.1932 109.286H56.6664V87.261H92.9578V96.5216C92.7075 97.5227 92.4572 98.2736 91.8315 98.8993Z" fill="#E7EBF2"/>
<path d="M70.4501 97.2588L61.4376 97.2588C60.8853 97.2588 60.4376 96.8111 60.4376 96.2588L60.4376 91.8765C60.4376 91.3242 60.8853 90.8765 61.4376 90.8765L70.4501 90.8765C71.0024 90.8765 71.4501 91.3242 71.4501 91.8765L71.4501 96.2588C71.4501 96.8111 71.0024 97.2588 70.4501 97.2588Z" fill="white"/>
<path d="M84.6864 97.2585L75.6738 97.2585C75.1216 97.2585 74.6738 96.8108 74.6738 96.2585L74.6738 91.8763C74.6738 91.324 75.1216 90.8763 75.6738 90.8763L84.6864 90.8763C85.2387 90.8763 85.6864 91.324 85.6864 91.8763L85.6864 96.2585C85.6864 96.8108 85.2387 97.2585 84.6864 97.2585Z" fill="white"/>
<path d="M29.4609 201.811H24.5541V241.857H29.4609V201.811Z" fill="#F1F3F9" stroke="#D6DCE8" stroke-width="2" stroke-miterlimit="10" stroke-linejoin="round"/>
<path d="M64.2832 201.811H59.3764V241.857H64.2832V201.811Z" fill="#F1F3F9" stroke="#D6DCE8" stroke-width="2" stroke-miterlimit="10" stroke-linejoin="round"/>
<path d="M212.436 241.684C199.14 242.001 183.312 241.684 172.074 241.526C160.836 241.842 145.008 242.001 131.712 241.684C144.849 234.245 149.281 220.474 150.073 211.294H193.917C194.867 220.474 199.299 234.245 212.436 241.684Z" fill="#F1F3F9" stroke="#D6DCE8" stroke-width="2" stroke-miterlimit="10"/>
<path d="M254.539 94.8116V208.617C254.539 211.466 252.323 213.524 249.633 213.524H94.5153C91.8244 213.524 89.6085 211.308 89.6085 208.617V94.8116C89.6085 92.1208 91.8244 89.9048 94.5153 89.9048H249.633C252.323 89.9048 254.539 91.9625 254.539 94.8116Z" fill="white" stroke="#D6DCE8" stroke-width="2" stroke-miterlimit="10" stroke-linejoin="round"/>
<path d="M254.539 94.8116V192.947H89.7667V94.8116C89.7667 92.1208 91.9826 89.9048 94.6735 89.9048H249.791C252.323 89.9048 254.539 91.9625 254.539 94.8116Z" fill="#F1F3F9" stroke="#D6DCE8" stroke-width="2" stroke-miterlimit="10"/>
<path d="M248.683 95.9194H95.6233V187.249H248.525V95.9194H248.683Z" fill="white"/>
<path d="M172.074 207.192C174.347 207.192 176.189 205.35 176.189 203.077C176.189 200.804 174.347 198.962 172.074 198.962C169.801 198.962 167.959 200.804 167.959 203.077C167.959 205.35 169.801 207.192 172.074 207.192Z" fill="#D6DCE8"/>
<path d="M345.029 206.243H340.755V241.382H345.029V206.243Z" fill="#F1F3F9" stroke="#D6DCE8" stroke-width="2" stroke-miterlimit="10" stroke-linejoin="round"/>
<path d="M375.577 206.243H371.304V241.382H375.577V206.243Z" fill="#F1F3F9" stroke="#D6DCE8" stroke-width="2" stroke-miterlimit="10" stroke-linejoin="round"/>
<path d="M380.959 207.826H336.007V222.23H380.959V207.826Z" fill="white" stroke="#D6DCE8" stroke-width="2" stroke-miterlimit="10"/>
<path d="M346.928 207.826L342.18 222.23H336.798L341.388 207.826H346.928Z" fill="#D6DCE8"/>
<path d="M357.85 207.826L353.101 222.23H347.72L352.31 207.826H357.85Z" fill="#D6DCE8"/>
<path d="M368.771 207.826L364.023 222.23H358.641L363.231 207.826H368.771Z" fill="#D6DCE8"/>
<path d="M379.693 207.826L374.944 222.23H369.563L374.153 207.826H379.693Z" fill="#D6DCE8"/>
<path d="M70.4561 203.71H19.1724V220.172H70.4561V203.71Z" fill="white" stroke="#D6DCE8" stroke-width="2" stroke-miterlimit="10"/>
<path d="M31.5185 203.71L26.1369 220.014H19.9639L25.3455 203.71H31.5185Z" fill="#D6DCE8"/>
<path d="M44.0229 203.71L38.6413 220.014H32.4683L37.6916 203.71H44.0229Z" fill="#D6DCE8"/>
<path d="M56.5273 203.71L51.1457 220.014H44.9727L50.196 203.71H56.5273Z" fill="#D6DCE8"/>
<path d="M69.0317 203.71L63.6501 220.014H57.4771L62.7004 203.71H69.0317Z" fill="#D6DCE8"/>
<path d="M192.176 45.7441V65.0547" stroke="#D6DCE8" stroke-width="2" stroke-miterlimit="10" stroke-linejoin="round"/>
<path d="M192.255 73.4436C195.358 73.4436 197.874 70.9279 197.874 67.8246C197.874 64.7213 195.358 62.2056 192.255 62.2056C189.152 62.2056 186.636 64.7213 186.636 67.8246C186.636 70.9279 189.152 73.4436 192.255 73.4436Z" fill="#D6DCE8"/>
<path d="M186.794 82.7824C186.794 86.2647 189.96 89.1138 193.759 88.1641C195.817 87.6892 197.399 86.1064 197.874 84.0487C198.507 81.0413 196.766 78.1922 194.075 77.4008C193.126 77.0842 192.493 76.2928 192.493 75.1848V70.2781" stroke="#D6DCE8" stroke-width="2" stroke-miterlimit="10" stroke-linejoin="round"/>
<path d="M328.933 236.633H268.468V241.54H328.933V236.633Z" fill="#F1F3F9" stroke="#D6DCE8" stroke-width="2" stroke-miterlimit="10" stroke-linejoin="round"/>
<path d="M324.342 223.021H272.9L268.468 236.633H328.774L324.342 223.021Z" fill="#F1F3F9" stroke="#D6DCE8" stroke-width="2" stroke-miterlimit="10" stroke-linejoin="round"/>
<path d="M347.61 28.0159V46.535H174.448L191.226 29.5987L347.61 28.0159Z" stroke="#D6DCE8" stroke-width="2" stroke-miterlimit="10" stroke-linejoin="round"/>
<path d="M249.316 46.5349V29.5986L230.006 46.5349V29.5986L210.537 46.5349V29.5986L191.226 46.5349V30.2318V29.5986" stroke="#D6DCE8" stroke-width="2" stroke-miterlimit="10" stroke-linejoin="round"/>
<path d="M326.875 46.5351V28.3325" stroke="#D6DCE8" stroke-width="2" stroke-miterlimit="10" stroke-linejoin="round"/>
<path d="M268.785 29.5986V46.5349L288.095 29.5986" stroke="#D6DCE8" stroke-width="2" stroke-miterlimit="10" stroke-linejoin="round"/>
<path d="M288.095 29.5986V46.5349" stroke="#D6DCE8" stroke-width="2" stroke-miterlimit="10" stroke-linejoin="round"/>
<path d="M308.989 215.106H288.254V10.7629L298.7 1.10767L308.989 10.7629V215.106Z" stroke="#D6DCE8" stroke-width="2" stroke-miterlimit="10" stroke-linejoin="round"/>
<path d="M288.254 11.8711H308.989" stroke="#D6DCE8" stroke-width="2" stroke-miterlimit="10"/>
<path d="M288.254 64.1045H308.989" stroke="#D6DCE8" stroke-width="2" stroke-miterlimit="10" stroke-linejoin="round"/>
<path d="M288.254 80.8821H308.989" stroke="#D6DCE8" stroke-width="2" stroke-miterlimit="10"/>
<path d="M288.254 97.5022H308.989" stroke="#D6DCE8" stroke-width="2" stroke-miterlimit="10"/>
<path d="M288.254 114.28H308.989" stroke="#D6DCE8" stroke-width="2" stroke-miterlimit="10"/>
<path d="M288.254 131.058H308.989" stroke="#D6DCE8" stroke-width="2" stroke-miterlimit="10"/>
<path d="M288.254 147.836H308.989" stroke="#D6DCE8" stroke-width="2" stroke-miterlimit="10"/>
<path d="M288.254 164.456H308.989" stroke="#D6DCE8" stroke-width="2" stroke-miterlimit="10"/>
<path d="M288.254 181.234H308.989" stroke="#D6DCE8" stroke-width="2" stroke-miterlimit="10"/>
<path d="M288.254 198.012H308.989" stroke="#D6DCE8" stroke-width="2" stroke-miterlimit="10"/>
<path d="M206.58 29.4403L298.7 1.10767L342.545 28.1741" stroke="#D6DCE8" stroke-width="2" stroke-miterlimit="10" stroke-linejoin="round"/>
<path d="M288.095 46.5347L308.989 28.6487" stroke="#D6DCE8" stroke-width="2" stroke-miterlimit="10" stroke-linejoin="round"/>
<path d="M308.356 47.1682L288.729 63.4714" stroke="#D6DCE8" stroke-width="2" stroke-miterlimit="10" stroke-linejoin="round"/>
<path d="M308.356 12.1875L288.57 28.0158" stroke="#D6DCE8" stroke-width="2" stroke-miterlimit="10" stroke-linejoin="round"/>
<path d="M326.242 28.6487L309.78 46.2181" stroke="#D6DCE8" stroke-width="2" stroke-miterlimit="10" stroke-linejoin="round"/>
<path d="M327.35 46.2181L347.452 28.6487" stroke="#D6DCE8" stroke-width="2" stroke-miterlimit="10" stroke-linejoin="round"/>
<path d="M268.152 29.4402L249.949 45.7433" stroke="#D6DCE8" stroke-width="2" stroke-miterlimit="10" stroke-linejoin="round"/>
<path d="M308.197 64.5793L288.729 80.2494" stroke="#D6DCE8" stroke-width="2" stroke-miterlimit="10" stroke-linejoin="round"/>
<path d="M308.197 81.5156L288.729 96.8691" stroke="#D6DCE8" stroke-width="2" stroke-miterlimit="10" stroke-linejoin="round"/>
<path d="M308.356 98.1353L288.729 113.647" stroke="#D6DCE8" stroke-width="2" stroke-miterlimit="10" stroke-linejoin="round"/>
<path d="M308.356 115.072L288.729 130.425" stroke="#D6DCE8" stroke-width="2" stroke-miterlimit="10" stroke-linejoin="round"/>
<path d="M308.356 131.691L288.729 147.045" stroke="#D6DCE8" stroke-width="2" stroke-miterlimit="10" stroke-linejoin="round"/>
<path d="M308.356 148.311L288.729 163.823" stroke="#D6DCE8" stroke-width="2" stroke-miterlimit="10" stroke-linejoin="round"/>
<path d="M308.356 165.089L288.729 180.601" stroke="#D6DCE8" stroke-width="2" stroke-miterlimit="10" stroke-linejoin="round"/>
<path d="M308.356 181.867L288.729 197.379" stroke="#D6DCE8" stroke-width="2" stroke-miterlimit="10" stroke-linejoin="round"/>
<path d="M308.356 198.803L288.729 214.157" stroke="#D6DCE8" stroke-width="2" stroke-miterlimit="10" stroke-linejoin="round"/>
<path d="M321.018 214.948H276.383V223.021H321.018V214.948Z" fill="#F1F3F9" stroke="#D6DCE8" stroke-width="2" stroke-miterlimit="10" stroke-linejoin="round"/>
<path d="M123.164 181.709H103.537C101.955 181.709 100.688 180.443 100.688 178.86V103.201C100.688 101.618 101.955 100.352 103.537 100.352H123.164C124.747 100.352 126.014 101.618 126.014 103.201V178.86C126.014 180.443 124.747 181.709 123.164 181.709Z" fill="#F1F3F9"/>
<path d="M113.351 115.547C115.973 115.547 118.099 113.421 118.099 110.798C118.099 108.176 115.973 106.05 113.351 106.05C110.728 106.05 108.602 108.176 108.602 110.798C108.602 113.421 110.728 115.547 113.351 115.547Z" fill="#D6DCE8"/>
<path d="M121.74 122.511H104.962C104.645 122.511 104.487 122.353 104.487 122.036V120.77C104.487 120.453 104.645 120.295 104.962 120.295H121.582C121.898 120.295 122.056 120.453 122.056 120.77V122.036C122.215 122.353 121.898 122.511 121.74 122.511Z" fill="#D6DCE8"/>
<path d="M121.74 129.159H104.962C104.645 129.159 104.487 129.001 104.487 128.684V127.418C104.487 127.101 104.645 126.943 104.962 126.943H121.582C121.898 126.943 122.056 127.101 122.056 127.418V128.684C122.215 129.001 121.898 129.159 121.74 129.159Z" fill="#D6DCE8"/>
<path d="M121.74 135.807H104.962C104.645 135.807 104.487 135.649 104.487 135.332V134.066C104.487 133.749 104.645 133.591 104.962 133.591H121.582C121.898 133.591 122.056 133.749 122.056 134.066V135.332C122.215 135.649 121.898 135.807 121.74 135.807Z" fill="#D6DCE8"/>
<path d="M121.74 142.613H104.962C104.645 142.613 104.487 142.455 104.487 142.138V140.872C104.487 140.555 104.645 140.397 104.962 140.397H121.582C121.898 140.397 122.056 140.555 122.056 140.872V142.138C122.215 142.296 121.898 142.613 121.74 142.613Z" fill="#D6DCE8"/>
<path d="M121.74 149.261H104.962C104.645 149.261 104.487 149.103 104.487 148.786V147.52C104.487 147.203 104.645 147.045 104.962 147.045H121.582C121.898 147.045 122.056 147.203 122.056 147.52V148.786C122.215 148.945 121.898 149.261 121.74 149.261Z" fill="#D6DCE8"/>
<path d="M121.74 155.909H104.962C104.645 155.909 104.487 155.75 104.487 155.434V154.167C104.487 153.851 104.645 153.693 104.962 153.693H121.582C121.898 153.693 122.056 153.851 122.056 154.167V155.434C122.215 155.75 121.898 155.909 121.74 155.909Z" fill="#D6DCE8"/>
<path d="M118.733 162.557H108.128C107.811 162.557 107.653 162.398 107.653 162.082V160.816C107.653 160.499 107.811 160.341 108.128 160.341H118.733C119.049 160.341 119.207 160.499 119.207 160.816V162.082C119.207 162.398 118.891 162.557 118.733 162.557Z" fill="#D6DCE8"/>
<path d="M182.204 170.312H139.943V172.687H182.204V170.312Z" fill="#D6DCE8"/>
<path d="M162.894 176.644H139.943V179.018H162.894V176.644Z" fill="#D6DCE8"/>
<path d="M233.013 170.312H190.751V172.687H233.013V170.312Z" fill="#D6DCE8"/>
<path d="M213.702 176.644H190.751V179.018H213.702V176.644Z" fill="#D6DCE8"/>
<path d="M155.205 93.148L188.711 86.4818C191.167 85.9555 193.623 86.4818 195.553 87.7098L221.341 102.621" stroke="#AAB2C5" stroke-width="2" stroke-miterlimit="10" stroke-linejoin="round"/>
<path opacity="0.1" d="M223.972 184.575L139.101 171.768C136.469 171.418 134.715 168.962 135.066 166.33L143.662 105.106C144.013 102.475 146.469 100.721 149.1 101.071L233.971 113.878C236.603 114.228 238.357 116.684 238.006 119.316L229.41 180.54C229.059 182.996 226.603 184.925 223.972 184.575Z" fill="#3B589D"/>
<path d="M220.972 173.318L136.101 160.512C133.47 160.161 131.715 157.705 132.066 155.074L140.662 93.8497C141.013 91.2183 143.469 89.464 146.1 89.8149L230.971 102.621C233.603 102.972 235.357 105.428 235.006 108.059L226.41 169.283C226.059 171.739 223.603 173.669 220.972 173.318Z" fill="white" stroke="#D6DCE8" stroke-width="2" stroke-miterlimit="10" stroke-linejoin="round"/>
<path d="M218.193 166.351L142.325 154.502C140.18 154.216 138.751 152.214 139.037 150.069L146.043 100.168C146.329 98.0237 148.33 96.5939 150.475 96.8799L226.343 108.729C228.488 109.015 229.918 111.017 229.632 113.162L222.625 163.062C222.339 165.064 220.338 166.637 218.193 166.351Z" fill="#F1F3F9"/>
<path d="M265.619 61.8888L277.491 73.76C278.282 74.5514 279.39 75.0263 280.34 75.0263H310.097V47.1685H264.195V58.8814C264.511 60.1477 264.828 61.0974 265.619 61.8888Z" fill="#F1F3F9" stroke="#D6DCE8" stroke-width="2" stroke-miterlimit="10" stroke-linejoin="round"/>
<path d="M291.398 59.8135L305.327 59.8135L305.327 51.741L291.398 51.741L291.398 59.8135Z" fill="white" stroke="#D6DCE8" stroke-width="2" stroke-miterlimit="10" stroke-linejoin="round"/>
<path d="M273.392 59.8135L287.321 59.8135L287.321 51.741L273.392 51.741L273.392 59.8135Z" fill="white" stroke="#D6DCE8" stroke-width="2" stroke-miterlimit="10" stroke-linejoin="round"/>
<path d="M2.39447 241.856H392.37" stroke="#CDD6E1" stroke-width="3" stroke-miterlimit="10" stroke-linecap="round" stroke-linejoin="round"/>
<path d="M137.244 240.591H115.875L116.825 238.217L119.041 232.202L120.94 226.978L123.156 220.964L124.739 216.848C125.056 216.057 125.847 215.424 126.639 215.424C127.43 215.424 128.222 215.899 128.538 216.848L130.121 220.964L132.337 226.978L134.236 232.202L136.452 238.217L137.244 240.591Z" fill="white" stroke="#D6DCE8" stroke-width="2" stroke-miterlimit="10"/>
<path d="M132.343 226.979H120.953L123.094 221.122H130.172L132.343 226.979Z" fill="#D6DCE8"/>
<path d="M136.445 238.217H116.818L119.034 232.202H134.229L136.445 238.217Z" fill="#D6DCE8"/>
<path d="M137.244 240.591H115.717C115.084 240.591 114.451 240.116 114.451 239.325C114.451 238.692 114.926 238.059 115.717 238.059H137.244C137.877 238.059 138.51 238.533 138.51 239.325C138.51 240.116 138.035 240.591 137.244 240.591Z" fill="white" stroke="#D6DCE8" stroke-width="2" stroke-miterlimit="10"/>
<path d="M254.341 240.591H232.973L233.923 238.217L236.139 232.202L238.038 226.978L240.254 220.964L241.837 216.848C242.153 216.057 242.945 215.424 243.736 215.424C244.528 215.424 245.319 215.899 245.636 216.848L247.218 220.964L249.434 226.978L251.334 232.202L253.55 238.217L254.341 240.591Z" fill="white" stroke="#D6DCE8" stroke-width="2" stroke-miterlimit="10"/>
<path d="M249.44 226.979H238.051L240.191 221.122H247.269L249.44 226.979Z" fill="#D6DCE8"/>
<path d="M253.543 238.217H233.916L236.132 232.202H251.327L253.543 238.217Z" fill="#D6DCE8"/>
<path d="M254.341 240.591H232.815C232.182 240.591 231.548 240.116 231.548 239.325C231.548 238.692 232.023 238.059 232.815 238.059H254.341C254.974 238.059 255.607 238.533 255.607 239.325C255.607 240.116 255.133 240.591 254.341 240.591Z" fill="white" stroke="#D6DCE8" stroke-width="2" stroke-miterlimit="10"/>
<path d="M167.412 133.454C169.653 133.795 171.838 132.187 172.178 129.946C172.519 127.705 170.911 125.52 168.67 125.18C166.429 124.839 164.244 126.447 163.904 128.688C163.563 130.929 165.171 133.114 167.412 133.454Z" fill="#AAB2C5"/>
<path d="M199.132 138.274C201.373 138.615 203.557 137.007 203.898 134.766C204.238 132.525 202.63 130.34 200.389 130C198.148 129.659 195.964 131.267 195.623 133.508C195.256 135.922 196.891 137.934 199.132 138.274Z" fill="#AAB2C5"/>
<path d="M169.959 115.604L160.111 119.135L160.994 121.597L170.842 118.066L169.959 115.604Z" fill="#AAB2C5"/>
<path d="M201.288 120.299L199.714 122.387L208.069 128.684L209.643 126.595L201.288 120.299Z" fill="#AAB2C5"/>
<path d="M181.805 145.518C184.471 145.923 186.878 144.631 187.182 142.631C187.486 140.632 185.571 138.683 182.905 138.278C180.239 137.873 177.832 139.165 177.528 141.164C177.224 143.164 179.139 145.113 181.805 145.518Z" fill="#AAB2C5"/>
<path d="M124.053 257.014H334.329" stroke="#CDD6E1" stroke-width="3" stroke-miterlimit="10" stroke-linecap="round" stroke-linejoin="round"/>
<path d="M55.6593 257.014H82.2326" stroke="#CDD6E1" stroke-width="3" stroke-miterlimit="10" stroke-linecap="round" stroke-linejoin="round"/>
</svg>
