<svg width="123" height="124" viewBox="0 0 123 124" fill="none" xmlns="http://www.w3.org/2000/svg">
<circle cx="59.6236" cy="50.9583" r="47.8602" fill="#EAEEF9"/>
<path d="M113.434 31.2083C115.698 31.2083 117.534 29.3727 117.534 27.1083C117.534 24.8439 115.698 23.0083 113.434 23.0083C111.169 23.0083 109.334 24.8439 109.334 27.1083C109.334 29.3727 111.169 31.2083 113.434 31.2083Z" fill="#EAEEF9"/>
<path d="M119.434 15.2084C120.98 15.2084 122.234 13.9548 122.234 12.4084C122.234 10.862 120.98 9.6084 119.434 9.6084C117.887 9.6084 116.634 10.862 116.634 12.4084C116.634 13.9548 117.887 15.2084 119.434 15.2084Z" fill="#EAEEF9"/>
<path d="M17.4837 10.6585C20.3556 10.6585 22.6837 8.33043 22.6837 5.45855C22.6837 2.58667 20.3556 0.258545 17.4837 0.258545C14.6118 0.258545 12.2837 2.58667 12.2837 5.45855C12.2837 8.33043 14.6118 10.6585 17.4837 10.6585Z" fill="#EAEEF9"/>
<path d="M78.1318 24.8839H52.637V15.2085H86.0568C86.1182 15.2085 86.1796 15.2085 86.2411 15.2085C91.4629 15.3318 95.7018 19.6456 95.7018 24.8839H84.6438" fill="#CCD4E2"/>
<g filter="url(#filter0_d)">
<path d="M86.9782 15.2085C85.0123 15.3318 83.1693 16.1329 81.8792 17.4887C81.7563 17.6119 81.6335 17.7352 81.5106 17.9201C80.3433 19.2759 79.4833 21.0631 79.4833 22.9735V80.5331C79.4833 85.8946 75.1829 90.2085 69.8382 90.2085H22.9031V22.5421C23.0259 20.57 23.7631 18.7829 25.0532 17.4887C26.4662 16.0713 28.3707 15.2085 30.5208 15.2085H77.7631H86.7324C86.7939 15.2085 86.8553 15.2085 86.9782 15.2085Z" fill="url(#paint0_linear)"/>
</g>
<path d="M70.1455 28.3967H56.2001C55.7086 28.3967 55.2786 27.9653 55.2786 27.4723C55.2786 26.9792 55.7086 26.5479 56.2001 26.5479H70.1455C70.6369 26.5479 71.067 26.9792 71.067 27.4723C71.067 27.9653 70.6984 28.3967 70.1455 28.3967Z" fill="#B3BFD3"/>
<path d="M49.6266 28.3967H31.4423C30.9508 28.3967 30.5208 27.9653 30.5208 27.4723C30.5208 26.9792 30.9508 26.5479 31.4423 26.5479H49.688C50.1795 26.5479 50.6095 26.9792 50.6095 27.4723C50.6095 27.9653 50.1795 28.3967 49.6266 28.3967Z" fill="#B3BFD3"/>
<path d="M61.299 37.5175H43.1761C42.6847 37.5175 42.2546 37.0861 42.2546 36.5931C42.2546 36.1001 42.6847 35.6687 43.1761 35.6687H61.299C61.7905 35.6687 62.2205 36.1001 62.2205 36.5931C62.2819 37.0861 61.8519 37.5175 61.299 37.5175Z" fill="#B3BFD3"/>
<path d="M37.3399 37.5175H31.4423C30.9508 37.5175 30.5208 37.0861 30.5208 36.5931C30.5208 36.1001 30.9508 35.6687 31.4423 35.6687H37.3399C37.8313 35.6687 38.2614 36.1001 38.2614 36.5931C38.2614 37.0861 37.8313 37.5175 37.3399 37.5175Z" fill="#D4DBEC"/>
<path d="M70.1455 46.6384H59.026C58.5345 46.6384 58.1045 46.207 58.1045 45.714C58.1045 45.2209 58.5345 44.7896 59.026 44.7896H70.1455C70.6369 44.7896 71.067 45.2209 71.067 45.714C71.067 46.207 70.6984 46.6384 70.1455 46.6384Z" fill="#D4DBEC"/>
<path d="M53.6812 46.6384H31.4423C30.9508 46.6384 30.5208 46.207 30.5208 45.714C30.5208 45.2209 30.9508 44.7896 31.4423 44.7896H53.6812C54.1726 44.7896 54.6027 45.2209 54.6027 45.714C54.6027 46.207 54.2341 46.6384 53.6812 46.6384Z" fill="#B3BFD3"/>
<path d="M61.2991 55.759H49.0738C48.5824 55.759 48.1523 55.3276 48.1523 54.8346C48.1523 54.3415 48.5824 53.9102 49.0738 53.9102H61.2991C61.7906 53.9102 62.2206 54.3415 62.2206 54.8346C62.282 55.3276 61.852 55.759 61.2991 55.759Z" fill="#B3BFD3"/>
<path d="M43.7289 55.759H31.4423C30.9508 55.759 30.5208 55.3276 30.5208 54.8346C30.5208 54.3415 30.9508 53.9102 31.4423 53.9102H43.7904C44.2818 53.9102 44.7119 54.3415 44.7119 54.8346C44.7119 55.3276 44.2818 55.759 43.7289 55.759Z" fill="#D4DBEC"/>
<path d="M70.1453 64.8798H61.6061C61.1146 64.8798 60.6846 64.4484 60.6846 63.9554C60.6846 63.4624 61.1146 63.031 61.6061 63.031H70.1453C70.6368 63.031 71.0668 63.4624 71.0668 63.9554C71.0668 64.4484 70.6982 64.8798 70.1453 64.8798Z" fill="#B3BFD3"/>
<path d="M56.0773 64.8798H41.7633C41.2718 64.8798 40.8418 64.4484 40.8418 63.9554C40.8418 63.4624 41.2718 63.031 41.7633 63.031H56.0773C56.5688 63.031 56.9988 63.4624 56.9988 63.9554C56.9988 64.4484 56.5688 64.8798 56.0773 64.8798Z" fill="#D4DBEC"/>
<path d="M36.4184 64.8798H31.4423C30.9508 64.8798 30.5208 64.4484 30.5208 63.9554C30.5208 63.4624 30.9508 63.031 31.4423 63.031H36.4184C36.9098 63.031 37.3399 63.4624 37.3399 63.9554C37.3399 64.4484 36.9098 64.8798 36.4184 64.8798Z" fill="#B3BFD3"/>
<path d="M61.299 74.0007H52.8212C52.3297 74.0007 51.8997 73.5693 51.8997 73.0763C51.8997 72.5832 52.3297 72.1519 52.8212 72.1519H61.299C61.7904 72.1519 62.2205 72.5832 62.2205 73.0763C62.2819 73.5693 61.8519 74.0007 61.299 74.0007Z" fill="#B3BFD3"/>
<path d="M47.2306 74.0007H31.4423C30.9508 74.0007 30.5208 73.5693 30.5208 73.0763C30.5208 72.5832 30.9508 72.1519 31.4423 72.1519H47.2306C47.7221 72.1519 48.1522 72.5832 48.1522 73.0763C48.1522 73.5693 47.7221 74.0007 47.2306 74.0007Z" fill="#D4DBEC"/>
<path d="M49.1966 82.5668H61.6062C61.6062 84.6621 62.4663 86.5725 63.8178 87.9283C65.1693 89.3457 67.0738 90.1469 69.1625 90.1469H13.3195C11.2308 90.1469 9.32632 89.2841 7.97479 87.9283C6.62325 86.5725 5.76318 84.6621 5.76318 82.5668H42.5004C42.5004 82.5668 49.3195 82.6284 49.1966 82.5668Z" fill="#CCD4E2"/>
<path d="M102.471 76.6645L94.7145 68.9139L96.4927 67.1357L104.243 74.8924L102.471 76.6645Z" fill="#858B9B"/>
<path d="M105.167 79.3916L99.2197 73.4438C98.723 72.9471 98.723 72.1377 99.2197 71.6411C99.7163 71.1444 100.526 71.1444 101.022 71.6411L106.97 77.5888C107.467 78.0855 107.467 78.8949 106.97 79.3916C106.474 79.8882 105.664 79.8882 105.167 79.3916Z" fill="#858B9B"/>
<path d="M104.744 79.7718L97.092 72.1194C96.9142 71.9415 96.9142 71.6533 97.092 71.4694L99.048 69.5134C99.2258 69.3355 99.514 69.3355 99.698 69.5134L107.35 77.1658C107.528 77.3436 107.528 77.6318 107.35 77.8157L105.394 79.7718C105.21 79.9496 104.922 79.9496 104.744 79.7718Z" fill="url(#paint1_linear)"/>
<path d="M85.9339 43.9395C77.8154 43.9395 71.2361 50.5188 71.2361 58.6372C71.2361 66.7495 77.8154 73.335 85.9277 73.335C94.0461 73.335 100.625 66.7556 100.625 58.6372C100.625 50.5188 94.0461 43.9395 85.9339 43.9395ZM85.9339 70.6125C79.4158 70.6125 74.1364 65.2472 74.1364 58.6311C74.1364 52.015 79.4158 46.6558 85.9339 46.6558C92.4519 46.6558 97.7313 52.0211 97.7313 58.6372C97.7313 65.2534 92.4458 70.6125 85.9339 70.6125Z" fill="url(#paint2_linear)"/>
<defs>
<filter id="filter0_d" x="0.903076" y="4.2085" width="108.075" height="119" filterUnits="userSpaceOnUse" color-interpolation-filters="sRGB">
<feFlood flood-opacity="0" result="BackgroundImageFix"/>
<feColorMatrix in="SourceAlpha" type="matrix" values="0 0 0 0 0 0 0 0 0 0 0 0 0 0 0 0 0 0 127 0"/>
<feOffset dy="11"/>
<feGaussianBlur stdDeviation="11"/>
<feColorMatrix type="matrix" values="0 0 0 0 0.397708 0 0 0 0 0.47749 0 0 0 0 0.575 0 0 0 0.27 0"/>
<feBlend mode="normal" in2="BackgroundImageFix" result="effect1_dropShadow"/>
<feBlend mode="normal" in="SourceGraphic" in2="effect1_dropShadow" result="shape"/>
</filter>
<linearGradient id="paint0_linear" x1="54.9197" y1="13.4737" x2="54.9197" y2="91.017" gradientUnits="userSpaceOnUse">
<stop stop-color="#FDFEFF"/>
<stop offset="0.9964" stop-color="#ECF0F5"/>
</linearGradient>
<linearGradient id="paint1_linear" x1="96.9538" y1="74.6437" x2="107.486" y2="74.6437" gradientUnits="userSpaceOnUse">
<stop stop-color="#B0BACC"/>
<stop offset="1" stop-color="#969EAE"/>
</linearGradient>
<linearGradient id="paint2_linear" x1="71.2226" y1="58.6404" x2="100.631" y2="58.6404" gradientUnits="userSpaceOnUse">
<stop stop-color="#B0BACC"/>
<stop offset="1" stop-color="#969EAE"/>
</linearGradient>
</defs>
</svg>
