<svg width="129" height="136" viewBox="0 0 129 136" fill="none" xmlns="http://www.w3.org/2000/svg">
<path d="M71.2004 110.389C99.2004 110.389 121.9 87.6886 121.9 59.5886C121.9 31.4886 99.1004 8.78857 71.2004 8.78857C43.2004 8.78857 20.5004 31.4886 20.5004 59.5886C20.5004 87.6886 43.2004 110.389 71.2004 110.389Z" fill="#EAEEF9"/>
<path d="M118.6 26.2884C120.865 26.2884 122.7 24.4527 122.7 22.1884C122.7 19.924 120.865 18.0884 118.6 18.0884C116.336 18.0884 114.5 19.924 114.5 22.1884C114.5 24.4527 116.336 26.2884 118.6 26.2884Z" fill="#EAEEF9"/>
<path d="M124.6 10.2885C126.147 10.2885 127.4 9.03487 127.4 7.48848C127.4 5.94208 126.147 4.68848 124.6 4.68848C123.054 4.68848 121.8 5.94208 121.8 7.48848C121.8 9.03487 123.054 10.2885 124.6 10.2885Z" fill="#EAEEF9"/>
<path d="M23.2004 26.1884C24.7468 26.1884 26.0004 24.9348 26.0004 23.3884C26.0004 21.842 24.7468 20.5884 23.2004 20.5884C21.654 20.5884 20.4004 21.842 20.4004 23.3884C20.4004 24.9348 21.654 26.1884 23.2004 26.1884Z" fill="#EAEEF9"/>
<path d="M6.10039 80.1885C8.97227 80.1885 11.3004 77.8603 11.3004 74.9885C11.3004 72.1166 8.97227 69.7885 6.10039 69.7885C3.22851 69.7885 0.900391 72.1166 0.900391 74.9885C0.900391 77.8603 3.22851 80.1885 6.10039 80.1885Z" fill="#EAEEF9"/>
<g filter="url(#filter0_d)">
<path d="M105.7 34.1884L106.5 98.5884C106.5 100.788 104.7 102.488 102.5 102.488H39.7004C37.5004 102.488 35.7004 100.688 35.7004 98.5884V15.7884C35.7004 13.5884 37.5004 11.8884 39.7004 11.8884H85.2004L105.7 34.1884Z" fill="url(#paint0_linear)"/>
</g>
<path d="M66.3003 89.5884H54.0003C53.5003 89.5884 53.1003 89.0884 53.1003 88.4884C53.1003 87.8884 53.5003 87.3884 54.0003 87.3884H66.3003C66.8003 87.3884 67.2003 87.8884 67.2003 88.4884C67.2003 89.1884 66.8003 89.5884 66.3003 89.5884Z" fill="#D5DDEA"/>
<path d="M59.3004 89.5884H45.9004C45.4004 89.5884 45.0004 89.0884 45.0004 88.4884C45.0004 87.8884 45.4004 87.3884 45.9004 87.3884H59.3004C59.8004 87.3884 60.2004 87.8884 60.2004 88.4884C60.2004 89.1884 59.8004 89.5884 59.3004 89.5884Z" fill="#D5DDEA"/>
<path d="M76.4004 25.3886H46.3004C45.6004 25.3886 45.0004 24.7886 45.0004 24.0886C45.0004 23.3886 45.6004 22.7886 46.3004 22.7886H76.4004C77.1004 22.7886 77.7004 23.3886 77.7004 24.0886C77.7004 24.7886 77.1004 25.3886 76.4004 25.3886Z" fill="#D5DDEA"/>
<path d="M57.9004 32.5885H46.3004C45.6004 32.5885 45.0004 31.9885 45.0004 31.2885C45.0004 30.5885 45.6004 29.9885 46.3004 29.9885H57.8004C58.5004 29.9885 59.1004 30.5885 59.1004 31.2885C59.1004 31.9885 58.5004 32.5885 57.9004 32.5885Z" fill="#D5DDEA"/>
<path d="M85.2004 11.8884V29.6884C85.2004 32.1884 87.4004 34.1884 89.9004 34.1884H105.7" fill="#D5DDEA"/>
<path d="M96.7619 72.2834H62.0658H58.2417H46.6763C46.21 72.2834 45.7437 72.7508 45.7437 73.4051C45.7437 73.9659 46.1167 74.5267 46.6763 74.5267H58.2417H62.0658H96.7619C97.2283 74.5267 97.6946 74.0593 97.6946 73.4051C97.6013 72.7508 97.2283 72.2834 96.7619 72.2834Z" fill="#D5DDEA"/>
<path d="M96.6687 64.1517H83.7975H79.4138H46.6763C46.21 64.1517 45.7437 64.6191 45.7437 65.2733C45.7437 65.8341 46.1167 66.395 46.6763 66.395H79.4138H83.7975H96.6687C97.135 66.395 97.6013 65.9276 97.6013 65.2733C97.5081 64.6191 97.135 64.1517 96.6687 64.1517Z" fill="#D5DDEA"/>
<path d="M96.9485 55.9266H93.5908H90.2331H46.6763C46.21 55.9266 45.7437 56.394 45.7437 57.0482C45.7437 57.609 46.1167 58.1699 46.6763 58.1699H90.2331H93.9638H96.8552C97.3215 58.1699 97.7879 57.7025 97.7879 57.0482C97.8812 56.4874 97.4148 55.9266 96.9485 55.9266Z" fill="#D5DDEA"/>
<path d="M60.3869 90.4161H46.6763C46.21 90.4161 45.7437 89.9487 45.7437 89.2945C45.7437 88.7337 46.1167 88.1729 46.6763 88.1729H60.3869C60.8533 88.1729 61.3196 88.6402 61.3196 89.2945C61.3196 90.0422 60.8533 90.4161 60.3869 90.4161Z" fill="#E3EAF2"/>
<path d="M97.3215 47.7949H86.409H83.7042H46.6763C46.21 47.7949 45.7437 48.2623 45.7437 48.9165C45.7437 49.4773 46.1167 50.0381 46.6763 50.0381H83.7042H86.409H97.2283C97.8811 50.0381 98.2542 49.5708 98.2542 48.9165C98.2542 48.3557 97.8812 47.7949 97.3215 47.7949Z" fill="#D5DDEA"/>
<path d="M47.4225 95.3699H25.411C22.986 95.3699 21.0273 93.4071 21.0273 90.9769V60.4131C21.0273 51.9076 27.9293 45.0845 36.3235 45.0845C44.7177 45.0845 51.6197 52.0011 51.6197 60.4131V91.0704C51.7129 93.4071 49.7543 95.3699 47.4225 95.3699ZM29.7947 86.6774H43.0389V60.4131C43.0389 56.7679 40.0543 53.7769 36.4168 53.7769C32.7793 53.7769 29.7947 56.7679 29.7947 60.4131V86.6774V86.6774Z" fill="#989FB0"/>
<path d="M56.4697 103.689H16.6437C13.9389 103.689 11.7004 101.445 11.7004 98.7347V72.2835C11.7004 69.5729 13.9389 67.3297 16.6437 67.3297H56.4697C59.1745 67.3297 61.4129 69.5729 61.4129 72.2835V98.7347C61.4129 101.445 59.1745 103.689 56.4697 103.689Z" fill="#C2C8D6"/>
<path d="M41.5466 81.4432C41.5466 83.406 40.4274 85.0885 38.8418 85.9297V91.3508C38.8418 92.6593 37.8158 93.6875 36.51 93.6875C35.2043 93.6875 34.1783 92.6593 34.1783 91.3508V85.9297C32.5927 85.0885 31.4735 83.406 31.4735 81.4432C31.4735 78.6392 33.712 76.396 36.51 76.396C39.3081 76.396 41.5466 78.6392 41.5466 81.4432Z" fill="#989FB0"/>
<defs>
<filter id="filter0_d" x="13.7004" y="0.888428" width="114.8" height="134.6" filterUnits="userSpaceOnUse" color-interpolation-filters="sRGB">
<feFlood flood-opacity="0" result="BackgroundImageFix"/>
<feColorMatrix in="SourceAlpha" type="matrix" values="0 0 0 0 0 0 0 0 0 0 0 0 0 0 0 0 0 0 127 0"/>
<feOffset dy="11"/>
<feGaussianBlur stdDeviation="11"/>
<feColorMatrix type="matrix" values="0 0 0 0 0.397708 0 0 0 0 0.47749 0 0 0 0 0.575 0 0 0 0.27 0"/>
<feBlend mode="normal" in2="BackgroundImageFix" result="effect1_dropShadow"/>
<feBlend mode="normal" in="SourceGraphic" in2="effect1_dropShadow" result="shape"/>
</filter>
<linearGradient id="paint0_linear" x1="71.0774" y1="9.79276" x2="71.0774" y2="103.465" gradientUnits="userSpaceOnUse">
<stop stop-color="#FDFEFF"/>
<stop offset="0.9964" stop-color="#ECF0F5"/>
</linearGradient>
</defs>
</svg>
