<svg width="197" height="198" viewBox="0 0 197 198" fill="none" xmlns="http://www.w3.org/2000/svg">
<path d="M98.5513 138.881C126.551 138.881 149.251 116.181 149.251 88.0808C149.251 59.9808 126.451 37.2808 98.5513 37.2808C70.5513 37.2808 47.8513 59.9808 47.8513 88.0808C47.8513 116.181 70.5513 138.881 98.5513 138.881Z" fill="#EAEEF9"/>
<path d="M145.951 54.7806C148.216 54.7806 150.051 52.9449 150.051 50.6806C150.051 48.4162 148.216 46.5806 145.951 46.5806C143.687 46.5806 141.851 48.4162 141.851 50.6806C141.851 52.9449 143.687 54.7806 145.951 54.7806Z" fill="#E7EBF6"/>
<path d="M151.951 38.7807C153.498 38.7807 154.751 37.5271 154.751 35.9807C154.751 34.4343 153.498 33.1807 151.951 33.1807C150.405 33.1807 149.151 34.4343 149.151 35.9807C149.151 37.5271 150.405 38.7807 151.951 38.7807Z" fill="#E7EBF6"/>
<path d="M50.5513 54.6806C52.0977 54.6806 53.3513 53.427 53.3513 51.8806C53.3513 50.3342 52.0977 49.0806 50.5513 49.0806C49.0049 49.0806 47.7513 50.3342 47.7513 51.8806C47.7513 53.427 49.0049 54.6806 50.5513 54.6806Z" fill="#E7EBF6"/>
<path d="M33.4513 108.681C36.3232 108.681 38.6513 106.353 38.6513 103.481C38.6513 100.609 36.3232 98.2806 33.4513 98.2806C30.5795 98.2806 28.2513 100.609 28.2513 103.481C28.2513 106.353 30.5795 108.681 33.4513 108.681Z" fill="#E7EBF6"/>
<g filter="url(#filter0_d)">
<path d="M132.784 127.722L65.1479 128.208C61.2438 128.225 58.0604 125.078 58.0081 121.199L57.4839 56.4883C57.4621 52.5836 60.6052 49.4031 64.483 49.3552L132.119 48.8699C136.023 48.8525 139.207 51.9997 139.259 55.8783L139.783 120.589C139.805 124.494 136.662 127.674 132.784 127.722Z" fill="url(#paint0_linear)"/>
</g>
<path d="M128.975 118.061L69.5178 118.511C67.8359 118.526 66.4822 117.198 66.4654 115.516L66.0143 62.0352C65.9975 60.353 67.3234 59.0006 69.0052 58.9856L128.463 58.5356C130.145 58.5207 131.498 59.8484 131.515 61.5305L131.966 115.011C131.983 116.693 130.657 118.046 128.975 118.061Z" fill="#EAEEF9"/>
<path d="M100.221 97.9892L78.531 98.1398L89.283 85.7642L100.221 97.9892Z" fill="#B0B7C4"/>
<path d="M118.207 97.8426L86.9405 98.0649L102.425 80.2932L118.207 97.8426Z" fill="#CED6E2"/>
<path d="M89.2623 80.3213C90.9772 78.8464 91.1704 76.259 89.6938 74.5422C88.2172 72.8253 85.63 72.6292 83.9151 74.1041C82.2002 75.579 82.0071 78.1664 83.4836 79.8833C84.9602 81.6001 87.5474 81.7962 89.2623 80.3213Z" fill="#B0B7C4"/>
<path d="M113.693 125.377C113.383 126.695 112.917 128.09 112.375 129.253C110.902 132.121 108.576 134.369 105.708 135.842C102.762 137.315 99.2739 137.935 95.7855 137.16C87.5684 135.454 82.297 127.392 84.0025 119.175C85.7079 110.958 93.6925 105.609 101.91 107.392C104.855 108.012 107.414 109.485 109.584 111.501C113.228 115.144 114.778 120.416 113.693 125.377Z" fill="url(#paint1_linear)"/>
<path d="M103.692 120.958H100.204V117.47C100.204 116.772 99.6614 116.152 98.8862 116.152C98.1885 116.152 97.5683 116.694 97.5683 117.47V120.958H94.0799C93.3822 120.958 92.7621 121.501 92.7621 122.276C92.7621 123.051 93.3047 123.594 94.0799 123.594H97.5683V127.082C97.5683 127.78 98.111 128.4 98.8862 128.4C99.5839 128.4 100.204 127.857 100.204 127.082V123.594H103.692C104.39 123.594 105.01 123.051 105.01 122.276C105.01 121.501 104.39 120.958 103.692 120.958Z" fill="white"/>
<defs>
<filter id="filter0_d" x="0.91394" y="1.83179" width="195.439" height="195.414" filterUnits="userSpaceOnUse" color-interpolation-filters="sRGB">
<feFlood flood-opacity="0" result="BackgroundImageFix"/>
<feColorMatrix in="SourceAlpha" type="matrix" values="0 0 0 0 0 0 0 0 0 0 0 0 0 0 0 0 0 0 127 0"/>
<feOffset dy="11"/>
<feGaussianBlur stdDeviation="11"/>
<feColorMatrix type="matrix" values="0 0 0 0 0.397708 0 0 0 0 0.47749 0 0 0 0 0.575 0 0 0 0.27 0"/>
<feBlend mode="normal" in2="BackgroundImageFix" result="effect1_dropShadow"/>
<feBlend mode="normal" in="SourceGraphic" in2="effect1_dropShadow" result="shape"/>
</filter>
<linearGradient id="paint0_linear" x1="62.0197" y1="46.0213" x2="134.33" y2="130.098" gradientUnits="userSpaceOnUse">
<stop stop-color="#FDFEFF"/>
<stop offset="0.9964" stop-color="#ECF0F5"/>
</linearGradient>
<linearGradient id="paint1_linear" x1="83.6681" y1="122.276" x2="114.038" y2="122.276" gradientUnits="userSpaceOnUse">
<stop stop-color="#B0BACC"/>
<stop offset="1" stop-color="#969EAE"/>
</linearGradient>
</defs>
</svg>
