<svg width="182" height="131" viewBox="0 0 182 131" fill="none" xmlns="http://www.w3.org/2000/svg">
<path d="M90.1979 112.991C118.198 112.991 140.898 90.2906 140.898 62.1906C140.898 34.0906 118.098 11.3906 90.1979 11.3906C62.1979 11.3906 39.4979 34.0906 39.4979 62.1906C39.4979 90.2906 62.1979 112.991 90.1979 112.991Z" fill="#EAEEF9"/>
<path d="M137.598 28.8904C139.862 28.8904 141.698 27.0548 141.698 24.7904C141.698 22.5261 139.862 20.6904 137.598 20.6904C135.334 20.6904 133.498 22.5261 133.498 24.7904C133.498 27.0548 135.334 28.8904 137.598 28.8904Z" fill="#E7EBF6"/>
<path d="M143.598 12.8905C145.144 12.8905 146.398 11.6369 146.398 10.0905C146.398 8.54413 145.144 7.29053 143.598 7.29053C142.052 7.29053 140.798 8.54413 140.798 10.0905C140.798 11.6369 142.052 12.8905 143.598 12.8905Z" fill="#E7EBF6"/>
<path d="M42.1979 28.7904C43.7443 28.7904 44.9979 27.5368 44.9979 25.9904C44.9979 24.444 43.7443 23.1904 42.1979 23.1904C40.6516 23.1904 39.3979 24.444 39.3979 25.9904C39.3979 27.5368 40.6516 28.7904 42.1979 28.7904Z" fill="#E7EBF6"/>
<path d="M25.0979 82.7905C27.9698 82.7905 30.2979 80.4624 30.2979 77.5905C30.2979 74.7186 27.9698 72.3905 25.0979 72.3905C22.2261 72.3905 19.8979 74.7186 19.8979 77.5905C19.8979 80.4624 22.2261 82.7905 25.0979 82.7905Z" fill="#E7EBF6"/>
<g filter="url(#filter0_d)">
<path d="M85.9495 73.2991L52.0102 96.8846C50.047 98.2358 47.3721 97.7691 45.9978 95.8036L23.4698 63.2998C22.1201 61.3343 22.5864 58.6564 24.5496 57.2806L58.4888 33.695C60.4521 32.3438 63.127 32.8106 64.5012 34.776L87.0538 67.2798C88.4035 69.2453 87.9127 71.9478 85.9495 73.2991Z" fill="url(#paint0_linear)"/>
</g>
<path d="M80.6979 69.7366L50.8568 90.4722C50.0225 91.0618 48.8691 90.8407 48.2801 90.0054L29.654 63.1277C29.065 62.2924 29.2859 61.1377 30.1203 60.5481L59.9613 39.8125C60.7957 39.2228 61.9491 39.4439 62.538 40.2793L81.1641 67.1569C81.7531 67.9923 81.5322 69.147 80.6979 69.7366Z" fill="#EAEEF9"/>
<path d="M59.3233 69.5154L48.4274 77.0825L49.5808 67.1323L59.3233 69.5154Z" fill="#B0B7C4"/>
<path d="M68.3293 63.2507L52.6481 74.159L54.3168 59.8357L68.3293 63.2507Z" fill="#CED6E2"/>
<path d="M45.2617 66.2479C46.6441 66.2479 47.7648 65.1259 47.7648 63.7419C47.7648 62.3579 46.6441 61.236 45.2617 61.236C43.8792 61.236 42.7585 62.3579 42.7585 63.7419C42.7585 65.1259 43.8792 66.2479 45.2617 66.2479Z" fill="#B0B7C4"/>
<g filter="url(#filter1_d)">
<path d="M127.054 93.3711L95.5199 66.6409C93.7039 65.0931 93.4831 62.366 95.0046 60.5479L120.551 30.3536C122.097 28.5355 124.821 28.3144 126.637 29.8376L158.171 56.5679C159.987 58.1157 160.208 60.8428 158.687 62.6608L133.14 92.8552C131.594 94.6732 128.87 94.8944 127.054 93.3711Z" fill="url(#paint1_linear)"/>
</g>
<path d="M129.14 87.3764L101.41 63.8891C100.624 63.2258 100.526 62.0711 101.189 61.2849L122.293 36.3236C122.956 35.5374 124.109 35.4391 124.895 36.1024L152.625 59.5897C153.411 60.253 153.509 61.4077 152.846 62.1939L131.741 87.1553C131.079 87.9415 129.925 88.0397 129.14 87.3764Z" fill="#EAEEF9"/>
<path d="M123.815 66.6163L113.704 58.0419L123.619 56.5924L123.815 66.6163Z" fill="#B0B7C4"/>
<path d="M132.208 73.7166L117.631 61.3588L131.889 59.295L132.208 73.7166Z" fill="#CED6E2"/>
<path d="M125.778 54.0622C127.161 54.0622 128.281 52.9403 128.281 51.5563C128.281 50.1722 127.161 49.0503 125.778 49.0503C124.396 49.0503 123.275 50.1722 123.275 51.5563C123.275 52.9403 124.396 54.0622 125.778 54.0622Z" fill="#B0B7C4"/>
<g filter="url(#filter2_d)">
<path d="M112.776 65.9746L72.1831 73.7932C69.8389 74.2382 67.5755 72.7011 67.1124 70.376L59.5959 31.5453C59.1482 29.2011 60.6832 26.94 63.0083 26.4796L103.601 18.661C105.946 18.216 108.209 19.7531 108.672 22.0782L116.188 60.9089C116.636 63.2531 115.101 65.5142 112.776 65.9746Z" fill="url(#paint2_linear)"/>
</g>
<path d="M109.412 60.5922L73.7301 67.4795C72.7211 67.6756 71.7598 67.0284 71.5625 66.0194L65.3397 33.9296C65.1423 32.9206 65.7887 31.9602 66.7977 31.7641L102.48 24.8768C103.489 24.6806 104.45 25.3278 104.647 26.3369L110.87 58.4267C111.067 59.4357 110.421 60.396 109.412 60.5922Z" fill="#EAEEF9"/>
<path d="M89.8979 51.7298L76.8797 54.2342L81.9641 45.6003L89.8979 51.7298Z" fill="#B0B7C4"/>
<path d="M100.691 49.6402L81.9252 53.2534L89.2534 40.85L100.691 49.6402Z" fill="#CED6E2"/>
<path d="M81.3459 42.3317C82.2124 41.2544 82.0405 39.678 80.9621 38.8106C79.8836 37.9431 78.307 38.1132 77.4405 39.1904C76.5741 40.2676 76.7459 41.8441 77.8244 42.7115C78.9028 43.5789 80.4795 43.4089 81.3459 42.3317Z" fill="#B0B7C4"/>
<path d="M113.327 90.36C112.85 92.3875 112.134 94.5341 111.3 96.323C109.034 100.736 105.456 104.194 101.043 106.46C96.5115 108.726 91.1448 109.68 85.7781 108.487C73.1366 105.864 65.027 93.4608 67.6507 80.8193C70.2744 68.1778 82.5581 59.9489 95.1996 62.6918C99.7315 63.6459 103.667 65.9118 107.006 69.0126C112.612 74.6178 114.997 82.7274 113.327 90.36Z" fill="url(#paint3_linear)"/>
<path d="M97.9425 83.5622H92.5759V78.1955C92.5759 77.1222 91.7411 76.1681 90.5485 76.1681C89.4751 76.1681 88.521 77.0029 88.521 78.1955V83.5622H83.1544C82.081 83.5622 81.127 84.397 81.127 85.5896C81.127 86.7822 81.9618 87.617 83.1544 87.617H88.521V92.9837C88.521 94.057 89.3559 95.0111 90.5485 95.0111C91.6218 95.0111 92.5759 94.1763 92.5759 92.9837V87.617H97.9425C99.0159 87.617 99.97 86.7822 99.97 85.5896C99.97 84.397 99.0159 83.5622 97.9425 83.5622Z" fill="white"/>
<defs>
<filter id="filter0_d" x="0.700195" y="21.9246" width="109.115" height="108.731" filterUnits="userSpaceOnUse" color-interpolation-filters="sRGB">
<feFlood flood-opacity="0" result="BackgroundImageFix"/>
<feColorMatrix in="SourceAlpha" type="matrix" values="0 0 0 0 0 0 0 0 0 0 0 0 0 0 0 0 0 0 127 0"/>
<feOffset dy="11"/>
<feGaussianBlur stdDeviation="11"/>
<feColorMatrix type="matrix" values="0 0 0 0 0.397708 0 0 0 0 0.47749 0 0 0 0 0.575 0 0 0 0.27 0"/>
<feBlend mode="normal" in2="BackgroundImageFix" result="effect1_dropShadow"/>
<feBlend mode="normal" in="SourceGraphic" in2="effect1_dropShadow" result="shape"/>
</filter>
<filter id="filter1_d" x="71.9955" y="17.8274" width="109.7" height="109.554" filterUnits="userSpaceOnUse" color-interpolation-filters="sRGB">
<feFlood flood-opacity="0" result="BackgroundImageFix"/>
<feColorMatrix in="SourceAlpha" type="matrix" values="0 0 0 0 0 0 0 0 0 0 0 0 0 0 0 0 0 0 127 0"/>
<feOffset dy="11"/>
<feGaussianBlur stdDeviation="11"/>
<feColorMatrix type="matrix" values="0 0 0 0 0.397708 0 0 0 0 0.47749 0 0 0 0 0.575 0 0 0 0.27 0"/>
<feBlend mode="normal" in2="BackgroundImageFix" result="effect1_dropShadow"/>
<feBlend mode="normal" in="SourceGraphic" in2="effect1_dropShadow" result="shape"/>
</filter>
<filter id="filter2_d" x="37.5183" y="7.58423" width="100.748" height="99.2857" filterUnits="userSpaceOnUse" color-interpolation-filters="sRGB">
<feFlood flood-opacity="0" result="BackgroundImageFix"/>
<feColorMatrix in="SourceAlpha" type="matrix" values="0 0 0 0 0 0 0 0 0 0 0 0 0 0 0 0 0 0 127 0"/>
<feOffset dy="11"/>
<feGaussianBlur stdDeviation="11"/>
<feColorMatrix type="matrix" values="0 0 0 0 0.397708 0 0 0 0 0.47749 0 0 0 0 0.575 0 0 0 0.27 0"/>
<feBlend mode="normal" in2="BackgroundImageFix" result="effect1_dropShadow"/>
<feBlend mode="normal" in="SourceGraphic" in2="effect1_dropShadow" result="shape"/>
</filter>
<linearGradient id="paint0_linear" x1="55.2366" y1="31.4273" x2="55.2366" y2="98.3529" gradientUnits="userSpaceOnUse">
<stop stop-color="#FDFEFF"/>
<stop offset="0.9964" stop-color="#ECF0F5"/>
</linearGradient>
<linearGradient id="paint1_linear" x1="126.824" y1="27.3111" x2="126.824" y2="95.0881" gradientUnits="userSpaceOnUse">
<stop stop-color="#FDFEFF"/>
<stop offset="0.9964" stop-color="#ECF0F5"/>
</linearGradient>
<linearGradient id="paint2_linear" x1="61.1569" y1="24.7502" x2="113.97" y2="67.2299" gradientUnits="userSpaceOnUse">
<stop stop-color="#FDFEFF"/>
<stop offset="0.9964" stop-color="#ECF0F5"/>
</linearGradient>
<linearGradient id="paint3_linear" x1="67.1363" y1="85.589" x2="113.859" y2="85.589" gradientUnits="userSpaceOnUse">
<stop stop-color="#B0BACC"/>
<stop offset="1" stop-color="#969EAE"/>
</linearGradient>
</defs>
</svg>
