<svg width="160" height="158" viewBox="0 0 160 158" fill="none" xmlns="http://www.w3.org/2000/svg">
<path d="M135.916 63.004C135.916 74.2991 132.147 84.7727 125.832 93.1927C122.369 97.7107 118.193 101.715 113.406 104.796C105.665 109.93 96.396 112.908 86.4143 112.908C59.0155 112.908 36.8113 90.523 36.8113 63.004C36.8113 35.3824 59.0155 13.1003 86.3125 13.1003C96.2942 13.1003 105.563 16.0781 113.304 21.1096C118.091 24.1901 122.267 28.1947 125.73 32.7127C132.147 41.2354 135.916 51.709 135.916 63.004Z" fill="#EAEEF9"/>
<path d="M141.721 47.8071C143.249 46.3695 143.351 44.0078 141.925 42.4676C140.499 40.9273 138.156 40.8247 136.527 42.2622C134.999 43.6998 134.897 46.0615 136.323 47.6017C137.749 49.0393 140.193 49.1419 141.721 47.8071Z" fill="#EAEEF9"/>
<g filter="url(#filter0_d)">
<path d="M75.9686 48.5376L47.5102 68.3142C45.8641 69.4472 43.6211 69.0558 42.4688 67.4078L23.5789 40.1531C22.4472 38.505 22.8381 36.2596 24.4843 35.1059L52.9426 15.3293C54.5888 14.1962 56.8317 14.5877 57.9841 16.2357L76.8946 43.4904C78.0263 45.1384 77.6148 47.4045 75.9686 48.5376Z" fill="url(#paint0_linear)"/>
</g>
<path d="M71.5651 45.5505L46.5432 62.9374C45.8435 63.4318 44.8764 63.2464 44.3826 62.546L28.7644 40.0089C28.2706 39.3085 28.4558 38.3402 29.1554 37.8458L54.1773 20.4588C54.877 19.9644 55.8441 20.1498 56.3379 20.8503L71.9561 43.3874C72.4499 44.0878 72.2647 45.056 71.5651 45.5505Z" fill="#EAEEF9"/>
<path d="M53.6424 45.3651L44.5061 51.7101L45.4732 43.3668L53.6424 45.3651Z" fill="#B0B7C4"/>
<path d="M61.194 40.1119L48.0452 49.2586L49.4444 37.2484L61.194 40.1119Z" fill="#CED6E2"/>
<path d="M41.8516 42.6253C43.0107 42.6253 43.9504 41.6845 43.9504 40.524C43.9504 39.3635 43.0107 38.4227 41.8516 38.4227C40.6924 38.4227 39.7527 39.3635 39.7527 40.524C39.7527 41.6845 40.6924 42.6253 41.8516 42.6253Z" fill="#B0B7C4"/>
<g filter="url(#filter1_d)">
<path d="M110.435 65.3683L83.9936 42.9548C82.4709 41.657 82.2857 39.3703 83.5615 37.8458L104.982 12.5276C106.279 11.0032 108.563 10.8178 110.086 12.095L136.527 34.5085C138.05 35.8064 138.235 38.0931 136.959 39.6175L115.538 64.9357C114.242 66.4602 111.958 66.6456 110.435 65.3683Z" fill="url(#paint1_linear)"/>
</g>
<path d="M112.185 60.3418L88.9323 40.6476C88.2738 40.0914 88.1915 39.1231 88.7471 38.4639L106.444 17.5336C106.999 16.8744 107.966 16.792 108.625 17.3482L131.877 37.0425C132.535 37.5987 132.618 38.5669 132.062 39.2261L114.366 60.1564C113.81 60.8156 112.843 60.898 112.185 60.3418Z" fill="#EAEEF9"/>
<path d="M107.719 42.9342L99.2415 35.7446L107.555 34.5292L107.719 42.9342Z" fill="#B0B7C4"/>
<path d="M114.757 48.8879L102.534 38.5257L114.489 36.7953L114.757 48.8879Z" fill="#CED6E2"/>
<path d="M109.365 32.4074C110.525 32.4074 111.464 31.4666 111.464 30.3061C111.464 29.1456 110.525 28.2048 109.365 28.2048C108.206 28.2048 107.267 29.1456 107.267 30.3061C107.267 31.4666 108.206 32.4074 109.365 32.4074Z" fill="#B0B7C4"/>
<g filter="url(#filter2_d)">
<path d="M113.419 108.63L82.3064 123.874C80.5162 124.76 78.3556 124.018 77.4708 122.206L62.9021 92.417C62.0173 90.6247 62.758 88.4617 64.5688 87.5758L95.6816 72.3313C97.4718 71.4455 99.6325 72.1871 100.517 74L115.086 103.809C115.95 105.581 115.209 107.744 113.419 108.63Z" fill="url(#paint2_linear)"/>
</g>
<path d="M109.509 105.025L82.1417 118.436C81.3803 118.806 80.4338 118.497 80.0634 117.715L68.0051 93.0762C67.6347 92.314 67.9434 91.3663 68.7253 90.9955L96.093 77.5845C96.8544 77.2137 97.8009 77.5227 98.1713 78.3055L110.23 102.944C110.6 103.706 110.291 104.633 109.509 105.025Z" fill="#EAEEF9"/>
<path d="M91.8132 102.12L81.8333 107.023L84.0556 98.9062L91.8132 102.12Z" fill="#B0B7C4"/>
<path d="M100.085 98.0616L85.7017 105.128L88.9117 93.447L100.085 98.0616Z" fill="#CED6E2"/>
<path d="M80.907 97.6496C82.0662 97.6496 83.0059 96.7088 83.0059 95.5483C83.0059 94.3878 82.0662 93.447 80.907 93.447C79.7478 93.447 78.8081 94.3878 78.8081 95.5483C78.8081 96.7088 79.7478 97.6496 80.907 97.6496Z" fill="#B0B7C4"/>
<path d="M87.0597 51.9368C89.9576 51.9368 92.3069 49.5848 92.3069 46.6836C92.3069 43.7823 89.9576 41.4304 87.0597 41.4304C84.1617 41.4304 81.8125 43.7823 81.8125 46.6836C81.8125 49.5848 84.1617 51.9368 87.0597 51.9368Z" fill="#8993A4"/>
<path d="M73.5404 47.0956L72.3675 44.6029C72.2646 44.3557 72.1617 44.1085 72.0383 43.8819C70.7007 41.3892 68.0668 39.6793 65.042 39.6793C62.2435 39.6793 59.7948 41.1214 58.375 43.3256L56.0703 46.4157L57.1609 46.7041C57.1198 47.0132 57.0992 47.3428 57.0992 47.6518C57.0992 52.0397 60.659 55.6036 65.042 55.6036C69.4249 55.6036 72.9848 52.0397 72.9848 47.6518C72.9848 47.5076 72.9848 47.3634 72.9642 47.2192L73.5404 47.0956Z" fill="#8993A4"/>
<path d="M100.579 47.0956L101.752 44.6235C101.855 44.3763 101.958 44.1291 102.081 43.9025C103.419 41.4098 106.052 39.7 109.077 39.7C111.876 39.7 114.324 41.142 115.744 43.3463L118.049 46.4158L116.958 46.7042C116.999 47.0132 117.02 47.3428 117.02 47.6518C117.02 52.0397 113.46 55.6037 109.077 55.6037C104.694 55.6037 101.134 52.0397 101.134 47.6518C101.134 47.5076 101.134 47.3634 101.155 47.2192L100.579 47.0956Z" fill="#8993A4"/>
<path d="M130.272 73.2172C130.272 76.2455 129.325 73.897 129.325 73.897L122.206 63.061L101.073 69.2824L96.7722 70.5391L87.0803 60.898L77.3884 70.5391L51.955 63.061L44.8352 73.897C44.8352 73.897 43.8887 76.2249 43.8887 73.2172C43.8887 66.2541 48.8889 56.2834 53.3542 48.8466C55.3502 45.5093 59.0953 43.717 62.8815 43.4286C65.5977 43.2226 68.6843 43.6552 71.0095 45.1385C71.5033 45.4475 72.4499 46.3951 73.0878 46.2921C76.5653 45.7565 80.2281 44.9737 82.9443 44.3556C85.7222 43.717 88.603 43.717 91.3604 44.3762C94.0354 44.9943 97.6159 45.7771 101.073 46.3127C101.711 46.4157 102.657 45.4887 103.151 45.1591C105.476 43.6552 108.563 43.2226 111.279 43.4492C115.065 43.7376 118.81 45.5093 120.806 48.8672C125.272 56.304 130.272 66.2541 130.272 73.2172Z" fill="url(#paint3_linear)"/>
<path opacity="0.2" d="M115.765 59.7444L101.052 69.3031L96.7515 70.5597L87.0596 60.9186V50.8655C90.8252 50.8655 97.1013 53.6466 99.5911 56.1186C103.007 53.2964 108.151 50.5153 115.765 51.9367C123.378 53.3376 115.765 59.7444 115.765 59.7444Z" fill="url(#paint4_linear)"/>
<path opacity="0.2" d="M58.3545 59.7444L73.0672 69.3031L77.3679 70.5597L87.0598 60.9186V50.8655C83.2941 50.8655 77.0181 53.6466 74.5282 56.1186C71.1124 53.2964 65.9681 50.5153 58.3545 51.9367C50.7409 53.3376 58.3545 59.7444 58.3545 59.7444Z" fill="url(#paint5_linear)"/>
<path d="M87.0597 63.3906C89.9576 63.3906 92.3069 61.0387 92.3069 58.1374C92.3069 55.2362 89.9576 52.8843 87.0597 52.8843C84.1617 52.8843 81.8125 55.2362 81.8125 58.1374C81.8125 61.0387 84.1617 63.3906 87.0597 63.3906Z" fill="#8993A4"/>
<path d="M61.4204 92.314C71.1257 92.314 78.9933 84.4374 78.9933 74.721C78.9933 65.0047 71.1257 57.1281 61.4204 57.1281C51.7151 57.1281 43.8474 65.0047 43.8474 74.721C43.8474 84.4374 51.7151 92.314 61.4204 92.314Z" fill="#C8CEDB"/>
<path d="M61.4204 87.8436C68.6596 87.8436 74.5282 81.9684 74.5282 74.721C74.5282 67.4736 68.6596 61.5984 61.4204 61.5984C54.1813 61.5984 48.3127 67.4736 48.3127 74.721C48.3127 81.9684 54.1813 87.8436 61.4204 87.8436Z" fill="#A7B0BF"/>
<path d="M61.4203 82.8583C67.2844 82.8583 72.0382 78.0991 72.0382 72.2283C72.0382 66.3576 67.2844 61.5984 61.4203 61.5984C55.5563 61.5984 50.8025 66.3576 50.8025 72.2283C50.8025 78.0991 55.5563 82.8583 61.4203 82.8583Z" fill="#8993A4"/>
<path opacity="0.4" d="M54.4242 73.0524C53.9715 73.0524 53.6011 72.6816 53.6011 72.2284C53.6011 67.9023 57.1198 64.4001 61.4204 64.4001C61.8731 64.4001 62.2435 64.771 62.2435 65.2242C62.2435 65.6774 61.8731 66.0482 61.4204 66.0482C58.0046 66.0482 55.2473 68.8293 55.2473 72.2284C55.2473 72.6816 54.8769 73.0524 54.4242 73.0524Z" fill="white"/>
<path d="M112.699 92.314C122.404 92.314 130.272 84.4374 130.272 74.721C130.272 65.0047 122.404 57.1281 112.699 57.1281C102.994 57.1281 95.126 65.0047 95.126 74.721C95.126 84.4374 102.994 92.314 112.699 92.314Z" fill="#C8CEDB"/>
<path d="M112.699 87.8436C119.938 87.8436 125.806 81.9684 125.806 74.721C125.806 67.4736 119.938 61.5984 112.699 61.5984C105.46 61.5984 99.5911 67.4736 99.5911 74.721C99.5911 81.9684 105.46 87.8436 112.699 87.8436Z" fill="#A7B0BF"/>
<path d="M112.699 82.8583C118.563 82.8583 123.317 78.0991 123.317 72.2283C123.317 66.3576 118.563 61.5984 112.699 61.5984C106.835 61.5984 102.081 66.3576 102.081 72.2283C102.081 78.0991 106.835 82.8583 112.699 82.8583Z" fill="#8993A4"/>
<path opacity="0.4" d="M113.151 65.2242C113.151 64.771 112.781 64.4001 112.328 64.4001C108.007 64.4001 104.509 67.9229 104.509 72.2284C104.509 72.6816 104.879 73.0524 105.332 73.0524C105.785 73.0524 106.155 72.6816 106.155 72.2284C106.155 68.8087 108.933 66.0482 112.328 66.0482C112.781 66.0482 113.151 65.6774 113.151 65.2242Z" fill="white"/>
<defs>
<filter id="filter0_d" x="0.933594" y="3.68323" width="98.5995" height="98.277" filterUnits="userSpaceOnUse" color-interpolation-filters="sRGB">
<feFlood flood-opacity="0" result="BackgroundImageFix"/>
<feColorMatrix in="SourceAlpha" type="matrix" values="0 0 0 0 0 0 0 0 0 0 0 0 0 0 0 0 0 0 127 0"/>
<feOffset dy="11"/>
<feGaussianBlur stdDeviation="11"/>
<feColorMatrix type="matrix" values="0 0 0 0 0.397708 0 0 0 0 0.47749 0 0 0 0 0.575 0 0 0 0.27 0"/>
<feBlend mode="normal" in2="BackgroundImageFix" result="effect1_dropShadow"/>
<feBlend mode="normal" in="SourceGraphic" in2="effect1_dropShadow" result="shape"/>
</filter>
<filter id="filter1_d" x="60.7153" y="0.247925" width="99.0902" height="98.9675" filterUnits="userSpaceOnUse" color-interpolation-filters="sRGB">
<feFlood flood-opacity="0" result="BackgroundImageFix"/>
<feColorMatrix in="SourceAlpha" type="matrix" values="0 0 0 0 0 0 0 0 0 0 0 0 0 0 0 0 0 0 127 0"/>
<feOffset dy="11"/>
<feGaussianBlur stdDeviation="11"/>
<feColorMatrix type="matrix" values="0 0 0 0 0.397708 0 0 0 0 0.47749 0 0 0 0 0.575 0 0 0 0.27 0"/>
<feBlend mode="normal" in2="BackgroundImageFix" result="effect1_dropShadow"/>
<feBlend mode="normal" in="SourceGraphic" in2="effect1_dropShadow" result="shape"/>
</filter>
<filter id="filter2_d" x="40.5288" y="60.9576" width="96.9179" height="96.2903" filterUnits="userSpaceOnUse" color-interpolation-filters="sRGB">
<feFlood flood-opacity="0" result="BackgroundImageFix"/>
<feColorMatrix in="SourceAlpha" type="matrix" values="0 0 0 0 0 0 0 0 0 0 0 0 0 0 0 0 0 0 127 0"/>
<feOffset dy="11"/>
<feGaussianBlur stdDeviation="11"/>
<feColorMatrix type="matrix" values="0 0 0 0 0.397708 0 0 0 0 0.47749 0 0 0 0 0.575 0 0 0 0.27 0"/>
<feBlend mode="normal" in2="BackgroundImageFix" result="effect1_dropShadow"/>
<feBlend mode="normal" in="SourceGraphic" in2="effect1_dropShadow" result="shape"/>
</filter>
<linearGradient id="paint0_linear" x1="50.2156" y1="13.4277" x2="50.2156" y2="69.5454" gradientUnits="userSpaceOnUse">
<stop stop-color="#FDFEFF"/>
<stop offset="0.9964" stop-color="#ECF0F5"/>
</linearGradient>
<linearGradient id="paint1_linear" x1="110.242" y1="9.97647" x2="110.242" y2="66.808" gradientUnits="userSpaceOnUse">
<stop stop-color="#FDFEFF"/>
<stop offset="0.9964" stop-color="#ECF0F5"/>
</linearGradient>
<linearGradient id="paint2_linear" x1="88.9705" y1="70.7481" x2="88.9705" y2="124.812" gradientUnits="userSpaceOnUse">
<stop stop-color="#FDFEFF"/>
<stop offset="0.9964" stop-color="#ECF0F5"/>
</linearGradient>
<linearGradient id="paint3_linear" x1="87.0803" y1="45.6877" x2="87.0803" y2="57.5513" gradientUnits="userSpaceOnUse">
<stop stop-color="#B0BACC"/>
<stop offset="1" stop-color="#969EAE"/>
</linearGradient>
<linearGradient id="paint4_linear" x1="112.495" y1="57.3077" x2="88.5734" y2="62.1771" gradientUnits="userSpaceOnUse">
<stop offset="0.00289017" stop-color="white" stop-opacity="0"/>
<stop offset="1" stop-color="white"/>
</linearGradient>
<linearGradient id="paint5_linear" x1="57.8993" y1="57.3077" x2="85.5951" y2="53.1857" gradientUnits="userSpaceOnUse">
<stop offset="0.00289017" stop-color="white" stop-opacity="0"/>
<stop offset="1" stop-color="white"/>
</linearGradient>
</defs>
</svg>
