<svg width="128" height="107" viewBox="0 0 128 107" fill="none" xmlns="http://www.w3.org/2000/svg">
<path d="M122.848 55.7979C122.848 69.9979 117.048 82.7979 107.748 91.9979C98.6485 101.098 86.0485 106.598 72.1485 106.598C58.3485 106.598 45.7485 100.998 36.5485 91.9979C27.2485 82.7979 21.4485 69.9979 21.4485 55.7979C21.4485 27.6979 44.1485 4.99792 72.1485 4.99792C100.148 4.99792 122.848 27.7979 122.848 55.7979Z" fill="#EAEEF9"/>
<path d="M118.449 22.4979C120.713 22.4979 122.549 20.6622 122.549 18.3979C122.549 16.1335 120.713 14.2979 118.449 14.2979C116.184 14.2979 114.349 16.1335 114.349 18.3979C114.349 20.6622 116.184 22.4979 118.449 22.4979Z" fill="#EAEEF9"/>
<path d="M124.449 6.49795C125.995 6.49795 127.249 5.24435 127.249 3.69795C127.249 2.15155 125.995 0.897949 124.449 0.897949C122.902 0.897949 121.649 2.15155 121.649 3.69795C121.649 5.24435 122.902 6.49795 124.449 6.49795Z" fill="#EAEEF9"/>
<path d="M23.0485 22.3979C24.5949 22.3979 25.8485 21.1442 25.8485 19.5979C25.8485 18.0515 24.5949 16.7979 23.0485 16.7979C21.5021 16.7979 20.2485 18.0515 20.2485 19.5979C20.2485 21.1442 21.5021 22.3979 23.0485 22.3979Z" fill="#EAEEF9"/>
<path d="M5.94853 76.3979C8.82042 76.3979 11.1485 74.0698 11.1485 71.1979C11.1485 68.326 8.82042 65.9979 5.94853 65.9979C3.07665 65.9979 0.748535 68.326 0.748535 71.1979C0.748535 74.0698 3.07665 76.3979 5.94853 76.3979Z" fill="#EAEEF9"/>
<path d="M107.749 29.198V91.998C98.6486 101.098 86.0486 106.598 72.1486 106.598C58.3486 106.598 45.7486 100.998 36.5486 91.998V29.198H107.749Z" fill="white"/>
<path opacity="0.5" d="M73.4064 61.2516L59.4766 47.3218L54.739 52.0593L68.6689 65.9892L73.4064 61.2516Z" fill="#979FAF"/>
<path opacity="0.5" d="M84.832 40.3968L64.0432 61.1855L68.7808 65.9231L89.5695 45.1344L84.832 40.3968Z" fill="#979FAF"/>
<path d="M90.3485 74.4979H53.9485V79.0979H90.3485V74.4979Z" fill="#D5DAE5"/>
<path d="M90.3485 84.5979H53.9485V89.1979H90.3485V84.5979Z" fill="#D5DAE5"/>
<path d="M81.4486 94.798H62.8486V99.398H81.4486V94.798Z" fill="#D5DAE5"/>
</svg>
