<svg width="165" height="138" viewBox="0 0 165 138" fill="none" xmlns="http://www.w3.org/2000/svg">
<path d="M33.0352 26.7425C35.0564 26.7425 36.6949 25.103 36.6949 23.0806C36.6949 21.0583 35.0564 19.4188 33.0352 19.4188C31.014 19.4188 29.3755 21.0583 29.3755 23.0806C29.3755 25.103 31.014 26.7425 33.0352 26.7425Z" fill="#EAEEF9"/>
<path d="M133.195 37.9207C135.217 37.9207 136.855 36.2812 136.855 34.2589C136.855 32.2365 135.217 30.597 133.195 30.597C131.174 30.597 129.536 32.2365 129.536 34.2589C129.536 36.2812 131.174 37.9207 133.195 37.9207Z" fill="#EAEEF9"/>
<path d="M40.451 14.3116C41.2488 14.3116 41.8956 13.6644 41.8956 12.8661C41.8956 12.0678 41.2488 11.4207 40.451 11.4207C39.6531 11.4207 39.0063 12.0678 39.0063 12.8661C39.0063 13.6644 39.6531 14.3116 40.451 14.3116Z" fill="#EAEEF9"/>
<path d="M128.958 22.4061C129.809 22.4061 130.499 21.7159 130.499 20.8643C130.499 20.0128 129.809 19.3225 128.958 19.3225C128.107 19.3225 127.417 20.0128 127.417 20.8643C127.417 21.7159 128.107 22.4061 128.958 22.4061Z" fill="#EAEEF9"/>
<path d="M82.345 108.748C111.599 108.748 135.314 85.019 135.314 55.7479C135.314 26.4768 111.599 2.74792 82.345 2.74792C53.0908 2.74792 29.3756 26.4768 29.3756 55.7479C29.3756 85.019 53.0908 108.748 82.345 108.748Z" fill="#EAEEF9"/>
<g filter="url(#filter0_d)">
<path d="M97.1764 86.1025L51.1412 104.701C50.3707 104.99 49.504 104.604 49.215 103.93L22.7304 38.1134C22.4414 37.3425 22.8267 36.4752 23.5008 36.1861L69.536 17.588C70.3065 17.2989 71.1732 17.6843 71.4622 18.3589L97.9468 84.0789C98.3321 84.9461 97.9468 85.8134 97.1764 86.1025Z" fill="white"/>
</g>
<path d="M76.8554 47.1715L38.3322 62.6861C37.947 62.8788 37.5618 62.6861 37.3691 62.3006C37.1765 61.9152 37.3691 61.5297 37.7544 61.337L76.1812 45.8224C76.5665 45.6297 76.9517 45.8224 77.1443 46.2079C77.3369 46.5933 77.1443 46.9788 76.8554 47.1715Z" fill="#E6EDF5"/>
<path d="M78.3 50.9298L39.8731 66.4444C39.4879 66.6371 39.1027 66.4444 38.91 66.0589C38.7174 65.6735 38.91 65.288 39.2953 65.0953L77.7221 49.5807C78.1073 49.388 78.4926 49.5807 78.6852 49.9662C78.8778 50.3516 78.6852 50.7371 78.3 50.9298Z" fill="#E6EDF5"/>
<path d="M79.841 54.5915L41.4141 70.2024C41.0289 70.3952 40.6437 70.2024 40.4511 69.817C40.2584 69.4315 40.4511 69.0461 40.8363 68.8533L79.2631 53.3388C79.6484 53.1461 80.0336 53.3388 80.2262 53.7242C80.4188 54.0133 80.2262 54.4952 79.841 54.5915Z" fill="#E6EDF5"/>
<path d="M57.4012 68.0824L42.955 73.9606C42.5698 74.1533 42.1846 73.9606 41.9919 73.5751C41.7993 73.1897 41.9919 72.8042 42.3772 72.6115L56.8234 66.7333C57.2086 66.5406 57.5938 66.7333 57.7864 67.1188C57.8827 67.5042 57.7864 67.8897 57.4012 68.0824Z" fill="#E6EDF5"/>
<path d="M84.849 64.1316L86.101 67.3116C86.2936 67.8898 86.101 68.5643 85.5231 68.757L47.4815 84.1752C46.9037 84.368 46.2295 84.1752 46.0369 83.597L44.7849 80.3207C44.5923 79.7425 44.7849 79.068 45.3627 78.8752L83.4043 63.5534C83.9822 63.3607 84.56 63.6498 84.849 64.1316Z" fill="#E3EAF2"/>
<path d="M87.8344 71.4552L89.0864 74.6352C89.2791 75.2134 89.0864 75.8879 88.5086 76.0807L50.467 91.4988C49.8891 91.6916 49.215 91.4988 49.0223 90.9207L47.674 87.6443C47.4814 87.0661 47.674 86.3916 48.2519 86.1988L86.2935 70.877C86.8714 70.6843 87.5455 70.9734 87.8344 71.4552Z" fill="#E3EAF2"/>
<path d="M90.7237 78.7788L91.9757 81.9588C92.1683 82.537 91.9757 83.2115 91.3979 83.4043L53.3563 98.8224C52.7784 99.0152 52.1043 98.8224 51.9116 98.2443L50.6596 95.0643C50.467 94.4861 50.6596 93.8115 51.2375 93.6188L89.2791 78.297C89.8569 78.0079 90.5311 78.297 90.7237 78.7788Z" fill="#E3EAF2"/>
<path d="M49.3113 77.3334L51.4301 82.6334L47.4815 84.1752C46.9037 84.3679 46.2295 84.1752 46.0369 83.597L44.7849 80.3206C44.5923 79.7425 44.7849 79.0679 45.3627 78.8752L49.3113 77.3334Z" fill="#989FB0"/>
<path d="M48.3483 86.1989L59.9053 81.4771L62.024 86.7771L50.4671 91.4989C49.8893 91.6916 49.2151 91.4989 49.0225 90.9207L47.6742 87.6443C47.4816 87.1625 47.7705 86.488 48.3483 86.1989Z" fill="#B4BACA"/>
<path d="M51.2375 93.5224L52.8747 92.8479L54.9935 98.1479L53.3563 98.8224C52.7784 99.0152 52.1043 98.8224 51.9116 98.2443L50.6596 95.0643C50.467 94.4861 50.6596 93.8115 51.2375 93.5224Z" fill="#B4BACA"/>
<path d="M51.8153 43.8952C51.719 38.5952 47.3851 34.2588 41.9919 34.2588H41.8956C36.5023 34.2588 32.1685 38.6915 32.1685 44.0879C32.2648 49.4842 36.6949 53.8206 42.0882 53.8206C45.0737 53.8206 47.674 52.4715 49.5039 50.4479C51.0448 48.7133 51.9116 46.497 51.9116 43.9915C51.8153 43.9915 51.8153 43.9915 51.8153 43.8952ZM42.0882 50.737C38.4285 50.737 35.4429 47.7497 35.4429 44.0879C35.4429 40.4261 38.4285 37.4388 42.0882 37.4388H42.1845C45.8442 37.4388 48.7334 40.3297 48.8297 43.8952C48.8297 43.9915 48.8297 43.9915 48.8297 44.0879C48.8297 45.7261 48.2519 47.2679 47.1925 48.4242C45.8442 49.8697 44.1106 50.737 42.0882 50.737Z" fill="#E6EDF5"/>
<path d="M51.8153 43.8952H48.6372C48.6372 40.3297 45.6516 37.4388 42.0883 37.4388H41.9919V34.2588H42.0883C47.3852 34.2588 51.719 38.5952 51.8153 43.8952Z" fill="#989FB0"/>
<g filter="url(#filter1_d)">
<path d="M115.956 101.039L69.4397 83.6934C68.6693 83.4043 68.2841 82.537 68.573 81.7661L93.2278 15.3716C93.5167 14.6007 94.3835 14.2152 95.154 14.5043L141.671 31.7534C142.441 32.0425 142.826 32.9098 142.537 33.6807L117.883 100.172C117.594 100.942 116.727 101.328 115.956 101.039Z" fill="white"/>
</g>
<path opacity="0.4" d="M109.793 44.377L106.037 42.9316L109.119 34.3552L112.875 35.7043L109.793 44.377Z" fill="#E6EDF5"/>
<path d="M114.897 46.2079L111.045 44.7624L115.764 31.657L119.52 33.1024L114.897 46.2079Z" fill="#B4BACA"/>
<path d="M125.009 49.7734L121.253 48.4243L127.417 31.1752L131.269 32.5243L125.009 49.7734Z" fill="#B4BACA"/>
<path opacity="0.4" d="M129.825 51.5079L126.069 50.1588L127.706 45.437L131.558 46.8825L129.825 51.5079Z" fill="#E6EDF5"/>
<path d="M127.128 58.5425L88.2198 44.0879C87.8346 43.9916 87.642 43.5097 87.7383 43.1243C87.8346 42.7388 88.3161 42.5461 88.7014 42.6425L127.61 57.097C127.995 57.1934 128.188 57.6752 128.091 58.0607C127.899 58.4461 127.513 58.6388 127.128 58.5425Z" fill="#E6EDF5"/>
<path d="M125.684 62.3007L86.7751 47.8461C86.3899 47.7497 86.1973 47.2679 86.2936 46.8825C86.3899 46.497 86.8714 46.3043 87.2567 46.4007L126.165 60.8552C126.55 60.9516 126.743 61.4334 126.647 61.8188C126.55 62.2043 126.069 62.4934 125.684 62.3007Z" fill="#E6EDF5"/>
<path d="M124.335 66.0588L85.4269 51.6043C85.0416 51.5079 84.849 51.0261 84.9453 50.6407C85.0416 50.2552 85.5232 50.0625 85.9084 50.1588L124.817 64.6134C125.202 64.7097 125.395 65.1916 125.298 65.577C125.106 66.0588 124.72 66.2516 124.335 66.0588Z" fill="#E6EDF5"/>
<path d="M98.7174 60.8551L84.0786 55.4588C83.6934 55.3624 83.5007 54.8806 83.5971 54.4951C83.6934 54.1097 84.1749 53.917 84.5601 54.0133L99.1989 59.4097C99.5842 59.5061 99.7768 59.9879 99.6805 60.3733C99.4879 60.7588 99.1026 60.9515 98.7174 60.8551Z" fill="#DDDDDD"/>
<path d="M121.639 76.4661L120.483 79.7425C120.29 80.3207 119.616 80.6098 119.038 80.417L110.756 77.3334L80.5152 66.0589C79.9373 65.8661 79.6484 65.1916 79.841 64.6134L80.9967 61.337C81.1894 60.7589 81.8635 60.4698 82.4414 60.6625L112.489 71.8407L120.868 74.9243C121.542 75.3098 121.831 75.8879 121.639 76.4661Z" fill="#E6EDF5"/>
<path d="M118.846 83.8861L117.69 87.1625C117.497 87.7407 116.823 88.0298 116.245 87.837L113.452 86.777L77.8185 73.5752C77.2407 73.3825 76.9518 72.7079 77.1444 72.1298L78.3001 68.8534C78.4927 68.2752 79.1669 67.9861 79.7447 68.1788L115.475 81.477L118.172 82.537C118.749 82.7298 119.038 83.3079 118.846 83.8861Z" fill="#E6EDF5"/>
<path d="M116.149 91.306L114.993 94.5824C114.801 95.1606 114.127 95.4497 113.549 95.257L99.2952 89.957L75.1219 80.9951C74.544 80.8024 74.2551 80.1279 74.4477 79.5497L75.6034 76.2733C75.796 75.6951 76.4702 75.406 77.048 75.5988L101.799 84.7533L115.475 89.8606C116.053 90.0533 116.342 90.7279 116.149 91.306Z" fill="#E6EDF5"/>
<path d="M77.048 75.5988L101.799 84.7534L99.2952 89.8606L75.1219 80.8988C74.544 80.7061 74.2551 80.0315 74.4477 79.4534L75.6034 76.177C75.796 75.6952 76.4702 75.4061 77.048 75.5988Z" fill="#B4B9C9"/>
<path d="M79.841 64.7098L80.9967 61.4335C81.1894 60.8553 81.8635 60.5662 82.4414 60.7589L112.489 71.9371L110.563 77.2371L80.5152 66.0589C79.9373 65.8662 79.6484 65.288 79.841 64.7098Z" fill="#B4B9C9"/>
<path d="M115.475 81.477L113.452 86.777L77.8185 73.5752C77.2407 73.3825 76.9518 72.7079 77.1444 72.1298L78.3001 68.8534C78.4927 68.2752 79.1669 67.9861 79.7447 68.1788L115.475 81.477Z" fill="#B4B9C9"/>
<path d="M89.6644 63.457L87.7383 68.757L80.5152 66.0589C79.9373 65.8661 79.6484 65.1916 79.841 64.6134L80.9967 61.337C81.1894 60.7589 81.8635 60.4698 82.4414 60.6625L89.6644 63.457Z" fill="#DDDDDD"/>
<path d="M79.7447 68.1788L86.9678 70.877L85.0416 76.177L77.8185 73.4788C77.2407 73.286 76.9518 72.6115 77.1444 72.0333L78.3001 68.757C78.589 68.2751 79.1669 67.986 79.7447 68.1788Z" fill="#DDDDDD"/>
<path d="M77.048 75.5988L84.2711 78.297L82.345 83.597L75.1219 80.8988C74.544 80.7061 74.2551 80.0315 74.4477 79.4534L75.6034 76.177C75.796 75.6952 76.4702 75.4061 77.048 75.5988Z" fill="#DDDDDD"/>
<g filter="url(#filter2_d)">
<path d="M107.674 84.9461H58.0754C57.3049 84.9461 56.6307 84.2716 56.6307 83.5007V12.577C56.6307 11.8061 57.3049 11.1316 58.0754 11.1316H107.674C108.444 11.1316 109.119 11.8061 109.119 12.577V83.4043C109.215 84.2716 108.541 84.9461 107.674 84.9461Z" fill="white"/>
</g>
<path d="M103.34 38.4015H61.9277C61.5425 38.4015 61.1572 38.1126 61.1572 37.6311C61.1572 37.2458 61.4461 36.8606 61.9277 36.8606H103.34C103.725 36.8606 104.111 37.1495 104.111 37.6311C104.111 38.0163 103.725 38.4015 103.34 38.4015Z" fill="#E6EDF5"/>
<path d="M103.34 42.3524H61.9277C61.5425 42.3524 61.1572 42.0635 61.1572 41.582C61.1572 41.1968 61.4461 40.8115 61.9277 40.8115H103.34C103.725 40.8115 104.111 41.1004 104.111 41.582C104.111 42.0635 103.725 42.3524 103.34 42.3524Z" fill="#E6EDF5"/>
<path d="M103.34 46.3998H61.9277C61.5425 46.3998 61.1572 46.1109 61.1572 45.6293C61.1572 45.2441 61.4461 44.8589 61.9277 44.8589H103.34C103.725 44.8589 104.111 45.1478 104.111 45.6293C104.111 46.1109 103.725 46.3998 103.34 46.3998Z" fill="#E6EDF5"/>
<path d="M103.244 61.5288H89.279C88.8938 61.5288 88.5085 61.2399 88.5085 60.7584C88.5085 60.3731 88.7975 59.9879 89.279 59.9879H103.244C103.629 59.9879 104.014 60.2768 104.014 60.7584C103.918 61.1436 103.629 61.5288 103.244 61.5288Z" fill="#E6EDF5"/>
<path d="M80.7076 65.6735C80.6113 60.3735 76.2774 56.0371 70.8842 56.0371H70.7879C65.3946 56.0371 61.0608 60.4698 61.0608 65.8662C61.0608 71.2626 65.491 75.6953 70.8842 75.6953C73.8697 75.6953 76.4701 74.3462 78.2999 72.3226C79.8408 70.588 80.7076 68.3717 80.7076 65.8662C80.7076 65.7698 80.7076 65.6735 80.7076 65.6735ZM70.8842 72.4189C67.2245 72.4189 64.239 69.4317 64.239 65.7698C64.239 62.108 67.2245 59.1207 70.8842 59.1207H70.9805C74.6402 59.1207 77.5294 62.0117 77.6257 65.5771C77.6257 65.6735 77.6257 65.6735 77.6257 65.7698C77.6257 67.408 77.0479 68.9498 75.9885 70.1062C74.6402 71.5517 72.9067 72.4189 70.8842 72.4189Z" fill="#E6EDF5"/>
<path d="M80.7078 65.6735H77.5296C77.4333 62.108 74.5441 59.2171 70.8844 59.2171H70.7881V56.0371H70.8844C76.2776 56.0371 80.6115 60.2771 80.7078 65.6735Z" fill="#989FB0"/>
<path d="M80.7077 65.7697C80.7077 68.2752 79.841 70.4915 78.3 72.2261L75.8923 70.2024C76.9517 69.0461 77.5296 67.5042 77.5296 65.8661C77.5296 65.7697 77.5296 65.7697 77.5296 65.6733H80.7077V65.7697Z" fill="#B4BACA"/>
<path d="M85.9083 61.8189C86.4933 61.8189 86.9677 61.3443 86.9677 60.7589C86.9677 60.1734 86.4933 59.6989 85.9083 59.6989C85.3232 59.6989 84.8489 60.1734 84.8489 60.7589C84.8489 61.3443 85.3232 61.8189 85.9083 61.8189Z" fill="#E6EDF5"/>
<path d="M103.244 65.9616H89.279C88.8938 65.9616 88.5085 65.6727 88.5085 65.1911C88.5085 64.8059 88.7975 64.4207 89.279 64.4207H103.244C103.629 64.4207 104.014 64.7096 104.014 65.1911C103.918 65.5763 103.629 65.9616 103.244 65.9616Z" fill="#E6EDF5"/>
<path d="M85.9083 66.2516C86.4933 66.2516 86.9677 65.777 86.9677 65.1916C86.9677 64.6062 86.4933 64.1316 85.9083 64.1316C85.3232 64.1316 84.8489 64.6062 84.8489 65.1916C84.8489 65.777 85.3232 66.2516 85.9083 66.2516Z" fill="#B4BACA"/>
<path d="M103.244 70.3943H89.279C88.8938 70.3943 88.5085 70.1054 88.5085 69.6239C88.5085 69.2386 88.7975 68.8534 89.279 68.8534H103.244C103.629 68.8534 104.014 69.1423 104.014 69.6239C103.918 70.0091 103.629 70.3943 103.244 70.3943Z" fill="#E6EDF5"/>
<path d="M85.9083 70.6842C86.4933 70.6842 86.9677 70.2096 86.9677 69.6242C86.9677 69.0388 86.4933 68.5642 85.9083 68.5642C85.3232 68.5642 84.8489 69.0388 84.8489 69.6242C84.8489 70.2096 85.3232 70.6842 85.9083 70.6842Z" fill="#989FB0"/>
<path d="M61.446 33.1025H104.014V15.8534L97.2726 19.2261L93.7092 21.7316L87.3529 21.6352L81.767 24.5261L76.9516 25.2007L75.2181 27.1279L70.2101 30.3079L65.2984 31.1752L61.446 33.1025Z" fill="#989FB0"/>
<path d="M61.446 33.1025H104.014V19.9971L97.2726 22.5025L93.7092 24.4298L87.3529 24.3334L81.767 26.5498L76.9516 27.128L75.2181 28.4771L70.2101 30.9825L65.2984 31.6571L61.446 33.1025Z" fill="#E6EDF5"/>
<path d="M61.446 33.1025H104.014V25.6825L97.2726 27.1279L93.7092 28.1879H87.3529L81.767 29.3443L76.9516 29.7298L75.2181 30.5007L70.2101 31.8498L65.2984 32.2352L61.446 33.1025Z" fill="#CED7E2"/>
<defs>
<filter id="filter0_d" x="0.633301" y="6.49084" width="119.465" height="131.307" filterUnits="userSpaceOnUse" color-interpolation-filters="sRGB">
<feFlood flood-opacity="0" result="BackgroundImageFix"/>
<feColorMatrix in="SourceAlpha" type="matrix" values="0 0 0 0 0 0 0 0 0 0 0 0 0 0 0 0 0 0 127 0"/>
<feOffset dy="11"/>
<feGaussianBlur stdDeviation="11"/>
<feColorMatrix type="matrix" values="0 0 0 0 0.397708 0 0 0 0 0.47749 0 0 0 0 0.575 0 0 0 0.18 0"/>
<feBlend mode="normal" in2="BackgroundImageFix" result="effect1_dropShadow"/>
<feBlend mode="normal" in="SourceGraphic" in2="effect1_dropShadow" result="shape"/>
</filter>
<filter id="filter1_d" x="46.4771" y="3.40833" width="118.156" height="130.727" filterUnits="userSpaceOnUse" color-interpolation-filters="sRGB">
<feFlood flood-opacity="0" result="BackgroundImageFix"/>
<feColorMatrix in="SourceAlpha" type="matrix" values="0 0 0 0 0 0 0 0 0 0 0 0 0 0 0 0 0 0 127 0"/>
<feOffset dy="11"/>
<feGaussianBlur stdDeviation="11"/>
<feColorMatrix type="matrix" values="0 0 0 0 0.397708 0 0 0 0 0.47749 0 0 0 0 0.575 0 0 0 0.18 0"/>
<feBlend mode="normal" in2="BackgroundImageFix" result="effect1_dropShadow"/>
<feBlend mode="normal" in="SourceGraphic" in2="effect1_dropShadow" result="shape"/>
</filter>
<filter id="filter2_d" x="34.6307" y="0.131592" width="96.497" height="117.815" filterUnits="userSpaceOnUse" color-interpolation-filters="sRGB">
<feFlood flood-opacity="0" result="BackgroundImageFix"/>
<feColorMatrix in="SourceAlpha" type="matrix" values="0 0 0 0 0 0 0 0 0 0 0 0 0 0 0 0 0 0 127 0"/>
<feOffset dy="11"/>
<feGaussianBlur stdDeviation="11"/>
<feColorMatrix type="matrix" values="0 0 0 0 0.397708 0 0 0 0 0.47749 0 0 0 0 0.575 0 0 0 0.18 0"/>
<feBlend mode="normal" in2="BackgroundImageFix" result="effect1_dropShadow"/>
<feBlend mode="normal" in="SourceGraphic" in2="effect1_dropShadow" result="shape"/>
</filter>
</defs>
</svg>
