<svg width="112" height="100" viewBox="0 0 112 100" fill="none" xmlns="http://www.w3.org/2000/svg">
<circle cx="48.4222" cy="51.1678" r="47.8602" fill="#EAEEF9"/>
<path d="M102.232 31.4178C104.497 31.4178 106.332 29.5821 106.332 27.3178C106.332 25.0534 104.497 23.2178 102.232 23.2178C99.968 23.2178 98.1323 25.0534 98.1323 27.3178C98.1323 29.5821 99.968 31.4178 102.232 31.4178Z" fill="#EAEEF9"/>
<path d="M108.232 15.4179C109.779 15.4179 111.032 14.1643 111.032 12.6179C111.032 11.0715 109.779 9.81787 108.232 9.81787C106.686 9.81787 105.432 11.0715 105.432 12.6179C105.432 14.1643 106.686 15.4179 108.232 15.4179Z" fill="#EAEEF9"/>
<path d="M96.6823 51.168C96.6823 65.168 90.5823 77.668 80.8823 86.268H3.18232C2.18232 86.268 1.38232 85.468 1.38232 84.468V19.468C1.38232 18.468 2.18232 17.668 3.18232 17.668H82.3823C91.1823 25.968 96.6823 37.968 96.6823 51.168Z" fill="#EAEEF9"/>
<path d="M80.7823 86.168H80.8823C82.1823 84.968 83.3823 83.768 84.5823 82.468C83.4823 83.868 82.1823 85.068 80.7823 86.168Z" fill="#EAEEF9"/>
<path d="M35.4823 57.9678H4.28232C3.78232 57.9678 3.38232 57.5678 3.38232 57.0678V34.6678C3.38232 34.1678 3.78232 33.7678 4.28232 33.7678H35.4823C35.9823 33.7678 36.3823 34.1678 36.3823 34.6678V57.0678C36.3823 57.4678 35.9823 57.9678 35.4823 57.9678Z" fill="white"/>
<path d="M92.4823 31.8679H4.28232C3.78232 31.8679 3.38232 31.4679 3.38232 30.9679V20.3679C3.38232 19.8679 3.78232 19.4679 4.28232 19.4679H84.2823C85.4823 20.7679 86.5823 22.1679 87.6823 23.5679C88.7823 25.0679 89.8823 26.7679 90.7823 28.3679C91.3823 29.5679 91.9823 30.6679 92.4823 31.8679Z" fill="white"/>
<path d="M90.7823 28.468H76.9823C76.6823 28.468 76.4823 28.268 76.4823 27.968V24.168C76.4823 23.868 76.6823 23.668 76.9823 23.668H87.5823C88.7823 25.168 89.7823 26.768 90.7823 28.468Z" fill="#989FB0"/>
<path d="M88.3823 26.5679H79.9823C79.6823 26.5679 79.4823 26.3679 79.4823 26.0679C79.4823 25.7679 79.6823 25.5679 79.9823 25.5679H88.3823C88.6823 25.5679 88.8823 25.7679 88.8823 26.0679C88.8823 26.2679 88.6823 26.5679 88.3823 26.5679Z" fill="white"/>
<path d="M70.0823 57.9678H38.8823C38.3823 57.9678 37.9823 57.5678 37.9823 57.0678V34.6678C37.9823 34.1678 38.3823 33.7678 38.8823 33.7678H70.0823C70.5823 33.7678 70.9823 34.1678 70.9823 34.6678V57.0678C71.0823 57.4678 70.6823 57.9678 70.0823 57.9678Z" fill="white"/>
<path d="M96.0824 43.868C95.4824 40.268 94.5824 36.868 93.2824 33.668H73.5824C73.0824 33.668 72.6824 34.068 72.6824 34.568V56.968C72.6824 57.468 73.0824 57.868 73.5824 57.868H96.1824C96.4824 55.668 96.6824 53.368 96.6824 51.168C96.6824 49.168 96.5824 47.168 96.2824 45.168L96.0824 43.868Z" fill="white"/>
<path d="M35.4823 83.9678H4.28232C3.78232 83.9678 3.38232 83.5678 3.38232 83.0678V60.6678C3.38232 60.1678 3.78232 59.7678 4.28232 59.7678H35.4823C35.9823 59.7678 36.3823 60.1678 36.3823 60.6678V83.0678C36.3823 83.5678 35.9823 83.9678 35.4823 83.9678Z" fill="white"/>
<path d="M70.0823 83.9678H38.8823C38.3823 83.9678 37.9823 83.5678 37.9823 83.0678V60.6678C37.9823 60.1678 38.3823 59.7678 38.8823 59.7678H70.0823C70.5823 59.7678 70.9823 60.1678 70.9823 60.6678V83.0678C71.0823 83.5678 70.6823 83.9678 70.0823 83.9678Z" fill="white"/>
<path d="M95.8823 59.7678C95.6823 60.9678 95.3823 62.0678 95.0823 63.1678C94.9823 63.5678 94.8823 63.8678 94.7823 64.2678C94.4823 65.3678 94.0823 66.4678 93.6823 67.5678C93.3823 68.3678 92.9823 69.2678 92.6823 70.0678C92.3823 70.6678 92.0823 71.2678 91.7823 71.8678C91.6823 72.1678 91.4823 72.4678 91.2823 72.7678C90.6823 73.8678 90.0823 74.9678 89.3823 76.0678C89.1823 76.3678 88.9823 76.7678 88.6823 77.0678C87.9823 78.0678 87.2823 79.0678 86.5823 80.0678C86.2823 80.4678 85.9823 80.7678 85.6823 81.1678C84.8823 82.1678 83.9823 83.1678 83.0823 84.0678H73.3823C72.8823 84.0678 72.4823 83.6678 72.4823 83.1678V60.6678C72.4823 60.1678 72.8823 59.7678 73.3823 59.7678H95.8823Z" fill="white"/>
<path d="M23.8824 73.0679C23.8824 73.1679 23.8824 73.2679 23.7824 73.3679C23.6824 73.5679 23.6824 73.7679 23.6824 73.9679C23.5824 74.0679 23.5824 74.1679 23.5824 74.2679C23.4824 74.4679 23.4824 74.6679 23.3824 74.7679V74.8679C23.2824 74.9679 23.2824 75.0679 23.2824 75.0679C23.1824 75.1679 23.1824 75.2679 23.0824 75.2679L24.8824 76.8679C24.9824 76.7679 24.9824 76.6679 25.0824 76.5679C25.2824 76.2679 25.4824 75.9679 25.5824 75.6679C25.6824 75.5679 25.6824 75.4679 25.6824 75.3679C25.7824 75.0679 25.8824 74.7679 26.0824 74.4679C26.0824 74.3679 26.1824 74.2679 26.1824 74.2679C26.2824 74.0679 26.2824 73.8679 26.2824 73.7679C26.2824 73.6679 26.3824 73.5679 26.3824 73.5679C26.3824 73.4679 26.3824 73.3679 26.4824 73.3679V73.2679C26.4824 73.1679 26.4824 73.0679 26.4824 73.0679H23.8824ZM18.7824 77.5679C15.9824 77.5679 13.5824 75.2679 13.5824 72.4679C13.5824 69.7679 15.5824 67.6679 18.0824 67.3679V64.9679C14.2824 65.2679 11.1824 68.5679 11.1824 72.5679C11.1824 76.7679 14.5824 80.1679 18.7824 80.1679C20.8824 80.1679 22.7824 79.3679 24.0824 77.9679L22.2824 76.2679C21.3824 77.1679 20.0824 77.5679 18.7824 77.5679ZM19.3824 64.8679V67.2679C21.7824 67.5679 23.5824 69.3679 23.8824 71.6679H26.3824C26.0824 68.0679 23.0824 65.1679 19.3824 64.8679Z" fill="#E3EAF2"/>
<path d="M26.3824 71.7679H23.9824C23.6824 69.3679 21.7824 67.5679 19.4824 67.3679V64.9679C23.0824 65.1679 26.0824 68.0679 26.3824 71.7679Z" fill="#989FB0"/>
<path d="M26.3824 73.0679C26.3824 73.1679 26.3824 73.2679 26.3824 73.2679V73.3679C26.3824 73.4679 26.3824 73.5679 26.2824 73.5679C26.2824 73.6679 26.2824 73.7679 26.1824 73.7679C26.0824 73.9679 26.0824 74.1679 26.0824 74.2679C26.0824 74.3679 25.9824 74.4679 25.9824 74.4679C25.8824 74.7679 25.7824 75.0679 25.5824 75.3679C25.4824 75.4679 25.4824 75.5679 25.4824 75.6679C25.3824 75.9679 25.1824 76.2679 24.9824 76.5679C24.8824 76.6679 24.8824 76.7679 24.7824 76.8679L23.0824 75.2679C23.1824 75.1679 23.1824 75.0679 23.2824 75.0679C23.3824 74.9679 23.3824 74.8679 23.3824 74.8679V74.7679C23.4824 74.5679 23.5824 74.3679 23.5824 74.2679C23.6824 74.1679 23.6824 74.0679 23.6824 73.9679C23.7824 73.7679 23.7824 73.5679 23.7824 73.3679C23.7824 73.2679 23.8824 73.1679 23.8824 73.0679H26.3824V73.0679Z" fill="#989FB0"/>
<path d="M96.2823 45.1678C96.2823 44.7678 96.1823 44.3678 96.0823 43.8678L90.7823 49.1678C90.5823 49.0678 90.2823 48.9678 90.0823 48.9678C89.8823 48.9678 89.5823 49.0678 89.3823 49.1678L84.5823 44.3678C84.6823 44.1678 84.6823 44.0678 84.6823 43.7678C84.6823 42.8678 83.9823 42.2678 83.1823 42.2678C82.3823 42.2678 81.6823 42.9678 81.6823 43.7678C81.6823 43.9678 81.6823 44.1678 81.7823 44.3678L77.6823 48.2678C77.4823 48.1678 77.2823 48.1678 77.0823 48.1678C76.1823 48.1678 75.5823 48.8678 75.5823 49.6678C75.5823 50.4678 76.2823 51.1678 77.0823 51.1678C77.8823 51.1678 78.5823 50.4678 78.5823 49.6678C78.5823 49.4678 78.4823 49.2678 78.3823 49.0678L82.2823 45.0678C82.5823 45.1678 82.6823 45.2678 82.8823 45.2678C83.0823 45.2678 83.3823 45.1678 83.4823 45.0678L88.2823 49.8678C88.1823 50.0678 88.1823 50.1678 88.1823 50.3678C88.1823 51.2678 88.8823 51.8678 89.6823 51.8678C90.5823 51.8678 91.1823 51.1678 91.1823 50.3678C91.1823 50.1678 91.1823 50.0678 91.0823 49.8678L96.2823 45.1678ZM77.1823 50.5678C76.7823 50.5678 76.4823 50.2678 76.4823 49.8678C76.4823 49.4678 76.7823 49.1678 77.1823 49.1678C77.5823 49.1678 77.8823 49.4678 77.8823 49.8678C77.8823 50.1678 77.5823 50.5678 77.1823 50.5678ZM83.1823 44.4678C82.7823 44.4678 82.4823 44.1678 82.4823 43.7678C82.4823 43.3678 82.7823 43.0678 83.1823 43.0678C83.5823 43.0678 83.8823 43.3678 83.8823 43.7678C83.8823 44.1678 83.6823 44.4678 83.1823 44.4678ZM90.1823 51.2678C89.7823 51.2678 89.4823 50.9678 89.4823 50.5678C89.4823 50.1678 89.7823 49.8678 90.1823 49.8678C90.5823 49.8678 90.8823 50.1678 90.8823 50.5678C90.9823 50.9678 90.6823 51.2678 90.1823 51.2678Z" fill="url(#paint0_linear)"/>
<path d="M43.9823 49.9678H42.5823C42.4823 49.9678 42.2823 49.7678 42.2823 49.6678V42.0678C42.2823 41.8678 42.3823 41.7678 42.5823 41.7678H43.9823C44.0823 41.7678 44.2823 41.9678 44.2823 42.0678V49.6678C44.1823 49.7678 44.0823 49.9678 43.9823 49.9678Z" fill="#989FB0"/>
<path d="M44.7823 49.9679H43.1823C43.0823 49.9679 42.9823 49.8679 42.9823 49.7679V46.2679C42.9823 46.0679 43.0823 46.0679 43.1823 46.0679H44.7823C44.8823 46.0679 44.9823 46.1679 44.9823 46.2679V49.7679C44.9823 49.8679 44.8823 49.9679 44.7823 49.9679Z" fill="#CED7E2"/>
<path d="M47.5823 49.9679H46.1823C46.0823 49.9679 45.8823 49.7679 45.8823 49.6679V44.3679C45.8823 44.1679 45.9823 44.0679 46.1823 44.0679H47.5823C47.6823 44.0679 47.8823 44.2679 47.8823 44.3679V49.6679C47.8823 49.7679 47.6823 49.9679 47.5823 49.9679Z" fill="#989FB0"/>
<path d="M51.1823 49.9678H49.7823C49.6823 49.9678 49.4823 49.7678 49.4823 49.6678V46.2678C49.4823 46.0678 49.5823 45.9678 49.7823 45.9678H51.1823C51.2823 45.9678 51.4823 46.1678 51.4823 46.2678V49.5678C51.4823 49.7678 51.2823 49.9678 51.1823 49.9678Z" fill="#989FB0"/>
<path d="M54.7824 49.9679H53.3824C53.2824 49.9679 53.0824 49.7679 53.0824 49.6679V43.3679C53.0824 43.1679 53.1824 43.0679 53.3824 43.0679H54.7824C54.8824 43.0679 55.0824 43.2679 55.0824 43.3679V49.6679C55.0824 49.7679 54.9824 49.9679 54.7824 49.9679Z" fill="#989FB0"/>
<path d="M58.4823 49.9679H57.0823C56.9823 49.9679 56.7823 49.7679 56.7823 49.6679V45.8679C56.7823 45.6679 56.8823 45.5679 57.0823 45.5679H58.4823C58.5823 45.5679 58.7823 45.7679 58.7823 45.8679V49.6679C58.7823 49.7679 58.6823 49.9679 58.4823 49.9679Z" fill="#989FB0"/>
<path d="M62.0823 49.9679H60.6823C60.5823 49.9679 60.3823 49.7679 60.3823 49.6679V44.3679C60.3823 44.1679 60.4823 44.0679 60.6823 44.0679H62.0823C62.1823 44.0679 62.3823 44.2679 62.3823 44.3679V49.6679C62.3823 49.7679 62.2823 49.9679 62.0823 49.9679Z" fill="#989FB0"/>
<path d="M65.7824 49.9678H64.3824C64.2824 49.9678 64.0824 49.7678 64.0824 49.6678V46.2678C64.0824 46.0678 64.1824 45.9678 64.3824 45.9678H65.7824C65.8824 45.9678 66.0824 46.1678 66.0824 46.2678V49.5678C65.9824 49.7678 65.8824 49.9678 65.7824 49.9678Z" fill="#989FB0"/>
<path d="M48.3824 49.9678H46.6824C46.5824 49.9678 46.5824 49.8678 46.5824 49.7678V47.6678C46.5824 47.5678 46.6824 47.4678 46.6824 47.4678H48.3824C48.4824 47.4678 48.4824 47.5678 48.4824 47.6678V49.7678C48.5824 49.8678 48.4824 49.9678 48.3824 49.9678Z" fill="#CED7E2"/>
<path d="M52.0823 49.9679H50.3823C50.2823 49.9679 50.2823 49.8679 50.2823 49.7679V48.7679C50.2823 48.6679 50.3823 48.5679 50.3823 48.5679H52.0823C52.1823 48.5679 52.1823 48.6679 52.1823 48.7679V49.7679C52.1823 49.8679 52.1823 49.9679 52.0823 49.9679Z" fill="#CED7E2"/>
<path d="M55.6823 49.9679H53.9823C53.8823 49.9679 53.8823 49.8679 53.8823 49.7679V48.2679C53.8823 48.1679 53.9823 48.0679 53.9823 48.0679H55.6823C55.7823 48.0679 55.7823 48.1679 55.7823 48.2679V49.7679C55.8823 49.8679 55.8823 49.9679 55.6823 49.9679Z" fill="#CED7E2"/>
<path d="M59.3824 49.9678H57.7824C57.6824 49.9678 57.6824 49.8678 57.6824 49.7678V47.0678C57.6824 46.9678 57.7824 46.8678 57.7824 46.8678H59.3824C59.4824 46.8678 59.4824 46.9678 59.4824 47.0678V49.7678C59.5824 49.8678 59.4824 49.9678 59.3824 49.9678Z" fill="#CED7E2"/>
<path d="M63.1823 49.9678H61.3823C61.2823 49.9678 61.2823 49.9678 61.2823 49.8678V49.3678C61.2823 49.2678 61.2823 49.2678 61.3823 49.2678H63.1823C63.2823 49.2678 63.2823 49.2678 63.2823 49.3678V49.7678C63.2823 49.8678 63.2823 49.9678 63.1823 49.9678Z" fill="#CED7E2"/>
<path d="M66.7823 49.9679H64.9823C64.9823 49.9679 64.8823 49.9679 64.8823 49.8679V49.6679C64.8823 49.6679 64.8823 49.5679 64.9823 49.5679H66.7823C66.7823 49.5679 66.8823 49.5679 66.8823 49.6679L66.7823 49.9679C66.7823 49.9679 66.8823 49.8679 66.7823 49.9679Z" fill="#CED7E2"/>
<path d="M68.3824 62.9679H40.6824V66.6679H68.3824V62.9679Z" fill="#E6EDF5"/>
<path d="M56.7824 64.168H49.1824V65.268H56.7824V64.168Z" fill="#CED7E2"/>
<path d="M66.3824 64.168H63.6824V65.268H66.3824V64.168Z" fill="#CED7E2"/>
<path d="M68.3824 69.9679H40.6824V73.6679H68.3824V69.9679Z" fill="#E6EDF5"/>
<path d="M54.4824 71.3679H49.1824V72.4679H54.4824V71.3679Z" fill="#CED7E2"/>
<path d="M66.3824 71.3679H61.6824V72.4679H66.3824V71.3679Z" fill="#CED7E2"/>
<path d="M68.3824 77.0679H40.6824V80.7679H68.3824V77.0679Z" fill="#E6EDF5"/>
<path d="M57.9824 78.3679H49.1824V79.4679H57.9824V78.3679V78.3679Z" fill="#CED7E2"/>
<path d="M66.3823 78.3679H64.8823V79.4679H66.3823V78.3679Z" fill="#CED7E2"/>
<path d="M10.7823 24.3679H6.58228C6.28228 24.3679 6.08228 24.0679 6.08228 23.8679V23.3679C6.08228 23.0679 6.38228 22.8679 6.58228 22.8679H10.7823C11.0823 22.8679 11.2823 23.1679 11.2823 23.3679V23.8679C11.2823 24.0679 11.0823 24.3679 10.7823 24.3679Z" fill="#CED7E2"/>
<path d="M39.6823 24.3679H14.8823C14.5823 24.3679 14.3823 24.0679 14.3823 23.8679V23.3679C14.3823 23.0679 14.6823 22.8679 14.8823 22.8679H39.6823C39.9823 22.8679 40.1823 23.1679 40.1823 23.3679V23.8679C40.1823 24.0679 39.9823 24.3679 39.6823 24.3679Z" fill="#E3EAF2"/>
<path d="M10.7823 28.4679H6.58228C6.28228 28.4679 6.08228 28.1679 6.08228 27.9679V27.4679C6.08228 27.1679 6.38228 26.9679 6.58228 26.9679H10.7823C11.0823 26.9679 11.2823 27.2679 11.2823 27.4679V27.9679C11.2823 28.2679 11.0823 28.4679 10.7823 28.4679Z" fill="#CED7E2"/>
<path d="M28.1823 27.9679C28.1823 28.2679 27.8823 28.4679 27.6823 28.4679H14.8823C14.5823 28.4679 14.3823 28.1679 14.3823 27.9679V27.4679C14.3823 27.1679 14.6823 26.9679 14.8823 26.9679H27.6823C27.9823 26.9679 28.1823 27.2679 28.1823 27.4679V27.9679Z" fill="#E3EAF2"/>
<path d="M32.8823 55.0679H6.08228V38.3679C7.48228 38.4679 8.88228 38.5679 10.1823 38.9679C10.7823 39.1679 11.1823 39.3679 11.5823 39.7679C11.7823 39.9679 11.7823 40.0679 11.7823 40.1679C11.9823 40.6679 12.3823 40.9679 13.0823 41.0679L13.6823 41.1679C14.8823 41.2679 15.7823 41.9679 15.8823 42.7679L16.0823 44.1679C17.3823 44.4679 17.4823 44.4679 18.6823 44.7679C18.8823 44.8679 18.8823 44.7679 18.9823 44.6679C19.0823 44.5679 19.1823 44.5679 19.2823 44.5679C19.4823 44.5679 19.4823 44.5679 19.6823 44.4679C19.8823 44.3679 20.0823 44.3679 20.1823 44.5679C20.6823 45.2679 21.6823 45.6679 22.2823 46.2679C22.9823 46.9679 24.1823 46.8679 24.9823 46.8679C25.1823 46.8679 25.4823 46.9679 25.6823 47.0679C26.6823 47.7679 28.2823 50.0679 29.5823 50.0679C30.0823 50.0679 30.4823 50.2679 30.7823 50.4679C31.8823 52.0679 32.5823 53.3679 32.8823 55.0679Z" fill="#EAEEF9"/>
<path d="M32.1823 55.168C31.8823 53.668 31.1823 52.468 30.0823 51.168C29.9823 51.068 29.6823 50.968 29.3823 50.968C28.1823 50.968 27.1823 49.868 26.1823 48.868C25.7823 48.468 25.3823 48.068 25.0823 47.868C24.9823 47.768 24.7823 47.768 24.7823 47.768C24.5823 47.768 24.4823 47.768 24.2823 47.768C23.4823 47.768 22.3823 47.668 21.5823 46.968C21.3823 46.668 21.0823 46.468 20.6823 46.268C20.2823 45.968 19.8823 45.768 19.5823 45.368C19.4823 45.368 19.2823 45.368 19.1823 45.368C19.0823 45.468 18.6823 45.668 18.1823 45.468L17.5823 45.268C16.9823 45.168 16.6823 45.068 15.6823 44.868H15.3823L15.1823 42.968C15.1823 42.468 14.4823 42.068 13.6823 41.968L13.0823 41.868C12.1823 41.768 11.3823 41.268 11.1823 40.468V40.368C10.8823 40.068 10.5823 39.868 10.1823 39.768C8.98235 39.368 7.58235 39.268 6.28235 39.168L6.38235 37.668C7.78235 37.768 9.28235 37.868 10.6823 38.368C11.3823 38.568 11.9823 38.968 12.3823 39.468C12.4823 39.568 12.6823 39.868 12.7823 40.268C12.8823 40.468 13.0823 40.568 13.3823 40.568L13.9823 40.668C15.5823 40.768 16.6823 41.768 16.8823 42.968L16.9823 43.768C17.5823 43.868 17.8823 43.968 18.3823 44.068L18.9823 44.168C19.1823 44.068 19.3823 43.968 19.5823 43.968C19.6823 43.968 19.6823 43.968 19.7823 43.968C20.2823 43.768 20.8823 43.968 21.1823 44.368C21.3823 44.568 21.7823 44.868 22.0823 45.068C22.4823 45.368 22.8823 45.568 23.1823 45.968C23.4823 46.268 24.1823 46.268 24.8823 46.368C25.0823 46.368 25.1823 46.368 25.3823 46.368C25.7823 46.368 26.0823 46.568 26.3823 46.668L26.4823 46.768C26.8823 47.068 27.3823 47.468 27.7823 47.968C28.3823 48.668 29.3823 49.568 29.8823 49.568C30.4823 49.568 31.0823 49.768 31.5823 50.168C32.9823 51.668 33.7823 53.168 34.0823 54.968L32.1823 55.168Z" fill="#989FB0"/>
<path d="M31.7823 44.8679H19.9823C19.4823 44.8679 19.0823 44.4679 19.0823 43.9679V39.7679C19.0823 39.2679 19.4823 38.8679 19.9823 38.8679H31.7823C32.2823 38.8679 32.6823 39.2679 32.6823 39.7679V43.9679C32.6823 44.4679 32.2823 44.8679 31.7823 44.8679Z" fill="#989FB0"/>
<path d="M30.2823 40.5679H21.5823C21.3823 40.5679 21.2823 40.7679 21.2823 40.8679C21.2823 40.9679 21.3823 41.2679 21.4823 41.2679H30.1823C30.3823 41.2679 30.4823 41.0679 30.4823 40.9679C30.4823 40.8679 30.3823 40.5679 30.2823 40.5679Z" fill="white"/>
<path d="M26.1824 42.5679H21.4824C21.2824 42.5679 21.1824 42.7679 21.1824 42.8679C21.1824 43.0679 21.3824 43.1679 21.4824 43.1679H26.1824C26.3824 43.1679 26.4824 42.9679 26.4824 42.8679C26.4824 42.7679 26.2824 42.5679 26.1824 42.5679Z" fill="white"/>
<path d="M84.2823 71.768H76.3823V68.468H84.2823V71.768ZM76.4823 72.768H84.3823V76.068H76.4823V72.768ZM77.0823 64.268H84.3823V67.668H76.4823V64.968C76.4823 64.468 76.7823 64.268 77.0823 64.268ZM76.4823 79.468V77.068H84.3823V80.068H77.0823C76.7823 80.068 76.4823 79.768 76.4823 79.468ZM94.7823 64.268C94.8823 63.868 94.9823 63.568 95.0823 63.168H77.0823C76.1823 63.168 75.5823 63.968 75.5823 64.868V79.368C75.5823 80.268 76.2823 81.068 77.0823 81.068H85.8823C86.1823 80.668 86.4823 80.368 86.7823 79.968H85.3823V76.968H88.8823C89.0823 76.668 89.2823 76.268 89.5823 75.968H85.3823V72.668H91.3823C91.5823 72.368 91.6823 72.068 91.8823 71.768H85.3823V68.468H92.7823V69.868C93.1823 69.068 93.4823 68.168 93.7823 67.368H93.6823V64.268H94.7823ZM92.6823 67.668H85.3823V64.268H92.7823V67.668H92.6823Z" fill="#E3EAF2"/>
<path d="M82.3823 17.4679C81.6823 16.7679 80.8823 16.0679 80.0823 15.4679V17.3679C80.4823 17.7679 80.9823 18.1679 81.3823 18.5679C89.8823 26.7679 95.2823 38.3679 95.2823 51.1679C95.2823 64.5679 89.4823 76.6679 80.1823 84.9679V86.8679C80.3823 86.6679 80.6823 86.4679 80.8823 86.2679C90.5823 77.6679 96.6823 65.1679 96.6823 51.1679C96.6823 37.9679 91.1823 25.9679 82.3823 17.4679Z" fill="#EAEEF9"/>
<path d="M6.28228 10.8679C9.15416 10.8679 11.4823 8.53978 11.4823 5.6679C11.4823 2.79602 9.15416 0.467896 6.28228 0.467896C3.41039 0.467896 1.08228 2.79602 1.08228 5.6679C1.08228 8.53978 3.41039 10.8679 6.28228 10.8679Z" fill="#EAEEF9"/>
<defs>
<linearGradient id="paint0_linear" x1="93.1052" y1="47.1228" x2="76.5712" y2="47.1228" gradientUnits="userSpaceOnUse">
<stop stop-color="#F1F4FB"/>
<stop offset="0.9964" stop-color="#CAD1DE"/>
</linearGradient>
</defs>
</svg>
