<svg width="204" height="154" viewBox="0 0 204 154" fill="none" xmlns="http://www.w3.org/2000/svg">
<path d="M98.5384 121.005C128.238 121.005 152.438 96.9052 152.438 67.3052C152.338 37.6052 128.238 13.5052 98.5384 13.5052C68.7384 13.5052 44.6384 37.6052 44.6384 67.2052C44.6384 96.9053 68.7384 121.005 98.5384 121.005Z" fill="#EAEEF9"/>
<g filter="url(#filter0_d)">
<path d="M181.159 104.656C181.159 113.335 174.14 120.354 165.386 120.354C165.235 120.354 163.952 120.354 154.518 120.354C147.952 120.354 137.461 120.354 120.706 120.354H112.706C102.216 120.581 93.8384 112.203 93.8384 102.09C93.8384 91.9015 102.291 83.4487 112.933 83.977C122.065 55.4487 163.876 59.4487 167.423 88.9581C175.272 89.9392 181.159 96.5807 181.159 104.656Z" fill="url(#paint0_linear)"/>
</g>
<path d="M165.386 120.354C174.065 120.354 181.159 113.335 181.159 104.656C181.159 95.977 174.065 88.9581 165.386 88.9581C156.706 88.9581 149.612 95.977 149.612 104.656C149.612 113.335 156.706 120.354 165.386 120.354Z" fill="url(#paint1_linear)"/>
<path d="M139.65 120.505C155.121 120.505 167.725 107.977 167.725 92.5052C167.725 77.0335 155.121 64.5052 139.65 64.5052C124.178 64.5052 111.574 77.0335 111.574 92.5052C111.574 107.977 124.103 120.505 139.65 120.505Z" fill="url(#paint2_linear)"/>
<g filter="url(#filter1_d)">
<path d="M97.6847 45.9203C97.6847 53.3597 91.6686 59.3759 84.1645 59.3759C84.0351 59.3759 82.9354 59.3759 74.8492 59.3759C69.2211 59.3759 60.2292 59.3759 45.868 59.3759H39.0109C30.019 59.5699 22.8384 52.3893 22.8384 43.7209C22.8384 34.9877 30.0837 27.7424 39.205 28.1953C47.0324 3.74244 82.8707 7.17101 85.9112 32.4648C92.6389 33.3058 97.6847 38.9985 97.6847 45.9203Z" fill="url(#paint3_linear)"/>
</g>
<path d="M84.1645 59.3759C91.6039 59.3759 97.6847 53.3597 97.6847 45.9204C97.6847 38.481 91.6039 32.4648 84.1645 32.4648C76.7252 32.4648 70.6443 38.481 70.6443 45.9204C70.6443 53.3597 76.7252 59.3759 84.1645 59.3759Z" fill="url(#paint4_linear)"/>
<path d="M62.1052 59.5052C75.3667 59.5052 86.1699 48.7667 86.1699 35.5052C86.1699 22.2438 75.3667 11.5052 62.1052 11.5052C48.8438 11.5052 38.0405 22.2438 38.0405 35.5052C38.0405 48.7667 48.7791 59.5052 62.1052 59.5052Z" fill="url(#paint5_linear)"/>
<g filter="url(#filter2_d)">
<path d="M143.617 48.0146C143.617 52.6642 139.857 56.4243 135.167 56.4243C135.086 56.4243 134.399 56.4243 129.345 56.4243C125.828 56.4243 120.208 56.4243 111.232 56.4243H106.946C101.326 56.5456 96.8384 52.0578 96.8384 46.64C96.8384 41.1817 101.367 36.6534 107.067 36.9365C111.96 21.6534 134.359 23.7963 136.259 39.6049C140.464 40.1305 143.617 43.6885 143.617 48.0146Z" fill="url(#paint6_linear)"/>
</g>
<path d="M135.167 56.4244C139.817 56.4244 143.617 52.6643 143.617 48.0147C143.617 43.3651 139.817 39.605 135.167 39.605C130.518 39.605 126.717 43.3651 126.717 48.0147C126.717 52.6643 130.518 56.4244 135.167 56.4244Z" fill="url(#paint7_linear)"/>
<path d="M121.38 56.5052C129.669 56.5052 136.421 49.7937 136.421 41.5052C136.421 33.2168 129.669 26.5052 121.38 26.5052C113.092 26.5052 106.34 33.2168 106.34 41.5052C106.34 49.7937 113.051 56.5052 121.38 56.5052Z" fill="url(#paint8_linear)"/>
<path d="M153.738 48.5053C156.003 48.5053 157.838 46.6697 157.838 44.4053C157.838 42.1409 156.003 40.3053 153.738 40.3053C151.474 40.3053 149.638 42.1409 149.638 44.4053C149.638 46.6697 151.474 48.5053 153.738 48.5053Z" fill="#EAEEF9"/>
<path d="M159.738 32.5053C161.285 32.5053 162.538 31.2517 162.538 29.7053C162.538 28.1589 161.285 26.9053 159.738 26.9053C158.192 26.9053 156.938 28.1589 156.938 29.7053C156.938 31.2517 158.192 32.5053 159.738 32.5053Z" fill="#EAEEF9"/>
<path d="M40.0384 103.305C42.9103 103.305 45.2384 100.977 45.2384 98.1053C45.2384 95.2334 42.9103 92.9053 40.0384 92.9053C37.1665 92.9053 34.8384 95.2334 34.8384 98.1053C34.8384 100.977 37.1665 103.305 40.0384 103.305Z" fill="#EAEEF9"/>
<g filter="url(#filter3_d)">
<path d="M127.876 47.9501L128.573 104.105C128.573 106.023 127.004 107.505 125.086 107.505H70.3262C68.4079 107.505 66.8384 105.936 66.8384 104.105V31.9059C66.8384 29.9876 68.4079 28.5052 70.3262 28.5052H110.001L127.876 47.9501Z" fill="url(#paint9_linear)"/>
</g>
<path d="M93.0258 95.5052H91.9039C91.66 95.5052 91.4648 95.278 91.4648 95.0053C91.4648 94.7325 91.66 94.5052 91.9039 94.5052H93.0258C93.2697 94.5052 93.4648 94.7325 93.4648 95.0053C93.4648 95.3234 93.2697 95.5052 93.0258 95.5052Z" fill="#CED7E2"/>
<path d="M86.7543 95.5052H76.1754C75.7806 95.5052 75.4648 95.278 75.4648 95.0053C75.4648 94.7325 75.7806 94.5052 76.1754 94.5052H86.7543C87.1491 94.5052 87.4648 94.7325 87.4648 95.0053C87.4648 95.3234 87.1491 95.5052 86.7543 95.5052Z" fill="#D5DDEA"/>
<path d="M102.352 40.5052H76.578C75.9786 40.5052 75.4648 40.0437 75.4648 39.5052C75.4648 38.9668 75.9786 38.5052 76.578 38.5052H102.352C102.951 38.5052 103.465 38.9668 103.465 39.5052C103.465 40.0437 102.951 40.5052 102.352 40.5052Z" fill="#D5DDEA"/>
<path d="M86.4436 46.5052H76.5712C75.9755 46.5052 75.4648 46.0437 75.4648 45.5052C75.4648 44.9668 75.9755 44.5052 76.5712 44.5052H86.3585C86.9542 44.5052 87.4648 44.9668 87.4648 45.5052C87.4648 46.0437 86.9542 46.5052 86.4436 46.5052Z" fill="#D5DDEA"/>
<path d="M110.211 28.5052V44.4694C110.211 46.7115 112.143 48.5052 114.338 48.5052L127.838 48.0052" fill="#D5DDEA"/>
<path d="M88.7353 57.0193C91.2647 55.3979 94.2481 54.4899 97.4261 54.4899C106.117 54.4899 113.186 61.4944 113.186 70.1852C113.186 78.876 106.117 85.8806 97.4261 85.8806C88.7353 85.8806 81.6659 78.876 81.6659 70.1852C81.5362 64.6724 84.3899 59.873 88.7353 57.0193Z" fill="url(#paint10_linear)"/>
<path d="M98.5588 63.0125L103.067 67.94C103.597 68.5197 103.597 69.5342 103.067 70.1139C102.537 70.6937 101.608 70.6937 101.012 70.1139L98.9566 67.94V75.911C98.9566 76.7806 98.2936 77.5052 97.498 77.5052C96.7024 77.5052 96.0394 76.7806 96.0394 75.911V67.94L93.9842 70.1139C93.4538 70.6937 92.5256 70.6937 91.9289 70.1139C91.5974 69.7516 91.4648 69.3893 91.4648 69.027C91.4648 68.6647 91.5974 68.1574 91.9289 67.94L96.4372 63.0125C96.6361 62.7951 97.1002 62.5052 97.4317 62.5052C97.7632 62.5052 98.3599 62.6502 98.5588 63.0125Z" fill="white"/>
<g filter="url(#filter4_d)">
<path d="M81.6174 81.0146C81.6174 85.6642 77.8572 89.4243 73.1672 89.4243C73.0864 89.4243 72.399 89.4243 67.3451 89.4243C63.8276 89.4243 58.2076 89.4243 49.2319 89.4243H44.9462C39.3262 89.5456 34.8384 85.0578 34.8384 79.64C34.8384 74.1817 39.3667 69.6534 45.0675 69.9365C49.9597 54.6534 72.3586 56.7963 74.2589 72.6049C78.4637 73.1305 81.6174 76.6885 81.6174 81.0146Z" fill="url(#paint11_linear)"/>
</g>
<path d="M73.1672 89.4244C77.8168 89.4244 81.6173 85.6643 81.6173 81.0147C81.6173 76.3651 77.8168 72.605 73.1672 72.605C68.5176 72.605 64.717 76.3651 64.717 81.0147C64.717 85.6643 68.5176 89.4244 73.1672 89.4244Z" fill="url(#paint12_linear)"/>
<path d="M59.3803 89.5052C67.6687 89.5052 74.4207 82.7937 74.4207 74.5052C74.4207 66.2168 67.6687 59.5052 59.3803 59.5052C51.0919 59.5052 44.3398 66.2168 44.3398 74.5052C44.3398 82.7937 51.0514 89.5052 59.3803 89.5052Z" fill="url(#paint13_linear)"/>
<defs>
<filter id="filter0_d" x="71.8384" y="53.5735" width="131.321" height="99.7853" filterUnits="userSpaceOnUse" color-interpolation-filters="sRGB">
<feFlood flood-opacity="0" result="BackgroundImageFix"/>
<feColorMatrix in="SourceAlpha" type="matrix" values="0 0 0 0 0 0 0 0 0 0 0 0 0 0 0 0 0 0 127 0"/>
<feOffset dy="11"/>
<feGaussianBlur stdDeviation="11"/>
<feColorMatrix type="matrix" values="0 0 0 0 0.397708 0 0 0 0 0.47749 0 0 0 0 0.575 0 0 0 0.27 0"/>
<feBlend mode="normal" in2="BackgroundImageFix" result="effect1_dropShadow"/>
<feBlend mode="normal" in="SourceGraphic" in2="effect1_dropShadow" result="shape"/>
</filter>
<filter id="filter1_d" x="0.838379" y="0.563721" width="118.846" height="91.816" filterUnits="userSpaceOnUse" color-interpolation-filters="sRGB">
<feFlood flood-opacity="0" result="BackgroundImageFix"/>
<feColorMatrix in="SourceAlpha" type="matrix" values="0 0 0 0 0 0 0 0 0 0 0 0 0 0 0 0 0 0 127 0"/>
<feOffset dy="11"/>
<feGaussianBlur stdDeviation="11"/>
<feColorMatrix type="matrix" values="0 0 0 0 0.397708 0 0 0 0 0.47749 0 0 0 0 0.575 0 0 0 0.27 0"/>
<feBlend mode="normal" in2="BackgroundImageFix" result="effect1_dropShadow"/>
<feBlend mode="normal" in="SourceGraphic" in2="effect1_dropShadow" result="shape"/>
</filter>
<filter id="filter2_d" x="74.8384" y="15.5417" width="90.779" height="73.885" filterUnits="userSpaceOnUse" color-interpolation-filters="sRGB">
<feFlood flood-opacity="0" result="BackgroundImageFix"/>
<feColorMatrix in="SourceAlpha" type="matrix" values="0 0 0 0 0 0 0 0 0 0 0 0 0 0 0 0 0 0 127 0"/>
<feOffset dy="11"/>
<feGaussianBlur stdDeviation="11"/>
<feColorMatrix type="matrix" values="0 0 0 0 0.397708 0 0 0 0 0.47749 0 0 0 0 0.575 0 0 0 0.27 0"/>
<feBlend mode="normal" in2="BackgroundImageFix" result="effect1_dropShadow"/>
<feBlend mode="normal" in="SourceGraphic" in2="effect1_dropShadow" result="shape"/>
</filter>
<filter id="filter3_d" x="44.8384" y="17.5052" width="105.735" height="123" filterUnits="userSpaceOnUse" color-interpolation-filters="sRGB">
<feFlood flood-opacity="0" result="BackgroundImageFix"/>
<feColorMatrix in="SourceAlpha" type="matrix" values="0 0 0 0 0 0 0 0 0 0 0 0 0 0 0 0 0 0 127 0"/>
<feOffset dy="11"/>
<feGaussianBlur stdDeviation="11"/>
<feColorMatrix type="matrix" values="0 0 0 0 0.397708 0 0 0 0 0.47749 0 0 0 0 0.575 0 0 0 0.27 0"/>
<feBlend mode="normal" in2="BackgroundImageFix" result="effect1_dropShadow"/>
<feBlend mode="normal" in="SourceGraphic" in2="effect1_dropShadow" result="shape"/>
</filter>
<filter id="filter4_d" x="12.8384" y="48.5417" width="90.779" height="73.885" filterUnits="userSpaceOnUse" color-interpolation-filters="sRGB">
<feFlood flood-opacity="0" result="BackgroundImageFix"/>
<feColorMatrix in="SourceAlpha" type="matrix" values="0 0 0 0 0 0 0 0 0 0 0 0 0 0 0 0 0 0 127 0"/>
<feOffset dy="11"/>
<feGaussianBlur stdDeviation="11"/>
<feColorMatrix type="matrix" values="0 0 0 0 0.397708 0 0 0 0 0.47749 0 0 0 0 0.575 0 0 0 0.27 0"/>
<feBlend mode="normal" in2="BackgroundImageFix" result="effect1_dropShadow"/>
<feBlend mode="normal" in="SourceGraphic" in2="effect1_dropShadow" result="shape"/>
</filter>
<linearGradient id="paint0_linear" x1="137.499" y1="87.6261" x2="137.47" y2="120.96" gradientUnits="userSpaceOnUse">
<stop stop-color="white"/>
<stop offset="0.9964" stop-color="#ECF0F5"/>
</linearGradient>
<linearGradient id="paint1_linear" x1="147.933" y1="85.5784" x2="161.917" y2="100.872" gradientUnits="userSpaceOnUse">
<stop stop-color="#BCCBE1"/>
<stop offset="0.9942" stop-color="white" stop-opacity="0"/>
</linearGradient>
<linearGradient id="paint2_linear" x1="108.945" y1="79.6568" x2="130.984" y2="88.2812" gradientUnits="userSpaceOnUse">
<stop stop-color="#E2E8F0"/>
<stop offset="0.9942" stop-color="white" stop-opacity="0"/>
</linearGradient>
<linearGradient id="paint3_linear" x1="60.2616" y1="31.3231" x2="60.2372" y2="59.8952" gradientUnits="userSpaceOnUse">
<stop stop-color="white"/>
<stop offset="0.9964" stop-color="#ECF0F5"/>
</linearGradient>
<linearGradient id="paint4_linear" x1="69.2055" y1="29.5679" x2="81.1911" y2="42.6765" gradientUnits="userSpaceOnUse">
<stop stop-color="#BCCBE1"/>
<stop offset="0.9942" stop-color="white" stop-opacity="0"/>
</linearGradient>
<linearGradient id="paint5_linear" x1="35.7871" y1="24.4923" x2="54.6774" y2="31.8846" gradientUnits="userSpaceOnUse">
<stop stop-color="#E2E8F0"/>
<stop offset="0.9942" stop-color="white" stop-opacity="0"/>
</linearGradient>
<linearGradient id="paint6_linear" x1="120.228" y1="38.8914" x2="120.213" y2="56.7489" gradientUnits="userSpaceOnUse">
<stop stop-color="white"/>
<stop offset="0.9964" stop-color="#ECF0F5"/>
</linearGradient>
<linearGradient id="paint7_linear" x1="125.818" y1="37.7944" x2="133.309" y2="45.9873" gradientUnits="userSpaceOnUse">
<stop stop-color="#BCCBE1"/>
<stop offset="0.9942" stop-color="white" stop-opacity="0"/>
</linearGradient>
<linearGradient id="paint8_linear" x1="104.931" y1="34.6221" x2="116.738" y2="39.2424" gradientUnits="userSpaceOnUse">
<stop stop-color="#E2E8F0"/>
<stop offset="0.9942" stop-color="white" stop-opacity="0"/>
</linearGradient>
<linearGradient id="paint9_linear" x1="97.6858" y1="26.6779" x2="97.6858" y2="108.357" gradientUnits="userSpaceOnUse">
<stop stop-color="#FDFEFF"/>
<stop offset="0.9964" stop-color="#ECF0F5"/>
</linearGradient>
<linearGradient id="paint10_linear" x1="97.4265" y1="55.5803" x2="97.4265" y2="73.1996" gradientUnits="userSpaceOnUse">
<stop stop-color="#B0BACC"/>
<stop offset="1" stop-color="#969EAE"/>
</linearGradient>
<linearGradient id="paint11_linear" x1="58.2279" y1="71.8914" x2="58.2126" y2="89.7489" gradientUnits="userSpaceOnUse">
<stop stop-color="white"/>
<stop offset="0.9964" stop-color="#ECF0F5"/>
</linearGradient>
<linearGradient id="paint12_linear" x1="63.8178" y1="70.7944" x2="71.3088" y2="78.9873" gradientUnits="userSpaceOnUse">
<stop stop-color="#BCCBE1"/>
<stop offset="0.9942" stop-color="white" stop-opacity="0"/>
</linearGradient>
<linearGradient id="paint13_linear" x1="42.9315" y1="67.6221" x2="54.7379" y2="72.2424" gradientUnits="userSpaceOnUse">
<stop stop-color="#E2E8F0"/>
<stop offset="0.9942" stop-color="white" stop-opacity="0"/>
</linearGradient>
</defs>
</svg>
