<svg width="161" height="119" viewBox="0 0 161 119" fill="none" xmlns="http://www.w3.org/2000/svg">
<path d="M81.0003 112.005C110.7 112.005 134.9 87.9052 134.9 58.3052C134.8 28.6052 110.7 4.50525 81.0003 4.50525C51.2003 4.50525 27.1003 28.6052 27.1003 58.2052C27.1003 87.9053 51.2003 112.005 81.0003 112.005Z" fill="#EAEEF9"/>
<g filter="url(#filter0_d)">
<path d="M138.5 65.1052C138.5 76.6052 129.2 85.9052 117.6 85.9052C117.4 85.9052 115.7 85.9052 103.2 85.9052C94.5003 85.9052 80.6003 85.9052 58.4003 85.9052H47.8003C33.9003 86.2052 22.8003 75.1052 22.8003 61.7052C22.8003 48.2052 34.0003 37.0052 48.1003 37.7052C60.2003 -0.0947895 115.6 5.20521 120.3 44.3052C130.7 45.6052 138.5 54.4052 138.5 65.1052Z" fill="url(#paint0_linear)"/>
</g>
<path d="M117.6 85.9052C129.1 85.9052 138.5 76.6052 138.5 65.1052C138.5 53.6052 129.1 44.3052 117.6 44.3052C106.1 44.3052 96.7003 53.6052 96.7003 65.1052C96.7003 76.6052 106.1 85.9052 117.6 85.9052Z" fill="url(#paint1_linear)"/>
<path d="M83.5003 86.1053C104 86.1053 120.7 69.5053 120.7 49.0053C120.7 28.5053 104 11.9053 83.5003 11.9053C63.0003 11.9053 46.3003 28.5053 46.3003 49.0053C46.3003 69.5053 62.9003 86.1053 83.5003 86.1053Z" fill="url(#paint2_linear)"/>
<path d="M67.6036 63.3053C71.5036 60.8053 76.1036 59.4053 81.0036 59.4053C94.4036 59.4053 105.304 70.2053 105.304 83.6053C105.304 97.0053 94.4036 107.805 81.0036 107.805C67.6036 107.805 56.7036 97.0053 56.7036 83.6053C56.5036 75.1053 60.9036 67.7053 67.6036 63.3053Z" fill="url(#paint3_linear)"/>
<path d="M82.6503 74.3052L89.4503 81.1052C90.2503 81.9052 90.2503 83.3052 89.4503 84.1052C88.6503 84.9052 87.2503 84.9052 86.3503 84.1052L83.2503 81.1052V92.1052C83.2503 93.3052 82.2503 94.3052 81.0503 94.3052C79.8503 94.3052 78.8503 93.3052 78.8503 92.1052V81.1052L75.7503 84.1052C74.9503 84.9052 73.5503 84.9052 72.6503 84.1052C72.1503 83.6052 71.9503 83.1052 71.9503 82.6052C71.9503 82.1052 72.1503 81.4052 72.6503 81.1052L79.4503 74.3052C79.7503 74.0052 80.4503 73.6052 80.9503 73.6052C81.4503 73.6052 82.3503 73.8052 82.6503 74.3052Z" fill="white"/>
<path d="M136.2 39.5052C138.465 39.5052 140.3 37.6695 140.3 35.4052C140.3 33.1408 138.465 31.3052 136.2 31.3052C133.936 31.3052 132.1 33.1408 132.1 35.4052C132.1 37.6695 133.936 39.5052 136.2 39.5052Z" fill="#EAEEF9"/>
<path d="M142.2 23.5053C143.747 23.5053 145 22.2517 145 20.7053C145 19.1589 143.747 17.9053 142.2 17.9053C140.654 17.9053 139.4 19.1589 139.4 20.7053C139.4 22.2517 140.654 23.5053 142.2 23.5053Z" fill="#EAEEF9"/>
<path d="M28.8002 32.7052C30.3466 32.7052 31.6002 31.4516 31.6002 29.9052C31.6002 28.3588 30.3466 27.1052 28.8002 27.1052C27.2538 27.1052 26.0002 28.3588 26.0002 29.9052C26.0002 31.4516 27.2538 32.7052 28.8002 32.7052Z" fill="#EAEEF9"/>
<path d="M22.5003 94.3053C25.3722 94.3053 27.7003 91.9772 27.7003 89.1053C27.7003 86.2334 25.3722 83.9053 22.5003 83.9053C19.6284 83.9053 17.3003 86.2334 17.3003 89.1053C17.3003 91.9772 19.6284 94.3053 22.5003 94.3053Z" fill="#EAEEF9"/>
<defs>
<filter id="filter0_d" x="0.800293" y="0.995605" width="159.7" height="117.916" filterUnits="userSpaceOnUse" color-interpolation-filters="sRGB">
<feFlood flood-opacity="0" result="BackgroundImageFix"/>
<feColorMatrix in="SourceAlpha" type="matrix" values="0 0 0 0 0 0 0 0 0 0 0 0 0 0 0 0 0 0 127 0"/>
<feOffset dy="11"/>
<feGaussianBlur stdDeviation="11"/>
<feColorMatrix type="matrix" values="0 0 0 0 0.397708 0 0 0 0 0.47749 0 0 0 0 0.575 0 0 0 0.27 0"/>
<feBlend mode="normal" in2="BackgroundImageFix" result="effect1_dropShadow"/>
<feBlend mode="normal" in="SourceGraphic" in2="effect1_dropShadow" result="shape"/>
</filter>
<linearGradient id="paint0_linear" x1="80.6503" y1="42.5404" x2="80.6126" y2="86.708" gradientUnits="userSpaceOnUse">
<stop stop-color="white"/>
<stop offset="0.9964" stop-color="#ECF0F5"/>
</linearGradient>
<linearGradient id="paint1_linear" x1="94.4762" y1="39.827" x2="113.004" y2="60.0907" gradientUnits="userSpaceOnUse">
<stop stop-color="#BCCBE1"/>
<stop offset="0.9942" stop-color="white" stop-opacity="0"/>
</linearGradient>
<linearGradient id="paint2_linear" x1="42.8169" y1="31.9811" x2="72.0181" y2="43.4084" gradientUnits="userSpaceOnUse">
<stop stop-color="#E2E8F0"/>
<stop offset="0.9942" stop-color="white" stop-opacity="0"/>
</linearGradient>
<linearGradient id="paint3_linear" x1="81.0041" y1="61.0866" x2="81.0041" y2="88.2531" gradientUnits="userSpaceOnUse">
<stop stop-color="#B0BACC"/>
<stop offset="1" stop-color="#969EAE"/>
</linearGradient>
</defs>
</svg>
