<svg width="136" height="125" viewBox="0 0 136 125" fill="none" xmlns="http://www.w3.org/2000/svg">
<path d="M70.647 102.055C98.647 102.055 121.347 79.3552 121.347 51.2552C121.347 23.1552 98.647 0.4552 70.647 0.4552C42.647 0.4552 19.947 23.1552 19.947 51.2552C19.947 79.3552 42.647 102.055 70.647 102.055Z" fill="#EAEEF9"/>
<path d="M127.147 35.3552C129.411 35.3552 131.247 33.5195 131.247 31.2551C131.247 28.9908 129.411 27.1552 127.147 27.1552C124.883 27.1552 123.047 28.9908 123.047 31.2551C123.047 33.5195 124.883 35.3552 127.147 35.3552Z" fill="#EAEEF9"/>
<path d="M133.147 19.2552C134.693 19.2552 135.947 18.0015 135.947 16.4552C135.947 14.9088 134.693 13.6552 133.147 13.6552C131.601 13.6552 130.347 14.9088 130.347 16.4552C130.347 18.0015 131.601 19.2552 133.147 19.2552Z" fill="#EAEEF9"/>
<path d="M16.447 38.2551C17.9934 38.2551 19.247 37.0015 19.247 35.4552C19.247 33.9088 17.9934 32.6552 16.447 32.6552C14.9006 32.6552 13.647 33.9088 13.647 35.4552C13.647 37.0015 14.9006 38.2551 16.447 38.2551Z" fill="#EAEEF9"/>
<path d="M88.0469 21.8983C105.31 21.8983 119.235 34.4528 119.235 49.8867C119.235 58.7554 114.631 66.7027 107.381 71.8857V83.5188C107.381 85.1313 105.54 85.9375 104.389 85.0161L94.4916 77.2991C92.4201 77.6447 90.3486 77.875 88.162 77.875C70.8993 77.875 56.9741 65.3206 56.9741 49.8867C56.9741 34.4528 70.8993 21.8983 88.0469 21.8983Z" fill="#CBD4E0"/>
<g filter="url(#filter0_d)">
<path d="M57.5496 20.5161C38.3305 20.5161 22.7941 34.4527 22.7941 51.6143C22.7941 61.5196 27.9729 70.3883 36.0288 76.0321V88.9321C36.0288 90.6597 37.9852 91.6963 39.3662 90.5446L50.4143 82.0214C52.716 82.4821 55.0177 82.7124 57.4345 82.7124C76.6536 82.7124 92.19 68.7758 92.19 51.6143C92.19 34.4527 76.6536 20.5161 57.5496 20.5161Z" fill="url(#paint0_linear)"/>
</g>
<path d="M46.2138 52.8813C48.3113 52.8813 50.0116 51.1796 50.0116 49.0804C50.0116 46.9813 48.3113 45.2795 46.2138 45.2795C44.1163 45.2795 42.416 46.9813 42.416 49.0804C42.416 51.1796 44.1163 52.8813 46.2138 52.8813Z" fill="#989FB0"/>
<path d="M67.7346 52.8813C69.832 52.8813 71.5323 51.1796 71.5323 49.0804C71.5323 46.9813 69.832 45.2795 67.7346 45.2795C65.6371 45.2795 63.9368 46.9813 63.9368 49.0804C63.9368 51.1796 65.6371 52.8813 67.7346 52.8813Z" fill="#989FB0"/>
<path d="M61.7501 64.9751C61.4049 64.9751 61.0596 64.8599 60.8295 64.5143C59.9088 63.2474 58.5278 62.5563 56.9166 62.5563C55.4205 62.5563 53.9244 63.2474 53.1188 64.5143C52.7736 65.0902 52.083 65.2054 51.5076 64.7447C50.9322 64.3992 50.8171 63.7081 51.2775 63.1322C52.5434 61.2894 54.73 60.1376 57.0317 60.1376C59.3334 60.1376 61.4049 61.2894 62.7859 63.1322C63.1312 63.7081 63.0161 64.3992 62.5557 64.7447C62.2105 64.9751 61.9803 64.9751 61.7501 64.9751Z" fill="#989FB0"/>
<path d="M48.9886 17.5931C48.8498 17.5931 48.711 17.5931 48.5723 17.5931C47.8785 17.3153 47.4622 16.6209 47.6009 15.9266L49.9599 8.28841C50.2374 7.59403 50.9312 7.17741 51.625 7.31628C52.3189 7.59403 52.7351 8.28841 52.5964 8.98279L50.3762 16.6209C50.2374 17.1765 49.6824 17.5931 48.9886 17.5931Z" fill="#B5BCCE"/>
<path d="M43.1605 19.2596C42.6055 19.2596 42.0504 18.843 41.7729 18.2875L38.1651 7.31633C37.8875 6.62196 38.3038 5.7887 38.9976 5.51095C39.6914 5.2332 40.524 5.64983 40.8015 6.3442L44.4094 17.3154C44.6869 18.0098 44.2706 18.843 43.5768 19.1208C43.438 19.2596 43.2993 19.2596 43.1605 19.2596Z" fill="#B5BCCE"/>
<path d="M37.7488 21.8983C37.3325 21.8983 37.055 21.7595 36.7775 21.4817L32.3371 17.1766C31.782 16.6211 31.782 15.7878 32.3371 15.2323C32.8921 14.6768 33.7247 14.6768 34.2797 15.2323L38.7201 19.5374C39.2752 20.0929 39.2752 20.9262 38.7201 21.4817C38.4426 21.7595 38.0263 21.8983 37.7488 21.8983Z" fill="#B5BCCE"/>
<defs>
<filter id="filter0_d" x="0.794067" y="9.51611" width="113.396" height="114.515" filterUnits="userSpaceOnUse" color-interpolation-filters="sRGB">
<feFlood flood-opacity="0" result="BackgroundImageFix"/>
<feColorMatrix in="SourceAlpha" type="matrix" values="0 0 0 0 0 0 0 0 0 0 0 0 0 0 0 0 0 0 127 0"/>
<feOffset dy="11"/>
<feGaussianBlur stdDeviation="11"/>
<feColorMatrix type="matrix" values="0 0 0 0 0.397708 0 0 0 0 0.47749 0 0 0 0 0.575 0 0 0 0.27 0"/>
<feBlend mode="normal" in2="BackgroundImageFix" result="effect1_dropShadow"/>
<feBlend mode="normal" in="SourceGraphic" in2="effect1_dropShadow" result="shape"/>
</filter>
<linearGradient id="paint0_linear" x1="57.4694" y1="18.885" x2="57.4694" y2="91.7912" gradientUnits="userSpaceOnUse">
<stop stop-color="#FDFEFF"/>
<stop offset="0.9964" stop-color="#ECF0F5"/>
</linearGradient>
</defs>
</svg>
