<svg width="131" height="122" viewBox="0 0 131 122" fill="none" xmlns="http://www.w3.org/2000/svg">
<path d="M57.7339 101.663C85.7339 101.663 108.434 78.9627 108.434 50.8627C108.434 22.7627 85.7339 0.0627441 57.7339 0.0627441C29.7339 0.0627441 7.03394 22.7627 7.03394 50.8627C7.03394 78.9627 29.7339 101.663 57.7339 101.663Z" fill="#EAEEF9"/>
<path d="M114.234 29.9627C116.498 29.9627 118.334 28.1271 118.334 25.8627C118.334 23.5983 116.498 21.7627 114.234 21.7627C111.97 21.7627 110.134 23.5983 110.134 25.8627C110.134 28.1271 111.97 29.9627 114.234 29.9627Z" fill="#EAEEF9"/>
<path d="M120.234 13.8627C121.78 13.8627 123.034 12.6091 123.034 11.0627C123.034 9.5163 121.78 8.2627 120.234 8.2627C118.688 8.2627 117.434 9.5163 117.434 11.0627C117.434 12.6091 118.688 13.8627 120.234 13.8627Z" fill="#EAEEF9"/>
<path d="M3.63398 32.8627C5.18038 32.8627 6.43398 31.6091 6.43398 30.0627C6.43398 28.5163 5.18038 27.2627 3.63398 27.2627C2.08759 27.2627 0.833984 28.5163 0.833984 30.0627C0.833984 31.6091 2.08759 32.8627 3.63398 32.8627Z" fill="#EAEEF9"/>
<path d="M8.83403 93.7628C11.7059 93.7628 14.034 91.4347 14.034 88.5628C14.034 85.6909 11.7059 83.3628 8.83403 83.3628C5.96215 83.3628 3.63403 85.6909 3.63403 88.5628C3.63403 91.4347 5.96215 93.7628 8.83403 93.7628Z" fill="#EAEEF9"/>
<path d="M89.1341 21.2627V62.9627C89.1341 65.4627 87.0341 67.5627 84.5341 67.5627H15.5341C13.0341 67.5627 10.9341 65.5627 10.9341 62.9627V21.2627C10.9341 18.7627 13.0341 16.6627 15.5341 16.6627H84.5341C87.0341 16.6627 89.1341 18.7627 89.1341 21.2627Z" fill="#D5DDEA"/>
<path opacity="0.3" d="M89.1341 35.1627V62.9627C89.1341 65.4627 87.0341 67.5627 84.5341 67.5627H26.7341V39.7627C26.7341 37.2627 28.7341 35.1627 31.3341 35.1627H89.1341Z" fill="#989FB0"/>
<g filter="url(#filter0_d)">
<path d="M101.434 88.5627H37.334C33.434 88.5627 30.334 85.4627 30.334 81.5627V44.6627C30.334 40.7627 33.434 37.6627 37.334 37.6627H101.434C105.334 37.6627 108.434 40.7627 108.434 44.6627V81.5627C108.434 85.4627 105.334 88.5627 101.434 88.5627Z" fill="url(#paint0_linear)"/>
</g>
<path d="M50.134 77.0627H39.934C39.034 77.0627 38.334 76.3627 38.334 75.4627C38.334 74.5627 39.034 73.8627 39.934 73.8627H50.134C51.034 73.8627 51.734 74.5627 51.734 75.4627C51.734 76.3627 51.034 77.0627 50.134 77.0627Z" fill="#D5DDEA"/>
<path d="M66.634 77.0627H56.434C55.534 77.0627 54.834 76.3627 54.834 75.4627C54.834 74.5627 55.534 73.8627 56.434 73.8627H66.634C67.534 73.8627 68.234 74.5627 68.234 75.4627C68.234 76.3627 67.534 77.0627 66.634 77.0627Z" fill="#D5DDEA"/>
<path d="M83.134 77.0627H72.934C72.034 77.0627 71.334 76.3627 71.334 75.4627C71.334 74.5627 72.034 73.8627 72.934 73.8627H83.134C84.034 73.8627 84.734 74.5627 84.734 75.4627C84.734 76.3627 84.034 77.0627 83.134 77.0627Z" fill="#D5DDEA"/>
<path d="M99.634 77.0627H89.434C88.534 77.0627 87.834 76.3627 87.834 75.4627C87.834 74.5627 88.534 73.8627 89.434 73.8627H99.634C100.534 73.8627 101.234 74.5627 101.234 75.4627C101.234 76.3627 100.534 77.0627 99.634 77.0627Z" fill="#D5DDEA"/>
<path d="M95.9341 57.8627C99.2478 57.8627 101.934 55.1764 101.934 51.8627C101.934 48.549 99.2478 45.8627 95.9341 45.8627C92.6204 45.8627 89.9341 48.549 89.9341 51.8627C89.9341 55.1764 92.6204 57.8627 95.9341 57.8627Z" fill="#989FB0"/>
<path d="M88.0342 57.8627C91.3479 57.8627 94.0342 55.1764 94.0342 51.8627C94.0342 48.549 91.3479 45.8627 88.0342 45.8627C84.7205 45.8627 82.0342 48.549 82.0342 51.8627C82.0342 55.1764 84.7205 57.8627 88.0342 57.8627Z" fill="#D5DDEA"/>
<path d="M89.1342 25.1627H11.0342V34.9627H89.1342V25.1627Z" fill="#989FB0"/>
<path d="M51.034 59.7627H39.834C39.034 59.7627 38.334 59.0627 38.334 58.2627V51.0627C38.334 50.2627 39.034 49.5627 39.834 49.5627H50.934C51.734 49.5627 52.434 50.2627 52.434 51.0627V58.2627C52.534 59.0627 51.834 59.7627 51.034 59.7627Z" fill="#D5DDEA"/>
<defs>
<filter id="filter0_d" x="8.33398" y="26.6627" width="122.1" height="94.9" filterUnits="userSpaceOnUse" color-interpolation-filters="sRGB">
<feFlood flood-opacity="0" result="BackgroundImageFix"/>
<feColorMatrix in="SourceAlpha" type="matrix" values="0 0 0 0 0 0 0 0 0 0 0 0 0 0 0 0 0 0 127 0"/>
<feOffset dy="11"/>
<feGaussianBlur stdDeviation="11"/>
<feColorMatrix type="matrix" values="0 0 0 0 0.397708 0 0 0 0 0.47749 0 0 0 0 0.575 0 0 0 0.27 0"/>
<feBlend mode="normal" in2="BackgroundImageFix" result="effect1_dropShadow"/>
<feBlend mode="normal" in="SourceGraphic" in2="effect1_dropShadow" result="shape"/>
</filter>
<linearGradient id="paint0_linear" x1="69.3585" y1="36.4854" x2="69.3585" y2="89.1115" gradientUnits="userSpaceOnUse">
<stop stop-color="#FDFEFF"/>
<stop offset="0.9964" stop-color="#ECF0F5"/>
</linearGradient>
</defs>
</svg>
