<svg width="143" height="116" viewBox="0 0 143 116" fill="none" xmlns="http://www.w3.org/2000/svg">
<path d="M71.7691 101.663C99.7691 101.663 122.469 78.9627 122.469 50.8627C122.469 22.7627 99.7691 0.0627441 71.7691 0.0627441C43.7691 0.0627441 21.0691 22.7627 21.0691 50.8627C21.0691 78.9627 43.7691 101.663 71.7691 101.663Z" fill="#EAEEF9"/>
<path d="M128.269 29.9627C130.534 29.9627 132.369 28.1271 132.369 25.8627C132.369 23.5983 130.534 21.7627 128.269 21.7627C126.005 21.7627 124.169 23.5983 124.169 25.8627C124.169 28.1271 126.005 29.9627 128.269 29.9627Z" fill="#EAEEF9"/>
<path d="M134.269 13.8627C135.816 13.8627 137.069 12.6091 137.069 11.0627C137.069 9.5163 135.816 8.2627 134.269 8.2627C132.723 8.2627 131.469 9.5163 131.469 11.0627C131.469 12.6091 132.723 13.8627 134.269 13.8627Z" fill="#EAEEF9"/>
<path d="M17.6691 32.8627C19.2155 32.8627 20.4691 31.6091 20.4691 30.0627C20.4691 28.5163 19.2155 27.2627 17.6691 27.2627C16.1227 27.2627 14.8691 28.5163 14.8691 30.0627C14.8691 31.6091 16.1227 32.8627 17.6691 32.8627Z" fill="#EAEEF9"/>
<path d="M22.8692 93.7628C25.7411 93.7628 28.0692 91.4347 28.0692 88.5628C28.0692 85.6909 25.7411 83.3628 22.8692 83.3628C19.9973 83.3628 17.6692 85.6909 17.6692 88.5628C17.6692 91.4347 19.9973 93.7628 22.8692 93.7628Z" fill="#EAEEF9"/>
<g filter="url(#filter0_d)">
<path d="M112.086 82.9321H31.6528C26.759 82.9321 22.8691 79.0423 22.8691 74.1485V27.8464C22.8691 22.9526 26.759 19.0627 31.6528 19.0627H112.086C116.979 19.0627 120.869 22.9526 120.869 27.8464V74.1485C120.869 79.0423 116.979 82.9321 112.086 82.9321Z" fill="url(#paint0_linear)"/>
</g>
<path d="M47.7142 68.5019H34.9153C33.786 68.5019 32.9076 67.6236 32.9076 66.4943C32.9076 65.3649 33.786 64.4866 34.9153 64.4866H47.7142C48.8436 64.4866 49.7219 65.3649 49.7219 66.4943C49.7219 67.6236 48.8436 68.5019 47.7142 68.5019Z" fill="#D5DDEA"/>
<path d="M68.4185 68.5019H55.6195C54.4902 68.5019 53.6118 67.6236 53.6118 66.4943C53.6118 65.3649 54.4902 64.4866 55.6195 64.4866H68.4185C69.5478 64.4866 70.4262 65.3649 70.4262 66.4943C70.4262 67.6236 69.5478 68.5019 68.4185 68.5019Z" fill="#D5DDEA"/>
<path d="M89.1227 68.5019H76.3237C75.1944 68.5019 74.316 67.6236 74.316 66.4943C74.316 65.3649 75.1944 64.4866 76.3237 64.4866H89.1227C90.252 64.4866 91.1304 65.3649 91.1304 66.4943C91.1304 67.6236 90.252 68.5019 89.1227 68.5019Z" fill="#D5DDEA"/>
<path d="M109.827 68.5019H97.0279C95.8986 68.5019 95.0203 67.6236 95.0203 66.4943C95.0203 65.3649 95.8986 64.4866 97.0279 64.4866H109.827C110.956 64.4866 111.835 65.3649 111.835 66.4943C111.835 67.6236 110.956 68.5019 109.827 68.5019Z" fill="#D5DDEA"/>
<path d="M105.184 44.4098C109.342 44.4098 112.713 41.039 112.713 36.881C112.713 32.7229 109.342 29.3522 105.184 29.3522C101.026 29.3522 97.6553 32.7229 97.6553 36.881C97.6553 41.039 101.026 44.4098 105.184 44.4098Z" fill="#989FB0"/>
<path d="M95.2711 44.4098C99.4292 44.4098 102.8 41.039 102.8 36.881C102.8 32.7229 99.4292 29.3522 95.2711 29.3522C91.1131 29.3522 87.7423 32.7229 87.7423 36.881C87.7423 41.039 91.1131 44.4098 95.2711 44.4098Z" fill="#D5DDEA"/>
<path d="M48.8436 46.7938H34.7898C33.786 46.7938 32.9076 45.9155 32.9076 44.9116V35.8771C32.9076 34.8732 33.786 33.9949 34.7898 33.9949H48.7181C49.7219 33.9949 50.6003 34.8732 50.6003 35.8771V44.9116C50.7258 45.9155 49.8474 46.7938 48.8436 46.7938Z" fill="#D5DDEA"/>
<path d="M96.7912 85.4968L113.129 59.6397C114.907 57.2135 118.63 57.2135 120.408 59.6397L136.746 85.4968C138.468 87.8152 136.746 91.1039 133.801 91.1039H99.792C96.7912 91.05 95.0685 87.8152 96.7912 85.4968Z" fill="url(#paint1_linear)"/>
<path d="M116.769 66.2594C115.212 66.2594 114.001 67.6279 114.117 69.2345L114.982 78.8738C115.039 79.8258 115.846 80.5994 116.769 80.5994C117.692 80.5994 118.499 79.8258 118.556 78.8738L119.421 69.2345C119.537 67.5684 118.326 66.2594 116.769 66.2594Z" fill="white"/>
<path d="M116.769 82.3844C115.616 82.3844 114.693 83.3364 114.693 84.5265C114.693 85.7165 115.616 86.6685 116.769 86.6685C117.922 86.6685 118.845 85.7165 118.845 84.5265C118.845 83.3364 117.922 82.3844 116.769 82.3844Z" fill="white"/>
<defs>
<filter id="filter0_d" x="0.869141" y="8.06274" width="142" height="107.869" filterUnits="userSpaceOnUse" color-interpolation-filters="sRGB">
<feFlood flood-opacity="0" result="BackgroundImageFix"/>
<feColorMatrix in="SourceAlpha" type="matrix" values="0 0 0 0 0 0 0 0 0 0 0 0 0 0 0 0 0 0 127 0"/>
<feOffset dy="11"/>
<feGaussianBlur stdDeviation="11"/>
<feColorMatrix type="matrix" values="0 0 0 0 0.397708 0 0 0 0 0.47749 0 0 0 0 0.575 0 0 0 0.27 0"/>
<feBlend mode="normal" in2="BackgroundImageFix" result="effect1_dropShadow"/>
<feBlend mode="normal" in="SourceGraphic" in2="effect1_dropShadow" result="shape"/>
</filter>
<linearGradient id="paint0_linear" x1="71.8372" y1="17.5854" x2="71.8372" y2="83.6207" gradientUnits="userSpaceOnUse">
<stop stop-color="#FDFEFF"/>
<stop offset="0.9964" stop-color="#ECF0F5"/>
</linearGradient>
<linearGradient id="paint1_linear" x1="96.0876" y1="75.3371" x2="137.439" y2="75.3371" gradientUnits="userSpaceOnUse">
<stop stop-color="#B0BACC"/>
<stop offset="1" stop-color="#969EAE"/>
</linearGradient>
</defs>
</svg>
