<svg width="176" height="137" viewBox="0 0 176 137" fill="none" xmlns="http://www.w3.org/2000/svg">
<path d="M85.0223 105.805C113.022 105.805 135.722 83.1047 135.722 55.0047C135.722 26.9047 112.922 4.20471 85.0223 4.20471C57.0223 4.20471 34.3223 26.9047 34.3223 55.0047C34.3223 83.1047 57.0223 105.805 85.0223 105.805Z" fill="#EAEEF9"/>
<path d="M132.022 21.8047C134.287 21.8047 136.122 19.9691 136.122 17.7047C136.122 15.4404 134.287 13.6047 132.022 13.6047C129.758 13.6047 127.922 15.4404 127.922 17.7047C127.922 19.9691 129.758 21.8047 132.022 21.8047Z" fill="#EAEEF9"/>
<path d="M138.022 5.80471C139.569 5.80471 140.822 4.55111 140.822 3.00471C140.822 1.45831 139.569 0.204712 138.022 0.204712C136.476 0.204712 135.222 1.45831 135.222 3.00471C135.222 4.55111 136.476 5.80471 138.022 5.80471Z" fill="#EAEEF9"/>
<path d="M36.6223 21.7047C38.1687 21.7047 39.4223 20.4511 39.4223 18.9047C39.4223 17.3583 38.1687 16.1047 36.6223 16.1047C35.0759 16.1047 33.8223 17.3583 33.8223 18.9047C33.8223 20.4511 35.0759 21.7047 36.6223 21.7047Z" fill="#EAEEF9"/>
<path d="M19.5223 75.7047C22.3941 75.7047 24.7223 73.3766 24.7223 70.5047C24.7223 67.6328 22.3941 65.3047 19.5223 65.3047C16.6504 65.3047 14.3223 67.6328 14.3223 70.5047C14.3223 73.3766 16.6504 75.7047 19.5223 75.7047Z" fill="#EAEEF9"/>
<path d="M111.354 40.9243C110.807 43.2924 109.987 45.5695 108.985 47.6644C106.344 52.5829 102.427 56.5905 97.5089 59.0498C92.4083 61.6912 86.3968 62.602 80.2942 61.4179C66.0853 58.4122 56.8859 44.5676 59.8917 30.2676C62.8974 15.9675 76.6509 6.76817 90.9509 9.77391C96.0516 10.8669 100.515 13.3261 104.249 16.8784C110.443 23.2542 113.084 32.2714 111.354 40.9243Z" fill="url(#paint0_linear)"/>
<g filter="url(#filter0_d)">
<path d="M79.5036 74.8375C79.3827 74.8375 79.3827 74.9585 79.2617 74.9585L68.0124 80.1598C67.0447 80.6436 65.956 80.1598 65.4722 79.1921C64.9883 78.2244 65.4722 77.1358 66.4399 76.6519L74.1814 73.1441L71.7621 72.2973L75.6329 61.2899L67.1656 56.6934L69.9477 45.686L58.3355 43.0248L62.2062 33.9528L59.908 31.5336L27.2486 46.5327C23.015 48.4681 21.0796 53.5484 23.1359 57.7821L41.522 98.183C43.4573 102.417 48.5377 104.352 52.7713 102.296L85.0678 87.5384L87.0032 77.2567L79.5036 74.8375Z" fill="url(#paint1_linear)"/>
</g>
<path d="M65.4722 79.1921C65.956 80.1598 67.0447 80.6436 68.0123 80.1598L79.2617 74.9584C79.3827 74.9584 79.3827 74.8375 79.5036 74.8375L74.1813 73.0231L66.4398 76.5309C65.4722 77.1357 64.9883 78.2244 65.4722 79.1921Z" fill="#D5DDEA"/>
<path d="M61.1176 83.3047L49.8683 88.506C48.9006 88.9899 47.812 88.506 47.3281 87.5384C46.8443 86.5707 47.3281 85.482 48.2958 84.9982L59.5452 79.7969C60.5128 79.313 61.6015 79.7969 62.0853 80.7646C62.5692 81.7322 62.0853 82.8209 61.1176 83.3047Z" fill="#D5DDEA"/>
<g filter="url(#filter1_d)">
<path d="M145.678 91.8848L153.632 48.0099C154.488 43.3456 151.399 38.9513 146.79 38.2022L105.846 30.9125L106.379 34.3136L98.0646 39.5658L106.136 48.3289L97.4175 55.6965L101.699 64.2404L92.1619 71.0781L93.7583 73.1122L97.5001 73.7648C98.53 73.9132 99.193 74.9321 99.0447 75.962C98.8408 76.8845 97.9849 77.5994 97.1179 77.5029L101.911 83.8759L94.4892 91.1177L135.815 98.6186C140.48 99.4751 144.929 96.4934 145.678 91.8848Z" fill="url(#paint2_linear)"/>
</g>
<path d="M116.59 81.1884L104.442 79.0267C103.412 78.8783 102.749 77.8594 102.898 76.8295C103.046 75.7996 104.065 75.1366 105.095 75.2849L117.243 77.4466C118.272 77.5949 118.935 78.6139 118.787 79.6438C118.639 80.6737 117.62 81.3367 116.59 81.1884Z" fill="#D5DDEA"/>
<path d="M136.221 84.6553L124.073 82.4936C123.044 82.3452 122.38 81.3263 122.529 80.2964C122.677 79.2665 123.696 78.6035 124.726 78.7518L136.874 80.9135C137.904 81.0619 138.567 82.0808 138.418 83.1107C138.27 84.1406 137.307 84.9111 136.221 84.6553Z" fill="#D5DDEA"/>
<path d="M144.289 55.1361C144.997 51.1908 142.372 47.4184 138.427 46.7103C134.482 46.0022 130.709 48.6266 130.001 52.5719C129.293 56.5172 131.918 60.2896 135.863 60.9977C139.808 61.7058 143.581 59.0815 144.289 55.1361Z" fill="#989FB0"/>
<path d="M134.872 53.4343C135.58 49.489 132.956 45.7166 129.01 45.0085C125.065 44.3005 121.293 46.9248 120.585 50.8701C119.877 54.8155 122.501 58.5878 126.446 59.2959C130.392 60.004 134.164 57.3797 134.872 53.4343Z" fill="#D5DDEA"/>
<path d="M99.1002 76.0695C99.2485 75.0396 98.5855 74.0207 97.5556 73.8723L93.8138 73.2197L97.229 77.7179C98.1478 77.6513 99.0593 77.0439 99.1002 76.0695Z" fill="#D5DDEA"/>
<path d="M86.1007 20.5901C83.6415 20.5901 81.7288 22.685 81.9109 25.1442L83.2772 39.8997C83.3683 41.357 84.6434 42.5411 86.1007 42.5411C87.5581 42.5411 88.8332 41.357 88.9243 39.8997L90.2906 25.1442C90.4727 22.5939 88.56 20.5901 86.1007 20.5901Z" fill="white"/>
<path d="M86.1008 45.2736C84.2791 45.2736 82.8218 46.7309 82.8218 48.5525C82.8218 50.3742 84.2791 51.8315 86.1008 51.8315C87.9224 51.8315 89.3797 50.3742 89.3797 48.5525C89.3797 46.7309 87.9224 45.2736 86.1008 45.2736Z" fill="white"/>
<path d="M157.322 43.6026L166.576 40.4672" stroke="#989FB0" stroke-width="2" stroke-miterlimit="10"/>
<path d="M155.181 36.7694L164.735 25.3645" stroke="#989FB0" stroke-width="2" stroke-miterlimit="10"/>
<path d="M149.753 33.6422L150.983 25.2047" stroke="#989FB0" stroke-width="2" stroke-miterlimit="10"/>
<path d="M22.652 43.5087L18.7812 34.5576" stroke="#989FB0" stroke-width="2" stroke-miterlimit="10"/>
<path d="M18.4183 47.7423L6.32227 39.1541" stroke="#989FB0" stroke-width="2" stroke-miterlimit="10"/>
<path d="M15.8783 53.4274L7.29004 52.9436" stroke="#989FB0" stroke-width="2" stroke-miterlimit="10"/>
<path d="M51.8154 63.514L40.9554 68.319C40.1797 68.6622 39.1455 68.1593 38.7394 67.2413L35.0838 58.9793C34.6777 58.0613 35.001 56.9577 35.7767 56.6145L46.5398 51.8524C47.3155 51.5092 48.3497 52.0121 48.7559 52.9301L52.4114 61.1921C52.9145 62.0672 52.5912 63.1708 51.8154 63.514Z" fill="#D5DDEA"/>
<defs>
<filter id="filter0_d" x="0.309814" y="20.5336" width="108.693" height="115.588" filterUnits="userSpaceOnUse" color-interpolation-filters="sRGB">
<feFlood flood-opacity="0" result="BackgroundImageFix"/>
<feColorMatrix in="SourceAlpha" type="matrix" values="0 0 0 0 0 0 0 0 0 0 0 0 0 0 0 0 0 0 127 0"/>
<feOffset dy="11"/>
<feGaussianBlur stdDeviation="11"/>
<feColorMatrix type="matrix" values="0 0 0 0 0.397708 0 0 0 0 0.47749 0 0 0 0 0.575 0 0 0 0.27 0"/>
<feBlend mode="normal" in2="BackgroundImageFix" result="effect1_dropShadow"/>
<feBlend mode="normal" in="SourceGraphic" in2="effect1_dropShadow" result="shape"/>
</filter>
<filter id="filter1_d" x="70.1619" y="19.9125" width="105.613" height="111.853" filterUnits="userSpaceOnUse" color-interpolation-filters="sRGB">
<feFlood flood-opacity="0" result="BackgroundImageFix"/>
<feColorMatrix in="SourceAlpha" type="matrix" values="0 0 0 0 0 0 0 0 0 0 0 0 0 0 0 0 0 0 127 0"/>
<feOffset dy="11"/>
<feGaussianBlur stdDeviation="11"/>
<feColorMatrix type="matrix" values="0 0 0 0 0.397708 0 0 0 0 0.47749 0 0 0 0 0.575 0 0 0 0.27 0"/>
<feBlend mode="normal" in2="BackgroundImageFix" result="effect1_dropShadow"/>
<feBlend mode="normal" in="SourceGraphic" in2="effect1_dropShadow" result="shape"/>
</filter>
<linearGradient id="paint0_linear" x1="59.2925" y1="35.5594" x2="111.857" y2="35.5594" gradientUnits="userSpaceOnUse">
<stop stop-color="#B0BACC"/>
<stop offset="1" stop-color="#969EAE"/>
</linearGradient>
<linearGradient id="paint1_linear" x1="54.6354" y1="29.8777" x2="54.6354" y2="103.893" gradientUnits="userSpaceOnUse">
<stop stop-color="#FDFEFF"/>
<stop offset="0.9964" stop-color="#ECF0F5"/>
</linearGradient>
<linearGradient id="paint2_linear" x1="104.415" y1="29.6804" x2="140.379" y2="99.2365" gradientUnits="userSpaceOnUse">
<stop stop-color="#FDFEFF"/>
<stop offset="0.9964" stop-color="#ECF0F5"/>
</linearGradient>
</defs>
</svg>
