<svg width="195" height="163" viewBox="0 0 195 163" fill="none" xmlns="http://www.w3.org/2000/svg">
<path d="M98.0636 137.872C127.764 137.872 151.964 113.772 151.964 84.172C151.964 54.472 127.864 30.472 98.0636 30.472C68.2636 30.372 44.1636 54.372 44.1636 84.072C44.1636 113.772 68.2636 137.872 98.0636 137.872Z" fill="#EAEEF9"/>
<path d="M88.5635 65.3721L87.1635 61.4721C86.8635 60.4721 85.8635 59.8721 84.8635 59.8721H60.2635C58.1635 59.8721 56.5635 61.4721 56.5635 63.5721V118.672V109.572H140.563V70.6721C140.563 68.5721 138.963 66.9721 136.863 66.9721H90.8635C89.8635 66.9721 88.9635 66.3721 88.5635 65.3721Z" fill="url(#paint0_linear)"/>
<g filter="url(#filter0_d)">
<path d="M58.9635 33.5723L75.7635 62.7723C76.2635 63.7723 75.9635 65.0723 74.9635 65.5723L46.3635 81.5723C45.3635 82.0723 44.0635 81.7723 43.5635 80.7723L22.4635 42.9723C21.7635 41.9723 22.2635 40.6723 23.2635 40.1723L44.0635 28.5723L58.9635 33.5723Z" fill="white"/>
</g>
<path d="M43.8635 36.6723L30.0635 44.3723C29.7635 44.5723 29.2635 44.4723 29.1635 44.0723C28.9635 43.7723 29.0635 43.2723 29.3635 43.1723L43.1635 35.5723C43.4635 35.3723 43.9635 35.4723 44.0635 35.7723C44.2635 36.0723 44.1635 36.5723 43.8635 36.6723Z" fill="#D5DDEA"/>
<path d="M37.1635 44.7722L31.8635 47.6722C31.5635 47.8722 31.1635 47.7722 31.0635 47.4722C30.8635 47.1722 30.9635 46.6722 31.2635 46.5722L36.4635 43.6722C36.7635 43.4722 37.2635 43.5722 37.3635 43.8722C37.6635 44.0722 37.5635 44.5722 37.1635 44.7722Z" fill="#D5DDEA"/>
<path d="M44.0635 28.5723L48.6635 36.6723C49.3635 37.7723 50.8635 38.1723 51.9635 37.5723L59.2635 33.5723" fill="#D5DDEA"/>
<path d="M60.6635 51.3724C59.7635 49.5724 58.5635 47.4724 57.0635 45.9724C56.2635 45.1724 55.2635 44.6724 54.0635 44.6724C52.8635 44.6724 51.7635 45.0724 50.5635 45.6724C48.4635 46.5724 46.5635 47.4724 44.6635 48.6724C42.9635 49.6724 40.9635 50.7724 39.6635 52.3724C37.9635 54.6724 38.8635 56.9724 40.0635 59.3724C40.9635 61.1724 42.1635 63.2724 43.6635 64.7724C44.8635 65.9724 46.4635 66.3724 48.0635 65.8724C50.1635 65.3724 54.0635 63.1724 55.8635 62.0724C57.4635 61.0724 59.3635 60.1724 60.5635 58.6724C62.8635 56.3724 62.0635 53.9724 60.6635 51.3724ZM46.6635 53.8724C46.3635 53.2724 46.5635 52.7724 47.3635 52.8724C49.4635 52.9724 51.4635 52.9724 53.4635 53.0724C54.2635 53.0724 54.4635 53.4724 54.1635 54.1724C53.1635 55.8724 52.1635 57.6724 51.1635 59.4724C50.7635 60.0724 50.2635 60.0724 49.9635 59.5724C49.6635 59.2724 46.9635 54.3724 46.6635 53.8724Z" fill="#D5DDEA"/>
<path d="M122.564 84.5722L121.664 83.9722C121.464 83.7722 121.464 83.5722 121.664 83.3722C121.864 83.1722 122.064 83.1722 122.364 83.2722L123.264 83.8722C123.464 83.9722 123.464 84.2722 123.364 84.4722C123.064 84.6722 122.764 84.6722 122.564 84.5722Z" fill="#E3EAF2"/>
<path d="M120.164 82.6722L115.064 78.6722C114.864 78.5722 114.864 78.2722 114.964 78.0722C115.064 77.8722 115.364 77.8722 115.664 77.9722L120.764 81.9722C120.964 82.0722 120.964 82.3722 120.864 82.5722C120.664 82.7722 120.364 82.8722 120.164 82.6722Z" fill="#E3EAF2"/>
<g filter="url(#filter1_d)">
<path d="M172.063 56.9721L152.963 81.6721C152.363 82.5721 151.163 82.6721 150.263 81.9721L126.463 63.2721C125.563 62.6721 125.463 61.4721 126.163 60.5721L150.963 29.0721C151.563 28.1721 152.763 28.0721 153.663 28.7721L170.963 42.3721L172.063 56.9721Z" fill="white"/>
</g>
<path d="M163.964 45.0722L152.464 36.0722C152.264 35.8722 152.164 35.5722 152.364 35.1722C152.564 34.9722 152.864 34.8722 153.264 35.0722L164.764 44.0722C164.964 44.2722 165.064 44.5722 164.864 44.9722C164.564 45.2722 164.264 45.2722 163.964 45.0722Z" fill="#D5DDEA"/>
<path d="M154.764 42.2722L150.464 38.7722C150.264 38.5722 150.164 38.2722 150.364 37.8722C150.564 37.5722 150.864 37.5722 151.264 37.7722L155.564 41.2722C155.764 41.4722 155.864 41.7722 155.664 42.1722C155.364 42.4722 154.964 42.4722 154.764 42.2722Z" fill="#D5DDEA"/>
<path d="M170.963 42.3721L165.663 49.0721C164.863 50.0721 165.163 51.4721 166.063 52.1721L172.163 56.9721" fill="#D5DDEA"/>
<path d="M164.663 58.4722L158.663 53.8722L152.463 48.9722L146.763 44.4722C146.163 43.9722 145.163 44.0722 144.663 44.7722L136.463 55.1722C135.963 55.7722 136.063 56.7722 136.663 57.2722L154.663 71.4722C155.263 71.9722 156.263 71.8722 156.763 71.1722L164.963 60.7722C165.463 59.8722 165.363 59.0722 164.663 58.4722ZM145.663 58.3722L147.463 55.9722L152.963 60.2722L151.163 62.6722L145.663 58.3722ZM150.663 63.3722L148.963 65.5722L143.463 61.2722L145.163 59.0722L150.663 63.3722ZM155.363 57.2722L153.563 59.6722L148.063 55.3722L149.863 52.9722L155.363 57.2722ZM150.363 52.2722L152.363 49.8722L157.863 54.1722L156.063 56.5722L150.363 52.2722ZM160.363 64.9722L154.263 60.1722L156.063 57.7722L162.163 62.5722L160.363 64.9722ZM147.363 54.7722L141.463 50.1722L143.263 47.7722L149.163 52.3722L147.363 54.7722ZM140.863 50.8722L146.763 55.4722L144.963 57.8722L139.063 53.2722L140.863 50.8722ZM153.763 60.8722L159.863 65.6722L158.063 68.0722L151.963 63.2722L153.763 60.8722ZM164.263 60.0722L162.763 61.9722L156.663 57.1722L158.463 54.7722L164.063 59.1722C164.463 59.3722 164.463 59.7722 164.263 60.0722ZM146.163 44.9722L151.563 49.2722L149.763 51.6722L143.863 47.0722L145.363 45.1722C145.563 44.8722 145.963 44.8722 146.163 44.9722ZM137.163 55.5722L138.463 53.9722L144.363 58.5722L142.663 60.7722L137.163 56.4722C136.963 56.2722 136.963 55.7722 137.163 55.5722ZM155.263 70.4722L149.663 66.0722L151.363 63.8722L157.463 68.6722L156.063 70.3722C155.863 70.7722 155.463 70.7722 155.263 70.4722Z" fill="#D5DDEA"/>
<path d="M115.464 80.772L109.764 80.172C109.464 80.172 109.264 79.872 109.364 79.572C109.364 79.272 109.664 79.072 110.064 79.172L115.764 79.772C116.064 79.772 116.264 80.072 116.164 80.372C116.064 80.672 115.764 80.972 115.464 80.772Z" fill="url(#paint1_linear)"/>
<path d="M142.264 86.1721L136.064 113.872C135.664 115.472 133.764 116.772 131.364 116.772H64.0635C61.7635 116.772 59.7635 115.572 59.3635 113.872L54.2635 91.1721C53.8635 89.4721 55.7635 87.8721 58.1635 87.8721H96.1635C97.3635 87.8721 98.2635 87.2721 98.6635 86.5721L99.7635 84.1721C100.164 83.3721 101.164 82.8721 102.264 82.8721H138.464C140.764 82.8721 142.564 84.4721 142.264 86.1721Z" fill="white"/>
<g filter="url(#filter2_d)">
<path d="M147.164 82.4723L140.264 124.972C139.864 127.472 137.664 129.372 135.064 129.372H60.0636C57.4636 129.372 55.2636 127.572 54.8636 124.972L49.1636 90.0723C48.7636 87.4723 50.7636 84.9723 53.4636 84.9723H95.7636C97.0636 84.9723 98.1636 84.0723 98.5636 82.8723L99.7636 79.1723C100.164 77.9723 101.264 77.0723 102.564 77.0723H142.864C145.464 77.3723 147.564 79.7723 147.164 82.4723Z" fill="url(#paint2_linear)"/>
</g>
<g filter="url(#filter3_d)">
<path d="M124.364 26.8722L121.164 61.5722C121.064 62.7722 119.964 63.6722 118.764 63.4722L84.9635 59.9722C83.7635 59.8722 82.8635 58.7722 82.9635 57.5722L87.5635 13.0722C87.6635 11.8722 88.7635 10.9722 89.9635 11.1722L114.464 13.6722L124.364 26.8722Z" fill="white"/>
</g>
<path d="M114.564 13.7722L113.564 23.2722C113.464 24.5722 114.464 25.8722 115.864 25.9722L124.464 26.8722" fill="#D5DDEA"/>
<path d="M117.764 52.1722L90.0635 49.0722C89.3635 48.9722 88.8635 48.4722 88.9635 47.7722L91.0635 30.0722C91.1635 29.4722 91.7635 28.8722 92.3635 28.9722L120.064 31.9722C120.764 32.0722 121.264 32.5722 121.164 33.2722L119.064 50.9722C118.964 51.6722 118.364 52.1722 117.764 52.1722Z" fill="#ECF0F8"/>
<path d="M105.263 47.8721L92.4635 46.3721L99.6635 39.8721L105.263 47.8721Z" fill="#D5DDEA"/>
<path d="M115.864 49.072L97.3635 46.872L107.864 37.572L115.864 49.072Z" fill="white"/>
<path d="M98.6635 37.072C100.063 37.072 101.163 35.972 101.163 34.572C101.163 33.172 100.063 32.072 98.6635 32.072C97.2635 32.072 96.1635 33.172 96.1635 34.572C96.1635 35.972 97.2635 37.072 98.6635 37.072Z" fill="#D5DDEA"/>
<path d="M109.364 19.5722L92.5635 17.6722C92.3635 17.6722 92.1635 17.4722 92.2635 17.2722V17.0722C92.2635 16.8722 92.4635 16.6722 92.6635 16.7722L109.464 18.6722C109.664 18.6722 109.864 18.8722 109.764 19.0722V19.2722C109.864 19.4722 109.664 19.6722 109.364 19.5722Z" fill="#D5DDEA"/>
<path d="M109.263 22.7722L92.2635 20.8722C92.0635 20.8722 91.8635 20.6722 91.9635 20.4722V20.2722C91.9635 20.0722 92.1635 19.8722 92.3635 19.9722L109.363 21.8722C109.563 21.8722 109.763 22.0722 109.663 22.2722V22.4722C109.763 22.5722 109.463 22.7722 109.263 22.7722Z" fill="#D5DDEA"/>
<path d="M109.864 55.4722L88.7635 53.0722C88.4635 53.0722 88.2635 52.7722 88.3635 52.4722C88.3635 52.1722 88.6635 51.9722 89.0635 52.0722L110.064 54.4722C110.364 54.4722 110.564 54.7722 110.464 55.0722C110.364 55.3722 110.164 55.5722 109.864 55.4722Z" fill="#D5DDEA"/>
<path d="M106.763 25.7722L91.9635 24.0722C91.6635 24.0722 91.4635 23.7722 91.5635 23.4722C91.5635 23.1722 91.8635 22.9722 92.2635 23.0722L107.063 24.7722C107.363 24.7722 107.563 25.0722 107.463 25.3722C107.363 25.5722 107.163 25.7722 106.763 25.7722Z" fill="#D5DDEA"/>
<path d="M117.664 59.5722L88.2635 56.0722C87.9635 56.0722 87.7635 55.7722 87.8635 55.4722C87.8635 55.1722 88.1635 54.9722 88.5635 55.0722L117.964 58.4722C118.264 58.4722 118.464 58.7722 118.364 59.0722C118.264 59.3722 117.964 59.5722 117.664 59.5722Z" fill="#D5DDEA"/>
<path d="M87.1635 6.57211C86.7635 6.77211 86.2635 6.57211 86.0635 6.17211L84.2635 1.67211C84.0635 1.27211 84.2635 0.772113 84.6635 0.572113C85.0635 0.372113 85.5635 0.572113 85.7635 0.972113L87.5635 5.47211C87.8635 6.07211 87.6635 6.47211 87.1635 6.57211Z" fill="#D5DDEA"/>
<path d="M83.8635 10.9721C83.6635 11.1721 83.4635 11.2721 83.0635 11.1721L78.3635 10.2721C77.9635 10.1721 77.5635 9.77209 77.6635 9.27209C77.7635 8.87209 78.1635 8.47209 78.6635 8.67209L83.3635 9.57209C83.7635 9.67209 84.1635 10.0721 84.0635 10.5721C83.9635 10.6721 83.9635 10.8721 83.8635 10.9721Z" fill="#D5DDEA"/>
<path d="M93.3635 6.07206C93.2635 6.07206 93.1635 5.97206 92.9635 5.97206C92.6635 5.67206 92.5635 5.17206 92.8635 4.77206L95.7635 0.972057C96.0635 0.672057 96.5635 0.572057 96.9635 0.872057C97.2635 1.17206 97.3635 1.67206 97.0635 2.07206L94.1635 5.87206C93.8635 5.97206 93.5635 6.07206 93.3635 6.07206Z" fill="#D5DDEA"/>
<path d="M118.264 122.672C117.864 124.372 117.264 126.172 116.564 127.672C114.664 131.372 111.664 134.272 107.964 136.172C104.164 138.072 99.6635 138.872 95.1635 137.872C84.5635 135.672 77.7635 125.272 79.9635 114.672C82.1635 104.072 92.4635 97.1722 103.064 99.4722C106.864 100.272 110.164 102.172 112.964 104.772C117.664 109.472 119.664 116.272 118.264 122.672Z" fill="url(#paint3_linear)"/>
<path d="M105.364 116.972H100.864V112.472C100.864 111.572 100.164 110.772 99.1636 110.772C98.2636 110.772 97.4636 111.472 97.4636 112.472V116.972H92.9636C92.0636 116.972 91.2635 117.672 91.2635 118.672C91.2635 119.672 91.9636 120.372 92.9636 120.372H97.4636V124.872C97.4636 125.772 98.1636 126.572 99.1636 126.572C100.064 126.572 100.864 125.872 100.864 124.872V120.372H105.364C106.264 120.372 107.064 119.672 107.064 118.672C107.064 117.672 106.264 116.972 105.364 116.972Z" fill="white"/>
<defs>
<filter id="filter0_d" x="0.137207" y="17.5723" width="97.8638" height="97.2375" filterUnits="userSpaceOnUse" color-interpolation-filters="sRGB">
<feFlood flood-opacity="0" result="BackgroundImageFix"/>
<feColorMatrix in="SourceAlpha" type="matrix" values="0 0 0 0 0 0 0 0 0 0 0 0 0 0 0 0 0 0 127 0"/>
<feOffset dy="11"/>
<feGaussianBlur stdDeviation="11"/>
<feColorMatrix type="matrix" values="0 0 0 0 0.397708 0 0 0 0 0.47749 0 0 0 0 0.575 0 0 0 0.27 0"/>
<feBlend mode="normal" in2="BackgroundImageFix" result="effect1_dropShadow"/>
<feBlend mode="normal" in="SourceGraphic" in2="effect1_dropShadow" result="shape"/>
</filter>
<filter id="filter1_d" x="103.704" y="17.3127" width="90.3594" height="98.1187" filterUnits="userSpaceOnUse" color-interpolation-filters="sRGB">
<feFlood flood-opacity="0" result="BackgroundImageFix"/>
<feColorMatrix in="SourceAlpha" type="matrix" values="0 0 0 0 0 0 0 0 0 0 0 0 0 0 0 0 0 0 127 0"/>
<feOffset dy="11"/>
<feGaussianBlur stdDeviation="11"/>
<feColorMatrix type="matrix" values="0 0 0 0 0.397708 0 0 0 0 0.47749 0 0 0 0 0.575 0 0 0 0.27 0"/>
<feBlend mode="normal" in2="BackgroundImageFix" result="effect1_dropShadow"/>
<feBlend mode="normal" in="SourceGraphic" in2="effect1_dropShadow" result="shape"/>
</filter>
<filter id="filter2_d" x="27.1125" y="66.0723" width="142.1" height="96.3" filterUnits="userSpaceOnUse" color-interpolation-filters="sRGB">
<feFlood flood-opacity="0" result="BackgroundImageFix"/>
<feColorMatrix in="SourceAlpha" type="matrix" values="0 0 0 0 0 0 0 0 0 0 0 0 0 0 0 0 0 0 127 0"/>
<feOffset dy="11"/>
<feGaussianBlur stdDeviation="11"/>
<feColorMatrix type="matrix" values="0 0 0 0 0.397708 0 0 0 0 0.47749 0 0 0 0 0.575 0 0 0 0.27 0"/>
<feBlend mode="normal" in2="BackgroundImageFix" result="effect1_dropShadow"/>
<feBlend mode="normal" in="SourceGraphic" in2="effect1_dropShadow" result="shape"/>
</filter>
<filter id="filter3_d" x="60.9559" y="0.144287" width="85.4076" height="96.3558" filterUnits="userSpaceOnUse" color-interpolation-filters="sRGB">
<feFlood flood-opacity="0" result="BackgroundImageFix"/>
<feColorMatrix in="SourceAlpha" type="matrix" values="0 0 0 0 0 0 0 0 0 0 0 0 0 0 0 0 0 0 127 0"/>
<feOffset dy="11"/>
<feGaussianBlur stdDeviation="11"/>
<feColorMatrix type="matrix" values="0 0 0 0 0.397708 0 0 0 0 0.47749 0 0 0 0 0.575 0 0 0 0.27 0"/>
<feBlend mode="normal" in2="BackgroundImageFix" result="effect1_dropShadow"/>
<feBlend mode="normal" in="SourceGraphic" in2="effect1_dropShadow" result="shape"/>
</filter>
<linearGradient id="paint0_linear" x1="98.5701" y1="61.9147" x2="98.5701" y2="94.9186" gradientUnits="userSpaceOnUse">
<stop stop-color="#B0BACC"/>
<stop offset="1" stop-color="#969EAE"/>
</linearGradient>
<linearGradient id="paint1_linear" x1="109.233" y1="79.554" x2="116.058" y2="80.3411" gradientUnits="userSpaceOnUse">
<stop stop-color="#83A6FF"/>
<stop offset="1" stop-color="#5A78FF"/>
</linearGradient>
<linearGradient id="paint2_linear" x1="98.1306" y1="75.8625" x2="98.1306" y2="129.936" gradientUnits="userSpaceOnUse">
<stop stop-color="#FDFEFF"/>
<stop offset="0.9964" stop-color="#ECF0F5"/>
</linearGradient>
<linearGradient id="paint3_linear" x1="99.1293" y1="100.394" x2="99.1293" y2="122.439" gradientUnits="userSpaceOnUse">
<stop stop-color="#B0BACC"/>
<stop offset="1" stop-color="#969EAE"/>
</linearGradient>
</defs>
</svg>
