<svg width="137" height="152" viewBox="0 0 137 152" fill="none" xmlns="http://www.w3.org/2000/svg">
<path d="M13.1376 28.2482C14.6524 27.7432 15.5361 26.1022 15.0311 24.5873C14.5262 23.0725 12.8851 22.1888 11.2441 22.6938C9.72923 23.1987 8.84558 24.8398 9.35053 26.3546C9.85547 27.8695 11.4965 28.7531 13.1376 28.2482Z" fill="#EAEEF9"/>
<path d="M19.5757 18.6543C20.5856 18.2756 21.2168 17.1394 20.8381 16.1295C20.4594 15.1197 19.3233 14.4885 18.3134 14.8672C17.3035 15.2459 16.6723 16.382 17.051 17.3919C17.3035 18.4018 18.4396 19.033 19.5757 18.6543Z" fill="#EAEEF9"/>
<path d="M126.444 41.5952C128.337 39.9542 128.463 37.0507 126.696 35.2834C125.055 33.5161 122.151 33.3899 120.384 35.031C118.491 36.672 118.364 39.5755 120.132 41.3428C121.773 43.1101 124.676 43.2363 126.444 41.5952Z" fill="#EAEEF9"/>
<path d="M133.26 50.4407C134.017 49.6833 134.143 48.5472 133.386 47.7898C132.629 47.0324 131.492 46.9061 130.735 47.6635C129.978 48.4209 129.851 49.5571 130.609 50.3145C131.24 51.1981 132.502 51.1981 133.26 50.4407Z" fill="#EAEEF9"/>
<path d="M18.3134 125.324C19.0708 124.566 19.197 123.43 18.4396 122.673C17.6822 121.915 16.5461 121.789 15.7887 122.546C15.0313 123.304 14.905 124.44 15.6624 125.197C16.4198 125.955 17.556 126.081 18.3134 125.324Z" fill="#EAEEF9"/>
<path d="M66.0305 131.509C98.4731 131.509 124.856 105.252 124.856 72.9357C124.73 40.4931 98.4731 14.2361 66.0305 14.2361C33.4616 14.2361 7.20459 40.4931 7.20459 72.8095C7.20459 105.252 33.4616 131.509 66.0305 131.509Z" fill="#EAEEF9"/>
<path d="M105.07 42.6181V47.1546H104.721H100.301L32.4864 46.922C31.2069 46.922 29.9274 46.6893 28.6479 46.3404C28.5315 46.3404 28.4152 46.224 28.2989 46.224C26.6704 45.6424 25.2746 44.9445 24.1114 43.7813C23.1808 42.8508 22.4829 41.4549 22.4829 40.1754C22.4829 37.7327 24.4603 35.8716 27.252 34.7084C28.1826 34.2431 29.3458 34.0105 30.509 33.8942C30.9742 33.8942 31.4395 33.7778 31.9048 33.7778H96.2296C96.9275 33.7778 97.5091 33.8942 98.0907 34.0105C98.556 34.1268 99.0212 34.2431 99.4865 34.4758C102.86 35.8716 105.07 38.8959 105.07 42.6181Z" fill="url(#paint0_linear)"/>
<path opacity="0.1" d="M104.721 47.1546H100.301L32.4863 46.9219C31.2068 46.9219 29.9273 46.6893 28.6478 46.3403C28.5315 46.3403 28.4152 46.224 28.2988 46.224C26.6704 45.6424 25.2745 44.9445 24.1113 43.7813C24.9256 42.967 25.9724 42.2691 27.252 41.8038C28.1825 41.3386 29.3457 41.1059 30.5089 40.9896C30.9742 40.8733 31.4395 40.8733 31.9047 40.8733H96.2295C96.9274 40.8733 97.509 40.9896 98.0906 41.1059C98.5559 41.2223 99.0212 41.3386 99.4865 41.5712C102.046 42.6181 103.907 44.7118 104.721 47.1546Z" fill="#020305"/>
<g filter="url(#filter0_d)">
<path d="M113.329 54.2501V111.363C113.329 115.318 110.188 118.459 106.233 118.459H37.7208C32.0211 118.459 27.601 115.783 24.8093 113.573C23.5298 112.526 22.7155 110.898 22.7155 109.269C22.7155 108.455 22.7155 107.641 22.7155 106.827C22.7155 105.663 22.7155 104.268 22.7155 102.872C22.7155 96.3578 22.7155 87.6339 22.5992 78.7936C22.5992 77.5141 22.5992 76.2345 22.5992 74.8387C22.5992 70.1859 22.5992 65.5331 22.4829 61.113C22.4829 59.8335 22.4829 58.5539 22.4829 57.1581C22.4829 48.4341 22.3666 41.9202 22.3666 40.4081C22.3666 42.9671 24.8093 45.2935 28.0662 46.2241C28.1826 46.2241 28.2989 46.3404 28.4152 46.3404C29.5784 46.6893 30.9742 46.922 32.2538 46.922L100.068 47.2709H104.954H106.117C110.188 47.1546 113.329 50.2953 113.329 54.2501Z" fill="url(#paint1_linear)"/>
</g>
<path opacity="0.1" d="M99.6028 73.6755C97.1601 73.6755 95.0663 74.6061 93.5542 76.1182C92.042 77.6304 90.9951 79.8405 90.9951 82.1669C90.9951 82.2832 90.9951 82.5158 90.9951 82.6322C91.2278 87.1686 95.0663 90.7745 99.6028 90.7745H113.328V73.6755H99.6028Z" fill="url(#paint2_linear)"/>
<g filter="url(#filter1_d)">
<path d="M113.329 70.4186V72.5123C113.212 72.5123 113.096 72.5123 112.863 72.5123H98.9049C96.4622 72.5123 94.3684 73.4429 92.8563 74.955C91.4604 76.3509 90.4136 78.4446 90.2972 80.6547C90.2972 80.771 90.2972 81.0037 90.2972 81.12C90.2972 85.8891 94.1358 89.7276 98.9049 89.7276H112.863C113.561 89.7276 114.143 89.495 114.375 89.146C114.492 89.0297 114.608 88.7971 114.608 88.6808V71.4655C114.608 70.8839 114.026 70.5349 113.329 70.4186Z" fill="url(#paint3_linear)"/>
</g>
<path d="M98.2069 86.2381C100.999 86.2381 103.325 83.9117 103.325 81.12C103.325 78.3283 100.999 76.002 98.2069 76.002C95.4153 76.002 93.0889 78.3283 93.0889 81.12C93.0889 83.9117 95.4153 86.2381 98.2069 86.2381Z" fill="#DADFEC"/>
<path d="M53.5622 85.7616C55.4841 85.7616 57.1104 84.1354 57.1104 82.2135C57.1104 80.2915 55.4841 78.6653 53.5622 78.6653C51.6403 78.6653 50.014 80.2915 50.014 82.2135C50.014 84.1354 51.6403 85.7616 53.5622 85.7616Z" fill="#989FB0"/>
<path d="M80.765 85.7616C82.6869 85.7616 84.3131 84.1354 84.3131 82.2135C84.3131 80.2915 82.6869 78.6653 80.765 78.6653C78.843 78.6653 77.2168 80.2915 77.2168 82.2135C77.2168 84.2832 78.843 85.7616 80.765 85.7616Z" fill="#989FB0"/>
<path d="M53.4235 70.4746L45.6184 74.689L46.672 76.6402L54.4771 72.4259L53.4235 70.4746Z" fill="#989FB0"/>
<path d="M80.2824 70.4186L79.229 72.3701L87.035 76.5836L88.0884 74.6321L80.2824 70.4186Z" fill="#989FB0"/>
<path d="M67.1636 94.0407C69.4498 94.0407 71.3031 92.6507 71.3031 90.9361C71.3031 89.2214 69.4498 87.8314 67.1636 87.8314C64.8774 87.8314 63.024 89.2214 63.024 90.9361C63.024 92.6507 64.8774 94.0407 67.1636 94.0407Z" fill="#989FB0"/>
<path d="M128.094 4.86532C116.549 2.33354 104.194 2.73863 92.8517 6.08057C90.5224 6.78947 87.9907 7.7009 86.1678 9.32124C83.3322 11.6505 82.1169 15.8026 83.0284 19.3471C83.9398 22.8915 86.978 25.8284 90.725 26.5373C93.0542 27.1449 95.8898 26.3348 97.3076 24.4106C98.6241 22.3852 98.3203 19.3471 96.7 17.5242C95.0796 15.4988 92.4466 14.6886 90.0161 14.7899C87.5856 14.8911 85.1551 15.8026 83.0284 16.9166C76.142 20.6636 70.5721 27.2462 68.2428 34.9428C67.0621 38.6818 66.6461 42.612 66.9486 46.478" stroke="#C9D4E2" stroke-width="2" stroke-miterlimit="10" stroke-dasharray="4 4"/>
<path d="M134.17 2.23219C134.069 3.75125 133.968 5.16904 132.854 5.47286C131.74 5.77667 131.233 4.76396 130.524 3.34617C129.815 2.02964 130.221 0.611851 131.436 0.308038C132.55 0.00422463 134.373 0.409309 134.17 2.23219Z" fill="#DAE2EB"/>
<path d="M132.955 9.52376C133.259 7.70088 133.562 6.68817 132.55 6.18182C131.436 5.67546 130.727 6.5869 129.512 7.80215C128.499 8.91613 129.107 10.5365 130.119 11.0428C131.335 11.6504 132.651 11.0428 132.955 9.52376Z" fill="#DAE2EB"/>
<path d="M134.373 6.18186C134.272 6.89076 133.765 7.39711 133.056 7.49838C132.752 7.49838 132.449 7.49838 132.044 7.49838C130.626 7.29584 129.512 6.3844 129.613 5.47296C129.714 4.56152 131.031 4.05517 132.651 4.25771C132.955 4.25771 133.259 4.35898 133.461 4.46025C134.069 4.66279 134.474 5.37169 134.373 6.18186C134.373 6.18186 134.373 6.08059 134.373 6.18186Z" fill="#989FB0"/>
<path d="M22.8879 21.4222C22.8879 19.7005 22.8879 17.9789 24.1032 17.4726C25.4197 16.9662 26.1286 18.1815 27.1413 19.9031C28.0528 21.4222 27.6477 23.0425 26.3312 23.5488C25.2172 24.0552 22.8879 23.7514 22.8879 21.4222Z" fill="#DAE2EB"/>
<path d="M23.5968 12.9154C23.3943 15.0421 23.0905 16.2574 24.407 16.7637C25.7235 17.2701 26.4324 16.1561 27.749 14.5357C28.7617 13.118 28.0528 11.2951 26.7362 10.7887C25.4197 10.2824 23.7994 11.1938 23.5968 12.9154Z" fill="#DAE2EB"/>
<path d="M22.4829 16.9662C22.4829 16.1561 23.0905 15.5484 23.7994 15.4472C24.1032 15.3459 24.5083 15.3459 24.9134 15.4472C26.5337 15.5484 27.9515 16.4599 27.8503 17.4726C27.749 18.4853 26.4325 19.1942 24.7109 18.9917C24.4071 18.9917 24.1032 18.8904 23.7994 18.7891C22.9893 18.6878 22.4829 17.8777 22.4829 16.9662Z" fill="#989FB0"/>
<path d="M29.3694 17.27C40.0028 17.27 59.6494 23.4476 59.9532 46.1322" stroke="#C9D4E2" stroke-width="2" stroke-miterlimit="10" stroke-dasharray="4 4"/>
<defs>
<filter id="filter0_d" x="0.366577" y="29.4081" width="134.962" height="122.05" filterUnits="userSpaceOnUse" color-interpolation-filters="sRGB">
<feFlood flood-opacity="0" result="BackgroundImageFix"/>
<feColorMatrix in="SourceAlpha" type="matrix" values="0 0 0 0 0 0 0 0 0 0 0 0 0 0 0 0 0 0 127 0"/>
<feOffset dy="11"/>
<feGaussianBlur stdDeviation="11"/>
<feColorMatrix type="matrix" values="0 0 0 0 0.397708 0 0 0 0 0.47749 0 0 0 0 0.575 0 0 0 0.27 0"/>
<feBlend mode="normal" in2="BackgroundImageFix" result="effect1_dropShadow"/>
<feBlend mode="normal" in="SourceGraphic" in2="effect1_dropShadow" result="shape"/>
</filter>
<filter id="filter1_d" x="68.2972" y="59.4186" width="68.3108" height="63.3091" filterUnits="userSpaceOnUse" color-interpolation-filters="sRGB">
<feFlood flood-opacity="0" result="BackgroundImageFix"/>
<feColorMatrix in="SourceAlpha" type="matrix" values="0 0 0 0 0 0 0 0 0 0 0 0 0 0 0 0 0 0 127 0"/>
<feOffset dy="11"/>
<feGaussianBlur stdDeviation="11"/>
<feColorMatrix type="matrix" values="0 0 0 0 0.397708 0 0 0 0 0.47749 0 0 0 0 0.575 0 0 0 0.27 0"/>
<feBlend mode="normal" in2="BackgroundImageFix" result="effect1_dropShadow"/>
<feBlend mode="normal" in="SourceGraphic" in2="effect1_dropShadow" result="shape"/>
</filter>
<linearGradient id="paint0_linear" x1="63.7829" y1="34.2425" x2="63.7829" y2="41.7508" gradientUnits="userSpaceOnUse">
<stop stop-color="#B0BACC"/>
<stop offset="1" stop-color="#969EAE"/>
</linearGradient>
<linearGradient id="paint1_linear" x1="67.8179" y1="38.6027" x2="67.8179" y2="119.3" gradientUnits="userSpaceOnUse">
<stop stop-color="#FDFEFF"/>
<stop offset="0.9964" stop-color="#ECF0F5"/>
</linearGradient>
<linearGradient id="paint2_linear" x1="102.164" y1="74.2695" x2="102.164" y2="83.867" gradientUnits="userSpaceOnUse">
<stop stop-color="#B0BACC"/>
<stop offset="1" stop-color="#969EAE"/>
</linearGradient>
<linearGradient id="paint3_linear" x1="102.445" y1="69.9719" x2="102.445" y2="89.9358" gradientUnits="userSpaceOnUse">
<stop stop-color="#FDFEFF"/>
<stop offset="0.9964" stop-color="#ECF0F5"/>
</linearGradient>
</defs>
</svg>
