<svg width="165" height="138" viewBox="0 0 165 138" fill="none" xmlns="http://www.w3.org/2000/svg">
<path d="M80.9383 124.489C114.995 124.489 142.622 96.7243 142.622 62.3946C142.622 28.0648 114.995 0.43689 80.9383 0.43689C46.8821 0.43689 19.2542 28.2016 19.2542 62.5314C19.2542 96.8611 46.8821 124.489 80.9383 124.489Z" fill="#EAEEF9"/>
<path d="M111.302 123.668C101.864 123.942 90.6491 123.668 82.5795 123.532C74.6468 123.805 63.2947 123.942 53.8574 123.668C63.1579 118.334 66.4404 108.487 66.8508 101.922H98.0348C98.8554 108.35 102.138 118.334 111.302 123.668Z" fill="url(#paint0_linear)"/>
<g filter="url(#filter0_d)">
<path d="M141.528 19.1746V100.827C141.528 102.879 139.887 104.384 138.109 104.384H27.734C25.8192 104.384 24.3147 102.742 24.3147 100.827V19.1746C24.3147 17.2598 25.956 15.6185 27.734 15.6185H137.972C140.024 15.6185 141.528 17.2598 141.528 19.1746Z" fill="white"/>
</g>
<path d="M141.528 19.1746V89.4754H24.3147V19.1746C24.3147 17.2598 25.956 15.6185 27.734 15.6185H137.972C140.024 15.6185 141.528 17.2598 141.528 19.1746Z" fill="#989FB0"/>
<path d="M137.015 20.1321H28.281V85.5091H137.151V20.1321H137.015Z" fill="white"/>
<path d="M82.7162 99.5124C84.3575 99.5124 85.5884 98.2814 85.5884 96.6402C85.5884 94.9989 84.3575 93.7679 82.7162 93.7679C81.0749 93.7679 79.844 94.9989 79.844 96.6402C79.844 98.2814 81.0749 99.5124 82.7162 99.5124Z" fill="#D0D8E6"/>
<path d="M130.723 32.168V40.511C130.723 41.742 129.766 42.6994 128.535 42.6994H36.6241C35.3932 42.6994 34.4358 41.742 34.4358 40.511V32.168C34.4358 30.937 35.3932 29.9796 36.6241 29.9796H128.398C129.766 29.8428 130.723 30.937 130.723 32.168Z" fill="#E5E9F1"/>
<path d="M47.2924 29.8429V42.8362H36.4874C35.2565 42.8362 34.2991 41.8788 34.2991 40.6479V32.3048C34.2991 31.0738 35.2565 30.1164 36.4874 30.1164L47.2924 29.8429Z" fill="#E3EAF2"/>
<path opacity="0.8" d="M130.723 49.6747V58.0178C130.723 59.2487 129.766 60.2061 128.535 60.2061H36.6241C35.3932 60.2061 34.4358 59.2487 34.4358 58.0178V49.6747C34.4358 48.4437 35.3932 47.4863 36.6241 47.4863H128.398C129.766 47.3496 130.723 48.4437 130.723 49.6747Z" fill="#E5E9F1"/>
<path d="M47.2924 29.8429V42.8362H36.4874C35.2565 42.8362 34.2991 41.8788 34.2991 40.6479V32.3048C34.2991 31.0738 35.2565 30.1164 36.4874 30.1164L47.2924 29.8429Z" fill="#989FB0"/>
<path d="M40.4538 39.1432C40.1803 39.1432 39.9067 39.0065 39.77 38.8697L37.7184 36.8181C37.3081 36.4078 37.3081 35.8607 37.7184 35.4504C38.1287 35.0401 38.6758 35.0401 39.0861 35.4504L40.317 36.6813L43.326 33.6724C43.7363 33.262 44.2834 33.262 44.6937 33.6724C45.1041 34.0827 45.1041 34.6298 44.6937 35.0401L41.0009 38.7329C40.8641 39.0065 40.5906 39.1432 40.4538 39.1432Z" fill="white"/>
<path opacity="0.5" d="M130.723 67.1817V75.5248C130.723 76.7557 129.766 77.7131 128.535 77.7131H36.6241C35.3932 77.7131 34.4358 76.7557 34.4358 75.5248V67.1817C34.4358 65.9507 35.3932 64.9933 36.6241 64.9933H128.398C129.766 64.8566 130.723 65.814 130.723 67.1817Z" fill="#E5E9F1"/>
<path opacity="0.3" d="M130.723 84.5516V85.509H34.2991V84.5516C34.2991 83.3207 35.2565 82.3633 36.4874 82.3633H128.398C129.766 82.3633 130.723 83.3207 130.723 84.5516Z" fill="#E5E9F1"/>
<path d="M33.2048 119.155C33.2048 121.48 31.29 123.395 28.9649 123.395H5.44013C3.115 123.395 1.2002 121.48 1.2002 119.155V63.8991C1.2002 61.574 3.115 59.6592 5.44013 59.6592H28.8281C31.1533 59.6592 33.0681 61.574 33.0681 63.8991L33.2048 119.155Z" fill="white"/>
<path d="M28.9649 59.5223C31.29 59.5223 33.2048 61.4371 33.2048 63.7623V119.018C33.2048 121.343 31.29 123.258 28.9649 123.258H5.44013C3.115 123.258 1.2002 121.343 1.2002 119.018V63.899C1.2002 61.5739 3.115 59.6591 5.44013 59.6591L28.9649 59.5223Z" fill="#989FB0"/>
<path d="M31.1532 63.899V119.155C31.1532 120.249 30.3326 121.343 29.1016 121.343H28.9648H5.44006H5.30329C4.20911 121.343 3.25171 120.386 3.25171 119.155V63.899C3.25171 62.6681 4.20911 61.7107 5.30329 61.7107H8.72259C9.26968 61.7107 9.54322 62.121 9.54322 62.5313C9.54322 63.352 10.2271 64.1726 11.1845 64.1726H23.0836C23.9043 64.1726 24.7249 63.4887 24.7249 62.5313C24.7249 61.9842 25.1352 61.7107 25.4088 61.7107H28.6913C30.059 61.5739 31.1532 62.6681 31.1532 63.899Z" fill="white"/>
<path d="M19.2541 62.5313H16.1084C15.8348 62.5313 15.5613 62.2578 15.5613 61.9842C15.5613 61.7107 15.8348 61.4371 16.1084 61.4371H19.2541C19.5277 61.4371 19.8012 61.7107 19.8012 61.9842C19.6644 62.2578 19.3909 62.5313 19.2541 62.5313Z" fill="white"/>
<path d="M14.3304 62.5313H14.0569C13.7833 62.5313 13.5098 62.2578 13.5098 61.9842C13.5098 61.7107 13.7833 61.4371 14.0569 61.4371H14.3304C14.6039 61.4371 14.8775 61.7107 14.8775 61.9842C14.8775 62.2578 14.6039 62.5313 14.3304 62.5313Z" fill="white"/>
<path d="M27.8708 82.2266H6.53436C5.8505 82.2266 5.44019 81.6795 5.44019 81.1324V70.3275C5.44019 69.6436 5.98727 69.2333 6.53436 69.2333H28.0076C28.6914 69.2333 29.1017 69.7804 29.1017 70.3275V81.1324C28.965 81.6795 28.5546 82.2266 27.8708 82.2266Z" fill="#989FB0"/>
<path d="M16.3818 78.5337C16.1083 78.5337 15.8347 78.397 15.6979 78.2602L13.6464 76.2086C13.236 75.7983 13.236 75.2512 13.6464 74.8409C14.0567 74.4306 14.6038 74.4306 15.0141 74.8409L16.245 76.0718L19.254 73.0629C19.6643 72.6525 20.2114 72.6525 20.6217 73.0629C21.032 73.4732 21.032 74.0203 20.6217 74.4306L17.0657 77.9867C16.7921 78.397 16.5186 78.5337 16.3818 78.5337Z" fill="white"/>
<path opacity="0.8" d="M27.8708 98.3655H6.53436C5.8505 98.3655 5.44019 97.8184 5.44019 97.2714V86.4664C5.44019 85.7825 5.98727 85.3722 6.53436 85.3722H28.0076C28.6914 85.3722 29.1017 85.9193 29.1017 86.4664V97.2714C28.965 97.8184 28.5546 98.3655 27.8708 98.3655Z" fill="#E5E9F1"/>
<path opacity="0.5" d="M27.8708 114.505H6.53436C5.8505 114.505 5.44019 113.958 5.44019 113.411V102.606C5.44019 101.922 5.98727 101.511 6.53436 101.511H28.0076C28.6914 101.511 29.1017 102.058 29.1017 102.606V113.411C28.965 114.094 28.5546 114.505 27.8708 114.505Z" fill="#E5E9F1"/>
<path opacity="0.3" d="M28.965 119.018V121.207H28.8282H5.44024H5.30347V119.018C5.30347 118.334 5.85055 117.924 6.39764 117.924H27.8708C28.5547 117.924 28.965 118.471 28.965 119.018Z" fill="#E5E9F1"/>
<path d="M32.7944 25.1927C33.4783 25.1927 34.0254 24.6456 34.0254 23.9618C34.0254 23.2779 33.4783 22.7308 32.7944 22.7308C32.1106 22.7308 31.5635 23.2779 31.5635 23.9618C31.5635 24.6456 32.1106 25.1927 32.7944 25.1927Z" fill="#E3EAF2"/>
<path d="M36.761 25.1927C37.4448 25.1927 37.9919 24.6456 37.9919 23.9618C37.9919 23.2779 37.4448 22.7308 36.761 22.7308C36.0771 22.7308 35.53 23.2779 35.53 23.9618C35.53 24.6456 36.0771 25.1927 36.761 25.1927Z" fill="#E3EAF2"/>
<path d="M40.7273 25.1927C41.4111 25.1927 41.9582 24.6456 41.9582 23.9618C41.9582 23.2779 41.4111 22.7308 40.7273 22.7308C40.0434 22.7308 39.4963 23.2779 39.4963 23.9618C39.4963 24.6456 40.0434 25.1927 40.7273 25.1927Z" fill="#E3EAF2"/>
<path d="M164.251 101.57C163.704 103.895 162.883 106.357 161.926 108.408C159.327 113.469 155.224 117.435 150.163 120.034C144.966 122.633 138.811 123.727 132.656 122.359C118.159 119.35 108.858 105.126 111.867 90.628C114.876 76.1302 128.964 66.6929 143.461 69.8387C148.659 70.9329 153.172 73.5315 157.002 77.0876C163.43 83.6527 166.029 92.8164 164.251 101.57Z" fill="url(#paint1_linear)"/>
<path d="M146.47 93.7738H140.316V87.6191C140.316 86.3881 139.358 85.2939 137.99 85.2939C136.759 85.2939 135.665 86.2513 135.665 87.6191V93.7738H129.511C128.28 93.7738 127.185 94.7312 127.185 96.0989C127.185 97.4667 128.143 98.4241 129.511 98.4241H135.665V104.579C135.665 105.81 136.623 106.904 137.99 106.904C139.221 106.904 140.316 105.947 140.316 104.579V98.4241H146.47C147.701 98.4241 148.795 97.4667 148.795 96.0989C148.932 94.7312 147.838 93.7738 146.47 93.7738Z" fill="white"/>
<path d="M1.62573 123.818L159.61 123.818" stroke="#989FB0" stroke-width="2" stroke-miterlimit="10" stroke-linecap="round" stroke-linejoin="round"/>
<path d="M11.8644 54.0641C14.1288 54.0641 15.9644 52.2285 15.9644 49.9641C15.9644 47.6998 14.1288 45.8641 11.8644 45.8641C9.60004 45.8641 7.7644 47.6998 7.7644 49.9641C7.7644 52.2285 9.60004 54.0641 11.8644 54.0641Z" fill="#EAEEF9"/>
<path d="M7.76436 40.7642C9.31076 40.7642 10.5644 39.5106 10.5644 37.9642C10.5644 36.4178 9.31076 35.1642 7.76436 35.1642C6.21796 35.1642 4.96436 36.4178 4.96436 37.9642C4.96436 39.5106 6.21796 40.7642 7.76436 40.7642Z" fill="#EAEEF9"/>
<path d="M124.789 7.95156C126.335 7.95156 127.589 6.69796 127.589 5.15156C127.589 3.60516 126.335 2.35156 124.789 2.35156C123.242 2.35156 121.989 3.60516 121.989 5.15156C121.989 6.69796 123.242 7.95156 124.789 7.95156Z" fill="#EAEEF9"/>
<path d="M154.41 64.3778C157.282 64.3778 159.61 62.0497 159.61 59.1778C159.61 56.3059 157.282 53.9778 154.41 53.9778C151.538 53.9778 149.21 56.3059 149.21 59.1778C149.21 62.0497 151.538 64.3778 154.41 64.3778Z" fill="#EAEEF9"/>
<defs>
<filter id="filter0_d" x="2.3147" y="4.61853" width="161.214" height="132.765" filterUnits="userSpaceOnUse" color-interpolation-filters="sRGB">
<feFlood flood-opacity="0" result="BackgroundImageFix"/>
<feColorMatrix in="SourceAlpha" type="matrix" values="0 0 0 0 0 0 0 0 0 0 0 0 0 0 0 0 0 0 127 0"/>
<feOffset dy="11"/>
<feGaussianBlur stdDeviation="11"/>
<feColorMatrix type="matrix" values="0 0 0 0 0.397708 0 0 0 0 0.47749 0 0 0 0 0.575 0 0 0 0.27 0"/>
<feBlend mode="normal" in2="BackgroundImageFix" result="effect1_dropShadow"/>
<feBlend mode="normal" in="SourceGraphic" in2="effect1_dropShadow" result="shape"/>
</filter>
<linearGradient id="paint0_linear" x1="82.5907" y1="123.061" x2="82.5907" y2="103.585" gradientUnits="userSpaceOnUse">
<stop stop-color="#E8ECF5"/>
<stop offset="0.9913" stop-color="#BDC4D7"/>
</linearGradient>
<linearGradient id="paint1_linear" x1="111.277" y1="96.0982" x2="164.807" y2="96.0982" gradientUnits="userSpaceOnUse">
<stop stop-color="#B0BACC"/>
<stop offset="1" stop-color="#969EAE"/>
</linearGradient>
</defs>
</svg>
