<svg width="140" height="97" viewBox="0 0 140 97" fill="none" xmlns="http://www.w3.org/2000/svg">
<path d="M71.3301 96.1296C97.2372 96.1296 118.239 75.0562 118.239 49.0608C118.239 23.0655 97.2372 1.99207 71.3301 1.99207C45.423 1.99207 24.4211 23.0655 24.4211 49.0608C24.4211 75.0562 45.423 96.1296 71.3301 96.1296Z" fill="#EAEEF9"/>
<path d="M44.2205 6.03155C45.4599 5.62738 46.138 4.29164 45.7352 3.0481C45.3323 1.80457 44.0011 1.12413 42.7618 1.52831C41.5225 1.93248 40.8444 3.26822 41.2472 4.51176C41.65 5.75529 42.9812 6.43573 44.2205 6.03155Z" fill="#EAEEF9"/>
<path d="M97.569 87.7955H12.3401L27.9135 15.9138H113.237L97.569 87.7955Z" fill="white"/>
<path d="M97.569 87.7955H12.3401L27.9135 15.9138H113.237L97.569 87.7955Z" fill="#D5DAE8"/>
<path d="M48.3948 87.7955H30.745C27.5359 87.7955 24.8931 85.049 25.0819 81.829L27.9134 15.9138H32.1607L48.3948 87.7955Z" fill="url(#paint0_linear)"/>
<path d="M131.925 87.7955H46.6959L32.2551 32.582L32.1607 32.2032L27.9135 15.9138H113.237L116.918 30.025L117.484 32.2032L117.578 32.582L131.925 87.7955Z" fill="white"/>
<path d="M117.484 32.2032H32.1607L27.9135 15.9138H113.237L116.918 30.025L117.484 32.2032Z" fill="#EFF3FB"/>
<path opacity="0.3" d="M50.3769 27.5625C52.0449 27.5625 53.3972 26.2057 53.3972 24.5319C53.3972 22.8582 52.0449 21.5013 50.3769 21.5013C48.7088 21.5013 47.3566 22.8582 47.3566 24.5319C47.3566 26.2057 48.7088 27.5625 50.3769 27.5625Z" fill="#ADB6C8"/>
<path opacity="0.3" d="M100.212 27.5625C101.88 27.5625 103.232 26.2057 103.232 24.5319C103.232 22.8582 101.88 21.5013 100.212 21.5013C98.5438 21.5013 97.1915 22.8582 97.1915 24.5319C97.1915 26.2057 98.5438 27.5625 100.212 27.5625Z" fill="#ADB6C8"/>
<path d="M49.6219 25.7632C49.0556 25.7632 48.5836 25.2896 48.5836 24.7214C48.5836 24.1532 49.0556 23.6796 49.6219 23.6796C51.6983 23.6796 53.8691 20.7438 53.8691 16.2926C53.8691 16.1979 53.8691 16.0085 53.8691 15.9138C53.7748 11.5573 51.6039 8.90555 49.6219 8.90555C47.7342 8.90555 45.6577 11.4626 45.3746 15.4402H43.2037C43.4869 10.5155 46.224 6.82202 49.5275 6.82202C53.0197 6.82202 55.7568 10.8944 55.9456 16.1032C55.9456 16.1979 55.9456 16.2926 55.9456 16.3873C56.04 21.5961 53.2085 25.7632 49.6219 25.7632Z" fill="#ADB6C8"/>
<path d="M99.1735 25.7632C98.6072 25.7632 98.1353 25.2896 98.1353 24.7214C98.1353 24.1532 98.6072 23.6796 99.1735 23.6796C101.25 23.6796 103.421 20.7438 103.421 16.2926C103.421 16.1979 103.421 16.0085 103.421 15.9138C103.326 11.5573 101.156 8.90555 99.1735 8.90555C97.2858 8.90555 95.2094 11.4626 94.9262 15.4402H92.7554C93.0385 10.5155 95.7757 6.82202 99.0791 6.82202C102.571 6.82202 105.308 10.8944 105.497 16.1032C105.497 16.1979 105.497 16.2926 105.497 16.3873C105.592 21.5961 102.76 25.7632 99.1735 25.7632Z" fill="#ADB6C8"/>
<path d="M1.48584 87.7008H138.815" stroke="#D5DAE8" stroke-width="2" stroke-miterlimit="10" stroke-linecap="round" stroke-linejoin="round"/>
<path opacity="0.3" d="M100.684 53.5119C100.117 53.5119 99.7397 53.0384 99.7397 52.5649C99.7397 51.9966 100.117 51.6178 100.684 51.6178H103.609C104.176 51.6178 104.553 52.0913 104.553 52.5649C104.553 53.1331 104.081 53.5119 103.609 53.5119H100.684Z" fill="#D5DAE8"/>
<path opacity="0.3" d="M60.4759 80.219C60.0983 80.219 59.7208 79.9348 59.532 79.556L58.0219 73.9684H50.5655C49.9992 73.9684 49.6217 73.4948 49.6217 73.0213C49.6217 72.4531 50.0936 72.0743 50.5655 72.0743H57.4556L55.096 63.7402H47.9228C47.3565 63.7402 46.9789 63.2666 46.9789 62.7931C46.9789 62.2249 47.3565 61.846 47.9228 61.846H54.5297L52.1701 53.5119H45.3744C44.8081 53.5119 44.4306 53.0384 44.4306 52.5649C44.4306 51.9966 44.8081 51.6178 45.3744 51.6178H51.6982L49.3386 43.2837H42.826C42.2597 43.2837 41.8822 42.8102 41.8822 42.3367C41.8822 41.7684 42.2597 41.3896 42.826 41.3896H48.7722L47.8284 37.9802C47.734 37.5067 48.0172 36.9384 48.4891 36.8437C48.5835 36.8437 48.6779 36.8437 48.7722 36.8437C49.1498 36.8437 49.5273 37.1278 49.7161 37.5067L50.8487 41.3896H58.3994C58.9657 41.3896 59.3433 41.7684 59.3433 42.3367C59.3433 42.9049 58.9657 43.2837 58.3994 43.2837H51.415L53.7746 51.6178H65.667L61.8916 37.9802C61.7973 37.5067 62.0804 36.9384 62.5523 36.8437C62.6467 36.8437 62.7411 36.8437 62.8355 36.8437C63.213 36.8437 63.5906 37.1278 63.7793 37.5067L64.9119 41.3896H68.9705C69.5368 41.3896 69.9143 41.7684 69.9143 42.3367C69.9143 42.9049 69.4424 43.2837 68.9705 43.2837H65.4783L67.8379 51.6178H75.8605C76.4268 51.6178 76.8044 52.0914 76.8044 52.5649C76.8044 53.1331 76.4268 53.5119 75.8605 53.5119H68.4042L70.7638 61.846H82.7505L77.5594 43.2837H75.0111C74.4447 43.2837 74.0672 42.8102 74.0672 42.3367C74.0672 41.7684 74.5391 41.3896 75.0111 41.3896H76.9931L76.0493 37.9802C75.9549 37.6961 76.0493 37.5067 76.1437 37.2226C76.238 37.0331 76.4268 36.8437 76.71 36.749C76.8043 36.749 76.8987 36.749 76.9931 36.749C77.3707 36.749 77.7482 37.0331 77.937 37.412L79.0696 41.2949H81.0516C81.6179 41.2949 81.9955 41.6737 81.9955 42.242C81.9955 42.8102 81.6179 43.189 81.0516 43.189H79.6359L81.9955 51.5231H93.9823L91.6227 43.189H85.4877C84.9214 43.189 84.5438 42.7155 84.5438 42.242C84.5438 41.6737 85.0158 41.2949 85.4877 41.2949H90.7732L89.8294 37.8855C89.735 37.412 90.0181 36.8437 90.4901 36.749C90.5844 36.749 90.6788 36.749 90.7732 36.749C91.1507 36.749 91.5283 37.0331 91.717 37.412L92.8497 41.2949H104.836L103.893 37.8855C103.798 37.412 104.081 36.8437 104.553 36.749C104.648 36.749 104.742 36.749 104.836 36.749C105.214 36.749 105.592 37.0331 105.78 37.412L106.913 41.2949H114.275C114.841 41.2949 115.219 41.6737 115.219 42.242C115.219 42.8102 114.841 43.189 114.275 43.189H107.196L109.556 51.5231H116.634C117.201 51.5231 117.578 51.9966 117.578 52.4702C117.578 53.0384 117.201 53.4172 116.634 53.4172H110.122L112.482 61.7513H119.277C119.844 61.7513 120.221 62.2249 120.221 62.6984C120.221 63.2666 119.844 63.6455 119.277 63.6455H113.048L115.407 71.9796H121.826C122.392 71.9796 122.769 72.4531 122.769 72.9266C122.769 73.4949 122.298 73.8737 121.826 73.8737H115.879L117.295 78.8931C117.39 79.3666 117.106 79.9348 116.634 80.0295C116.54 80.0295 116.446 80.0295 116.351 80.0295C115.974 80.0295 115.596 79.7454 115.407 79.3666L113.897 73.8737H101.911L103.326 78.7984C103.421 79.0825 103.326 79.2719 103.232 79.556C103.138 79.7454 102.949 79.9348 102.666 80.0295C102.571 80.0295 102.477 80.0295 102.382 80.0295C102.005 80.0295 101.627 79.7454 101.439 79.3666L99.9285 73.9684H87.9417L89.3574 78.8931C89.4518 79.3666 89.1687 79.9348 88.6968 80.0295C88.6024 80.0295 88.508 80.0295 88.4136 80.0295C88.0361 80.0295 87.6585 79.7454 87.4698 79.3666L85.9596 73.9684H73.9728L75.3886 78.8931C75.483 79.3666 75.1998 79.9348 74.7279 80.0295C74.6335 80.0295 74.5391 80.0295 74.4447 80.0295C74.0672 80.0295 73.6897 79.7454 73.5009 79.3666L71.9908 73.9684H60.004L61.4197 78.9878C61.5141 79.2719 61.4197 79.4613 61.3253 79.7454C61.231 79.9348 61.0422 80.1243 60.759 80.219C60.6647 80.219 60.5703 80.219 60.4759 80.219ZM87.3754 72.0743H113.331L110.971 63.7402H98.9846L99.8341 66.7707C99.9285 67.0549 99.8341 67.2443 99.7397 67.5284C99.6453 67.7178 99.4565 67.9072 99.1734 68.0019C99.079 68.0019 98.9846 68.0019 98.8902 68.0019C98.5127 68.0019 98.1352 67.7178 97.9464 67.339L97.0026 63.8349H93.416C92.8497 63.8349 92.4721 63.3613 92.4721 62.8878C92.4721 62.3196 92.8497 61.9408 93.416 61.9408H96.4363L94.0766 53.6066H82.1842L84.5438 61.9408H87.4698C88.0361 61.9408 88.4136 62.4143 88.4136 62.8878C88.4136 63.456 88.0361 63.8349 87.4698 63.8349H85.0158L87.3754 72.0743ZM73.4065 72.0743H85.3933L83.0337 63.7402H71.0469L73.4065 72.0743ZM59.4377 72.0743H71.4244L69.0648 63.7402H65.5726C65.0063 63.7402 64.6288 63.2666 64.6288 62.7931C64.6288 62.2249 65.1007 61.846 65.5726 61.846H68.5929L66.2333 53.5119H54.2465L56.6061 61.846H59.7208C60.2871 61.846 60.6647 62.3196 60.6647 62.7931C60.6647 63.3613 60.1927 63.7402 59.7208 63.7402H57.1724L59.4377 72.0743ZM98.5127 61.846H110.499L105.308 43.2837H93.2272L98.5127 61.846Z" fill="#D5DAE8"/>
<path d="M71.525 52.1816C67.6029 52.1816 64.3084 49.6723 63.0534 46.0651C62.7396 45.2809 63.2102 44.4968 63.9946 44.1831C64.7791 43.8694 65.5635 44.3399 65.8772 45.1241C66.6616 47.4766 69.0149 49.2018 71.525 49.2018C74.0351 49.2018 76.3883 47.6334 77.1727 45.1241C77.4864 44.3399 78.2708 43.8694 79.0553 44.1831C79.8397 44.4968 80.3103 45.2809 79.9965 46.0651C78.7415 49.8291 75.447 52.1816 71.525 52.1816Z" fill="#ADB6C8"/>
<path d="M95.214 52.1816C91.292 52.1816 87.9975 49.6723 86.7424 46.0651C86.4287 45.2809 86.8993 44.4968 87.6837 44.1831C88.4681 43.8694 89.2525 44.3399 89.5663 45.1241C90.3507 47.4766 92.7039 49.2018 95.214 49.2018C97.7241 49.2018 100.077 47.6334 100.862 45.1241C101.176 44.3399 101.96 43.8694 102.744 44.1831C103.529 44.4968 103.999 45.2809 103.686 46.0651C102.431 49.8291 99.1361 52.1816 95.214 52.1816Z" fill="#ADB6C8"/>
<path d="M88.015 71.3843C90.0078 71.3843 91.6233 69.7693 91.6233 67.7771C91.6233 65.7849 90.0078 64.1699 88.015 64.1699C86.0222 64.1699 84.4067 65.7849 84.4067 67.7771C84.4067 69.7693 86.0222 71.3843 88.015 71.3843Z" fill="#ADB6C8"/>
<path d="M12.9743 6.31898V1.66931H30.9444V6.31898L18.6825 21.1134H31.1559V25.7631H12.3401V21.1134L24.602 6.31898H12.9743V6.31898Z" fill="#ADB6C8"/>
<path d="M36.1743 35.6636V32.7047H47.802V35.6636L39.9797 45.1743H48.0134V48.1332H35.7515V45.1743L43.5737 35.6636H36.1743Z" fill="#ADB6C8"/>
<defs>
<linearGradient id="paint0_linear" x1="25.0646" y1="51.8438" x2="48.4296" y2="51.8438" gradientUnits="userSpaceOnUse">
<stop stop-color="#D5DAE8"/>
<stop offset="1" stop-color="#9AA3BA"/>
</linearGradient>
</defs>
</svg>
