<svg width="153" height="139" viewBox="0 0 153 139" fill="none" xmlns="http://www.w3.org/2000/svg">
<path d="M77.6465 122.413C105.647 122.413 128.347 99.7131 128.347 71.6131C128.347 43.5131 105.647 20.8131 77.6465 20.8131C49.6465 20.8131 26.9465 43.5131 26.9465 71.6131C26.9465 99.7131 49.6465 122.413 77.6465 122.413Z" fill="#EAEEF9"/>
<path d="M134.146 55.7131C136.411 55.7131 138.246 53.8774 138.246 51.6131C138.246 49.3487 136.411 47.5131 134.146 47.5131C131.882 47.5131 130.046 49.3487 130.046 51.6131C130.046 53.8774 131.882 55.7131 134.146 55.7131Z" fill="#EAEEF9"/>
<path d="M140.146 39.6131C141.693 39.6131 142.946 38.3595 142.946 36.8131C142.946 35.2667 141.693 34.0131 140.146 34.0131C138.6 34.0131 137.346 35.2667 137.346 36.8131C137.346 38.3595 138.6 39.6131 140.146 39.6131Z" fill="#EAEEF9"/>
<path d="M23.4465 58.6131C24.9929 58.6131 26.2465 57.3595 26.2465 55.8131C26.2465 54.2667 24.9929 53.0131 23.4465 53.0131C21.9001 53.0131 20.6465 54.2667 20.6465 55.8131C20.6465 57.3595 21.9001 58.6131 23.4465 58.6131Z" fill="#EAEEF9"/>
<g filter="url(#filter0_d)">
<path d="M127.372 104.129L103.331 94.9475L76.9523 105.513L48.3082 94.8746L26.3867 103.254C24.4138 103.983 22.3678 102.161 22.9523 100.121L36.6167 52.9766C37.0552 51.4465 38.1512 50.1349 39.6127 49.4791L61.5342 39.205L76.9523 50.2806L92.0051 40.7351L116.265 51.3736C117.872 52.1023 119.042 53.4867 119.407 55.1626L130.806 101.141C131.318 103.109 129.345 104.857 127.372 104.129Z" fill="url(#paint0_linear)"/>
</g>
<path d="M61.5342 39.2778L48.3082 94.8747L26.3867 103.254C24.4138 103.983 22.3678 102.161 22.9523 100.121L36.6167 52.9767C37.0552 51.4465 38.1512 50.1349 39.6127 49.4791L61.5342 39.2778Z" fill="#E7EAF1"/>
<path d="M127.226 104.42L103.185 95.239L91.8589 41.0995L116.119 51.7379C117.726 52.4666 118.895 53.851 119.261 55.527L130.66 101.505C131.171 103.473 129.199 105.222 127.226 104.42Z" fill="white"/>
<path d="M103.404 94.9475L76.9523 105.513V50.2806L92.005 40.7351L103.404 94.9475Z" fill="#E7EAF1"/>
<path d="M53.3502 82.2688C53.2771 82.2688 53.2041 82.2688 53.0579 82.2688C52.7656 82.1959 52.5464 82.1959 52.2541 82.123C51.4503 81.9044 51.0119 81.1758 51.1581 80.3743C51.3042 79.5727 52.108 79.1355 52.9118 79.2813C53.131 79.3541 53.3502 79.3541 53.5694 79.427C54.3732 79.5727 54.8847 80.3014 54.7386 81.1029C54.6655 81.8316 54.0809 82.2688 53.3502 82.2688ZM58.4652 82.123C57.8076 82.123 57.223 81.6858 57.0769 81.0301C56.8576 80.2285 57.3692 79.427 58.1729 79.2813C58.3922 79.2084 58.6114 79.1355 58.8306 79.1355C59.6344 78.9169 60.4382 79.3541 60.6574 80.0828C60.8766 80.8843 60.4382 81.6858 59.7074 81.9044C59.4152 81.9773 59.1959 82.0502 58.9037 82.123C58.6844 82.123 58.5383 82.123 58.4652 82.123ZM48.016 80.0828C47.7237 80.0828 47.4314 80.0099 47.2122 79.8642C46.993 79.7185 46.7738 79.5727 46.5545 79.427C45.8969 78.9898 45.7507 78.0425 46.1892 77.3867C46.6276 76.731 47.5775 76.5852 48.2352 77.0224C48.4544 77.1682 48.6005 77.3139 48.8198 77.3867C49.4774 77.8239 49.6966 78.6983 49.2582 79.427C48.9659 79.8642 48.5275 80.0828 48.016 80.0828ZM63.7264 79.7185C63.288 79.7185 62.7765 79.4999 62.4842 79.0627C62.0457 78.4069 62.1919 77.4596 62.9226 77.0224C63.1418 76.8767 63.288 76.8038 63.5072 76.6581C64.1648 76.2209 65.1148 76.3666 65.5532 77.0224C65.9916 77.6782 65.8455 78.6255 65.1878 79.0627C64.9686 79.2084 64.7494 79.3541 64.5302 79.4999C64.311 79.5727 64.0187 79.7185 63.7264 79.7185ZM100.555 77.9697C99.8238 77.9697 99.1662 77.3868 99.0931 76.5852C99.02 75.7837 99.6777 75.055 100.481 75.055C100.628 75.055 100.847 75.055 101.066 74.9822C101.87 74.8364 102.601 75.3465 102.747 76.148C102.893 76.9496 102.381 77.6782 101.578 77.8239C101.285 77.8968 100.993 77.8968 100.701 77.9697C100.628 77.9697 100.628 77.9697 100.555 77.9697ZM43.5586 76.2938C43.1932 76.2938 42.7548 76.148 42.5356 75.8566C42.3894 75.7108 42.1702 75.4922 42.0241 75.2736C41.4395 74.6907 41.5126 73.7434 42.0972 73.2334C42.6817 72.7233 43.6317 72.7233 44.1432 73.3063C44.2893 73.452 44.4355 73.6706 44.6547 73.8163C45.2392 74.3992 45.1662 75.3465 44.5816 75.8566C44.2893 76.148 43.924 76.2938 43.5586 76.2938ZM95.8779 76.2938C95.5857 76.2938 95.2203 76.2209 95.0011 76.0023C94.7819 75.8566 94.5627 75.7108 94.4165 75.4922C93.8319 74.9822 93.7589 74.0349 94.2704 73.452C94.7819 72.8691 95.7318 72.7962 96.3164 73.3063C96.4625 73.452 96.6817 73.5977 96.8279 73.7434C97.4855 74.2535 97.5586 75.1279 97.0471 75.7837C96.7548 76.0752 96.3164 76.2938 95.8779 76.2938ZM68.3299 76.0752C67.8915 76.0752 67.5261 75.9294 67.2338 75.5651C66.7223 74.9822 66.7954 74.0349 67.38 73.5248C67.5992 73.3791 67.7453 73.2334 67.8915 73.0877C68.4761 72.5776 69.426 72.6505 69.9375 73.2334C70.449 73.8163 70.3759 74.7636 69.7913 75.2736C69.5721 75.4194 69.426 75.5651 69.2068 75.7837C68.9876 76.0023 68.6953 76.0752 68.3299 76.0752ZM105.962 75.8566C105.45 75.8566 105.012 75.638 104.72 75.2008C104.281 74.545 104.5 73.5977 105.158 73.1605C105.377 73.0148 105.523 72.9419 105.743 72.7962C106.4 72.359 107.35 72.5047 107.789 73.1605C108.227 73.8163 108.081 74.7636 107.423 75.2008C107.204 75.3465 106.985 75.4922 106.766 75.638C106.473 75.7837 106.181 75.8566 105.962 75.8566ZM91.6398 72.2861C91.2744 72.2861 90.9091 72.1404 90.6168 71.8489C90.4706 71.7032 90.2514 71.5575 90.1053 71.3389C89.5207 70.8288 89.4476 69.8815 90.0322 69.2986C90.5437 68.7157 91.4936 68.6428 92.0782 69.2258C92.2974 69.3715 92.4436 69.5901 92.6628 69.7358C93.2474 70.3187 93.2474 71.1931 92.7359 71.7761C92.3705 72.1404 92.0051 72.2861 91.6398 72.2861ZM110.565 72.2861C110.127 72.2861 109.762 72.1404 109.469 71.7761C108.958 71.1931 109.031 70.2459 109.615 69.7358C109.762 69.5901 109.981 69.4443 110.127 69.2986C110.712 68.7886 111.661 68.8614 112.173 69.4443C112.684 70.0273 112.611 70.9745 112.027 71.4846C111.808 71.6303 111.661 71.7761 111.442 71.9947C111.296 72.2133 110.931 72.2861 110.565 72.2861ZM72.5681 72.1404C72.2027 72.1404 71.8374 71.9947 71.5451 71.7032C70.9605 71.1203 70.9605 70.2459 71.5451 69.6629L72.0566 69.1529C72.6411 68.57 73.518 68.57 74.1026 69.08C74.6871 69.6629 74.6871 70.5373 74.1756 71.1203L73.6641 71.6303C73.3719 71.9947 73.0065 72.1404 72.5681 72.1404ZM39.8319 71.8489C39.3935 71.8489 38.9551 71.6303 38.6628 71.266C38.5166 71.0474 38.3705 70.9017 38.2244 70.6831C37.7129 70.0273 37.859 69.1529 38.5166 68.6428C39.1743 68.1328 40.0512 68.2785 40.5627 68.9343L41.0011 69.5172C41.5126 70.173 41.3664 71.0474 40.7088 71.5575C40.4165 71.7032 40.1242 71.8489 39.8319 71.8489ZM87.1824 68.57C86.8901 68.57 86.5978 68.4971 86.3056 68.2785C86.0863 68.1328 85.9402 67.987 85.721 67.8413C85.0633 67.4041 84.9172 66.4568 85.4287 65.801C85.8671 65.1453 86.8171 64.9995 87.4747 65.5096C87.6939 65.6553 87.8401 65.801 88.0593 65.9468C88.7169 66.4568 88.8631 67.3312 88.3516 67.987C88.0593 68.3514 87.6208 68.57 87.1824 68.57ZM114.95 68.4242C114.584 68.4242 114.146 68.2785 113.854 67.987C113.269 67.4041 113.342 66.4568 113.927 65.9468L114.438 65.4367C115.023 64.8538 115.973 64.9267 116.484 65.5096C117.069 66.0925 116.996 67.0398 116.411 67.5498L115.9 68.0599C115.68 68.2785 115.315 68.4242 114.95 68.4242ZM76.587 67.8413C76.2217 67.8413 75.8563 67.6956 75.564 67.477C74.9794 66.894 74.9064 66.0196 75.4909 65.4367C75.6371 65.2181 75.8563 65.0724 76.0024 64.8538C76.587 64.2709 77.4639 64.2709 78.0484 64.8538C78.633 65.4367 78.633 66.3111 78.0484 66.894C77.9023 67.0398 77.7562 67.2584 77.5369 67.4041C77.3177 67.6956 76.9524 67.8413 76.587 67.8413ZM36.4706 67.0398C35.9591 67.0398 35.5207 66.8212 35.2284 66.384L34.79 65.801C34.3516 65.1453 34.5708 64.198 35.2284 63.7608C35.8861 63.3236 36.836 63.5422 37.2744 64.198L37.6398 64.7809C38.0782 65.4367 37.9321 66.384 37.2014 66.8212C37.0552 66.9669 36.7629 67.0398 36.4706 67.0398ZM82.2135 65.5096C82.0674 65.5096 81.8482 65.5096 81.702 65.4367C81.4828 65.3638 81.3367 65.3639 81.1905 65.291C80.3867 65.1453 79.8752 64.3437 80.0945 63.5422C80.3137 62.7407 81.0444 62.2306 81.8482 62.4492C82.1405 62.5221 82.4328 62.5949 82.725 62.7407C83.4558 63.0321 83.8942 63.8337 83.6019 64.6352C83.3096 65.1453 82.7981 65.5096 82.2135 65.5096Z" fill="#CBD4E0"/>
<path d="M76.9523 0.513062C90.3244 0.513062 101.139 11.2972 101.139 24.6317C101.139 35.2702 85.7939 56.3285 79.5098 64.4895C78.1945 66.2382 75.5639 66.2382 74.2486 64.4895C67.9644 56.3285 52.6194 35.2702 52.6194 24.6317C52.7655 11.2972 63.5801 0.513062 76.9523 0.513062Z" fill="#CBD4E0"/>
<path d="M76.9523 34.1043C82.239 34.1043 86.5247 29.8307 86.5247 24.5589C86.5247 19.2871 82.239 15.0134 76.9523 15.0134C71.6656 15.0134 67.3799 19.2871 67.3799 24.5589C67.3799 29.8307 71.6656 34.1043 76.9523 34.1043Z" fill="#A5B0BE"/>
<defs>
<filter id="filter0_d" x="0.85083" y="28.205" width="152.037" height="110.308" filterUnits="userSpaceOnUse" color-interpolation-filters="sRGB">
<feFlood flood-opacity="0" result="BackgroundImageFix"/>
<feColorMatrix in="SourceAlpha" type="matrix" values="0 0 0 0 0 0 0 0 0 0 0 0 0 0 0 0 0 0 127 0"/>
<feOffset dy="11"/>
<feGaussianBlur stdDeviation="11"/>
<feColorMatrix type="matrix" values="0 0 0 0 0.397708 0 0 0 0 0.47749 0 0 0 0 0.575 0 0 0 0.27 0"/>
<feBlend mode="normal" in2="BackgroundImageFix" result="effect1_dropShadow"/>
<feBlend mode="normal" in="SourceGraphic" in2="effect1_dropShadow" result="shape"/>
</filter>
<linearGradient id="paint0_linear" x1="76.8343" y1="37.6712" x2="76.8343" y2="106.228" gradientUnits="userSpaceOnUse">
<stop stop-color="#FDFEFF"/>
<stop offset="0.9964" stop-color="#ECF0F5"/>
</linearGradient>
</defs>
</svg>
