<svg width="154" height="151" viewBox="0 0 154 151" fill="none" xmlns="http://www.w3.org/2000/svg">
<path d="M76.7182 126.031C109.518 126.031 136.118 99.6312 136.118 67.0312C136.118 34.4313 109.518 8.03125 76.7182 8.03125C43.9182 8.03125 17.3182 34.4313 17.3182 67.0312C17.3182 99.6312 43.9182 126.031 76.7182 126.031Z" fill="#EAEEF9"/>
<path d="M134.6 38.8312C136.865 38.8312 138.7 36.9956 138.7 34.7312C138.7 32.4669 136.865 30.6312 134.6 30.6312C132.336 30.6312 130.5 32.4669 130.5 34.7312C130.5 36.9956 132.336 38.8312 134.6 38.8312Z" fill="#EAEEF9"/>
<path d="M130.501 25.5313C132.047 25.5313 133.301 24.2777 133.301 22.7313C133.301 21.1849 132.047 19.9313 130.501 19.9313C128.954 19.9313 127.701 21.1849 127.701 22.7313C127.701 24.2777 128.954 25.5313 130.501 25.5313Z" fill="#EAEEF9"/>
<path d="M17.1005 34.7312C18.6469 34.7312 19.9005 33.4776 19.9005 31.9312C19.9005 30.3848 18.6469 29.1312 17.1005 29.1312C15.5541 29.1312 14.3005 30.3848 14.3005 31.9312C14.3005 33.4776 15.5541 34.7312 17.1005 34.7312Z" fill="#EAEEF9"/>
<path d="M10.8006 96.3313C13.6725 96.3313 16.0006 94.0032 16.0006 91.1313C16.0006 88.2594 13.6725 85.9313 10.8006 85.9313C7.9287 85.9313 5.60059 88.2594 5.60059 91.1313C5.60059 94.0032 7.9287 96.3313 10.8006 96.3313Z" fill="#EAEEF9"/>
<g filter="url(#filter0_d)">
<path d="M131.444 52.4243V106.565C131.444 106.788 131.444 106.9 131.444 107.123C131.332 110.249 129.881 112.928 127.648 114.826C125.75 116.5 123.183 117.616 120.392 117.616H32.9857C31.088 117.616 29.3019 117.17 27.7391 116.277C27.0693 115.942 26.3995 115.495 25.8414 114.937C24.6135 113.933 23.4972 112.481 22.939 110.918C22.4925 109.802 22.1576 108.574 22.1576 107.346V52.4243C22.1576 52.4243 26.7344 48.5172 33.3206 43.159C40.1301 37.4658 49.0605 30.0982 56.8746 23.6237C61.3398 19.8282 60.8933 20.2748 67.8143 14.47C73.061 10.0048 80.7634 10.0048 86.0101 14.47C87.3496 15.5863 88.8008 16.9259 90.1404 18.0422C93.0428 20.3864 96.1684 23.0655 99.5173 25.8563C106.55 31.6611 114.253 38.1356 120.281 43.159C126.42 48.1823 130.885 51.9777 131.444 52.4243Z" fill="url(#paint0_linear)"/>
</g>
<path d="M120.28 43.0473V62.4709L101.192 73.9688L95.4986 77.4294L83.4425 84.6853L77.7494 88.1459L75.2935 89.597L72.9493 88.1459L67.591 84.6853L56.0931 77.4294L50.7349 73.9688L33.0973 62.9174V43.1589C39.9067 37.4657 48.8371 30.0981 56.6513 23.6236L99.4056 25.7446C106.55 31.661 114.252 38.0239 120.28 43.0473Z" fill="#989FB0"/>
<path d="M116.485 27.6424V61.8012L99.0708 72.1828L93.9358 75.3084L82.8844 81.783L77.7494 84.9086L75.5168 86.1366L73.3958 84.9086L68.4841 81.783L57.9909 75.3084L53.0791 72.1828L37.0044 62.1361V27.6424C37.0044 24.0702 39.9068 21.1678 43.5906 21.1678H109.899C113.471 21.0562 116.485 24.0702 116.485 27.6424Z" fill="white"/>
<path opacity="0.5" d="M22.6041 52.201L75.0703 55.6616L130.662 52.201L128.541 62.1361C128.541 62.1361 76.2982 89.3739 76.6331 89.3739C76.968 89.3739 22.7158 57.1128 22.7158 57.1128L22.6041 52.201Z" fill="url(#paint1_linear)"/>
<path d="M131.444 52.4243V107.123C131.332 110.249 129.881 112.928 127.648 114.826C125.75 116.5 123.183 117.616 120.392 117.616H32.9857C31.088 117.616 29.3019 117.17 27.7391 116.277C27.0693 115.942 26.3995 115.495 25.8414 114.937C24.6135 113.932 23.4972 112.481 22.939 110.918C22.4925 109.802 22.1576 108.574 22.1576 107.346V107.235V52.4243L71.0516 83.0109L75.2936 85.6901L76.7448 84.797L78.0843 84.0156L131.444 52.4243Z" fill="#738DFF"/>
<path d="M127.76 114.826C125.862 116.5 123.295 117.616 120.504 117.616H32.9857C31.088 117.616 29.3019 117.17 27.7391 116.277C27.0693 115.942 26.3995 115.495 25.8414 114.937C24.6135 113.932 23.4972 112.481 22.939 110.918C22.4925 109.802 22.1576 108.574 22.1576 107.346V107.235V52.4243L27.8507 55.8848L76.7448 84.797L78.0843 85.5784L78.1959 85.6901L122.067 111.588L127.76 114.826Z" fill="url(#paint2_linear)"/>
<path d="M78.0843 83.904V87.6994L27.7391 116.277C27.0693 115.942 26.3995 115.495 25.8413 114.937C24.6134 113.933 23.4971 112.481 22.939 110.919L71.9446 81.8947L76.1866 84.5738L76.7447 84.797L78.0843 83.904Z" fill="url(#paint3_linear)"/>
<path d="M22.1576 52.4243L76.7448 84.797" stroke="white" stroke-miterlimit="10"/>
<path d="M131.443 52.4243V107.123C131.332 110.249 129.881 112.928 127.648 114.826C125.75 116.5 123.183 117.616 120.392 117.616H32.9856C31.0879 117.616 29.3018 117.17 27.739 116.277C27.0692 115.942 26.3995 115.495 25.8413 114.937L31.4228 111.588L75.2935 85.6901L76.7447 84.797L78.0842 84.0156L125.639 55.7732L131.443 52.4243Z" fill="url(#paint4_linear)"/>
<path d="M131.443 52.4243L78.0842 83.904L76.7447 84.797L75.2935 85.6901L25.8413 114.826" stroke="white" stroke-miterlimit="10"/>
<path d="M118.271 90.7134H89.2473C88.5776 90.7134 88.0194 90.1552 88.0194 89.4854C88.0194 88.8157 88.5776 88.2575 89.2473 88.2575H118.271C118.941 88.2575 119.499 88.8157 119.499 89.4854C119.611 90.1552 119.053 90.7134 118.271 90.7134Z" fill="#CED7E2"/>
<path d="M118.271 99.0856H89.2473C88.5776 99.0856 88.0194 98.5275 88.0194 97.8577C88.0194 97.1879 88.5776 96.6298 89.2473 96.6298H118.271C118.941 96.6298 119.499 97.1879 119.499 97.8577C119.611 98.5275 119.053 99.0856 118.271 99.0856Z" fill="#CED7E2"/>
<path d="M124.299 116.5L127.871 114.714C127.76 114.826 127.76 114.826 127.648 114.937C127.648 114.937 127.648 114.937 127.536 114.937L124.299 116.5Z" fill="#526DFF"/>
<path d="M73.951 63.8466C73.0859 63.8466 72.2716 63.5287 71.6099 62.8397L60.3625 51.1277C59.0901 49.8028 59.0901 47.577 60.3625 46.2521C61.6348 44.9272 63.7723 44.9272 65.0447 46.2521L73.951 55.5263L94.9192 33.7451C96.1915 32.4202 98.3291 32.4202 99.6014 33.7451C100.874 35.07 100.874 37.2958 99.6014 38.6207L76.2921 62.8397C75.6814 63.5287 74.8162 63.8466 73.951 63.8466Z" fill="url(#paint5_linear)"/>
<defs>
<filter id="filter0_d" x="0.157593" y="0.121094" width="153.286" height="150.495" filterUnits="userSpaceOnUse" color-interpolation-filters="sRGB">
<feFlood flood-opacity="0" result="BackgroundImageFix"/>
<feColorMatrix in="SourceAlpha" type="matrix" values="0 0 0 0 0 0 0 0 0 0 0 0 0 0 0 0 0 0 127 0"/>
<feOffset dy="11"/>
<feGaussianBlur stdDeviation="11"/>
<feColorMatrix type="matrix" values="0 0 0 0 0.397708 0 0 0 0 0.47749 0 0 0 0 0.575 0 0 0 0.27 0"/>
<feBlend mode="normal" in2="BackgroundImageFix" result="effect1_dropShadow"/>
<feBlend mode="normal" in="SourceGraphic" in2="effect1_dropShadow" result="shape"/>
</filter>
<linearGradient id="paint0_linear" x1="76.7568" y1="12.3695" x2="76.7568" y2="91.8603" gradientUnits="userSpaceOnUse">
<stop stop-color="#B0BACC"/>
<stop offset="1" stop-color="#969EAE"/>
</linearGradient>
<linearGradient id="paint1_linear" x1="76.5851" y1="101.159" x2="76.5851" y2="54.706" gradientUnits="userSpaceOnUse">
<stop stop-color="#8A90B5"/>
<stop offset="1" stop-color="#A7AED2" stop-opacity="0"/>
</linearGradient>
<linearGradient id="paint2_linear" x1="74.9243" y1="50.9163" x2="74.9243" y2="118.319" gradientUnits="userSpaceOnUse">
<stop stop-color="#FDFEFF"/>
<stop offset="0.9964" stop-color="#ECF0F5"/>
</linearGradient>
<linearGradient id="paint3_linear" x1="53.6606" y1="102.234" x2="49.3801" y2="95.9693" gradientUnits="userSpaceOnUse">
<stop stop-color="#D5D8E4"/>
<stop offset="1" stop-color="#E1E4F0" stop-opacity="0"/>
</linearGradient>
<linearGradient id="paint4_linear" x1="78.608" y1="50.9163" x2="78.608" y2="118.319" gradientUnits="userSpaceOnUse">
<stop stop-color="#FDFEFF"/>
<stop offset="0.9964" stop-color="#ECF0F5"/>
</linearGradient>
<linearGradient id="paint5_linear" x1="79.9852" y1="33.8317" x2="79.9852" y2="51.2851" gradientUnits="userSpaceOnUse">
<stop stop-color="#B0BACC"/>
<stop offset="1" stop-color="#969EAE"/>
</linearGradient>
</defs>
</svg>
