<svg width="147" height="128" viewBox="0 0 147 128" fill="none" xmlns="http://www.w3.org/2000/svg">
<path d="M133.784 70.0701C133.784 91.2675 122.02 110.135 105.482 119.569C105.482 119.569 105.365 119.686 105.249 119.686C103.152 120.967 100.474 122.132 99.3088 122.714H99.1924C98.2606 123.063 92.6701 125.393 91.7384 125.393C91.6219 125.393 91.5054 125.393 91.5054 125.509C91.3889 125.509 91.2725 125.509 91.156 125.626C88.7102 126.325 85.2161 126.907 84.5173 127.023C84.5173 127.373 73.8021 128.421 64.7176 126.441C63.5529 126.441 56.0988 124.461 49.5766 121.2C31.1745 111.65 18.4794 92.3157 18.4794 70.0701C18.4794 38.2741 44.3355 12.5344 76.1315 12.5344C108.044 12.5344 133.784 38.2741 133.784 70.0701Z" fill="#EAEEF9"/>
<path d="M93.6019 93.5969V124.927C93.4854 124.927 91.9713 125.509 91.8549 125.509C91.7384 125.509 91.6219 125.509 91.6219 125.626C91.5055 125.626 91.389 125.626 91.2725 125.742C88.8267 126.441 85.3326 127.024 84.6338 127.14V93.5969H93.6019Z" fill="#4988FD"/>
<path d="M93.6019 93.5969V124.927C93.4854 124.927 91.9713 125.509 91.8549 125.509C91.7384 125.509 91.6219 125.509 91.6219 125.626C91.5055 125.626 91.389 125.626 91.2725 125.742C88.8267 126.441 85.3326 127.024 84.6338 127.14V93.5969H93.6019Z" fill="white"/>
<path d="M101.755 93.5969V121.666C101.172 122.015 100.124 122.365 99.3089 122.831H99.1924C97.6783 123.529 95.9313 124.228 92.9031 125.16V93.7134H101.755V93.5969Z" fill="#2767F4"/>
<path d="M101.755 93.5969V121.666C101.172 122.015 100.124 122.365 99.3089 122.831H99.1924C97.6783 123.529 95.9313 124.228 92.9031 125.16V93.7134H101.755V93.5969Z" fill="#D5DAE8"/>
<path opacity="0.1" d="M101.755 105.71V119.686C100.59 120.268 99.6583 120.734 99.6583 120.734H99.5418C97.5618 121.782 94.5336 122.714 93.2525 123.063C93.136 123.063 93.0195 123.18 92.9031 123.18V120.152C94.3007 115.959 96.6301 111.65 99.7747 108.039C100.357 107.224 101.056 106.408 101.755 105.71Z" fill="#062C78"/>
<path opacity="0.1" d="M101.755 93.5969H84.6338V103.497H101.755V93.5969Z" fill="#062C78"/>
<path d="M138.21 58.4232V94.0627H110.373V94.1792H54.5848V30.1212H107.578C108.277 30.0048 108.976 30.0048 109.791 30.0048C110.723 30.0048 111.538 30.0048 112.47 30.1212C113.635 30.2377 114.683 30.3542 115.731 30.5871C121.205 31.7518 126.097 34.5471 129.824 38.2741C135.065 43.5152 138.21 50.6198 138.21 58.4232Z" fill="url(#paint0_linear)"/>
<path d="M127.494 68.2067C130.988 68.2067 133.9 65.4114 133.9 61.8009C133.9 58.1903 130.988 55.3951 127.494 55.3951C124 55.3951 121.089 58.1903 121.089 61.8009C121.089 65.4114 123.884 68.2067 127.494 68.2067Z" fill="#737C90"/>
<path d="M128.543 67.3914C132.153 67.3914 135.181 64.5962 135.181 60.9856C135.181 57.3751 132.27 54.5798 128.543 54.5798C124.932 54.5798 121.904 57.3751 121.904 60.9856C121.904 64.5962 124.816 67.3914 128.543 67.3914Z" fill="#D5DAE8"/>
<path d="M128.892 67.3914C132.386 67.3914 135.298 64.5962 135.298 60.9856C135.298 57.3751 132.386 54.5798 128.892 54.5798C125.398 54.5798 122.486 57.3751 122.486 60.9856C122.486 64.5962 125.281 67.3914 128.892 67.3914Z" fill="#F5F7FB"/>
<path d="M128.892 63.4314C130.29 63.4314 131.338 62.3832 131.338 60.9855C131.338 59.5879 130.29 58.5397 128.892 58.5397C127.494 58.5397 126.446 59.5879 126.446 60.9855C126.446 62.3832 127.494 63.4314 128.892 63.4314Z" fill="#CED7E2"/>
<path d="M82.3044 55.628V94.1793H25.4675V55.628C25.4675 43.5153 34.0862 33.266 45.3837 30.7037C47.2472 30.2378 49.1107 30.1213 51.0907 30.1213H56.9142C69.7257 30.1213 80.2079 39.4389 82.1879 51.6681C82.1879 52.8328 82.3044 54.2304 82.3044 55.628Z" fill="#737C91"/>
<path opacity="0.7" d="M82.3044 61.3351L81.955 52.0176C79.9751 39.7883 69.3764 30.4708 56.6813 30.4708H50.8578C48.8778 30.4708 47.0143 30.7038 45.1508 31.0532L44.452 31.6355L58.7777 90.6853L82.0715 91.9664L82.3044 61.3351Z" fill="url(#paint1_linear)"/>
<path d="M82.1879 51.6681C80.2079 39.4389 69.6093 30.1213 56.9142 30.1213H51.0907C49.1107 30.1213 47.2472 30.2378 45.3837 30.7037C33.9698 33.266 25.4675 43.3988 25.4675 55.628V94.1793H82.3044V55.628C82.3044 54.2304 82.1879 52.8328 82.1879 51.6681ZM79.975 91.8499H27.7969V55.628C27.7969 44.9129 35.3674 35.3624 45.9661 33.0331C47.4802 32.6837 48.9943 32.5672 51.0907 32.5672H56.9142C68.3281 32.5672 77.995 40.72 79.8585 52.0175C79.8585 52.4834 79.8585 53.0657 79.8585 53.6481C79.8585 54.3469 79.8585 55.0457 79.8585 55.7445V91.8499H79.975Z" fill="#C3CAD6"/>
<path d="M69.0269 115.959C67.3963 118.405 65.4164 122.365 64.2517 125.626C64.1352 125.859 64.0187 126.208 64.0187 126.441C63.2035 126.325 62.3882 126.092 61.5729 125.859C60.8741 124.228 60.4082 122.481 60.4082 122.481C60.8741 121.899 61.2235 121.433 61.6894 120.967C63.9023 118.288 66.2316 116.425 69.0269 115.959Z" fill="#C1C8D7"/>
<path d="M64.7175 126.558C64.4846 126.558 64.2517 126.441 64.0187 126.441C63.2034 126.325 62.3881 126.092 61.5729 125.859C60.9905 125.742 60.5246 125.509 59.9423 125.393C59.7094 125.276 59.4764 125.276 59.2435 125.16C59.0105 125.044 58.7776 125.044 58.4282 124.927C55.4 123.995 52.4883 122.714 49.693 121.317C46.7813 116.425 45.1507 110.485 42.3555 102.216C42.3555 102.099 42.3555 102.099 42.239 101.983C42.239 101.983 42.472 101.983 43.0543 102.216C43.4037 102.449 43.9861 102.681 44.6849 103.147C46.0825 104.079 48.2954 105.71 51.5565 108.388C55.6329 111.766 59.127 116.774 61.5729 120.851C62.6211 122.714 63.5528 124.345 64.2517 125.626C64.4846 125.859 64.6011 126.208 64.7175 126.558Z" fill="#D5DAE8"/>
<path d="M59.9424 125.276C59.7095 125.16 59.4765 125.16 59.2436 125.044C59.0107 124.927 58.7777 124.927 58.4283 124.811C53.0707 114.095 47.0143 107.224 43.5203 103.264C43.1709 102.798 42.8215 102.449 42.4721 102.099C42.4721 101.983 42.4721 101.983 42.3556 101.866C42.3556 101.866 42.5885 101.866 43.1709 102.099C43.5203 102.332 44.1026 102.565 44.8014 103.031C48.412 107.224 54.5848 114.328 59.9424 125.276Z" fill="#EAEEF9"/>
<path d="M114.333 100.236C114.333 100.236 114.217 100.469 113.984 100.934C112.586 103.497 107.928 111.999 105.715 119.453C105.598 119.453 105.598 119.569 105.482 119.569C105.482 119.569 105.365 119.686 105.249 119.686C103.152 120.967 100.474 122.132 99.3089 122.714H99.1924C95.6983 124.345 91.9713 125.393 91.7384 125.393C93.4854 119.686 96.0478 114.561 99.6583 110.252C100.357 109.437 101.056 108.621 101.755 107.923C101.871 107.806 101.988 107.69 102.104 107.573C105.132 104.545 108.277 102.565 111.305 101.284C111.655 101.167 112.004 100.934 112.353 100.818C112.703 100.585 113.285 100.469 113.868 100.236C114.1 100.352 114.217 100.236 114.333 100.236Z" fill="#D5DAE8"/>
<path d="M114.217 100.003C114.217 100.003 114.1 100.119 113.984 100.469C113.984 100.585 113.867 100.585 113.867 100.702C107.811 106.059 103.036 115.027 100.008 122.481C99.7747 122.598 99.5418 122.714 99.3088 122.831H99.1924C98.9594 122.947 98.61 123.064 98.3771 123.18C98.4935 122.947 98.61 122.831 98.61 122.831C100.124 119.104 104.201 108.505 111.305 101.4C111.538 101.167 111.771 100.935 112.004 100.702C112.819 100.469 113.518 100.236 114.217 100.003Z" fill="#EAEEF9"/>
<path d="M82.6538 90.1029V94.1793H4.969C3.80431 94.1793 2.87256 93.2476 2.87256 92.1994C2.87256 91.0347 3.80431 90.1029 4.969 90.1029H82.6538Z" fill="#919AAC"/>
<path d="M130.872 29.8884L130.872 60.5197C130.872 61.4515 130.173 62.1503 129.242 62.1503C128.31 62.1503 127.611 61.4515 127.611 60.5197L127.611 29.8884L130.872 29.8884Z" fill="#CED7E2"/>
<path d="M146.479 28.8402C146.945 29.1896 146.712 30.0049 146.013 30.0049L130.988 30.0049L127.494 30.0049L127.494 17.4262L146.013 17.4262C146.595 17.4262 146.945 18.125 146.479 18.5909L141.587 22.6673C140.888 23.2497 140.888 24.2979 141.587 24.8802L146.479 28.8402Z" fill="#EAEEF9"/>
<path d="M125.188 113.478C127.453 113.478 129.288 111.643 129.288 109.378C129.288 107.114 127.453 105.278 125.188 105.278C122.924 105.278 121.089 107.114 121.089 109.378C121.089 111.643 122.924 113.478 125.188 113.478Z" fill="#EAEEF9"/>
<path d="M12.0308 112.176C14.9027 112.176 17.2308 109.848 17.2308 106.976C17.2308 104.104 14.9027 101.776 12.0308 101.776C9.15893 101.776 6.83081 104.104 6.83081 106.976C6.83081 109.848 9.15893 112.176 12.0308 112.176Z" fill="#EAEEF9"/>
<g filter="url(#filter0_d)">
<rect x="22.2117" y="53.9659" width="52.4811" height="36.137" rx="4" fill="url(#paint2_linear)"/>
</g>
<path d="M73.9577 55.325L52.6273 71.1205C50.1469 72.9573 46.7575 72.9573 44.2771 71.1205L22.9467 55.325C23.5884 54.4981 24.5918 53.9659 25.7195 53.9659H71.185C72.3126 53.9659 73.316 54.4981 73.9577 55.325Z" fill="#E0E4F0"/>
<path d="M126.228 11.8635L121.904 0.44873" stroke="#A6B0C1" stroke-width="2.5"/>
<path d="M123.457 16.1292L114.723 13.1025" stroke="#A6B0C1" stroke-width="2.5"/>
<path d="M131.338 10.1339L132.289 1.22693" stroke="#A6B0C1" stroke-width="2.5"/>
<defs>
<filter id="filter0_d" x="0.21167" y="42.9659" width="96.4811" height="80.137" filterUnits="userSpaceOnUse" color-interpolation-filters="sRGB">
<feFlood flood-opacity="0" result="BackgroundImageFix"/>
<feColorMatrix in="SourceAlpha" type="matrix" values="0 0 0 0 0 0 0 0 0 0 0 0 0 0 0 0 0 0 127 0"/>
<feOffset dy="11"/>
<feGaussianBlur stdDeviation="11"/>
<feColorMatrix type="matrix" values="0 0 0 0 0.397708 0 0 0 0 0.47749 0 0 0 0 0.575 0 0 0 0.27 0"/>
<feBlend mode="normal" in2="BackgroundImageFix" result="effect1_dropShadow"/>
<feBlend mode="normal" in="SourceGraphic" in2="effect1_dropShadow" result="shape"/>
</filter>
<linearGradient id="paint0_linear" x1="96.3637" y1="30.757" x2="96.3637" y2="78.6585" gradientUnits="userSpaceOnUse">
<stop stop-color="#B0BACC"/>
<stop offset="1" stop-color="#969EAE"/>
</linearGradient>
<linearGradient id="paint1_linear" x1="80.8646" y1="60.4888" x2="56.8648" y2="61.6069" gradientUnits="userSpaceOnUse">
<stop stop-color="#42465A"/>
<stop offset="1" stop-color="#575E84" stop-opacity="0"/>
</linearGradient>
<linearGradient id="paint2_linear" x1="48.4351" y1="53.1301" x2="48.4351" y2="90.4925" gradientUnits="userSpaceOnUse">
<stop stop-color="#FDFEFF"/>
<stop offset="0.9964" stop-color="#ECF0F5"/>
</linearGradient>
</defs>
</svg>
