<svg width="191" height="139" viewBox="0 0 191 139" fill="none" xmlns="http://www.w3.org/2000/svg">
<path d="M86.7591 115.977C114.759 115.977 137.459 93.2773 137.459 65.1773C137.459 37.0773 114.759 14.3773 86.7591 14.3773C58.7591 14.3773 36.0591 37.0773 36.0591 65.1773C36.0591 93.2773 58.7591 115.977 86.7591 115.977Z" fill="#EAEEF9"/>
<g filter="url(#filter0_d)">
<path d="M97.0468 45.5655C97.0468 53.0049 91.0306 59.0211 83.5266 59.0211C83.3972 59.0211 82.2975 59.0211 74.2112 59.0211C68.5832 59.0211 59.5913 59.0211 45.2301 59.0211H38.3729C29.381 59.2151 22.2004 52.0345 22.2004 43.3661C22.2004 34.6329 29.4457 27.3876 38.567 27.8405C46.3945 3.38764 82.2328 6.81621 85.2732 32.11C92.001 32.951 97.0468 38.6437 97.0468 45.5655Z" fill="url(#paint0_linear)"/>
</g>
<path d="M83.5266 59.0211C90.9659 59.0211 97.0468 53.0049 97.0468 45.5656C97.0468 38.1262 90.9659 32.11 83.5266 32.11C76.0872 32.11 70.0063 38.1262 70.0063 45.5656C70.0063 53.0049 76.0872 59.0211 83.5266 59.0211Z" fill="url(#paint1_linear)"/>
<path d="M61.4673 59.1505C74.7287 59.1505 85.532 48.4119 85.532 35.1505C85.532 21.889 74.7287 11.1505 61.4673 11.1505C48.2058 11.1505 37.4026 21.889 37.4026 35.1505C37.4026 48.4119 48.1411 59.1505 61.4673 59.1505Z" fill="url(#paint2_linear)"/>
<g filter="url(#filter1_d)">
<path d="M168.606 80.7012C168.606 88.8717 161.999 95.4791 153.757 95.4791C153.615 95.4791 152.407 95.4791 143.526 95.4791C137.345 95.4791 127.47 95.4791 111.697 95.4791H104.166C94.2903 95.6923 86.4041 87.806 86.4041 78.2856C86.4041 68.6942 94.3614 60.7369 104.379 61.2342C112.976 34.3782 152.336 38.1437 155.675 65.9233C163.064 66.8469 168.606 73.0991 168.606 80.7012Z" fill="url(#paint3_linear)"/>
</g>
<path d="M153.757 95.4796C161.928 95.4796 168.606 88.8721 168.606 80.7017C168.606 72.5312 161.928 65.9238 153.757 65.9238C145.587 65.9238 138.908 72.5312 138.908 80.7017C138.908 88.8721 145.587 95.4796 153.757 95.4796Z" fill="url(#paint4_linear)"/>
<path d="M129.53 95.6216C144.095 95.6216 155.96 83.8277 155.96 69.2629C155.96 54.6982 144.095 42.9043 129.53 42.9043C114.965 42.9043 103.1 54.6982 103.1 69.2629C103.1 83.8277 114.894 95.6216 129.53 95.6216Z" fill="url(#paint5_linear)"/>
<g filter="url(#filter2_d)">
<path d="M85.5319 97.3549C85.5319 102.004 81.7718 105.765 77.0818 105.765C77.0009 105.765 76.3136 105.765 71.2597 105.765C67.7421 105.765 62.1222 105.765 53.1465 105.765H48.8607C43.2408 105.886 38.7529 101.398 38.7529 95.9802C38.7529 90.522 43.2812 85.9937 48.982 86.2767C53.8742 70.9937 76.2731 73.1366 78.1734 88.9452C82.3783 89.4708 85.5319 93.0288 85.5319 97.3549Z" fill="url(#paint6_linear)"/>
</g>
<path d="M77.0817 105.765C81.7313 105.765 85.5319 102.004 85.5319 97.3549C85.5319 92.7053 81.7313 88.9452 77.0817 88.9452C72.4321 88.9452 68.6316 92.7053 68.6316 97.3549C68.6316 102.004 72.4321 105.765 77.0817 105.765Z" fill="url(#paint7_linear)"/>
<path d="M63.2948 105.845C71.5832 105.845 78.3353 99.1339 78.3353 90.8455C78.3353 82.557 71.5832 75.8455 63.2948 75.8455C55.0064 75.8455 48.2544 82.557 48.2544 90.8455C48.2544 99.1339 54.966 105.845 63.2948 105.845Z" fill="url(#paint8_linear)"/>
<path d="M83.1168 46.1165L76.5219 51.4321C75.2922 52.3492 73.6865 51.6956 73.3105 50.1247L71.109 34.8734" fill="#A5B0BE"/>
<path d="M146.145 7.56934L141.907 11.4902L97.5602 52.8317C95.5395 54.7687 92.4142 54.6864 90.3307 52.9014L74.3986 38.238L71.2027 35.266L62.3907 26.9949C60.503 25.1631 61.3644 21.8428 63.957 21.4298L136.847 9.37964L146.145 7.56934Z" fill="#CBD4E0"/>
<path d="M146.145 7.56944L141.908 11.4903L74.5476 37.9948L71.1559 35.0698L136.996 9.13651L146.145 7.56944Z" fill="#A5B0BE"/>
<path d="M23.3522 90.8297L20.528 93.2339C20.0005 93.6499 19.29 93.3826 19.1069 92.6994L17.964 86.0496" fill="#A5B0BE"/>
<path d="M50.4873 73.2163L48.6786 74.9823L29.7532 93.5993C28.8915 94.4709 27.5225 94.4716 26.5896 93.7148L19.4435 87.4837L18.0097 86.2204L14.0553 82.7036C13.2075 81.924 13.5456 80.4605 14.6755 80.2492L46.439 74.1179L50.4873 73.2163Z" fill="#CBD4E0"/>
<path d="M50.4874 73.2164L48.6787 74.9824L19.5059 87.3756L17.9869 86.1351L46.5014 74.0098L50.4874 73.2164Z" fill="#A5B0BE"/>
<path d="M78.3755 101.333L73.2043 105.735C72.2385 106.497 70.9375 106.007 70.6024 104.756L68.5097 92.5804" fill="#A5B0BE"/>
<path d="M128.06 69.0824L124.749 72.316L90.096 106.404C88.5181 108 86.0116 108.001 84.3033 106.616L71.2187 95.2063L68.5934 92.8931L61.3529 86.4539C59.8006 85.0264 60.4195 82.3467 62.4885 81.9599L120.648 70.7334L128.06 69.0824Z" fill="#CBD4E0"/>
<path d="M128.061 69.0825L124.749 72.3161L71.333 95.0082L68.5517 92.7369L120.762 70.5354L128.061 69.0825Z" fill="#A5B0BE"/>
<defs>
<filter id="filter0_d" x="0.200439" y="0.208923" width="118.846" height="91.816" filterUnits="userSpaceOnUse" color-interpolation-filters="sRGB">
<feFlood flood-opacity="0" result="BackgroundImageFix"/>
<feColorMatrix in="SourceAlpha" type="matrix" values="0 0 0 0 0 0 0 0 0 0 0 0 0 0 0 0 0 0 127 0"/>
<feOffset dy="11"/>
<feGaussianBlur stdDeviation="11"/>
<feColorMatrix type="matrix" values="0 0 0 0 0.397708 0 0 0 0 0.47749 0 0 0 0 0.575 0 0 0 0.27 0"/>
<feBlend mode="normal" in2="BackgroundImageFix" result="effect1_dropShadow"/>
<feBlend mode="normal" in="SourceGraphic" in2="effect1_dropShadow" result="shape"/>
</filter>
<filter id="filter1_d" x="64.4041" y="31.9681" width="126.202" height="96.5152" filterUnits="userSpaceOnUse" color-interpolation-filters="sRGB">
<feFlood flood-opacity="0" result="BackgroundImageFix"/>
<feColorMatrix in="SourceAlpha" type="matrix" values="0 0 0 0 0 0 0 0 0 0 0 0 0 0 0 0 0 0 127 0"/>
<feOffset dy="11"/>
<feGaussianBlur stdDeviation="11"/>
<feColorMatrix type="matrix" values="0 0 0 0 0.397708 0 0 0 0 0.47749 0 0 0 0 0.575 0 0 0 0.27 0"/>
<feBlend mode="normal" in2="BackgroundImageFix" result="effect1_dropShadow"/>
<feBlend mode="normal" in="SourceGraphic" in2="effect1_dropShadow" result="shape"/>
</filter>
<filter id="filter2_d" x="16.7529" y="64.882" width="90.779" height="73.885" filterUnits="userSpaceOnUse" color-interpolation-filters="sRGB">
<feFlood flood-opacity="0" result="BackgroundImageFix"/>
<feColorMatrix in="SourceAlpha" type="matrix" values="0 0 0 0 0 0 0 0 0 0 0 0 0 0 0 0 0 0 127 0"/>
<feOffset dy="11"/>
<feGaussianBlur stdDeviation="11"/>
<feColorMatrix type="matrix" values="0 0 0 0 0.397708 0 0 0 0 0.47749 0 0 0 0 0.575 0 0 0 0.27 0"/>
<feBlend mode="normal" in2="BackgroundImageFix" result="effect1_dropShadow"/>
<feBlend mode="normal" in="SourceGraphic" in2="effect1_dropShadow" result="shape"/>
</filter>
<linearGradient id="paint0_linear" x1="59.6236" y1="30.9683" x2="59.5992" y2="59.5404" gradientUnits="userSpaceOnUse">
<stop stop-color="white"/>
<stop offset="0.9964" stop-color="#ECF0F5"/>
</linearGradient>
<linearGradient id="paint1_linear" x1="68.5676" y1="29.2131" x2="80.5532" y2="42.3217" gradientUnits="userSpaceOnUse">
<stop stop-color="#BCCBE1"/>
<stop offset="0.9942" stop-color="white" stop-opacity="0"/>
</linearGradient>
<linearGradient id="paint2_linear" x1="35.1492" y1="24.1375" x2="54.0395" y2="31.5298" gradientUnits="userSpaceOnUse">
<stop stop-color="#E2E8F0"/>
<stop offset="0.9942" stop-color="white" stop-opacity="0"/>
</linearGradient>
<linearGradient id="paint3_linear" x1="127.505" y1="64.6695" x2="127.478" y2="96.0495" gradientUnits="userSpaceOnUse">
<stop stop-color="white"/>
<stop offset="0.9964" stop-color="#ECF0F5"/>
</linearGradient>
<linearGradient id="paint4_linear" x1="137.328" y1="62.7421" x2="150.492" y2="77.139" gradientUnits="userSpaceOnUse">
<stop stop-color="#BCCBE1"/>
<stop offset="0.9942" stop-color="white" stop-opacity="0"/>
</linearGradient>
<linearGradient id="paint5_linear" x1="100.625" y1="57.1677" x2="121.372" y2="65.2865" gradientUnits="userSpaceOnUse">
<stop stop-color="#E2E8F0"/>
<stop offset="0.9942" stop-color="white" stop-opacity="0"/>
</linearGradient>
<linearGradient id="paint6_linear" x1="62.1424" y1="88.2317" x2="62.1272" y2="106.089" gradientUnits="userSpaceOnUse">
<stop stop-color="white"/>
<stop offset="0.9964" stop-color="#ECF0F5"/>
</linearGradient>
<linearGradient id="paint7_linear" x1="67.7324" y1="87.1346" x2="75.2233" y2="95.3275" gradientUnits="userSpaceOnUse">
<stop stop-color="#BCCBE1"/>
<stop offset="0.9942" stop-color="white" stop-opacity="0"/>
</linearGradient>
<linearGradient id="paint8_linear" x1="46.846" y1="83.9624" x2="58.6524" y2="88.5826" gradientUnits="userSpaceOnUse">
<stop stop-color="#E2E8F0"/>
<stop offset="0.9942" stop-color="white" stop-opacity="0"/>
</linearGradient>
</defs>
</svg>
