<svg width="111" height="128" viewBox="0 0 111 128" fill="none" xmlns="http://www.w3.org/2000/svg">
<path d="M110.04 55.2473C110.04 68.6663 105.257 80.8719 97.263 90.4365C87.1987 102.499 72.0667 110.137 55.0788 110.137C38.8047 110.137 24.2436 103.07 14.1794 91.8641C5.54269 82.1567 0.260742 69.3087 0.260742 55.2473C0.260742 24.9118 24.8147 0.35791 55.1502 0.35791C85.4857 0.35791 110.04 24.9118 110.04 55.2473Z" fill="#EAEEF9"/>
<path d="M97.3343 90.4366C87.2701 102.499 72.138 110.137 55.1501 110.137C38.876 110.137 24.315 103.07 14.2507 91.8641C15.9638 90.5079 18.1051 89.2945 20.7461 88.2238L22.7447 87.4387C26.5277 85.9398 31.4527 84.0839 38.0909 81.3002C39.5898 80.6578 40.8032 79.5158 41.4456 78.0168C41.8025 77.2317 42.0166 76.3038 42.0166 75.3759V63.0275C41.8025 62.742 41.5884 62.5279 41.4456 62.2424C40.375 60.6721 39.6612 58.8163 39.447 56.8177L38.3764 56.318C35.1644 57.1032 35.3785 53.6771 34.5934 47.1103C34.2365 44.398 34.6647 43.8269 35.8782 43.3987L36.8774 42.0425C30.739 28.1239 33.8082 19.4158 39.8753 16.3466C37.8767 11.9211 37.734 10.3508 37.734 10.3508C37.734 10.3508 50.6533 12.4922 55.1501 11.6356C60.789 10.4936 69.497 11.8498 72.709 19.3444C78.0624 21.4857 80.2037 24.8405 80.6319 28.5521C81.4171 34.4051 78.0624 40.8291 77.42 43.3273C77.4913 43.4701 77.5627 43.5414 77.5627 43.6128C78.4192 44.0411 78.7048 44.7549 78.4192 47.1103C77.6341 53.3202 77.8482 57.1746 74.6362 56.318L71.7811 61.3145C71.6384 61.8855 71.6384 62.0996 71.567 62.5279C71.4242 63.4558 71.4956 65.3116 71.4956 75.5186C71.4956 76.732 71.8525 77.8741 72.4949 78.9448C73.2087 80.0154 74.208 80.9433 75.4928 81.443C75.4928 81.443 75.5641 81.443 75.6355 81.5143C82.9874 84.5836 88.2694 86.5822 92.1238 88.0811C94.1223 88.7235 95.8354 89.58 97.3343 90.4366Z" fill="white"/>
<path d="M77.5627 43.2559C77.8482 41.6856 77.1344 39.7584 76.5634 38.4022C76.492 38.1881 76.3492 37.974 76.2779 37.6885C73.7796 32.692 68.2836 30.6935 63.0016 30.4079C49.5112 29.6942 48.2978 32.2638 44.0865 28.4094C45.3713 30.4079 45.5141 33.4772 43.5155 37.3316C42.088 40.0439 39.3756 41.2574 37.0201 42.0425C30.8817 28.1239 33.9509 19.4158 40.018 16.3466C38.0194 11.9211 37.8767 10.3508 37.8767 10.3508C37.8767 10.3508 50.796 12.4922 55.2214 11.6356C60.8603 10.4936 69.5684 11.8498 72.7804 19.3444C78.1337 21.4857 80.2036 24.8405 80.7033 28.5521C81.4884 34.3337 78.2051 40.6863 77.5627 43.2559Z" fill="url(#paint0_linear)"/>
<path d="M72.6376 78.802V81.2289H41.4456V78.0882C41.8024 77.3031 42.0166 76.3752 42.0166 75.4473V63.0276C41.8024 62.742 41.5883 62.5279 41.4456 62.2424V61.5286C42.088 62.6707 42.9445 63.7413 44.0152 64.5979L53.7939 71.3787C56.078 73.3059 59.3613 73.3773 61.7168 71.5215L70.8532 63.3131C71.1387 63.0276 71.4955 62.742 71.7811 62.4565C71.6383 63.3844 71.7097 65.2403 71.7097 75.4473C71.6383 76.6607 71.9952 77.8741 72.6376 78.802Z" fill="url(#paint1_linear)"/>
<path d="M76.9733 111.488C76.559 113.249 75.9375 115.114 75.2124 116.667C73.2443 120.5 70.1369 123.504 66.3043 125.472C62.3682 127.44 57.707 128.269 53.0457 127.233C42.066 124.954 35.0224 114.181 37.3012 103.202C39.58 92.2218 50.249 85.0746 61.2288 87.457C65.1649 88.2857 68.5831 90.2538 71.4834 92.9469C76.3518 97.8153 78.4234 104.859 76.9733 111.488Z" fill="url(#paint2_linear)"/>
<path d="M63.6111 105.584H58.9499V100.923C58.9499 99.9903 58.2248 99.1616 57.189 99.1616C56.2568 99.1616 55.4281 99.8867 55.4281 100.923V105.584H50.7669C49.8346 105.584 49.006 106.309 49.006 107.345C49.006 108.38 49.7311 109.106 50.7669 109.106H55.4281V113.767C55.4281 114.699 56.1532 115.528 57.189 115.528C58.1212 115.528 58.9499 114.803 58.9499 113.767V109.106H63.6111C64.5433 109.106 65.372 108.38 65.372 107.345C65.372 106.309 64.5433 105.584 63.6111 105.584Z" fill="white"/>
<defs>
<linearGradient id="paint0_linear" x1="33.6486" y1="26.807" x2="80.8324" y2="26.807" gradientUnits="userSpaceOnUse">
<stop stop-color="#B0BACC"/>
<stop offset="1" stop-color="#969EAE"/>
</linearGradient>
<linearGradient id="paint1_linear" x1="57.051" y1="81.3488" x2="57.051" y2="70.496" gradientUnits="userSpaceOnUse">
<stop stop-color="white"/>
<stop offset="1" stop-color="#E2E5EC"/>
</linearGradient>
<linearGradient id="paint2_linear" x1="36.8545" y1="107.344" x2="77.4351" y2="107.344" gradientUnits="userSpaceOnUse">
<stop stop-color="#B0BACC"/>
<stop offset="1" stop-color="#969EAE"/>
</linearGradient>
</defs>
</svg>
