<svg width="185" height="138" viewBox="0 0 185 138" fill="none" xmlns="http://www.w3.org/2000/svg">
<g filter="url(#filter0_d)">
<path d="M115.284 88.67H70.6408C68.7373 88.67 67.1963 87.129 67.1963 85.2254V23.9943C67.1963 22.0908 68.7373 20.5498 70.6408 20.5498H115.284C117.187 20.5498 118.728 22.0908 118.728 23.9943V85.2254C118.728 87.129 117.187 88.67 115.284 88.67Z" fill="url(#paint0_linear)"/>
</g>
<path d="M98.7637 72.1498H87.161C85.8693 72.1498 84.8269 71.1073 84.8269 69.8156C84.8269 68.5239 85.8693 67.4815 87.161 67.4815H98.7637C100.055 67.4815 101.098 68.5239 101.098 69.8156C101.098 71.1073 100.055 72.1498 98.7637 72.1498Z" fill="#D5DDEA"/>
<path d="M104.089 77.2032H81.8129C81.1331 77.2032 80.5892 76.6594 80.5892 75.9795C80.5892 75.2997 81.1331 74.7558 81.8129 74.7558H104.089C104.769 74.7558 105.313 75.2997 105.313 75.9795C105.313 76.6367 104.769 77.2032 104.089 77.2032Z" fill="#D5DDEA"/>
<path d="M108.191 44.8428C108.191 49.4204 106.174 53.5221 102.979 56.3095C100.305 58.6436 96.7921 60.0486 92.9623 60.0486C89.1326 60.0486 85.6201 58.6436 82.946 56.2868C79.7507 53.4995 77.7339 49.3977 77.7339 44.8201C77.7339 36.4128 84.555 29.5917 92.9623 29.5917C101.37 29.5917 108.191 36.4354 108.191 44.8428Z" fill="#D9DEEA"/>
<path d="M102.979 56.3095C100.305 58.6436 96.792 60.0486 92.9623 60.0486C89.1325 60.0486 85.62 58.6436 82.9459 56.2868C84.0563 55.8562 85.5067 55.2897 87.4555 54.4966C87.9088 54.3153 88.2487 53.9753 88.4526 53.5448C88.566 53.2955 88.6113 53.0462 88.6113 52.7743V49.1258C88.5433 49.0578 88.498 48.9672 88.4526 48.8992C88.1354 48.4233 87.9314 47.8794 87.8634 47.3129L87.5462 47.1543C86.6171 47.3809 86.6851 46.3838 86.4358 44.4576C86.3451 43.6644 86.4584 43.5058 86.821 43.3698L87.1156 42.9619C85.3027 38.8829 86.2092 36.3221 87.9994 35.4157C87.4102 34.124 87.3649 33.6481 87.3649 33.6481C87.3649 33.6481 91.172 34.2826 92.4637 34.0333C94.118 33.6934 96.6787 34.1013 97.6305 36.2995C99.2168 36.9113 99.8287 37.9311 99.9646 38.9962C100.101 39.9933 99.806 41.081 99.5114 41.9195C99.4887 41.9875 99.4661 42.0328 99.4434 42.0781C99.4434 42.1008 99.4208 42.1234 99.4208 42.1461C99.3754 42.2594 99.3528 42.35 99.3075 42.4407C99.2848 42.486 99.2848 42.5313 99.2621 42.5767C99.2395 42.6673 99.1941 42.758 99.1715 42.8259C99.1715 42.8486 99.1715 42.8486 99.1488 42.8713C99.1262 42.9392 99.1035 43.0072 99.0808 43.0752C99.0582 43.1659 99.0355 43.2338 99.0129 43.3018C99.0355 43.3245 99.0355 43.3698 99.0582 43.3925C99.3075 43.5058 99.3981 43.7324 99.3075 44.4349C99.0808 46.2705 99.1488 47.3809 98.197 47.1316L97.3586 48.5819C97.3359 48.7406 97.3133 48.8312 97.2906 48.9219C97.2679 49.1938 97.2679 49.7377 97.2679 52.729C97.2679 53.0916 97.3812 53.4315 97.5625 53.7261C97.7665 54.0433 98.0611 54.3153 98.4237 54.4739C98.4237 54.4739 98.4463 54.4739 98.4463 54.4966C100.418 55.335 101.868 55.8789 102.979 56.3095Z" fill="white"/>
<path d="M99.0355 43.3245C99.1035 42.8713 98.8996 42.2821 98.7409 41.8968C98.7183 41.8288 98.6729 41.7609 98.6503 41.6929C97.9251 40.2425 96.2935 39.6307 94.7525 39.54C90.8094 39.3361 90.4242 40.0839 89.2005 38.9508C89.5857 39.5174 89.6084 40.4465 89.0192 41.5796C88.6113 42.3727 87.8181 42.7353 87.093 42.9619C85.2801 38.8829 86.1865 36.3221 87.9768 35.4157C87.3876 34.124 87.3423 33.6481 87.3423 33.6481C87.3423 33.6481 91.1494 34.2826 92.4411 34.0333C94.0953 33.6934 96.6561 34.1013 97.6079 36.2995C99.1942 36.9113 99.806 37.9311 99.942 38.9962C100.214 40.6958 99.2168 42.5767 99.0355 43.3245Z" fill="url(#paint1_linear)"/>
<path d="M97.5851 53.7714V54.4739H88.4299V53.5447C88.5432 53.2955 88.5886 53.0462 88.5886 52.7743V49.1258C88.5206 49.0578 88.4753 48.9671 88.4299 48.8992V48.6725C88.6339 49.0125 88.8832 49.3071 89.1778 49.579L92.0331 51.5959C92.6903 52.1624 93.6647 52.1624 94.3446 51.6185L97.0186 49.2164C97.1092 49.1484 97.1999 49.0578 97.2905 48.9671C97.2679 49.2391 97.2679 49.783 97.2679 52.7743C97.3132 53.1368 97.4038 53.4768 97.5851 53.7714Z" fill="url(#paint2_linear)"/>
<g filter="url(#filter1_d)">
<path d="M54.6419 78.1323H25.9299C24.0263 78.1323 22.4854 76.5914 22.4854 74.6878V34.5318C22.4854 32.6283 24.0263 31.0873 25.9299 31.0873H54.6419C56.5454 31.0873 58.0864 32.6283 58.0864 34.5318V74.7105C58.0864 76.614 56.5454 78.1323 54.6419 78.1323Z" fill="url(#paint3_linear)"/>
</g>
<path d="M44.2856 66.7337H36.2635C35.3797 66.7337 34.6545 66.0086 34.6545 65.1248C34.6545 64.241 35.3797 63.5158 36.2635 63.5158H44.2856C45.1694 63.5158 45.8946 64.241 45.8946 65.1248C45.8946 66.0086 45.1694 66.7337 44.2856 66.7337Z" fill="#D5DDEA"/>
<path d="M47.9795 70.2236H32.5924C32.1165 70.2236 31.7539 69.8383 31.7539 69.3851C31.7539 68.9092 32.1391 68.5466 32.5924 68.5466H47.9795C48.4554 68.5466 48.8179 68.9319 48.8179 69.3851C48.8179 69.8383 48.4327 70.2236 47.9795 70.2236Z" fill="#D5DDEA"/>
<path d="M50.7894 47.8567C50.7894 51.0293 49.3844 53.862 47.1863 55.7882C45.328 57.3972 42.9259 58.3716 40.2745 58.3716C37.6231 58.3716 35.1984 57.3972 33.3628 55.7882C31.1647 53.862 29.7596 51.0293 29.7596 47.8567C29.7596 42.0554 34.4732 37.3419 40.2745 37.3419C46.0759 37.3419 50.7894 42.0554 50.7894 47.8567Z" fill="#D9DEEA"/>
<path d="M47.1862 55.7889C45.328 57.3979 42.9259 58.3723 40.2745 58.3723C37.6231 58.3723 35.1984 57.3979 33.3628 55.7889C34.1333 55.4943 35.1304 55.109 36.4674 54.5425C36.7847 54.4065 37.0113 54.1799 37.1472 53.8853C37.2152 53.7267 37.2606 53.5454 37.2606 53.3415V50.826C37.2152 50.7807 37.1699 50.7127 37.1472 50.6674C36.9206 50.3502 36.7847 49.9649 36.7393 49.5797L36.5127 49.4664C35.8782 49.625 35.9235 48.9225 35.7422 47.6081C35.6743 47.0643 35.7649 46.9509 35.9915 46.8603L36.1955 46.5884C34.9491 43.7557 35.5836 41.9881 36.8073 41.3762C36.3994 40.4924 36.3768 40.1525 36.3768 40.1525C36.3768 40.1525 39.0055 40.5831 39.9119 40.4245C41.0677 40.1979 42.8126 40.4698 43.4698 41.9881C44.5575 42.4187 44.9881 43.1212 45.0787 43.8463C45.1694 44.5488 44.9654 45.274 44.7841 45.8632C44.7615 45.9085 44.7615 45.9312 44.7388 45.9765C44.7388 45.9992 44.7162 45.9992 44.7162 46.0218C44.6935 46.0898 44.6708 46.1578 44.6482 46.2258C44.6255 46.2484 44.6255 46.2938 44.6028 46.3164C44.5802 46.3844 44.5575 46.4297 44.5349 46.4977V46.5204C44.5122 46.5657 44.4895 46.611 44.4895 46.6564C44.4669 46.7243 44.4442 46.7697 44.4442 46.815C44.4669 46.8376 44.4669 46.8603 44.4669 46.883C44.6482 46.9736 44.6935 47.1096 44.6255 47.5855C44.4669 48.8545 44.5122 49.625 43.855 49.4437L43.2885 50.4635C43.2658 50.5768 43.2432 50.6221 43.2432 50.7127C43.2205 50.894 43.2205 51.2793 43.2205 53.3415C43.2205 53.5907 43.2885 53.8174 43.4245 54.0213C43.5604 54.2479 43.7644 54.4292 44.0137 54.5199H44.0363C45.4413 55.1091 46.4384 55.4943 47.1862 55.7889Z" fill="white"/>
<path d="M44.4896 46.8143C44.5349 46.4971 44.3989 46.1118 44.2856 45.8172C44.263 45.7719 44.2403 45.7266 44.2177 45.6813C43.7191 44.6842 42.586 44.2536 41.5209 44.2083C38.8016 44.0723 38.5296 44.5935 37.6912 43.8004C37.9631 44.2083 37.9858 44.8201 37.5779 45.6133C37.2833 46.1571 36.7394 46.4064 36.2635 46.565C35.0171 43.7324 35.6516 41.9648 36.8754 41.3529C36.4675 40.4691 36.4448 40.1292 36.4448 40.1292C36.4448 40.1292 39.0735 40.5598 39.98 40.4011C41.1357 40.1745 42.8806 40.4465 43.5378 41.9648C44.6256 42.3953 45.0561 43.0979 45.1468 43.823C45.2827 45.0014 44.6029 46.2931 44.4896 46.8143Z" fill="url(#paint4_linear)"/>
<path d="M43.4925 54.0433V54.5418H37.1699V53.8846C37.2379 53.726 37.2832 53.5447 37.2832 53.3408V50.8254C37.2379 50.78 37.1926 50.7121 37.1699 50.6667V50.5308C37.3059 50.7574 37.4872 50.984 37.6911 51.1426L39.6627 52.525C40.1159 52.9102 40.7957 52.9329 41.2716 52.5476L43.1299 50.8933C43.1979 50.848 43.2658 50.78 43.3112 50.7121C43.2885 50.8933 43.2885 51.2786 43.2885 53.3408C43.2885 53.5901 43.3565 53.8393 43.4925 54.0433Z" fill="url(#paint5_linear)"/>
<g filter="url(#filter2_d)">
<path d="M159.315 78.1323H130.603C128.699 78.1323 127.158 76.5914 127.158 74.6878V34.5318C127.158 32.6283 128.699 31.0873 130.603 31.0873H159.315C161.218 31.0873 162.759 32.6283 162.759 34.5318V74.7105C162.759 76.614 161.218 78.1323 159.315 78.1323Z" fill="url(#paint6_linear)"/>
</g>
<path d="M148.959 66.7337H140.936C140.053 66.7337 139.328 66.0086 139.328 65.1248C139.328 64.241 140.053 63.5158 140.936 63.5158H148.959C149.842 63.5158 150.568 64.241 150.568 65.1248C150.59 66.0086 149.865 66.7337 148.959 66.7337Z" fill="#D5DDEA"/>
<path d="M152.652 70.2236H137.265C136.789 70.2236 136.427 69.8383 136.427 69.3851C136.427 68.9092 136.812 68.5466 137.265 68.5466H152.652C153.128 68.5466 153.491 68.9319 153.491 69.3851C153.491 69.8383 153.128 70.2236 152.652 70.2236Z" fill="#D5DDEA"/>
<path d="M155.485 47.8567C155.485 51.0293 154.08 53.862 151.882 55.7882C150.024 57.3972 147.622 58.3716 144.97 58.3716C142.319 58.3716 139.894 57.3972 138.058 55.7882C135.86 53.862 134.455 51.0293 134.455 47.8567C134.455 42.0554 139.169 37.3419 144.97 37.3419C150.772 37.3419 155.485 42.0554 155.485 47.8567Z" fill="#D9DEEA"/>
<path d="M151.882 55.7889C150.024 57.3979 147.622 58.3723 144.97 58.3723C142.319 58.3723 139.894 57.3979 138.058 55.7889C138.829 55.4943 139.826 55.109 141.163 54.5425C141.48 54.4065 141.707 54.1799 141.843 53.8853C141.911 53.7267 141.956 53.5454 141.956 53.3415V50.826C141.911 50.7807 141.866 50.7127 141.843 50.6674C141.616 50.3502 141.48 49.9649 141.435 49.5797L141.208 49.4664C140.574 49.625 140.619 48.9225 140.438 47.6081C140.37 47.0643 140.461 46.9509 140.687 46.8603L140.891 46.5884C139.645 43.7557 140.279 41.9881 141.503 41.3762C141.095 40.4924 141.072 40.1525 141.072 40.1525C141.072 40.1525 143.701 40.5831 144.608 40.4245C145.763 40.1979 147.508 40.4698 148.165 41.9881C149.253 42.4187 149.684 43.1212 149.774 43.8463C149.865 44.5488 149.661 45.274 149.48 45.8632C149.457 45.9085 149.457 45.9312 149.434 45.9765C149.434 45.9992 149.412 45.9992 149.412 46.0218C149.389 46.0898 149.367 46.1578 149.344 46.2258C149.321 46.2484 149.321 46.2938 149.299 46.3164C149.276 46.3844 149.253 46.4297 149.231 46.4977V46.5204C149.208 46.5657 149.185 46.611 149.185 46.6564C149.163 46.7243 149.14 46.7697 149.14 46.815C149.163 46.8376 149.163 46.8603 149.163 46.883C149.344 46.9736 149.389 47.1096 149.321 47.5855C149.163 48.8545 149.208 49.625 148.551 49.4437L147.984 50.4635C147.962 50.5768 147.939 50.6221 147.939 50.7127C147.916 50.894 147.916 51.2793 147.916 53.3415C147.916 53.5907 147.984 53.8174 148.12 54.0213C148.256 54.2479 148.46 54.4292 148.709 54.5199H148.732C150.114 55.1091 151.111 55.4943 151.882 55.7889Z" fill="white"/>
<path d="M149.163 46.8143C149.208 46.4971 149.072 46.1118 148.959 45.8172C148.936 45.7719 148.913 45.7266 148.891 45.6813C148.392 44.6842 147.259 44.2536 146.194 44.2083C143.475 44.0723 143.203 44.5935 142.364 43.8004C142.636 44.2083 142.659 44.8201 142.251 45.6133C141.956 46.1571 141.412 46.4064 140.936 46.565C139.69 43.7324 140.325 41.9648 141.548 41.3529C141.14 40.4691 141.118 40.1292 141.118 40.1292C141.118 40.1292 143.746 40.5598 144.653 40.4011C145.809 40.1745 147.554 40.4465 148.211 41.9648C149.299 42.3953 149.729 43.0979 149.82 43.823C149.956 45.0014 149.299 46.2931 149.163 46.8143Z" fill="url(#paint7_linear)"/>
<path d="M148.165 54.0433V54.5418H141.843V53.8846C141.911 53.726 141.956 53.5447 141.956 53.3408V50.8254C141.911 50.78 141.866 50.7121 141.843 50.6667V50.5308C141.979 50.7574 142.16 50.984 142.364 51.1426L144.336 52.525C144.789 52.9102 145.469 52.9329 145.945 52.5476L147.803 50.8933C147.871 50.848 147.939 50.78 147.984 50.7121C147.961 50.8933 147.961 51.2786 147.961 53.3408C147.961 53.5901 148.029 53.8393 148.165 54.0433Z" fill="url(#paint8_linear)"/>
<path d="M153.944 121.348L125.277 92.7036L131.849 86.1318L160.493 114.799L153.944 121.348Z" fill="#858B9B"/>
<path d="M168.221 135.738L146.239 113.756C144.404 111.92 144.404 108.929 146.239 107.094C148.075 105.258 151.066 105.258 152.902 107.094L174.883 129.075C176.719 130.911 176.719 133.902 174.883 135.738C173.048 137.573 170.056 137.573 168.221 135.738Z" fill="#858B9B"/>
<path d="M166.657 137.143L138.376 108.861C137.719 108.204 137.719 107.139 138.376 106.459L145.605 99.2301C146.262 98.5729 147.327 98.5729 148.007 99.2301L176.288 127.512C176.945 128.169 176.945 129.234 176.288 129.914L169.059 137.143C168.379 137.8 167.314 137.8 166.657 137.143Z" fill="url(#paint9_linear)"/>
<path d="M92.8263 0.403809C62.8226 0.403809 38.507 24.7195 38.507 54.7232C38.507 84.7042 62.8226 109.043 92.8037 109.043C122.807 109.043 147.123 84.7269 147.123 54.7232C147.123 24.7195 122.807 0.403809 92.8263 0.403809ZM92.8263 98.9809C68.7373 98.9809 49.2258 79.1522 49.2258 54.7005C49.2258 30.2489 68.7373 10.4428 92.8263 10.4428C116.915 10.4428 136.427 30.2715 136.427 54.7232C136.427 79.1748 116.893 98.9809 92.8263 98.9809Z" fill="url(#paint10_linear)"/>
<defs>
<filter id="filter0_d" x="45.1963" y="9.5498" width="95.532" height="112.12" filterUnits="userSpaceOnUse" color-interpolation-filters="sRGB">
<feFlood flood-opacity="0" result="BackgroundImageFix"/>
<feColorMatrix in="SourceAlpha" type="matrix" values="0 0 0 0 0 0 0 0 0 0 0 0 0 0 0 0 0 0 127 0"/>
<feOffset dy="11"/>
<feGaussianBlur stdDeviation="11"/>
<feColorMatrix type="matrix" values="0 0 0 0 0.397708 0 0 0 0 0.47749 0 0 0 0 0.575 0 0 0 0.27 0"/>
<feBlend mode="normal" in2="BackgroundImageFix" result="effect1_dropShadow"/>
<feBlend mode="normal" in="SourceGraphic" in2="effect1_dropShadow" result="shape"/>
</filter>
<filter id="filter1_d" x="0.485352" y="20.0873" width="79.6011" height="91.0451" filterUnits="userSpaceOnUse" color-interpolation-filters="sRGB">
<feFlood flood-opacity="0" result="BackgroundImageFix"/>
<feColorMatrix in="SourceAlpha" type="matrix" values="0 0 0 0 0 0 0 0 0 0 0 0 0 0 0 0 0 0 127 0"/>
<feOffset dy="11"/>
<feGaussianBlur stdDeviation="11"/>
<feColorMatrix type="matrix" values="0 0 0 0 0.397708 0 0 0 0 0.47749 0 0 0 0 0.575 0 0 0 0.27 0"/>
<feBlend mode="normal" in2="BackgroundImageFix" result="effect1_dropShadow"/>
<feBlend mode="normal" in="SourceGraphic" in2="effect1_dropShadow" result="shape"/>
</filter>
<filter id="filter2_d" x="105.158" y="20.0873" width="79.6011" height="91.0451" filterUnits="userSpaceOnUse" color-interpolation-filters="sRGB">
<feFlood flood-opacity="0" result="BackgroundImageFix"/>
<feColorMatrix in="SourceAlpha" type="matrix" values="0 0 0 0 0 0 0 0 0 0 0 0 0 0 0 0 0 0 127 0"/>
<feOffset dy="11"/>
<feGaussianBlur stdDeviation="11"/>
<feColorMatrix type="matrix" values="0 0 0 0 0.397708 0 0 0 0 0.47749 0 0 0 0 0.575 0 0 0 0.27 0"/>
<feBlend mode="normal" in2="BackgroundImageFix" result="effect1_dropShadow"/>
<feBlend mode="normal" in="SourceGraphic" in2="effect1_dropShadow" result="shape"/>
</filter>
<linearGradient id="paint0_linear" x1="92.9455" y1="18.9741" x2="92.9455" y2="89.4043" gradientUnits="userSpaceOnUse">
<stop stop-color="#FDFEFF"/>
<stop offset="0.9964" stop-color="#ECF0F5"/>
</linearGradient>
<linearGradient id="paint1_linear" x1="86.0972" y1="38.4873" x2="99.9912" y2="38.4873" gradientUnits="userSpaceOnUse">
<stop stop-color="#B0BACC"/>
<stop offset="1" stop-color="#969EAE"/>
</linearGradient>
<linearGradient id="paint2_linear" x1="93.0103" y1="54.5092" x2="93.0103" y2="51.3133" gradientUnits="userSpaceOnUse">
<stop stop-color="white"/>
<stop offset="1" stop-color="#E2E5EC"/>
</linearGradient>
<linearGradient id="paint3_linear" x1="40.2743" y1="29.9991" x2="40.2743" y2="78.6395" gradientUnits="userSpaceOnUse">
<stop stop-color="#FDFEFF"/>
<stop offset="0.9964" stop-color="#ECF0F5"/>
</linearGradient>
<linearGradient id="paint4_linear" x1="35.5822" y1="43.4725" x2="45.1664" y2="43.4725" gradientUnits="userSpaceOnUse">
<stop stop-color="#B0BACC"/>
<stop offset="1" stop-color="#969EAE"/>
</linearGradient>
<linearGradient id="paint5_linear" x1="40.3331" y1="54.5662" x2="40.3331" y2="52.3566" gradientUnits="userSpaceOnUse">
<stop stop-color="white"/>
<stop offset="1" stop-color="#E2E5EC"/>
</linearGradient>
<linearGradient id="paint6_linear" x1="144.947" y1="29.9991" x2="144.947" y2="78.6395" gradientUnits="userSpaceOnUse">
<stop stop-color="#FDFEFF"/>
<stop offset="0.9964" stop-color="#ECF0F5"/>
</linearGradient>
<linearGradient id="paint7_linear" x1="140.255" y1="43.4725" x2="149.84" y2="43.4725" gradientUnits="userSpaceOnUse">
<stop stop-color="#B0BACC"/>
<stop offset="1" stop-color="#969EAE"/>
</linearGradient>
<linearGradient id="paint8_linear" x1="145.006" y1="54.5662" x2="145.006" y2="52.3566" gradientUnits="userSpaceOnUse">
<stop stop-color="white"/>
<stop offset="1" stop-color="#E2E5EC"/>
</linearGradient>
<linearGradient id="paint9_linear" x1="137.865" y1="118.191" x2="176.788" y2="118.191" gradientUnits="userSpaceOnUse">
<stop stop-color="#B0BACC"/>
<stop offset="1" stop-color="#969EAE"/>
</linearGradient>
<linearGradient id="paint10_linear" x1="38.4572" y1="54.735" x2="147.143" y2="54.735" gradientUnits="userSpaceOnUse">
<stop stop-color="#B0BACC"/>
<stop offset="1" stop-color="#969EAE"/>
</linearGradient>
</defs>
</svg>
