<svg width="133" height="112" viewBox="0 0 133 112" fill="none" xmlns="http://www.w3.org/2000/svg">
<path d="M67.1336 102.566C95.1336 102.566 117.834 79.8656 117.834 51.7656C117.834 23.6656 95.1336 0.965576 67.1336 0.965576C39.1336 0.965576 16.4336 23.6656 16.4336 51.7656C16.4336 79.8656 39.1336 102.566 67.1336 102.566Z" fill="#EAEEF9"/>
<path d="M123.634 30.8655C125.898 30.8655 127.734 29.0299 127.734 26.7655C127.734 24.5012 125.898 22.6655 123.634 22.6655C121.369 22.6655 119.534 24.5012 119.534 26.7655C119.534 29.0299 121.369 30.8655 123.634 30.8655Z" fill="#EAEEF9"/>
<path d="M129.633 14.7655C131.18 14.7655 132.433 13.5119 132.433 11.9655C132.433 10.4191 131.18 9.16553 129.633 9.16553C128.087 9.16553 126.833 10.4191 126.833 11.9655C126.833 13.5119 128.087 14.7655 129.633 14.7655Z" fill="#EAEEF9"/>
<path d="M12.9335 33.7655C14.4799 33.7655 15.7335 32.5119 15.7335 30.9655C15.7335 29.4191 14.4799 28.1655 12.9335 28.1655C11.3871 28.1655 10.1335 29.4191 10.1335 30.9655C10.1335 32.5119 11.3871 33.7655 12.9335 33.7655Z" fill="#EAEEF9"/>
<path d="M18.1336 94.6656C21.0055 94.6656 23.3336 92.3375 23.3336 89.4656C23.3336 86.5937 21.0055 84.2656 18.1336 84.2656C15.2617 84.2656 12.9336 86.5937 12.9336 89.4656C12.9336 92.3375 15.2617 94.6656 18.1336 94.6656Z" fill="#EAEEF9"/>
<g filter="url(#filter0_d)">
<path d="M114.134 31.4655H27.4337C25.5337 31.4655 24.0337 29.9655 24.0337 28.0655V8.56553C24.0337 6.66553 25.5337 5.16553 27.4337 5.16553H114.034C115.934 5.16553 117.434 6.66553 117.434 8.56553V28.0655C117.534 29.9655 115.934 31.4655 114.134 31.4655Z" fill="white"/>
</g>
<path d="M45.0337 18.2655C45.0337 20.4655 44.0337 22.4655 42.5337 23.8655C41.2337 25.0655 39.4337 25.7655 37.5337 25.7655C35.6337 25.7655 33.8337 25.0655 32.5337 23.8655C30.9337 22.4655 30.0337 20.4655 30.0337 18.2655C30.0337 14.1655 33.4337 10.7655 37.5337 10.7655C41.6337 10.7655 45.0337 14.1655 45.0337 18.2655Z" fill="#DCE1EE"/>
<path d="M42.5337 23.8655C41.2337 25.0655 39.4337 25.7655 37.5337 25.7655C35.6337 25.7655 33.8337 25.0655 32.5337 23.8655C33.1337 23.6655 33.8337 23.3655 34.7337 22.9655C34.9337 22.8655 35.1337 22.6655 35.2337 22.4655C35.3337 22.3655 35.3337 22.1655 35.3337 22.0655V20.1655L35.2337 20.0655C35.0337 19.8655 34.9337 19.5655 34.9337 19.2655L34.7337 19.1655C34.2337 19.2655 34.3337 18.7655 34.1337 17.7655C34.1337 17.3655 34.1337 17.2655 34.3337 17.1655L34.5337 16.9655C33.6337 14.8655 34.0337 13.5655 35.0337 13.0655C34.7337 12.3655 34.7337 12.1655 34.7337 12.1655C34.7337 12.1655 36.7337 12.4655 37.3337 12.3655C38.2337 12.1655 39.5337 12.3655 40.0337 13.5655C40.8337 13.8655 41.1337 14.3655 41.2337 14.9655C41.3337 15.8655 40.8337 16.8655 40.7337 17.1655C40.8337 17.2655 40.9337 17.3655 40.8337 17.6655C40.7337 18.5655 40.7337 19.1655 40.2337 19.0655L39.8337 19.9655C39.8337 20.0655 39.8337 20.0655 39.8337 20.1655C39.8337 20.2655 39.8337 20.5655 39.8337 22.1655C39.8337 22.3655 39.9337 22.5655 39.9337 22.6655C40.0337 22.8655 40.2337 22.9655 40.3337 23.0655C41.2337 23.3655 41.9337 23.6655 42.5337 23.8655Z" fill="white"/>
<path d="M40.7601 17.2655C40.7601 17.0574 40.656 16.7451 40.5519 16.537V16.4329C40.1356 15.6002 39.3029 15.288 38.4703 15.288C36.3886 15.1839 36.1805 15.6002 35.4519 14.9757C35.6601 15.288 35.6601 15.8084 35.3478 16.4329C35.1397 16.8492 34.7233 17.0574 34.307 17.1615C33.3703 14.9757 33.7866 13.6227 34.8274 13.1023C34.5152 12.3737 34.5152 12.1655 34.5152 12.1655C34.5152 12.1655 36.5968 12.4778 37.2213 12.3737C38.158 12.1655 39.5111 12.3737 40.0315 13.6227C40.8642 13.9349 41.1764 14.4553 41.2805 15.0798C41.3846 15.8084 40.8642 16.8492 40.7601 17.2655Z" fill="#A2ABBC"/>
<path d="M39.9336 22.6656V23.0656H35.2336V22.5656C35.3336 22.4656 35.3336 22.2656 35.3336 22.1656V20.2656L35.2336 20.1656V20.0656C35.3336 20.2656 35.4336 20.3656 35.6336 20.5656L37.1336 21.5656C37.4336 21.8656 37.9336 21.8656 38.3336 21.5656L39.7336 20.3656L39.8336 20.2656C39.8336 20.3656 39.8336 20.6656 39.8336 22.2656C39.7336 22.3656 39.8336 22.4656 39.9336 22.6656Z" fill="url(#paint0_linear)"/>
<path d="M69.6338 16.0655H50.4338C49.9338 16.0655 49.6338 15.6655 49.6338 15.2655V12.7655C49.6338 12.2655 50.0338 11.9655 50.4338 11.9655H69.6338C70.1338 11.9655 70.4338 12.3655 70.4338 12.7655V15.2655C70.4338 15.7655 70.1338 16.0655 69.6338 16.0655Z" fill="#CED6E2"/>
<path d="M92.4338 24.5655H50.4338C49.9338 24.5655 49.6338 24.1655 49.6338 23.7655V21.2655C49.6338 20.7655 50.0338 20.4655 50.4338 20.4655H92.4338C92.9338 20.4655 93.2338 20.8655 93.2338 21.2655V23.7655C93.2338 24.2655 92.8338 24.5655 92.4338 24.5655Z" fill="#CED6E2"/>
<g filter="url(#filter1_d)">
<path d="M114.134 97.0656H27.4337C25.5337 97.0656 24.0337 95.5656 24.0337 93.6656V74.1656C24.0337 72.2656 25.5337 70.7656 27.4337 70.7656H114.034C115.934 70.7656 117.434 72.2656 117.434 74.1656V93.6656C117.534 95.5656 115.934 97.0656 114.134 97.0656Z" fill="white"/>
</g>
<path d="M45.0337 83.8656C45.0337 86.0656 44.0337 88.0656 42.5337 89.4656C41.2337 90.6656 39.4337 91.3656 37.5337 91.3656C35.6337 91.3656 33.8337 90.6656 32.5337 89.4656C30.9337 88.0656 30.0337 86.0656 30.0337 83.8656C30.0337 79.7656 33.4337 76.3656 37.5337 76.3656C41.6337 76.3656 45.0337 79.7656 45.0337 83.8656Z" fill="#DCE1EE"/>
<path d="M42.5337 89.4656C41.2337 90.6656 39.4337 91.3656 37.5337 91.3656C35.6337 91.3656 33.8337 90.6656 32.5337 89.4656C33.1337 89.2656 33.8337 88.9656 34.7337 88.5656C34.9337 88.4656 35.1337 88.2656 35.2337 88.0656C35.3337 87.9656 35.3337 87.7656 35.3337 87.6656V85.7656L35.2337 85.6656C35.0337 85.4656 34.9337 85.1656 34.9337 84.8656L34.7337 84.7656C34.2337 84.8656 34.3337 84.3656 34.1337 83.3656C34.1337 82.9656 34.1337 82.8656 34.3337 82.7656L34.5337 82.5656C33.6337 80.4656 34.0337 79.1656 35.0337 78.6656C34.7337 77.9656 34.7337 77.7656 34.7337 77.7656C34.7337 77.7656 36.7337 78.0656 37.3337 77.9656C38.2337 77.7656 39.5337 77.9656 40.0337 79.1656C40.8337 79.4656 41.1337 79.9656 41.2337 80.5656C41.3337 81.4656 40.8337 82.4656 40.7337 82.7656C40.8337 82.8656 40.9337 82.9656 40.8337 83.2656C40.7337 84.1656 40.7337 84.7656 40.2337 84.6656L39.8337 85.4656C39.8337 85.5656 39.8337 85.5656 39.8337 85.6656C39.8337 85.7656 39.8337 86.0656 39.8337 87.6656C39.8337 87.8656 39.9337 88.0656 39.9337 88.1656C40.0337 88.3656 40.2337 88.4656 40.3337 88.5656C41.2337 89.0656 41.9337 89.2656 42.5337 89.4656Z" fill="white"/>
<path d="M40.7601 82.8656C40.7601 82.6575 40.656 82.3452 40.5519 82.1371V82.033C40.1356 81.2003 39.3029 80.8881 38.4703 80.8881C36.3886 80.784 36.1805 81.2003 35.4519 80.5758C35.6601 80.8881 35.6601 81.4085 35.3478 82.033C35.1397 82.4493 34.7233 82.6575 34.307 82.7616C33.3703 80.5758 33.7866 79.2228 34.8274 78.7024C34.5152 77.9738 34.5152 77.7656 34.5152 77.7656C34.5152 77.7656 36.5968 78.0779 37.2213 77.9738C38.158 77.7656 39.5111 77.9738 40.0315 79.2228C40.8642 79.535 41.1764 80.0554 41.2805 80.6799C41.3846 81.5126 40.8642 82.4493 40.7601 82.8656Z" fill="#A2ABBC"/>
<path d="M39.9336 88.2657V88.6656H35.2336V88.1656C35.3336 88.0656 35.3336 87.8657 35.3336 87.7657V85.8657L35.2336 85.7657V85.6656C35.3336 85.8656 35.4336 85.9656 35.6336 86.1656L37.1336 87.1656C37.4336 87.4656 37.9336 87.4656 38.3336 87.1656L39.7336 85.9657L39.8336 85.8657C39.8336 85.9657 39.8336 86.2657 39.8336 87.8657C39.7336 87.9657 39.8336 88.1657 39.9336 88.2657Z" fill="url(#paint1_linear)"/>
<path d="M69.6338 81.7657H50.4338C49.9338 81.7657 49.6338 81.3657 49.6338 80.9657V78.4657C49.6338 77.9657 50.0338 77.6656 50.4338 77.6656H69.6338C70.1338 77.6656 70.4338 78.0657 70.4338 78.4657V80.9657C70.4338 81.3657 70.1338 81.7657 69.6338 81.7657Z" fill="#CED6E2"/>
<path d="M92.4338 90.2657H50.4338C49.9338 90.2657 49.6338 89.8657 49.6338 89.4657V86.9657C49.6338 86.4657 50.0338 86.1656 50.4338 86.1656H92.4338C92.9338 86.1656 93.2338 86.5657 93.2338 86.9657V89.4657C93.2338 89.8657 92.8338 90.2657 92.4338 90.2657Z" fill="#CED6E2"/>
<g filter="url(#filter2_d)">
<path d="M99.4336 64.2656H12.8336C10.9336 64.2656 9.43359 62.7656 9.43359 60.8656V41.3656C9.43359 39.4656 10.9336 37.9656 12.8336 37.9656H99.4336C101.334 37.9656 102.834 39.4656 102.834 41.3656V60.8656C102.934 62.7656 101.334 64.2656 99.4336 64.2656Z" fill="white"/>
</g>
<path d="M55.0337 48.8656H35.8337C35.3337 48.8656 35.0337 48.4656 35.0337 48.0656V45.5656C35.0337 45.0656 35.4337 44.7656 35.8337 44.7656H55.0337C55.5337 44.7656 55.8337 45.1656 55.8337 45.5656V48.0656C55.8337 48.5656 55.5337 48.8656 55.0337 48.8656Z" fill="#CED6E2"/>
<path d="M77.8337 57.4655H35.8337C35.3337 57.4655 35.0337 57.0655 35.0337 56.6655V54.1655C35.0337 53.6655 35.4337 53.3655 35.8337 53.3655H77.7337C78.2337 53.3655 78.5337 53.7655 78.5337 54.1655V56.6655C78.6337 57.0655 78.2337 57.4655 77.8337 57.4655Z" fill="#CED6E2"/>
<path d="M30.5336 51.0656C30.5336 53.1656 29.6336 55.0656 28.2336 56.4656C28.1336 56.5656 28.1336 56.5656 28.0336 56.6656C26.7336 57.8656 24.9336 58.5656 23.0336 58.5656C21.1336 58.5656 19.4336 57.8656 18.1336 56.7656C18.1336 56.7656 18.1336 56.7656 18.0336 56.7656C16.4336 55.3656 15.4336 53.3656 15.4336 51.0656C15.4336 46.9656 18.8336 43.5656 22.9336 43.5656C27.1336 43.5656 30.5336 46.9656 30.5336 51.0656Z" fill="#DCE1EE"/>
<path d="M28.2043 56.6178C27.9001 55.9079 27.393 55.2995 26.5817 54.8938C26.1761 54.691 25.8719 54.5896 25.3648 54.5896H25.0606C24.3507 54.5896 24.2493 54.4882 24.2493 54.4882V53.2713C25.0606 52.6628 25.6691 51.8515 25.8719 50.9388C26.3789 50.8374 26.6832 50.4318 26.5817 49.9247C26.5817 49.7219 26.3789 49.5191 26.3789 49.3163C26.3789 49.2149 26.3789 49.1135 26.3789 49.012C26.3789 48.9106 26.3789 48.9106 26.3789 48.8092C26.3789 48.7078 26.3789 48.7078 26.3789 48.6064C26.3789 48.2008 26.2775 47.8965 25.9733 47.4909C25.3648 46.3754 24.1479 45.6655 22.8296 45.6655C22.5254 45.6655 22.3225 45.6655 22.0183 45.7669C21.5113 45.8683 21.1056 46.0712 20.7 46.3754C20.5986 46.4768 20.5986 46.4768 20.4972 46.5782C20.4972 46.5782 20.4972 46.5782 20.3957 46.6796C19.9901 47.0853 19.6859 47.5923 19.4831 48.0994C19.2802 48.6064 19.2802 49.2149 19.2802 49.8233C19.2802 49.8233 19.2802 49.8233 19.2802 49.9247C19.2802 50.0261 19.2802 50.0261 19.2802 50.1276C19.2802 50.1276 19.2802 50.229 19.1788 50.229C19.3817 50.0261 19.2802 50.3304 19.3817 50.5332C19.5845 51.0402 19.8887 50.9388 20.2943 51.2431C20.2943 51.2431 20.2943 51.2431 20.1929 51.2431L19.7873 51.3445C17.5563 52.0543 17.3535 54.3868 19.5845 54.8938C19.3817 54.9952 19.2802 55.0966 19.1788 55.0966C18.5704 55.6037 18.1647 56.2121 17.9619 56.8206C19.2802 57.9361 21.0042 58.646 22.931 58.646C24.8578 58.646 26.6832 57.9361 28.0015 56.7192C28.1029 56.8206 28.2043 56.7192 28.2043 56.6178C28.3057 56.6178 28.3057 56.6178 28.2043 56.6178ZM21.9169 54.1839C21.8155 54.0825 21.7141 53.9811 21.7141 53.9811C21.6127 53.8797 21.5113 53.8797 21.4098 53.7783C21.4098 53.7783 21.3084 53.7783 21.3084 53.6769C21.0042 53.4741 20.7 53.2713 20.5986 52.967C20.5986 52.8656 20.7 52.6628 20.9028 52.46C21.0042 52.5614 21.1056 52.6628 21.207 52.8656C21.3084 52.967 21.4098 53.0684 21.5113 53.1698C21.6127 53.1698 21.7141 53.2713 21.7141 53.3727C21.7141 53.3727 21.7141 53.3727 21.8155 53.3727C21.8155 53.3727 21.8155 53.3727 21.9169 53.3727V54.1839V54.1839Z" fill="white"/>
<path d="M25.1837 54.5316C25.0837 54.9316 24.8837 55.2316 24.8837 55.2316L21.0837 54.6316L21.2837 53.6316C21.2837 53.6316 21.3837 53.6316 21.3837 53.7316C21.4837 53.8316 21.5837 53.8316 21.6837 53.9316C21.7837 53.9316 21.7837 54.0316 21.8837 54.1316V53.4316C21.8837 53.4316 21.8837 53.4316 21.7837 53.4316C22.3837 53.7316 23.1837 53.9316 24.2837 53.2316V54.4316C24.3837 54.4316 24.4837 54.5316 25.1837 54.5316Z" fill="url(#paint2_linear)"/>
<path d="M24.3933 48.9541C25.1068 48.9541 25.8202 48.8522 26.4317 48.6483C26.4317 48.6483 26.4317 48.5464 26.5336 48.4445C26.4317 48.1387 26.3297 47.7311 26.1259 47.3234C25.5144 46.2024 24.2914 45.489 22.9665 45.489C22.6608 45.489 22.3675 45.5108 21.9586 45.6127C21.4144 45.779 21.1617 45.9252 21.0328 46.0033C21.0328 46.0033 20.7349 46.2036 20.5206 46.4062C20.3062 46.6088 19.8072 47.3234 19.6033 47.833C19.3995 48.4445 19.2351 48.9642 19.337 49.5757C19.4389 49.5757 19.6033 49.4636 19.7053 49.4636C20.5206 49.056 21.1321 48.5464 21.4378 47.7311C22.2531 48.4445 23.2723 48.8522 24.3933 48.9541Z" fill="#A2ABBC"/>
<path d="M20.9336 52.5656C21.0336 52.6656 21.1336 52.7656 21.2336 52.8656C21.1336 52.7656 21.0336 52.6656 20.9336 52.5656Z" fill="#3973F4"/>
<path d="M22.3337 56.2656C22.0337 56.6656 21.5337 56.6656 21.0337 56.6656C21.5337 56.1656 21.2337 54.6656 19.6337 54.8656C17.3337 54.4656 17.6337 52.0656 19.8337 51.3656L20.2337 51.2656C20.2337 51.2656 20.2337 51.2656 20.3337 51.3656C20.5337 51.8656 20.7337 52.1656 21.0337 52.5656C20.1337 53.3656 21.4337 53.5656 22.0337 54.1656C22.4337 54.3656 22.8337 55.6656 22.3337 56.2656Z" fill="#A2ABBC"/>
<defs>
<filter id="filter0_d" x="15.0337" y="1.16553" width="111.404" height="44.3" filterUnits="userSpaceOnUse" color-interpolation-filters="sRGB">
<feFlood flood-opacity="0" result="BackgroundImageFix"/>
<feColorMatrix in="SourceAlpha" type="matrix" values="0 0 0 0 0 0 0 0 0 0 0 0 0 0 0 0 0 0 127 0"/>
<feOffset dy="5"/>
<feGaussianBlur stdDeviation="4.5"/>
<feColorMatrix type="matrix" values="0 0 0 0 0.397708 0 0 0 0 0.47749 0 0 0 0 0.575 0 0 0 0.17 0"/>
<feBlend mode="normal" in2="BackgroundImageFix" result="effect1_dropShadow"/>
<feBlend mode="normal" in="SourceGraphic" in2="effect1_dropShadow" result="shape"/>
</filter>
<filter id="filter1_d" x="15.0337" y="66.7656" width="111.404" height="44.3" filterUnits="userSpaceOnUse" color-interpolation-filters="sRGB">
<feFlood flood-opacity="0" result="BackgroundImageFix"/>
<feColorMatrix in="SourceAlpha" type="matrix" values="0 0 0 0 0 0 0 0 0 0 0 0 0 0 0 0 0 0 127 0"/>
<feOffset dy="5"/>
<feGaussianBlur stdDeviation="4.5"/>
<feColorMatrix type="matrix" values="0 0 0 0 0.397708 0 0 0 0 0.47749 0 0 0 0 0.575 0 0 0 0.17 0"/>
<feBlend mode="normal" in2="BackgroundImageFix" result="effect1_dropShadow"/>
<feBlend mode="normal" in="SourceGraphic" in2="effect1_dropShadow" result="shape"/>
</filter>
<filter id="filter2_d" x="0.433594" y="33.9656" width="111.404" height="44.3" filterUnits="userSpaceOnUse" color-interpolation-filters="sRGB">
<feFlood flood-opacity="0" result="BackgroundImageFix"/>
<feColorMatrix in="SourceAlpha" type="matrix" values="0 0 0 0 0 0 0 0 0 0 0 0 0 0 0 0 0 0 127 0"/>
<feOffset dy="5"/>
<feGaussianBlur stdDeviation="4.5"/>
<feColorMatrix type="matrix" values="0 0 0 0 0.397708 0 0 0 0 0.47749 0 0 0 0 0.575 0 0 0 0.17 0"/>
<feBlend mode="normal" in2="BackgroundImageFix" result="effect1_dropShadow"/>
<feBlend mode="normal" in="SourceGraphic" in2="effect1_dropShadow" result="shape"/>
</filter>
<linearGradient id="paint0_linear" x1="37.5851" y1="23.0838" x2="37.5851" y2="21.4311" gradientUnits="userSpaceOnUse">
<stop stop-color="white"/>
<stop offset="1" stop-color="#E2E5EC"/>
</linearGradient>
<linearGradient id="paint1_linear" x1="37.5851" y1="88.6839" x2="37.5851" y2="87.0312" gradientUnits="userSpaceOnUse">
<stop stop-color="white"/>
<stop offset="1" stop-color="#E2E5EC"/>
</linearGradient>
<linearGradient id="paint2_linear" x1="23.135" y1="55.2438" x2="23.135" y2="54.142" gradientUnits="userSpaceOnUse">
<stop stop-color="white"/>
<stop offset="1" stop-color="#E2E5EC"/>
</linearGradient>
</defs>
</svg>
