<svg width="173" height="121" viewBox="0 0 173 121" fill="none" xmlns="http://www.w3.org/2000/svg">
<path d="M123.068 24.3367C123.068 36.885 113.089 47.2615 100.676 47.9854C100.189 47.9854 99.7022 47.9854 99.2154 47.9854C95.0776 47.9854 90.9399 46.7788 87.5324 44.8483C80.2305 40.746 75.3625 33.024 75.3625 24.0954C75.3625 18.0626 77.5531 12.5124 81.4475 8.4101C85.8286 3.58384 92.1569 0.446777 99.2154 0.446777C108.464 0.446777 116.497 5.75566 120.391 13.4777C122.095 16.856 123.068 20.4757 123.068 24.3367Z" fill="url(#paint0_linear)"/>
<path opacity="0.1" d="M122.859 24.3368C122.859 36.885 112.88 47.2615 100.467 47.9854C95.842 47.2615 91.4609 46.0549 87.3231 45.0897C80.0212 40.9874 75.1533 33.2653 75.1533 24.3368C75.1533 18.304 77.3439 12.7538 81.2382 8.65145C89.2703 8.41013 98.5194 9.13407 108.012 10.8233C112.393 11.5472 116.531 12.5125 120.425 13.4777C121.885 16.8561 122.859 20.4758 122.859 24.3368Z" fill="black"/>
<path d="M151.962 40.3073C153.799 30.0731 131.149 17.5178 101.373 12.2641C71.5959 7.01049 45.9681 11.048 44.1311 21.2822C42.2941 31.5164 64.9436 44.0718 94.7202 49.3254C124.497 54.5791 150.125 50.5415 151.962 40.3073Z" fill="url(#paint1_linear)"/>
<path d="M93.7816 18.1078C93.9171 16.3804 91.2021 14.7624 87.7176 14.4937C84.2331 14.2251 81.2985 15.4077 81.163 17.135C81.0275 18.8624 83.7425 20.4804 87.227 20.7491C90.7116 21.0177 93.6462 19.8351 93.7816 18.1078Z" fill="white"/>
<path d="M63.1558 22.5443C66.5061 21.5581 68.8189 19.4123 68.3216 17.7515C67.8243 16.0907 64.7051 15.5438 61.3548 16.5299C58.0044 17.5161 55.6916 19.6619 56.189 21.3227C56.6863 22.9836 59.8055 23.5305 63.1558 22.5443Z" fill="white"/>
<path d="M118.397 24.4567C118.703 22.751 116.162 20.8761 112.721 20.269C109.28 19.6619 106.242 20.5525 105.936 22.2582C105.63 23.9639 108.171 25.8388 111.612 26.4459C115.053 27.053 118.091 26.1624 118.397 24.4567Z" fill="white"/>
<path d="M136.874 37.0743C137.675 35.5344 135.806 32.9987 132.7 31.4107C129.593 29.8226 126.426 29.7836 125.625 31.3235C124.824 32.8634 126.693 35.3991 129.8 36.9871C132.906 38.5752 136.073 38.6142 136.874 37.0743Z" fill="white"/>
<path d="M95.0112 32.9789L72.132 32.7375L39.549 93.3418L131.002 102.96L120.811 41.1835L95.0112 32.9789Z" fill="url(#paint2_linear)"/>
<path opacity="0.5" d="M142.956 119.084H25.8826C29.0467 116.248 33.6712 113.413 39.026 111.286C41.9467 110.222 45.3543 108.804 48.7618 108.096C58.9845 105.26 71.3977 103.487 84.5411 103.487C100.362 103.487 114.966 105.969 126.162 109.868C130.056 111.286 133.464 112.704 136.384 114.476C139.062 115.894 141.252 117.312 142.956 119.084Z" fill="url(#paint3_linear)"/>
<path opacity="0.3" d="M50.3829 109.81C50.5362 111.25 48.0273 112.973 45.123 113.283C42.2186 113.592 39.6706 112.65 39.2752 111.236C42.1028 110.207 45.389 108.886 48.7263 108.045C49.7455 108.422 50.3062 109.09 50.3829 109.81Z" fill="url(#paint4_linear)"/>
<path opacity="0.3" d="M70.9108 108.796C74.8091 108.796 77.9693 108.04 77.9693 107.107C77.9693 106.174 74.8091 105.418 70.9108 105.418C67.0125 105.418 63.8523 106.174 63.8523 107.107C63.8523 108.04 67.0125 108.796 70.9108 108.796Z" fill="url(#paint5_linear)"/>
<path opacity="0.3" d="M108.958 108.658C109.038 107.461 105.949 106.283 102.06 106.028C98.17 105.772 94.9519 106.535 94.8719 107.732C94.7919 108.929 97.8803 110.106 101.77 110.362C105.66 110.617 108.878 109.854 108.958 108.658Z" fill="url(#paint6_linear)"/>
<path opacity="0.3" d="M135.755 114.095C134.788 113.984 133.627 114.021 132.203 113.614C128.362 112.928 125.357 111.367 125.495 110.168C125.523 109.929 125.523 109.929 125.793 109.717C129.551 111.122 132.967 112.481 135.755 114.095Z" fill="url(#paint7_linear)"/>
<path d="M120.666 41.8069C121.49 37.2146 111.215 31.5611 97.7167 29.1795C84.2179 26.7978 72.6068 28.5899 71.7825 33.1822C70.9583 37.7744 81.2329 43.4279 94.7316 45.8095C108.23 48.1912 119.841 46.3991 120.666 41.8069Z" fill="url(#paint8_linear)"/>
<path d="M33.2625 64.0466C33.2625 64.0466 24.8549 66.1813 27.4027 67.889C29.9504 69.5114 35.9802 72.3292 41.6702 70.4506C47.3602 68.5721 41.6702 65.9251 41.7551 65.9251C41.84 65.9251 33.2625 64.0466 33.2625 64.0466Z" fill="#CED7E2"/>
<path d="M22.9863 63.3635C26.0437 64.3028 35.4704 62.7658 41.5001 58.838C46.256 64.7297 48.0394 66.2667 49.7379 66.4374C47.1052 69.0844 38.3579 73.3538 33.4322 67.8036C27.6572 71.4753 22.9863 63.3635 22.9863 63.3635Z" fill="#E9EEF8"/>
<path d="M123.971 71.0495C127.198 71.2203 135.946 67.2925 140.702 61.9985C146.816 66.524 148.854 67.5487 150.638 67.2925C148.685 70.5372 142.74 77.6243 134.332 78.1366C128.217 74.5504 123.971 71.0495 123.971 71.0495Z" fill="#E9EEF8"/>
<path d="M96.0029 71.1551C95.3644 67.9871 89.3815 60.4939 83.0697 57.2067C85.9294 50.1575 86.4141 47.9283 85.7217 46.2649C89.3507 47.3483 97.6953 51.3404 100.286 59.3554C98.3357 66.1706 96.0029 71.1551 96.0029 71.1551Z" fill="white"/>
<path d="M171.873 119.084H164.482H11.2686H1.7207" stroke="#D5DAE8" stroke-width="2" stroke-miterlimit="10" stroke-linecap="round" stroke-linejoin="round"/>
<path d="M67.7467 99.6957V104.522H64.8259V109.107H59.2278V104.522H47.058V98.9717L58.2542 83.5277H64.8259V99.6957H67.7467ZM59.4712 89.8018L52.4127 99.6957H59.4712V89.8018Z" fill="url(#paint9_linear)"/>
<path d="M85.2712 109.59C79.4297 109.59 74.3184 104.522 74.3184 96.3174C74.3184 88.1127 79.4297 83.0452 85.2712 83.0452C91.1127 83.0452 96.224 88.1127 96.224 96.3174C96.4674 104.281 91.3561 109.59 85.2712 109.59ZM85.2712 104.522C87.9485 104.522 90.8693 101.868 90.8693 96.0761C90.8693 90.5259 88.1919 87.6301 85.2712 87.6301C82.5938 87.6301 79.6731 90.2846 79.6731 96.0761C79.9165 101.868 82.5938 104.522 85.2712 104.522Z" fill="url(#paint10_linear)"/>
<path d="M123.971 99.6957V104.522H121.05V109.107H115.452V104.522H103.282V98.9717L114.479 83.5277H120.807V99.6957H123.971ZM115.452 89.8018L108.394 99.6957H115.452V89.8018Z" fill="url(#paint11_linear)"/>
<path d="M65.5561 99.6957V104.522H62.6354V109.107H57.0372V104.522H44.8674V98.9717L56.0637 83.5277H62.392V99.6957H65.5561ZM57.2806 89.8018L50.2221 99.6957H57.2806V89.8018Z" fill="url(#paint12_linear)"/>
<path d="M83.0806 109.59C77.2391 109.59 72.1278 104.522 72.1278 96.3174C72.1278 88.1127 77.2391 83.0452 83.0806 83.0452C88.9221 83.0452 94.0335 88.1127 94.0335 96.3174C94.2769 104.281 89.1655 109.59 83.0806 109.59ZM83.0806 104.522C85.758 104.522 88.6788 101.868 88.6788 96.0761C88.6788 90.5259 86.0014 87.6301 83.0806 87.6301C80.4033 87.6301 77.4825 90.2846 77.4825 96.0761C77.7259 101.868 80.4033 104.522 83.0806 104.522Z" fill="url(#paint13_linear)"/>
<path d="M121.781 99.6957V104.522H118.86V109.107H113.262V104.522H101.092V98.9717L112.288 83.5277H118.616V99.6957H121.781ZM113.262 89.8018L106.203 99.6957H113.262V89.8018Z" fill="url(#paint14_linear)"/>
<defs>
<linearGradient id="paint0_linear" x1="99.2191" y1="2.09821" x2="99.2191" y2="28.7812" gradientUnits="userSpaceOnUse">
<stop stop-color="#B0BACC"/>
<stop offset="1" stop-color="#969EAE"/>
</linearGradient>
<linearGradient id="paint1_linear" x1="47.8775" y1="21.9402" x2="108.37" y2="32.7982" gradientUnits="userSpaceOnUse">
<stop stop-color="#E3E7EE"/>
<stop offset="1" stop-color="#D1D6DF"/>
</linearGradient>
<linearGradient id="paint2_linear" x1="85.2813" y1="35.177" x2="85.2813" y2="74.5919" gradientUnits="userSpaceOnUse">
<stop stop-color="#BDC4D1" stop-opacity="0.53"/>
<stop offset="1" stop-color="#5D7CB8" stop-opacity="0"/>
</linearGradient>
<linearGradient id="paint3_linear" x1="84.4194" y1="103.487" x2="84.4194" y2="119.084" gradientUnits="userSpaceOnUse">
<stop stop-color="#B6BFD7"/>
<stop offset="1" stop-color="#838DA7" stop-opacity="0"/>
</linearGradient>
<linearGradient id="paint4_linear" x1="44.6304" y1="108.65" x2="44.9173" y2="111.344" gradientUnits="userSpaceOnUse">
<stop stop-color="#B0BACC"/>
<stop offset="1" stop-color="#969EAE"/>
</linearGradient>
<linearGradient id="paint5_linear" x1="70.9119" y1="105.535" x2="70.9119" y2="107.431" gradientUnits="userSpaceOnUse">
<stop stop-color="#B0BACC"/>
<stop offset="1" stop-color="#969EAE"/>
</linearGradient>
<linearGradient id="paint6_linear" x1="95.3613" y1="107.764" x2="103.267" y2="108.292" gradientUnits="userSpaceOnUse">
<stop stop-color="#B0BACC"/>
<stop offset="1" stop-color="#969EAE"/>
</linearGradient>
<linearGradient id="paint7_linear" x1="130.858" y1="110.414" x2="130.65" y2="112.223" gradientUnits="userSpaceOnUse">
<stop stop-color="#B0BACC"/>
<stop offset="1" stop-color="#969EAE"/>
</linearGradient>
<linearGradient id="paint8_linear" x1="96.2241" y1="43.9119" x2="99.8267" y2="31.4772" gradientUnits="userSpaceOnUse">
<stop stop-color="#B0BACC"/>
<stop offset="1" stop-color="#969EAE"/>
</linearGradient>
<linearGradient id="paint9_linear" x1="57.404" y1="84.4163" x2="57.404" y2="98.7736" gradientUnits="userSpaceOnUse">
<stop stop-color="#D6DCE6"/>
<stop offset="1" stop-color="#C4CBDA"/>
</linearGradient>
<linearGradient id="paint10_linear" x1="85.2771" y1="83.9673" x2="85.2771" y2="98.8664" gradientUnits="userSpaceOnUse">
<stop stop-color="#D6DCE6"/>
<stop offset="1" stop-color="#C4CBDA"/>
</linearGradient>
<linearGradient id="paint11_linear" x1="113.628" y1="84.4163" x2="113.628" y2="98.7736" gradientUnits="userSpaceOnUse">
<stop stop-color="#D6DCE6"/>
<stop offset="1" stop-color="#C4CBDA"/>
</linearGradient>
<linearGradient id="paint12_linear" x1="55.2134" y1="84.4163" x2="55.2134" y2="98.7736" gradientUnits="userSpaceOnUse">
<stop stop-color="#EAEEF5"/>
<stop offset="1" stop-color="#D4DAE4"/>
</linearGradient>
<linearGradient id="paint13_linear" x1="83.0865" y1="83.9673" x2="83.0865" y2="98.8664" gradientUnits="userSpaceOnUse">
<stop stop-color="#EAEEF5"/>
<stop offset="1" stop-color="#D4DAE4"/>
</linearGradient>
<linearGradient id="paint14_linear" x1="111.438" y1="84.4163" x2="111.438" y2="98.7736" gradientUnits="userSpaceOnUse">
<stop stop-color="#EAEEF5"/>
<stop offset="1" stop-color="#D4DAE4"/>
</linearGradient>
</defs>
</svg>
