<svg width="148" height="120" viewBox="0 0 148 120" fill="none" xmlns="http://www.w3.org/2000/svg">
<path d="M147.324 59.9558C147.324 81.6493 135.781 100.648 118.489 111.113C117.771 111.562 117.052 111.966 116.334 112.371L122.936 63.3243C123.071 62.3362 122.352 61.4379 121.409 61.3032C120.421 61.1684 119.523 61.8422 119.388 62.8303L112.471 114.302C110.719 115.11 108.923 115.829 107.126 116.458L112.067 63.2345C112.157 62.2464 111.438 61.393 110.45 61.3032C109.462 61.2134 108.563 61.932 108.519 62.9201L103.398 117.626C101.692 118.075 99.895 118.479 98.1434 118.793L100.883 63.1447C100.928 62.1566 100.165 61.3032 99.1764 61.2583C98.1883 61.2134 97.3349 61.9769 97.29 62.965L94.5053 119.332C92.7986 119.512 91.1368 119.647 89.3851 119.692V63.0998C89.3851 62.1116 88.5767 61.3032 87.5886 61.3032C86.6005 61.3032 85.792 62.1116 85.792 63.0998V119.736C84.22 119.692 82.6929 119.602 81.1658 119.422L78.3812 63.0099C78.3363 62.0218 77.4829 61.2583 76.4948 61.3032C75.5067 61.3481 74.7431 62.2015 74.788 63.1896L77.5278 118.928C75.7312 118.614 73.9796 118.254 72.2728 117.805L67.1077 62.9201C67.0179 61.932 66.1645 61.2134 65.1764 61.3032C64.1883 61.393 63.4697 62.2913 63.5595 63.2345L68.545 116.682C66.7035 116.054 64.9518 115.38 63.2002 114.616L56.2385 62.8752C56.1038 61.8871 55.2055 61.2134 54.2174 61.3481C53.2292 61.4828 52.5555 62.3811 52.6903 63.3692L59.2927 112.73C58.4393 112.281 57.6308 111.832 56.8224 111.338C39.3957 100.873 27.718 81.784 27.718 59.9558C27.718 26.9439 54.4868 0.175049 87.4987 0.175049C120.556 0.175049 147.324 26.9439 147.324 59.9558Z" fill="#EAEEF9"/>
<path d="M105.138 63.492C103.592 42.1549 103.127 32.0062 96.5418 22.1001C96.4586 21.9754 96.2853 21.9476 96.1675 22.0447C94.8781 23.1122 93.4501 25.4692 92.8539 27.9717C90.6356 27.5627 88.4104 27.1398 86.1366 27.2785C84.7433 27.3617 83.3707 27.7221 81.9981 27.9717C81.402 25.4622 79.9809 23.1122 78.6846 22.0447C78.5667 21.9476 78.3934 21.9754 78.3102 22.1001C71.7247 32.0062 71.2602 42.1549 69.7144 63.492L87.426 62.064L105.138 63.492Z" fill="white"/>
<path d="M81.2008 41.6141C79.4401 41.6141 77.818 40.6575 76.9653 39.1185C76.7643 38.7511 76.896 38.2867 77.2634 38.0787C77.6308 37.8777 78.0952 38.0094 78.3032 38.3768C78.8924 39.4305 80.0016 40.089 81.2078 40.089C82.414 40.089 83.5301 39.4305 84.1124 38.3768C84.3134 38.0094 84.7778 37.8777 85.1522 38.0787C85.5196 38.2797 85.6513 38.7442 85.4503 39.1185C84.5837 40.6575 82.9616 41.6141 81.2008 41.6141Z" fill="#989FB0"/>
<path d="M93.6996 41.6141C91.9389 41.6141 90.3167 40.6575 89.4641 39.1185C89.263 38.7511 89.3948 38.2867 89.7622 38.0787C90.1296 37.8777 90.594 38.0094 90.802 38.3768C91.3912 39.4305 92.5004 40.089 93.7066 40.089C94.9128 40.089 96.0288 39.4305 96.6111 38.3768C96.8122 38.0094 97.2766 37.8777 97.651 38.0787C98.0184 38.2797 98.1501 38.7442 97.949 39.1185C97.0825 40.6575 95.4604 41.6141 93.6996 41.6141Z" fill="#989FB0"/>
<path d="M83.142 47.548C83.1074 47.548 83.0658 47.548 83.0242 47.541L75.2394 46.3626C74.8234 46.3002 74.5392 45.912 74.6016 45.496C74.664 45.0801 75.0522 44.7959 75.4681 44.8583L83.2529 46.0368C83.6689 46.0991 83.9531 46.4873 83.8907 46.9033C83.8352 47.2776 83.5094 47.548 83.142 47.548Z" fill="#989FB0"/>
<path d="M76.7435 50.8547C76.3483 50.8547 76.0087 50.5497 75.9809 50.1407C75.9532 49.7178 76.2721 49.3574 76.688 49.3296L83.0864 48.8929C83.5023 48.8652 83.8697 49.1841 83.8974 49.6C83.9252 50.0229 83.6063 50.3833 83.1904 50.4111L76.792 50.8478C76.7781 50.8547 76.7573 50.8547 76.7435 50.8547Z" fill="#989FB0"/>
<path d="M91.7239 47.5481C91.3565 47.5481 91.0307 47.2777 90.9683 46.8964C90.9059 46.4805 91.1901 46.0923 91.6061 46.0299L99.3909 44.8515C99.8068 44.7891 100.195 45.0733 100.257 45.4892C100.32 45.9051 100.036 46.2933 99.6196 46.3557L91.8348 47.5342C91.8002 47.5481 91.7655 47.5481 91.7239 47.5481Z" fill="#989FB0"/>
<path d="M98.1223 50.8546C98.1015 50.8546 98.0877 50.8546 98.0669 50.8546L91.6685 50.4179C91.2456 50.3901 90.9337 50.0227 90.9614 49.6068C90.9892 49.1909 91.3496 48.872 91.7725 48.8997L98.1709 49.3364C98.5937 49.3642 98.9057 49.7316 98.878 50.1475C98.8572 50.5496 98.5244 50.8546 98.1223 50.8546Z" fill="#989FB0"/>
<path d="M88.3964 45.302C88.0082 45.2396 86.8436 45.2396 86.4485 45.302C86.0326 45.3713 85.5127 45.4753 85.679 46.4458C85.7692 46.9726 86.088 47.4371 86.504 47.7837C87.2388 48.3937 87.5993 48.3244 88.1816 47.8946C88.6599 47.548 89.055 47.035 89.159 46.4389C89.3392 45.4684 88.8124 45.3644 88.3964 45.302Z" fill="#989FB0"/>
<path d="M24.6435 8.89311C36.0646 12.5372 46.67 18.9772 54.9762 27.6278C56.64 29.4899 58.4998 31.4637 59.2248 33.8339C60.4945 37.2974 59.4387 41.6522 56.9149 44.2566C54.335 46.9594 50.133 47.9544 46.4661 46.6458C44.1285 45.9648 42.0729 43.8793 41.8101 41.3814C41.7014 38.8409 43.5109 36.3509 45.8783 35.614C48.3579 34.6802 51.0036 35.276 53.1022 36.6033C55.2008 37.9307 56.9065 39.9471 58.1499 42.0911C62.3699 48.8027 63.8009 57.4456 62.0822 65.4661C60.7863 71.3797 57.6987 76.7933 53.4645 81.0311" stroke="#C9D4E2" stroke-width="2" stroke-miterlimit="10" stroke-dasharray="4 4"/>
<path d="M24.0628 3.08332C24.9717 3.99307 24.6899 5.39765 23.3306 6.18777C22.0132 7.13218 21.0182 7.73873 20.151 6.98327C19.34 6.12937 19.9157 4.89238 20.6037 3.45851C21.3621 1.67351 23.0976 2.27199 24.0628 3.08332Z" fill="#DAE2EB"/>
<path d="M19.597 13.1895C20.7591 13.2001 22.1327 12.1573 21.8126 10.6703C21.4507 9.02895 21.2703 7.75207 20.0102 7.68561C18.848 7.675 18.6927 8.63001 17.9343 10.415C17.4422 11.9606 18.2807 13.2215 19.597 13.1895Z" fill="#DAE2EB"/>
<path d="M18.443 6.7918C18.7381 6.04694 19.5228 5.58138 20.2227 5.71969C20.4748 5.73298 20.8247 5.80214 21.0206 5.91386C22.5041 6.49906 23.3987 7.66153 23.0476 8.50481C22.7382 9.50239 21.2536 9.82964 19.9242 9.20188C19.5324 8.97843 19.3365 8.86671 19.0427 8.69913C18.4132 8.20968 18.148 7.53666 18.443 6.7918C18.4992 6.69337 18.443 6.7918 18.443 6.7918Z" fill="#989FB0"/>
<path d="M127.113 56.2728L118.445 111.113C117.726 111.562 117.007 111.966 116.289 112.371C115.031 113.089 113.729 113.718 112.381 114.347C110.63 115.155 108.833 115.874 107.036 116.503C105.824 116.907 104.566 117.311 103.309 117.67C101.602 118.12 99.8052 118.524 98.0536 118.838C96.8409 119.063 95.6282 119.242 94.4155 119.377C92.7088 119.557 91.047 119.692 89.2953 119.736C88.6665 119.736 88.0827 119.781 87.4539 119.781C86.87 119.781 86.2861 119.781 85.7022 119.736C84.1302 119.692 82.6031 119.602 81.076 119.422C79.8634 119.287 78.6507 119.108 77.438 118.928C75.6414 118.614 73.8898 118.254 72.183 117.805C70.9255 117.491 69.7128 117.087 68.4552 116.682C66.6137 116.054 64.862 115.38 63.1104 114.616C61.8079 114.032 60.5054 113.404 59.2029 112.73C58.3495 112.281 57.541 111.832 56.7326 111.338L47.7498 57.8448L57.9453 56.3177H127.113V56.2728Z" fill="url(#paint0_linear)"/>
<path d="M63.2004 114.616C61.8979 114.032 60.5954 113.404 59.2929 112.73L52.6905 63.3244C52.5557 62.3363 53.2295 61.438 54.2176 61.3032C55.2057 61.1685 56.104 61.8422 56.2387 62.8303L63.2004 114.616Z" fill="black"/>
<path d="M72.228 117.805C70.9704 117.491 69.7577 117.087 68.5001 116.682L63.5147 63.2345C63.4248 62.2464 64.1435 61.393 65.1316 61.3032C66.1197 61.2133 67.018 61.932 67.0629 62.9201L72.228 117.805Z" fill="black"/>
<path d="M81.1209 119.422C79.9082 119.287 78.6955 119.108 77.4829 118.928L74.7431 63.1895C74.6982 62.2014 75.4617 61.3481 76.4498 61.3032C77.4379 61.2582 78.2913 62.0218 78.3362 63.0099L81.1209 119.422Z" fill="black"/>
<path d="M122.891 63.3243L116.289 112.371C115.031 113.089 113.729 113.718 112.381 114.347L119.343 62.8752C119.478 61.8871 120.376 61.2134 121.364 61.3481C122.352 61.4379 123.026 62.3362 122.891 63.3243Z" fill="black"/>
<path d="M112.022 63.2795L107.081 116.503C105.869 116.907 104.611 117.311 103.354 117.67L108.474 62.9651C108.564 61.977 109.417 61.2583 110.405 61.3482C111.393 61.438 112.157 62.2914 112.022 63.2795Z" fill="black"/>
<path d="M100.838 63.1895L98.0985 118.838C96.8858 119.063 95.6731 119.242 94.4604 119.377L97.2451 63.0099C97.29 62.0218 98.1434 61.2582 99.1315 61.3032C100.12 61.3481 100.883 62.2014 100.838 63.1895Z" fill="black"/>
<path d="M89.3402 63.0998V119.736C88.7114 119.736 88.1275 119.781 87.4987 119.781C86.9148 119.781 86.331 119.781 85.7471 119.736V63.0998C85.7471 62.1116 86.5555 61.3032 87.5436 61.3032C88.5767 61.3032 89.3402 62.1116 89.3402 63.0998Z" fill="black"/>
<path d="M126.026 61.2112L124.915 64.6283L135.38 68.0296L136.491 64.6125L126.026 61.2112Z" fill="#A9B3C4"/>
<path d="M48.9523 61.2193L38.4875 64.6207L39.5982 68.0377L50.063 64.6364L48.9523 61.2193Z" fill="#A9B3C4"/>
<path d="M63.2004 114.616C61.8979 114.032 60.5954 113.404 59.2929 112.73L52.6905 63.3244C52.5557 62.3363 53.2295 61.438 54.2176 61.3032C55.2057 61.1685 56.104 61.8422 56.2387 62.8303L63.2004 114.616Z" fill="url(#paint1_linear)"/>
<path d="M72.2281 117.805C70.9705 117.491 69.7579 117.087 68.5003 116.682L63.5148 63.2345C63.425 62.2464 64.1436 61.393 65.1317 61.3032C66.1198 61.2134 67.0181 61.932 67.063 62.9201L72.2281 117.805Z" fill="url(#paint2_linear)"/>
<path d="M81.1211 119.422C79.9084 119.287 78.6958 119.108 77.4831 118.928L74.7433 63.1896C74.6984 62.2014 75.4619 61.3481 76.4501 61.3032C77.4382 61.2582 78.2915 62.0218 78.3364 63.0099L81.1211 119.422Z" fill="url(#paint3_linear)"/>
<path d="M89.3404 63.0998V119.736C88.7116 119.736 88.1277 119.781 87.4989 119.781C86.915 119.781 86.3311 119.781 85.7472 119.736V63.0998C85.7472 62.1117 86.5557 61.3032 87.5438 61.3032C88.5768 61.3032 89.3404 62.1117 89.3404 63.0998Z" fill="url(#paint4_linear)"/>
<path d="M100.838 63.1896L98.0986 118.838C96.886 119.063 95.6733 119.242 94.4606 119.377L97.2453 63.0099C97.2902 62.0218 98.1436 61.2582 99.1317 61.3032C100.12 61.3481 100.883 62.2014 100.838 63.1896Z" fill="url(#paint5_linear)"/>
<path d="M112.022 63.2795L107.082 116.503C105.869 116.907 104.611 117.311 103.354 117.67L108.474 62.9651C108.564 61.9769 109.417 61.2583 110.405 61.3481C111.393 61.438 112.157 62.2913 112.022 63.2795Z" fill="url(#paint6_linear)"/>
<path d="M122.891 63.3243L116.289 112.371C115.031 113.089 113.729 113.718 112.381 114.347L119.343 62.8752C119.478 61.8871 120.376 61.2134 121.364 61.3481C122.352 61.4379 123.026 62.3362 122.891 63.3243Z" fill="url(#paint7_linear)"/>
<g filter="url(#filter0_d)">
<path d="M127.293 57.8448H47.7947C46.9413 57.8448 46.2676 57.1711 46.2676 56.3177C46.2676 55.4644 46.9413 54.7906 47.7947 54.7906H127.293C128.146 54.7906 128.82 55.4644 128.82 56.3177C128.82 57.1262 128.146 57.8448 127.293 57.8448Z" fill="url(#paint8_linear)"/>
</g>
<path d="M140.113 33.0404C138.969 32.6774 138.547 31.4074 139.239 29.9842C139.931 28.561 140.466 27.4062 141.696 27.7642C142.755 28.1324 142.837 29.5091 142.93 31.0579C142.963 33.0421 141.086 33.4139 140.113 33.0404Z" fill="#DAE2EB"/>
<path d="M139.118 22.2194C138.025 22.7167 137.511 24.2156 138.449 25.4546C139.564 26.7694 140.228 27.7658 141.402 27.1772C142.495 26.6798 142.18 25.7488 141.894 23.8662C141.548 22.4189 140.211 21.722 139.118 22.2194Z" fill="#DAE2EB"/>
<path d="M141.941 28.9584C141.688 29.0599 141.435 29.1615 141.177 29.177C139.81 29.4317 138.569 28.9017 138.432 28.0464C138.294 27.1911 139.366 26.3496 140.824 26.1757C141.163 26.069 141.507 26.0484 141.77 26.1189C142.378 26.1688 142.925 26.6541 142.966 27.3425C143.094 28.0256 142.619 28.745 141.941 28.9584Z" fill="#989FB0"/>
<path d="M112.617 54.0341C111.719 34.7447 128.096 28.4941 137.131 27.9518" stroke="#C9D4E2" stroke-width="2" stroke-miterlimit="10" stroke-dasharray="4 4"/>
<defs>
<filter id="filter0_d" x="44.2676" y="54.7906" width="86.5522" height="7.05416" filterUnits="userSpaceOnUse" color-interpolation-filters="sRGB">
<feFlood flood-opacity="0" result="BackgroundImageFix"/>
<feColorMatrix in="SourceAlpha" type="matrix" values="0 0 0 0 0 0 0 0 0 0 0 0 0 0 0 0 0 0 127 0"/>
<feOffset dy="2"/>
<feGaussianBlur stdDeviation="1"/>
<feColorMatrix type="matrix" values="0 0 0 0 0.397708 0 0 0 0 0.47749 0 0 0 0 0.575 0 0 0 0.15 0"/>
<feBlend mode="normal" in2="BackgroundImageFix" result="effect1_dropShadow"/>
<feBlend mode="normal" in="SourceGraphic" in2="effect1_dropShadow" result="shape"/>
</filter>
<linearGradient id="paint0_linear" x1="87.4377" y1="58.479" x2="87.4377" y2="94.1257" gradientUnits="userSpaceOnUse">
<stop stop-color="#B0BACC"/>
<stop offset="1" stop-color="#969EAE"/>
</linearGradient>
<linearGradient id="paint1_linear" x1="96.2889" y1="97.6945" x2="98.8051" y2="62.9713" gradientUnits="userSpaceOnUse">
<stop offset="0.869792" stop-color="#7C869B"/>
<stop offset="1" stop-color="#747D8E"/>
</linearGradient>
<linearGradient id="paint2_linear" x1="96.2889" y1="97.6945" x2="98.8051" y2="62.9713" gradientUnits="userSpaceOnUse">
<stop offset="0.869792" stop-color="#7C869B"/>
<stop offset="1" stop-color="#747D8E"/>
</linearGradient>
<linearGradient id="paint3_linear" x1="96.2889" y1="97.6945" x2="98.8051" y2="62.9713" gradientUnits="userSpaceOnUse">
<stop offset="0.869792" stop-color="#7C869B"/>
<stop offset="1" stop-color="#747D8E"/>
</linearGradient>
<linearGradient id="paint4_linear" x1="96.2889" y1="97.6945" x2="98.8051" y2="62.9713" gradientUnits="userSpaceOnUse">
<stop offset="0.869792" stop-color="#7C869B"/>
<stop offset="1" stop-color="#747D8E"/>
</linearGradient>
<linearGradient id="paint5_linear" x1="96.2889" y1="97.6945" x2="98.8051" y2="62.9713" gradientUnits="userSpaceOnUse">
<stop offset="0.869792" stop-color="#7C869B"/>
<stop offset="1" stop-color="#747D8E"/>
</linearGradient>
<linearGradient id="paint6_linear" x1="96.2889" y1="97.6945" x2="98.8051" y2="62.9713" gradientUnits="userSpaceOnUse">
<stop offset="0.869792" stop-color="#7C869B"/>
<stop offset="1" stop-color="#747D8E"/>
</linearGradient>
<linearGradient id="paint7_linear" x1="96.2889" y1="97.6945" x2="98.8051" y2="62.9713" gradientUnits="userSpaceOnUse">
<stop offset="0.869792" stop-color="#7C869B"/>
<stop offset="1" stop-color="#747D8E"/>
</linearGradient>
<linearGradient id="paint8_linear" x1="87.5168" y1="54.72" x2="87.5168" y2="57.8777" gradientUnits="userSpaceOnUse">
<stop stop-color="#CED8EA"/>
<stop offset="0.9964" stop-color="#ADB7C9"/>
</linearGradient>
</defs>
</svg>
