<svg width="149" height="146" viewBox="0 0 149 146" fill="none" xmlns="http://www.w3.org/2000/svg">
<path d="M71.1486 117.948C99.1486 117.948 121.849 95.2475 121.849 67.1475C121.849 39.0475 99.0486 16.3475 71.1486 16.3475C43.1486 16.3475 20.4486 39.0475 20.4486 67.1475C20.4486 95.2475 43.1486 117.948 71.1486 117.948Z" fill="#EAEEF9"/>
<path d="M118.549 33.8475C120.813 33.8475 122.649 32.0119 122.649 29.7475C122.649 27.4832 120.813 25.6475 118.549 25.6475C116.284 25.6475 114.449 27.4832 114.449 29.7475C114.449 32.0119 116.284 33.8475 118.549 33.8475Z" fill="#EAEEF9"/>
<path d="M124.549 17.8475C126.095 17.8475 127.349 16.5939 127.349 15.0475C127.349 13.5011 126.095 12.2475 124.549 12.2475C123.002 12.2475 121.749 13.5011 121.749 15.0475C121.749 16.5939 123.002 17.8475 124.549 17.8475Z" fill="#EAEEF9"/>
<path d="M23.1486 33.7475C24.695 33.7475 25.9486 32.4939 25.9486 30.9475C25.9486 29.4011 24.695 28.1475 23.1486 28.1475C21.6022 28.1475 20.3486 29.4011 20.3486 30.9475C20.3486 32.4939 21.6022 33.7475 23.1486 33.7475Z" fill="#EAEEF9"/>
<path d="M6.04863 87.7475C8.92051 87.7475 11.2486 85.4194 11.2486 82.5475C11.2486 79.6756 8.92051 77.3475 6.04863 77.3475C3.17675 77.3475 0.848633 79.6756 0.848633 82.5475C0.848633 85.4194 3.17675 87.7475 6.04863 87.7475Z" fill="#EAEEF9"/>
<path d="M148.417 51.1978H143.456V46.2366H139.204V51.1978H134.243V55.5919H139.204V60.5531H143.456V55.5919H148.417V51.1978Z" fill="url(#paint0_linear)"/>
<path d="M66.3167 4.25008H62.0757V0.0090332H58.4405V4.25008H54.1995V8.00644H58.4405V12.2475H62.0757V8.00644H66.3167V4.25008Z" fill="url(#paint1_linear)"/>
<path d="M16.4015 46.5619H12.778V42.9383H9.67212V46.5619H6.04858V49.7713H9.67212V53.3948H12.778V49.7713H16.4015V46.5619Z" fill="url(#paint2_linear)"/>
<g filter="url(#filter0_d)">
<path d="M106.813 57.3509L96.7994 32.8993C95.014 28.5524 90.3566 26.0684 85.7768 27.0775L59.928 32.6664C57.7545 33.1322 55.8915 34.607 54.8048 36.5476L30.198 83.4325C29.1889 85.3731 29.8875 87.8571 31.9057 88.8662L76.4619 112.309C78.4025 113.318 80.8864 112.619 81.8956 110.601L106.502 63.716C107.589 61.7754 107.667 59.4467 106.813 57.3509ZM82.0508 47.4926C78.8682 45.8625 77.6262 41.9037 79.334 38.7211C80.9641 35.5385 84.9229 34.2965 88.1055 36.0043C91.2881 37.6344 92.53 41.5932 90.8223 44.7758C89.1922 47.9584 85.2334 49.2003 82.0508 47.4926Z" fill="url(#paint3_linear)"/>
</g>
<path d="M85.2334 41.5156C105.493 31.0363 113.489 15.4339 102.932 8.68064C92.3748 1.92735 81.9732 8.68064 79.334 28.3195" stroke="#ADB6C8" stroke-width="5" stroke-miterlimit="10" stroke-linecap="round" stroke-linejoin="round"/>
<path d="M79.946 75.3437C81.3166 76.1024 83.1417 75.578 83.9004 74.2074C84.6591 72.8369 84.1346 71.0118 82.7641 70.2531C81.3935 69.4944 79.5684 70.0188 78.8097 71.3894C77.9968 72.8578 78.4776 74.5308 79.946 75.3437Z" fill="#AAB2C5"/>
<path d="M72.1357 78.9245L70.8631 78.22C71.0868 75.2743 68.7356 72.8216 65.8336 72.7499C64.7358 72.6538 63.519 73.0034 62.6397 73.6677L61.367 72.9632C64.1239 70.5245 68.5153 70.9091 70.8019 73.7097C71.8473 75.0558 72.4696 76.9351 72.1357 78.9245Z" fill="#AAB2C5"/>
<path d="M60.3667 64.5051C61.7372 65.2638 63.5623 64.7393 64.321 63.3688C65.0797 61.9982 64.5553 60.1731 63.1847 59.4144C61.8142 58.6557 59.9891 59.1801 59.2304 60.5507C58.5154 62.0733 58.9961 63.7463 60.3667 64.5051Z" fill="#AAB2C5"/>
<defs>
<filter id="filter0_d" x="7.74023" y="15.8537" width="121.652" height="129.913" filterUnits="userSpaceOnUse" color-interpolation-filters="sRGB">
<feFlood flood-opacity="0" result="BackgroundImageFix"/>
<feColorMatrix in="SourceAlpha" type="matrix" values="0 0 0 0 0 0 0 0 0 0 0 0 0 0 0 0 0 0 127 0"/>
<feOffset dy="11"/>
<feGaussianBlur stdDeviation="11"/>
<feColorMatrix type="matrix" values="0 0 0 0 0.397708 0 0 0 0 0.47749 0 0 0 0 0.575 0 0 0 0.27 0"/>
<feBlend mode="normal" in2="BackgroundImageFix" result="effect1_dropShadow"/>
<feBlend mode="normal" in="SourceGraphic" in2="effect1_dropShadow" result="shape"/>
</filter>
<linearGradient id="paint0_linear" x1="141.331" y1="46.7339" x2="141.331" y2="54.7696" gradientUnits="userSpaceOnUse">
<stop stop-color="#B0BACC"/>
<stop offset="1" stop-color="#969EAE"/>
</linearGradient>
<linearGradient id="paint1_linear" x1="60.2591" y1="0.434183" x2="60.2591" y2="7.3035" gradientUnits="userSpaceOnUse">
<stop stop-color="#B0BACC"/>
<stop offset="1" stop-color="#969EAE"/>
</linearGradient>
<linearGradient id="paint2_linear" x1="11.2259" y1="43.3016" x2="11.2259" y2="49.1707" gradientUnits="userSpaceOnUse">
<stop stop-color="#B0BACC"/>
<stop offset="1" stop-color="#969EAE"/>
</linearGradient>
<linearGradient id="paint3_linear" x1="68.5411" y1="24.8665" x2="68.5411" y2="113.693" gradientUnits="userSpaceOnUse">
<stop stop-color="#FDFEFF"/>
<stop offset="0.9964" stop-color="#ECF0F5"/>
</linearGradient>
</defs>
</svg>
