<svg width="148" height="146" viewBox="0 0 148 146" fill="none" xmlns="http://www.w3.org/2000/svg">
<path d="M70.3122 117.948C98.3122 117.948 121.012 95.2475 121.012 67.1475C121.012 39.0475 98.2122 16.3475 70.3122 16.3475C42.3122 16.3475 19.6122 39.0475 19.6122 67.1475C19.6122 95.2475 42.3122 117.948 70.3122 117.948Z" fill="#EAEEF9"/>
<path d="M117.712 33.8475C119.977 33.8475 121.812 32.0119 121.812 29.7475C121.812 27.4832 119.977 25.6475 117.712 25.6475C115.448 25.6475 113.612 27.4832 113.612 29.7475C113.612 32.0119 115.448 33.8475 117.712 33.8475Z" fill="#EAEEF9"/>
<path d="M123.712 17.8475C125.259 17.8475 126.512 16.5939 126.512 15.0475C126.512 13.5011 125.259 12.2475 123.712 12.2475C122.166 12.2475 120.912 13.5011 120.912 15.0475C120.912 16.5939 122.166 17.8475 123.712 17.8475Z" fill="#EAEEF9"/>
<path d="M22.3122 33.7475C23.8586 33.7475 25.1122 32.4939 25.1122 30.9475C25.1122 29.4011 23.8586 28.1475 22.3122 28.1475C20.7658 28.1475 19.5122 29.4011 19.5122 30.9475C19.5122 32.4939 20.7658 33.7475 22.3122 33.7475Z" fill="#EAEEF9"/>
<path d="M5.21221 87.7475C8.08409 87.7475 10.4122 85.4194 10.4122 82.5475C10.4122 79.6756 8.08409 77.3475 5.21221 77.3475C2.34033 77.3475 0.012207 79.6756 0.012207 82.5475C0.012207 85.4194 2.34033 87.7475 5.21221 87.7475Z" fill="#EAEEF9"/>
<path d="M147.581 51.1978H142.62V46.2366H138.367V51.1978H133.406V55.5919H138.367V60.5531H142.62V55.5919H147.581V51.1978Z" fill="url(#paint0_linear)"/>
<path d="M65.4803 4.25008H61.2393V0.0090332H57.6041V4.25008H53.363V8.00644H57.6041V12.2475H61.2393V8.00644H65.4803V4.25008Z" fill="url(#paint1_linear)"/>
<path d="M15.5651 46.5619H11.9416V42.9383H8.83569V46.5619H5.21216V49.7713H8.83569V53.3948H11.9416V49.7713H15.5651V46.5619Z" fill="url(#paint2_linear)"/>
<g filter="url(#filter0_d)">
<path d="M105.976 57.3509L95.9629 32.8993C94.1776 28.5524 89.5201 26.0684 84.9403 27.0775L59.0916 32.6664C56.9181 33.1322 55.0551 34.607 53.9684 36.5476L29.3616 83.4325C28.3525 85.3731 29.0511 87.8571 31.0693 88.8662L75.6255 112.309C77.5661 113.318 80.05 112.619 81.0591 110.601L105.666 63.716C106.753 61.7754 106.83 59.4467 105.976 57.3509ZM81.2144 47.4926C78.0318 45.8625 76.7898 41.9037 78.4975 38.7211C80.1276 35.5385 84.0865 34.2965 87.2691 36.0043C90.4516 37.6344 91.6936 41.5932 89.9859 44.7758C88.3558 47.9584 84.397 49.2003 81.2144 47.4926Z" fill="url(#paint3_linear)"/>
</g>
<path d="M84.397 41.5156C104.657 31.0363 112.652 15.4339 102.095 8.68064C91.5384 1.92735 81.1368 8.68064 78.4976 28.3195" stroke="#ADB6C8" stroke-width="5" stroke-miterlimit="10" stroke-linecap="round" stroke-linejoin="round"/>
<path d="M111.57 88.8727C111.248 90.2434 110.764 91.6947 110.2 92.9041C108.668 95.8874 106.249 98.2256 103.266 99.7575C100.202 101.289 96.5734 101.934 92.9451 101.128C84.3985 99.3544 78.9158 90.969 80.6896 82.4224C82.4634 73.8759 90.7681 68.3125 99.3147 70.167C102.379 70.812 105.039 72.3439 107.297 74.4402C111.086 78.2298 112.699 83.7125 111.57 88.8727Z" fill="url(#paint4_linear)"/>
<path d="M101.169 84.2768H97.541V80.6485C97.541 79.9229 96.9766 79.2778 96.1703 79.2778C95.4446 79.2778 94.7996 79.8422 94.7996 80.6485V84.2768H91.1713C90.4457 84.2768 89.8007 84.8412 89.8007 85.6475C89.8007 86.4537 90.3651 87.0181 91.1713 87.0181H94.7996V90.6464C94.7996 91.3721 95.364 92.0171 96.1703 92.0171C96.8959 92.0171 97.541 91.4527 97.541 90.6464V87.0181H101.169C101.895 87.0181 102.54 86.4537 102.54 85.6475C102.54 84.8412 101.895 84.2768 101.169 84.2768Z" fill="white"/>
<defs>
<filter id="filter0_d" x="6.90381" y="15.8537" width="121.652" height="129.913" filterUnits="userSpaceOnUse" color-interpolation-filters="sRGB">
<feFlood flood-opacity="0" result="BackgroundImageFix"/>
<feColorMatrix in="SourceAlpha" type="matrix" values="0 0 0 0 0 0 0 0 0 0 0 0 0 0 0 0 0 0 127 0"/>
<feOffset dy="11"/>
<feGaussianBlur stdDeviation="11"/>
<feColorMatrix type="matrix" values="0 0 0 0 0.397708 0 0 0 0 0.47749 0 0 0 0 0.575 0 0 0 0.27 0"/>
<feBlend mode="normal" in2="BackgroundImageFix" result="effect1_dropShadow"/>
<feBlend mode="normal" in="SourceGraphic" in2="effect1_dropShadow" result="shape"/>
</filter>
<linearGradient id="paint0_linear" x1="140.495" y1="46.7339" x2="140.495" y2="54.7696" gradientUnits="userSpaceOnUse">
<stop stop-color="#B0BACC"/>
<stop offset="1" stop-color="#969EAE"/>
</linearGradient>
<linearGradient id="paint1_linear" x1="59.4226" y1="0.434183" x2="59.4226" y2="7.3035" gradientUnits="userSpaceOnUse">
<stop stop-color="#B0BACC"/>
<stop offset="1" stop-color="#969EAE"/>
</linearGradient>
<linearGradient id="paint2_linear" x1="10.3895" y1="43.3016" x2="10.3895" y2="49.1707" gradientUnits="userSpaceOnUse">
<stop stop-color="#B0BACC"/>
<stop offset="1" stop-color="#969EAE"/>
</linearGradient>
<linearGradient id="paint3_linear" x1="67.7047" y1="24.8665" x2="67.7047" y2="113.693" gradientUnits="userSpaceOnUse">
<stop stop-color="#FDFEFF"/>
<stop offset="0.9964" stop-color="#ECF0F5"/>
</linearGradient>
<linearGradient id="paint4_linear" x1="80.3419" y1="85.6471" x2="111.93" y2="85.6471" gradientUnits="userSpaceOnUse">
<stop stop-color="#B0BACC"/>
<stop offset="1" stop-color="#969EAE"/>
</linearGradient>
</defs>
</svg>
