<svg width="138" height="132" viewBox="0 0 138 132" fill="none" xmlns="http://www.w3.org/2000/svg">
<path d="M70.7591 118.633C98.7591 118.633 121.459 95.9333 121.459 67.8333C121.459 39.7333 98.6591 17.0333 70.7591 17.0333C42.7591 17.0333 20.0591 39.7333 20.0591 67.8333C20.0591 95.9333 42.7591 118.633 70.7591 118.633Z" fill="#EAEEF9"/>
<path d="M124.609 100.61C126.873 100.61 128.709 98.7745 128.709 96.5102C128.709 94.2458 126.873 92.4102 124.609 92.4102C122.345 92.4102 120.509 94.2458 120.509 96.5102C120.509 98.7745 122.345 100.61 124.609 100.61Z" fill="#EAEEF9"/>
<path d="M130.609 84.6102C132.155 84.6102 133.409 83.3566 133.409 81.8102C133.409 80.2638 132.155 79.0102 130.609 79.0102C129.063 79.0102 127.809 80.2638 127.809 81.8102C127.809 83.3566 129.063 84.6102 130.609 84.6102Z" fill="#EAEEF9"/>
<path d="M22.759 34.4333C24.3054 34.4333 25.559 33.1797 25.559 31.6333C25.559 30.0869 24.3054 28.8333 22.759 28.8333C21.2126 28.8333 19.959 30.0869 19.959 31.6333C19.959 33.1797 21.2126 34.4333 22.759 34.4333Z" fill="#EAEEF9"/>
<path d="M5.65898 88.4333C8.53086 88.4333 10.859 86.1051 10.859 83.2333C10.859 80.3614 8.53086 78.0333 5.65898 78.0333C2.7871 78.0333 0.458984 80.3614 0.458984 83.2333C0.458984 86.1051 2.7871 88.4333 5.65898 88.4333Z" fill="#EAEEF9"/>
<path d="M77.1203 86.2514H65.8531C63.2424 86.2514 61.0439 88.6597 61.0439 91.5196V97.6909C61.0439 104.013 65.7157 109.131 71.4867 109.131C77.2577 109.131 81.9294 104.013 81.9294 97.6909V91.5196C81.9294 88.5092 79.731 86.2514 77.1203 86.2514Z" fill="white"/>
<g filter="url(#filter0_d)">
<path fill-rule="evenodd" clip-rule="evenodd" d="M76.1203 27.1171C87.1449 29.6673 95.3569 39.5407 95.3569 51.3398V54.4992C95.3569 81.1475 115.418 98.5926 115.418 98.5926H25.418C25.418 98.5926 45.6164 81.1475 45.6164 54.4992V51.3398C45.6164 39.5407 53.8284 29.6673 64.8531 27.1171V26.0651C64.8531 22.9057 67.3264 20.4332 70.4867 20.4332C73.647 20.4332 76.1203 22.9057 76.1203 26.0651V27.1171Z" fill="url(#paint0_linear)"/>
</g>
<path d="M60.044 65.3508C56.6089 65.3508 53.7234 63.153 52.6242 59.9937C52.3494 59.3068 52.7616 58.62 53.4486 58.3453C54.1356 58.0706 54.8226 58.4827 55.0974 59.1695C55.7845 61.2299 57.8455 62.7409 60.044 62.7409C62.2425 62.7409 64.3036 61.3673 64.9906 59.1695C65.2654 58.4827 65.9524 58.0706 66.6394 58.3453C67.3265 58.62 67.7387 59.3068 67.4639 59.9937C66.3646 63.2904 63.4791 65.3508 60.044 65.3508Z" fill="#ADB6C8"/>
<path d="M80.7921 65.3508C77.3569 65.3508 74.4714 63.153 73.3722 59.9937C73.0974 59.3068 73.5096 58.62 74.1966 58.3453C74.8837 58.0706 75.5707 58.4827 75.8455 59.1695C76.5325 61.2299 78.5936 62.7409 80.7921 62.7409C82.9905 62.7409 85.0516 61.3673 85.7386 59.1695C86.0134 58.4827 86.7005 58.0706 87.3875 58.3453C88.0745 58.62 88.4867 59.3068 88.2119 59.9937C87.1127 63.2904 84.2272 65.3508 80.7921 65.3508Z" fill="#ADB6C8"/>
<path d="M70.4867 82.1695C72.2321 82.1695 73.647 80.755 73.647 79.0101C73.647 77.2653 72.2321 75.8508 70.4867 75.8508C68.7413 75.8508 67.3264 77.2653 67.3264 79.0101C67.3264 80.755 68.7413 82.1695 70.4867 82.1695Z" fill="#ADB6C8"/>
<path d="M87.4209 4.66212V0.0124512H105.391V4.66212L93.129 19.4565H105.602V24.1062H86.7866V19.4565L99.0486 4.66212H87.4209V4.66212Z" fill="url(#paint1_linear)"/>
<path d="M102.22 39.5346V36.5757H113.847V39.5346L106.025 49.0453H114.059V52.0042H101.797V49.0453L109.619 39.5346H102.22Z" fill="url(#paint2_linear)"/>
<defs>
<filter id="filter0_d" x="3.41797" y="9.43321" width="134" height="122.159" filterUnits="userSpaceOnUse" color-interpolation-filters="sRGB">
<feFlood flood-opacity="0" result="BackgroundImageFix"/>
<feColorMatrix in="SourceAlpha" type="matrix" values="0 0 0 0 0 0 0 0 0 0 0 0 0 0 0 0 0 0 127 0"/>
<feOffset dy="11"/>
<feGaussianBlur stdDeviation="11"/>
<feColorMatrix type="matrix" values="0 0 0 0 0.397708 0 0 0 0 0.47749 0 0 0 0 0.575 0 0 0 0.27 0"/>
<feBlend mode="normal" in2="BackgroundImageFix" result="effect1_dropShadow"/>
<feBlend mode="normal" in="SourceGraphic" in2="effect1_dropShadow" result="shape"/>
</filter>
<linearGradient id="paint0_linear" x1="70.3886" y1="18.6253" x2="70.3886" y2="99.4352" gradientUnits="userSpaceOnUse">
<stop stop-color="#FDFEFF"/>
<stop offset="0.9964" stop-color="#ECF0F5"/>
</linearGradient>
<linearGradient id="paint1_linear" x1="96.196" y1="0.849439" x2="96.196" y2="14.373" gradientUnits="userSpaceOnUse">
<stop stop-color="#B0BACC"/>
<stop offset="1" stop-color="#969EAE"/>
</linearGradient>
<linearGradient id="paint2_linear" x1="107.929" y1="37.1117" x2="107.929" y2="45.7715" gradientUnits="userSpaceOnUse">
<stop stop-color="#B0BACC"/>
<stop offset="1" stop-color="#969EAE"/>
</linearGradient>
</defs>
</svg>
