<svg width="128" height="131" viewBox="0 0 128 131" fill="none" xmlns="http://www.w3.org/2000/svg">
<path d="M61.9502 108.123C89.9502 108.123 112.65 85.4229 112.65 57.3229C112.65 29.2229 89.9502 6.52295 61.9502 6.52295C33.9502 6.52295 11.2502 29.2229 11.2502 57.3229C11.2502 85.4229 33.9502 108.123 61.9502 108.123Z" fill="#EAEEF9"/>
<path d="M118.45 36.423C120.715 36.423 122.55 34.5873 122.55 32.323C122.55 30.0586 120.715 28.223 118.45 28.223C116.186 28.223 114.35 30.0586 114.35 32.323C114.35 34.5873 116.186 36.423 118.45 36.423Z" fill="#EAEEF9"/>
<path d="M124.45 20.323C125.997 20.323 127.25 19.0694 127.25 17.523C127.25 15.9766 125.997 14.723 124.45 14.723C122.904 14.723 121.65 15.9766 121.65 17.523C121.65 19.0694 122.904 20.323 124.45 20.323Z" fill="#EAEEF9"/>
<path d="M7.85029 39.323C9.39669 39.323 10.6503 38.0694 10.6503 36.523C10.6503 34.9766 9.39669 33.723 7.85029 33.723C6.3039 33.723 5.05029 34.9766 5.05029 36.523C5.05029 38.0694 6.3039 39.323 7.85029 39.323Z" fill="#EAEEF9"/>
<path d="M13.0503 100.223C15.9222 100.223 18.2503 97.8949 18.2503 95.023C18.2503 92.1511 15.9222 89.823 13.0503 89.823C10.1785 89.823 7.85034 92.1511 7.85034 95.023C7.85034 97.8949 10.1785 100.223 13.0503 100.223Z" fill="#EAEEF9"/>
<path d="M65.9527 11.8345H57.5625V17.2952H65.9527V11.8345Z" fill="#D1D9E7"/>
<path d="M34.1497 22.7122L29.5967 27.2629L32.908 30.5725L37.4611 26.0218L34.1497 22.7122Z" fill="#D5DDEA"/>
<path d="M87.3925 25.6864L91.9456 30.2372L94.9119 27.2723L90.3589 22.7215L87.3925 25.6864Z" fill="#D5DDEA"/>
<path d="M64.8795 98.523C87.1864 98.523 105.27 80.4487 105.27 58.1529C105.27 35.857 87.1864 17.7827 64.8795 17.7827C42.5726 17.7827 24.4893 35.857 24.4893 58.1529C24.4893 80.4487 42.5726 98.523 64.8795 98.523Z" fill="#D5DDEA"/>
<g filter="url(#filter0_d)">
<path d="M62.4405 97.0602C84.7475 97.0602 102.831 78.9859 102.831 56.6901C102.831 34.3943 84.7475 16.3199 62.4405 16.3199C40.1336 16.3199 22.0503 34.3943 22.0503 56.6901C22.0503 78.9859 40.1336 97.0602 62.4405 97.0602Z" fill="url(#paint0_linear)"/>
</g>
<path d="M26.8308 58.9329C25.8552 58.9329 25.0747 58.1528 25.0747 57.1776C25.0747 56.9826 25.0747 56.7876 25.0747 56.6901C25.0747 37.8702 39.1235 21.9757 57.7576 19.6354C58.7332 19.5379 59.6113 20.2204 59.7089 21.1956C59.8064 22.1707 59.1235 23.0483 58.1479 23.1458C41.2698 25.2911 28.5869 39.7229 28.5869 56.6901C28.5869 56.8851 28.5869 56.9826 28.5869 57.1776C28.5869 58.1528 27.8064 58.9329 26.8308 58.9329Z" fill="white"/>
<path opacity="0.3" d="M93.9529 56.6901C93.9529 57.0802 93.9529 57.3727 93.9529 57.7628C93.3675 74.6324 79.5138 88.1866 62.4407 88.1866C45.3675 88.1866 31.5138 74.6324 30.9285 57.7628C30.9285 57.3727 30.9285 57.0802 30.9285 56.6901C30.9285 39.723 44.3919 25.7787 61.2699 25.1936C61.6602 25.1936 62.0504 25.1936 62.4407 25.1936C79.709 25.1936 93.6602 39.0404 93.9529 56.105C93.9529 56.3001 93.9529 56.4951 93.9529 56.6901Z" fill="#CCD5E3"/>
<path d="M93.9529 57.7628C93.3675 74.6324 79.5138 88.1867 62.4407 88.1867C45.3675 88.1867 31.5138 74.6324 30.9285 57.7628C31.5138 40.8931 45.3675 27.3389 62.4407 27.3389C79.5138 27.2414 93.3675 40.7956 93.9529 57.7628Z" fill="white"/>
<path opacity="0.3" d="M70.8307 76.7776H52.7819C51.9039 76.7776 51.2209 76.095 51.2209 75.2174V66.2462C51.2209 65.3686 51.9039 64.686 52.7819 64.686H70.8307C71.7088 64.686 72.3917 65.3686 72.3917 66.2462V75.2174C72.3917 76.095 71.7088 76.7776 70.8307 76.7776Z" fill="#C9D3E1"/>
<path d="M89.7576 58.2503H84.5869C83.7088 58.2503 83.0259 57.5677 83.0259 56.6901C83.0259 55.8125 83.7088 55.1299 84.5869 55.1299H89.7576C90.6356 55.1299 91.3186 55.8125 91.3186 56.6901C91.3186 57.5677 90.5381 58.2503 89.7576 58.2503Z" fill="#CBD4E2"/>
<path d="M38.7332 58.2503H33.5624C32.6844 58.2503 32.0015 57.5677 32.0015 56.6901C32.0015 55.8125 32.6844 55.1299 33.5624 55.1299H38.7332C39.6112 55.1299 40.2941 55.8125 40.2941 56.6901C40.2941 57.5677 39.5137 58.2503 38.7332 58.2503Z" fill="#CBD4E2"/>
<path d="M61.6601 86.4314C60.782 86.4314 60.0991 85.7488 60.0991 84.8712V79.703C60.0991 78.8254 60.782 78.1428 61.6601 78.1428C62.5381 78.1428 63.2211 78.8254 63.2211 79.703V84.8712C63.1235 85.7488 62.4406 86.4314 61.6601 86.4314Z" fill="#CBD4E2"/>
<path d="M61.6601 35.4324C60.782 35.4324 60.0991 34.7498 60.0991 33.8722V28.8015C60.0991 27.9239 60.782 27.2413 61.6601 27.2413C62.5381 27.2413 63.2211 27.9239 63.2211 28.8015V33.9697C63.1235 34.7498 62.4406 35.4324 61.6601 35.4324Z" fill="#CBD4E2"/>
<path d="M62.0505 60.9807C64.6907 60.9807 66.831 58.8414 66.831 56.2025C66.831 53.5637 64.6907 51.4244 62.0505 51.4244C59.4103 51.4244 57.27 53.5637 57.27 56.2025C57.27 58.8414 59.4103 60.9807 62.0505 60.9807Z" fill="#F2F5FC"/>
<path opacity="0.3" d="M82.3429 37.2851C81.7575 36.7975 80.8795 36.7975 80.3917 37.2851L63.5136 55.0324C63.4161 55.0324 63.4161 55.0324 63.3185 55.0324C62.0502 55.0324 61.0746 56.0075 61.0746 57.2752C61.0746 57.3727 61.0746 57.4702 61.0746 57.5677L58.3429 60.3956C57.8551 60.9806 57.8551 61.8582 58.3429 62.3458C58.6356 62.6383 58.9283 62.7358 59.3185 62.7358C59.7088 62.7358 60.099 62.6383 60.2941 62.3458L63.0258 59.5179C63.1234 59.5179 63.221 59.5179 63.221 59.5179C64.4892 59.5179 65.4649 58.5428 65.4649 57.2752C65.4649 57.1776 65.4649 57.0801 65.4649 56.9826L82.3429 39.3329C82.9283 38.6503 82.9283 37.7727 82.3429 37.2851Z" fill="#DAE1ED"/>
<path d="M81.0746 36.2125C80.4892 35.7249 79.6112 35.7249 79.1234 36.2125L62.2453 53.9597C62.1478 53.9597 62.1478 53.9597 62.0502 53.9597C60.7819 53.9597 59.8063 54.9349 59.8063 56.2025C59.8063 56.3 59.8063 56.3976 59.8063 56.4951L57.0746 59.3229C56.5868 59.908 56.5868 60.7856 57.0746 61.2732C57.3673 61.5657 57.66 61.6632 58.0502 61.6632C58.4404 61.6632 58.8307 61.5657 59.0258 61.2732L61.7575 58.4453C61.8551 58.4453 61.9526 58.4453 61.9526 58.4453C63.2209 58.4453 64.1965 57.4702 64.1965 56.2025C64.1965 56.105 64.1965 56.0075 64.1965 55.91L81.0746 38.2602C81.66 37.5776 81.5624 36.7 81.0746 36.2125Z" fill="url(#paint1_linear)"/>
<path d="M69.9528 4.13091V9.39658C69.9528 11.4443 68.2943 13.0045 66.3431 13.0045H57.3674C55.3187 13.0045 53.7577 11.3468 53.7577 9.39658V4.13091C53.7577 2.08315 55.4162 0.522949 57.3674 0.522949H66.3431C68.3918 0.522949 69.9528 2.18066 69.9528 4.13091Z" fill="url(#paint2_linear)"/>
<path opacity="0.1" d="M69.9528 4.13091V9.39658C69.9528 11.4443 68.2943 13.0045 66.3431 13.0045H57.3674C55.3187 13.0045 53.7577 11.3468 53.7577 9.39658V8.42146C54.3431 10.9568 56.587 10.9568 56.587 10.9568H65.8553C67.1235 10.9568 68.1967 9.88414 68.1967 8.61648V4.8135C68.1967 2.18066 67.7089 1.20554 66.3431 0.522949C68.3918 0.522949 69.9528 2.18066 69.9528 4.13091Z" fill="#495A7C"/>
<path d="M55.1233 9.98159C54.8306 9.98159 54.6355 9.78656 54.6355 9.49403V3.44826C54.6355 3.15572 54.8306 2.96069 55.1233 2.96069C55.416 2.96069 55.6111 3.15572 55.6111 3.44826V9.49403C55.5135 9.78656 55.3184 9.98159 55.1233 9.98159Z" fill="#AEB8C9"/>
<path d="M57.3674 9.98159C57.0748 9.98159 56.8796 9.78656 56.8796 9.49403V3.44826C56.8796 3.15572 57.0748 2.96069 57.3674 2.96069C57.6601 2.96069 57.8552 3.15572 57.8552 3.44826V9.49403C57.8552 9.78656 57.6601 9.98159 57.3674 9.98159Z" fill="#AEB8C9"/>
<path d="M59.709 9.98159C59.4163 9.98159 59.2212 9.78656 59.2212 9.49403V3.44826C59.2212 3.15572 59.4163 2.96069 59.709 2.96069C60.0017 2.96069 60.1968 3.15572 60.1968 3.44826V9.49403C60.0992 9.78656 59.9041 9.98159 59.709 9.98159Z" fill="#AEB8C9"/>
<path d="M61.9526 9.98159C61.66 9.98159 61.4648 9.78656 61.4648 9.49403V3.44826C61.4648 3.15572 61.66 2.96069 61.9526 2.96069C62.2453 2.96069 62.4405 3.15572 62.4405 3.44826V9.49403C62.4405 9.78656 62.2453 9.98159 61.9526 9.98159Z" fill="#AEB8C9"/>
<path d="M64.2942 9.98159C64.0015 9.98159 63.8064 9.78656 63.8064 9.49403V3.44826C63.8064 3.15572 64.0015 2.96069 64.2942 2.96069C64.5869 2.96069 64.782 3.15572 64.782 3.44826V9.49403C64.6844 9.78656 64.4893 9.98159 64.2942 9.98159Z" fill="#AEB8C9"/>
<path d="M66.5381 9.98159C66.2454 9.98159 66.0503 9.78656 66.0503 9.49403V3.44826C66.0503 3.15572 66.2454 2.96069 66.5381 2.96069C66.8308 2.96069 67.0259 3.15572 67.0259 3.44826V9.49403C67.0259 9.78656 66.7332 9.98159 66.5381 9.98159Z" fill="#AEB8C9"/>
<path opacity="0.7" d="M68.782 9.98159C68.4893 9.98159 68.2942 9.78656 68.2942 9.49403V3.44826C68.2942 3.15572 68.4893 2.96069 68.782 2.96069C69.0747 2.96069 69.2698 3.15572 69.2698 3.44826V9.49403C69.2698 9.78656 69.0747 9.98159 68.782 9.98159Z" fill="#AEB8C9"/>
<path d="M35.0261 23.1459L30.1481 28.0215C29.0749 29.0941 27.3188 29.0941 26.1481 28.0215L23.3188 25.1936C22.2456 24.121 22.2456 22.3658 23.3188 21.1956L28.1968 16.32C29.27 15.2473 31.0261 15.2473 32.1968 16.32L35.0261 19.1478C36.0993 20.318 36.0993 22.0732 35.0261 23.1459Z" fill="url(#paint3_linear)"/>
<path d="M89.4648 23.1459L94.3428 28.0215C95.416 29.0941 97.1721 29.0941 98.3428 28.0215L101.172 25.1936C102.245 24.121 102.245 22.3658 101.172 21.1956L96.2941 16.32C95.2209 15.2473 93.4648 15.2473 92.2941 16.32L89.4648 19.1478C88.3916 20.318 88.3916 22.0732 89.4648 23.1459Z" fill="url(#paint4_linear)"/>
<path d="M62.0504 56.593C62.2659 56.593 62.4406 56.4183 62.4406 56.2027C62.4406 55.9872 62.2659 55.8125 62.0504 55.8125C61.8349 55.8125 61.6602 55.9872 61.6602 56.2027C61.6602 56.4183 61.8349 56.593 62.0504 56.593Z" fill="white"/>
<path d="M111.764 86.1656C111.364 87.8656 110.764 89.6656 110.064 91.1656C108.164 94.8656 105.164 97.7656 101.464 99.6656C97.6637 101.566 93.1637 102.366 88.6637 101.366C78.0637 99.1656 71.2637 88.7656 73.4637 78.1656C75.6637 67.5656 85.9637 60.6656 96.5637 62.9656C100.364 63.7656 103.664 65.6656 106.464 68.2656C111.164 72.9656 113.164 79.7656 111.764 86.1656Z" fill="url(#paint5_linear)"/>
<path d="M98.8635 80.4656H94.3635V75.9656C94.3635 75.0656 93.6636 74.2656 92.6636 74.2656C91.7636 74.2656 90.9636 74.9656 90.9636 75.9656V80.4656H86.4636C85.5636 80.4656 84.7635 81.1656 84.7635 82.1656C84.7635 83.1656 85.4636 83.8656 86.4636 83.8656H90.9636V88.3656C90.9636 89.2656 91.6636 90.0656 92.6636 90.0656C93.5636 90.0656 94.3635 89.3656 94.3635 88.3656V83.8656H98.8635C99.7635 83.8656 100.564 83.1656 100.564 82.1656C100.564 81.1656 99.7635 80.4656 98.8635 80.4656Z" fill="white"/>
<defs>
<filter id="filter0_d" x="0.050293" y="5.31995" width="124.78" height="124.74" filterUnits="userSpaceOnUse" color-interpolation-filters="sRGB">
<feFlood flood-opacity="0" result="BackgroundImageFix"/>
<feColorMatrix in="SourceAlpha" type="matrix" values="0 0 0 0 0 0 0 0 0 0 0 0 0 0 0 0 0 0 127 0"/>
<feOffset dy="11"/>
<feGaussianBlur stdDeviation="11"/>
<feColorMatrix type="matrix" values="0 0 0 0 0.397708 0 0 0 0 0.47749 0 0 0 0 0.575 0 0 0 0.27 0"/>
<feBlend mode="normal" in2="BackgroundImageFix" result="effect1_dropShadow"/>
<feBlend mode="normal" in="SourceGraphic" in2="effect1_dropShadow" result="shape"/>
</filter>
<linearGradient id="paint0_linear" x1="62.4142" y1="14.4523" x2="62.4142" y2="97.9307" gradientUnits="userSpaceOnUse">
<stop stop-color="#FDFEFF"/>
<stop offset="0.9964" stop-color="#ECF0F5"/>
</linearGradient>
<linearGradient id="paint1_linear" x1="69.0953" y1="36.7436" x2="69.0953" y2="51.2341" gradientUnits="userSpaceOnUse">
<stop stop-color="#B0BACC"/>
<stop offset="1" stop-color="#969EAE"/>
</linearGradient>
<linearGradient id="paint2_linear" x1="61.8565" y1="0.956545" x2="61.8565" y2="7.96234" gradientUnits="userSpaceOnUse">
<stop stop-color="#B0BACC"/>
<stop offset="1" stop-color="#969EAE"/>
</linearGradient>
<linearGradient id="paint3_linear" x1="29.1735" y1="15.9779" x2="29.1735" y2="23.4489" gradientUnits="userSpaceOnUse">
<stop stop-color="#B0BACC"/>
<stop offset="1" stop-color="#969EAE"/>
</linearGradient>
<linearGradient id="paint4_linear" x1="95.3195" y1="15.9779" x2="95.3195" y2="23.4489" gradientUnits="userSpaceOnUse">
<stop stop-color="#B0BACC"/>
<stop offset="1" stop-color="#969EAE"/>
</linearGradient>
<linearGradient id="paint5_linear" x1="73.0324" y1="82.1651" x2="112.209" y2="82.1651" gradientUnits="userSpaceOnUse">
<stop stop-color="#B0BACC"/>
<stop offset="1" stop-color="#969EAE"/>
</linearGradient>
</defs>
</svg>
