<svg width="128" height="131" viewBox="0 0 128 131" fill="none" xmlns="http://www.w3.org/2000/svg">
<path d="M62.4332 108.123C90.4332 108.123 113.133 85.4229 113.133 57.3229C113.133 29.2229 90.4332 6.52295 62.4332 6.52295C34.4332 6.52295 11.7332 29.2229 11.7332 57.3229C11.7332 85.4229 34.4332 108.123 62.4332 108.123Z" fill="#EAEEF9"/>
<path d="M118.933 36.423C121.198 36.423 123.033 34.5873 123.033 32.323C123.033 30.0586 121.198 28.223 118.933 28.223C116.669 28.223 114.833 30.0586 114.833 32.323C114.833 34.5873 116.669 36.423 118.933 36.423Z" fill="#EAEEF9"/>
<path d="M124.933 20.323C126.48 20.323 127.733 19.0694 127.733 17.523C127.733 15.9766 126.48 14.723 124.933 14.723C123.387 14.723 122.133 15.9766 122.133 17.523C122.133 19.0694 123.387 20.323 124.933 20.323Z" fill="#EAEEF9"/>
<path d="M8.3332 39.323C9.8796 39.323 11.1332 38.0694 11.1332 36.523C11.1332 34.9766 9.8796 33.723 8.3332 33.723C6.78681 33.723 5.5332 34.9766 5.5332 36.523C5.5332 38.0694 6.78681 39.323 8.3332 39.323Z" fill="#EAEEF9"/>
<path d="M13.5333 100.223C16.4051 100.223 18.7333 97.8949 18.7333 95.023C18.7333 92.1511 16.4051 89.823 13.5333 89.823C10.6614 89.823 8.33325 92.1511 8.33325 95.023C8.33325 97.8949 10.6614 100.223 13.5333 100.223Z" fill="#EAEEF9"/>
<path d="M66.4357 11.8345H58.0454V17.2952H66.4357V11.8345Z" fill="#D1D9E7"/>
<path d="M34.6327 22.7122L30.0796 27.2629L33.3909 30.5725L37.944 26.0218L34.6327 22.7122Z" fill="#D5DDEA"/>
<path d="M87.8754 25.6864L92.4285 30.2372L95.3948 27.2723L90.8418 22.7215L87.8754 25.6864Z" fill="#D5DDEA"/>
<path d="M65.3624 98.523C87.6693 98.523 105.753 80.4487 105.753 58.1529C105.753 35.857 87.6693 17.7827 65.3624 17.7827C43.0555 17.7827 24.9722 35.857 24.9722 58.1529C24.9722 80.4487 43.0555 98.523 65.3624 98.523Z" fill="#D5DDEA"/>
<g filter="url(#filter0_d)">
<path d="M62.9235 97.0602C85.2304 97.0602 103.314 78.9859 103.314 56.6901C103.314 34.3943 85.2304 16.3199 62.9235 16.3199C40.6165 16.3199 22.5332 34.3943 22.5332 56.6901C22.5332 78.9859 40.6165 97.0602 62.9235 97.0602Z" fill="url(#paint0_linear)"/>
</g>
<path d="M27.3137 58.9329C26.3381 58.9329 25.5576 58.1528 25.5576 57.1776C25.5576 56.9826 25.5576 56.7876 25.5576 56.6901C25.5576 37.8702 39.6064 21.9757 58.2405 19.6354C59.2162 19.5379 60.0942 20.2204 60.1918 21.1956C60.2893 22.1707 59.6064 23.0483 58.6308 23.1458C41.7527 25.2911 29.0698 39.7229 29.0698 56.6901C29.0698 56.8851 29.0698 56.9826 29.0698 57.1776C29.0698 58.1528 28.2893 58.9329 27.3137 58.9329Z" fill="white"/>
<path opacity="0.3" d="M94.4358 56.6901C94.4358 57.0802 94.4358 57.3727 94.4358 57.7628C93.8504 74.6324 79.9967 88.1866 62.9236 88.1866C45.8504 88.1866 31.9967 74.6324 31.4114 57.7628C31.4114 57.3727 31.4114 57.0802 31.4114 56.6901C31.4114 39.723 44.8748 25.7787 61.7528 25.1936C62.1431 25.1936 62.5333 25.1936 62.9236 25.1936C80.1919 25.1936 94.1431 39.0404 94.4358 56.105C94.4358 56.3001 94.4358 56.4951 94.4358 56.6901Z" fill="#CCD5E3"/>
<path d="M94.4358 57.7628C93.8504 74.6324 79.9967 88.1867 62.9236 88.1867C45.8504 88.1867 31.9967 74.6324 31.4114 57.7628C31.9967 40.8931 45.8504 27.3389 62.9236 27.3389C79.9967 27.2414 93.8504 40.7956 94.4358 57.7628Z" fill="white"/>
<path d="M90.2405 58.2503H85.0698C84.1917 58.2503 83.5088 57.5677 83.5088 56.6901C83.5088 55.8125 84.1917 55.1299 85.0698 55.1299H90.2405C91.1185 55.1299 91.8015 55.8125 91.8015 56.6901C91.8015 57.5677 91.021 58.2503 90.2405 58.2503Z" fill="#CBD4E2"/>
<path d="M39.2161 58.2503H34.0454C33.1673 58.2503 32.4844 57.5677 32.4844 56.6901C32.4844 55.8125 33.1673 55.1299 34.0454 55.1299H39.2161C40.0941 55.1299 40.7771 55.8125 40.7771 56.6901C40.7771 57.5677 39.9966 58.2503 39.2161 58.2503Z" fill="#CBD4E2"/>
<path d="M62.143 86.4314C61.265 86.4314 60.582 85.7488 60.582 84.8712V79.703C60.582 78.8254 61.265 78.1428 62.143 78.1428C63.0211 78.1428 63.704 78.8254 63.704 79.703V84.8712C63.6064 85.7488 62.9235 86.4314 62.143 86.4314Z" fill="#CBD4E2"/>
<path d="M62.143 35.4324C61.265 35.4324 60.582 34.7498 60.582 33.8722V28.8015C60.582 27.9239 61.265 27.2413 62.143 27.2413C63.0211 27.2413 63.704 27.9239 63.704 28.8015V33.9697C63.6064 34.7498 62.9235 35.4324 62.143 35.4324Z" fill="#CBD4E2"/>
<path d="M62.5334 60.9807C65.1736 60.9807 67.3139 58.8414 67.3139 56.2025C67.3139 53.5637 65.1736 51.4244 62.5334 51.4244C59.8932 51.4244 57.7529 53.5637 57.7529 56.2025C57.7529 58.8414 59.8932 60.9807 62.5334 60.9807Z" fill="#F2F5FC"/>
<path opacity="0.3" d="M88.4972 58.4742C88.4657 57.7616 87.9121 57.1538 87.2671 57.1235L64.3416 56.6285C64.2801 56.561 64.2801 56.561 64.2186 56.4934C63.4191 55.6155 62.129 55.5549 61.2515 56.3541C61.184 56.4155 61.1165 56.477 61.049 56.5385L57.3693 56.4303C56.6568 56.4615 56.0493 57.0147 56.0193 57.6598C56.0013 58.0468 56.1184 58.3109 56.3644 58.581C56.6104 58.8512 56.9239 59.0598 57.2494 59.0105L60.9291 59.1187C60.9906 59.1862 61.0521 59.2537 61.0521 59.2537C61.8517 60.1317 63.1417 60.1923 64.0192 59.3931C64.0867 59.3316 64.1542 59.2701 64.2217 59.2087L87.0797 59.7651C87.9212 59.74 88.5287 59.1868 88.4972 58.4742Z" fill="#DAE1ED"/>
<path d="M88.4401 56.9201C88.4085 56.2075 87.855 55.5997 87.21 55.5694L64.2845 55.0744C64.223 55.0069 64.223 55.0069 64.1615 54.9393C63.3619 54.0614 62.0719 54.0008 61.1944 54.8C61.1269 54.8615 61.0594 54.9229 60.9919 54.9844L57.3122 54.8762C56.5997 54.9074 55.9922 55.4607 55.9622 56.1057C55.9442 56.4927 56.0612 56.7568 56.3073 57.0269C56.5533 57.2971 56.8668 57.5057 57.1923 57.4564L60.872 57.5646C60.9335 57.6321 60.995 57.6996 60.995 57.6996C61.7945 58.5776 63.0846 58.6382 63.9621 57.839C64.0296 57.7775 64.0971 57.7161 64.1646 57.6546L87.0225 58.2111C87.8641 58.186 88.4101 57.5651 88.4401 56.9201Z" fill="url(#paint1_linear)"/>
<path d="M70.4357 4.13091V9.39658C70.4357 11.4443 68.7772 13.0045 66.826 13.0045H57.8504C55.8016 13.0045 54.2406 11.3468 54.2406 9.39658V4.13091C54.2406 2.08315 55.8991 0.522949 57.8504 0.522949H66.826C68.8747 0.522949 70.4357 2.18066 70.4357 4.13091Z" fill="url(#paint2_linear)"/>
<path opacity="0.1" d="M70.4357 4.13091V9.39658C70.4357 11.4443 68.7772 13.0045 66.826 13.0045H57.8504C55.8016 13.0045 54.2406 11.3468 54.2406 9.39658V8.42146C54.826 10.9568 57.0699 10.9568 57.0699 10.9568H66.3382C67.6065 10.9568 68.6796 9.88414 68.6796 8.61648V4.8135C68.6796 2.18066 68.1918 1.20554 66.826 0.522949C68.8747 0.522949 70.4357 2.18066 70.4357 4.13091Z" fill="#495A7C"/>
<path d="M55.6062 9.98159C55.3135 9.98159 55.1184 9.78656 55.1184 9.49403V3.44826C55.1184 3.15572 55.3135 2.96069 55.6062 2.96069C55.8989 2.96069 56.094 3.15572 56.094 3.44826V9.49403C55.9965 9.78656 55.8013 9.98159 55.6062 9.98159Z" fill="#AEB8C9"/>
<path d="M57.8504 9.98159C57.5577 9.98159 57.3625 9.78656 57.3625 9.49403V3.44826C57.3625 3.15572 57.5577 2.96069 57.8504 2.96069C58.143 2.96069 58.3382 3.15572 58.3382 3.44826V9.49403C58.3382 9.78656 58.143 9.98159 57.8504 9.98159Z" fill="#AEB8C9"/>
<path d="M60.1919 9.98159C59.8992 9.98159 59.7041 9.78656 59.7041 9.49403V3.44826C59.7041 3.15572 59.8992 2.96069 60.1919 2.96069C60.4846 2.96069 60.6797 3.15572 60.6797 3.44826V9.49403C60.5822 9.78656 60.387 9.98159 60.1919 9.98159Z" fill="#AEB8C9"/>
<path d="M62.4356 9.98159C62.1429 9.98159 61.9478 9.78656 61.9478 9.49403V3.44826C61.9478 3.15572 62.1429 2.96069 62.4356 2.96069C62.7282 2.96069 62.9234 3.15572 62.9234 3.44826V9.49403C62.9234 9.78656 62.7282 9.98159 62.4356 9.98159Z" fill="#AEB8C9"/>
<path d="M64.7771 9.98159C64.4844 9.98159 64.2893 9.78656 64.2893 9.49403V3.44826C64.2893 3.15572 64.4844 2.96069 64.7771 2.96069C65.0698 2.96069 65.2649 3.15572 65.2649 3.44826V9.49403C65.1674 9.78656 64.9722 9.98159 64.7771 9.98159Z" fill="#AEB8C9"/>
<path d="M67.021 9.98159C66.7283 9.98159 66.5332 9.78656 66.5332 9.49403V3.44826C66.5332 3.15572 66.7283 2.96069 67.021 2.96069C67.3137 2.96069 67.5088 3.15572 67.5088 3.44826V9.49403C67.5088 9.78656 67.2161 9.98159 67.021 9.98159Z" fill="#AEB8C9"/>
<path opacity="0.7" d="M69.2649 9.98159C68.9722 9.98159 68.7771 9.78656 68.7771 9.49403V3.44826C68.7771 3.15572 68.9722 2.96069 69.2649 2.96069C69.5576 2.96069 69.7527 3.15572 69.7527 3.44826V9.49403C69.7527 9.78656 69.5576 9.98159 69.2649 9.98159Z" fill="#AEB8C9"/>
<path d="M35.509 23.1459L30.631 28.0215C29.5578 29.0941 27.8017 29.0941 26.631 28.0215L23.8017 25.1936C22.7285 24.121 22.7285 22.3658 23.8017 21.1956L28.6798 16.32C29.7529 15.2473 31.509 15.2473 32.6798 16.32L35.509 19.1478C36.5822 20.318 36.5822 22.0732 35.509 23.1459Z" fill="url(#paint3_linear)"/>
<path d="M89.9477 23.1459L94.8257 28.0215C95.8989 29.0941 97.655 29.0941 98.8257 28.0215L101.655 25.1936C102.728 24.121 102.728 22.3658 101.655 21.1956L96.777 16.32C95.7038 15.2473 93.9477 15.2473 92.777 16.32L89.9477 19.1478C88.8745 20.318 88.8745 22.0732 89.9477 23.1459Z" fill="url(#paint4_linear)"/>
<path d="M62.3388 56.5995C62.4747 56.7487 62.7058 56.7595 62.855 56.6237C63.0042 56.4878 63.015 56.2567 62.8791 56.1075C62.7432 55.9583 62.5121 55.9475 62.3629 56.0834C62.2137 56.2193 62.2029 56.4504 62.3388 56.5995Z" fill="white"/>
<path d="M51.3559 52.2703C52.9831 52.2703 54.36 50.8935 54.36 49.2662C54.36 47.639 52.9831 46.2621 51.3559 46.2621C49.7287 46.2621 48.3518 47.639 48.3518 49.2662C48.3518 50.8935 49.7287 52.2703 51.3559 52.2703Z" fill="#989FB0"/>
<path d="M74.3874 52.2703C76.0146 52.2703 77.3915 50.8935 77.3915 49.2662C77.3915 47.639 76.0146 46.2621 74.3874 46.2621C72.7602 46.2621 71.3833 47.639 71.3833 49.2662C71.3833 51.0186 72.7602 52.2703 74.3874 52.2703Z" fill="#989FB0"/>
<path d="M51.2384 39.3274L44.6301 42.8955L45.5222 44.5476L52.1305 40.9795L51.2384 39.3274Z" fill="#989FB0"/>
<path d="M73.9788 39.2798L73.0869 40.932L79.696 44.4994L80.5878 42.8472L73.9788 39.2798Z" fill="#989FB0"/>
<rect x="58.109" y="66.2798" width="9" height="2" fill="#989FB0"/>
<defs>
<filter id="filter0_d" x="0.533203" y="5.31995" width="124.78" height="124.74" filterUnits="userSpaceOnUse" color-interpolation-filters="sRGB">
<feFlood flood-opacity="0" result="BackgroundImageFix"/>
<feColorMatrix in="SourceAlpha" type="matrix" values="0 0 0 0 0 0 0 0 0 0 0 0 0 0 0 0 0 0 127 0"/>
<feOffset dy="11"/>
<feGaussianBlur stdDeviation="11"/>
<feColorMatrix type="matrix" values="0 0 0 0 0.397708 0 0 0 0 0.47749 0 0 0 0 0.575 0 0 0 0.27 0"/>
<feBlend mode="normal" in2="BackgroundImageFix" result="effect1_dropShadow"/>
<feBlend mode="normal" in="SourceGraphic" in2="effect1_dropShadow" result="shape"/>
</filter>
<linearGradient id="paint0_linear" x1="62.8971" y1="14.4523" x2="62.8971" y2="97.9307" gradientUnits="userSpaceOnUse">
<stop stop-color="#FDFEFF"/>
<stop offset="0.9964" stop-color="#ECF0F5"/>
</linearGradient>
<linearGradient id="paint1_linear" x1="80.5203" y1="48.9626" x2="70.4896" y2="58.0978" gradientUnits="userSpaceOnUse">
<stop stop-color="#B0BACC"/>
<stop offset="1" stop-color="#969EAE"/>
</linearGradient>
<linearGradient id="paint2_linear" x1="62.3394" y1="0.956545" x2="62.3394" y2="7.96234" gradientUnits="userSpaceOnUse">
<stop stop-color="#B0BACC"/>
<stop offset="1" stop-color="#969EAE"/>
</linearGradient>
<linearGradient id="paint3_linear" x1="29.6564" y1="15.9779" x2="29.6564" y2="23.4489" gradientUnits="userSpaceOnUse">
<stop stop-color="#B0BACC"/>
<stop offset="1" stop-color="#969EAE"/>
</linearGradient>
<linearGradient id="paint4_linear" x1="95.8024" y1="15.9779" x2="95.8024" y2="23.4489" gradientUnits="userSpaceOnUse">
<stop stop-color="#B0BACC"/>
<stop offset="1" stop-color="#969EAE"/>
</linearGradient>
</defs>
</svg>
