<svg width="129" height="136" viewBox="0 0 129 136" fill="none" xmlns="http://www.w3.org/2000/svg">
<path d="M70.9837 110.397C98.9837 110.397 121.684 87.6969 121.684 59.5969C121.684 31.4969 98.8837 8.79688 70.9837 8.79688C42.9837 8.79688 20.2837 31.4969 20.2837 59.5969C20.2837 87.6969 42.9837 110.397 70.9837 110.397Z" fill="#EAEEF9"/>
<path d="M118.384 26.2967C120.648 26.2967 122.484 24.461 122.484 22.1967C122.484 19.9323 120.648 18.0967 118.384 18.0967C116.119 18.0967 114.284 19.9323 114.284 22.1967C114.284 24.461 116.119 26.2967 118.384 26.2967Z" fill="#EAEEF9"/>
<path d="M124.383 10.2968C125.93 10.2968 127.183 9.04317 127.183 7.49678C127.183 5.95038 125.93 4.69678 124.383 4.69678C122.837 4.69678 121.583 5.95038 121.583 7.49678C121.583 9.04317 122.837 10.2968 124.383 10.2968Z" fill="#EAEEF9"/>
<path d="M22.9836 26.1967C24.53 26.1967 25.7836 24.9431 25.7836 23.3967C25.7836 21.8503 24.53 20.5967 22.9836 20.5967C21.4372 20.5967 20.1836 21.8503 20.1836 23.3967C20.1836 24.9431 21.4372 26.1967 22.9836 26.1967Z" fill="#EAEEF9"/>
<path d="M5.88359 80.1969C8.75547 80.1969 11.0836 77.8688 11.0836 74.9969C11.0836 72.125 8.75547 69.7969 5.88359 69.7969C3.01171 69.7969 0.683594 72.125 0.683594 74.9969C0.683594 77.8688 3.01171 80.1969 5.88359 80.1969Z" fill="#EAEEF9"/>
<g filter="url(#filter0_d)">
<path d="M105.484 34.1967L106.284 98.5967C106.284 100.797 104.484 102.497 102.284 102.497H39.4836C37.2836 102.497 35.4836 100.697 35.4836 98.5967V15.7967C35.4836 13.5967 37.2836 11.8967 39.4836 11.8967H84.9836L105.484 34.1967Z" fill="url(#paint0_linear)"/>
</g>
<path d="M84.9836 11.8967V29.6967C84.9836 32.1967 87.1836 34.1967 89.6836 34.1967H105.484" fill="#D5DDEA"/>
<path d="M62.3919 81.6277L63.3378 83.198C63.5957 83.6648 63.8537 84.1741 64.1117 84.5985H64.1547C64.4126 84.0892 64.6276 83.6224 64.8855 83.1555L65.7454 81.6277H68.97L65.8314 86.1263L69.013 91.0918H65.6594L64.7136 89.3942C64.4556 88.9274 64.1976 88.4605 63.9827 87.9512H63.8537C63.6387 88.4605 63.3808 88.9274 63.1228 89.3942L62.2199 91.0918H58.9524L62.2199 86.2961L59.0384 81.6277H62.3919Z" fill="#7E879F"/>
<path d="M70.2598 77.3413H73.2263V91.0918H70.2598V77.3413Z" fill="#7E879F"/>
<path d="M75.634 88.503C76.193 88.8425 77.3108 89.2245 78.2137 89.2245C79.1165 89.2245 79.5035 88.9274 79.5035 88.4181C79.5035 87.9088 79.2025 87.6966 78.0847 87.3571C76.107 86.6781 75.3331 85.6171 75.3761 84.5136C75.3761 82.7736 76.9239 81.4155 79.2885 81.4155C80.4064 81.4155 81.3952 81.6702 81.9971 81.9672L81.4812 84.0044C81.0513 83.7922 80.2344 83.4526 79.4175 83.4526C78.6866 83.4526 78.2997 83.7497 78.2997 84.2166C78.2997 84.6834 78.6866 84.8956 79.8474 85.32C81.6532 85.9566 82.4271 86.8478 82.4701 88.2484C82.4701 89.9884 81.0513 91.304 78.2997 91.304C77.0528 91.304 75.935 91.0494 75.2041 90.625L75.634 88.503Z" fill="#7E879F"/>
<path d="M92.7981 39.718H78.2204C78.1621 39.718 78.1621 39.718 78.1038 39.718C78.0455 39.718 78.0455 39.718 77.9872 39.718H62.9431C62.8847 39.718 62.8847 39.718 62.8264 39.718C62.7681 39.718 62.7681 39.718 62.7098 39.718H48.5403C46.9659 39.718 45.6831 41.0419 45.6831 42.596V67.807C45.6831 69.4186 46.9659 70.6849 48.5403 70.6849H92.7981C94.3725 70.6849 95.6553 69.4186 95.6553 67.807V42.596C95.6553 41.0419 94.3725 39.718 92.7981 39.718ZM63.7011 62.051V56.4102H77.2292V62.051H63.7011ZM77.2292 63.7778V69.0157H63.7011V63.7778H77.2292ZM77.2292 48.9851V54.6834H63.7011V49.0426H77.2292V48.9851ZM63.7011 47.2583V41.4448H77.2292V47.2583H63.7011ZM93.906 54.6834H78.9785V49.0426H93.906V54.6834ZM61.9518 54.6834H47.4324V49.0426H61.9518V54.6834ZM47.4324 56.4102H61.9518V62.051H47.4324V56.4102ZM78.9785 56.4102H93.906V62.051H78.9785V56.4102ZM93.906 42.596V47.2583H78.9785V41.4448H92.7981C93.4395 41.4448 93.906 41.9628 93.906 42.596ZM48.5403 41.4448H61.9518V47.2583H47.4324V42.596C47.4324 41.9628 47.8989 41.4448 48.5403 41.4448ZM47.4324 67.8645V63.7778H61.9518V69.0157H48.5403C47.9572 69.0157 47.4324 68.4977 47.4324 67.8645ZM92.7981 69.0157H78.9785V63.7778H93.906V67.8645C93.906 68.4977 93.3812 69.0157 92.7981 69.0157Z" fill="#C6D0DE"/>
<defs>
<filter id="filter0_d" x="13.4836" y="0.896729" width="114.8" height="134.6" filterUnits="userSpaceOnUse" color-interpolation-filters="sRGB">
<feFlood flood-opacity="0" result="BackgroundImageFix"/>
<feColorMatrix in="SourceAlpha" type="matrix" values="0 0 0 0 0 0 0 0 0 0 0 0 0 0 0 0 0 0 127 0"/>
<feOffset dy="11"/>
<feGaussianBlur stdDeviation="11"/>
<feColorMatrix type="matrix" values="0 0 0 0 0.397708 0 0 0 0 0.47749 0 0 0 0 0.575 0 0 0 0.27 0"/>
<feBlend mode="normal" in2="BackgroundImageFix" result="effect1_dropShadow"/>
<feBlend mode="normal" in="SourceGraphic" in2="effect1_dropShadow" result="shape"/>
</filter>
<linearGradient id="paint0_linear" x1="70.8606" y1="9.80106" x2="70.8606" y2="103.473" gradientUnits="userSpaceOnUse">
<stop stop-color="#FDFEFF"/>
<stop offset="0.9964" stop-color="#ECF0F5"/>
</linearGradient>
</defs>
</svg>
