<svg width="141" height="121" viewBox="0 0 141 121" fill="none" xmlns="http://www.w3.org/2000/svg">
<path d="M122.768 69.453C122.768 87.5942 113.303 103.566 98.9089 112.44C98.1201 112.834 97.3314 113.426 96.7398 113.82C89.4439 117.961 80.9649 120.327 72.0915 120.327C63.8097 120.327 55.9222 118.355 49.0207 114.806C32.457 106.327 21.2174 89.1717 21.2174 69.453C21.2174 41.4526 43.8938 18.7761 71.8943 18.7761C81.1621 18.7761 89.6411 21.1424 97.1342 25.4805C102.261 28.2411 106.599 31.9876 110.346 36.5229C111.134 37.3116 111.923 38.2976 112.515 39.2835C119.022 47.5653 122.768 58.0162 122.768 69.453Z" fill="#EAEEF9"/>
<path d="M59.2744 18.3816V72.6079C59.2744 77.5375 55.3307 81.4813 50.401 81.4813C50.0066 81.4813 49.6123 81.4813 49.0207 81.4813C44.6826 80.8897 41.3304 77.1432 41.3304 72.6079V18.3816C41.3304 13.8463 44.6826 10.0998 49.0207 9.50822C49.4151 9.50822 49.8095 9.50822 50.401 9.50822C52.9644 9.50822 55.1335 10.4942 56.711 12.0716C58.2885 13.6491 59.2744 15.8182 59.2744 18.3816Z" fill="#A4ADBE"/>
<path d="M77.0212 42.8328V97.0591C77.0212 101.989 73.0775 105.932 68.1478 105.932C67.7535 105.932 67.3591 105.932 66.7675 105.735C62.4294 105.144 59.0773 101.397 59.0773 96.8619V42.8328C59.0773 38.2975 62.4294 34.551 66.7675 33.9594C67.1619 33.9594 67.5563 33.7622 68.1478 33.7622C70.7113 33.7622 72.8803 34.7482 74.4578 36.3257C76.0353 38.1003 77.0212 40.2694 77.0212 42.8328Z" fill="#A4ADBE"/>
<path d="M94.9651 48.7484V102.975C94.9651 107.904 91.0214 111.848 86.0917 111.848C85.6973 111.848 85.303 111.848 84.7114 111.651C80.3733 111.059 77.0211 107.313 77.0211 102.777V48.7484C77.0211 44.2131 80.3733 40.6638 84.7114 39.875C85.1058 39.875 85.5001 39.6778 86.0917 39.6778C88.6551 39.6778 90.8242 40.6638 92.4017 42.2413C93.782 44.0159 94.9651 46.185 94.9651 48.7484Z" fill="#A4ADBE"/>
<path d="M61.6407 103.369C60.6547 104.158 59.4716 104.749 58.2885 105.144C54.542 106.13 50.401 104.749 47.8376 101.594L21.2175 66.6923C17.8653 62.3542 18.654 56.0443 23.1893 52.6921L23.3865 52.4949C25.1612 51.3118 27.1331 50.7202 29.1049 50.7202C32.0627 50.7202 35.0205 52.1005 36.9924 54.664L63.4154 89.566C66.7675 93.9041 65.9788 100.214 61.6407 103.369Z" fill="#7F3F98"/>
<path d="M41.3305 60.3824V93.3125L21.2175 66.6923C17.8653 62.3542 18.654 56.0443 23.1893 52.6921L23.3865 52.4949C25.1612 51.3118 27.1331 50.7202 29.1049 50.7202C32.0627 50.7202 35.0205 52.1005 36.9924 54.664L41.3305 60.3824Z" fill="#A4ADBE"/>
<path d="M112.712 31.3959V70.636C112.712 93.1152 98.9089 96.073 98.9089 101.003V112.439C98.1202 112.834 97.3314 113.425 96.7399 113.82C89.444 117.961 80.9649 120.327 72.0916 120.327C63.8097 120.327 55.9223 118.355 49.0208 114.806V58.6076L89.8383 57.4245H92.0074L92.7961 58.016L94.9652 59.3963V31.3959C94.9652 29.0296 95.9511 26.8606 97.3314 25.2831C98.7117 23.7056 100.684 22.7197 102.853 22.5225C103.247 22.5225 103.641 22.5225 104.036 22.5225C108.768 22.5225 112.712 26.4662 112.712 31.3959Z" fill="#A4ADBE"/>
<path d="M74.4578 42.8328V50.7203H76.824V48.7483C76.824 44.213 80.1762 40.6637 84.5143 39.8749C86.4861 40.0721 88.2608 41.0581 89.4439 42.4384C91.2186 44.0159 92.2045 46.1849 92.2045 48.7483V54.8611H94.9652V31.3959C94.9652 29.0297 95.9511 26.8606 97.3314 25.2831C98.7117 23.7056 100.684 22.7197 102.853 22.5225C106.994 23.1141 110.543 26.8606 110.543 31.3959V70.636C110.543 85.9458 104.14 92.2006 100.056 96.1904C98.1439 98.0588 96.7399 99.4305 96.7399 101.003V113.623C89.444 117.764 80.965 120.13 72.0916 120.13C63.8097 120.13 55.9223 118.158 49.0208 114.609V102.83C48.5983 102.455 48.202 102.043 47.8376 101.594L21.2175 66.6922C17.8653 62.3541 18.654 56.0441 23.1893 52.692L23.3865 52.4948C24.1753 52.2976 25.1612 52.1004 25.9499 52.1004C28.9077 52.1004 31.8655 53.4807 33.8374 56.0441L41.1333 65.6813V18.3816C41.1333 13.8463 44.4855 10.0998 48.8236 9.50824C50.7954 9.70543 52.5701 10.6914 53.7532 12.0717C55.5279 13.6492 56.5138 15.8182 56.5138 18.3816V47.7624H59.0772V42.8328C59.0772 38.2975 62.4294 34.551 66.7675 33.9594C68.7394 34.1566 70.514 35.1425 71.6972 36.5228C73.4718 38.1003 74.4578 40.2694 74.4578 42.8328Z" fill="#C6D0DE"/>
<path d="M77.4714 14.1839C80.085 14.1839 82.2038 12.0651 82.2038 9.45147C82.2038 6.8378 80.085 4.71899 77.4714 4.71899C74.8577 4.71899 72.7389 6.8378 72.7389 9.45147C72.7389 12.0651 74.8577 14.1839 77.4714 14.1839Z" fill="#E7EBF6"/>
<path d="M135.98 60.974C138.594 60.974 140.712 58.8552 140.712 56.2415C140.712 53.6278 138.594 51.509 135.98 51.509C133.366 51.509 131.247 53.6278 131.247 56.2415C131.247 58.8552 133.366 60.974 135.98 60.974Z" fill="#E7EBF6"/>
<path d="M127.084 5.27975H122.123V0.318604H117.87V5.27975H112.909V9.67391H117.87V14.6351H122.123V9.67391H127.084V5.27975Z" fill="url(#paint0_linear)"/>
<path d="M14.4868 28.8792H9.66445V24.0568H5.531V28.8792H0.880859V33.0126H5.531V37.6628H9.66445V33.0126H14.4868V28.8792Z" fill="url(#paint1_linear)"/>
<defs>
<linearGradient id="paint0_linear" x1="119.998" y1="0.81594" x2="119.998" y2="8.85162" gradientUnits="userSpaceOnUse">
<stop stop-color="#B0BACC"/>
<stop offset="1" stop-color="#969EAE"/>
</linearGradient>
<linearGradient id="paint1_linear" x1="7.68491" y1="24.5295" x2="7.68491" y2="32.1664" gradientUnits="userSpaceOnUse">
<stop stop-color="#B0BACC"/>
<stop offset="1" stop-color="#969EAE"/>
</linearGradient>
</defs>
</svg>
