<svg width="120" height="102" viewBox="0 0 120 102" fill="none" xmlns="http://www.w3.org/2000/svg">
<path d="M41.7488 30.356V21.956C41.7488 13.556 48.4488 6.65601 56.9488 6.65601C65.2488 6.65601 72.1488 13.456 72.1488 21.956V30.356" stroke="#C7D2DD" stroke-width="1.8941" stroke-miterlimit="10" stroke-linecap="round" stroke-linejoin="round"/>
<path d="M93.7488 92.756C94.1488 92.556 94.2488 92.356 94.6488 92.256" stroke="#FF78B7" stroke-width="0.6123" stroke-linecap="round" stroke-linejoin="round"/>
<path d="M11.2488 100.756H118.549" stroke="#B1B9CC" stroke-width="2" stroke-miterlimit="10" stroke-linecap="round" stroke-linejoin="round"/>
<path d="M1.44873 100.756H5.84873" stroke="#B1B9CC" stroke-width="2" stroke-miterlimit="10" stroke-linecap="round" stroke-linejoin="round"/>
<path d="M101.349 14.4561H16.1487V99.856H101.349V14.4561Z" fill="white"/>
<path d="M101.549 14.4561H39.8486V99.856H101.449V14.4561H101.549Z" fill="#E6ECF5"/>
<path d="M27.9487 14.4561H16.1487V99.856H27.9487V14.4561Z" fill="url(#paint0_linear)"/>
<path d="M39.8487 99.856H16.1487V99.656L28.1487 87.756L39.8487 99.856Z" fill="#E6ECF5"/>
<path d="M54.7487 33.456C56.4487 33.456 57.8487 32.056 57.8487 30.356C57.8487 28.656 56.4487 27.256 54.7487 27.256C53.0487 27.256 51.6487 28.656 51.6487 30.356C51.6487 32.056 53.0487 33.456 54.7487 33.456Z" fill="#C7D2DD"/>
<path d="M85.1488 33.456C86.8488 33.456 88.2488 32.056 88.2488 30.356C88.2488 28.656 86.8488 27.256 85.1488 27.256C83.4488 27.256 82.0488 28.656 82.0488 30.356C82.1488 32.056 83.4488 33.456 85.1488 33.456Z" fill="#C7D2DD"/>
<path d="M54.7488 30.356V21.956C54.7488 13.556 61.4488 6.65601 69.9488 6.65601C78.2488 6.65601 85.1488 13.456 85.1488 21.956V30.356" stroke="#C7D2DD" stroke-width="1.8941" stroke-miterlimit="10" stroke-linecap="round" stroke-linejoin="round"/>
<path d="M94.8426 3.21566C97.0021 1.83136 99.5492 1.05615 102.262 1.05615C109.682 1.05615 115.718 7.03632 115.718 14.4562C115.718 21.876 109.682 27.8562 102.262 27.8562C94.8426 27.8562 88.8071 21.876 88.8071 14.4562C88.6963 9.74955 91.1327 5.65202 94.8426 3.21566Z" fill="url(#paint1_linear)"/>
<path d="M102.261 20.4561C99.5579 20.4561 97.2606 18.0291 97.2606 14.3886C97.2606 10.7482 99.5579 8.45605 102.261 8.45605C104.963 8.45605 107.261 10.7482 107.261 14.3886C107.261 18.0291 104.963 20.4561 102.261 20.4561ZM102.261 17.6246C103.207 17.6246 104.153 16.6808 104.153 14.3886C104.288 12.2313 103.207 11.1527 102.261 11.1527C101.315 11.1527 100.369 12.2313 100.369 14.3886C100.369 16.6808 101.315 17.6246 102.261 17.6246Z" fill="white"/>
<path d="M60.3248 57.7556C56.8897 57.7556 54.0042 55.5578 52.9049 52.3985C52.6301 51.7117 53.0423 51.0248 53.7294 50.7501C54.4164 50.4754 55.1034 50.8875 55.3782 51.5743C56.0652 53.6347 58.1263 55.1457 60.3248 55.1457C62.5232 55.1457 64.5843 53.7721 65.2713 51.5743C65.5461 50.8875 66.2332 50.4754 66.9202 50.7501C67.6072 51.0248 68.0194 51.7117 67.7446 52.3985C66.6454 55.6952 63.7599 57.7556 60.3248 57.7556Z" fill="#ADB6C8"/>
<path d="M81.0728 57.7556C77.6377 57.7556 74.7522 55.5578 73.653 52.3985C73.3782 51.7117 73.7904 51.0248 74.4774 50.7501C75.1644 50.4754 75.8514 50.8875 76.1263 51.5743C76.8133 53.6347 78.8743 55.1457 81.0728 55.1457C83.2713 55.1457 85.3324 53.7721 86.0194 51.5743C86.2942 50.8875 86.9812 50.4754 87.6682 50.7501C88.3553 51.0248 88.7675 51.7117 88.4927 52.3985C87.3934 55.6952 84.5079 57.7556 81.0728 57.7556Z" fill="#ADB6C8"/>
<path d="M70.7675 74.5743C72.5129 74.5743 73.9278 73.1598 73.9278 71.415C73.9278 69.6701 72.5129 68.2556 70.7675 68.2556C69.0221 68.2556 67.6072 69.6701 67.6072 71.415C67.6072 73.1598 69.0221 74.5743 70.7675 74.5743Z" fill="#ADB6C8"/>
<path d="M13.2109 4.82374V0.174072H31.181V4.82374L18.9191 19.6181H31.3924V24.2678H12.5767V19.6181L24.8386 4.82374H13.2109V4.82374Z" fill="url(#paint2_linear)"/>
<path d="M28.0097 39.6962V36.7373H39.6375V39.6962L31.8152 49.2069H39.8489V52.1658H27.5869V49.2069L35.4092 39.6962H28.0097Z" fill="url(#paint3_linear)"/>
<defs>
<linearGradient id="paint0_linear" x1="22.0226" y1="16.7289" x2="22.0226" y2="98.6271" gradientUnits="userSpaceOnUse">
<stop offset="0.00289017" stop-color="#E6ECF5"/>
<stop offset="1" stop-color="#CED7E2"/>
</linearGradient>
<linearGradient id="paint1_linear" x1="102.263" y1="1.98715" x2="102.263" y2="17.0297" gradientUnits="userSpaceOnUse">
<stop stop-color="#B0BACC"/>
<stop offset="1" stop-color="#969EAE"/>
</linearGradient>
<linearGradient id="paint2_linear" x1="21.986" y1="1.01106" x2="21.986" y2="14.5346" gradientUnits="userSpaceOnUse">
<stop stop-color="#B0BACC"/>
<stop offset="1" stop-color="#969EAE"/>
</linearGradient>
<linearGradient id="paint3_linear" x1="33.7189" y1="37.2733" x2="33.7189" y2="45.9331" gradientUnits="userSpaceOnUse">
<stop stop-color="#B0BACC"/>
<stop offset="1" stop-color="#969EAE"/>
</linearGradient>
</defs>
</svg>
