<svg width="206" height="187" viewBox="0 0 206 187" fill="none" xmlns="http://www.w3.org/2000/svg">
<path d="M64.7603 161.835H181.539" stroke="#CDD6E1" stroke-width="2.38568" stroke-miterlimit="10" stroke-linecap="round" stroke-linejoin="round"/>
<path d="M192.943 161.835H204.508" stroke="#CDD6E1" stroke-width="2.38568" stroke-miterlimit="10" stroke-linecap="round" stroke-linejoin="round"/>
<path d="M67.319 152.962C70.8765 152.962 73.7603 150.078 73.7603 146.521C73.7603 142.964 70.8765 140.08 67.319 140.08C63.7616 140.08 60.8777 142.964 60.8777 146.521C60.8777 150.078 63.7616 152.962 67.319 152.962Z" fill="#B8BFCD"/>
<path d="M130.38 126.163C130.46 136.342 131.335 149.225 131.653 150.576C131.573 152.008 128.551 156.541 126.086 153.439C123.621 150.338 118.611 143.658 120.917 131.093C123.223 118.608 130.38 126.163 130.38 126.163Z" fill="#B8BFCD"/>
<path d="M66.4444 152.883C66.4444 152.962 66.4444 153.121 66.5239 153.201C66.5239 153.28 66.6034 153.439 66.6034 153.519C66.6829 153.598 66.6829 153.757 66.7625 153.837C66.842 153.916 66.9215 153.996 67.001 154.155C67.3986 154.712 68.1143 155.189 68.9096 155.666C69.0686 155.746 69.3072 155.825 69.4662 155.905C69.5457 155.984 69.7048 155.984 69.7843 156.064C69.8638 156.143 70.0229 156.143 70.1024 156.223L70.4205 156.302C70.8181 156.461 71.2952 156.62 71.7724 156.7C72.0109 156.779 72.17 156.779 72.4086 156.859C72.5676 156.859 72.7266 156.938 72.9652 156.938C73.1243 156.938 73.2833 157.018 73.4423 157.018C74.7147 157.177 75.9075 157.097 76.9413 156.7C80.5198 155.348 81.9513 152.565 81.9513 152.565C81.9513 152.565 82.9055 152.803 84.4165 152.962C87.2793 153.36 92.0506 153.916 96.1858 153.519C97.5377 153.36 98.9691 153.042 100.48 152.644C100.957 152.485 101.434 152.326 101.991 152.167C102.945 151.849 103.82 151.451 104.774 151.054C107.319 149.94 109.705 148.429 111.693 146.759C111.931 146.6 112.17 146.362 112.408 146.203C113.522 145.169 114.476 144.056 115.192 142.942C116.623 140.477 118.532 138.41 120.599 136.422C123.701 133.479 127.359 130.934 130.699 128.231C131.732 127.435 132.766 126.561 133.72 125.766C136.822 123.062 139.605 119.881 141.514 116.223C143.581 112.247 143.581 108.509 143.263 104.135C143.263 103.897 142.786 101.034 142.945 100.955C144.376 100 145.41 98.6484 145.967 96.9784C147.239 93.6384 146.762 89.3442 145.251 86.5609C145.092 86.2428 144.933 85.9248 144.774 85.6862C143.184 82.9029 141.275 79.6425 139.128 77.4954L135.231 73.5988H101.355C101.355 73.5988 100.957 75.9049 100.4 78.7677C100.321 79.0063 100.321 79.2449 100.241 79.4834C100.162 79.9606 100.082 80.4377 99.9233 80.9148C99.8438 81.1534 99.8438 81.392 99.7643 81.6305C99.7643 81.7101 99.7643 81.7101 99.6848 81.7896C99.6052 82.3462 99.4462 82.8234 99.3667 83.38C99.0486 84.9705 98.651 86.4019 98.1738 87.5947C98.1738 87.6742 98.0943 87.8333 98.0943 87.9128C97.8558 88.549 97.6172 89.1057 97.3786 89.5033C95.4701 92.6046 85.7683 101.511 79.0089 106.521C72.2495 111.531 69.1481 120.04 67.3986 133.797C65.4106 147.475 66.1263 150.258 66.4444 152.883Z" fill="#EAEEF9"/>
<path d="M127.518 149.145C132.05 148.668 131.971 149.145 134.516 149.145C137.06 149.145 137.696 150.418 138.651 151.61C139.207 152.406 140.003 154.712 140.48 156.382C140.798 157.336 140.082 158.211 139.128 158.29C136.265 158.29 131.096 158.37 130.221 158.29C128.949 158.131 126.245 157.813 125.052 155.825C124.655 155.109 124.416 154.155 124.178 153.201C123.86 151.372 125.052 149.543 126.961 149.304L127.518 149.145Z" fill="#EAEEF9"/>
<path opacity="0.3" d="M66.4444 152.883C66.6829 155.507 73.2038 157.972 76.7823 156.62C80.4403 155.268 81.7922 152.485 81.7922 152.485C81.7922 152.485 89.6649 154.075 96.0267 153.519C100.798 153.042 107.239 150.258 111.454 146.68L110.897 134.592C110.897 134.592 110.42 124.016 109.943 119.404C109.546 114.791 113.204 114.871 113.045 108.907C112.806 102.943 115.192 92.366 118.293 82.6643L107.478 74.553L100.082 78.7677C99.3667 82.7438 98.1738 87.7537 97.14 89.5827C95.2315 92.6841 85.5298 101.591 78.7703 106.601C72.0109 111.61 68.9095 120.119 67.16 133.877C65.4106 147.475 66.1263 150.258 66.4444 152.883Z" fill="#BFC8D6"/>
<path opacity="0.4" d="M66.4443 152.883C66.4443 152.962 66.4443 153.121 66.5239 153.201C66.5239 153.28 66.6034 153.439 66.6034 153.519C66.6829 153.598 66.6829 153.757 66.7624 153.837C66.8419 153.916 66.9215 153.996 67.001 154.155C67.3986 154.712 68.1143 155.189 68.9095 155.666C69.0686 155.745 69.3071 155.825 69.4662 155.905C69.5457 155.984 69.7048 155.984 69.7843 156.064C69.8638 156.143 70.0228 156.143 70.1024 156.223L70.4205 156.302C70.8181 156.461 71.2952 156.62 71.7723 156.7C72.0109 156.779 72.17 156.779 72.4085 156.859C73.5218 156.143 74.158 155.666 74.158 155.666C74.158 155.666 74.158 155.666 73.6809 152.803C73.5218 151.928 73.3628 150.736 73.1242 149.145C72.0904 142.545 72.8061 129.503 81.6331 129.901C80.6789 123.221 84.3369 115.825 87.5178 111.133C90.7782 106.521 93.1639 109.066 95.9472 112.247C96.2653 110.895 94.8339 105.487 93.0844 100.716C96.6629 105.01 99.8438 106.521 108.353 107.316C104.536 104.135 104.058 102.465 100.957 95.4674C104.854 97.2964 112.806 99.4435 117.577 100.08C129.108 101.591 139.048 101.034 145.728 96.9783C147.001 93.6384 146.524 89.3442 145.013 86.5609C144.854 86.2428 144.694 85.9247 144.535 85.6861C138.412 85.1295 127.995 84.2547 118.213 83.38C111.056 82.7438 104.218 82.1076 99.6052 81.71C99.6052 81.7895 99.6052 81.7895 99.5257 81.8691C99.4462 82.4257 99.2871 82.9029 99.2076 83.4595C98.8895 85.05 98.4919 86.4814 98.0148 87.6742C98.0148 87.7537 97.9352 87.9128 97.9352 87.9923C97.6967 88.6285 97.4581 89.1851 97.2195 89.5827C95.311 92.6841 85.6093 101.591 78.8498 106.601C72.0904 111.61 68.9891 120.119 67.2396 133.877C65.4105 147.475 66.1262 150.258 66.4443 152.883Z" fill="#BFC8D6"/>
<path d="M112.17 157.575C112.17 157.575 111.534 147.952 111.454 146.68C111.375 145.805 106.206 149.94 101.434 141.113C96.6629 132.286 95.9472 130.696 96.1062 128.469C94.6748 139.682 99.1281 147.237 100.003 151.292C100.878 155.348 101.673 155.189 101.673 155.189L109.705 156.779L112.17 157.575Z" fill="#B8BFCD"/>
<path d="M104.218 151.054C108.75 150.497 108.671 151.054 111.215 151.054C113.76 151.054 114.396 152.406 115.351 153.678C115.907 154.473 116.703 157.018 117.18 158.847C117.498 159.881 116.782 160.835 115.828 160.835C112.965 160.835 106.603 160.755 105.728 160.676C104.456 160.517 102.945 160.278 101.832 158.131C101.434 157.336 101.196 156.302 100.957 155.268C100.639 153.28 101.832 151.372 103.74 151.054H104.218Z" fill="#EAEEF9"/>
<path d="M83.5416 152.406C85.6092 153.678 86.802 156.7 87.4382 158.847C87.7563 159.881 87.0406 160.835 86.0863 160.835C83.2235 160.835 76.8617 160.755 75.987 160.676C70.9771 160.04 70.4204 154.553 74.2375 152.406C76.6232 150.974 81.156 150.895 83.5416 152.406Z" fill="#EAEEF9"/>
<path d="M138.61 90.5601C137.901 91.2235 137.103 91.8195 136.293 92.3367C135.191 93.0563 133.999 93.7085 132.795 94.2819C129.106 96.0133 125.181 97.2162 121.031 97.4069C117.601 97.5751 113.957 97.3723 110.595 96.3259C109.425 96.0109 108.233 95.5384 107.199 95.0435C101.239 92.1187 97.8426 89.7116 97.3711 83.0313C96.8996 76.3511 97.2038 71.1666 97.2038 71.1666C97.2039 70.6043 97.8113 69.7946 97.9801 69.2886C98.295 68.6813 98.52 68.0066 98.835 67.3993C99.3862 66.1961 100.005 64.9028 100.646 63.767C102.063 61.3155 103.852 59.2127 106.124 57.6835C109.79 55.2323 114.233 54.2769 118.585 53.8164C121.745 53.4456 125.018 53.2998 128.189 54.1324C130.944 54.8638 133.306 56.2136 135.42 58.0807C137.714 60.0828 139.513 62.5572 141.526 64.8404C141.526 64.8404 143.268 69.7327 144.685 76.2782C146.101 82.8236 143.503 86.006 138.61 90.5601Z" fill="#EAEEF9"/>
<path d="M112.149 80.199C111.316 81.1211 110.54 84.1237 105.963 83.0098C99.463 81.367 98.9467 73.2472 101.972 70.2448C107.382 64.8136 113.905 66.0515 115.704 71.8997C117.558 78.1416 113.825 78.4335 112.149 80.199Z" fill="#BFC8D6"/>
<path d="M99.4431 60.9665C101.187 58.5488 103.762 59.1451 102.873 61.9228C101.422 66.3874 98.52 68.5688 98.293 84.9882C98.2252 87.8897 88.3068 81.9955 87.8919 71.7726C87.7797 69.8608 90.0853 69.1301 90.0853 69.1301C91.4686 68.6916 96.6985 64.8123 99.4431 60.9665Z" fill="#989FB0"/>
<path d="M135.495 87.8717C135.776 89.8398 135.495 91.8079 134.775 93.5172C133.819 94.1356 132.773 94.6866 131.727 95.2375C128.488 96.7441 125.024 97.8008 121.515 97.9803C118.568 98.1599 115.318 97.9008 112.383 97.0345C111.034 95.4599 110.213 93.6492 109.91 91.5236C108.988 85.0682 113.993 79.0521 121.079 78.0408C128.085 77.0407 134.574 81.4163 135.495 87.8717Z" fill="#BFC8D6"/>
<path d="M108.483 79.8388C111.048 79.4727 112.831 77.0963 112.465 74.5311C112.098 71.9659 109.722 70.1831 107.157 70.5493C104.592 70.9154 102.809 73.2918 103.175 75.857C103.541 78.4222 105.918 80.2049 108.483 79.8388Z" fill="white"/>
<path d="M112.06 75.0707C112.341 77.0388 110.923 78.928 108.955 79.2089C106.987 79.4898 105.098 78.0726 104.817 76.1045C105.177 76.3744 105.604 76.5544 106.076 76.487C106.942 76.3634 107.629 75.5425 107.494 74.5978C107.37 73.7318 106.56 73.1244 105.683 73.1693C106.234 72.5283 107.055 72.0898 107.921 71.9662C109.968 71.6741 111.767 73.0239 112.06 75.0707Z" fill="#989FB0"/>
<path d="M134.304 76.1531C136.87 75.787 138.652 73.4106 138.286 70.8454C137.92 68.2802 135.544 66.4975 132.978 66.8636C130.413 67.2297 128.631 69.6061 128.997 72.1713C129.363 74.7365 131.739 76.5192 134.304 76.1531Z" fill="white"/>
<path d="M129.536 72.5762C129.817 74.5443 131.707 75.9616 133.675 75.6807C135.643 75.3998 137.06 73.5106 136.779 71.5425C136.509 71.9023 136.149 72.1947 135.677 72.2621C134.811 72.3857 133.923 71.7895 133.788 70.8448C133.664 69.9789 134.271 69.1692 135.126 68.9669C134.418 68.5057 133.507 68.3144 132.641 68.438C130.673 68.7189 129.244 70.5294 129.536 72.5762Z" fill="#989FB0"/>
<path d="M121.191 78.828C120.561 78.9179 119.943 79.0865 119.335 79.3339C118.582 79.6824 117.457 80.2446 117.603 81.268C117.783 82.5276 120.943 83.2815 121.73 83.1691C122.518 83.0568 125.352 81.5276 125.161 80.1893C124.981 78.9297 123.744 78.7046 122.698 78.6933C122.214 78.682 121.652 78.6819 121.191 78.828Z" fill="#989FB0"/>
<path d="M122.011 82.8881L121.719 82.5282L121.539 82.9556C121.539 82.9556 121.696 85.7446 121.19 86.7005C121.662 87.1954 122.056 87.1392 122.202 87.038C122.45 87.083 122.843 87.0268 123.079 86.4308C122.495 85.711 122.011 82.8881 122.011 82.8881Z" fill="#989FB0"/>
<path d="M105.92 65.2634C104.863 65.7356 103.963 66.1853 103.266 66.9275C102.569 67.6697 102.074 68.7043 101.905 69.7726C101.916 69.8513 101.837 69.8626 101.759 69.8738C101.68 69.8851 101.669 69.8063 101.669 69.8063C101.59 69.2553 101.736 68.5917 101.905 68.0857C102.063 67.5009 102.389 66.9724 102.805 66.5113C103.221 66.0503 103.649 65.668 104.166 65.3531C104.694 65.117 105.313 64.9484 105.887 65.0272C105.977 65.0947 106.067 65.1622 105.92 65.2634C105.999 65.2522 105.999 65.2522 105.92 65.2634Z" fill="#989FB0"/>
<path d="M132.608 61.4542C133.755 61.6118 134.745 61.7919 135.622 62.3093C136.499 62.8268 137.264 63.6816 137.725 64.66C137.736 64.7388 137.815 64.7275 137.893 64.7163C137.972 64.7051 137.961 64.6263 137.961 64.6263C137.882 64.0753 137.556 63.4792 137.252 63.0405C136.938 62.5232 136.477 62.107 135.948 61.7808C135.419 61.4546 134.902 61.2071 134.317 61.0496C133.744 60.9708 133.103 60.982 132.574 61.2181C132.507 61.308 132.518 61.3868 132.608 61.4542C132.608 61.4542 132.529 61.4655 132.608 61.4542Z" fill="#989FB0"/>
<path d="M137.119 54.7857C134.768 52.9523 132.463 54.2453 134.093 56.6634C136.736 60.5437 140.132 61.8262 144.943 77.5264C145.82 80.2931 153.693 71.8594 151.232 61.9287C150.805 60.0618 148.387 60.0053 148.387 60.0053C146.936 59.9714 140.829 57.7101 137.119 54.7857Z" fill="#989FB0"/>
<path d="M1.79248 163.619H45.2118C46.5637 163.619 46.8022 165.607 45.4503 165.845C33.2039 168.39 18.4127 169.424 26.9216 174.593C41.3947 183.34 63.9791 187.793 90.8577 182.783C115.033 178.33 115.351 112.804 116.464 94.8316C116.703 91.6507 119.327 89.106 122.508 89.106H124.575C127.915 89.106 130.698 91.8097 130.698 95.1497V105.965" stroke="#AAB2C2" stroke-width="3.1809" stroke-miterlimit="10" stroke-linecap="round" stroke-linejoin="round"/>
<path d="M131.052 90.6748C131.965 94.5447 128.815 96.4316 124.558 97.4358C120.301 98.4399 116.64 98.1597 115.727 94.2898C114.814 90.4198 117.489 86.5206 121.746 85.5164C126.003 84.5123 130.139 86.8049 131.052 90.6748Z" fill="#989FB0"/>
<path d="M126.961 126.164C126.166 126.164 125.53 125.528 125.53 124.732V119.166C125.53 118.37 126.166 117.734 126.961 117.734C127.756 117.734 128.392 118.37 128.392 119.166V124.732C128.392 125.607 127.756 126.164 126.961 126.164Z" fill="#989FB0"/>
<path d="M134.356 126.163C133.561 126.163 132.925 125.527 132.925 124.732V119.165C132.925 118.37 133.561 117.734 134.356 117.734C135.152 117.734 135.788 118.37 135.788 119.165V124.732C135.788 125.607 135.152 126.163 134.356 126.163Z" fill="#989FB0"/>
<path d="M138.094 119.245H123.462V117.575C123.462 113.519 126.722 106.521 130.778 106.521C134.834 106.521 138.094 113.519 138.094 117.575V119.245V119.245Z" fill="#989FB0"/>
<path d="M199.883 122.028H169.744C168.472 122.028 167.517 120.994 167.517 119.801V87.6744C167.517 86.402 168.551 85.4478 169.744 85.4478H199.883C201.155 85.4478 202.11 86.4815 202.11 87.6744V119.801C202.189 120.994 201.155 122.028 199.883 122.028Z" fill="#EAEEF9"/>
<path d="M196.146 103.102C196.146 106.839 194.317 110.259 191.533 112.327H177.935C175.152 110.259 173.323 106.919 173.323 103.102C173.323 99.3643 175.152 95.9449 177.935 93.8773H191.533C194.317 96.0244 196.146 99.3643 196.146 103.102Z" fill="#CCD3DE"/>
<path d="M180.48 103.738C179.923 103.738 179.446 103.261 179.446 102.704V99.2848C179.446 98.7282 179.923 98.251 180.48 98.251C181.036 98.251 181.513 98.7282 181.513 99.2848V102.704C181.513 103.261 181.036 103.738 180.48 103.738Z" fill="#989FB0"/>
<path d="M188.829 103.738C188.273 103.738 187.796 103.261 187.796 102.704V99.2848C187.796 98.7282 188.273 98.251 188.829 98.251C189.386 98.251 189.863 98.7282 189.863 99.2848V102.704C189.863 103.261 189.386 103.738 188.829 103.738Z" fill="#989FB0"/>
<path d="M185.649 108.668H183.581C183.104 108.668 182.627 108.271 182.627 107.714V106.68C182.627 105.567 183.501 104.692 184.615 104.692C185.728 104.692 186.603 105.567 186.603 106.68V107.714C186.603 108.191 186.205 108.668 185.649 108.668Z" fill="#989FB0"/>
<path d="M171.175 90.2987C171.922 90.2987 172.527 89.6934 172.527 88.9468C172.527 88.2002 171.922 87.5949 171.175 87.5949C170.429 87.5949 169.824 88.2002 169.824 88.9468C169.824 89.6934 170.429 90.2987 171.175 90.2987Z" fill="#D2DAE7"/>
<path d="M198.611 90.2987C199.357 90.2987 199.963 89.6934 199.963 88.9468C199.963 88.2002 199.357 87.5949 198.611 87.5949C197.864 87.5949 197.259 88.2002 197.259 88.9468C197.259 89.6934 197.864 90.2987 198.611 90.2987Z" fill="#D2DAE7"/>
<path d="M171.175 119.961C171.922 119.961 172.527 119.355 172.527 118.609C172.527 117.862 171.922 117.257 171.175 117.257C170.429 117.257 169.824 117.862 169.824 118.609C169.824 119.355 170.429 119.961 171.175 119.961Z" fill="#D2DAE7"/>
<path d="M198.611 119.961C199.357 119.961 199.963 119.355 199.963 118.609C199.963 117.862 199.357 117.257 198.611 117.257C197.864 117.257 197.259 117.862 197.259 118.609C197.259 119.355 197.864 119.961 198.611 119.961Z" fill="#D2DAE7"/>
<path d="M108.043 0.0490723L112.919 1.83038L114.183 33.7096L111.534 32.6039L108.043 0.0490723Z" fill="#B8BFCD"/>
<path d="M111.775 36.2279L114.183 37.395V40.5276L111.775 39.5448V36.2279Z" fill="#B8BFCD"/>
<path d="M118.276 16.0809L123.152 17.678V38.1937L120.443 37.088L118.276 16.0809Z" fill="#B8BFCD"/>
<path d="M120.684 40.5277L123.152 41.6333V44.5817L120.684 43.6603V40.5277Z" fill="#B8BFCD"/>
</svg>
