<svg width="129" height="136" viewBox="0 0 129 136" fill="none" xmlns="http://www.w3.org/2000/svg">
<path d="M71.0486 110.397C99.0486 110.397 121.749 87.6969 121.749 59.5969C121.749 31.4969 98.9486 8.79688 71.0486 8.79688C43.0486 8.79688 20.3486 31.4969 20.3486 59.5969C20.3486 87.6969 43.0486 110.397 71.0486 110.397Z" fill="#EAEEF9"/>
<path d="M118.449 26.2967C120.713 26.2967 122.549 24.461 122.549 22.1967C122.549 19.9323 120.713 18.0967 118.449 18.0967C116.184 18.0967 114.349 19.9323 114.349 22.1967C114.349 24.461 116.184 26.2967 118.449 26.2967Z" fill="#EAEEF9"/>
<path d="M124.449 10.2968C125.995 10.2968 127.249 9.04317 127.249 7.49678C127.249 5.95038 125.995 4.69678 124.449 4.69678C122.902 4.69678 121.649 5.95038 121.649 7.49678C121.649 9.04317 122.902 10.2968 124.449 10.2968Z" fill="#EAEEF9"/>
<path d="M23.0485 26.1967C24.5949 26.1967 25.8485 24.9431 25.8485 23.3967C25.8485 21.8503 24.5949 20.5967 23.0485 20.5967C21.5021 20.5967 20.2485 21.8503 20.2485 23.3967C20.2485 24.9431 21.5021 26.1967 23.0485 26.1967Z" fill="#EAEEF9"/>
<path d="M5.94853 80.1969C8.82042 80.1969 11.1485 77.8688 11.1485 74.9969C11.1485 72.125 8.82042 69.7969 5.94853 69.7969C3.07665 69.7969 0.748535 72.125 0.748535 74.9969C0.748535 77.8688 3.07665 80.1969 5.94853 80.1969Z" fill="#EAEEF9"/>
<g filter="url(#filter0_d)">
<path d="M105.549 34.1967L106.349 98.5967C106.349 100.797 104.549 102.497 102.349 102.497H39.5486C37.3486 102.497 35.5486 100.697 35.5486 98.5967V15.7967C35.5486 13.5967 37.3486 11.8967 39.5486 11.8967H85.0486L105.549 34.1967Z" fill="url(#paint0_linear)"/>
</g>
<path d="M85.0486 11.8967V29.6967C85.0486 32.1967 87.2486 34.1967 89.7486 34.1967H105.549" fill="#D5DDEA"/>
<g clip-path="url(#clip0)">
<path d="M70.6408 12.2107H66.7986V14.8518H70.6408V12.2107Z" fill="#7E879F"/>
<path d="M74.5202 14.8518H70.678V17.4929H74.5202V14.8518Z" fill="#7E879F"/>
<path d="M70.6408 17.4556H66.7986V20.0966H70.6408V17.4556Z" fill="#7E879F"/>
<path d="M74.5202 20.0967H70.678V22.7377H74.5202V20.0967Z" fill="#7E879F"/>
<path d="M70.6408 22.7378H66.7986V25.3789H70.6408V22.7378Z" fill="#7E879F"/>
<path d="M74.5202 25.3789H70.678V28.02H74.5202V25.3789Z" fill="#7E879F"/>
<path d="M70.6408 27.9827H66.7986V30.6237H70.6408V27.9827Z" fill="#7E879F"/>
<path d="M74.5202 30.6238H70.678V33.2648H74.5202V30.6238Z" fill="#7E879F"/>
<path d="M70.6408 33.2649H66.7986V35.906H70.6408V33.2649Z" fill="#7E879F"/>
<path d="M74.5202 35.906H70.678V38.5471H74.5202V35.906Z" fill="#7E879F"/>
<path d="M70.6408 38.5098H66.7986V41.1508H70.6408V38.5098Z" fill="#7E879F"/>
<path d="M74.5202 41.1509H70.678V43.7919H74.5202V41.1509Z" fill="#7E879F"/>
<path d="M70.6408 43.7917H66.7986V46.4328H70.6408V43.7917Z" fill="#7E879F"/>
<path d="M74.5202 46.3958H70.678V49.0368H74.5202V46.3958Z" fill="#7E879F"/>
<path d="M70.6408 49.0369H66.7986V51.6779H70.6408V49.0369Z" fill="#7E879F"/>
<path d="M74.5202 51.678H70.678V54.319H74.5202V51.678Z" fill="#7E879F"/>
<path d="M66.7986 54.3188V66.6686H74.5202V54.3188H66.7986ZM73.3639 65.5155H67.955V61.9444H73.3639V65.5155Z" fill="#7E879F"/>
<path d="M57.7341 85.6309L60.7557 81.8367C61.3152 81.2043 61.7255 80.7207 62.2851 80.1255V80.0884H58.0699V77.7449H65.9407V79.5304L63.0684 83.1386C62.5462 83.771 62.0612 84.3661 61.5017 84.8869V84.9241H66.1272V87.3048H57.7341V85.6309Z" fill="#7E879F"/>
<path d="M71.5361 75.0666C71.5361 75.885 70.9019 76.5545 69.932 76.5545C68.9995 76.5545 68.3653 75.885 68.3653 75.0666C68.328 74.2111 68.9622 73.5415 69.932 73.5415C70.9019 73.5787 71.5361 74.2111 71.5361 75.0666ZM68.4772 87.3048V77.7449H71.4615V87.3048H68.4772Z" fill="#7E879F"/>
<path d="M73.849 80.944C73.849 79.6792 73.8117 78.6005 73.7744 77.7449H76.3483L76.4975 79.084H76.5348C77.2436 78.0797 78.3253 77.5217 79.7429 77.5217C81.8318 77.5217 83.7342 79.3444 83.7342 82.3947C83.7342 85.8913 81.5334 87.528 79.3698 87.528C78.2134 87.528 77.3182 87.0444 76.8705 86.4493H76.8332V91.2106H73.849V80.944V80.944ZM76.8332 83.213C76.8332 83.4362 76.8705 83.6594 76.9078 83.8454C77.0944 84.6638 77.8031 85.2589 78.6611 85.2589C79.9667 85.2589 80.7127 84.1802 80.7127 82.5435C80.7127 81.0183 80.0413 79.8652 78.6984 79.8652C77.8404 79.8652 77.0944 80.4976 76.9078 81.3903C76.8705 81.5391 76.8332 81.7251 76.8332 81.9111V83.213V83.213Z" fill="#7E879F"/>
</g>
<defs>
<filter id="filter0_d" x="13.5486" y="0.896729" width="114.8" height="134.6" filterUnits="userSpaceOnUse" color-interpolation-filters="sRGB">
<feFlood flood-opacity="0" result="BackgroundImageFix"/>
<feColorMatrix in="SourceAlpha" type="matrix" values="0 0 0 0 0 0 0 0 0 0 0 0 0 0 0 0 0 0 127 0"/>
<feOffset dy="11"/>
<feGaussianBlur stdDeviation="11"/>
<feColorMatrix type="matrix" values="0 0 0 0 0.397708 0 0 0 0 0.47749 0 0 0 0 0.575 0 0 0 0.27 0"/>
<feBlend mode="normal" in2="BackgroundImageFix" result="effect1_dropShadow"/>
<feBlend mode="normal" in="SourceGraphic" in2="effect1_dropShadow" result="shape"/>
</filter>
<linearGradient id="paint0_linear" x1="70.9255" y1="9.80106" x2="70.9255" y2="103.473" gradientUnits="userSpaceOnUse">
<stop stop-color="#FDFEFF"/>
<stop offset="0.9964" stop-color="#ECF0F5"/>
</linearGradient>
<clipPath id="clip0">
<rect width="26" height="77" fill="white" transform="translate(57.7341 12.2107)"/>
</clipPath>
</defs>
</svg>
